# Blender v2.77 (sub 0) OBJ File: ''
# www.blender.org
g Stonehenge_01_Collider
v 2.288274 4.149336 0.984525
v 2.291920 0.007108 0.987000
v 2.394181 4.095821 -0.700844
v 3.455142 4.191498 0.708551
v 3.408830 2.327291 1.130899
v 3.801873 4.190396 1.171275
v 5.296198 0.068007 1.337908
v 5.295468 4.067240 1.337504
v 3.595062 0.004753 -0.558662
v -1.538543 4.185024 -0.758046
v -2.767859 3.997708 -0.669708
v -2.228020 4.230426 0.686098
v -2.767849 0.051448 -0.669604
v -2.645464 3.854317 1.025870
v 4.990057 4.650221 1.466340
v 5.108851 5.054918 0.432753
v 4.506491 5.042140 1.141963
v 4.730093 5.037192 -0.564790
v 5.075991 4.202157 -0.525269
v 2.499736 4.209623 -0.802299
v -4.970878 4.184356 1.305443
v -3.889538 3.936994 -0.516343
v -4.670661 4.259127 -0.028157
v -0.750723 3.963061 0.887305
v -0.872871 3.807777 -0.804873
v 1.324250 4.190339 -0.769198
v 2.396288 -0.008253 -0.705276
v 1.073427 4.177020 0.916962
v 0.453294 4.174113 -0.047277
v 0.397156 3.464952 0.876961
v 0.424118 -0.008327 0.431378
v 0.398993 0.285759 0.876837
v 5.255012 4.193591 -0.376797
v 3.594163 4.172117 -0.557954
v -0.872539 -0.008490 -0.806033
v -0.752188 0.154504 0.889364
v -2.645196 0.087169 1.025784
v 3.408830 -0.008253 1.130899
v 5.482689 3.988865 -0.349986
v 5.481898 0.015750 -0.351620
v -5.602610 -0.007911 1.371470
v -5.778985 3.712042 -0.316858
v -5.777626 0.155822 -0.319136
v -3.712997 -0.007404 1.173859
v -3.712820 3.997010 1.174044
v -0.867583 5.044537 -0.953395
v 2.042317 5.029115 -0.840344
v 1.710053 5.018134 1.047752
v -0.617026 4.184475 1.055856
v -0.039022 5.042079 1.045178
v -3.205212 5.018338 1.180124
v 1.690313 4.219097 1.044600
v -3.403494 4.216784 -0.671340
v -0.851105 4.186467 -0.959681
v 5.096473 4.184037 1.472719
v -5.102923 4.828531 -0.452632
v -5.057360 4.192948 -0.512469
v -5.079757 4.208066 1.441887
v -4.830533 5.044005 1.468759
v -4.453351 5.029592 -0.584898
v 0.499736 3.854160 -0.819852
v 0.499752 -0.008253 -0.819941
v -5.602364 3.827962 1.368034
v -3.890086 0.111310 -0.516489
vn 0.9980 0.0009 0.0627
vn -0.7905 0.1539 0.5927
vn -0.1089 0.0001 0.9940
vn -0.9940 -0.0001 -0.1094
vn -0.1572 0.9819 -0.1059
vn -0.9974 -0.0000 0.0720
vn 0.4208 0.8273 0.3723
vn 0.1069 -0.0028 -0.9943
vn 0.4565 0.8767 0.1519
vn 0.4837 0.8677 -0.1145
vn 0.0639 0.0011 -0.9980
vn -0.6674 0.6098 0.4274
vn 0.0222 0.9997 0.0112
vn -0.0138 0.9999 0.0058
vn 0.9981 0.0004 0.0616
vn -0.1533 -0.8286 0.5384
vn -0.0590 -0.0001 0.9983
vn -0.0111 0.9998 -0.0165
vn 0.0741 0.9947 0.0716
vn 0.9975 -0.0004 -0.0708
vn -0.1105 0.0018 0.9939
vn 0.0719 -0.0000 0.9974
vn -0.9940 0.0000 -0.1096
vn 0.1173 0.0004 -0.9931
vn -0.0555 0.0005 0.9985
vn 0.0171 0.6597 0.7513
vn -0.9947 -0.0004 0.1029
vn 0.9946 -0.0000 -0.1040
vn -0.6142 0.7814 0.1104
vn 0.0387 -0.0248 -0.9989
vn -0.0318 0.6137 0.7889
vn 0.0427 -0.0163 0.9990
vn -0.1267 -0.0008 0.9919
vn -0.1122 0.0051 -0.9937
vn 0.1039 -0.0001 0.9946
vn 0.0053 1.0000 -0.0010
vn 0.9940 0.0002 0.1092
vn -0.0013 0.0133 0.9999
vn -0.9984 0.0005 -0.0566
vn -0.1248 -0.0149 0.9921
vn -0.9975 -0.0705 -0.0109
vn 0.1019 0.0107 -0.9947
vn 0.8749 0.3464 -0.3384
vn 0.9554 0.2208 0.1962
vn 0.9996 -0.0267 -0.0105
vn -0.3068 0.9497 -0.0630
vn 0.1730 -0.0831 0.9814
vn -0.9541 0.2811 0.1037
vn -0.0717 -0.0000 -0.9974
vn -0.2214 0.0757 -0.9722
vn -0.0954 -0.0173 -0.9953
vn -0.9982 -0.0000 -0.0603
vn 0.0611 0.0004 -0.9981
vn -0.4921 0.8705 -0.0083
vn 0.0070 -1.0000 -0.0018
vn -0.0291 0.9996 -0.0067
vn -0.0087 1.0000 0.0043
vn -0.0027 1.0000 -0.0032
vn 0.1420 0.9886 -0.0499
vn -0.1568 0.6903 -0.7063
vn -0.0073 1.0000 0.0043
vn -0.1051 0.0006 -0.9945
vn -0.1040 0.0001 -0.9946
vn -0.0061 -0.9999 -0.0089
vn 0.1712 0.9839 0.0508
vn 0.0896 0.9956 -0.0260
vn 0.0150 0.9999 -0.0043
vn -0.9974 -0.0001 0.0722
vn 0.9974 0.0001 -0.0720
vn 0.0729 0.0005 0.9973
vn -0.0581 -0.0002 0.9983
vn 0.1084 0.0002 -0.9941
vn -0.9940 -0.0002 -0.1091
vn -0.0104 -0.9999 0.0006
vn 0.0469 0.0082 -0.9989
vn -0.0019 -1.0000 -0.0090
vn 0.9946 -0.0001 -0.1042
vn -0.1021 -0.0261 -0.9944
vn 0.1040 -0.0000 0.9946
vn 0.0137 0.9999 0.0082
vn -0.0033 1.0000 0.0087
vn 0.0002 1.0000 0.0022
vn 0.9939 -0.0002 0.1103
vn 0.0049 -0.0041 1.0000
vn -0.9981 -0.0006 -0.0611
vn 0.1091 -0.0001 -0.9940
vn -0.9946 0.0002 0.1042
vn -0.3295 0.8651 -0.3781
vn -0.0718 0.0000 -0.9974
vn -0.9982 0.0001 -0.0600
vn 0.0604 0.0000 -0.9982
vn -0.4323 0.9005 -0.0468
vn 0.0152 -0.9999 0.0079
vn 0.0151 -0.9998 0.0117
vn 0.0981 0.0009 0.9952
vn -0.0700 0.0003 -0.9975
vn -0.1090 -0.0000 0.9940
vn 0.6656 0.7453 0.0392
vn -0.0118 -0.9999 0.0004
vn 0.0862 0.1201 0.9890
s off
f 1//1 2//1 3//1
f 4//2 5//2 6//2
f 5//3 7//3 8//3
f 9//4 5//4 4//4
f 10//5 11//5 12//5
f 11//6 13//6 14//6
f 15//7 16//7 17//7
f 18//8 19//8 20//8
f 21//9 22//9 23//9
f 10//10 24//10 25//10
f 26//11 3//11 27//11
f 28//12 29//12 30//12
f 1//13 26//13 28//13
f 26//14 29//14 28//14
f 27//15 3//15 2//15
f 31//16 2//16 32//16
f 28//17 30//17 32//17
f 33//18 34//18 4//18
f 8//19 33//19 6//19
f 35//20 24//20 36//20
f 8//21 6//21 5//21
f 36//22 14//22 37//22
f 38//23 5//23 9//23
f 33//24 39//24 40//24
f 28//25 2//25 1//25
f 14//26 24//26 12//26
f 41//27 42//27 43//27
f 44//28 22//28 45//28
f 11//29 14//29 12//29
f 20//30 46//30 47//30
f 48//31 15//31 17//31
f 49//32 50//32 51//32
f 15//33 48//33 52//33
f 53//34 46//34 54//34
f 21//35 44//35 45//35
f 50//36 47//36 46//36
f 40//37 8//37 7//37
f 49//38 48//38 50//38
f 32//39 29//39 31//39
f 15//40 52//40 55//40
f 56//41 57//41 58//41
f 20//42 47//42 18//42
f 18//43 16//43 19//43
f 15//44 55//44 16//44
f 55//45 19//45 16//45
f 59//46 60//46 56//46
f 58//47 51//47 59//47
f 56//48 58//48 59//48
f 10//49 13//49 11//49
f 56//50 60//50 57//50
f 53//51 57//51 60//51
f 31//52 61//52 62//52
f 27//53 61//53 26//53
f 21//54 42//54 63//54
f 20//55 49//55 54//55
f 16//56 18//56 17//56
f 17//57 47//57 48//57
f 17//58 18//58 47//58
f 21//59 45//59 22//59
f 22//60 42//60 23//60
f 50//61 46//61 51//61
f 43//62 42//62 22//62
f 22//63 64//63 43//63
f 53//64 49//64 58//64
f 10//65 12//65 24//65
f 1//66 3//66 26//66
f 60//67 59//67 51//67
f 13//68 37//68 14//68
f 25//69 24//69 35//69
f 36//70 24//70 14//70
f 28//71 32//71 2//71
f 9//72 34//72 33//72
f 4//73 34//73 9//73
f 20//74 55//74 52//74
f 20//75 54//75 46//75
f 20//76 19//76 55//76
f 44//77 64//77 22//77
f 53//78 60//78 46//78
f 21//79 41//79 44//79
f 50//80 48//80 47//80
f 51//81 46//81 60//81
f 33//82 4//82 6//82
f 40//83 39//83 8//83
f 49//84 52//84 48//84
f 32//85 30//85 29//85
f 40//86 9//86 33//86
f 63//87 42//87 41//87
f 29//88 26//88 61//88
f 10//89 35//89 13//89
f 31//90 29//90 61//90
f 27//91 62//91 61//91
f 21//92 23//92 42//92
f 57//93 53//93 58//93
f 20//94 52//94 49//94
f 41//95 21//95 63//95
f 35//96 10//96 25//96
f 7//97 5//97 38//97
f 8//98 39//98 33//98
f 53//99 54//99 49//99
f 58//100 49//100 51//100
