# Blender v2.77 (sub 0) OBJ File: ''
# www.blender.org
g Stonehenge_07_Collider
v 1.023007 0.731009 0.605176
v 0.618442 -0.000000 0.598400
v 1.011559 -0.000000 0.272486
v -0.591889 0.000000 -0.598400
v -1.013386 -0.005938 0.598185
v -1.019503 0.122443 -0.606031
v 0.387082 4.000000 -0.339417
v 0.956061 3.750105 -0.423199
v 0.977966 3.460519 -0.576213
v -0.945323 3.998870 0.555123
v -1.012626 1.946740 0.598673
v 0.327643 4.001322 0.559461
v 0.974875 3.516358 0.575623
v 0.954942 3.780579 0.269191
v -0.952976 3.774163 -0.567395
v -0.574058 4.000000 -0.428509
v 1.020926 0.001715 -0.606178
v -0.995186 2.685076 -0.588713
vn 0.6004 -0.3390 0.7243
vn -0.2722 -0.9570 -0.1006
vn 0.0771 0.4703 -0.8791
vn -0.0034 0.0213 0.9998
vn 0.4920 0.6749 0.5499
vn 0.9971 0.0763 -0.0017
vn 0.0716 0.4656 -0.8821
vn 0.0839 0.4160 -0.9055
vn -0.0072 0.0238 0.9997
vn 0.9999 0.0125 -0.0092
vn 0.3969 0.9170 -0.0397
vn -0.9999 0.0095 -0.0087
vn -0.9992 0.0385 0.0093
vn 0.9997 -0.0205 0.0106
vn 0.0001 1.0000 -0.0015
vn -0.4572 0.8726 -0.1716
vn 0.0003 0.0068 -1.0000
vn -0.0001 -0.0003 1.0000
vn 0.9972 0.0742 -0.0009
vn -1.0000 0.0004 0.0051
vn 0.0032 0.0107 0.9999
vn 0.9998 0.0173 0.0018
vn 0.3406 0.9400 0.0211
vn -0.9995 0.0328 0.0003
vn -0.0019 1.0000 0.0004
vn -0.0014 0.0196 -0.9998
vn 0.0029 0.0087 -1.0000
vn -0.0066 -0.0056 1.0000
vn -0.0047 -0.0786 -0.9969
s off
f 1//1 2//1 3//1
f 4//2 5//2 6//2
f 7//3 8//3 9//3
f 10//4 11//4 12//4
f 12//5 13//5 14//5
f 14//6 9//6 8//6
f 9//7 15//7 7//7
f 16//8 7//8 15//8
f 13//9 12//9 11//9
f 9//10 1//10 17//10
f 7//11 14//11 8//11
f 11//12 18//12 6//12
f 11//13 15//13 18//13
f 3//14 17//14 1//14
f 16//15 12//15 7//15
f 10//16 16//16 15//16
f 18//17 17//17 6//17
f 2//18 11//18 5//18
f 13//19 9//19 14//19
f 6//20 5//20 11//20
f 1//21 13//21 11//21
f 9//22 13//22 1//22
f 7//23 12//23 14//23
f 11//24 10//24 15//24
f 16//25 10//25 12//25
f 18//26 15//26 9//26
f 18//27 9//27 17//27
f 2//28 1//28 11//28
f 4//29 6//29 17//29
