# Blender v2.77 (sub 0) OBJ File: ''
# www.blender.org
g Stonehenge_05_Collider
v 1.976337 0.848276 -1.000003
v -1.719171 -0.001724 -1.000003
v -1.696944 0.848276 -1.000003
v 2.249998 0.632348 0.633382
v 2.251716 -0.001841 -0.999922
v 2.249998 0.676463 -1.000003
v -2.241385 0.816962 -0.762136
v -2.249253 -0.001718 0.999926
v -2.238626 0.569519 0.948609
v -1.677646 0.848276 0.999997
v 1.785978 0.848423 0.998934
v 2.206754 -0.001636 0.999547
v -2.250002 -0.001724 -0.620812
vn 0.0000 0.0000 -1.0000
vn 1.0000 0.0025 0.0001
vn -0.9998 0.0190 0.0044
vn 0.0003 -0.0003 1.0000
vn 0.6744 0.3343 0.6584
vn -0.4008 0.0105 -0.9161
vn -0.0001 -0.0001 -1.0000
vn 0.0000 -0.0001 -1.0000
vn 0.9982 -0.0551 0.0225
vn -0.9999 0.0106 0.0005
vn -0.0572 0.9984 0.0006
vn 0.0000 -1.0000 0.0000
vn 0.4492 0.8924 0.0427
vn -0.1357 0.0912 0.9866
vn 0.0001 0.0008 1.0000
vn -0.4507 0.8834 0.1285
vn -0.0000 1.0000 0.0000
vn -0.0000 -1.0000 0.0001
vn -0.5761 -0.1332 -0.8065
vn 0.5316 0.8467 0.0229
vn 0.0000 1.0000 -0.0001
s off
f 1//1 2//1 3//1
f 4//2 5//2 6//2
f 7//3 8//3 9//3
f 10//4 8//4 11//4
f 4//5 11//5 12//5
f 7//6 3//6 2//6
f 1//7 6//7 5//7
f 5//8 2//8 1//8
f 4//9 12//9 5//9
f 13//10 8//10 7//10
f 3//11 7//11 10//11
f 2//12 12//12 8//12
f 4//13 1//13 11//13
f 13//12 2//12 8//12
f 10//14 9//14 8//14
f 12//15 11//15 8//15
f 10//16 7//16 9//16
f 11//17 3//17 10//17
f 2//18 5//18 12//18
f 2//19 13//19 7//19
f 4//20 6//20 1//20
f 11//21 1//21 3//21
