# Blender v2.77 (sub 0) OBJ File: 'LowPoly_Level_Kit_Rocks.blend'
# www.blender.org
g Crystal_s_03
v 0.000000 0.000000 -0.100980
v -0.096038 0.000000 -0.031205
v -0.059355 0.000000 0.081695
v 0.059355 0.000000 0.081695
v 0.096038 0.000000 -0.031205
v 0.096038 0.488141 -0.031205
v 0.000000 0.478527 -0.100980
v 0.088985 0.496767 -0.036328
v -0.096038 0.463624 -0.031205
v -0.038431 0.528810 -0.073058
v -0.059355 0.474567 0.081695
v 0.059355 0.497766 0.081695
v 0.061879 0.505971 0.073924
v 0.013385 0.573005 -0.003175
v -0.010080 0.576974 -0.011795
v -0.071593 0.509555 0.044027
vt 0.2884 0.0068
vt 0.4195 0.1163
vt 0.2135 0.1225
vt 0.5943 0.1157
vt 0.4195 0.1315
vt 0.5043 0.0000
vt 0.8168 0.7443
vt 0.6198 0.6610
vt 0.7895 0.6289
vt 0.3246 0.0000
vt 0.7292 0.8486
vt 0.6914 0.8376
vt 0.4007 0.1767
vt 0.4237 0.1464
vt 0.6069 0.9887
vt 0.4237 0.9887
vt 0.6069 0.6503
vt 0.2174 0.9956
vt 0.2174 0.1367
vt 0.8168 0.1125
vt 0.9267 0.0000
vt 1.0000 0.0868
vt 0.1838 0.1922
vt 0.0305 1.0000
vt 0.0000 0.1818
vt 0.6069 0.1298
vt 0.0588 0.1187
vt 0.2135 0.0782
vt 1.0000 0.9125
vt 0.8168 0.9125
vt 0.6348 0.0088
vt 0.8168 0.0000
vt 0.4007 0.9956
vt 0.2135 0.9915
vt 0.1071 0.0000
vn -0.1374 0.7031 0.6977
vn 0.7310 0.6711 0.1237
vn 0.3569 0.6470 -0.6738
vn 0.9511 0.0000 0.3090
vn 0.5878 0.0000 -0.8090
vn 0.0000 0.0000 1.0000
vn -0.5878 0.0000 -0.8090
vn -0.9511 0.0000 0.3090
vn -0.7810 0.6129 -0.1204
s off
f 14/1/1 16/2/1 13/3/1
f 13/4/2 8/5/2 14/6/2
f 10/7/3 8/8/3 7/9/3
f 14/1/1 15/10/1 16/2/1
f 15/11/3 14/12/3 10/7/3
f 11/13/1 13/3/1 16/2/1
f 13/4/2 6/14/2 8/5/2
f 6/14/4 4/15/4 5/16/4
f 7/9/5 8/8/5 6/17/5
f 11/13/6 4/18/6 12/19/6
f 9/20/7 10/21/7 7/22/7
f 9/23/8 3/24/8 11/25/8
f 6/14/4 13/4/4 12/26/4
f 16/27/9 10/28/9 9/23/9
f 9/20/7 1/29/7 2/30/7
f 11/25/8 16/27/8 9/23/8
f 7/9/5 5/31/5 1/32/5
f 10/7/3 14/12/3 8/8/3
f 11/13/1 12/19/1 13/3/1
f 6/14/4 12/26/4 4/15/4
f 11/13/6 3/33/6 4/18/6
f 9/23/8 2/34/8 3/24/8
f 16/27/9 15/35/9 10/28/9
f 9/20/7 7/22/7 1/29/7
f 7/9/5 6/17/5 5/31/5
