# Blender v2.77 (sub 0) OBJ File: 'LowPoly_Level_Kit_Rocks.blend'
# www.blender.org
g Crystal_m_09
v 0.000000 0.000000 -0.218400
v -0.189140 0.000000 -0.109200
v -0.189140 0.000000 0.109200
v 0.000000 0.000000 0.218400
v 0.189140 0.000000 0.109200
v 0.189140 0.000000 -0.109200
v 0.189140 1.763063 0.109200
v 0.189140 1.726435 -0.109200
v 0.000000 1.806850 0.218400
v 0.103554 1.903853 0.158613
v 0.000000 1.755094 -0.218400
v 0.124743 1.819898 -0.146379
v -0.017769 2.062426 -0.015853
v -0.189140 1.787871 -0.109200
v -0.022741 2.062312 -0.017063
v -0.112544 1.889943 -0.153423
v -0.189140 1.611961 0.109200
v -0.068551 1.830762 0.178822
v -0.072725 1.999679 0.025997
v -0.189140 1.803351 -0.053913
vt 0.7973 0.1457
vt 1.0000 0.9946
vt 0.8274 0.9969
vt 0.3024 0.0854
vt 0.2777 0.1392
vt 0.2342 0.1327
vt 0.5982 0.1936
vt 0.5613 0.1405
vt 0.7689 0.1700
vt 0.1092 0.2271
vt 0.0249 0.9914
vt 0.0000 0.1251
vt 0.0383 0.1167
vt 0.8730 0.0767
vt 0.9691 0.1223
vt 1.0000 0.1104
vt 0.9396 0.0296
vt 0.3799 0.0001
vt 0.3828 0.0000
vt 0.3723 0.0833
vt 0.4750 0.1484
vt 0.3024 0.9959
vt 0.3024 0.1326
vt 0.5319 0.1171
vt 0.5613 0.1622
vt 0.3024 0.9964
vt 0.1315 1.0000
vt 0.7973 0.8862
vt 0.8844 0.0000
vt 0.8873 0.0000
vt 0.1560 0.0335
vt 0.1833 0.0000
vt 0.7973 0.0888
vt 0.4750 0.9959
vt 0.6259 0.8949
vt 0.6463 0.0000
vt 0.5613 0.9959
vn 0.5000 0.0000 0.8660
vn -0.8212 0.5495 -0.1539
vn 0.8366 0.5403 -0.0906
vn -0.5000 0.0000 0.8660
vn -0.8504 0.3413 0.4004
vn -0.1927 0.6557 0.7300
vn 0.1860 0.5482 -0.8154
vn -0.5000 0.0000 -0.8660
vn 0.5000 0.0000 -0.8660
vn -1.0000 0.0000 0.0000
vn 1.0000 0.0000 0.0000
vn -0.1928 0.6557 0.7300
s off
f 7/1/1 4/2/1 5/3/1
f 16/4/2 14/5/2 20/6/2
f 8/7/3 12/8/3 7/9/3
f 17/10/4 4/11/4 9/12/4
f 18/13/5 20/6/5 17/10/5
f 7/1/1 10/14/1 9/15/1
f 18/16/6 10/14/6 19/17/6
f 15/18/7 13/19/7 16/20/7
f 11/21/8 2/22/8 14/23/8
f 11/21/9 12/24/9 8/25/9
f 12/24/7 16/20/7 13/19/7
f 17/10/10 2/26/10 3/27/10
f 5/28/11 8/7/11 7/9/11
f 14/23/8 16/20/8 11/21/8
f 10/14/6 13/29/6 19/17/6
f 15/30/6 19/17/6 13/29/6
f 16/4/2 19/31/2 15/32/2
f 9/12/4 18/13/4 17/10/4
f 12/8/3 10/33/3 7/9/3
f 17/10/10 20/6/10 14/5/10
f 8/25/9 1/34/9 11/21/9
f 7/1/1 9/15/1 4/2/1
f 17/10/4 3/27/4 4/11/4
f 18/13/5 19/31/5 20/6/5
f 18/16/12 9/15/12 10/14/12
f 11/21/8 1/34/8 2/22/8
f 12/24/7 11/21/7 16/20/7
f 17/10/10 14/5/10 2/26/10
f 5/28/11 6/35/11 8/7/11
f 16/4/2 20/6/2 19/31/2
f 12/8/3 13/36/3 10/33/3
f 8/25/9 6/37/9 1/34/9
