# Blender v2.77 (sub 0) OBJ File: 'LowPoly_Level_Kit_Rocks.blend'
# www.blender.org
g Crystal_m_08
v -0.000000 0.000000 -0.210210
v -0.182047 0.000000 -0.105105
v -0.182047 0.000000 0.105105
v 0.000000 0.000000 0.210210
v 0.182047 0.000000 0.105105
v 0.182047 0.000000 -0.105105
v 0.165497 2.273200 0.095550
v 0.165497 2.308996 -0.095550
v 0.000000 2.371885 -0.191100
v 0.121094 2.384976 -0.121186
v -0.165497 2.372278 -0.095550
v -0.079229 2.463269 -0.145357
v 0.000000 2.366734 0.191100
v 0.042674 2.456803 0.166462
v -0.165497 2.306209 0.095550
v -0.031382 2.605286 0.007525
v -0.051493 2.600938 -0.006076
v -0.165497 2.442654 0.005257
vt 0.4680 0.8300
vt 0.6798 0.0036
vt 0.6604 0.8550
vt 0.7963 0.1275
vt 0.6992 0.1136
vt 0.7252 0.0844
vt 0.6798 0.8934
vt 0.5223 0.9577
vt 0.3398 0.0225
vt 0.4679 0.0000
vt 0.0959 0.9095
vt 0.0247 0.9143
vt 0.0000 0.8850
vt 0.3398 0.9383
vt 0.1872 0.9451
vt 0.2899 0.9109
vt 0.6798 0.9986
vt 0.2312 0.9984
vt 0.4977 0.9559
vt 0.4126 0.8886
vt 0.2203 1.0000
vt 1.0000 0.9989
vt 0.7866 0.9989
vt 0.3514 0.8741
vt 0.9403 0.0572
vt 0.9246 0.0000
vt 0.9903 0.0917
vt 0.1265 0.0004
vt 0.3398 0.0018
vt 0.0198 0.0000
vn -0.5019 0.0070 0.8649
vn 0.8443 0.5267 0.0987
vn -0.5642 0.4556 0.6885
vn -1.0000 0.0072 0.0000
vn 0.5000 0.0000 -0.8660
vn -0.7670 0.5261 -0.3673
vn 1.0000 0.0072 0.0013
vn -0.5000 0.0000 -0.8660
vn 0.3328 0.6367 -0.6956
vn 0.5000 0.0073 0.8660
vn -1.0000 0.0000 0.0000
vn 0.5000 -0.0000 0.8660
vn 0.5020 0.0070 -0.8649
vn -0.5000 0.0070 -0.8660
vn -0.5000 0.0072 0.8660
vn -1.0000 0.0070 0.0024
vn 1.0000 0.0073 0.0000
vn 0.5029 0.0070 0.8643
vn 0.5000 0.0072 -0.8660
s off
f 15/1/1 4/2/1 13/3/1
f 7/4/2 8/5/2 10/6/2
f 15/1/3 14/7/3 16/8/3
f 15/1/4 2/9/4 3/10/4
f 9/11/5 10/12/5 8/13/5
f 18/14/6 12/15/6 11/16/6
f 7/4/7 6/17/7 8/5/7
f 11/16/8 12/15/8 9/11/8
f 10/12/9 12/15/9 17/18/9
f 16/8/3 17/19/3 15/1/3
f 18/20/3 15/1/3 17/19/3
f 17/18/9 16/21/9 10/12/9
f 7/4/10 4/22/10 5/23/10
f 15/1/11 18/20/11 11/24/11
f 14/25/2 10/6/2 16/26/2
f 7/4/12 14/25/12 13/27/12
f 8/13/13 1/28/13 9/11/13
f 9/11/14 2/29/14 11/16/14
f 15/1/15 3/10/15 4/2/15
f 15/1/3 13/3/3 14/7/3
f 15/1/16 11/24/16 2/9/16
f 18/14/6 17/18/6 12/15/6
f 7/4/17 5/23/17 6/17/17
f 10/12/9 9/11/9 12/15/9
f 7/4/18 13/27/18 4/22/18
f 14/25/2 7/4/2 10/6/2
f 8/13/19 6/30/19 1/28/19
f 9/11/14 1/28/14 2/29/14
