# Blender v2.77 (sub 0) OBJ File: 'LowPoly_Level_Kit_Rocks.blend'
# www.blender.org
g Crystal_m_12
v 0.321851 0.000000 0.270065
v 0.394809 0.000000 -0.143699
v 0.072958 0.000000 -0.413764
v -0.321851 0.000000 -0.270065
v -0.394809 0.000000 0.143699
v -0.072958 0.000000 0.413764
v -0.394809 1.170992 0.143699
v -0.072958 1.225115 0.413764
v 0.004427 1.324646 0.385598
v 0.321851 1.181381 0.270065
v 0.099135 1.563374 0.225318
v 0.352099 1.526889 0.098523
v 0.394809 1.340777 -0.143699
v 0.355875 1.538402 0.077104
v -0.321851 1.372896 -0.270065
v -0.346736 1.469928 -0.128939
v 0.050164 1.721553 0.005154
v 0.072958 1.414160 -0.413764
v 0.078259 1.719337 -0.011901
v 0.083234 1.424561 -0.405141
vt 0.1743 0.6693
vt 0.2693 0.0248
vt 0.2693 0.7844
vt 0.9525 0.2775
vt 0.8271 0.8514
vt 0.7769 0.2449
vt 0.5381 0.1256
vt 0.6070 0.0000
vt 0.7769 0.1525
vt 0.0964 0.8948
vt 0.0342 0.7518
vt 0.5537 0.3665
vt 0.5334 0.2983
vt 0.7295 0.3758
vt 0.6033 0.9210
vt 0.0000 0.6957
vt 0.2137 0.8754
vt 0.2186 0.8832
vt 0.8873 0.0000
vt 0.7821 0.2405
vt 0.2693 0.3156
vt 0.3589 0.9836
vt 0.2716 0.9841
vt 0.1269 0.9991
vt 0.1134 1.0000
vt 0.4616 0.0000
vt 0.4750 0.0012
vt 0.3262 0.1445
vt 0.5334 0.1691
vt 0.5306 0.1751
vt 0.3562 0.1997
vt 0.0000 0.0016
vt 0.1743 0.0000
vt 0.5334 0.9824
vt 1.0000 0.8526
vt 0.7769 0.9058
vt 1.0000 0.1199
vn 0.9848 0.0000 0.1736
vn 0.6428 0.0000 -0.7660
vn -0.5704 0.6017 0.5592
vn 0.4589 0.3626 0.8112
vn -0.6428 0.0000 0.7660
vn 0.3420 -0.0000 0.9397
vn 0.3602 0.7937 0.4902
vn 0.5815 0.6545 -0.4832
vn -0.9848 0.0000 -0.1736
vn -0.2897 0.7641 -0.5764
vn -0.3420 0.0000 -0.9397
s off
f 10/1/1 2/2/1 13/3/1
f 13/4/2 3/5/2 18/6/2
f 11/7/3 17/8/3 16/9/3
f 10/1/4 11/10/4 9/11/4
f 8/12/3 9/13/3 7/14/3
f 7/14/5 6/15/5 8/12/5
f 10/1/6 9/11/6 8/16/6
f 11/10/7 12/17/7 14/18/7
f 19/19/8 13/4/8 20/20/8
f 13/3/1 14/18/1 12/17/1
f 12/17/1 10/1/1 13/3/1
f 7/21/9 4/22/9 5/23/9
f 9/13/3 16/9/3 7/14/3
f 18/6/2 20/20/2 13/4/2
f 11/10/7 19/24/7 17/25/7
f 17/26/10 19/27/10 16/28/10
f 20/29/10 18/30/10 15/31/10
f 20/29/10 16/28/10 19/27/10
f 7/21/9 16/28/9 15/31/9
f 10/1/6 6/32/6 1/33/6
f 3/34/11 15/31/11 18/30/11
f 10/1/1 1/33/1 2/2/1
f 13/4/2 2/35/2 3/5/2
f 10/1/4 12/17/4 11/10/4
f 7/14/5 5/36/5 6/15/5
f 19/19/8 14/37/8 13/4/8
f 7/21/9 15/31/9 4/22/9
f 9/13/3 11/7/3 16/9/3
f 11/10/7 14/18/7 19/24/7
f 20/29/10 15/31/10 16/28/10
f 10/1/6 8/16/6 6/32/6
f 3/34/11 4/22/11 15/31/11
