# Blender v2.77 (sub 0) OBJ File: 'LowPoly_Level_Kit_Rocks.blend'
# www.blender.org
g Crystal_m_03
v -0.000000 0.000000 -0.240240
v -0.208054 0.000000 -0.120120
v -0.208054 0.000000 0.120120
v 0.000000 0.000000 0.240240
v 0.208054 0.000000 0.120120
v 0.208054 0.000000 -0.120120
v 0.189140 0.983370 0.109200
v 0.189140 0.899221 -0.109200
v 0.000000 0.933869 -0.218400
v 0.093217 0.986381 -0.164581
v -0.189140 0.937115 0.109200
v -0.189140 0.945421 -0.109200
v -0.144853 0.985446 -0.134769
v 0.000000 0.899999 0.218400
v 0.167570 1.012566 0.121653
v 0.038300 1.112075 0.000430
v -0.000355 1.107738 0.000014
v -0.155237 0.966266 0.128774
vt 0.1354 0.0123
vt 0.1393 0.0433
vt 0.0457 0.0000
vt 0.4745 0.0000
vt 0.4334 0.2733
vt 0.3766 0.1599
vt 0.2506 0.0300
vt 0.2513 0.2087
vt 0.7415 0.1111
vt 0.8329 0.9979
vt 0.7491 1.0000
vt 0.3203 0.1535
vt 0.2986 0.8648
vt 0.8405 0.0395
vt 0.8761 0.0000
vt 0.9924 0.0509
vt 0.8329 0.9732
vt 0.2398 0.2707
vt 0.0900 0.3076
vt 0.0720 0.2667
vt 0.5820 1.0000
vt 0.5896 0.0288
vt 0.5820 0.1304
vt 0.5783 0.1679
vt 0.0000 0.2093
vt 0.8040 0.0442
vt 0.8177 0.0726
vt 0.5820 0.9218
vt 0.6069 0.0000
vt 0.2986 0.8966
vt 0.2986 0.1244
vt 0.4234 0.9677
vt 1.0000 0.9732
vt 0.1334 0.9313
vn -0.0884 0.7216 0.6866
vn 0.7259 0.6418 -0.2473
vn -0.0808 0.7797 -0.6209
vn -0.4999 0.0210 0.8658
vn 0.5000 0.0000 -0.8660
vn 0.5027 0.0202 -0.8642
vn -0.5000 0.0000 -0.8660
vn -0.4990 0.0200 -0.8664
vn -0.6611 0.7497 0.0285
vn -0.0808 0.7798 -0.6209
vn 0.4936 0.0191 0.8695
vn -0.5000 0.0000 0.8660
vn 0.9998 0.0191 -0.0074
vn 0.5000 -0.0000 0.8660
vn -0.9998 0.0200 0.0008
vn -0.4969 0.0201 0.8676
vn 0.4999 0.0210 -0.8658
vn -0.4999 0.0202 -0.8658
vn 0.4999 0.0210 0.8658
vn 0.9998 0.0210 0.0000
vn -0.9998 0.0202 0.0000
s off
f 16/1/1 17/2/1 15/3/1
f 16/4/2 8/5/2 10/6/2
f 10/7/3 13/8/3 17/2/3
f 14/9/4 3/10/4 4/11/4
f 9/12/5 10/6/5 8/5/5
f 8/5/6 1/13/6 9/12/6
f 12/14/7 13/15/7 9/16/7
f 9/16/8 2/17/8 12/14/8
f 12/18/9 11/19/9 18/20/9
f 18/20/9 13/8/9 12/18/9
f 17/2/10 16/1/10 10/7/10
f 14/9/11 5/21/11 7/22/11
f 16/4/2 15/23/2 7/24/2
f 14/25/1 17/2/1 18/20/1
f 14/9/12 18/26/12 11/27/12
f 5/28/13 8/5/13 7/24/13
f 7/22/14 15/29/14 14/9/14
f 2/30/15 11/19/15 12/18/15
f 16/4/2 7/24/2 8/5/2
f 10/7/3 9/31/3 13/8/3
f 14/9/16 11/27/16 3/10/16
f 8/5/17 6/32/17 1/13/17
f 9/16/18 1/33/18 2/17/18
f 18/20/9 17/2/9 13/8/9
f 14/9/19 4/11/19 5/21/19
f 14/25/1 15/3/1 17/2/1
f 5/28/20 6/32/20 8/5/20
f 2/30/21 3/34/21 11/19/21
