# Blender v2.77 (sub 0) OBJ File: 'LowPoly_Level_Kit_Rocks.blend'
# www.blender.org
g Crystals_s_02
v -0.409950 -0.006477 -0.295846
v -0.402781 0.015259 -0.301287
v -0.291268 -0.006477 -0.318125
v -0.295966 0.015259 -0.321338
v -0.313547 -0.006477 -0.436807
v -0.316018 0.015259 -0.428152
v -0.055012 -0.007428 0.076977
v -0.055069 0.016344 0.076852
v -0.068790 -0.008174 -0.010883
v -0.068847 0.015598 -0.011008
v 0.053531 -0.007302 0.028725
v 0.053474 0.016470 0.028599
v 0.005329 -0.008088 -0.043832
v 0.005272 0.015684 -0.043958
v -0.019785 -0.006469 0.423197
v 0.063706 -0.013467 0.407040
v 0.069405 0.045279 0.399216
v 0.122621 -0.014217 0.468757
v 0.290930 0.005897 -0.333387
v 0.291037 -0.006438 -0.333408
v 0.356032 0.006523 -0.357266
v 0.356139 -0.005813 -0.357287
v 0.302711 0.005829 -0.269901
v 0.302818 -0.006507 -0.269922
v 0.459575 0.031502 -0.257903
v 0.459683 -0.005913 -0.257924
vt 0.6658 0.4193
vt 0.4535 0.2096
vt 0.6658 0.0000
vt 0.4100 0.7332
vt 0.3559 0.9916
vt 0.3559 0.7188
vt 0.9410 0.7232
vt 0.9956 1.0000
vt 0.9410 0.9901
vt 0.9410 0.7540
vt 0.8874 0.4303
vt 0.9410 0.4193
vt 0.6443 0.7968
vt 0.4535 0.6081
vt 0.6443 0.4193
vt 0.0000 0.7216
vt 0.0591 0.9399
vt 0.0000 0.9400
vt 0.1182 0.9198
vt 0.1772 0.7217
vt 0.1772 0.9200
vt 0.1182 0.7217
vt 0.0591 0.9354
vt 0.0591 0.7215
vt 0.9410 0.4202
vt 1.0000 0.7026
vt 0.9410 0.7034
vt 0.4535 0.4838
vt 0.2401 0.7188
vt 0.2401 0.4271
vt 0.2134 0.7215
vt 0.0000 0.4867
vt 0.2134 0.4298
vt 0.7944 0.7454
vt 0.6443 0.6326
vt 0.7944 0.4193
vt 0.2401 0.8067
vt 0.3559 0.7188
vt 0.3559 0.9784
vt 0.8602 0.1718
vt 0.9785 0.0000
vt 0.9785 0.2593
vt 0.7674 0.3674
vt 0.6658 0.1839
vt 0.7674 0.0000
vt 0.0000 0.1547
vt 0.2269 0.0411
vt 0.2269 0.4298
vt 0.8262 0.4193
vt 0.7944 0.7635
vt 0.7955 0.4194
vt 0.1772 0.8800
vt 0.2079 0.7215
vt 0.2079 0.8800
vt 0.4535 0.3863
vt 0.2269 0.2722
vt 0.4535 0.0000
vt 0.8238 0.0000
vt 0.8602 0.3743
vt 0.7674 0.3743
vt 0.4100 0.8890
vt 0.4407 0.7188
vt 0.4407 0.8890
vt 0.4100 0.9787
vt 0.9956 0.7034
vt 0.8874 0.7315
vt 0.0591 0.7215
vt 0.1182 0.7215
vt 0.1182 0.9356
vt 1.0000 0.4193
vt 0.4535 0.6830
vt 0.0000 0.6859
vt 0.0720 0.0000
vt 0.8874 0.7635
vt 0.1772 0.7215
vt 0.2984 0.4271
vt 0.8544 0.0002
vt 0.4100 0.7188
vn 0.0000 -1.0000 0.0000
vn 0.9664 0.1821 -0.1814
vn 0.1814 0.1821 0.9664
vn -0.8184 0.1298 -0.5597
vn 0.0000 1.0000 0.0000
vn -0.9879 -0.0016 0.1549
vn -0.4062 -0.0058 -0.9138
vn 0.8330 -0.0009 -0.5533
vn 0.4062 0.0058 0.9138
vn 0.0046 -1.0000 0.0078
vn -0.0046 1.0000 -0.0078
vn -0.1938 0.6673 0.7192
vn 0.7130 -0.1601 -0.6826
vn -0.1977 -0.1105 -0.9740
vn -0.0724 -0.9957 0.0570
vn -0.1545 0.9842 -0.0865
vn 0.6924 0.0073 -0.7215
vn -0.9832 -0.0089 0.1824
vn 0.0042 -1.0000 -0.0054
vn -0.0761 -0.0008 0.9971
vn -0.3443 -0.0014 -0.9388
vn -0.0086 1.0000 0.0027
vn 0.6921 0.0024 -0.7218
vn 0.0086 -1.0000 -0.0027
vn -0.0763 -0.0024 0.9971
s off
f 5/1/1 3/2/1 1/3/1
f 6/4/2 3/5/2 5/6/2
f 2/7/3 3/8/3 4/9/3
f 1/10/4 6/11/4 5/12/4
f 2/13/5 4/14/5 6/15/5
f 10/16/6 7/17/6 8/18/6
f 10/19/7 13/20/7 9/21/7
f 14/22/8 11/23/8 13/24/8
f 8/25/9 11/26/9 12/27/9
f 9/28/10 11/29/10 7/30/10
f 12/31/11 10/32/11 8/33/11
f 18/34/12 17/35/12 15/36/12
f 16/37/13 17/38/13 18/39/13
f 16/40/14 15/41/14 17/42/14
f 15/43/15 16/44/15 18/45/15
f 21/46/16 23/47/16 25/48/16
f 21/49/17 26/50/17 22/51/17
f 23/52/18 20/53/18 24/54/18
f 24/55/19 22/56/19 26/57/19
f 23/58/20 26/59/20 25/60/20
f 19/61/21 22/62/21 20/63/21
f 6/4/2 4/64/2 3/5/2
f 2/7/3 1/65/3 3/8/3
f 1/10/4 2/66/4 6/11/4
f 10/16/6 9/67/6 7/17/6
f 10/19/7 14/68/7 13/20/7
f 14/22/8 12/69/8 11/23/8
f 8/25/9 7/70/9 11/26/9
f 9/28/10 13/71/10 11/29/10
f 12/31/11 14/72/11 10/32/11
f 21/46/22 19/73/22 23/47/22
f 21/49/23 25/74/23 26/50/23
f 23/52/18 19/75/18 20/53/18
f 24/55/24 20/76/24 22/56/24
f 23/58/25 24/77/25 26/59/25
f 19/61/21 21/78/21 22/62/21
