# Blender v2.77 (sub 0) OBJ File: 'LowPoly_Level_Kit_Rocks.blend'
# www.blender.org
g Crystals_s_03
v -0.187998 -0.006477 0.324190
v -0.179571 0.015259 0.321029
v -0.067904 -0.006477 0.336815
v -0.071486 0.015259 0.332391
v -0.075624 -0.006477 0.242615
v -0.080469 0.015259 0.250200
v 0.121721 -0.007428 0.099942
v 0.121664 0.008068 0.099817
v 0.106093 -0.008174 -0.017510
v 0.106036 0.007322 -0.017636
v 0.228415 -0.007302 0.022097
v 0.228358 0.008194 0.021972
v 0.180213 -0.008088 -0.050460
v 0.180156 0.007408 -0.050585
v 0.048591 -0.006469 -0.472604
v 0.121012 -0.013467 -0.437722
v 0.137334 0.045279 -0.447021
v 0.132139 -0.014217 -0.335939
v -0.103096 -0.009174 -0.141915
v -0.141051 -0.009174 -0.238146
v -0.244300 -0.009174 -0.231786
v -0.270158 -0.009174 -0.131624
v -0.182888 -0.009174 -0.076081
v -0.232465 0.045375 -0.163910
vt 0.2334 0.7865
vt 0.0000 0.7865
vt 0.0553 0.4590
vt 0.6929 0.9593
vt 0.7461 0.7191
vt 0.7461 0.9757
vt 0.8367 0.0222
vt 0.8913 0.3334
vt 0.8367 0.3223
vt 0.2407 0.8161
vt 0.2946 0.4590
vt 0.2946 0.8402
vt 0.8921 0.4244
vt 0.8921 0.7191
vt 0.6927 0.6730
vt 0.8913 0.3272
vt 0.9295 0.0001
vt 0.9295 0.3273
vt 0.4655 0.9483
vt 0.5036 0.7259
vt 0.5036 0.9487
vt 0.7833 0.9474
vt 0.8215 0.7196
vt 0.8215 0.9479
vt 0.7833 0.9933
vt 0.7461 0.7258
vt 0.7833 0.7191
vt 0.5576 0.1434
vt 0.3091 0.3642
vt 0.2946 0.0000
vt 0.5364 0.7255
vt 0.2946 0.5065
vt 0.5570 0.3642
vt 0.6927 0.8652
vt 0.5576 0.5883
vt 0.6927 0.4244
vt 0.7021 0.2782
vt 0.5576 0.3070
vt 0.6809 0.0000
vt 0.7021 0.4244
vt 1.0000 0.8669
vt 0.8921 0.6801
vt 1.0000 0.4244
vt 0.2946 0.0925
vt 0.0000 0.2907
vt 0.0545 0.0000
vt 0.8367 0.2647
vt 0.7021 0.1902
vt 0.8367 0.0000
vt 0.2946 0.3762
vt 0.3893 0.7255
vt 0.4655 0.9594
vt 0.2946 0.9594
vt 0.0545 0.4590
vt 0.6927 0.7338
vt 0.8913 0.0000
vt 0.2405 0.4814
vt 0.8913 0.0000
vt 0.4655 0.7255
vt 0.7461 1.0000
vt 0.5242 0.3642
vt 0.3239 0.7255
vn 0.0000 -1.0000 0.0000
vn 0.9668 0.2431 -0.0792
vn -0.1028 0.1821 0.9779
vn -0.5839 0.1094 -0.8044
vn 0.0000 1.0000 0.0000
vn -0.9913 -0.0026 0.1319
vn -0.4062 -0.0089 -0.9137
vn 0.8330 -0.0014 -0.5533
vn 0.5894 0.0087 0.8078
vn 0.0053 -1.0000 0.0056
vn -0.0053 1.0000 -0.0056
vn -0.5453 0.7493 0.3758
vn 0.9536 -0.2818 -0.1063
vn 0.4003 -0.2507 -0.8814
vn -0.0978 -0.9952 0.0034
vn 0.3064 0.8765 0.3714
vn -0.8587 0.4621 -0.2217
vn 0.4065 0.8995 -0.1603
vn -0.4050 0.6565 0.6364
vn -0.0383 0.7822 -0.6219
vn 0.9842 0.1403 -0.1076
vn -0.5747 0.1525 -0.8041
vn 0.0046 -1.0000 0.0078
vn -0.0046 1.0000 -0.0078
s off
f 5/1/1 3/2/1 1/3/1
f 6/4/2 3/5/2 5/6/2
f 2/7/3 3/8/3 4/9/3
f 2/10/4 5/11/4 1/12/4
f 2/13/5 4/14/5 6/15/5
f 8/16/6 9/17/6 7/18/6
f 10/19/7 13/20/7 9/21/7
f 14/22/8 11/23/8 13/24/8
f 8/25/9 11/26/9 12/27/9
f 9/28/10 11/29/10 7/30/10
f 12/31/11 10/32/11 8/33/11
f 18/34/12 17/35/12 15/36/12
f 16/37/13 17/38/13 18/39/13
f 16/37/14 15/40/14 17/38/14
f 15/41/15 16/42/15 18/43/15
f 19/44/16 24/45/16 23/46/16
f 22/47/17 24/48/17 21/49/17
f 20/50/18 24/45/18 19/44/18
f 23/51/19 24/52/19 22/53/19
f 21/54/20 24/45/20 20/50/20
f 6/4/21 4/55/21 3/5/21
f 2/7/3 1/56/3 3/8/3
f 2/10/22 6/57/22 5/11/22
f 8/16/6 10/58/6 9/17/6
f 10/19/7 14/59/7 13/20/7
f 14/22/8 12/27/8 11/23/8
f 8/25/9 7/60/9 11/26/9
f 9/28/23 13/61/23 11/29/23
f 12/31/24 14/62/24 10/32/24
