# Blender v2.77 (sub 0) OBJ File: 'LowPoly_Level_Kit_Rocks.blend'
# www.blender.org
g Crystals_l_06
v 0.592358 0.079704 0.099277
v 0.465433 0.102953 0.165610
v 0.487642 0.095474 0.308794
v 0.628294 0.067601 0.330953
v 0.693012 0.057855 0.201464
v 0.807003 0.643338 0.214368
v 0.704104 0.653656 0.111927
v 0.801626 0.655289 0.207092
v 0.573698 0.659032 0.177866
v 0.665055 0.723269 0.139800
v 0.598463 0.664676 0.321339
v 0.744532 0.664629 0.344111
v 0.750903 0.673799 0.335416
v 0.723613 0.764814 0.235032
v 0.698360 0.774997 0.220347
v 0.599224 0.709138 0.274493
v 0.072397 0.078843 0.359320
v -0.048579 0.062462 0.463142
v 0.013915 0.045674 0.609754
v 0.173514 0.051679 0.596544
v 0.209658 0.072178 0.441767
v -0.074735 1.024580 0.584460
v 0.179417 1.184523 0.582028
v 0.042541 1.177046 0.497798
v 0.009853 1.207338 0.529405
v 0.132776 1.216064 0.558188
v -0.018109 1.137980 0.741908
v 0.146400 1.049021 0.722303
v 0.164585 1.220670 0.645967
v 0.078107 1.294950 0.645027
v 0.056629 1.301461 0.649672
v 0.482047 0.091968 -0.440256
v 0.364225 0.112414 -0.372579
v 0.393178 0.120891 -0.238527
v 0.528894 0.105683 -0.223355
v 0.583818 0.087808 -0.348030
v 0.667913 0.875031 -0.415970
v 0.584597 0.943181 -0.504370
v 0.627165 0.953122 -0.468122
v 0.475189 0.929974 -0.440911
v 0.548882 0.979854 -0.484436
v 0.502632 0.949889 -0.321913
v 0.624273 0.936661 -0.308356
v 0.630998 0.949015 -0.320999
v 0.588080 1.030615 -0.404521
v 0.566055 1.036684 -0.410736
v 0.499487 0.993985 -0.367045
v -0.024877 -0.019937 -0.384671
v -0.341794 -0.061841 -0.168347
v -0.316917 -0.041905 0.216324
v 0.024877 0.019937 0.384671
v 0.341794 0.061841 0.168347
v 0.316917 0.041905 -0.216324
v -0.358288 2.073061 -0.436374
v -0.644151 2.020993 -0.239137
v -0.381493 2.099910 -0.424959
v -0.365248 2.394338 -0.201266
v -0.618154 2.018049 0.111437
v -0.648064 2.063538 -0.200857
v -0.400507 2.415132 -0.150827
v -0.383337 2.411485 -0.049767
v -0.572033 2.079149 0.136082
v -0.316286 2.129430 0.262194
v -0.352832 2.397537 -0.015011
v -0.320487 2.133708 0.260309
v -0.018962 2.110100 0.067916
v -0.040443 2.084904 -0.281492
v -0.077348 2.121814 -0.298076
v -0.280331 2.350442 -0.202833
v -0.252575 2.345227 -0.026270
v -0.025954 2.118000 0.071383
vt 0.2580 0.9962
vt 0.2176 0.9696
vt 0.2604 0.9578
vt 0.8941 0.7812
vt 0.8742 0.8216
vt 0.8562 0.7777
vt 0.8227 0.7973
vt 0.8293 0.8256
vt 0.2511 1.0000
vt 0.8463 0.7742
vt 0.2146 0.9505
vt 0.8780 0.8236
vt 0.2936 0.9590
vt 0.2579 0.7457
vt 0.2936 0.7551
vt 0.2579 0.9537
vt 1.0000 0.6386
vt 0.9706 0.6666
vt 0.9511 0.6447
vt 0.3430 0.7914
vt 0.3011 0.9934
vt 0.2936 0.7885
vt 0.3095 0.7728
vt 0.3503 0.7652
vt 0.9511 0.4377
vt 1.0000 0.4381
vt 0.8941 0.9375
vt 0.8451 0.9372
vt 0.7522 0.0049
vt 0.8039 0.3421
vt 0.7522 0.3800
vt 0.9511 0.7815
vt 0.8971 0.4379
vt 0.9511 0.4377
vt 0.7987 0.4347
vt 0.7916 0.4377
vt 0.8681 0.0512
vt 0.8372 0.0332
vt 0.8787 0.0067
vt 0.9113 0.8427
vt 0.8971 0.8303
vt 0.7522 0.4969
vt 0.8227 0.4747
vt 0.8056 0.5417
vt 0.8358 0.0523
vt 0.8848 0.0640
vt 0.8984 0.0415
vt 0.8756 0.0000
vt 0.7696 0.8818
vt 0.8358 0.3945
vt 0.8238 0.4046
vt 0.8358 0.0129
vt 0.8984 0.3530
vt 0.8492 0.3377
vt 0.8650 0.4397
vt 0.8715 0.4377
vt 0.8952 0.4578
vt 0.3795 0.7512
vt 0.3503 0.7657
vt 0.3738 0.7457
vt 0.8568 0.4731
vt 0.8971 0.4765
vt 0.8597 0.4786
vt 0.3510 0.7851
vt 0.3686 0.7872
vt 0.3923 0.8074
vt 0.9501 0.3171
vt 0.9136 0.3152
vt 0.9403 0.2938
vt 0.8984 0.3041
vt 0.8303 0.4900
vt 0.8554 0.7742
vt 0.8227 0.7689
vt 0.3685 0.9539
vt 0.4128 0.7682
vt 0.9036 0.0000
vt 0.9501 0.0011
vt 0.9527 0.0167
vt 0.9670 0.0000
vt 0.9945 0.0211
vt 0.9501 0.3144
vt 0.3114 0.1630
vt 0.2362 0.0977
vt 0.3270 0.0509
vt 0.5256 0.8661
vt 0.5640 0.7453
vt 0.6212 0.7742
vt 0.6342 0.7506
vt 0.7522 0.7524
vt 0.6596 0.8630
vt 0.2124 0.7401
vt 0.1663 0.8384
vt 0.0971 0.7589
vt 0.3664 0.0000
vt 0.3804 0.0089
vt 0.3196 0.0185
vt 0.5532 0.7220
vt 0.4915 0.0000
vt 0.6212 0.0078
vt 0.4469 0.7370
vt 0.4347 0.7222
vt 0.5120 0.8698
vt 0.6781 0.8731
vt 0.3195 0.1800
vt 0.2146 0.6828
vt 0.2342 0.1108
vt 0.3862 0.0477
vt 0.2146 0.7371
vt 0.0861 0.0000
vt 0.2146 0.0006
vt 0.0980 0.7570
vt 0.0334 0.7626
vt 0.0195 0.7457
vt 0.1364 0.8630
vt 0.7456 0.7358
vt 0.6265 0.7402
vt 0.3324 0.0013
vt 0.4347 0.1531
vt 0.6212 0.0000
vt 0.7522 0.0006
vt 0.4772 0.8705
vt 0.4347 0.7224
vt 0.4341 0.1569
vt 0.2146 0.7522
vt 0.3503 0.9915
vt 0.3216 0.7457
vt 0.8039 0.0000
vt 0.7819 0.4377
vt 0.8227 0.8808
vt 0.9251 0.3356
vt 0.4128 0.9646
vt 0.9968 0.3144
vt 0.8971 0.7717
vt 0.3087 0.7457
vt 0.0000 0.0093
vn -0.1063 0.7221 0.6836
vn 0.8178 0.5191 0.2484
vn 0.5734 0.5608 -0.5972
vn 0.8744 -0.1802 0.4506
vn 0.6944 -0.1196 -0.7096
vn -0.1540 0.0082 0.9880
vn -0.4452 0.1063 -0.8891
vn -0.9696 0.1852 0.1601
vn -0.6214 0.7505 -0.2250
vn 0.0541 -0.1184 0.9915
vn -0.6553 0.0769 -0.7514
vn 0.3003 0.3608 0.8829
vn 0.0946 0.7658 -0.6361
vn -0.9051 0.4248 0.0196
vn 0.5154 0.1210 -0.8483
vn 0.6297 0.7297 -0.2665
vn -0.9204 -0.0734 0.3839
vn 0.9739 -0.0022 0.2271
vn -0.0001 0.7153 0.6989
vn 0.3661 0.6937 -0.6202
vn 0.6609 -0.1466 -0.7360
vn -0.6590 0.6621 -0.3570
vn -0.5002 -0.0165 -0.8658
vn 0.9101 -0.0619 0.4098
vn 0.6667 -0.1355 -0.7329
vn 0.8894 0.4571 -0.0104
vn 0.9087 -0.0741 0.4109
vn -0.4987 -0.0048 -0.8668
vn -0.9701 0.1364 0.2009
vn -0.9688 0.1479 0.1987
vn -0.0980 0.1124 0.9888
vn 0.2808 0.5707 -0.7716
vn -0.4520 0.6169 0.6443
vn -0.5941 0.5072 -0.6244
vn 0.4217 0.6789 0.6010
vn 0.4581 0.8877 -0.0458
vn -0.9875 -0.1408 0.0712
vn -0.9853 -0.1552 0.0718
vn 0.4361 0.0473 -0.8986
vn 0.7248 0.6826 -0.0938
vn 0.5461 0.1367 0.8265
vn -0.4369 -0.0329 0.8989
vn -0.4368 -0.0329 0.8989
vn -0.5485 -0.1223 -0.8272
vn -0.4410 -0.0192 0.8973
vn -0.5507 -0.1081 -0.8277
vn -0.8178 0.5532 0.1589
vn 0.5485 0.1223 0.8272
vn 0.9828 0.1695 -0.0726
vn 0.0864 -0.1223 0.9887
vn 0.9117 -0.0631 0.4059
vn 0.6624 -0.1344 -0.7370
vn -0.5013 -0.0048 -0.8653
vn -0.9686 0.1482 0.1998
vn -0.0979 0.1124 0.9888
vn -0.9874 -0.1409 0.0720
vn 0.4345 0.0473 -0.8995
vn 0.4368 0.0329 -0.8989
vn 0.5481 0.1366 0.8252
vn -0.5941 0.5071 -0.6244
vn -0.4391 -0.0185 0.8983
vn -0.5511 -0.1082 -0.8274
vn 0.9829 0.1696 -0.0724
s off
f 14/1/1 16/2/1 13/3/1
f 13/4/2 8/5/2 14/6/2
f 10/7/3 8/5/3 7/8/3
f 14/1/1 15/9/1 16/2/1
f 15/10/3 14/6/3 10/7/3
f 11/11/1 13/3/1 16/2/1
f 13/4/2 6/12/2 8/5/2
f 6/13/4 4/14/4 5/15/4
f 7/8/5 8/5/5 6/12/5
f 11/11/6 4/14/6 12/16/6
f 9/17/7 10/18/7 7/19/7
f 9/20/8 3/21/8 11/22/8
f 6/13/4 13/3/4 12/16/4
f 16/23/9 10/24/9 9/20/9
f 9/17/7 1/25/7 2/26/7
f 11/22/8 16/23/8 9/20/8
f 7/8/5 5/27/5 1/28/5
f 19/29/10 28/30/10 27/31/10
f 22/32/11 17/33/11 18/34/11
f 30/35/12 31/36/12 27/31/12
f 26/37/13 25/38/13 30/39/13
f 22/32/11 25/40/11 24/41/11
f 27/42/14 25/43/14 22/44/14
f 24/45/15 26/37/15 23/46/15
f 26/37/16 29/47/16 23/46/16
f 31/48/13 30/39/13 25/38/13
f 22/44/17 19/49/17 27/42/17
f 23/50/18 29/51/18 28/30/18
f 27/31/12 29/51/12 30/35/12
f 28/30/18 21/52/18 23/50/18
f 24/45/15 21/53/15 17/54/15
f 45/55/19 46/56/19 47/57/19
f 45/58/20 41/59/20 46/60/20
f 44/61/19 47/57/19 42/62/19
f 43/63/19 44/61/19 42/62/19
f 38/64/21 39/65/21 37/66/21
f 47/67/22 41/68/22 40/69/22
f 40/69/23 41/68/23 38/70/23
f 37/71/24 35/72/24 36/73/24
f 38/64/20 41/59/20 39/65/20
f 37/66/25 32/74/25 38/64/25
f 39/65/26 44/75/26 37/66/26
f 37/71/27 44/61/27 43/63/27
f 40/69/28 32/76/28 33/77/28
f 42/78/29 47/79/29 40/80/29
f 40/80/30 34/81/30 42/78/30
f 42/62/31 35/72/31 43/63/31
f 68/82/32 56/83/32 69/84/32
f 64/85/33 62/86/33 65/87/33
f 56/88/34 59/89/34 57/90/34
f 71/91/35 70/92/35 65/93/35
f 69/84/36 61/94/36 64/95/36
f 57/96/32 69/84/32 56/83/32
f 58/97/37 49/98/37 50/99/37
f 58/97/38 59/100/38 55/101/38
f 64/85/33 61/102/33 62/86/33
f 60/103/34 57/90/34 59/89/34
f 67/104/39 48/105/39 54/106/39
f 68/82/32 54/106/32 56/83/32
f 70/107/40 68/82/40 69/84/40
f 66/108/41 51/109/41 52/110/41
f 63/111/42 65/93/42 62/112/42
f 62/112/43 58/113/43 63/111/43
f 64/114/35 65/93/35 70/92/35
f 63/111/35 71/91/35 65/93/35
f 55/115/44 56/88/44 54/116/44
f 60/117/36 61/94/36 57/96/36
f 64/95/36 70/107/36 69/84/36
f 71/118/40 67/104/40 68/82/40
f 58/113/45 51/109/45 63/111/45
f 55/115/46 48/119/46 49/120/46
f 59/100/47 61/102/47 60/121/47
f 66/108/48 71/91/48 63/111/48
f 52/122/49 67/104/49 66/123/49
f 10/7/3 14/6/3 8/5/3
f 11/11/1 12/16/1 13/3/1
f 6/13/4 12/16/4 4/14/4
f 11/11/6 3/124/6 4/14/6
f 9/20/8 2/125/8 3/21/8
f 16/23/9 15/126/9 10/24/9
f 9/17/7 7/19/7 1/25/7
f 7/8/5 6/12/5 5/27/5
f 19/29/50 20/127/50 28/30/50
f 22/32/11 24/41/11 17/33/11
f 26/37/13 24/45/13 25/38/13
f 27/42/14 31/128/14 25/43/14
f 26/37/16 30/39/16 29/47/16
f 22/44/17 18/129/17 19/49/17
f 27/31/12 28/30/12 29/51/12
f 28/30/18 20/127/18 21/52/18
f 24/45/15 23/46/15 21/53/15
f 45/58/20 39/65/20 41/59/20
f 44/61/19 45/55/19 47/57/19
f 47/67/22 46/130/22 41/68/22
f 37/71/51 43/63/51 35/72/51
f 37/66/52 36/131/52 32/74/52
f 39/65/26 45/58/26 44/75/26
f 40/69/53 38/70/53 32/76/53
f 40/80/54 33/132/54 34/81/54
f 42/62/55 34/133/55 35/72/55
f 69/84/36 57/96/36 61/94/36
f 58/97/56 55/101/56 49/98/56
f 58/97/47 62/86/47 59/100/47
f 67/104/57 53/134/57 48/105/57
f 68/82/58 67/104/58 54/106/58
f 70/107/40 71/118/40 68/82/40
f 66/108/59 63/111/59 51/109/59
f 55/115/60 59/89/60 56/88/60
f 71/118/40 66/123/40 67/104/40
f 58/113/61 50/135/61 51/109/61
f 55/115/62 54/116/62 48/119/62
f 59/100/47 62/86/47 61/102/47
f 52/122/63 53/134/63 67/104/63
