# Blender v2.77 (sub 0) OBJ File: 'LowPoly_Level_Kit_Rocks.blend'
# www.blender.org
g Crystal_crk_m_01
v -0.408793 -0.006477 0.664056
v -0.401624 0.015259 0.658614
v -0.290111 -0.006477 0.641777
v -0.294810 0.015259 0.638563
v -0.312390 -0.006477 0.523095
v -0.314861 0.015259 0.531749
v 0.002553 -0.007428 0.553866
v 0.002496 0.008068 0.553741
v -0.011225 -0.008174 0.466006
v -0.011282 0.007322 0.465881
v 0.111096 -0.007302 0.505614
v 0.111039 0.008194 0.505488
v 0.062894 -0.008088 0.433057
v 0.062837 0.007408 0.432931
v 0.636665 0.719906 0.216064
v 0.690788 0.356190 0.426383
v 0.790319 0.284844 0.385256
v 0.647053 -0.007810 0.216555
v 1.029047 0.219290 0.211009
v 0.992562 -0.007927 0.042367
v 0.806449 -0.008093 -0.203592
v 1.004074 -0.007942 0.020618
v 0.838568 0.719622 -0.204083
v 0.935601 0.719719 -0.060780
v 1.187225 0.305607 0.002635
v 0.879833 0.355623 -0.413911
v 1.185009 0.280886 -0.019023
v 0.890234 0.344009 -0.407195
v 0.301191 0.719622 -0.204083
v 0.301588 0.719906 0.216064
v 0.182307 0.355623 -0.413911
v 0.224575 -0.007810 0.216555
v 0.116341 -0.008094 -0.203592
v 0.078852 0.038050 -0.230274
v 0.248433 0.356190 0.426383
v 0.211292 0.442727 0.376343
v 0.183020 0.356133 0.341620
v 0.121298 0.167078 0.265813
v 0.148556 0.139955 0.301734
v -0.284541 0.000000 0.270065
v -0.211583 0.000000 -0.143699
v -0.533434 0.000000 -0.413764
v -0.928243 0.000000 -0.270065
v -1.001201 0.000000 0.143699
v -0.679350 0.000000 0.413764
v -0.211583 0.598147 -0.143699
v -1.001201 0.835915 0.143699
v -0.284541 0.598544 0.270065
v -0.533434 0.716634 -0.413764
v -0.928243 0.687231 -0.270065
v -0.975543 0.835776 -0.001813
v -0.709078 0.769524 -0.349835
v -0.679350 0.575763 0.413764
v -0.757455 0.746182 0.348226
v -0.536538 0.674425 0.361785
v -0.170503 -0.006477 -0.428592
v -0.098808 0.030558 -0.483005
v -0.051821 -0.006477 -0.450871
v -0.074100 -0.006477 -0.569553
v -0.511480 -0.012240 0.546833
v -0.631721 -0.023605 0.614754
v -0.636465 0.071794 0.629740
v -0.754264 -0.024822 0.550085
vt 0.6319 0.4420
vt 0.6081 0.4351
vt 0.6319 0.3936
vt 0.7225 0.4210
vt 0.7305 0.3805
vt 0.7305 0.4254
vt 0.7225 0.4257
vt 0.7143 0.3805
vt 0.7225 0.3819
vt 0.7034 0.4414
vt 0.6949 0.3832
vt 0.7034 0.3805
vt 0.6311 0.3936
vt 0.6081 0.3566
vt 0.6311 0.3398
vt 0.2658 0.5222
vt 0.2717 0.4870
vt 0.2717 0.5220
vt 0.6772 0.3947
vt 0.6721 0.4244
vt 0.6721 0.3936
vt 0.2716 0.5235
vt 0.2658 0.5469
vt 0.2658 0.5222
vt 0.2658 0.4409
vt 0.2711 0.4862
vt 0.2658 0.4870
vt 0.6545 0.4403
vt 0.6545 0.3952
vt 0.6545 0.4413
vt 0.6319 0.3993
vt 0.6545 0.3936
vt 0.0486 0.0810
vt 0.1023 0.0000
vt 0.2729 0.0724
vt 0.0831 0.2212
vt 0.0585 0.1831
vt 0.2473 0.2087
vt 0.0000 0.2453
vt 0.4364 0.1534
vt 0.4800 0.0733
vt 0.4842 0.0780
vt 0.5181 0.2180
vt 0.2729 0.1237
vt 0.2782 0.1194
vt 0.8847 0.1029
vt 0.9228 0.2054
vt 0.9100 0.2053
vt 0.8015 0.2961
vt 1.0000 0.3022
vt 0.9982 0.3058
vt 0.8370 0.3275
vt 0.1307 0.4400
vt 0.2658 0.5015
vt 0.2398 0.5435
vt 0.3750 0.0000
vt 0.7104 0.0419
vt 0.5182 0.2467
vt 0.5181 0.0927
vt 0.4364 0.4330
vt 0.4156 0.4482
vt 0.2729 0.4063
vt 0.1579 0.4031
vt 0.1169 0.3964
vt 0.0350 0.5654
vt 0.9519 0.0000
vt 0.9946 0.0932
vt 0.2658 0.7080
vt 0.5182 0.0746
vt 0.6600 0.0000
vt 0.2729 0.3414
vt 0.8015 0.0853
vt 0.8014 0.1219
vt 0.7728 0.0968
vt 1.0000 0.1011
vt 0.8015 0.2564
vt 0.6599 0.3398
vt 0.7173 0.0276
vt 0.5181 0.3892
vt 0.0323 0.4127
vt 0.0732 0.4400
vt 0.8251 0.7246
vt 0.9881 0.4482
vt 0.9881 0.7816
vt 0.3605 0.7285
vt 0.3885 0.6539
vt 0.4456 0.6966
vt 0.0526 0.8275
vt 0.0802 0.7364
vt 0.1950 0.7508
vt 0.5464 0.4690
vt 0.5464 0.6828
vt 0.0000 0.9986
vt 0.5464 0.4933
vt 0.6316 0.4482
vt 0.6999 0.4538
vt 0.2366 0.8343
vt 0.1938 0.9078
vt 0.2366 0.7471
vt 0.0000 0.8835
vt 0.2729 0.5051
vt 0.3885 0.4482
vt 0.9308 0.7824
vt 0.6999 0.7052
vt 0.8251 0.5502
vt 0.8251 0.7600
vt 0.1183 0.9880
vt 0.2729 0.8036
vt 0.5464 0.7344
vt 0.5464 0.7618
vt 0.7095 0.9980
vt 0.5464 1.0000
vt 0.6557 0.3864
vt 0.6311 0.3864
vt 0.6432 0.3398
vt 0.7034 0.3879
vt 0.7143 0.3805
vt 0.7143 0.4254
vt 0.6557 0.3716
vt 0.6758 0.3398
vt 0.6758 0.3885
vt 0.6949 0.4403
vt 0.6772 0.4124
vt 0.6949 0.3805
vt 0.5654 0.4375
vt 0.5181 0.3886
vt 0.5654 0.3398
vt 0.5935 0.3890
vt 0.5654 0.3778
vt 0.5935 0.3398
vt 0.5659 0.4336
vt 0.6081 0.4383
vt 0.5935 0.3887
vt 0.6081 0.3398
vt 0.7225 0.3806
vt 0.7143 0.4292
vt 0.6949 0.4381
vt 0.2658 0.4873
vt 0.6772 0.4255
vt 0.2716 0.5482
vt 0.2711 0.4400
vt 0.6319 0.4319
vt 0.0030 0.4537
vt 0.8222 0.0384
vt 0.0000 0.7364
vt 0.8251 0.4505
vt 0.7095 0.7600
vn 0.0000 -1.0000 -0.0000
vn 0.9664 0.1821 -0.1814
vn 0.1814 0.1821 0.9664
vn -0.8184 0.1298 -0.5597
vn 0.0000 1.0000 0.0000
vn -0.9879 -0.0024 0.1549
vn -0.4062 -0.0089 -0.9137
vn 0.8330 -0.0014 -0.5533
vn 0.4062 0.0089 0.9137
vn 0.0046 -1.0000 0.0078
vn -0.0046 1.0000 -0.0078
vn 0.6017 0.4650 0.6494
vn -0.0000 -0.4994 0.8664
vn 0.0000 -1.0000 0.0007
vn -0.0000 -0.5006 -0.8657
vn 0.7937 -0.4395 0.4205
vn 0.7641 0.3850 -0.5176
vn -0.0000 1.0000 -0.0007
vn 0.6545 -0.4891 -0.5765
vn -0.9507 0.3101 0.0007
vn 0.0000 0.5006 0.8657
vn 0.3626 -0.5923 0.7196
vn -0.0000 0.4994 -0.8664
vn -0.8147 -0.5404 0.2103
vn -0.7916 0.0135 0.6109
vn -0.9848 0.0000 -0.1736
vn 0.0687 0.3854 0.9202
vn -0.4572 0.7414 -0.4912
vn 0.3420 0.0000 0.9397
vn 0.3056 0.9507 0.0530
vn -0.3420 0.0000 -0.9397
vn -0.6428 0.0000 0.7660
vn 0.6428 0.0000 -0.7660
vn 0.9848 0.0000 0.1736
vn 0.6655 0.7359 -0.1249
vn 0.1249 0.7359 0.6655
vn -0.6545 0.6094 -0.4476
vn -0.0445 0.6673 -0.7435
vn -0.4595 -0.1601 0.8737
vn 0.4967 -0.1105 0.8608
vn 0.0506 -0.9957 -0.0771
s off
f 5/1/1 3/2/1 1/3/1
f 6/4/2 3/5/2 5/6/2
f 2/7/3 3/8/3 4/9/3
f 1/10/4 6/11/4 5/12/4
f 2/13/5 4/14/5 6/15/5
f 8/16/6 9/17/6 7/18/6
f 10/19/7 13/20/7 9/21/7
f 14/22/8 11/23/8 13/24/8
f 8/25/9 11/26/9 12/27/9
f 9/21/10 11/28/10 7/29/10
f 12/30/11 10/31/11 8/32/11
f 19/33/12 25/34/12 24/35/12
f 16/36/12 17/37/12 15/38/12
f 18/39/13 17/37/13 16/36/13
f 21/40/14 22/41/14 20/42/14
f 20/42/14 18/43/14 21/40/14
f 26/44/15 28/45/15 21/40/15
f 19/46/16 27/47/16 25/48/16
f 25/48/17 27/47/17 24/49/17
f 28/50/17 26/51/17 23/52/17
f 15/53/18 24/54/18 23/55/18
f 21/40/19 27/56/19 22/41/19
f 38/57/20 31/58/20 34/59/20
f 33/60/15 34/61/15 31/62/15
f 36/63/21 35/64/21 16/36/21
f 29/65/18 15/53/18 23/55/18
f 19/46/22 18/66/22 20/67/22
f 26/68/23 29/65/23 23/55/23
f 38/57/24 33/69/24 32/70/24
f 36/63/21 15/38/21 30/71/21
f 24/49/17 28/50/17 23/52/17
f 35/72/25 36/73/25 37/74/25
f 22/75/16 19/46/16 20/67/16
f 37/74/20 36/73/20 30/76/20
f 30/76/20 29/77/20 37/74/20
f 24/35/12 17/37/12 19/33/12
f 39/78/25 37/74/25 38/57/25
f 33/60/14 18/43/14 32/79/14
f 39/78/24 38/57/24 32/70/24
f 35/64/13 18/39/13 16/36/13
f 32/80/13 18/39/13 39/81/13
f 37/74/20 31/58/20 38/57/20
f 21/40/15 31/62/15 26/44/15
f 50/82/26 44/83/26 47/84/26
f 54/85/27 53/86/27 55/87/27
f 52/88/28 50/89/28 51/90/28
f 53/86/29 40/91/29 48/92/29
f 52/88/30 51/90/30 46/93/30
f 50/94/31 52/95/31 49/96/31
f 46/93/30 54/97/30 55/98/30
f 47/99/30 46/93/30 51/90/30
f 49/100/30 52/88/30 46/93/30
f 53/86/32 44/101/32 45/102/32
f 51/103/26 50/82/26 47/84/26
f 42/104/33 46/105/33 41/106/33
f 55/98/30 48/107/30 46/93/30
f 46/93/30 47/99/30 54/97/30
f 54/85/32 47/108/32 53/86/32
f 50/94/31 42/104/31 43/109/31
f 55/87/29 53/86/29 48/92/29
f 40/110/34 46/111/34 48/112/34
f 59/113/1 58/114/1 56/115/1
f 57/116/35 58/117/35 59/118/35
f 57/119/36 56/120/36 58/121/36
f 56/122/37 57/123/37 59/124/37
f 63/125/38 62/126/38 60/127/38
f 61/128/39 62/129/39 63/130/39
f 61/128/40 60/131/40 62/129/40
f 60/132/41 61/133/41 63/134/41
f 6/4/2 4/135/2 3/5/2
f 2/7/3 1/136/3 3/8/3
f 1/10/4 2/137/4 6/11/4
f 8/16/6 10/138/6 9/17/6
f 10/19/7 14/139/7 13/20/7
f 14/22/8 12/140/8 11/23/8
f 8/25/9 7/141/9 11/26/9
f 9/21/10 13/20/10 11/28/10
f 12/30/11 14/142/11 10/31/11
f 21/40/19 28/45/19 27/56/19
f 29/65/18 30/143/18 15/53/18
f 19/46/22 17/144/22 18/66/22
f 26/68/23 31/145/23 29/65/23
f 38/57/24 34/59/24 33/69/24
f 36/63/21 16/36/21 15/38/21
f 24/49/17 27/47/17 28/50/17
f 22/75/16 27/47/16 19/46/16
f 24/35/12 15/38/12 17/37/12
f 39/78/25 35/72/25 37/74/25
f 33/60/14 21/40/14 18/43/14
f 35/64/13 39/81/13 18/39/13
f 37/74/20 29/77/20 31/58/20
f 21/40/15 33/60/15 31/62/15
f 50/82/26 43/146/26 44/83/26
f 53/86/29 45/102/29 40/91/29
f 53/86/32 47/108/32 44/101/32
f 42/104/33 49/96/33 46/105/33
f 50/94/31 49/96/31 42/104/31
f 40/110/34 41/147/34 46/111/34
