# Blender v2.77 (sub 0) OBJ File: 'LowPoly_Level_Kit_Rocks.blend'
# www.blender.org
g Crystal_m_01
v -0.000000 0.000000 -0.196069
v -0.169800 0.000000 -0.098034
v -0.169800 0.000000 0.098034
v 0.000000 0.000000 0.196069
v 0.169800 0.000000 0.098034
v 0.169800 0.000000 -0.098034
v -0.145129 1.146188 0.083790
v -0.145129 1.103458 -0.083790
v 0.000000 1.137444 0.167580
v 0.145129 1.204066 0.083790
v -0.068940 1.252499 0.127778
v 0.004120 1.327233 0.063243
v 0.145129 1.233053 0.068061
v 0.051879 1.327233 0.047566
v 0.145129 1.146134 -0.083790
v 0.022795 1.327233 -0.028173
v 0.038656 1.327233 -0.018551
v 0.145129 1.210757 -0.037464
v 0.000000 1.121486 -0.167580
v -0.084537 1.170166 -0.118773
v -0.006852 1.276342 -0.082639
v 0.018909 1.151284 -0.156663
vt 0.9239 0.1733
vt 0.8847 0.1136
vt 0.8997 0.1056
vt 0.8955 0.0091
vt 1.0000 0.0326
vt 0.9256 0.0634
vt 0.7784 0.1044
vt 0.4990 0.1366
vt 0.6788 0.9977
vt 0.4849 0.9977
vt 0.7755 0.0697
vt 0.2763 0.1708
vt 0.3878 0.9972
vt 0.2904 1.0000
vt 0.0281 0.1429
vt 0.0673 0.0576
vt 0.1106 0.1387
vt 0.8758 0.1638
vt 0.7850 0.1836
vt 1.0000 0.2182
vt 0.0965 1.0000
vt 0.7474 0.1424
vt 0.6647 0.0931
vt 0.5448 0.0881
vt 0.6491 0.0713
vt 0.9135 0.0000
vt 0.7860 0.1953
vt 0.1313 0.0003
vt 0.2217 0.0000
vt 0.2755 0.0387
vt 0.0000 0.9972
vt 0.3111 0.1197
vt 0.4159 0.1544
vt 0.3878 0.9968
vt 0.3595 0.1549
vt 0.6288 0.0001
vt 0.5634 0.0000
vt 0.4268 0.1321
vt 0.7755 0.9968
vt 0.9344 0.2513
vn 0.0000 1.0000 -0.0000
vn -0.2301 0.4602 -0.8575
vn 0.4422 0.5226 -0.7290
vn 0.9998 0.0215 0.0000
vn -0.4999 0.0224 -0.8658
vn -0.5000 -0.0000 0.8660
vn 0.2772 0.4582 0.8445
vn -0.9998 0.0215 -0.0055
vn 0.4929 0.0204 0.8699
vn 1.0000 0.0000 0.0000
vn -0.7707 0.6175 -0.1574
vn -0.4999 0.0217 0.8658
vn 0.4999 0.0220 -0.8658
vn -0.5000 0.0000 -0.8660
vn 0.7187 0.6803 -0.1437
vn 0.5000 0.0000 -0.8660
vn 0.9998 0.0204 -0.0071
vn -0.5019 0.0220 -0.8646
vn -0.9998 0.0224 0.0000
vn 0.4999 0.0217 0.8658
vn -0.4989 0.0215 0.8664
vn 0.4971 0.0215 -0.8674
s off
f 12/1/1 17/2/1 16/3/1
f 22/4/2 20/5/2 21/6/2
f 18/7/3 21/6/3 17/2/3
f 15/8/4 5/9/4 6/10/4
f 22/4/3 18/7/3 15/11/3
f 8/12/5 1/13/5 2/14/5
f 9/15/6 11/16/6 7/17/6
f 12/1/1 14/18/1 17/2/1
f 13/19/7 14/18/7 12/1/7
f 12/1/7 11/20/7 13/19/7
f 8/12/8 3/21/8 7/17/8
f 9/22/9 5/9/9 10/23/9
f 15/8/10 18/24/10 10/23/10
f 13/25/10 10/23/10 18/24/10
f 22/4/2 19/26/2 20/5/2
f 16/3/3 17/2/3 21/6/3
f 11/20/7 10/27/7 13/19/7
f 12/28/11 16/29/11 21/30/11
f 9/15/12 3/21/12 4/31/12
f 8/12/11 7/17/11 20/32/11
f 11/16/11 12/28/11 21/30/11
f 19/33/13 6/10/13 1/34/13
f 8/12/14 20/32/14 19/35/14
f 14/36/15 18/24/15 17/37/15
f 19/33/16 22/38/16 15/8/16
f 7/17/11 21/30/11 20/32/11
f 15/8/17 10/23/17 5/9/17
f 22/4/3 21/6/3 18/7/3
f 8/12/18 19/35/18 1/13/18
f 8/12/19 2/14/19 3/21/19
f 9/22/20 4/39/20 5/9/20
f 11/20/7 9/40/7 10/27/7
f 9/15/21 7/17/21 3/21/21
f 19/33/22 15/8/22 6/10/22
f 14/36/15 13/25/15 18/24/15
f 7/17/11 11/16/11 21/30/11
