# Blender v2.77 (sub 0) OBJ File: 'LowPoly_Level_Kit_Rocks.blend'
# www.blender.org
g Crystals_l_02
v 1.002901 -0.012707 -0.599385
v 0.856819 0.004027 -0.481861
v 0.924387 0.015196 -0.306689
v 1.112229 0.005364 -0.315951
v 1.160753 -0.011880 -0.496848
v 0.889982 0.690978 -0.538451
v 1.199094 0.782332 -0.562274
v 1.040754 0.771409 -0.663980
v 1.003611 0.800497 -0.635173
v 1.147382 0.802987 -0.598246
v 0.959481 0.794231 -0.377472
v 1.146606 0.717465 -0.374614
v 1.182296 0.820172 -0.496593
v 1.086204 0.877384 -0.516638
v 1.061350 0.884280 -0.513572
v 0.160889 0.020928 0.888154
v 0.017922 0.001167 0.988678
v 0.070961 -0.020207 1.155007
v 0.246708 -0.013655 1.157279
v 0.302287 0.011767 0.992355
v 0.274305 0.727399 1.093238
v 0.133458 0.722466 0.987050
v 0.263427 0.740719 1.087369
v -0.008655 0.680856 1.084494
v 0.073365 0.788274 1.037667
v 0.043757 0.675525 1.253084
v 0.218174 0.716088 1.260151
v 0.221529 0.729866 1.250496
v 0.146758 0.841443 1.150315
v 0.111888 0.847752 1.138040
v 0.024055 0.733950 1.204821
v -1.222836 -0.180151 -0.416478
v -1.567407 -0.214678 -0.183145
v -1.539559 -0.203077 0.233335
v -1.167142 -0.156949 0.416481
v -0.822571 -0.122422 0.183148
v -0.850419 -0.134023 -0.233332
v -1.479785 2.098868 -0.424720
v -1.791298 2.052259 -0.212290
v -1.503538 2.128765 -0.411743
v -1.471455 2.441013 -0.163155
v -1.763367 2.039856 0.166792
v -1.793427 2.097553 -0.169921
v -1.508534 2.464078 -0.108097
v -1.490164 2.457002 0.001109
v -1.710510 2.103037 0.194784
v -1.431650 2.141880 0.332072
v -1.457889 2.439639 0.038355
v -1.435978 2.146752 0.330135
v -1.111279 2.110713 0.121217
v -1.135717 2.092463 -0.257245
v -1.173777 2.134541 -0.274311
v -1.381853 2.389428 -0.165926
v -1.352125 2.378424 0.024895
v -1.118444 2.119516 0.125153
v 0.878971 -0.175108 0.326309
v 0.701712 -0.146719 0.423637
v 0.696927 -0.141859 0.627727
v 0.869401 -0.165388 0.734490
v 1.046660 -0.193777 0.637162
v 1.051445 -0.198637 0.433072
v 1.200708 0.947475 0.604311
v 1.207730 0.960994 0.418410
v 1.055631 1.013898 0.320713
v 1.171335 1.004807 0.391596
v 0.894516 1.039904 0.409188
v 0.985309 1.072047 0.362140
v 1.046547 1.020153 0.691838
v 1.094823 1.058632 0.668106
v 0.885233 1.011214 0.595397
v 1.038393 1.139924 0.510365
v 1.019060 1.140298 0.496683
v 0.897476 1.077500 0.506344
v -0.088727 -0.123311 -1.260394
v -0.256450 -0.111759 -1.187778
v -0.276635 -0.083454 -1.007976
v -0.129096 -0.066699 -0.900789
v 0.038628 -0.078251 -0.973404
v 0.058812 -0.106557 -1.153206
v 0.060156 1.682523 -1.434705
v -0.087374 1.676946 -1.543651
v -0.000084 1.739733 -1.488584
v -0.275332 1.650151 -1.280746
v -0.255156 1.611156 -1.458867
v -0.181047 1.734734 -1.511156
v -0.113829 1.901119 -1.382380
v -0.128459 1.892464 -1.390242
v -0.267083 1.667962 -1.277417
v -0.127827 1.622131 -1.166514
v 0.039974 1.713978 -1.255398
v 0.041977 1.744127 -1.278197
v -0.110793 1.899208 -1.375878
v -0.186318 1.707797 -1.223583
v -0.000000 -0.093528 -0.769423
v -0.666340 -0.093528 -0.384712
v -0.666340 -0.093528 0.384712
v 0.000000 -0.093528 0.769423
v 0.666340 -0.093528 0.384712
v 0.666340 -0.093528 -0.384712
v 0.694752 1.700000 0.401115
v 0.694752 1.700000 -0.401115
v -0.694752 1.700000 0.401115
v 0.000000 1.700000 0.802230
v -0.000000 1.700000 -0.802230
v -0.694752 1.700000 -0.401115
v 0.617630 2.669530 0.356589
v 0.617630 2.669530 -0.356589
v -0.614245 2.904611 0.354634
v -0.614245 2.904611 -0.354634
v -0.000000 2.828577 -0.710533
v 0.374663 2.949877 -0.492204
v -0.054798 3.445409 -0.044183
v -0.392075 3.119375 -0.479333
v 0.000000 2.815372 0.710753
v 0.348617 2.979929 0.506742
v -0.412185 3.099936 0.468046
v -0.054798 3.445409 0.080359
vt 0.8262 0.6761
vt 0.8583 0.8103
vt 0.8252 0.8241
vt 0.8929 0.7679
vt 0.8838 0.6828
vt 0.9152 0.6746
vt 0.8181 0.8282
vt 0.8197 0.8241
vt 0.8490 0.8267
vt 0.4071 0.9444
vt 0.4346 0.9446
vt 0.4085 0.9587
vt 0.8657 0.7906
vt 0.8583 0.7894
vt 0.8821 0.8159
vt 0.9152 0.7997
vt 0.4316 0.9390
vt 0.3950 0.9403
vt 0.7997 0.8434
vt 0.8177 0.8491
vt 0.8043 0.8542
vt 0.4122 0.9601
vt 0.7997 0.8051
vt 0.8415 0.8618
vt 0.8126 0.9548
vt 0.3981 0.7899
vt 0.4346 0.7905
vt 0.7773 0.8383
vt 0.7610 0.8168
vt 0.7994 0.8173
vt 0.8603 0.9165
vt 0.8928 0.9148
vt 0.8781 0.9429
vt 0.8974 0.9478
vt 0.9084 0.9318
vt 0.7701 0.8393
vt 0.8795 0.9487
vt 0.7688 0.8057
vt 0.8919 0.9115
vt 0.8751 0.8176
vt 0.9084 0.8159
vt 0.4927 0.9666
vt 0.4611 0.9714
vt 0.4586 0.9690
vt 0.7997 0.6771
vt 0.7997 0.8146
vt 0.2945 0.9206
vt 0.2738 0.9379
vt 0.2628 0.9304
vt 0.7454 0.8070
vt 0.7688 0.6746
vt 0.8583 0.9150
vt 0.3080 0.9425
vt 0.2768 0.8337
vt 0.3080 0.8269
vt 0.4586 0.8332
vt 0.4927 0.8335
vt 0.9912 0.5653
vt 0.9231 0.5590
vt 0.9737 0.5146
vt 0.9456 0.0043
vt 0.9837 0.0660
vt 0.9237 0.0642
vt 0.0147 0.8913
vt 0.0769 0.8611
vt 0.0580 0.9483
vt 0.5653 0.8971
vt 0.5774 0.9647
vt 0.5161 0.9393
vt 0.6130 0.9743
vt 0.5777 0.9942
vt 0.5715 0.9868
vt 0.9605 0.5033
vt 0.1372 0.8714
vt 0.0641 0.5751
vt 0.1390 0.5979
vt 0.0691 0.8534
vt 0.9539 0.0000
vt 0.0704 0.9491
vt 0.9983 0.5741
vt 0.9190 0.9988
vt 0.9250 0.5649
vt 0.6400 0.9152
vt 0.5662 0.8951
vt 0.5056 0.6001
vt 0.5612 0.5630
vt 0.9229 0.0652
vt 0.9966 0.0767
vt 0.5158 0.9380
vt 0.0109 0.8897
vt 0.5980 1.0000
vt 0.6097 0.9932
vt 0.6379 0.9042
vt 0.9190 0.5033
vt 0.0000 0.6129
vt 0.0894 0.9551
vt 0.3950 0.6197
vt 0.3556 0.8402
vt 0.3592 0.6134
vt 0.4142 0.7343
vt 0.4490 0.7439
vt 0.4514 0.7556
vt 0.2998 0.8255
vt 0.3325 0.8163
vt 0.3257 0.8269
vt 0.3232 0.7912
vt 0.2942 0.6050
vt 0.3325 0.6118
vt 0.4604 0.6063
vt 0.4867 0.6050
vt 0.4964 0.6123
vt 0.3063 0.7988
vt 0.2747 0.8046
vt 0.2882 0.7901
vt 0.4586 0.6134
vt 0.2628 0.8044
vt 0.4464 0.7899
vt 0.4218 0.7880
vt 0.2983 0.8226
vt 0.4202 0.7848
vt 0.3381 0.6235
vt 0.3325 0.8414
vt 0.3950 0.7595
vt 0.3539 0.6050
vt 0.4586 0.8332
vt 0.2404 0.6322
vt 0.2048 0.6307
vt 0.2038 0.6273
vt 0.7045 0.8592
vt 0.7368 0.8325
vt 0.7054 0.8602
vt 0.7013 0.8141
vt 0.7327 0.8142
vt 0.6750 0.8878
vt 0.6400 0.5651
vt 0.6750 0.5657
vt 0.1745 0.9171
vt 0.1535 0.9273
vt 0.1390 0.9153
vt 0.6980 0.5630
vt 0.6980 0.9048
vt 0.1943 0.9063
vt 0.1856 0.9290
vt 0.1745 0.5751
vt 0.2480 0.6056
vt 0.2211 0.5783
vt 0.2197 0.5752
vt 0.2186 0.5751
vt 0.6611 0.9052
vt 0.6640 0.9425
vt 0.1620 0.9572
vt 0.1587 0.9586
vt 0.6968 0.9107
vt 0.2124 0.8603
vt 0.6980 0.8090
vt 0.1943 0.6113
vt 0.1943 0.5790
vt 0.6400 0.8957
vt 0.6420 0.8990
vt 0.7022 0.5630
vt 0.7368 0.5686
vt 0.5056 0.1282
vt 0.6980 0.1207
vt 0.6701 0.1981
vt 0.3522 0.6050
vt 0.2628 0.2609
vt 0.3504 0.2656
vt 0.9190 0.0081
vt 0.7477 0.3391
vt 0.7700 0.0000
vt 0.0013 0.0702
vt 0.1141 0.2391
vt 0.0000 0.3124
vt 0.5056 0.2656
vt 0.5011 0.6050
vt 0.6933 0.3344
vt 0.5326 0.1981
vt 0.2533 0.0286
vt 0.1107 0.0000
vt 0.2528 0.4409
vt 0.1214 0.4145
vt 0.0200 0.4689
vt 0.9190 0.6182
vt 0.7962 0.5790
vt 0.8815 0.5606
vt 0.5904 0.0046
vt 0.6144 0.0046
vt 0.1483 0.5704
vt 0.0861 0.4672
vt 0.7003 0.0000
vt 0.7454 0.5230
vt 0.3587 0.0539
vt 0.2628 0.4973
vt 0.1714 0.5751
vt 0.9031 0.3475
vt 0.2805 0.0774
vt 0.3150 0.0204
vt 0.4513 0.0000
vt 0.4961 0.0370
vt 0.5717 0.5630
vt 0.7200 0.5630
vt 0.8583 0.6750
vt 0.7997 0.6746
vt 0.8490 0.9520
vt 0.7454 0.6789
vt 0.2833 0.9592
vt 0.1390 0.8877
vt 0.9996 0.9988
vt 1.0000 0.5033
vt 0.6400 0.5742
vt 0.3950 0.8407
vt 0.4202 0.6050
vt 0.4586 0.7752
vt 0.4983 0.8332
vt 0.2663 0.6207
vt 0.1390 0.5754
vt 0.2480 0.8603
vt 0.2682 0.6005
vt 0.5387 0.3344
vt 0.2628 0.2690
vt 0.8154 0.6746
vt 0.7454 0.0938
vn 0.0215 0.0895 0.9958
vn -0.6288 -0.0336 -0.7768
vn 0.2747 0.6944 0.6651
vn 0.1422 0.7823 -0.6065
vn -0.7367 0.6672 -0.1099
vn 0.5426 -0.0949 -0.8346
vn 0.5332 0.7849 -0.3158
vn -0.9320 0.0742 0.3548
vn 0.9650 -0.0251 0.2612
vn -0.1698 0.5930 0.7871
vn 0.7035 0.6739 0.2255
vn 0.3367 0.7477 -0.5723
vn 0.9480 -0.0078 0.3183
vn 0.5935 0.1350 -0.7934
vn -0.0076 -0.1399 0.9901
vn -0.5812 0.0913 -0.8086
vn -0.9527 -0.0787 0.2937
vn -0.8032 0.5942 -0.0438
vn 0.5935 0.1351 -0.7934
vn 0.3066 0.5734 -0.7598
vn -0.4234 0.6233 0.6575
vn -0.5703 0.5467 -0.6131
vn 0.4523 0.6462 0.6147
vn 0.4981 0.8667 -0.0276
vn -0.9929 -0.0970 0.0691
vn -0.9913 -0.1115 0.0694
vn 0.4379 0.0461 -0.8978
vn 0.7552 0.6506 -0.0801
vn 0.5517 0.0943 0.8287
vn -0.4379 -0.0317 0.8985
vn 0.4522 0.6462 0.6147
vn -0.5534 -0.0798 -0.8291
vn -0.4415 -0.0179 0.8971
vn -0.5550 -0.0655 -0.8293
vn -0.7917 0.5865 0.1712
vn 0.5534 0.0798 0.8291
vn 0.9896 0.1260 -0.0700
vn -0.5145 0.1075 0.8507
vn 0.7435 0.6644 0.0764
vn -0.3570 0.7721 0.5257
vn -0.9867 0.1604 -0.0270
vn 0.5147 -0.0940 -0.8522
vn -0.4557 0.8347 -0.3091
vn 0.9907 -0.1332 0.0277
vn -0.4741 0.0528 -0.8789
vn 0.3638 0.7907 -0.4924
vn -0.3570 0.7721 0.5256
vn 0.4761 -0.0390 0.8785
vn -0.9888 0.1468 -0.0267
vn 0.4741 -0.0528 0.8789
vn 0.5186 -0.0811 -0.8512
vn -0.4721 0.0660 -0.8791
vn -0.8753 0.4420 -0.1959
vn 0.7524 0.6380 -0.1638
vn 0.7524 0.6380 -0.1637
vn -0.5924 0.1257 0.7958
vn 0.5924 -0.1257 -0.7958
vn 0.4015 0.1421 0.9048
vn -0.4015 -0.1421 -0.9048
vn -0.6229 0.6226 0.4737
vn 0.0958 0.5963 0.7970
vn 0.0841 0.5884 -0.8042
vn -0.9939 -0.0164 -0.1090
vn 0.9939 0.0164 0.1090
vn -0.6228 0.6226 0.4737
vn 0.7557 0.6549 0.0000
vn 0.4999 -0.0158 0.8659
vn 0.4999 -0.0158 -0.8659
vn -0.4999 -0.0158 -0.8659
vn -0.4999 -0.0158 0.8659
vn 0.9969 0.0793 0.0000
vn -0.9999 -0.0158 0.0000
vn -0.9978 0.0667 0.0000
vn -0.4941 0.0665 -0.8669
vn 0.1506 0.7316 -0.6649
vn -0.6950 0.7190 -0.0000
vn 0.0761 0.7086 0.7015
vn 0.4999 0.0144 -0.8659
vn -0.4987 0.0708 0.8638
vn -0.4999 0.0144 -0.8659
vn 0.5095 0.0697 -0.8577
vn 0.4999 0.0144 0.8659
vn 0.4984 0.0793 0.8633
vn -0.4999 0.0144 0.8659
vn 0.9999 -0.0158 0.0000
vn 0.0532 0.0794 0.9954
vn -0.9928 -0.0972 0.0700
vn 0.4362 0.0462 -0.8987
vn 0.4379 0.0317 -0.8985
vn 0.5537 0.0941 0.8274
vn -0.4395 -0.0172 0.8981
vn -0.5555 -0.0656 -0.8289
vn 0.9896 0.1261 -0.0697
vn -0.5126 0.1076 0.8518
vn -0.9868 0.1600 -0.0245
vn 0.9908 -0.1330 0.0264
vn 0.4790 -0.0400 0.8769
vn 0.5167 -0.0804 -0.8524
vn -0.4988 0.0702 -0.8639
vn -0.4932 0.0664 0.8674
vn 0.4984 0.0793 -0.8633
vn 0.5087 0.0704 0.8581
s off
f 3/1/1 12/2/1 11/3/1
f 6/4/2 1/5/2 2/6/2
f 14/7/3 15/8/3 11/9/3
f 10/10/4 9/11/4 14/12/4
f 6/4/2 9/13/2 8/14/2
f 15/15/5 6/4/5 11/16/5
f 8/17/6 10/10/6 7/18/6
f 10/19/7 13/20/7 7/21/7
f 15/22/4 14/12/4 9/11/4
f 6/23/8 3/1/8 11/3/8
f 7/21/9 13/20/9 12/24/9
f 14/7/3 12/24/3 13/20/3
f 12/24/9 5/25/9 7/21/9
f 8/17/6 5/26/6 1/27/6
f 29/28/10 31/29/10 28/30/10
f 28/31/11 23/32/11 29/33/11
f 25/34/12 23/32/12 22/35/12
f 29/28/10 30/36/10 31/29/10
f 30/37/12 29/33/12 25/34/12
f 26/38/10 28/30/10 31/29/10
f 28/31/11 21/39/11 23/32/11
f 21/39/13 19/40/13 20/41/13
f 22/42/14 23/43/14 21/44/14
f 26/38/15 19/45/15 27/46/15
f 24/47/16 25/48/16 22/49/16
f 24/50/17 18/51/17 26/38/17
f 21/39/13 28/31/13 27/52/13
f 31/53/18 25/48/18 24/47/18
f 24/47/16 16/54/16 17/55/16
f 26/38/17 31/29/17 24/50/17
f 22/42/19 20/56/19 16/57/19
f 52/58/20 40/59/20 53/60/20
f 48/61/21 46/62/21 49/63/21
f 40/64/22 43/65/22 41/66/22
f 55/67/23 54/68/23 49/69/23
f 53/70/24 45/71/24 48/72/24
f 41/73/20 53/60/20 40/59/20
f 42/74/25 33/75/25 34/76/25
f 42/74/26 43/65/26 39/77/26
f 48/61/21 45/78/21 46/62/21
f 44/79/22 41/66/22 43/65/22
f 51/80/27 32/81/27 38/82/27
f 52/58/20 38/82/20 40/59/20
f 54/68/28 52/83/28 53/70/28
f 50/84/29 35/85/29 36/86/29
f 47/87/30 49/63/30 46/62/30
f 46/62/30 42/88/30 47/87/30
f 48/72/23 49/69/23 54/68/23
f 47/89/31 55/67/31 49/69/31
f 39/77/32 40/64/32 38/90/32
f 44/91/24 45/71/24 41/92/24
f 48/72/24 54/68/24 53/70/24
f 55/67/28 51/93/28 52/83/28
f 42/88/33 35/94/33 47/87/33
f 39/77/34 32/95/34 33/75/34
f 43/65/35 45/96/35 44/79/35
f 50/84/36 55/67/36 47/89/36
f 36/86/37 51/93/37 50/84/37
f 70/97/38 59/98/38 68/99/38
f 62/100/39 63/101/39 65/102/39
f 71/103/40 68/104/40 69/105/40
f 70/106/41 57/107/41 58/108/41
f 64/109/42 65/110/42 63/111/42
f 73/112/43 67/113/43 66/114/43
f 62/100/44 61/115/44 63/101/44
f 66/114/45 67/113/45 64/116/45
f 65/102/46 67/117/46 72/118/46
f 71/103/47 72/119/47 70/106/47
f 73/112/40 70/106/40 72/119/40
f 72/118/46 71/120/46 65/102/46
f 62/121/48 59/98/48 60/122/48
f 70/106/49 73/112/49 66/114/49
f 62/100/39 71/120/39 69/123/39
f 62/121/50 69/124/50 68/99/50
f 63/111/51 56/125/51 64/109/51
f 64/116/52 57/107/52 66/114/52
f 84/126/53 83/127/53 88/128/53
f 92/129/54 82/130/54 86/131/54
f 92/129/55 91/132/55 80/133/55
f 89/134/56 76/135/56 77/136/56
f 81/137/57 82/138/57 80/139/57
f 89/134/58 78/140/58 90/141/58
f 84/142/59 85/143/59 81/137/59
f 80/139/57 74/144/57 81/137/57
f 85/145/53 88/128/53 87/146/53
f 86/147/60 87/146/60 92/148/60
f 93/149/61 90/141/61 92/150/61
f 87/151/62 86/152/62 82/138/62
f 91/153/61 92/150/61 90/141/61
f 82/138/62 85/143/62 87/151/62
f 84/126/63 76/154/63 83/127/63
f 80/133/64 91/132/64 90/155/64
f 87/146/65 93/156/65 92/148/65
f 84/142/59 74/144/59 75/157/59
f 89/134/56 93/149/56 83/158/56
f 88/159/56 83/158/56 93/149/56
f 80/133/64 78/160/64 79/161/64
f 111/162/66 115/163/66 106/164/66
f 97/165/67 100/166/67 103/167/67
f 94/168/68 101/169/68 99/170/68
f 94/171/69 105/172/69 104/173/69
f 97/165/70 102/174/70 96/175/70
f 100/176/71 107/177/71 106/164/71
f 96/178/72 105/172/72 95/179/72
f 105/172/73 108/180/73 109/181/73
f 110/182/74 105/172/74 109/181/74
f 113/183/75 111/184/75 110/185/75
f 112/186/66 117/187/66 115/163/66
f 109/181/76 112/188/76 113/189/76
f 107/177/66 111/162/66 106/164/66
f 116/190/77 115/163/77 117/187/77
f 110/185/78 111/184/78 107/191/78
f 114/192/79 102/174/79 103/167/79
f 109/181/80 113/189/80 110/182/80
f 109/181/76 108/180/76 116/193/76
f 116/193/76 117/194/76 112/188/76
f 107/191/81 104/195/81 110/185/81
f 106/196/82 115/197/82 114/192/82
f 106/196/83 103/167/83 100/166/83
f 114/192/84 116/198/84 108/199/84
f 99/200/85 100/176/85 98/201/85
f 3/1/86 4/202/86 12/2/86
f 6/4/2 8/14/2 1/5/2
f 10/10/4 8/17/4 9/11/4
f 15/15/5 9/13/5 6/4/5
f 10/19/7 14/7/7 13/20/7
f 6/23/8 2/203/8 3/1/8
f 14/7/3 11/9/3 12/24/3
f 12/24/9 4/204/9 5/25/9
f 8/17/6 7/18/6 5/26/6
f 25/34/12 29/33/12 23/32/12
f 26/38/10 27/46/10 28/30/10
f 21/39/13 27/52/13 19/40/13
f 26/38/15 18/51/15 19/45/15
f 24/50/17 17/205/17 18/51/17
f 31/53/18 30/206/18 25/48/18
f 24/47/16 22/49/16 16/54/16
f 22/42/19 21/44/19 20/56/19
f 53/70/24 41/92/24 45/71/24
f 42/74/87 39/77/87 33/75/87
f 42/74/35 46/207/35 43/65/35
f 51/80/88 37/208/88 32/81/88
f 52/58/89 51/80/89 38/82/89
f 54/68/28 55/67/28 52/83/28
f 50/84/90 47/89/90 35/85/90
f 39/77/22 43/65/22 40/64/22
f 55/67/28 50/84/28 51/93/28
f 42/88/91 34/209/91 35/94/91
f 39/77/92 38/90/92 32/95/92
f 43/65/35 46/207/35 45/96/35
f 36/86/93 37/210/93 51/93/93
f 70/97/94 58/211/94 59/98/94
f 71/103/40 70/106/40 68/104/40
f 70/106/95 66/114/95 57/107/95
f 73/112/43 72/119/43 67/113/43
f 62/100/96 60/212/96 61/115/96
f 65/102/46 64/213/46 67/117/46
f 62/121/97 68/99/97 59/98/97
f 62/100/39 65/102/39 71/120/39
f 63/111/98 61/214/98 56/125/98
f 64/116/52 56/215/52 57/107/52
f 92/129/55 80/133/55 82/130/55
f 89/134/56 83/158/56 76/135/56
f 89/134/58 77/136/58 78/140/58
f 80/139/57 79/216/57 74/144/57
f 85/145/53 84/126/53 88/128/53
f 93/149/61 89/134/61 90/141/61
f 82/138/62 81/137/62 85/143/62
f 84/126/63 75/217/63 76/154/63
f 87/146/65 88/128/65 93/156/65
f 84/142/59 81/137/59 74/144/59
f 80/133/64 90/155/64 78/160/64
f 111/162/66 112/186/66 115/163/66
f 97/165/67 98/218/67 100/166/67
f 94/168/68 104/195/68 101/169/68
f 94/171/69 95/179/69 105/172/69
f 97/165/70 103/167/70 102/174/70
f 100/176/71 101/219/71 107/177/71
f 96/178/72 102/220/72 105/172/72
f 105/172/73 102/220/73 108/180/73
f 110/182/99 104/173/99 105/172/99
f 113/183/75 112/221/75 111/184/75
f 109/181/76 116/193/76 112/188/76
f 116/190/77 114/222/77 115/163/77
f 114/192/100 108/199/100 102/174/100
f 107/191/101 101/169/101 104/195/101
f 106/196/102 114/192/102 103/167/102
f 99/200/85 101/219/85 100/176/85
