# Blender v2.77 (sub 0) OBJ File: 'LowPoly_Level_Kit_Rocks.blend'
# www.blender.org
g Crystals_s_04
v -0.369382 -0.006477 -0.005525
v -0.362609 0.015259 -0.013709
v -0.199329 -0.006477 -0.081254
v -0.209561 0.015259 -0.081865
v -0.329317 -0.006477 -0.142606
v -0.325858 0.015259 -0.133811
v 0.013727 -0.007428 0.164951
v 0.013592 0.008068 0.164977
v -0.063569 -0.008174 0.196810
v -0.063704 0.007322 0.196835
v 0.004317 -0.007302 0.087618
v 0.004182 0.008194 0.087643
v -0.077709 -0.008088 0.116938
v -0.077844 0.007408 0.116964
v 0.286238 -0.005888 0.000441
v 0.377497 -0.005888 -0.051182
v 0.329979 -0.005888 -0.123410
v 0.209351 -0.005888 -0.116426
v 0.182318 -0.005888 -0.039883
v 0.259751 0.035519 -0.097680
vt 0.8337 0.0000
vt 0.8337 0.4333
vt 0.4015 0.0672
vt 0.9043 0.0182
vt 0.9713 0.3506
vt 0.9018 0.3334
vt 1.0000 0.9659
vt 0.9322 0.4333
vt 1.0000 0.4609
vt 0.8342 0.3919
vt 0.9018 0.0000
vt 0.9018 0.4194
vt 0.6893 0.4333
vt 0.6893 0.9380
vt 0.4015 0.6832
vt 0.7826 0.9903
vt 0.7353 0.7382
vt 0.7826 0.7383
vt 0.8297 0.7382
vt 0.7826 0.9776
vt 0.7826 0.7394
vt 0.6893 1.0000
vt 0.7353 0.7382
vt 0.7353 0.9985
vt 0.8297 0.7382
vt 0.8771 0.9731
vt 0.8297 0.9731
vt 0.0122 0.7913
vt 0.2450 0.5804
vt 0.2450 0.8430
vt 0.9322 0.6955
vt 0.7014 0.4868
vt 0.9322 0.4333
vt 0.0000 0.2061
vt 0.2629 0.3937
vt 0.0077 0.5395
vt 0.3841 0.8999
vt 0.2450 0.7579
vt 0.3841 0.5395
vt 0.2434 0.0000
vt 0.2558 0.5395
vt 0.4015 0.2061
vt 0.9713 0.0000
vt 0.9322 0.9945
vt 0.8337 0.0242
vt 0.7353 0.9902
vt 0.8297 0.9764
vt 0.6893 0.7397
vt 0.8771 0.7382
vt 0.0000 0.5395
vt 0.6893 0.7382
vn 0.0000 -1.0000 0.0000
vn 0.3901 0.2913 -0.8735
vn 0.3975 0.2122 0.8927
vn -0.9424 0.1899 -0.2754
vn 0.0000 1.0000 0.0000
vn 0.3810 0.0018 0.9246
vn -0.9847 -0.0089 0.1743
vn -0.3366 -0.0014 -0.9417
vn 0.9926 0.0089 -0.1208
vn 0.0086 -1.0000 -0.0027
vn -0.0086 1.0000 0.0027
vn -0.1632 0.8924 0.4207
vn -0.0512 0.4630 -0.8849
vn 0.1909 0.9218 0.3375
vn -0.5753 0.7923 -0.2032
vn 0.4130 0.8693 -0.2717
vn 0.4204 0.1729 -0.8907
vn -0.9230 0.2612 -0.2825
vn 0.0086 -1.0000 -0.0026
vn -0.0086 1.0000 0.0026
s off
f 5/1/1 3/2/1 1/3/1
f 4/4/2 5/5/2 6/6/2
f 2/7/3 3/8/3 4/9/3
f 2/10/4 5/11/4 1/12/4
f 2/13/5 4/14/5 6/15/5
f 10/16/6 7/17/6 8/18/6
f 10/19/7 13/20/7 9/21/7
f 14/22/8 11/23/8 13/24/8
f 8/25/9 11/26/9 12/27/9
f 7/28/10 13/29/10 11/30/10
f 14/31/11 8/32/11 12/33/11
f 15/34/12 20/35/12 19/36/12
f 18/37/13 20/38/13 17/39/13
f 16/40/14 20/35/14 15/34/14
f 19/36/15 20/35/15 18/41/15
f 17/42/16 20/35/16 16/40/16
f 4/4/17 3/43/17 5/5/17
f 2/7/3 1/44/3 3/8/3
f 2/10/18 6/45/18 5/11/18
f 10/16/6 9/46/6 7/17/6
f 10/19/7 14/47/7 13/20/7
f 14/22/8 12/48/8 11/23/8
f 8/25/9 7/49/9 11/26/9
f 7/28/19 9/50/19 13/29/19
f 14/31/20 10/51/20 8/32/20
