# Blender v2.77 (sub 0) OBJ File: 'LowPoly_Level_Kit_Rocks.blend'
# www.blender.org
g Crystals_l_05
v -0.162795 -0.147336 -0.876566
v -0.384301 -0.094392 -0.663315
v -0.304784 -0.025122 -0.369678
v -0.003760 -0.008795 -0.289292
v 0.217747 -0.061739 -0.502542
v 0.138229 -0.131009 -0.796179
v 0.288728 1.313783 -0.814309
v 0.193884 1.231160 -1.164545
v -0.436213 1.530791 -1.069702
v -0.165263 1.364950 -1.303056
v 0.084677 1.403719 -1.243378
v -0.086013 1.851196 -1.100490
v -0.187682 1.846685 -1.120592
v -0.347039 1.707248 -1.207576
v 0.017380 1.041749 -0.495681
v -0.333448 1.306668 -0.645304
v 0.220689 1.492284 -0.777873
v -0.352279 1.454216 -0.736559
v -0.064285 1.870438 -1.020336
v -0.124014 1.870974 -1.018999
v -0.281908 -0.162208 0.652978
v -0.174430 -0.058834 0.382480
v -0.370527 0.004272 0.152327
v -0.674102 -0.035996 0.192673
v -0.781580 -0.139370 0.463171
v -0.585482 -0.202476 0.693324
v -0.855857 0.707615 0.756552
v -0.946314 1.543088 1.062662
v -0.748149 1.479317 1.295240
v -0.657732 0.643857 0.989083
v -0.442143 0.870471 0.448674
v -0.535158 1.731232 0.763954
v -0.839801 1.669045 0.797016
v -0.748087 0.820919 0.486350
v -0.351806 0.693392 0.951452
v -0.443494 1.541510 1.262148
v -0.337015 1.667467 0.996508
v -0.243986 0.806702 0.681244
v -0.968190 1.719041 1.129625
v -0.770101 1.655294 1.362116
v -0.488870 1.904312 1.400127
v -0.628838 1.953385 1.443116
v -0.378616 2.000023 1.123069
v -0.678583 2.452058 1.265733
v -0.439586 2.130821 1.287391
v -0.879601 1.988334 0.918632
v -0.934678 2.118289 1.067771
v -0.590604 2.175274 0.933017
v -0.689719 2.463033 1.250840
v -0.579205 2.233883 0.980581
v -0.690387 -0.154818 -0.282250
v -0.892845 -0.155739 -0.060461
v -0.806612 -0.100244 0.221788
v -0.517923 -0.043826 0.282248
v -0.315465 -0.042904 0.060459
v -0.401697 -0.098400 -0.221789
v -0.864323 3.123320 -0.408922
v -0.950946 3.122808 -0.672816
v -1.227849 3.159256 -0.740614
v -1.038828 3.215047 -0.703068
v -1.411992 3.158967 -0.539068
v -1.336971 3.286346 -0.662737
v -1.069879 3.252972 -0.226383
v -1.043128 3.378844 -0.296753
v -1.318410 3.117244 -0.268995
v -1.242362 3.532371 -0.507645
v -1.274070 3.519547 -0.516108
v -1.386818 3.283762 -0.418075
v 0.451442 -0.136120 -0.409000
v 0.159275 -0.057064 -0.333285
v 0.080278 -0.020266 -0.033703
v 0.293449 -0.062524 0.190164
v 0.585615 -0.141580 0.114450
v 0.664612 -0.178378 -0.185132
v 1.209965 2.294753 -0.020175
v 1.275991 2.207340 -0.316960
v 0.933304 2.434317 0.052196
v 1.127617 2.525080 0.003335
v 1.072969 2.289201 -0.543016
v 1.236510 2.350882 -0.400317
v 1.084804 2.753721 -0.295607
v 0.792410 2.413550 -0.469805
v 1.078560 2.754953 -0.299206
v 0.946875 2.522586 -0.508261
v 0.651118 2.207263 -0.156790
v 0.864512 2.482676 -0.030767
v 0.974031 2.691687 -0.254933
v 0.777894 2.444257 -0.395149
v -0.479921 -0.136660 0.186125
v -0.076572 -0.132098 0.511526
v 0.403349 -0.094760 0.325401
v 0.479921 -0.061984 -0.186125
v 0.076572 -0.066546 -0.511526
v -0.403348 -0.103884 -0.325401
v -0.027371 1.782519 -0.408606
v -0.512096 1.830645 -0.217724
v -0.535939 1.981385 -0.108714
v -0.584786 1.728809 0.289958
v -0.439848 2.353938 0.109988
v -0.448231 2.276278 0.455233
v -0.195586 1.985066 0.629369
v -0.428374 2.294693 0.473090
v 0.358055 2.105899 -0.065460
v 0.211869 2.257562 -0.167918
v -0.187787 2.614304 0.202344
v 0.277820 2.138281 0.449693
v -0.185675 2.608659 0.242622
v 0.261573 2.153513 0.456550
vt 0.4191 0.9127
vt 0.4027 0.9126
vt 0.4474 0.8891
vt 0.0510 0.4649
vt 0.0690 0.4856
vt 0.0547 0.5214
vt 0.4079 0.9209
vt 0.0000 0.5749
vt 0.0631 0.7999
vt 0.6928 0.7329
vt 0.6490 0.6742
vt 0.7032 0.4972
vt 0.3692 0.8065
vt 0.4474 0.6130
vt 0.4249 0.8267
vt 0.1002 0.5339
vt 0.8161 0.8705
vt 0.8245 0.8433
vt 0.9007 0.8904
vt 0.8870 0.8017
vt 0.8511 0.6185
vt 0.8429 0.9555
vt 0.8339 0.9543
vt 0.0348 0.4646
vt 0.0075 0.5473
vt 0.7471 0.7355
vt 0.6778 0.7599
vt 0.3841 0.8313
vt 0.3984 0.9196
vt 0.0156 0.8007
vt 0.6627 0.4957
vt 0.7487 0.7667
vt 0.6907 0.8315
vt 0.7487 0.4993
vt 0.3342 0.6119
vt 0.3677 0.7661
vt 0.3323 0.7613
vt 0.5387 0.8136
vt 0.5180 0.7750
vt 0.5373 0.7715
vt 0.3686 0.9144
vt 0.3332 0.9095
vt 0.4941 0.5848
vt 0.5365 0.4769
vt 0.5387 0.5996
vt 0.1797 0.5356
vt 0.2274 0.5986
vt 0.1786 0.5955
vt 0.8161 0.7723
vt 0.7657 0.6213
vt 0.8150 0.6181
vt 0.2840 0.7639
vt 0.2849 0.9144
vt 0.8139 0.9259
vt 0.7669 0.7732
vt 0.4936 0.7036
vt 0.2864 0.6129
vt 0.1779 0.7497
vt 0.2267 0.7505
vt 0.1804 0.9033
vt 0.3692 0.9457
vt 0.3338 0.9409
vt 0.1442 0.7499
vt 0.4524 0.8130
vt 0.4513 0.7456
vt 0.1797 0.4511
vt 0.1823 0.4521
vt 0.1500 0.5040
vt 0.5382 0.7202
vt 0.4932 0.7284
vt 0.5005 0.8621
vt 0.4980 0.8643
vt 0.8132 0.5381
vt 0.7583 0.5343
vt 0.8161 0.5265
vt 0.1449 0.5957
vt 0.1464 0.5157
vt 0.1982 0.5049
vt 0.2287 0.5332
vt 0.8032 0.4738
vt 0.7645 0.5638
vt 0.3020 1.0000
vt 0.2861 0.9712
vt 0.8275 0.5415
vt 0.8761 0.0007
vt 0.8710 0.5563
vt 0.3292 0.5408
vt 0.3684 0.5461
vt 0.3692 0.5623
vt 0.8761 0.5795
vt 0.8420 0.6185
vt 0.4513 0.5404
vt 0.4063 0.0000
vt 0.4513 0.0039
vt 0.9877 0.5056
vt 0.9559 0.5098
vt 0.9446 0.4942
vt 0.4322 0.5704
vt 0.3930 0.5770
vt 0.4105 0.5522
vt 0.3692 0.0003
vt 0.3767 0.5591
vt 1.0000 0.5332
vt 0.9813 0.5751
vt 0.8365 0.6175
vt 0.8161 0.5769
vt 0.9758 0.5764
vt 0.2860 0.0000
vt 0.3262 0.0038
vt 0.3024 0.5817
vt 0.3275 0.6119
vt 0.2929 0.5595
vt 1.0000 0.0000
vt 0.6490 0.0746
vt 0.6899 0.4957
vt 0.6490 0.4910
vt 0.6275 0.4939
vt 0.6213 0.5144
vt 0.6088 0.5105
vt 0.8865 0.0916
vt 0.8761 0.0664
vt 0.9360 0.0807
vt 0.7352 0.1115
vt 0.6899 0.0689
vt 0.5512 0.5082
vt 0.5728 0.5548
vt 0.6675 0.0434
vt 0.7063 0.0620
vt 0.7104 0.0165
vt 0.7880 0.4735
vt 0.7871 0.4738
vt 0.7962 0.4211
vt 0.7668 0.3893
vt 0.8161 0.0031
vt 0.8161 0.3997
vt 0.7460 0.4136
vt 0.7352 0.3980
vt 0.6275 0.9348
vt 0.5785 0.9339
vt 0.9446 0.4861
vt 0.6988 0.0000
vt 0.6999 0.0000
vt 0.5851 0.4689
vt 0.5924 0.4565
vt 0.9446 0.0423
vt 0.7668 0.0000
vt 0.1442 0.3045
vt 0.2213 0.0000
vt 0.2213 0.3327
vt 0.2860 0.0188
vt 0.2860 0.3698
vt 0.0194 0.0436
vt 0.0624 0.0000
vt 0.1217 0.0807
vt 0.5347 0.3146
vt 0.4927 0.4160
vt 0.4662 0.3489
vt 0.0021 0.1435
vt 0.0000 0.1135
vt 0.0784 0.1665
vt 0.0021 0.4554
vt 0.4513 0.3220
vt 0.5490 0.4100
vt 0.5512 0.4136
vt 0.2840 0.3718
vt 0.1801 0.3878
vt 0.1761 0.3855
vt 0.1442 0.4499
vt 0.0784 0.4646
vt 0.5057 0.4633
vt 0.4992 0.4634
vt 0.5818 0.4565
vt 0.5755 0.4557
vt 0.6490 0.3929
vt 0.5512 0.3772
vt 0.5526 0.3745
vt 0.6360 0.3669
vt 0.1442 0.1004
vt 0.4685 0.0000
vt 0.5512 0.0041
vt 0.5661 0.0000
vt 0.3987 0.6143
vt 0.1002 0.7958
vt 0.9007 0.6240
vt 0.7031 0.8320
vt 0.3692 0.6167
vt 0.4924 0.4634
vt 0.7652 0.9253
vt 0.2287 0.9025
vt 0.1470 0.9035
vt 0.8281 0.0000
vt 0.4208 0.6130
vt 0.9523 0.0021
vt 0.3692 0.0077
vt 0.7352 0.4923
vt 0.8949 0.4886
vt 0.9014 0.0000
vt 0.7352 0.0151
vt 0.1442 0.0113
vt 0.2082 0.4511
vt 0.6490 0.0032
vn 0.1630 0.3814 -0.9099
vn -0.7170 0.6165 0.3253
vn 0.0032 0.9721 -0.2344
vn -0.9674 0.0319 0.2511
vn 0.7013 0.1230 0.7022
vn 0.2609 -0.2616 -0.9292
vn -0.7055 -0.1931 -0.6819
vn 0.0261 0.5282 0.8487
vn 0.0296 0.5210 0.8531
vn -0.2600 0.1903 0.9467
vn 0.0236 0.5520 0.8335
vn -0.7208 0.6135 0.3226
vn 0.8594 0.3941 -0.3257
vn 0.2621 -0.2588 -0.9297
vn 0.1643 0.3564 -0.9198
vn -0.7032 -0.1817 -0.6874
vn 0.0035 0.9722 -0.2343
vn -0.9666 0.0318 0.2543
vn -0.9675 0.0318 0.2511
vn 0.7034 0.1234 0.7000
vn 0.7008 0.1237 0.7025
vn 0.8435 0.4257 -0.3275
vn 0.9659 -0.1036 -0.2371
vn -0.7683 -0.2686 0.5810
vn 0.3836 0.3432 0.8573
vn -0.7660 -0.2927 0.5724
vn 0.1657 -0.3127 0.9353
vn 0.9315 -0.0217 0.3631
vn -0.1671 0.3231 -0.9315
vn -0.9327 0.0308 -0.3594
vn -0.1651 0.3070 -0.9373
vn 0.1669 -0.3233 0.9315
vn -0.9339 0.0411 -0.3552
vn 0.9327 -0.0308 0.3593
vn 0.9344 -0.0468 0.3532
vn -0.7639 -0.3103 0.5658
vn 0.7688 0.2630 -0.5829
vn -0.7281 0.1642 0.6655
vn 0.7964 0.5812 -0.1672
vn 0.1685 -0.3317 0.9282
vn -0.7282 0.1641 0.6654
vn -0.3718 0.6275 -0.6841
vn -0.7282 0.1642 0.6654
vn 0.7639 0.3107 -0.5656
vn 0.9315 -0.0220 0.3631
vn 0.1686 -0.3321 0.9281
vn -0.1687 0.3322 -0.9280
vn 0.7639 0.3105 -0.5657
vn -0.9315 0.0219 -0.3631
vn -0.9315 0.0223 -0.3629
vn 0.7660 0.2925 -0.5725
vn -0.2267 0.1113 0.9676
vn 0.7408 0.6257 -0.2444
vn -0.4083 0.5100 0.7571
vn -0.9454 -0.1032 0.3091
vn 0.2235 -0.1049 -0.9691
vn -0.9144 0.3614 -0.1825
vn 0.9435 0.1175 -0.3099
vn -0.7208 -0.2152 -0.6589
vn 0.0120 0.5299 -0.8480
vn 0.7196 0.2223 0.6578
vn -0.9443 -0.1102 0.3102
vn 0.7208 0.2152 0.6589
vn 0.2245 -0.0977 -0.9696
vn -0.7219 -0.2083 -0.6599
vn 0.2483 -0.0101 0.9686
vn -0.5927 0.6978 -0.4022
vn 0.9392 0.3242 0.1134
vn -0.6868 0.2144 0.6945
vn -0.8120 0.5683 0.1331
vn -0.2025 0.7636 0.6131
vn 0.5162 0.3923 -0.7613
vn -0.2483 0.0101 -0.9686
vn 0.6868 -0.2144 -0.6945
vn 0.5163 0.3923 -0.7613
vn -0.9351 0.2245 -0.2742
vn 0.9351 -0.2245 0.2742
vn -0.2026 0.7637 0.6130
vn 0.9392 0.3242 0.1135
vn -0.6254 -0.0784 0.7763
vn 0.3635 -0.0314 0.9311
vn -0.2621 0.5379 -0.8012
vn -0.9719 0.2337 0.0290
vn -0.3635 0.0314 -0.9311
vn -0.9874 -0.0471 -0.1508
vn -0.7352 0.6650 0.1317
vn 0.1269 0.5213 0.8439
vn 0.6254 0.0784 -0.7763
vn 0.6967 0.7145 0.0636
vn 0.9874 0.0471 0.1508
vn 0.2622 -0.2619 -0.9288
vn -0.7041 -0.1938 -0.6832
vn -0.2629 0.1911 0.9457
vn 0.0234 0.5521 0.8335
vn -0.7238 0.6187 0.3057
vn 0.8590 0.3947 -0.3261
vn 0.1820 0.3527 -0.9179
vn 0.8418 0.4267 -0.3306
vn 0.1658 -0.3127 0.9353
vn 0.9315 -0.0216 0.3632
vn -0.1670 0.3231 -0.9315
vn -0.9328 0.0306 -0.3592
vn -0.1653 0.3069 -0.9373
vn 0.1671 -0.3232 0.9315
vn -0.9338 0.0412 -0.3553
vn 0.9343 -0.0469 0.3533
vn 0.7639 0.3108 -0.5656
vn 0.1685 -0.3319 0.9281
vn -0.1686 0.3324 -0.9279
vn -0.9316 0.0221 -0.3629
vn -0.2246 0.1119 0.9680
vn -0.9447 -0.1030 0.3114
vn 0.9431 0.1173 -0.3112
vn 0.7220 0.2220 0.6553
vn 0.2223 -0.0979 -0.9701
s off
f 13/1/1 12/2/1 14/3/1
f 13/4/2 14/5/2 9/6/2
f 20/7/3 12/2/3 13/1/3
f 16/8/4 9/6/4 2/9/4
f 7/10/5 15/11/5 5/12/5
f 8/13/6 1/14/6 10/15/6
f 10/16/7 2/9/7 9/6/7
f 18/17/8 16/18/8 17/19/8
f 15/20/9 17/19/9 16/18/9
f 3/21/10 15/20/10 16/18/10
f 18/17/11 19/22/11 20/23/11
f 20/24/12 9/6/12 18/25/12
f 8/26/13 17/27/13 7/10/13
f 10/15/14 11/28/14 8/13/14
f 10/15/15 12/2/15 11/28/15
f 9/6/16 14/5/16 10/16/16
f 20/7/17 19/29/17 12/2/17
f 2/9/18 3/30/18 16/8/18
f 16/8/19 18/25/19 9/6/19
f 4/31/20 5/12/20 15/11/20
f 7/10/21 17/27/21 15/11/21
f 11/32/22 19/33/22 17/27/22
f 6/34/23 7/10/23 5/12/23
f 25/35/24 30/36/24 27/37/24
f 45/38/25 42/39/25 41/40/25
f 27/37/26 29/41/26 28/42/26
f 30/43/27 21/44/27 35/45/27
f 43/46/28 36/47/28 37/48/28
f 31/49/29 33/50/29 32/51/29
f 34/52/30 28/42/30 33/53/30
f 23/54/31 34/55/31 31/49/31
f 35/45/32 29/56/32 30/43/32
f 24/57/33 27/37/33 34/52/33
f 38/58/34 36/47/34 35/59/34
f 35/59/35 22/60/35 38/58/35
f 28/42/36 40/61/36 39/62/36
f 22/60/37 31/63/37 38/58/37
f 42/39/38 47/64/38 39/65/38
f 49/66/39 44/67/39 50/68/39
f 29/56/40 36/69/40 40/70/40
f 45/38/25 44/71/25 42/39/25
f 44/71/41 49/72/41 47/64/41
f 48/73/42 47/74/42 50/75/42
f 40/70/43 42/39/43 39/65/43
f 43/46/44 32/76/44 48/77/44
f 43/46/45 45/78/45 41/79/45
f 40/70/46 41/40/46 42/39/46
f 49/80/42 50/75/42 47/74/42
f 32/51/47 46/81/47 48/73/47
f 48/77/48 50/68/48 43/46/48
f 45/78/39 50/68/39 44/67/39
f 39/62/49 47/82/49 46/83/49
f 39/62/50 33/53/50 28/42/50
f 31/63/51 37/48/51 38/58/51
f 65/84/52 54/85/52 63/86/52
f 57/87/53 58/88/53 60/89/53
f 65/84/54 64/90/54 66/91/54
f 65/92/55 52/93/55 53/94/55
f 59/95/56 60/96/56 58/97/56
f 68/98/57 62/99/57 61/100/57
f 57/87/58 56/101/58 58/88/58
f 61/100/59 62/99/59 59/102/59
f 60/96/60 62/103/60 67/104/60
f 66/91/54 67/105/54 65/84/54
f 68/106/54 65/84/54 67/105/54
f 67/104/60 66/107/60 60/96/60
f 57/87/61 54/108/61 55/109/61
f 65/92/62 68/98/62 61/100/62
f 64/110/53 60/89/53 66/111/53
f 57/87/63 64/110/63 63/112/63
f 58/97/64 51/113/64 59/95/64
f 59/102/65 52/93/65 61/100/65
f 75/114/66 72/115/66 73/116/66
f 84/117/67 82/118/67 88/119/67
f 76/120/68 80/121/68 75/122/68
f 85/123/69 72/115/69 77/124/69
f 86/125/70 88/119/70 85/126/70
f 75/114/66 78/127/66 77/124/66
f 86/128/71 78/127/71 87/129/71
f 83/130/72 81/131/72 84/132/72
f 79/133/73 70/134/73 82/135/73
f 79/133/74 80/136/74 76/137/74
f 80/136/75 84/132/75 81/131/75
f 85/126/76 70/138/76 71/139/76
f 73/140/77 76/120/77 75/122/77
f 82/135/73 84/132/73 79/133/73
f 78/127/71 81/141/71 87/129/71
f 83/142/78 87/129/78 81/141/78
f 84/117/67 87/143/67 83/144/67
f 77/124/69 86/128/69 85/123/69
f 80/121/79 78/145/79 75/122/79
f 85/126/76 88/119/76 82/118/76
f 76/137/74 69/146/74 79/133/74
f 98/147/80 90/148/80 101/149/80
f 101/149/81 91/150/81 106/151/81
f 99/152/82 105/153/82 104/154/82
f 98/155/83 99/156/83 97/157/83
f 96/158/82 97/159/82 95/160/82
f 95/160/84 94/161/84 96/158/84
f 98/155/85 97/157/85 96/162/85
f 99/156/86 100/163/86 102/164/86
f 108/165/87 102/166/87 101/149/87
f 101/149/80 102/166/80 100/167/80
f 100/167/80 98/147/80 101/149/80
f 95/160/88 92/168/88 93/169/88
f 97/159/82 104/154/82 95/160/82
f 106/151/81 108/165/81 101/149/81
f 99/156/86 107/170/86 105/171/86
f 105/172/89 107/173/89 104/174/89
f 108/175/89 106/176/89 103/177/89
f 108/175/89 104/174/89 107/173/89
f 95/160/88 104/154/88 103/178/88
f 98/155/85 94/179/85 89/180/85
f 91/181/90 103/177/90 106/176/90
f 8/13/91 6/182/91 1/14/91
f 10/16/92 1/183/92 2/9/92
f 3/21/93 4/184/93 15/20/93
f 18/17/94 17/19/94 19/22/94
f 20/24/95 13/4/95 9/6/95
f 8/26/96 11/32/96 17/27/96
f 10/15/97 14/3/97 12/2/97
f 11/32/98 12/185/98 19/33/98
f 6/34/23 8/26/23 7/10/23
f 25/35/24 26/186/24 30/36/24
f 27/37/26 30/36/26 29/41/26
f 30/43/99 26/187/99 21/44/99
f 43/46/100 41/79/100 36/47/100
f 31/49/101 34/55/101 33/50/101
f 34/52/102 27/37/102 28/42/102
f 23/54/103 24/188/103 34/55/103
f 35/45/104 36/69/104 29/56/104
f 24/57/105 25/35/105 27/37/105
f 38/58/34 37/48/34 36/47/34
f 35/59/106 21/189/106 22/60/106
f 28/42/36 29/41/36 40/61/36
f 22/60/37 23/190/37 31/63/37
f 42/39/41 44/71/41 47/64/41
f 48/73/42 46/81/42 47/74/42
f 43/46/107 37/48/107 32/76/107
f 40/70/108 36/69/108 41/40/108
f 32/51/109 33/50/109 46/81/109
f 45/78/39 43/46/39 50/68/39
f 39/62/110 46/83/110 33/53/110
f 31/63/51 32/76/51 37/48/51
f 65/84/111 53/191/111 54/85/111
f 65/84/54 63/86/54 64/90/54
f 65/92/112 61/100/112 52/93/112
f 68/98/57 67/192/57 62/99/57
f 57/87/113 55/109/113 56/101/113
f 60/96/60 59/95/60 62/103/60
f 57/87/114 63/112/114 54/108/114
f 64/110/53 57/87/53 60/89/53
f 58/97/115 56/193/115 51/113/115
f 59/102/65 51/194/65 52/93/65
f 75/114/66 77/124/66 72/115/66
f 85/123/69 71/195/69 72/115/69
f 86/125/70 87/143/70 88/119/70
f 86/128/71 77/124/71 78/127/71
f 79/133/73 69/146/73 70/134/73
f 80/136/75 79/133/75 84/132/75
f 85/126/76 82/118/76 70/138/76
f 73/140/77 74/196/77 76/120/77
f 84/117/67 88/119/67 87/143/67
f 80/121/68 81/197/68 78/145/68
f 76/137/74 74/198/74 69/146/74
f 98/147/80 89/199/80 90/148/80
f 101/149/81 90/148/81 91/150/81
f 98/155/83 100/163/83 99/156/83
f 95/160/84 93/169/84 94/161/84
f 108/165/87 107/200/87 102/166/87
f 95/160/88 103/178/88 92/168/88
f 97/159/82 99/152/82 104/154/82
f 99/156/86 102/164/86 107/170/86
f 108/175/89 103/177/89 104/174/89
f 98/155/85 96/162/85 94/179/85
f 91/181/90 92/201/90 103/177/90
