# Blender v2.77 (sub 0) OBJ File: 'LowPoly_Level_Kit_Rocks.blend'
# www.blender.org
g Crystals_l_03
v 0.652728 -0.070990 0.379591
v 0.387491 -0.049472 0.536413
v 0.387675 -0.074178 0.844303
v 0.653096 -0.120402 0.995372
v 0.918334 -0.141920 0.838550
v 0.918150 -0.117215 0.530660
v 1.032752 0.747220 0.911429
v 1.169221 1.628291 0.982079
v 1.169035 1.653257 0.670943
v 1.032565 0.772181 0.600357
v 0.499052 0.834284 0.918761
v 0.639454 1.742006 0.991504
v 0.904416 1.672665 1.142350
v 0.766017 0.778268 1.070644
v 0.765645 0.828194 0.448447
v 0.904044 1.722595 0.520113
v 0.639268 1.766969 0.680401
v 0.498866 0.859249 0.607637
v 1.201687 1.814429 0.996936
v 1.201501 1.839386 0.685918
v 0.971135 2.106351 0.550985
v 1.098656 2.156741 0.622023
v 0.700824 2.118757 0.708644
v 0.954481 2.571374 0.921869
v 0.830237 2.289584 0.665082
v 0.963471 2.010461 1.169301
v 1.079079 2.176183 1.132761
v 0.721613 2.211757 1.029097
v 0.952283 2.576416 0.942749
v 0.733583 2.282847 1.003992
v -0.889126 -0.146467 -0.023852
v -1.161295 -0.200536 0.118784
v -1.171197 -0.232572 0.428977
v -0.908932 -0.210540 0.596534
v -0.636763 -0.156472 0.453898
v -0.626860 -0.124435 0.143705
v -0.790429 1.237097 0.623164
v -0.778617 1.275308 0.253180
v -1.462303 1.443486 0.243892
v -1.114250 1.406190 0.062676
v -0.900216 1.450357 0.203292
v -1.192185 1.792769 0.420768
v -1.282666 1.783721 0.370846
v -1.382767 1.666993 0.201265
v -1.065202 0.838442 0.744531
v -1.418469 1.095664 0.587408
v -0.901926 1.381088 0.691386
v -1.446148 1.262792 0.545523
v -1.194938 1.784335 0.505553
v -1.251927 1.777240 0.489074
v -0.013964 -0.178907 -1.305857
v -0.276860 -0.141411 -1.142077
v -0.262896 -0.081405 -0.836221
v 0.013964 -0.058894 -0.694144
v 0.276860 -0.096389 -0.857923
v 0.262896 -0.156396 -1.163779
v 0.322936 2.870314 -1.760334
v 0.046451 2.866713 -1.906138
v 0.211953 2.969484 -1.839750
v -0.204718 2.851454 -1.414277
v -0.219040 2.773365 -1.716570
v -0.098712 2.974509 -1.831748
v 0.059324 3.259304 -1.643289
v 0.032070 3.245336 -1.652241
v -0.188696 2.881260 -1.411973
v 0.070639 2.798218 -1.257271
v 0.337005 2.935648 -1.455527
v 0.336742 2.985465 -1.496476
v 0.065954 3.256175 -1.632976
v -0.036153 2.945460 -1.344445
v 0.000000 0.000000 -0.592800
v -0.513380 0.000000 -0.296400
v -0.513380 0.000000 0.296400
v 0.000000 0.000000 0.592800
v 0.513380 0.000000 0.296400
v 0.513380 0.000000 -0.296400
v 0.612336 2.680738 0.353532
v 0.612336 2.680738 -0.353532
v -0.628141 3.181693 -0.362658
v 0.000000 2.982770 -0.718688
v 0.426313 3.032480 -0.474589
v -0.011630 3.793513 -0.112972
v -0.188442 3.792260 -0.200053
v -0.422625 3.570120 -0.491581
v 0.000000 2.032837 0.677140
v -0.608742 2.582251 0.351457
v 0.447334 2.993380 0.461036
v -0.619705 2.894821 0.241401
v -0.011632 3.794129 0.048996
v -0.122058 3.793487 0.022689
vt 0.8807 0.0047
vt 0.8498 0.1696
vt 0.8524 0.0009
vt 0.9348 0.0535
vt 0.9843 0.0740
vt 0.9712 0.0851
vt 0.8799 0.3412
vt 0.8512 0.3373
vt 0.9978 0.3344
vt 0.9706 0.4973
vt 0.9680 0.3273
vt 0.9126 0.0878
vt 0.9694 0.1579
vt 0.9109 0.1545
vt 0.7615 0.1753
vt 0.7927 0.3408
vt 0.7628 0.3480
vt 0.7913 0.1705
vt 0.7649 0.0030
vt 0.9991 0.1675
vt 0.7945 0.0000
vt 0.9095 0.3265
vt 0.9127 0.4982
vt 0.8807 0.3767
vt 0.8521 0.3728
vt 0.8842 0.5043
vt 0.8650 0.4339
vt 0.8138 0.4384
vt 0.4675 0.7279
vt 0.4660 0.7243
vt 0.5147 0.7279
vt 1.0000 0.1322
vt 0.9263 0.0000
vt 0.8070 0.5093
vt 0.8046 0.5102
vt 0.7651 0.4376
vt 0.7682 0.4511
vt 0.8821 0.1607
vt 0.8844 0.0716
vt 0.7943 0.4052
vt 0.8875 0.0579
vt 0.4788 0.6723
vt 0.8807 0.3327
vt 0.0592 0.7554
vt 0.0640 0.7743
vt 0.0344 0.7278
vt 0.0485 0.7127
vt 0.0793 0.7665
vt 0.5276 0.7445
vt 0.5628 0.6852
vt 0.5728 1.0000
vt 0.7978 0.6174
vt 0.8660 0.6816
vt 0.8035 0.8830
vt 0.6665 0.7330
vt 0.6313 0.9992
vt 0.6342 0.7040
vt 0.8958 0.5999
vt 0.9005 0.6303
vt 0.8171 0.5864
vt 0.8900 0.8856
vt 0.8346 0.5102
vt 0.8425 0.5107
vt 0.1045 0.7276
vt 0.0206 0.8354
vt 0.1045 0.8348
vt 0.0887 0.8501
vt 0.6569 0.6984
vt 0.0000 0.7670
vt 0.0151 0.8130
vt 0.5862 0.6464
vt 0.0796 0.7777
vt 0.5417 1.0000
vt 0.5321 0.7136
vt 0.8620 0.8830
vt 0.7730 0.8856
vt 0.7372 0.7508
vt 0.6811 0.7508
vt 0.6807 0.7474
vt 0.7213 0.6912
vt 0.7559 0.6656
vt 0.7234 0.6923
vt 0.6902 0.6464
vt 0.7388 0.6474
vt 0.6754 0.5462
vt 0.6445 0.0008
vt 0.6754 0.0119
vt 0.5584 0.5749
vt 0.5402 0.5970
vt 0.5276 0.5801
vt 0.7338 0.0115
vt 0.7338 0.5785
vt 0.6168 0.5505
vt 0.5910 0.5914
vt 0.5584 0.0000
vt 0.7586 0.7238
vt 0.7253 0.6975
vt 0.6631 0.5710
vt 0.6998 0.6316
vt 0.5927 0.6433
vt 0.5894 0.6464
vt 0.7365 0.5878
vt 0.6445 0.0094
vt 0.6445 0.5630
vt 0.7615 0.5660
vt 0.6665 0.7187
vt 0.6168 0.0003
vt 0.6445 0.5493
vt 0.6463 0.5552
vt 0.7615 0.0000
vt 0.3744 0.7634
vt 0.3410 0.7791
vt 0.4226 0.7114
vt 0.4660 0.7397
vt 0.3611 0.8050
vt 0.2643 0.1880
vt 0.3235 0.0749
vt 0.3613 0.6718
vt 0.0657 0.2020
vt 0.1954 0.3239
vt 0.0763 0.7064
vt 0.5276 0.1581
vt 0.4723 0.6671
vt 0.4603 0.1065
vt 0.2559 0.1705
vt 0.2643 0.2279
vt 0.1025 0.1432
vt 0.2435 0.7127
vt 0.1391 0.0000
vt 0.1546 0.0011
vt 0.4660 0.8556
vt 0.0000 0.2095
vt 0.5060 0.0936
vt 0.3530 0.6723
vt 0.2716 0.7162
vt 0.3658 0.0000
vt 0.3403 0.8095
vt 0.3056 0.6723
vt 0.2704 0.1292
vt 0.1874 0.7064
vt 0.2643 0.8922
vt 0.0212 0.7127
vt 0.8785 0.1735
vt 1.0000 0.5025
vt 0.5071 0.6736
vt 0.6586 0.9985
vt 0.7615 0.6205
vt 0.5276 0.0088
vt 0.5276 0.6628
vt 0.0191 0.1458
vn 0.9919 -0.1268 -0.0108
vn 0.1826 0.6170 -0.7655
vn 0.9883 -0.1521 -0.0128
vn 0.4953 0.0043 -0.8687
vn -0.4925 0.1549 -0.8564
vn -0.4934 0.0066 0.8698
vn 0.4944 -0.1452 0.8570
vn -0.4961 -0.0103 0.8682
vn 0.4935 -0.0068 -0.8697
vn 0.4963 -0.1342 0.8577
vn -0.4945 0.1452 -0.8570
vn -0.4971 0.1282 -0.8581
vn 0.9852 -0.1707 -0.0143
vn -0.9926 0.1209 0.0103
vn 0.9496 0.3126 0.0245
vn -0.8039 0.5533 -0.2183
vn 0.4915 -0.0157 -0.8707
vn 0.9496 0.3125 0.0245
vn -0.2270 0.3581 0.9057
vn 0.9496 0.3127 0.0245
vn -0.9851 0.1712 0.0142
vn -0.4924 0.1547 -0.8565
vn 0.4914 -0.0161 -0.8708
vn -0.4913 0.0162 0.8708
vn -0.9852 0.1709 0.0143
vn 0.4924 -0.1547 0.8565
vn 0.4925 -0.1543 0.8565
vn -0.9883 0.1518 0.0128
vn 0.2903 0.6996 -0.6529
vn -0.8892 0.3682 0.2715
vn -0.1497 0.9844 0.0929
vn -0.9830 -0.1760 -0.0527
vn 0.4694 -0.0553 0.8812
vn 0.5258 0.1231 -0.8417
vn -0.4632 -0.0174 -0.8861
vn -0.2920 0.1867 0.9380
vn -0.2882 0.1788 0.9407
vn -0.5138 -0.1953 0.8354
vn -0.2958 0.2138 0.9310
vn -0.8916 0.3659 0.2669
vn 0.8071 0.5841 0.0861
vn 0.5264 0.1260 -0.8408
vn 0.2993 0.6802 -0.6692
vn -0.4622 -0.0046 -0.8868
vn -0.1495 0.9844 0.0931
vn -0.9829 -0.1771 -0.0497
vn -0.9830 -0.1760 -0.0528
vn 0.4719 -0.0539 0.8800
vn 0.4688 -0.0547 0.8816
vn 0.7856 0.6122 0.0896
vn 0.9936 0.1044 0.0425
vn -0.8752 0.4768 -0.0817
vn 0.7458 0.5953 -0.2988
vn 0.7458 0.5954 -0.2988
vn -0.4606 0.1804 0.8691
vn 0.4606 -0.1804 -0.8691
vn 0.5382 0.1527 0.8289
vn -0.5382 -0.1527 -0.8289
vn -0.5178 0.6673 0.5353
vn 0.2393 0.6173 0.7494
vn -0.0124 0.5566 -0.8307
vn 0.2393 0.6173 0.7495
vn -0.9988 0.0277 0.0402
vn 0.9988 -0.0277 -0.0402
vn -0.4607 0.1804 0.8690
vn 0.3555 0.5835 -0.7302
vn -0.8150 0.5176 0.2603
vn -0.0051 1.0000 -0.0040
vn -0.9993 -0.0361 -0.0032
vn 0.4971 -0.0368 0.8669
vn 0.4985 -0.0366 -0.8661
vn -0.5014 -0.0361 -0.8645
vn -0.2192 0.3172 0.9227
vn -0.2164 0.3091 0.9261
vn -0.4971 -0.0368 0.8669
vn -0.2195 0.3438 0.9130
vn -0.8179 0.5152 0.2561
vn 0.8844 0.4668 0.0000
vn 0.4996 -0.0337 -0.8656
vn 0.3609 0.5615 -0.7446
vn -0.4986 -0.0238 -0.8665
vn -0.0049 1.0000 -0.0038
vn -0.9993 -0.0369 0.0000
vn -0.9993 -0.0362 -0.0032
vn 0.4997 -0.0359 0.8655
vn 0.4966 -0.0361 0.8672
vn 0.8673 0.4978 0.0013
vn 0.9993 -0.0369 0.0000
vn 0.4952 0.0044 -0.8688
vn -0.4924 0.1550 -0.8565
vn 0.4946 -0.1453 0.8569
vn -0.4960 -0.0104 0.8683
vn 0.4933 -0.0066 -0.8698
vn -0.4970 0.1281 -0.8582
vn -0.9851 0.1712 0.0143
vn 0.4916 -0.0159 -0.8707
vn -0.4914 0.0164 0.8708
vn 0.4926 -0.1544 0.8564
vn 0.5270 0.1229 -0.8410
vn -0.4614 -0.0175 -0.8870
vn -0.5164 -0.1946 0.8339
vn -0.2960 0.2139 0.9309
vn -0.8914 0.3765 0.2524
vn 0.8066 0.5848 0.0858
vn 0.3164 0.6782 -0.6633
vn 0.7846 0.6140 0.0866
vn 0.4997 -0.0369 -0.8654
vn -0.4997 -0.0365 -0.8654
vn -0.4997 -0.0359 0.8655
vn -0.2197 0.3439 0.9130
vn -0.8169 0.5242 0.2406
vn 0.8840 0.4674 -0.0003
vn 0.3778 0.5576 -0.7391
vn 0.8663 0.4994 -0.0019
s off
f 6/1/1 7/2/1 5/3/1
f 25/4/2 22/5/2 21/6/2
f 7/2/3 9/7/3 8/8/3
f 10/9/4 1/10/4 15/11/4
f 23/12/5 16/13/5 17/14/5
f 11/15/6 13/16/6 12/17/6
f 14/18/7 8/8/7 13/16/7
f 3/19/8 14/18/8 11/15/8
f 15/11/9 9/20/9 10/9/9
f 4/21/10 7/2/10 14/18/10
f 18/22/11 16/13/11 15/11/11
f 15/11/12 2/23/12 18/22/12
f 8/8/13 20/24/13 19/25/13
f 3/26/14 18/22/14 2/23/14
f 22/27/15 27/28/15 19/25/15
f 29/29/16 24/30/16 30/31/16
f 9/20/17 16/13/17 20/32/17
f 25/4/2 24/33/2 22/5/2
f 24/34/18 29/35/18 27/28/18
f 28/36/19 27/28/19 30/37/19
f 20/24/20 22/27/20 19/25/20
f 23/12/21 12/38/21 28/39/21
f 23/12/22 25/4/22 21/6/22
f 20/32/23 21/6/23 22/5/23
f 29/35/19 30/37/19 27/28/19
f 12/17/24 26/40/24 28/36/24
f 28/39/25 30/41/25 23/12/25
f 25/42/16 30/31/16 24/30/16
f 19/25/26 27/28/26 26/40/26
f 19/25/27 13/16/27 8/8/27
f 11/43/28 17/14/28 18/22/28
f 43/44/29 42/45/29 44/46/29
f 43/44/30 44/46/30 39/47/30
f 50/48/31 42/45/31 43/44/31
f 46/49/32 39/50/32 32/51/32
f 37/52/33 45/53/33 35/54/33
f 38/55/34 31/56/34 40/57/34
f 40/57/35 32/51/35 39/50/35
f 48/58/36 46/59/36 47/60/36
f 45/53/37 47/60/37 46/59/37
f 33/61/38 45/53/38 46/59/38
f 48/58/39 49/62/39 50/63/39
f 50/48/40 39/47/40 48/64/40
f 38/65/41 47/66/41 37/67/41
f 40/57/42 41/68/42 38/55/42
f 40/69/43 42/45/43 41/70/43
f 39/50/44 44/71/44 40/57/44
f 50/48/45 49/72/45 42/45/45
f 32/51/46 33/73/46 46/49/46
f 46/49/47 48/74/47 39/50/47
f 34/75/48 35/54/48 45/53/48
f 37/52/49 47/60/49 45/53/49
f 41/70/50 49/72/50 47/66/50
f 36/76/51 37/52/51 35/54/51
f 61/77/52 60/78/52 65/79/52
f 69/80/53 59/81/53 63/82/53
f 69/80/54 68/83/54 57/84/54
f 66/85/55 53/86/55 54/87/55
f 58/88/56 59/89/56 57/90/56
f 66/85/57 55/91/57 67/92/57
f 61/93/58 62/94/58 58/88/58
f 57/90/56 51/95/56 58/88/56
f 62/96/52 65/79/52 64/97/52
f 63/82/59 64/97/59 69/80/59
f 70/98/60 67/92/60 69/99/60
f 64/100/61 63/101/61 59/89/61
f 68/102/62 69/99/62 67/92/62
f 59/89/61 62/94/61 64/100/61
f 61/93/63 53/103/63 60/104/63
f 57/105/64 68/102/64 67/92/64
f 64/97/59 70/106/59 69/80/59
f 61/93/58 51/95/58 52/107/58
f 66/85/55 70/98/55 60/108/55
f 65/109/65 60/108/65 70/98/65
f 57/105/64 55/91/64 56/110/64
f 83/111/66 82/112/66 84/113/66
f 83/111/67 84/113/67 79/114/67
f 90/115/68 82/112/68 83/111/68
f 86/116/69 79/117/69 72/118/69
f 77/119/70 85/120/70 75/121/70
f 78/122/71 71/123/71 80/124/71
f 80/124/72 72/118/72 79/117/72
f 88/125/73 86/126/73 87/127/73
f 85/120/74 87/127/74 86/126/74
f 73/128/75 85/120/75 86/126/75
f 88/125/76 89/129/76 90/130/76
f 90/115/77 79/114/77 88/131/77
f 78/132/78 87/127/78 77/119/78
f 80/124/79 81/133/79 78/122/79
f 80/134/80 82/112/80 81/135/80
f 79/117/81 84/136/81 80/124/81
f 90/115/82 89/137/82 82/112/82
f 72/118/83 73/138/83 86/116/83
f 86/116/84 88/139/84 79/117/84
f 74/140/85 75/121/85 85/120/85
f 77/119/86 87/127/86 85/120/86
f 81/135/87 89/137/87 87/141/87
f 76/142/88 77/119/88 75/121/88
f 6/1/1 10/143/1 7/2/1
f 7/2/3 10/143/3 9/7/3
f 10/9/89 6/144/89 1/10/89
f 23/12/90 21/6/90 16/13/90
f 11/15/6 14/18/6 13/16/6
f 14/18/91 7/2/91 8/8/91
f 3/19/92 4/21/92 14/18/92
f 15/11/93 16/13/93 9/20/93
f 4/21/10 5/3/10 7/2/10
f 18/22/11 17/14/11 16/13/11
f 15/11/94 1/10/94 2/23/94
f 8/8/13 9/7/13 20/24/13
f 3/26/14 11/43/14 18/22/14
f 22/27/18 24/34/18 27/28/18
f 28/36/19 26/40/19 27/28/19
f 23/12/95 17/14/95 12/38/95
f 20/32/96 16/13/96 21/6/96
f 12/17/97 13/16/97 26/40/97
f 25/42/16 23/145/16 30/31/16
f 19/25/98 26/40/98 13/16/98
f 11/43/28 12/38/28 17/14/28
f 38/55/99 36/146/99 31/56/99
f 40/57/100 31/56/100 32/51/100
f 33/61/101 34/75/101 45/53/101
f 48/58/102 47/60/102 49/62/102
f 50/48/103 43/44/103 39/47/103
f 38/65/104 41/70/104 47/66/104
f 40/69/105 44/46/105 42/45/105
f 41/70/106 42/45/106 49/72/106
f 36/76/51 38/147/51 37/52/51
f 69/80/54 57/84/54 59/81/54
f 66/85/55 60/108/55 53/86/55
f 66/85/57 54/87/57 55/91/57
f 57/90/56 56/148/56 51/95/56
f 62/96/52 61/77/52 65/79/52
f 70/98/60 66/85/60 67/92/60
f 59/89/61 58/88/61 62/94/61
f 61/93/63 52/107/63 53/103/63
f 64/97/59 65/79/59 70/106/59
f 61/93/58 58/88/58 51/95/58
f 57/105/64 67/92/64 55/91/64
f 78/122/107 76/149/107 71/123/107
f 80/124/108 71/123/108 72/118/108
f 73/128/109 74/140/109 85/120/109
f 88/125/110 87/127/110 89/129/110
f 90/115/111 83/111/111 79/114/111
f 78/132/112 81/150/112 87/127/112
f 80/134/113 84/113/113 82/112/113
f 81/135/114 82/112/114 89/137/114
f 76/142/88 78/132/88 77/119/88
