# Blender v2.77 (sub 0) OBJ File: 'LowPoly_Level_Kit_Rocks.blend'
# www.blender.org
g Crystal_m_07
v 0.000000 0.000000 -0.218400
v -0.189140 0.000000 -0.109200
v -0.189140 0.000000 0.109200
v 0.000000 0.000000 0.218400
v 0.189140 0.000000 0.109200
v 0.189140 0.000000 -0.109200
v 0.225597 0.987640 0.130249
v 0.225597 0.987640 -0.130249
v -0.231421 1.172202 -0.133611
v 0.000000 1.098915 -0.264780
v 0.157063 1.117229 -0.174848
v -0.004285 1.397610 -0.041621
v -0.069426 1.397148 -0.073704
v -0.155704 1.315307 -0.181109
v 0.000000 0.748940 0.249473
v -0.224273 0.951356 0.129484
v 0.164807 1.102824 0.169855
v -0.228312 1.066513 0.088937
v -0.004285 1.397837 0.018051
v -0.044969 1.397601 0.008359
vt 0.8670 0.1231
vt 0.8797 0.1734
vt 0.8055 0.0468
vt 0.8484 0.0000
vt 0.9197 0.1521
vt 0.3629 0.2654
vt 0.4505 0.1024
vt 0.4675 0.9418
vt 0.0907 0.2878
vt 0.2688 0.4588
vt 0.1054 0.9951
vt 0.7258 0.2394
vt 0.6201 0.9418
vt 0.6363 0.1549
vt 0.3513 0.2383
vt 0.3629 0.3196
vt 0.1413 0.2054
vt 0.3345 1.0000
vt 0.1909 0.0000
vt 0.2122 0.0009
vt 1.0000 0.0339
vt 0.7859 0.3200
vt 1.0000 0.3213
vt 0.9641 0.3577
vt 0.6999 0.1452
vt 0.7258 0.1430
vt 0.7653 0.2661
vt 0.5129 0.0000
vt 0.9206 0.1820
vt 0.3913 0.9459
vt 0.3746 0.1822
vt 0.2579 0.9951
vt 0.0294 1.0000
vt 0.6964 0.9459
vt 0.0000 0.2937
vn 0.3555 0.5835 -0.7302
vn -0.8150 0.5176 0.2603
vn -0.0051 1.0000 -0.0040
vn -0.9993 -0.0361 -0.0032
vn 0.4971 -0.0368 0.8669
vn 0.4985 -0.0366 -0.8661
vn -0.5014 -0.0361 -0.8645
vn -0.2192 0.3172 0.9227
vn -0.2164 0.3091 0.9261
vn -0.4971 -0.0368 0.8669
vn -0.2195 0.3438 0.9130
vn -0.8179 0.5152 0.2561
vn 0.8844 0.4668 0.0000
vn 0.4996 -0.0337 -0.8656
vn 0.3609 0.5615 -0.7446
vn -0.4986 -0.0238 -0.8665
vn -0.0049 1.0000 -0.0038
vn -0.9993 -0.0369 0.0000
vn -0.9993 -0.0362 -0.0032
vn 0.4997 -0.0359 0.8655
vn 0.4966 -0.0361 0.8672
vn 0.8673 0.4978 0.0013
vn 0.9993 -0.0369 0.0000
vn 0.4997 -0.0369 -0.8654
vn -0.4997 -0.0365 -0.8654
vn -0.4997 -0.0359 0.8655
vn -0.2197 0.3439 0.9130
vn -0.8169 0.5242 0.2406
vn 0.8840 0.4674 -0.0003
vn 0.3778 0.5576 -0.7391
vn 0.8663 0.4994 -0.0019
s off
f 13/1/1 12/2/1 14/3/1
f 13/1/2 14/3/2 9/4/2
f 20/5/3 12/2/3 13/1/3
f 16/6/4 9/7/4 2/8/4
f 7/9/5 15/10/5 5/11/5
f 8/12/6 1/13/6 10/14/6
f 10/14/7 2/8/7 9/7/7
f 18/15/8 16/16/8 17/17/8
f 15/10/9 17/17/9 16/16/9
f 3/18/10 15/10/10 16/16/10
f 18/15/11 19/19/11 20/20/11
f 20/5/12 9/4/12 18/21/12
f 8/22/13 17/23/13 7/24/13
f 10/14/14 11/25/14 8/12/14
f 10/26/15 12/2/15 11/27/15
f 9/7/16 14/28/16 10/14/16
f 20/5/17 19/29/17 12/2/17
f 2/8/18 3/30/18 16/6/18
f 16/6/19 18/31/19 9/7/19
f 4/32/20 5/11/20 15/10/20
f 7/9/21 17/17/21 15/10/21
f 11/27/22 19/29/22 17/23/22
f 6/33/23 7/9/23 5/11/23
f 8/12/24 6/34/24 1/13/24
f 10/14/25 1/13/25 2/8/25
f 3/18/26 4/32/26 15/10/26
f 18/15/27 17/17/27 19/19/27
f 20/5/28 13/1/28 9/4/28
f 8/22/29 11/27/29 17/23/29
f 10/26/30 14/3/30 12/2/30
f 11/27/31 12/2/31 19/29/31
f 6/33/23 8/35/23 7/9/23
