# Blender v2.77 (sub 0) OBJ File: 'LowPoly_Level_Kit_Rocks.blend'
# www.blender.org
g Crystal_s_02
v -0.000000 0.000000 -0.128801
v -0.122497 0.000000 -0.039802
v -0.075707 0.000000 0.104202
v 0.075707 0.000000 0.104202
v 0.122497 0.000000 -0.039802
v 0.116409 1.022154 -0.037824
v 0.000000 1.059583 -0.122400
v 0.053756 1.088770 -0.083344
v -0.116409 1.022227 -0.037824
v -0.006623 1.164328 -0.014360
v -0.040044 1.093702 -0.093306
v -0.071945 1.014770 0.099024
v 0.068682 1.090168 0.099024
v -0.010309 1.171624 0.016511
v -0.089501 1.086430 0.044992
vt 0.1388 0.7351
vt 0.3209 0.0220
vt 0.3209 0.8099
vt 0.5186 0.8735
vt 0.3466 0.0000
vt 0.5536 0.0028
vt 0.7835 0.9990
vt 0.5851 0.1277
vt 0.7835 0.0701
vt 0.9796 0.9041
vt 0.8884 0.9284
vt 0.7835 0.8709
vt 0.4407 1.0000
vt 0.4120 0.9934
vt 0.5536 0.9288
vt 1.0000 0.0014
vt 0.3876 0.9327
vt 0.3209 0.9027
vt 1.0000 0.9334
vt 0.8986 0.9930
vt 0.0924 0.8074
vt 0.6694 0.0061
vt 0.7111 0.0000
vt 0.0194 0.7927
vt 0.5536 0.0705
vt 0.0000 0.0550
vt 0.1257 0.0000
vt 0.5765 0.9987
vt 0.7930 0.0000
vt 0.1825 0.8926
vn -0.0025 0.0047 1.0000
vn -0.5878 0.0051 -0.8090
vn 0.9454 0.0076 0.3259
vn 0.5878 0.0000 -0.8090
vn -0.7498 0.6182 -0.2356
vn 0.5888 0.0049 -0.8083
vn -0.5878 -0.0000 -0.8090
vn 0.1108 0.7169 -0.6883
vn -0.2850 0.5316 0.7976
vn 0.7491 0.6592 -0.0664
vn -0.9511 0.0000 0.3090
vn -0.9510 0.0051 0.3090
vn 0.0000 0.0051 1.0000
vn -0.5888 0.0049 -0.8083
vn 0.9510 0.0051 0.3090
vn 0.5878 0.0051 -0.8090
vn -0.9510 0.0051 0.3093
s off
f 12/1/1 4/2/1 13/3/1
f 9/4/2 1/5/2 2/6/2
f 4/7/3 6/8/3 13/9/3
f 7/10/4 8/11/4 6/12/4
f 14/13/5 10/14/5 15/15/5
f 6/12/6 1/16/6 7/10/6
f 9/4/7 11/17/7 7/18/7
f 8/11/8 11/19/8 10/20/8
f 13/3/9 15/21/9 12/1/9
f 10/22/10 14/23/10 13/9/10
f 11/17/5 15/15/5 10/14/5
f 12/1/11 15/21/11 9/24/11
f 13/9/10 8/25/10 10/22/10
f 12/1/12 2/26/12 3/27/12
f 12/1/13 3/27/13 4/2/13
f 9/4/14 7/18/14 1/5/14
f 4/7/15 5/28/15 6/8/15
f 6/12/16 5/29/16 1/16/16
f 8/11/8 7/10/8 11/19/8
f 13/3/9 14/30/9 15/21/9
f 11/17/5 9/4/5 15/15/5
f 13/9/10 6/8/10 8/25/10
f 12/1/17 9/24/17 2/26/17
