# Blender v2.77 (sub 0) OBJ File: 'LowPoly_Level_Kit_Rocks.blend'
# www.blender.org
g Crystal_m_04
v -0.000350 0.000064 -0.216216
v -0.187598 0.000329 -0.108108
v -0.187598 0.000329 0.108108
v -0.000350 0.000064 0.216216
v 0.186899 -0.000201 0.108108
v 0.186899 -0.000201 -0.108108
v 0.187874 0.629398 0.109225
v 0.204888 1.255227 0.109247
v 0.204888 1.255227 -0.109247
v 0.187874 0.629398 -0.109225
v -0.190440 0.643123 0.109243
v -0.173047 1.287862 0.109236
v 0.015910 1.271543 0.218483
v -0.001267 0.636260 0.218469
v -0.001267 0.636260 -0.218469
v 0.015910 1.271543 -0.218483
v -0.173047 1.287862 -0.109236
v -0.190440 0.643123 -0.109243
v 0.211007 1.387758 0.109206
v 0.211007 1.387758 -0.109206
v 0.028633 1.544805 -0.218400
v 0.112244 1.594848 -0.171601
v -0.161346 1.538363 -0.109200
v -0.026457 1.885824 0.014344
v -0.086125 1.665581 -0.149106
v 0.027111 1.512066 0.218400
v 0.093140 1.634926 0.183673
v -0.157448 1.622352 0.109200
v -0.028581 1.890280 0.028629
v -0.155180 1.671222 0.087708
vt 0.2612 0.9947
vt 0.0793 0.6761
vt 0.2408 0.6707
vt 0.5806 0.1424
vt 0.7251 0.1857
vt 0.6600 0.2188
vt 0.0582 0.3559
vt 0.2198 0.3505
vt 0.7986 0.5862
vt 0.6585 0.8844
vt 0.6495 0.6103
vt 0.5306 0.1831
vt 0.6541 0.3365
vt 0.5252 0.2909
vt 0.2612 0.3335
vt 0.4264 0.6608
vt 0.2652 0.6690
vt 0.4225 0.3302
vt 0.5181 0.6694
vt 0.2704 0.0000
vt 0.8032 0.3164
vt 0.4299 0.0001
vt 0.5141 0.3437
vt 0.5206 0.5688
vt 0.5309 0.8462
vt 0.0538 0.2883
vt 0.2154 0.2829
vt 0.8406 0.9960
vt 0.9865 0.6608
vt 1.0000 0.9943
vt 0.0000 0.1724
vt 0.2612 0.1410
vt 0.8677 0.0000
vt 0.8785 0.0020
vt 0.8209 0.1255
vt 0.8060 0.2594
vt 0.6367 0.0000
vt 0.1267 0.0029
vt 0.1371 0.0000
vt 0.2716 0.8433
vt 0.4626 0.8556
vt 0.2657 0.8704
vt 0.9686 0.1934
vt 0.8123 0.3263
vt 0.8060 0.1512
vt 0.3289 0.9945
vt 0.4310 0.7861
vt 1.0000 0.1204
vt 0.5206 0.7385
vt 0.8254 0.6625
vt 0.9734 0.3245
vt 0.1013 1.0000
vt 0.8060 0.8577
vt 0.5206 0.0169
vn 1.0000 -0.0015 -0.0000
vn 0.1120 0.5725 -0.8123
vn 0.9996 -0.0272 0.0000
vn 0.5001 -0.0023 -0.8660
vn -0.4989 0.0234 -0.8664
vn -0.4996 0.0135 0.8661
vn 0.4995 -0.0135 0.8662
vn -0.5001 -0.0037 0.8659
vn 0.4997 -0.0136 -0.8661
vn 0.5001 -0.0023 0.8660
vn -0.4996 0.0135 -0.8661
vn -0.5001 -0.0037 -0.8659
vn 0.9989 -0.0461 0.0000
vn -1.0000 -0.0044 0.0000
vn 0.9026 0.4304 -0.0000
vn -0.8645 0.4289 -0.2623
vn 0.4988 -0.0228 -0.8664
vn 0.9027 0.4303 0.0000
vn -0.2797 0.3974 0.8740
vn 0.9026 0.4305 0.0000
vn -0.9989 0.0466 -0.0001
vn -0.4988 0.0231 -0.8664
vn 0.4988 -0.0232 -0.8664
vn -0.4987 0.0234 0.8665
vn -0.9989 0.0464 0.0000
vn 0.4988 -0.0232 0.8664
vn 0.4988 -0.0228 0.8664
vn -0.9996 0.0270 0.0000
vn 0.5000 -0.0023 -0.8660
vn -0.4988 0.0235 -0.8664
vn 0.4997 -0.0136 0.8661
vn -0.5000 -0.0038 0.8660
vn 0.4995 -0.0135 -0.8662
vn 0.5000 -0.0023 0.8660
vn -0.5000 -0.0038 -0.8660
vn -0.9989 0.0467 0.0000
vn 0.4989 -0.0230 -0.8663
vn -0.4989 0.0235 0.8664
vn 0.4989 -0.0229 0.8663
s off
f 5/1/1 10/2/1 7/3/1
f 25/4/2 22/5/2 21/6/2
f 7/3/3 9/7/3 8/8/3
f 10/9/4 1/10/4 15/11/4
f 23/12/5 16/13/5 17/14/5
f 11/15/6 13/16/6 12/17/6
f 14/18/7 8/19/7 13/16/7
f 3/20/8 14/18/8 11/15/8
f 15/11/9 9/21/9 10/9/9
f 4/22/10 7/23/10 14/18/10
f 18/24/11 16/13/11 15/11/11
f 15/11/12 2/25/12 18/24/12
f 8/8/13 20/26/13 19/27/13
f 3/28/14 18/29/14 2/30/14
f 22/31/15 27/32/15 19/27/15
f 29/33/16 24/34/16 30/35/16
f 9/21/17 16/13/17 20/36/17
f 25/4/2 24/37/2 22/5/2
f 24/38/18 29/39/18 27/32/18
f 28/40/19 27/41/19 30/42/19
f 20/26/20 22/31/20 19/27/20
f 23/43/21 12/44/21 28/45/21
f 23/12/22 25/4/22 21/6/22
f 20/36/23 21/6/23 22/5/23
f 29/46/19 30/42/19 27/41/19
f 12/17/24 26/47/24 28/40/24
f 28/45/25 30/35/25 23/43/25
f 25/48/16 30/35/16 24/34/16
f 19/49/26 27/41/26 26/47/26
f 19/49/27 13/16/27 8/19/27
f 11/50/28 17/51/28 18/29/28
f 5/1/1 6/52/1 10/2/1
f 7/3/3 10/2/3 9/7/3
f 10/9/29 6/53/29 1/10/29
f 23/12/30 21/6/30 16/13/30
f 11/15/6 14/18/6 13/16/6
f 14/18/31 7/23/31 8/19/31
f 3/20/32 4/22/32 14/18/32
f 15/11/33 16/13/33 9/21/33
f 4/22/34 5/54/34 7/23/34
f 18/24/11 17/14/11 16/13/11
f 15/11/35 1/10/35 2/25/35
f 8/8/13 9/7/13 20/26/13
f 3/28/14 11/50/14 18/29/14
f 22/31/18 24/38/18 27/32/18
f 28/40/19 26/47/19 27/41/19
f 23/43/36 17/51/36 12/44/36
f 20/36/37 16/13/37 21/6/37
f 12/17/38 13/16/38 26/47/38
f 25/48/16 23/43/16 30/35/16
f 19/49/39 26/47/39 13/16/39
f 11/50/28 12/44/28 17/51/28
