# Blender v2.77 (sub 0) OBJ File: 'LowPoly_Level_Kit_Rocks.blend'
# www.blender.org
g Crystal_m_10
v 0.000000 0.000000 -0.218400
v -0.189140 0.000000 -0.109200
v -0.189140 0.000000 0.109200
v 0.000000 0.000000 0.218400
v 0.189140 0.000000 0.109200
v 0.189140 0.000000 -0.109200
v 0.189140 2.159867 -0.109200
v 0.000000 2.173361 -0.218400
v 0.111852 2.237198 -0.153822
v -0.189140 2.092894 0.109200
v -0.189140 2.079990 -0.109200
v -0.105677 2.235334 -0.157387
v -0.006009 2.407537 0.015229
v -0.024542 2.398787 0.006352
v -0.178581 2.113267 0.115296
v 0.000000 2.038841 0.218400
v 0.189140 2.163668 0.109200
v 0.189140 2.203414 0.087799
v -0.001603 2.404084 0.022092
v -0.075073 2.150289 0.175057
vt 0.5000 0.1361
vt 0.3750 0.1307
vt 0.3610 0.1222
vt 0.7389 0.9986
vt 0.7272 0.9292
vt 0.7472 1.0000
vt 0.5122 0.9152
vt 0.6250 0.8971
vt 0.1250 0.1531
vt 0.3750 1.0000
vt 0.1250 1.0000
vt 0.8750 0.9027
vt 0.0000 1.0000
vt 0.0000 0.1013
vt 1.0000 0.8639
vt 0.9448 0.9285
vt 0.8750 0.0000
vt 0.4448 0.0715
vt 0.2707 0.0036
vt 0.2472 0.0000
vt 0.2389 0.0014
vt 0.2242 0.1069
vt 0.7707 0.9964
vt 0.0122 0.0848
vt 0.5000 0.8987
vt 1.0000 0.0000
vt 0.5000 0.0000
vt 0.6250 0.0000
vt 0.5000 1.0000
vn -0.8841 0.4665 -0.0276
vn 0.7404 0.6563 -0.1451
vn -0.5000 0.0000 0.8660
vn 0.5000 0.0000 -0.8660
vn 0.5000 0.0000 0.8660
vn -0.5000 0.0000 -0.8660
vn -0.5572 0.5410 0.6299
vn 0.1918 0.4653 0.8641
vn 0.0056 0.7063 -0.7078
vn 0.0055 0.7063 -0.7079
vn -1.0000 0.0000 0.0000
vn 1.0000 0.0000 0.0000
vn -0.5572 0.5410 0.6300
s off
f 11/1/1 10/2/1 15/3/1
f 19/4/2 9/5/2 13/6/2
f 19/4/2 18/7/2 7/8/2
f 16/9/3 3/10/3 4/11/3
f 8/12/4 9/5/4 7/8/4
f 16/9/5 5/13/5 17/14/5
f 11/15/6 12/16/6 8/12/6
f 7/8/4 1/17/4 8/12/4
f 12/18/1 15/3/1 14/19/1
f 13/20/7 14/19/7 19/21/7
f 20/22/8 17/14/8 19/21/8
f 14/23/9 13/6/9 9/5/9
f 18/24/8 19/21/8 17/14/8
f 9/5/10 12/16/10 14/23/10
f 11/1/11 3/10/11 10/2/11
f 7/8/12 18/7/12 17/25/12
f 14/19/13 20/22/13 19/21/13
f 11/15/6 1/17/6 2/26/6
f 16/9/3 20/22/3 10/2/3
f 15/3/3 10/2/3 20/22/3
f 7/8/12 5/27/12 6/28/12
f 19/4/2 7/8/2 9/5/2
f 16/9/3 10/2/3 3/10/3
f 16/9/5 4/11/5 5/13/5
f 7/8/4 6/28/4 1/17/4
f 12/18/1 11/1/1 15/3/1
f 20/22/8 16/9/8 17/14/8
f 9/5/10 8/12/10 12/16/10
f 11/1/11 2/29/11 3/10/11
f 14/19/13 15/3/13 20/22/13
f 11/15/6 8/12/6 1/17/6
f 7/8/12 17/25/12 5/27/12
