# Blender v2.77 (sub 0) OBJ File: 'LowPoly_Level_Kit_Rocks.blend'
# www.blender.org
g Crystals_s_01
v -0.400746 -0.006477 0.201191
v -0.393576 0.015259 0.195750
v -0.282063 -0.006477 0.178912
v -0.286762 0.015259 0.175699
v -0.304342 -0.006477 0.060230
v -0.306813 0.015259 0.068885
v -0.045807 -0.007428 0.574014
v -0.045864 0.008068 0.573889
v -0.059586 -0.008174 0.486154
v -0.059643 0.007322 0.486029
v 0.062736 -0.007302 0.525762
v 0.062679 0.008194 0.525636
v 0.014534 -0.008088 0.453205
v 0.014477 0.007408 0.453079
v 0.141371 -0.006469 -0.366569
v 0.221191 -0.013467 -0.337236
v 0.230114 0.045279 -0.340986
v 0.239715 -0.014217 -0.253948
v 0.063427 -0.000305 0.060912
v 0.085069 -0.000305 -0.040078
v -0.004291 -0.000305 -0.091867
v -0.081159 -0.000305 -0.022886
v -0.039307 -0.000305 0.071537
v 0.027798 0.037549 0.021209
v 0.036299 0.037549 -0.018461
v 0.001197 0.037549 -0.038805
v -0.028998 0.037549 -0.011708
v -0.012558 0.037549 0.025383
v 0.280111 0.008925 0.349771
v 0.306436 0.008925 0.311415
v 0.278092 0.008925 0.274525
v 0.234250 0.008925 0.290082
v 0.235497 0.008925 0.336587
v 0.266877 0.039185 0.312476
vt 0.7106 0.0000
vt 0.7106 0.3103
vt 0.4039 0.3103
vt 0.7666 0.2880
vt 0.8219 0.0000
vt 0.8219 0.3071
vt 0.7666 0.2871
vt 0.7106 0.0000
vt 0.7666 0.0097
vt 0.9444 0.7104
vt 1.0000 0.3103
vt 1.0000 0.7325
vt 0.5992 0.7054
vt 0.4039 0.5078
vt 0.5992 0.3103
vt 0.7526 0.6155
vt 0.7031 0.7342
vt 0.7134 0.6167
vt 0.7423 0.7330
vt 0.7134 0.9346
vt 0.7920 0.6155
vt 0.7526 0.8322
vt 0.7526 0.6155
vt 0.8219 0.0004
vt 0.8611 0.3033
vt 0.8219 0.3037
vt 0.8174 0.3698
vt 0.5992 0.6155
vt 0.5992 0.3103
vt 0.2182 0.7348
vt 0.0000 0.4889
vt 0.2182 0.4295
vt 0.9444 0.6946
vt 0.8174 0.5102
vt 0.9444 0.3103
vt 0.3657 0.6456
vt 0.2182 0.6680
vt 0.3378 0.4295
vt 0.3657 0.7849
vt 0.7031 1.0000
vt 0.5992 0.8079
vt 0.7031 0.6155
vt 0.1543 0.4295
vt 0.2942 0.2671
vt 0.4039 0.3475
vt 0.2942 0.1628
vt 0.1543 0.0000
vt 0.4039 0.0820
vt 0.1355 0.2150
vt 0.0000 0.2147
vt 0.1961 0.1306
vt 0.1961 0.2993
vt 0.4734 0.7054
vt 0.5044 0.8019
vt 0.4039 0.8021
vt 0.4734 0.8988
vt 0.5858 0.8619
vt 0.5858 0.7423
vt 0.7666 0.0117
vt 0.7106 0.3082
vt 0.9444 0.3305
vt 0.7526 0.9334
vt 0.7920 0.8321
vt 0.8611 0.0000
vt 0.8174 0.5782
vt 0.0000 0.6973
vn 0.0000 -1.0000 0.0000
vn 0.9664 0.1821 -0.1814
vn 0.1814 0.1821 0.9664
vn -0.8184 0.1298 -0.5597
vn 0.0000 1.0000 0.0000
vn -0.9879 -0.0024 0.1549
vn -0.4062 -0.0089 -0.9137
vn 0.8330 -0.0014 -0.5533
vn 0.4062 0.0089 0.9137
vn 0.0046 -1.0000 0.0078
vn -0.0046 1.0000 -0.0078
vn -0.5377 0.6673 0.5154
vn 0.9633 -0.1601 -0.2157
vn 0.3343 -0.1105 -0.9360
vn -0.0915 -0.9957 0.0114
vn 0.0678 0.7518 0.6559
vn -0.4404 0.7518 -0.4908
vn 0.6448 0.7518 0.1382
vn -0.6028 0.7518 0.2672
vn 0.3307 0.7518 -0.5705
vn -0.1947 0.7268 0.6587
vn -0.2297 0.7268 -0.6474
vn 0.5663 0.7268 0.3887
vn -0.6867 0.7268 0.0184
vn 0.5447 0.7268 -0.4185
s off
f 5/1/1 3/2/1 1/3/1
f 6/4/2 3/5/2 5/6/2
f 2/7/3 3/8/3 4/9/3
f 2/10/4 5/11/4 1/12/4
f 2/13/5 4/14/5 6/15/5
f 8/16/6 9/17/6 7/18/6
f 10/19/7 13/20/7 9/17/7
f 14/21/8 11/22/8 13/23/8
f 8/24/9 11/25/9 12/26/9
f 9/27/10 11/28/10 7/29/10
f 12/30/11 10/31/11 8/32/11
f 18/33/12 17/34/12 15/35/12
f 16/36/13 17/37/13 18/38/13
f 16/36/14 15/39/14 17/37/14
f 15/40/15 16/41/15 18/42/15
f 19/43/16 28/44/16 23/45/16
f 27/46/17 21/47/17 22/48/17
f 25/49/18 19/43/18 20/50/18
f 28/44/19 22/48/19 23/45/19
f 26/51/20 20/50/20 21/47/20
f 24/52/5 27/46/5 28/44/5
f 29/53/21 34/54/21 33/55/21
f 32/56/22 34/54/22 31/57/22
f 30/58/23 34/54/23 29/53/23
f 33/55/24 34/54/24 32/56/24
f 31/57/25 34/54/25 30/58/25
f 26/51/5 24/52/5 25/49/5
f 6/4/2 4/59/2 3/5/2
f 2/7/3 1/60/3 3/8/3
f 2/10/4 6/61/4 5/11/4
f 8/16/6 10/19/6 9/17/6
f 10/19/7 14/62/7 13/20/7
f 14/21/8 12/63/8 11/22/8
f 8/24/9 7/64/9 11/25/9
f 9/27/10 13/65/10 11/28/10
f 12/30/11 14/66/11 10/31/11
f 19/43/16 24/52/16 28/44/16
f 27/46/17 26/51/17 21/47/17
f 25/49/18 24/52/18 19/43/18
f 28/44/19 27/46/19 22/48/19
f 26/51/20 25/49/20 20/50/20
f 26/51/5 27/46/5 24/52/5
