# Blender v2.77 (sub 0) OBJ File: ''
# www.blender.org
g Crystal_s_04_Collider
v -0.065560 -0.000000 0.090235
v 0.065560 0.822768 0.090235
v -0.067080 0.900589 0.085557
v -0.106078 0.793709 -0.034467
v 0.000000 0.000000 -0.111537
v -0.106078 0.000000 -0.034467
v 0.011717 1.028573 -0.006185
v 0.000000 0.905975 -0.111537
v 0.106035 0.945744 -0.034525
v 0.106078 0.000000 -0.034467
v 0.065560 -0.000000 0.090235
vn -0.0322 0.0051 0.9995
vn -0.5878 0.0000 -0.8090
vn -0.7847 0.4455 -0.4311
vn -0.8815 0.4566 -0.1202
vn -0.9511 -0.0000 0.3090
vn 0.6018 0.4625 0.6511
vn 0.9512 0.0001 0.3086
vn 0.5878 0.0000 -0.8090
vn 0.0000 -0.0000 1.0000
vn 0.3083 0.6029 -0.7359
vn 0.2414 0.4628 0.8530
vn 0.9511 -0.0000 0.3090
vn 0.5877 -0.0000 -0.8091
s off
f 1//1 2//1 3//1
f 4//2 5//2 6//2
f 4//3 7//3 8//3
f 3//4 7//4 4//4
f 4//5 1//5 3//5
f 9//6 7//6 2//6
f 2//7 10//7 9//7
f 8//8 10//8 5//8
f 1//9 11//9 2//9
f 4//2 8//2 5//2
f 9//10 8//10 7//10
f 4//5 6//5 1//5
f 3//11 2//11 7//11
f 2//12 11//12 10//12
f 8//13 9//13 10//13
