# Blender v2.77 (sub 0) OBJ File: ''
# www.blender.org
g Crystal_m_09_Collider
v 0.189140 1.763063 0.109200
v 0.000000 -0.000000 0.218400
v 0.189140 -0.000000 0.109200
v 0.189140 1.726435 -0.109200
v -0.022745 2.069663 -0.013204
v -0.189140 1.611961 0.109200
v -0.001536 1.872227 0.218414
v -0.189362 1.840531 -0.108838
v 0.000000 1.755094 -0.218400
v -0.189140 0.000000 -0.109200
v -0.189140 -0.000000 0.109200
v 0.000000 0.000000 -0.218400
v 0.189140 0.000000 -0.109200
vn 0.5000 -0.0000 0.8660
vn 0.8359 0.5414 -0.0908
vn -0.5027 -0.0004 0.8645
vn -0.8094 0.4049 0.4253
vn 0.6258 0.6209 0.4720
vn -0.5008 0.0001 -0.8656
vn 0.4884 0.5013 -0.7143
vn -1.0000 0.0000 0.0000
vn 1.0000 0.0000 0.0000
vn -0.2412 0.5179 -0.8207
vn 0.5000 0.0000 -0.8660
vn 0.4972 0.0004 0.8676
vn -0.5000 -0.0000 0.8660
vn -0.8075 0.4103 0.4237
vn -0.5000 0.0000 -0.8660
vn -1.0000 -0.0001 0.0009
s off
f 1//1 2//1 3//1
f 4//2 5//2 1//2
f 6//3 2//3 7//3
f 7//4 8//4 6//4
f 1//5 5//5 7//5
f 9//6 10//6 8//6
f 9//7 5//7 4//7
f 6//8 10//8 11//8
f 3//9 4//9 1//9
f 8//10 5//10 9//10
f 4//11 12//11 9//11
f 1//12 7//12 2//12
f 6//13 11//13 2//13
f 7//14 5//14 8//14
f 9//15 12//15 10//15
f 6//16 8//16 10//16
f 3//9 13//9 4//9
f 4//11 13//11 12//11
