# Blender v2.77 (sub 0) OBJ File: ''
# www.blender.org
g Crystal_m_05_Collider
v -0.002307 1.196586 -0.192724
v -0.182047 0.000000 -0.105105
v -0.167511 1.187932 -0.096713
v -0.005993 1.528592 0.046673
v 0.000000 1.163863 0.193771
v 0.167849 1.139032 0.097648
v 0.000000 -0.000000 0.210210
v 0.182047 -0.000000 0.105105
v 0.164704 1.206556 -0.098793
v 0.000000 0.000000 -0.210210
v -0.169528 1.042987 0.097877
v -0.182047 -0.000000 0.105105
v 0.182047 0.000000 -0.105105
vn -0.5029 0.0123 -0.8642
vn 0.5054 0.3299 0.7973
vn 0.5000 0.0119 0.8660
vn 0.4895 0.0137 -0.8719
vn 0.3871 0.5421 -0.7458
vn -0.9126 0.3324 0.2382
vn -0.9999 0.0120 0.0000
vn 0.8991 0.4182 0.1293
vn -0.4989 0.0122 0.8666
vn 0.9998 0.0144 -0.0110
vn -0.5000 0.0117 -0.8660
vn -0.4496 0.5191 -0.7269
vn 0.4983 0.0122 0.8669
vn 0.5000 0.0117 -0.8660
vn -0.9999 0.0122 -0.0012
vn -0.6179 0.2853 0.7327
vn -0.5000 0.0120 0.8660
vn 0.9999 0.0125 0.0000
s off
f 1//1 2//1 3//1
f 4//2 5//2 6//2
f 6//3 7//3 8//3
f 9//4 10//4 1//4
f 4//5 9//5 1//5
f 11//6 4//6 3//6
f 11//7 2//7 12//7
f 9//8 4//8 6//8
f 11//9 7//9 5//9
f 6//10 13//10 9//10
f 1//11 10//11 2//11
f 1//12 3//12 4//12
f 6//13 5//13 7//13
f 9//14 13//14 10//14
f 11//15 3//15 2//15
f 4//16 11//16 5//16
f 11//17 12//17 7//17
f 6//18 8//18 13//18
