# Blender v2.77 (sub 0) OBJ File: ''
# www.blender.org
g Crystal_s_03_Collider
v -0.038431 0.528810 -0.073058
v -0.006046 0.581354 -0.009024
v 0.000000 0.478527 -0.100980
v -0.059355 0.474567 0.081695
v 0.059528 0.501192 0.081578
v 0.096038 0.488141 -0.031205
v 0.059355 -0.000000 0.081695
v 0.096038 0.000000 -0.031205
v -0.096038 0.463624 -0.031205
v -0.059355 -0.000000 0.081695
v 0.000000 0.000000 -0.100980
v -0.096038 0.000000 -0.031205
vn 0.3330 0.6394 -0.6931
vn -0.1522 0.6829 0.7144
vn 0.6840 0.7162 0.1386
vn 0.9511 -0.0000 0.3090
vn 0.4204 0.6184 -0.6639
vn 0.0009 0.0002 1.0000
vn -0.5878 0.0000 -0.8090
vn -0.9511 -0.0000 0.3090
vn -0.7792 0.6167 -0.1120
vn -0.7960 0.5701 0.2034
vn 0.5878 0.0000 -0.8090
vn 0.9514 -0.0003 0.3080
vn 0.0000 -0.0000 1.0000
s off
f 1//1 2//1 3//1
f 4//2 5//2 2//2
f 5//3 6//3 2//3
f 6//4 7//4 8//4
f 3//5 2//5 6//5
f 4//6 7//6 5//6
f 9//7 1//7 3//7
f 9//8 10//8 4//8
f 2//9 1//9 9//9
f 9//7 11//7 12//7
f 4//10 2//10 9//10
f 3//11 8//11 11//11
f 6//12 5//12 7//12
f 4//13 10//13 7//13
f 9//8 12//8 10//8
f 9//7 3//7 11//7
f 3//11 6//11 8//11
