# Blender v2.77 (sub 0) OBJ File: ''
# www.blender.org
g Crystal_s_01_Collider
v 0.130777 0.778565 -0.042662
v -0.000046 0.801574 -0.137629
v -0.011139 0.890229 -0.005672
v -0.080981 0.763082 0.111321
v -0.137578 0.000000 -0.044702
v -0.085028 -0.000000 0.117031
v -0.130906 0.791643 -0.042574
v 0.000000 0.000000 -0.144658
v 0.080938 0.767859 0.111402
v 0.085028 -0.000000 0.117031
v 0.137578 0.000000 -0.044702
vn 0.4695 0.7507 -0.4649
vn -0.9510 0.0074 0.3090
vn -0.5878 0.0071 -0.8090
vn 0.6381 0.7259 0.2569
vn 0.5883 0.0071 -0.8086
vn -0.6580 0.6727 0.3383
vn -0.0007 0.0073 1.0000
vn 0.9510 0.0075 0.3090
vn -0.9508 0.0072 0.3098
vn -0.5880 0.0071 -0.8088
vn 0.5878 0.0073 -0.8090
vn -0.0205 0.6830 0.7301
vn -0.4377 0.7288 -0.5265
vn 0.0000 0.0075 1.0000
vn 0.9513 0.0073 0.3082
s off
f 1//1 2//1 3//1
f 4//2 5//2 6//2
f 7//3 8//3 5//3
f 1//4 3//4 9//4
f 1//5 8//5 2//5
f 4//6 3//6 7//6
f 4//7 10//7 9//7
f 1//8 10//8 11//8
f 4//9 7//9 5//9
f 7//10 2//10 8//10
f 1//11 11//11 8//11
f 9//12 3//12 4//12
f 3//13 2//13 7//13
f 4//14 6//14 10//14
f 1//15 9//15 10//15
