# Blender v2.77 (sub 0) OBJ File: ''
# www.blender.org
g Crystals_l_02_Collider
v 0.989883 0.013374 -0.287839
v 1.191100 0.811135 -0.444619
v 0.902002 0.802589 -0.473615
v 0.134599 0.720560 1.275885
v 0.302329 0.012130 0.992435
v 0.126477 0.860515 1.015061
v 0.046066 0.014359 0.950236
v 0.162469 -0.021034 1.186258
v -1.137890 2.108492 -0.257596
v -1.482824 2.122331 -0.424752
v -1.460115 2.535599 -0.068315
v -1.794839 2.084452 -0.212174
v -1.763367 2.039856 0.166792
v -1.567407 -0.214678 -0.183145
v -1.539559 -0.203077 0.233335
v -1.222836 -0.180151 -0.416478
v -1.112161 2.116797 0.121141
v -1.167136 -0.156939 0.416479
v -0.822571 -0.122422 0.183148
v 0.885233 1.011214 0.595397
v 0.869401 -0.165388 0.734490
v 1.052749 1.051847 0.690498
v 1.200708 0.947475 0.604311
v 1.052220 -0.196107 0.433529
v 0.923159 1.185309 0.407709
v 0.701712 -0.146719 0.423637
v 0.696927 -0.141859 0.627727
v 1.055631 1.013898 0.320713
v 1.046660 -0.193777 0.637162
v 0.878971 -0.175108 0.326309
v -0.127827 1.622131 -1.166514
v -0.276635 -0.083454 -1.007976
v -0.129096 -0.066699 -0.900789
v -0.087374 1.676946 -1.543651
v -0.265148 1.873465 -1.317069
v 0.060156 1.682523 -1.434705
v 0.038628 -0.078251 -0.973404
v 0.039974 1.713978 -1.255398
v -0.255156 1.611156 -1.458867
v -0.088727 -0.123311 -1.260394
v -0.256450 -0.111759 -1.187778
v 0.058812 -0.106557 -1.153206
v 0.374663 2.949877 -0.492204
v 0.348617 2.979929 0.506742
v 0.617630 2.669530 0.356589
v 0.000000 -0.093528 0.769423
v 0.694752 1.700000 0.401115
v 0.000000 1.700000 0.802230
v 0.000000 -0.093528 -0.769423
v 0.694752 1.700000 -0.401115
v 0.666340 -0.093528 -0.384712
v -0.694752 1.700000 -0.401115
v 0.000000 1.700000 -0.802230
v -0.694752 1.700000 0.401115
v -0.666340 -0.093528 0.384712
v 0.617630 2.669530 -0.356589
v -0.666340 -0.093528 -0.384712
v -0.614245 2.904611 0.354634
v -0.614245 2.904611 -0.354634
v 0.000000 2.828577 -0.710533
v -0.392075 3.119375 -0.479333
v -0.053431 3.466920 0.018959
v -0.412185 3.099936 0.468047
v 0.000000 2.815372 0.710754
v 0.666340 -0.093528 0.384712
v 0.959483 -0.008113 -0.587682
v 1.160753 -0.011880 -0.496848
v -0.850419 -0.134023 -0.233332
vn -0.1038 0.2169 0.9707
vn 0.9767 0.2004 0.0771
vn -0.8986 -0.0858 0.4303
vn -0.9930 0.0884 0.0783
vn 0.1627 0.0600 -0.9849
vn 0.3697 0.5951 -0.7136
vn -0.5059 0.5792 -0.6393
vn -0.9929 -0.0970 0.0691
vn 0.4371 0.0461 -0.8982
vn 0.7821 0.6196 -0.0667
vn 0.5517 0.0943 0.8287
vn 0.3701 0.2035 0.9064
vn -0.3500 0.1290 0.9278
vn -0.5550 -0.0654 -0.8293
vn 0.9896 0.1260 -0.0700
vn -0.5105 0.1077 0.8531
vn 0.6008 0.0412 -0.7983
vn -0.9867 0.1604 -0.0270
vn 0.6108 0.0718 0.7886
vn 0.4761 -0.0390 0.8785
vn 0.6093 0.7875 0.0924
vn 0.5174 -0.0809 -0.8519
vn -0.4829 0.0698 -0.8729
vn -0.5924 0.1257 0.7958
vn 0.3149 0.8253 -0.4687
vn 0.4015 0.1421 0.9048
vn -0.5322 0.3868 -0.7531
vn 0.5924 -0.1257 -0.7958
vn -0.9980 -0.0041 -0.0628
vn 0.4767 0.8734 -0.0996
vn -0.4015 -0.1421 -0.9048
vn 0.9939 0.0164 0.1090
vn 0.7557 0.6549 0.0000
vn 0.4999 -0.0158 0.8659
vn 0.4999 -0.0158 -0.8659
vn -0.4999 -0.0158 -0.8659
vn -0.4999 -0.0158 0.8659
vn 0.9969 0.0793 0.0000
vn -0.9999 -0.0158 -0.0000
vn -0.9978 0.0667 0.0000
vn -0.4941 0.0665 -0.8669
vn 0.1506 0.7316 -0.6649
vn -0.7009 0.7129 -0.0209
vn 0.0824 0.7384 0.6693
vn 0.4999 0.0144 -0.8659
vn -0.4987 0.0708 0.8638
vn -0.4999 0.0144 -0.8659
vn -0.6950 0.7190 0.0000
vn 0.5095 0.0697 -0.8577
vn 0.4999 0.0144 0.8659
vn 0.4984 0.0793 0.8633
vn -0.4999 0.0144 0.8659
vn 0.9999 -0.0158 -0.0000
vn 0.0945 0.1453 -0.9849
vn -0.9906 -0.0852 0.1065
vn 0.7683 -0.0687 0.6364
vn 0.4116 0.0426 -0.9103
vn 0.8135 -0.0396 0.5802
vn -0.9927 -0.0973 0.0710
vn -0.8158 0.5626 0.1340
vn 0.4362 0.0462 -0.8987
vn -0.4395 -0.0172 0.8981
vn -0.5564 -0.0658 -0.8283
vn 0.9896 0.1261 -0.0697
vn -0.5126 0.1076 0.8518
vn -0.4765 0.6905 0.5442
vn -0.9854 0.1633 -0.0477
vn 0.9907 -0.1329 0.0286
vn 0.4812 -0.0408 0.8756
vn -0.4721 0.0660 -0.8791
vn -0.6191 0.1261 0.7751
vn 0.1272 0.5599 0.8187
vn -0.9939 -0.0164 -0.1090
vn 0.7707 0.6372 0.0009
vn -0.4988 0.0702 -0.8639
vn 0.1567 0.7569 -0.6344
vn -0.7105 0.7037 0.0074
vn 0.0761 0.7086 0.7015
vn -0.4932 0.0664 0.8674
vn 0.4984 0.0793 -0.8633
vn 0.5087 0.0704 0.8581
s off
f 1//1 2//1 3//1
f 4//2 5//2 6//2
f 7//3 8//3 4//3
f 4//4 6//4 7//4
f 6//5 5//5 7//5
f 9//6 10//6 11//6
f 10//7 12//7 11//7
f 13//8 14//8 15//8
f 9//9 16//9 10//9
f 17//10 9//10 11//10
f 17//11 18//11 19//11
f 11//12 13//12 18//12
f 18//13 17//13 11//13
f 12//14 16//14 14//14
f 19//15 9//15 17//15
f 20//16 21//16 22//16
f 23//17 24//17 25//17
f 20//18 26//18 27//18
f 28//19 25//19 24//19
f 23//20 21//20 29//20
f 23//21 25//21 22//21
f 24//22 30//22 28//22
f 28//23 26//23 25//23
f 31//24 32//24 33//24
f 34//25 35//25 36//25
f 31//26 37//26 38//26
f 39//27 35//27 34//27
f 36//28 40//28 34//28
f 39//29 32//29 35//29
f 36//30 35//30 38//30
f 39//31 40//31 41//31
f 36//32 37//32 42//32
f 43//33 44//33 45//33
f 46//34 47//34 48//34
f 49//35 50//35 51//35
f 49//36 52//36 53//36
f 46//37 54//37 55//37
f 47//38 56//38 45//38
f 55//39 52//39 57//39
f 52//40 58//40 59//40
f 60//41 52//41 59//41
f 61//42 43//42 60//42
f 59//43 62//43 61//43
f 56//33 43//33 45//33
f 63//44 44//44 62//44
f 60//45 43//45 56//45
f 64//46 54//46 48//46
f 59//47 61//47 60//47
f 59//48 58//48 63//48
f 56//49 53//49 60//49
f 45//50 44//50 64//50
f 45//51 48//51 47//51
f 64//52 63//52 58//52
f 51//53 47//53 65//53
f 2//54 66//54 3//54
f 3//55 66//55 1//55
f 2//56 1//56 67//56
f 66//57 2//57 67//57
f 5//58 4//58 8//58
f 13//59 12//59 14//59
f 13//60 11//60 12//60
f 9//61 68//61 16//61
f 13//62 15//62 18//62
f 12//63 10//63 16//63
f 19//64 68//64 9//64
f 20//65 27//65 21//65
f 25//66 20//66 22//66
f 20//67 25//67 26//67
f 23//68 29//68 24//68
f 23//69 22//69 21//69
f 28//70 30//70 26//70
f 31//71 35//71 32//71
f 31//26 33//26 37//26
f 36//28 42//28 40//28
f 35//72 31//72 38//72
f 39//73 41//73 32//73
f 39//31 34//31 40//31
f 36//32 38//32 37//32
f 43//74 62//74 44//74
f 46//34 65//34 47//34
f 49//35 53//35 50//35
f 49//36 57//36 52//36
f 46//37 48//37 54//37
f 47//38 50//38 56//38
f 55//39 54//39 52//39
f 52//40 54//40 58//40
f 60//75 53//75 52//75
f 61//76 62//76 43//76
f 59//77 63//77 62//77
f 63//78 64//78 44//78
f 64//79 58//79 54//79
f 56//80 50//80 53//80
f 45//81 64//81 48//81
f 51//53 50//53 47//53
