# Blender v2.77 (sub 0) OBJ File: ''
# www.blender.org
g Crystals_l_01_Collider
v 0.885748 -0.501306 -0.526820
v 1.696777 1.455583 -0.821243
v 2.182817 1.185784 -0.755874
v 0.425124 -0.048223 0.313600
v 1.433791 1.669755 -0.378061
v 0.232078 0.037256 -0.172576
v 0.848483 -0.360244 0.379566
v 1.708600 1.669195 0.121497
v 1.078795 -0.586786 -0.040644
v 2.413539 1.143139 -0.254879
v 2.209462 1.417732 0.177098
v 2.313676 1.843374 -0.358212
v 0.462390 -0.189285 -0.592786
v 0.067829 -0.345009 1.074067
v -0.000886 1.427531 1.301954
v -0.690278 1.581753 1.779912
v 0.143186 -0.133090 0.490281
v -0.550431 1.533527 0.862736
v -0.537072 -0.414396 0.978655
v -0.920905 1.465564 1.150318
v -0.473101 -0.209681 0.402275
v 0.189310 0.120498 0.830385
v 0.823110 1.865061 0.652810
v 0.239237 -0.087801 0.160206
v 1.127340 1.105247 1.017663
v 0.625660 -0.311232 0.566812
v 1.102740 1.213256 0.424426
v -1.825733 2.799509 -0.502090
v -2.056926 2.941365 -0.001381
v -1.542296 2.881880 -0.399162
v -1.649689 2.655679 0.109978
v -0.429011 0.001884 -0.109293
v -1.489090 2.905323 -0.092580
v -2.001744 2.592077 -0.299290
v -0.868359 -0.156364 -0.484993
v -0.844471 -0.150857 0.074017
v -0.484080 -0.016457 -0.415847
v -0.642236 -0.177543 -0.305973
v -1.322940 2.068542 -0.869700
v -1.291252 1.762752 -1.288447
v -0.733134 1.702791 -0.760978
v -0.198656 -0.149048 -0.738147
v -0.146370 0.036701 -0.266862
v -0.941996 2.058893 -1.343449
v 1.056223 3.002702 -1.303987
v 0.381638 -0.047475 -0.218459
v 1.372410 3.280918 -1.257231
v 1.497970 2.833501 -1.258798
v 1.508967 2.802800 -1.534625
v 0.126564 -0.106656 -0.667875
v 0.129897 -0.021084 -0.380045
v 1.211360 3.073346 -1.710145
v 0.666229 -0.212736 -0.488040
v 0.374973 -0.218619 -0.794119
v 0.178557 2.221916 -1.750875
v 0.303713 -0.053573 -0.461552
v 0.325352 -0.212368 -0.788515
v -0.036451 0.050766 -0.320339
v -0.396487 1.696885 -1.609707
v -0.066745 1.623779 -1.848703
v -0.157886 -0.300726 -0.929832
v 0.802825 2.329930 -0.448250
v -0.051399 3.551762 0.073153
v 0.788899 2.139258 0.458999
v -0.777816 3.045277 0.430852
v -0.006625 2.397895 0.907938
v -0.006375 2.803883 -0.895069
v -0.781213 0.027298 -0.463937
v -0.750818 2.906432 -0.433485
v 0.000000 -0.000000 0.866970
v 0.750818 -0.000000 0.433485
v 0.750818 0.000000 -0.433485
v 0.000000 0.000000 -0.866970
v -0.750818 -0.000000 0.433485
v 0.423760 2.968562 -0.622312
v -0.325352 -0.092704 -0.484180
vn 0.0408 -0.1652 -0.9854
vn -0.7187 0.5777 0.3869
vn -0.0468 0.1455 0.9883
vn 0.7099 -0.5945 -0.3776
vn 0.6655 -0.4408 0.6024
vn -0.1563 0.8498 -0.5034
vn -0.1948 0.9749 0.1083
vn 0.2917 0.7202 0.6294
vn 0.9287 0.1803 0.3241
vn 0.3516 0.4322 -0.8304
vn 0.9084 0.0687 -0.4125
vn -0.6750 0.4226 -0.6048
vn 0.5548 -0.0849 0.8276
vn 0.6169 0.4072 -0.6735
vn -0.9681 -0.1820 -0.1721
vn 0.2049 0.9786 -0.0202
vn -0.2456 0.9654 -0.0882
vn 0.9906 0.0210 0.1355
vn -0.9317 0.3213 -0.1693
vn 0.1953 -0.3596 0.9124
vn -0.1283 0.2785 -0.9518
vn -0.4305 0.2448 0.8688
vn 0.9225 0.3846 0.0318
vn -0.1497 0.9310 -0.3329
vn 0.6142 0.2199 0.7579
vn -0.8455 0.2629 -0.4649
vn 0.3148 0.0965 -0.9442
vn -0.9054 -0.3491 0.2416
vn 0.0496 0.9952 -0.0847
vn 0.9226 0.3379 -0.1860
vn -0.9582 -0.2608 0.1179
vn -0.0343 0.2335 0.9718
vn 0.9400 0.2687 -0.2102
vn 0.0564 -0.2463 -0.9676
vn -0.5815 -0.5139 -0.6307
vn 0.4483 0.8251 0.3437
vn -0.6048 0.6206 -0.4990
vn -0.4582 0.3862 0.8005
vn 0.9628 0.2702 0.0083
vn -0.9596 0.2726 -0.0699
vn 0.7277 0.4877 -0.4823
vn 0.9667 -0.2472 0.0661
vn 0.6866 -0.0035 0.7270
vn -0.6464 0.7541 -0.1158
vn 0.2502 -0.3180 -0.9145
vn 0.9969 0.0723 0.0309
vn -0.3057 0.5448 0.7809
vn 0.4570 0.4574 0.7629
vn 0.3246 -0.4200 -0.8475
vn -0.5026 0.3364 -0.7964
vn 0.8374 0.5322 0.1247
vn -0.0095 0.5859 0.8103
vn 0.5428 0.5060 0.6703
vn -0.5255 0.0145 -0.8507
vn 0.4999 -0.0192 0.8659
vn 0.9998 -0.0223 0.0000
vn 0.4999 -0.0166 -0.8659
vn -0.4999 -0.0162 0.8659
vn -0.6127 0.7771 -0.1440
vn 0.5142 0.0723 -0.8546
vn 0.0339 -0.1624 -0.9861
vn -0.7146 0.5781 0.3938
vn -0.0385 0.1421 0.9891
vn 0.7057 -0.5948 -0.3848
vn 0.6691 -0.4423 0.5972
vn -0.6783 0.4238 -0.6002
vn 0.1050 0.2583 -0.9603
vn -0.6236 0.1737 -0.7622
vn -0.1019 -0.3773 0.9205
vn -0.9027 -0.2182 0.3709
vn 0.6227 -0.2637 -0.7367
vn 0.9475 -0.3054 -0.0949
vn -0.3315 -0.1071 0.9374
vn 0.3724 0.0950 0.9232
vn 0.1548 0.0622 -0.9860
vn 0.1662 0.5547 0.8153
vn -0.9226 -0.3834 0.0432
vn -0.6244 -0.2066 -0.7533
vn -0.1724 0.2238 0.9593
vn 0.9467 0.2711 -0.1737
vn -0.4692 0.3864 0.7941
vn -0.9247 0.2118 -0.3164
vn 0.4750 0.1302 0.8703
vn 0.6666 -0.4038 -0.6266
vn -0.4909 -0.1156 -0.8635
vn -0.6014 -0.3209 -0.7317
vn -0.9441 -0.2015 -0.2607
vn -0.5955 0.4106 0.6905
vn 0.7490 -0.2041 -0.6304
vn -0.9994 0.0109 -0.0330
vn 0.8375 0.5316 0.1264
vn -0.9994 -0.0088 0.0336
vn 0.4881 -0.0136 0.8727
vn 0.9998 -0.0179 0.0116
vn 0.4799 -0.0077 -0.8773
vn -0.4587 -0.0099 -0.8885
vn -0.5285 -0.0040 0.8489
vn 0.0821 0.7906 -0.6068
vn -0.2659 0.7569 -0.5970
s off
f 1//1 2//1 3//1
f 4//2 5//2 6//2
f 7//3 8//3 4//3
f 9//4 3//4 10//4
f 9//5 11//5 7//5
f 5//6 12//6 2//6
f 8//7 12//7 5//7
f 11//8 12//8 8//8
f 11//9 10//9 12//9
f 2//10 12//10 3//10
f 3//11 12//11 10//11
f 13//12 5//12 2//12
f 14//13 15//13 16//13
f 17//14 18//14 15//14
f 19//15 20//15 21//15
f 18//16 16//16 15//16
f 20//17 16//17 18//17
f 17//18 15//18 14//18
f 22//19 23//19 24//19
f 25//20 22//20 26//20
f 27//21 24//21 23//21
f 23//22 22//22 25//22
f 27//23 23//23 25//23
f 28//24 29//24 30//24
f 31//25 32//25 33//25
f 34//26 29//26 28//26
f 30//27 35//27 28//27
f 34//28 36//28 29//28
f 30//29 29//29 33//29
f 30//30 32//30 37//30
f 38//31 39//31 40//31
f 38//32 41//32 39//32
f 42//33 41//33 43//33
f 40//34 44//34 42//34
f 42//35 38//35 40//35
f 44//36 39//36 41//36
f 44//37 40//37 39//37
f 45//38 46//38 47//38
f 48//39 49//39 47//39
f 45//40 50//40 51//40
f 52//41 47//41 49//41
f 48//42 53//42 49//42
f 48//43 46//43 53//43
f 45//44 47//44 52//44
f 49//45 54//45 52//45
f 55//46 56//46 57//46
f 58//47 55//47 59//47
f 58//48 56//48 55//48
f 60//49 57//49 61//49
f 59//50 55//50 60//50
f 62//51 63//51 64//51
f 63//52 65//52 66//52
f 64//53 63//53 66//53
f 67//54 68//54 69//54
f 64//55 70//55 71//55
f 62//56 71//56 72//56
f 73//57 62//57 72//57
f 66//58 74//58 70//58
f 63//59 69//59 65//59
f 67//60 75//60 62//60
f 1//61 13//61 2//61
f 4//62 8//62 5//62
f 7//63 11//63 8//63
f 9//64 1//64 3//64
f 9//65 10//65 11//65
f 13//66 6//66 5//66
f 17//67 21//67 18//67
f 21//68 20//68 18//68
f 19//69 14//69 16//69
f 19//70 16//70 20//70
f 27//71 26//71 24//71
f 26//72 27//72 25//72
f 31//73 29//73 36//73
f 31//74 36//74 32//74
f 30//75 37//75 35//75
f 29//76 31//76 33//76
f 34//77 35//77 36//77
f 34//78 28//78 35//78
f 30//30 33//30 32//30
f 38//79 43//79 41//79
f 42//80 44//80 41//80
f 45//81 51//81 46//81
f 45//82 52//82 50//82
f 48//83 47//83 46//83
f 49//84 53//84 54//84
f 52//85 54//85 50//85
f 59//86 60//86 61//86
f 59//87 61//87 76//87
f 58//88 59//88 76//88
f 60//89 55//89 57//89
f 69//90 68//90 65//90
f 62//91 75//91 63//91
f 74//92 65//92 68//92
f 64//93 66//93 70//93
f 62//94 64//94 71//94
f 73//95 67//95 62//95
f 68//96 67//96 73//96
f 66//97 65//97 74//97
f 67//98 63//98 75//98
f 63//99 67//99 69//99
