# Blender v2.77 (sub 0) OBJ File: 'LowPoly_Level_Kit_Rocks.blend'
# www.blender.org
g Crystal_m_11_Collider
v -0.404287 1.565002 -0.233415
v -0.428851 0.020716 0.246581
v -0.409990 1.661653 0.220219
v -0.016424 1.908340 -0.059768
v 0.140359 1.583150 0.385794
v 0.433345 1.262130 -0.242593
v 0.428294 1.161350 0.247150
v -0.002516 1.333657 0.490274
v 0.001000 1.390533 -0.487884
v -0.422371 0.017059 -0.249663
v 0.000000 -0.000000 0.466830
v 0.404287 -0.000000 0.233415
v 0.404287 0.000000 -0.233415
v 0.000000 0.000000 -0.466830
vn -0.9998 0.0113 -0.0150
vn -0.0683 0.7943 0.6037
vn 0.8378 0.5330 0.1183
vn -0.5413 0.0197 0.8406
vn -0.1920 0.4706 0.8612
vn 0.5105 0.0667 0.8573
vn -0.5270 0.0151 -0.8497
vn 0.4999 -0.0206 0.8658
vn 0.9997 -0.0230 0.0000
vn 0.4999 -0.0178 -0.8659
vn -0.4574 -0.0165 0.8891
vn -0.2089 0.6190 -0.7571
vn -0.6084 0.7746 -0.1727
vn 0.5296 0.5510 -0.6449
vn -0.9998 0.0118 -0.0131
vn 0.8300 0.5473 0.1074
vn 0.4870 -0.0144 0.8733
vn 0.9998 -0.0207 0.0060
vn 0.4904 -0.0135 -0.8714
vn -0.4576 -0.0131 -0.8890
s off
f 1//1 2//1 3//1
f 4//2 3//2 5//2
f 6//3 5//3 7//3
f 2//4 8//4 3//4
f 5//5 3//5 8//5
f 7//6 5//6 8//6
f 9//7 10//7 1//7
f 7//8 11//8 12//8
f 6//9 12//9 13//9
f 14//10 6//10 13//10
f 8//11 2//11 11//11
f 1//12 4//12 9//12
f 4//13 1//13 3//13
f 9//14 4//14 6//14
f 1//15 10//15 2//15
f 6//16 4//16 5//16
f 7//17 8//17 11//17
f 6//18 7//18 12//18
f 14//19 9//19 6//19
f 10//20 9//20 14//20
