# Blender v2.77 (sub 0) OBJ File: ''
# www.blender.org
g Crystal_m_03_Collider
v 0.000000 0.899999 0.218400
v -0.208054 -0.000000 0.120120
v 0.000000 -0.000000 0.240240
v 0.000000 0.933869 -0.218400
v 0.179580 1.101107 0.100525
v 0.189140 0.899221 -0.109200
v 0.000000 0.000000 -0.240240
v -0.208054 0.000000 -0.120120
v -0.211740 1.002234 -0.001136
v 0.208054 -0.000000 0.120120
v 0.208054 0.000000 -0.120120
vn -0.4999 0.0210 0.8658
vn 0.4664 0.6478 -0.6023
vn 0.5027 0.0202 -0.8642
vn -0.7008 0.0816 -0.7087
vn 0.5258 0.0287 0.8501
vn -0.3405 0.6829 0.6464
vn 0.9994 0.0262 0.0203
vn -0.1235 0.9058 -0.4054
vn -0.6975 0.0835 0.7117
vn 0.4999 0.0210 -0.8658
vn -0.4999 0.0202 -0.8658
vn 0.4999 0.0210 0.8658
vn 0.9998 0.0210 0.0000
vn -1.0000 -0.0037 0.0000
s off
f 1//1 2//1 3//1
f 4//2 5//2 6//2
f 6//3 7//3 4//3
f 4//4 8//4 9//4
f 1//5 10//5 5//5
f 1//6 5//6 9//6
f 10//7 6//7 5//7
f 5//8 4//8 9//8
f 1//9 9//9 2//9
f 6//10 11//10 7//10
f 4//11 7//11 8//11
f 1//12 3//12 10//12
f 10//13 11//13 6//13
f 8//14 2//14 9//14
