# Blender v2.77 (sub 0) OBJ File: ''
# www.blender.org
g Crystal_m_06_Collider
v 0.220131 1.169320 -0.169302
v -0.021019 1.420649 0.044773
v 0.279241 1.014929 0.158147
v 0.004545 0.956641 0.324310
v 0.274375 -0.038511 0.158411
v 0.000000 -0.038511 -0.316821
v 0.286074 0.700000 -0.165165
v 0.274375 -0.038511 -0.158411
v -0.274375 -0.038511 -0.158411
v -0.006492 1.129131 -0.319372
v 0.000000 -0.038511 0.316821
v -0.280019 0.948216 0.164289
v -0.274375 -0.038511 0.158411
v -0.280049 1.129272 -0.154484
vn 0.7742 0.6149 0.1502
vn 0.5179 -0.0022 0.8554
vn 0.4999 -0.0158 -0.8659
vn -0.5000 -0.0047 -0.8660
vn -0.5000 -0.0080 0.8660
vn 0.9841 0.1373 -0.1129
vn -1.0000 -0.0049 -0.0000
vn -0.3567 0.7223 -0.5925
vn -0.8052 0.5156 0.2929
vn 0.3708 0.4941 0.7863
vn -0.4494 0.4427 0.7759
vn 0.9997 -0.0046 0.0256
vn 0.5000 -0.0088 0.8660
vn 0.4670 0.0007 -0.8842
vn -0.5162 0.0004 -0.8565
vn -0.4901 -0.0043 0.8717
vn -1.0000 -0.0057 -0.0031
vn 0.2608 0.7587 -0.5970
vn 0.5423 0.0688 -0.8374
vn 0.9999 -0.0158 -0.0000
s off
f 1//1 2//1 3//1
f 4//2 5//2 3//2
f 6//3 7//3 8//3
f 9//4 10//4 6//4
f 11//5 12//5 13//5
f 3//6 7//6 1//6
f 13//7 14//7 9//7
f 14//8 2//8 10//8
f 14//9 12//9 2//9
f 3//10 2//10 4//10
f 4//11 2//11 12//11
f 5//12 7//12 3//12
f 4//13 11//13 5//13
f 6//14 10//14 7//14
f 9//15 14//15 10//15
f 11//16 4//16 12//16
f 13//17 12//17 14//17
f 10//18 2//18 1//18
f 1//19 7//19 10//19
f 5//20 8//20 7//20
