# Blender v2.77 (sub 0) OBJ File: ''
# www.blender.org
g Crystal_m_02_Collider
v 0.193182 1.329808 -0.111679
v -0.000232 1.362831 -0.223055
v 0.024397 1.599700 -0.008828
v -0.193341 1.358950 -0.111195
v -0.193383 1.326314 0.111650
v -0.212722 0.000000 -0.122815
v -0.212722 -0.000000 0.122815
v 0.000000 0.000000 -0.245630
v 0.193271 1.328469 0.111670
v 0.000000 -0.000000 0.245630
v 0.212722 -0.000000 0.122815
v 0.000000 1.361896 0.223300
v -0.159558 1.359384 0.131179
v 0.212722 0.000000 -0.122815
vn 0.4834 0.5590 -0.6737
vn -0.3954 0.6384 -0.6604
vn -0.9999 0.0146 0.0000
vn 0.5008 0.0144 -0.8654
vn 0.8483 0.5295 0.0028
vn 0.4999 0.0146 0.8659
vn -0.3810 0.6655 0.6418
vn -0.5000 -0.0000 0.8660
vn 0.4785 0.5877 0.6524
vn -0.5019 0.0142 0.8648
vn -0.4999 0.0145 -0.8659
vn 0.9999 0.0146 -0.0003
vn -0.9999 0.0142 0.0019
vn -0.7244 0.6821 0.0998
vn 0.4999 0.0146 -0.8659
vn 0.5019 0.0142 0.8648
vn -0.4999 0.0146 0.8659
vn -0.5014 0.0142 -0.8651
vn -0.7593 0.6422 0.1047
vn 0.9999 0.0147 0.0000
s off
f 1//1 2//1 3//1
f 2//2 4//2 3//2
f 5//3 6//3 7//3
f 1//4 8//4 2//4
f 9//5 1//5 3//5
f 9//6 10//6 11//6
f 12//7 3//7 13//7
f 13//8 5//8 12//8
f 12//9 9//9 3//9
f 5//10 10//10 12//10
f 4//11 8//11 6//11
f 11//12 1//12 9//12
f 5//13 4//13 6//13
f 5//14 13//14 4//14
f 1//15 14//15 8//15
f 9//16 12//16 10//16
f 5//17 7//17 10//17
f 4//18 2//18 8//18
f 4//19 13//19 3//19
f 11//20 14//20 1//20
