# Blender v2.77 (sub 0) OBJ File: ''
# www.blender.org
g Crystal_m_10_Collider
v 0.000000 2.038841 0.218400
v -0.189140 -0.000000 0.109200
v 0.000000 -0.000000 0.218400
v 0.000000 2.173361 -0.218400
v -0.016803 2.414457 0.012677
v 0.189140 2.159867 -0.109200
v 0.189140 -0.000000 0.109200
v 0.189140 2.163668 0.109200
v -0.189140 2.079990 -0.109200
v 0.000000 0.000000 -0.218400
v -0.189099 2.096501 0.109266
v -0.189140 0.000000 -0.109200
v 0.189140 0.000000 -0.109200
vn -0.5000 -0.0000 0.8660
vn 0.4164 0.6441 -0.6417
vn 0.5000 -0.0000 0.8660
vn -0.6048 0.5287 -0.5956
vn 0.5000 0.0000 -0.8660
vn -1.0000 0.0000 0.0002
vn 0.7748 0.6321 -0.0110
vn -0.5000 0.0000 -0.8660
vn -0.3450 0.4390 0.8296
vn 1.0000 0.0000 0.0000
vn -0.4999 -0.0000 0.8661
vn -0.8831 0.4679 -0.0352
vn 0.1802 0.4787 0.8593
vn -1.0000 0.0000 0.0000
s off
f 1//1 2//1 3//1
f 4//2 5//2 6//2
f 1//3 7//3 8//3
f 9//4 5//4 4//4
f 6//5 10//5 4//5
f 9//6 2//6 11//6
f 6//7 5//7 8//7
f 9//8 10//8 12//8
f 1//9 5//9 11//9
f 6//10 7//10 13//10
f 1//11 11//11 2//11
f 1//3 3//3 7//3
f 6//5 13//5 10//5
f 5//12 9//12 11//12
f 5//13 1//13 8//13
f 9//14 12//14 2//14
f 9//8 4//8 10//8
f 6//10 8//10 7//10
