# Blender v2.77 (sub 0) OBJ File: ''
# www.blender.org
g Crystal_s_05_Collider
v 0.050457 0.696746 0.069074
v -0.060974 0.726112 0.036656
v -0.050361 0.687479 0.069317
v 0.000000 0.703371 -0.085680
v -0.004560 0.773132 -0.014067
v 0.081487 0.650061 -0.026477
v -0.081487 0.677283 -0.026477
v 0.056211 -0.000000 0.077368
v 0.090952 0.000000 -0.029552
v 0.000000 0.000000 -0.095632
v -0.090952 0.000000 -0.029552
v -0.056211 -0.000000 0.077368
vn -0.0566 0.6355 0.7700
vn 0.6969 0.5354 -0.4772
vn -0.7408 0.6261 -0.2435
vn -0.5979 0.5548 -0.5785
vn 0.9510 0.0124 0.3090
vn 0.5926 0.0114 -0.8054
vn 0.8188 0.5739 -0.0145
vn -0.5877 0.0119 -0.8090
vn -0.9511 -0.0000 0.3090
vn -0.9514 0.0117 0.3079
vn 0.0013 0.0119 0.9999
vn -0.0034 0.7353 0.6778
vn 0.9527 0.0115 0.3038
vn 0.5877 0.0124 -0.8090
vn -0.5901 0.0114 -0.8072
vn -0.9510 0.0119 0.3090
vn 0.0000 0.0117 0.9999
s off
f 1//1 2//1 3//1
f 4//2 5//2 6//2
f 2//3 5//3 7//3
f 7//4 5//4 4//4
f 6//5 8//5 9//5
f 6//6 10//6 4//6
f 5//7 1//7 6//7
f 7//8 10//8 11//8
f 3//9 2//9 7//9
f 7//10 12//10 3//10
f 3//11 8//11 1//11
f 1//12 5//12 2//12
f 6//13 1//13 8//13
f 6//14 9//14 10//14
f 7//15 4//15 10//15
f 7//16 11//16 12//16
f 3//17 12//17 8//17
