# Blender v2.77 (sub 0) OBJ File: ''
# www.blender.org
g Crystal_m_01_Collider
v 0.144762 1.166165 -0.083277
v 0.169800 -0.000000 0.098034
v 0.169800 0.000000 -0.098034
v -0.145129 1.103458 -0.083790
v 0.000000 0.000000 -0.196069
v -0.169800 0.000000 -0.098034
v 0.000000 1.137444 0.167580
v 0.028782 1.362057 0.029031
v -0.145129 1.146188 0.083790
v -0.169800 -0.000000 0.098034
v 0.145019 1.213620 0.083481
v 0.000000 -0.000000 0.196069
v 0.000075 1.146487 -0.166926
vn 0.9998 0.0215 0.0000
vn -0.4999 0.0224 -0.8658
vn -0.4044 0.5171 0.7544
vn -0.9998 0.0215 -0.0055
vn 0.4935 0.0205 0.8695
vn -0.4999 0.0217 0.8658
vn -0.7882 0.5964 -0.1521
vn 0.4999 0.0220 -0.8658
vn -0.5219 0.6108 -0.5954
vn 0.9998 0.0203 -0.0073
vn 0.3330 0.6096 -0.7194
vn -0.5017 0.0220 -0.8648
vn -0.9998 0.0224 0.0000
vn 0.4999 0.0217 0.8658
vn 0.2308 0.4892 0.8411
vn -0.4989 0.0215 0.8664
vn 0.4982 0.0217 -0.8668
vn 0.8050 0.5703 -0.1635
s off
f 1//1 2//1 3//1
f 4//2 5//2 6//2
f 7//3 8//3 9//3
f 4//4 10//4 9//4
f 7//5 2//5 11//5
f 7//6 10//6 12//6
f 4//7 9//7 8//7
f 13//8 3//8 5//8
f 4//9 8//9 13//9
f 1//10 11//10 2//10
f 13//11 8//11 1//11
f 4//12 13//12 5//12
f 4//13 6//13 10//13
f 7//14 12//14 2//14
f 8//15 7//15 11//15
f 7//16 9//16 10//16
f 13//17 1//17 3//17
f 8//18 11//18 1//18
