# Blender v2.77 (sub 0) OBJ File: ''
# www.blender.org
g Crystals_l_03_Collider
v 0.376533 -0.069937 0.845285
v 1.027182 2.248633 1.184686
v 0.689098 2.311965 0.898038
v 0.645229 -0.118697 0.995444
v 1.248200 1.684196 0.829681
v 0.641349 -0.037909 0.378120
v 0.912598 -0.115400 0.530428
v 0.955445 2.565643 0.897597
v 0.380498 -0.046290 0.533550
v -1.418469 1.095664 0.587408
v -1.462303 1.443486 0.243892
v -1.161295 -0.200536 0.118784
v -0.823135 1.366678 0.675211
v -1.065202 0.838442 0.744531
v -0.589758 -0.143424 0.340403
v -0.789469 1.329179 0.251709
v -0.889126 -0.146467 -0.023852
v -1.114250 1.406190 0.062676
v -1.265352 1.861022 0.449699
v -1.084800 -0.232180 0.524639
v 0.070639 2.798218 -1.257271
v -0.262896 -0.081405 -0.836221
v 0.013964 -0.058894 -0.694144
v 0.046451 2.866713 -1.906137
v 0.043953 3.268726 -1.648154
v 0.322936 2.870314 -1.760334
v 0.276860 -0.096389 -0.857923
v 0.337005 2.935648 -1.455526
v -0.219040 2.773365 -1.716570
v -0.013964 -0.178907 -1.305857
v -0.204555 2.856526 -1.415182
v -0.276860 -0.141411 -1.142077
v 0.262896 -0.156396 -1.163779
v -0.608742 2.582251 0.351457
v -0.628141 3.181693 -0.362657
v -0.513380 0.000000 -0.296400
v 0.612336 2.680738 0.353532
v 0.000000 2.032837 0.677140
v 0.513380 -0.000000 0.296400
v 0.612336 2.680738 -0.353532
v 0.000000 0.000000 -0.592800
v 0.000000 2.982770 -0.718688
v -0.083742 3.921313 -0.020873
v 0.447334 2.993380 0.461036
v -0.513380 -0.000000 0.296400
v 0.426313 3.032480 -0.474588
v -0.421659 3.572769 -0.490631
v 0.000000 -0.000000 0.592800
v 0.513380 0.000000 -0.296400
v 0.909398 -0.139359 0.841161
vn -0.6380 0.0667 0.7672
vn 0.6946 -0.1680 0.6995
vn 0.4999 0.0505 -0.8646
vn 0.9464 0.3065 0.1019
vn -0.2067 0.2154 -0.9544
vn 0.2578 0.1591 -0.9530
vn -0.4938 0.5197 0.6972
vn -0.9915 0.1302 -0.0027
vn -0.9830 -0.1760 -0.0527
vn 0.4958 -0.1142 0.8609
vn 0.5208 0.1226 -0.8448
vn -0.4632 -0.0174 -0.8861
vn -0.2388 0.2180 0.9463
vn -0.2461 0.2362 0.9400
vn -0.4989 -0.1656 0.8507
vn 0.4905 0.6535 -0.5765
vn -0.3423 0.5403 -0.7687
vn -0.9554 -0.2477 0.1608
vn -0.8990 0.2452 0.3629
vn 0.3725 -0.1932 0.9077
vn 0.7453 0.6668 0.0002
vn -0.4606 0.1804 0.8691
vn 0.3998 0.4968 -0.7703
vn 0.5382 0.1527 0.8289
vn -0.6205 0.4208 -0.6618
vn 0.4606 -0.1804 -0.8691
vn -0.9988 0.0278 0.0403
vn 0.7857 0.5964 -0.1641
vn -0.5382 -0.1527 -0.8289
vn -0.2989 0.5997 0.7423
vn 0.9988 -0.0277 -0.0402
vn -0.9993 -0.0361 -0.0032
vn 0.4971 -0.0368 0.8669
vn 0.4985 -0.0366 -0.8661
vn -0.5014 -0.0361 -0.8645
vn -0.2280 0.3428 0.9113
vn -0.2164 0.3091 0.9261
vn -0.4971 -0.0368 0.8669
vn 0.8844 0.4668 0.0000
vn 0.4996 -0.0337 -0.8656
vn 0.3536 0.5782 -0.7353
vn -0.4980 -0.0208 -0.8669
vn -0.9993 -0.0369 0.0000
vn -0.8199 0.4274 0.3810
vn 0.4997 -0.0359 0.8655
vn 0.4966 -0.0361 0.8672
vn 0.8676 0.4972 0.0013
vn 0.9993 -0.0369 0.0000
vn 0.9832 -0.1827 -0.0040
vn -0.4866 0.0087 0.8736
vn 0.4973 -0.0870 0.8632
vn -0.5066 0.1961 -0.8396
vn 0.7706 0.0663 -0.6339
vn -0.4614 -0.0175 -0.8870
vn 0.9882 0.1380 0.0663
vn -0.4605 0.1804 0.8691
vn -0.8745 0.4767 -0.0895
vn 0.2277 0.6298 0.7426
vn -0.9988 0.0277 0.0402
vn 0.4997 -0.0369 -0.8654
vn -0.4997 -0.0365 -0.8654
vn -0.4997 -0.0359 0.8655
vn -0.8314 0.5107 0.2191
vn 0.8840 0.4674 -0.0003
vn 0.4080 0.5679 -0.7149
s off
f 1//1 2//1 3//1
f 4//2 5//2 2//2
f 6//3 5//3 7//3
f 8//4 2//4 5//4
f 3//5 8//5 6//5
f 5//6 6//6 8//6
f 8//7 3//7 2//7
f 1//8 3//8 9//8
f 10//9 11//9 12//9
f 13//10 14//10 15//10
f 16//11 17//11 18//11
f 18//12 12//12 11//12
f 19//13 10//13 13//13
f 14//14 13//14 10//14
f 20//15 14//15 10//15
f 18//16 19//16 16//16
f 11//17 19//17 18//17
f 12//18 20//18 10//18
f 10//19 19//19 11//19
f 20//20 15//20 14//20
f 16//21 19//21 13//21
f 21//22 22//22 23//22
f 24//23 25//23 26//23
f 21//24 27//24 28//24
f 29//25 25//25 24//25
f 26//26 30//26 24//26
f 29//27 22//27 31//27
f 26//28 25//28 28//28
f 29//29 30//29 32//29
f 21//30 25//30 31//30
f 26//31 27//31 33//31
f 34//32 35//32 36//32
f 37//33 38//33 39//33
f 40//34 41//34 42//34
f 42//35 36//35 35//35
f 43//36 34//36 44//36
f 38//37 44//37 34//37
f 45//38 38//38 34//38
f 40//39 44//39 37//39
f 42//40 46//40 40//40
f 42//41 43//41 46//41
f 35//42 47//42 42//42
f 36//43 45//43 34//43
f 34//44 43//44 35//44
f 48//45 39//45 38//45
f 37//46 44//46 38//46
f 46//47 43//47 44//47
f 49//48 37//48 39//48
f 50//49 7//49 5//49
f 1//50 4//50 2//50
f 4//51 50//51 5//51
f 9//52 3//52 6//52
f 16//53 15//53 17//53
f 18//54 17//54 12//54
f 15//55 16//55 13//55
f 21//56 31//56 22//56
f 21//24 23//24 27//24
f 26//26 33//26 30//26
f 25//57 29//57 31//57
f 25//58 21//58 28//58
f 29//59 32//59 22//59
f 29//29 24//29 30//29
f 26//31 28//31 27//31
f 40//60 49//60 41//60
f 42//61 41//61 36//61
f 45//62 48//62 38//62
f 43//63 47//63 35//63
f 40//64 46//64 44//64
f 42//65 47//65 43//65
f 49//48 40//48 37//48
