# Blender v2.77 (sub 0) OBJ File: 'LowPoly_Level_Kit_Rocks.blend'
# www.blender.org
g Rock_Tile_m_05
v -0.200000 0.000000 0.200000
v -0.191222 0.050000 0.188361
v -0.200000 0.000000 -0.200000
v -0.191222 0.050000 -0.188361
v 0.074448 0.050000 -0.188361
v 0.109151 0.000000 -0.200000
v 0.111362 0.050000 0.188361
v 0.148345 0.000000 0.200000
vt 0.8590 0.8968
vt 0.8659 0.9483
vt 0.8590 0.9468
vt 0.8184 0.9468
vt 0.8187 0.8953
vt 0.8233 0.8968
vt 0.7666 0.9896
vt 0.7735 0.9483
vt 0.7735 0.9945
vt 0.7666 0.9483
vt 0.8082 0.8953
vt 0.8134 0.9483
vt 0.7804 0.9847
vt 0.7735 0.9483
vt 0.7804 0.9495
vt 0.8659 0.8953
vt 0.7666 0.9495
vt 0.7666 0.8953
vt 0.7735 0.9893
vn -0.9849 0.1729 0.0000
vn 0.8102 0.5808 -0.0794
vn 0.0000 0.2267 0.9740
vn 0.0000 1.0000 0.0000
vn 0.0000 -1.0000 0.0000
vn 0.0000 0.2267 -0.9740
s off
f 4/1/1 1/2/1 2/3/1
f 7/4/2 6/5/2 5/6/2
f 7/7/3 1/8/3 8/9/3
f 5/6/4 2/3/4 7/4/4
f 1/10/5 6/11/5 8/12/5
f 5/13/6 3/14/6 4/15/6
f 4/1/1 3/16/1 1/2/1
f 7/4/2 8/12/2 6/5/2
f 7/7/3 2/17/3 1/8/3
f 5/6/4 4/1/4 2/3/4
f 1/10/5 3/18/5 6/11/5
f 5/13/6 6/19/6 3/14/6
