# Blender v2.77 (sub 0) OBJ File: 'LowPoly_Level_Kit_Rocks.blend'
# www.blender.org
g Rock_Tile_m_06
v -0.200000 0.000000 0.200000
v -0.191730 0.050000 0.191910
v 0.200000 0.000000 -0.200000
v 0.191733 0.050000 -0.191553
v 0.191733 0.050000 0.073689
v 0.200000 0.000000 0.134463
v 0.095108 0.050000 0.191910
v 0.146435 0.000000 0.200000
v -0.200000 0.000000 -0.080626
v -0.094940 0.050000 -0.191553
v -0.191730 0.050000 -0.051246
v -0.117650 0.000000 -0.200000
vt 0.9574 0.6616
vt 0.9517 0.6881
vt 0.9517 0.6569
vt 0.9436 0.6818
vt 0.9391 0.6569
vt 0.9448 0.6579
vt 0.9461 0.6569
vt 0.9506 0.6797
vt 0.9448 0.6822
vt 0.9574 0.6874
vt 0.9448 0.6925
vt 0.9376 0.6870
vt 0.9376 0.6871
vt 0.8926 0.6677
vt 0.9018 0.6569
vt 0.8926 0.6930
vt 0.9248 0.6930
vt 0.8926 0.7169
vt 0.9357 0.7056
vt 0.9357 0.7275
vt 0.9034 0.7275
vt 0.9517 0.6924
vt 0.9457 0.6930
vt 0.9315 0.6930
vt 0.8926 0.6930
vt 0.9632 0.6569
vt 0.9574 0.6835
vt 0.9574 0.6577
vt 0.9376 0.6569
vt 0.9517 0.6578
vt 0.9383 0.6930
vt 0.9632 0.6855
vn 0.0000 0.1597 0.9872
vn 0.9866 0.1631 0.0000
vn -0.9866 0.1632 0.0000
vn 0.5763 0.6678 0.4710
vn 0.0000 -1.0000 0.0000
vn 0.0000 1.0000 0.0000
vn -0.7450 0.4252 -0.5139
vn 0.0000 0.1666 -0.9860
s off
f 7/1/1 1/2/1 8/3/1
f 5/4/2 3/5/2 4/6/2
f 1/7/3 11/8/3 9/9/3
f 7/1/1 2/10/1 1/2/1
f 7/11/4 6/12/4 5/4/4
f 5/4/2 6/12/2 3/5/2
f 6/13/5 9/14/5 12/15/5
f 4/16/6 10/17/6 5/18/6
f 11/19/6 2/20/6 7/21/6
f 9/9/7 10/22/7 12/23/7
f 8/24/5 1/25/5 9/14/5
f 3/26/8 10/27/8 4/28/8
f 3/29/5 6/13/5 12/15/5
f 11/19/6 5/18/6 10/17/6
f 1/7/3 2/30/3 11/8/3
f 7/11/4 8/31/4 6/12/4
f 6/13/5 8/24/5 9/14/5
f 9/9/7 11/8/7 10/22/7
f 3/26/8 12/32/8 10/27/8
f 11/19/6 7/21/6 5/18/6
