# Blender v2.77 (sub 0) OBJ File: 'LowPoly_Level_Kit_Rocks.blend'
# www.blender.org
g Rock_Tile_m_07
v -0.200000 0.000000 0.200000
v -0.191630 0.050000 0.193955
v 0.200000 0.000000 0.200000
v 0.191646 0.050000 0.193955
v 0.200000 0.000000 -0.200000
v 0.191646 0.050000 -0.189320
v -0.191630 0.050000 0.150877
v -0.200000 0.000000 0.145338
v 0.001097 0.050000 -0.189320
v -0.004361 0.000000 -0.200000
vt 0.2237 0.8917
vt 0.2318 0.9157
vt 0.2237 0.9150
vt 0.2077 0.9384
vt 0.2158 0.8906
vt 0.2158 0.9397
vt 0.2158 0.8917
vt 0.2237 0.9397
vt 0.2158 0.9387
vt 0.1991 0.8971
vt 0.2077 0.9434
vt 0.1997 0.9443
vt 0.2077 0.8918
vt 0.1998 0.8906
vt 0.1991 0.8906
vt 0.1991 0.9397
vt 0.1904 0.9397
vt 0.1964 0.9397
vt 0.1964 0.9868
vt 0.1896 0.9397
vt 0.1357 0.9157
vt 0.1357 0.9634
vt 0.1357 0.9868
vt 0.2318 0.8906
vt 0.2077 0.8914
vt 0.2237 0.8906
vt 0.2071 0.8969
vt 0.1357 0.8906
vn 0.0000 0.2089 -0.9779
vn 0.9863 0.1648 0.0000
vn 0.0000 0.1200 0.9928
vn -0.8531 0.1964 -0.4833
vn -0.9863 0.1651 0.0000
vn 0.0000 -1.0000 0.0000
vn 0.0000 1.0000 0.0000
s off
f 6/1/1 10/2/1 9/3/1
f 6/4/2 3/5/2 5/6/2
f 2/7/3 3/8/3 4/9/3
f 8/10/4 9/11/4 10/12/4
f 2/13/5 8/10/5 1/14/5
f 3/15/6 1/16/6 8/17/6
f 2/18/7 4/19/7 7/20/7
f 10/21/6 3/15/6 8/17/6
f 9/22/7 4/19/7 6/23/7
f 6/1/1 5/24/1 10/2/1
f 6/4/2 4/25/2 3/5/2
f 2/7/3 1/26/3 3/8/3
f 8/10/4 7/27/4 9/11/4
f 2/13/5 7/27/5 8/10/5
f 10/21/6 5/28/6 3/15/6
f 9/22/7 7/20/7 4/19/7
