# Blender v2.77 (sub 0) OBJ File: 'LowPoly_Level_Kit_Rocks.blend'
# www.blender.org
g Rock_Tile_m_11
v -0.141938 0.000000 0.200000
v -0.200000 0.000000 0.141938
v -0.186841 0.050000 0.128779
v -0.128779 0.050000 0.186841
v -0.200000 0.000000 -0.141938
v -0.141938 0.000000 -0.200000
v -0.128779 0.050000 -0.186841
v -0.186841 0.050000 -0.128779
v 0.200000 0.000000 0.141938
v 0.141938 0.000000 0.200000
v 0.128779 0.050000 0.186841
v 0.186841 0.050000 0.128779
v 0.141938 0.000000 -0.200000
v 0.200000 0.000000 -0.141938
v 0.186841 0.050000 -0.128779
v 0.128779 0.050000 -0.186841
vt 0.5654 0.8116
vt 0.5172 0.8047
vt 0.5736 0.8047
vt 0.5827 0.8028
vt 0.5736 0.7707
vt 0.5810 0.7720
vt 0.5699 0.8494
vt 0.5254 0.8564
vt 0.5172 0.8494
vt 0.6009 0.8028
vt 0.5918 0.7707
vt 0.5992 0.7720
vt 0.5918 0.8028
vt 0.5827 0.7707
vt 0.5901 0.7720
vt 0.6099 0.7650
vt 0.6009 0.7707
vt 0.6025 0.7637
vt 0.5918 0.7650
vt 0.5827 0.7650
vt 0.6009 0.7650
vt 0.6099 0.8028
vt 0.6082 0.7720
vt 0.5254 0.8116
vt 0.5699 0.8186
vt 0.5172 0.8186
vt 0.5172 0.7706
vt 0.5736 0.7706
vt 0.5254 0.7637
vt 0.5654 0.7637
vt 0.5254 0.8116
vt 0.5755 0.8047
vt 0.5617 0.8564
vt 0.5937 0.8047
vt 0.5846 0.8047
vt 0.5844 0.7637
vt 0.5753 0.7637
vt 0.5935 0.7637
vt 0.6027 0.8047
vt 0.5617 0.8116
vn 0.0000 -1.0000 0.0000
vn 0.9671 0.2545 0.0000
vn 0.0000 1.0000 0.0000
vn 0.0000 0.2545 0.9671
vn 0.0000 0.2545 -0.9671
vn -0.6627 0.3488 0.6627
vn -0.6627 0.3488 -0.6627
vn 0.6627 0.3488 -0.6627
vn 0.6627 0.3488 0.6627
vn -0.9671 0.2545 0.0000
s off
f 2/1/1 6/2/1 1/3/1
f 12/4/2 14/5/2 15/6/2
f 7/7/3 3/8/3 4/9/3
f 4/10/4 10/11/4 11/12/4
f 16/13/5 6/14/5 7/15/5
f 4/16/6 2/17/6 1/18/6
f 6/14/7 8/19/7 7/15/7
f 14/5/8 16/20/8 15/6/8
f 10/11/9 12/21/9 11/12/9
f 8/22/10 2/17/10 3/23/10
f 12/24/3 16/25/3 11/26/3
f 11/26/3 7/7/3 4/9/3
f 1/3/1 13/27/1 10/28/1
f 10/28/1 14/29/1 9/30/1
f 2/1/1 5/31/1 6/2/1
f 12/4/2 9/32/2 14/5/2
f 7/7/3 8/33/3 3/8/3
f 4/10/4 1/34/4 10/11/4
f 16/13/5 13/35/5 6/14/5
f 4/16/6 3/23/6 2/17/6
f 6/14/7 5/36/7 8/19/7
f 14/5/8 13/37/8 16/20/8
f 10/11/9 9/38/9 12/21/9
f 8/22/10 5/39/10 2/17/10
f 12/24/3 15/40/3 16/25/3
f 11/26/3 16/25/3 7/7/3
f 1/3/1 6/2/1 13/27/1
f 10/28/1 13/27/1 14/29/1
