# Blender v2.77 (sub 0) OBJ File: 'LowPoly_Level_Kit_Rocks.blend'
# www.blender.org
g Rock_Tile_m_10
v 0.200000 0.000000 0.200000
v 0.192130 0.050000 0.193254
v -0.195794 0.050000 0.031425
v -0.200000 0.000000 0.036440
v 0.192130 0.050000 -0.097591
v 0.200000 0.000000 -0.132196
v -0.088163 0.000000 -0.147663
v -0.107647 0.050000 -0.113681
v -0.200000 0.000000 0.169560
v -0.109403 0.050000 0.193254
v -0.147237 0.000000 0.200000
v -0.195794 0.050000 0.143413
vt 0.0422 0.9465
vt 0.0628 0.8948
vt 0.0628 0.9397
vt 0.0671 0.9057
vt 0.0857 0.8948
vt 0.1058 0.9065
vt 0.0189 0.9320
vt 0.0209 0.8948
vt 0.0628 0.9620
vt 0.0694 0.9488
vt 0.0691 0.9628
vt 0.0757 0.9454
vt 0.0694 0.9839
vt 0.0694 0.9463
vt 0.1129 0.9461
vt 0.1058 0.9397
vt 0.1123 0.9349
vt 0.0590 0.9465
vt 0.1066 0.8948
vt 0.0694 0.9839
vt 0.0628 0.9082
vt 0.0683 0.9445
vt 0.0639 0.9454
vt 0.0998 0.8952
vt 0.1049 0.9454
vt 0.0631 0.9454
vt 0.0757 0.9884
vt 0.1062 0.9465
vt 0.1129 0.8959
vt 0.0631 0.9888
vn 0.0000 -1.0000 -0.0000
vn 0.0000 1.0000 0.0000
vn -0.9965 0.0838 0.0000
vn 0.9878 0.1555 0.0000
vn -0.4479 0.4436 0.7763
vn 0.0000 0.1337 0.9910
vn -0.8545 0.0198 -0.5191
vn 0.0439 0.5732 -0.8182
s off
f 4/1/1 1/2/1 11/3/1
f 8/4/2 3/5/2 10/6/2
f 1/2/1 7/7/1 6/8/1
f 4/9/3 12/10/3 3/11/3
f 1/12/4 5/13/4 2/14/4
f 12/15/5 11/16/5 10/17/5
f 11/3/1 9/18/1 4/1/1
f 1/19/6 10/17/6 11/16/6
f 8/20/7 4/9/7 3/11/7
f 7/21/8 5/22/8 6/23/8
f 3/5/2 12/24/2 10/6/2
f 5/22/2 10/6/2 2/25/2
f 1/2/1 4/1/1 7/7/1
f 4/9/3 9/26/3 12/10/3
f 1/12/4 6/27/4 5/13/4
f 12/15/5 9/28/5 11/16/5
f 1/19/6 2/29/6 10/17/6
f 8/20/7 7/30/7 4/9/7
f 7/21/8 8/4/8 5/22/8
f 5/22/2 8/4/2 10/6/2
