# Blender v2.77 (sub 0) OBJ File: 'LowPoly_Level_Kit_Rocks.blend'
# www.blender.org
g Rock_Tile_m_04
v -0.200000 0.000000 -0.200000
v -0.189483 0.050000 -0.187083
v 0.200000 0.000000 -0.200000
v 0.189875 0.050000 -0.187083
v -0.189483 0.050000 0.105777
v -0.200000 0.000000 0.109613
v -0.109586 0.050000 0.192275
v -0.116511 0.000000 0.200000
v 0.189875 0.050000 0.134689
v 0.200000 0.000000 0.134782
v 0.070337 0.000000 0.200000
v 0.069510 0.050000 0.192275
vt 0.0822 0.9112
vt 0.0865 0.9196
vt 0.0807 0.9194
vt 0.0879 0.9461
vt 0.0822 0.9474
vt 0.1058 0.9112
vt 0.1001 0.9403
vt 0.1001 0.9112
vt 0.0938 0.9240
vt 0.1001 0.9397
vt 0.0943 0.9404
vt 0.0354 0.9583
vt 0.0419 0.9474
vt 0.0784 0.9474
vt 0.0354 0.9474
vt 0.0807 0.9474
vt 0.0452 0.9817
vt 0.0354 0.9745
vt 0.0712 0.9112
vt 0.0500 0.9112
vt 0.0354 0.9171
vt 0.1001 0.9121
vt 0.0995 0.9239
vt 0.0784 0.9817
vt 0.0879 0.9464
vt 0.0938 0.9112
vt 0.0938 0.9474
vt 0.0879 0.9117
vt 0.1058 0.9415
vt 0.0944 0.9112
vt 0.0879 0.9121
vn -0.7194 0.2023 0.6645
vn -0.9786 0.2058 0.0000
vn 0.9801 0.1985 0.0000
vn 0.0000 0.1527 0.9883
vn 0.0000 1.0000 0.0000
vn 0.0000 -1.0000 0.0000
vn 0.4270 0.1450 0.8925
vn 0.0000 0.2501 -0.9682
vn 0.4474 0.0923 0.8895
s off
f 8/1/1 5/2/1 6/3/1
f 6/3/2 2/4/2 1/5/2
f 10/6/3 4/7/3 9/8/3
f 11/9/4 7/10/4 8/11/4
f 12/12/5 9/13/5 4/14/5
f 3/15/6 6/3/6 1/16/6
f 5/17/5 7/18/5 12/12/5
f 8/19/6 6/3/6 11/20/6
f 10/21/6 11/20/6 3/15/6
f 11/9/7 9/22/7 12/23/7
f 5/17/5 4/14/5 2/24/5
f 2/25/8 3/26/8 1/27/8
f 8/1/1 7/28/1 5/2/1
f 6/3/2 5/2/2 2/4/2
f 10/6/3 3/29/3 4/7/3
f 11/9/4 12/23/4 7/10/4
f 3/15/6 11/20/6 6/3/6
f 11/9/9 10/30/9 9/22/9
f 5/17/5 12/12/5 4/14/5
f 2/25/8 4/31/8 3/26/8
