# Blender v2.77 (sub 0) OBJ File: 'LowPoly_Level_Kit_Rocks.blend'
# www.blender.org
g Rock_Tile_crk_m_03
v -0.245326 -0.014081 -0.232508
v -0.241015 0.035919 -0.226702
v -0.241015 0.035919 0.100697
v -0.245326 -0.014081 0.066113
v 0.002046 0.035919 -0.226702
v -0.023630 -0.014081 -0.232508
v -0.219291 0.000000 0.178638
v -0.214051 0.050000 0.175701
v 0.178638 0.000000 0.219291
v 0.174536 0.050000 0.215399
v 0.219291 0.000000 -0.178638
v 0.214234 0.050000 -0.173187
v -0.208574 0.050000 0.122093
v -0.208987 0.000000 0.077784
v 0.074335 0.050000 -0.187479
v 0.041910 0.000000 -0.196759
vt 0.4154 0.9844
vt 0.3948 0.9563
vt 0.4154 0.9408
vt 0.4411 0.9397
vt 0.4693 0.9781
vt 0.4411 0.9781
vt 0.3948 0.9408
vt 0.3948 0.8939
vt 0.4065 0.8939
vt 0.4411 0.9397
vt 0.4411 0.8939
vt 0.4474 0.9397
vt 0.4209 0.9415
vt 0.4154 0.9783
vt 0.4864 0.9104
vt 0.4411 0.9199
vt 0.4411 0.9408
vt 0.4758 0.9866
vt 0.4816 0.9404
vt 0.4816 0.9862
vt 0.4267 0.9692
vt 0.4325 0.9438
vt 0.4325 0.9697
vt 0.4209 0.9415
vt 0.4267 0.9757
vt 0.4209 0.9798
vt 0.4693 0.9515
vt 0.4758 0.9848
vt 0.4696 0.9853
vt 0.4754 0.9468
vt 0.4700 0.9397
vt 0.4758 0.9405
vt 0.4325 0.9578
vt 0.4384 0.9408
vt 0.4384 0.9617
vt 0.4874 0.9866
vt 0.4816 0.9403
vt 0.4874 0.9397
vt 0.4209 0.9826
vt 0.4864 0.8939
vt 0.4758 0.9397
vt 0.4267 0.9408
vt 0.4267 0.9408
vt 0.4325 0.9413
vt 0.4816 0.9860
vn 0.0000 -1.0000 0.0000
vn 0.0000 1.0000 0.0000
vn 0.7234 -0.4338 0.5371
vn 0.9909 0.0892 0.1012
vn 0.0000 0.1153 -0.9933
vn -0.9963 0.0859 0.0000
vn -0.6319 0.5170 -0.5775
vn -0.9901 0.0978 -0.1011
vn 0.1009 0.1179 -0.9879
vn -0.1014 0.0689 0.9925
s off
f 4/1/1 1/2/1 6/3/1
f 3/4/2 5/5/2 2/6/2
f 9/7/1 7/8/1 14/9/1
f 8/10/2 10/11/2 13/12/2
f 5/13/3 4/14/3 6/3/3
f 10/11/2 15/15/2 13/12/2
f 9/7/1 16/16/1 11/17/1
f 9/18/4 12/19/4 10/20/4
f 2/21/5 6/22/5 1/23/5
f 2/24/6 4/25/6 3/26/6
f 14/27/7 15/28/7 16/29/7
f 13/30/8 7/31/8 8/32/8
f 15/33/9 11/34/9 16/35/9
f 9/36/10 8/37/10 7/38/10
f 5/13/3 3/39/3 4/14/3
f 10/11/2 12/40/2 15/15/2
f 9/7/1 14/9/1 16/16/1
f 9/18/4 11/41/4 12/19/4
f 2/21/5 5/42/5 6/22/5
f 2/24/6 1/43/6 4/25/6
f 14/27/7 13/30/7 15/28/7
f 13/30/8 14/27/8 7/31/8
f 15/33/9 12/44/9 11/34/9
f 9/36/10 10/45/10 8/37/10
