# Blender v2.77 (sub 0) OBJ File: 'LowPoly_Level_Kit_Rocks.blend'
# www.blender.org
g Rock_Tile_crk_m_07
v 0.230233 0.000000 0.162334
v -0.188355 0.000000 -0.218171
v -0.176162 0.050000 -0.211604
v 0.222796 0.050000 0.151056
v -0.013018 0.050000 0.025572
v 0.204647 0.050000 -0.229753
v -0.017184 -0.000000 0.030675
v 0.211191 0.000000 -0.237213
v 0.192894 0.000000 0.191716
v -0.200610 0.050000 0.185506
v -0.207106 0.000000 -0.208284
v -0.200610 0.050000 -0.192786
v -0.207106 0.000000 0.191716
v 0.177683 0.050000 0.185506
v -0.050115 0.050000 0.049995
v -0.047975 -0.000000 0.048429
vt 0.8925 0.9206
vt 0.9183 0.8893
vt 0.9183 0.9380
vt 0.9329 0.9173
vt 0.9183 0.8893
vt 0.9591 0.8893
vt 0.9591 0.9357
vt 0.8754 0.8893
vt 0.9591 0.9224
vt 0.9661 0.8909
vt 0.9645 0.9224
vt 0.9661 0.9565
vt 0.9645 0.9595
vt 0.9591 0.9912
vt 0.9591 0.9581
vt 0.9715 0.9885
vt 0.9661 0.9595
vt 0.9715 0.9581
vt 0.9183 0.9817
vt 0.9427 0.9652
vt 0.9588 0.9817
vt 0.9588 0.9357
vt 0.9183 0.9380
vt 0.9183 0.9866
vt 0.9029 0.9673
vt 0.8754 0.9866
vt 0.9718 0.8912
vt 0.9772 0.9380
vt 0.9718 0.9372
vt 0.9718 0.9834
vt 0.9718 0.9388
vt 0.9664 0.8912
vt 0.9714 0.9225
vt 0.9661 0.9225
vt 0.9664 0.9562
vt 0.9607 0.8893
vt 0.9607 0.9581
vt 0.9645 0.9910
vt 0.9661 0.9884
vt 0.9772 0.8893
vt 0.9772 0.9852
vt 0.9718 0.8893
vt 0.9718 0.9581
vn 0.0000 -1.0000 -0.0000
vn -0.0000 1.0000 0.0000
vn -0.0471 0.1414 -0.9888
vn 0.9895 0.1365 -0.0472
vn -0.4659 0.1282 0.8755
vn -0.8174 0.1255 0.5623
vn -0.9917 0.1288 0.0000
vn 0.0000 0.1233 0.9924
vn 0.5106 0.0487 -0.8584
vn 0.8488 0.0528 -0.5261
vn 0.9895 0.1366 -0.0472
s off
f 7/1/1 8/2/1 1/3/1
f 5/4/2 4/5/2 6/6/2
f 3/7/2 5/4/2 6/6/2
f 2/8/1 8/2/1 7/1/1
f 8/9/3 3/10/3 6/11/3
f 4/12/4 8/9/4 6/11/4
f 4/13/5 7/14/5 1/15/5
f 7/16/6 3/17/6 2/18/6
f 14/19/2 15/20/2 10/21/2
f 15/20/2 12/22/2 10/21/2
f 9/23/1 13/24/1 16/25/1
f 16/25/1 13/24/1 11/26/1
f 12/27/7 13/28/7 10/29/7
f 13/28/8 14/30/8 10/31/8
f 14/32/9 16/33/9 15/34/9
f 16/33/10 12/35/10 15/34/10
f 8/9/3 2/36/3 3/10/3
f 4/12/11 1/37/11 8/9/11
f 4/13/5 5/38/5 7/14/5
f 7/16/6 5/39/6 3/17/6
f 12/27/7 11/40/7 13/28/7
f 13/28/8 9/41/8 14/30/8
f 14/32/9 9/42/9 16/33/9
f 16/33/10 11/43/10 12/35/10
