# Blender v2.77 (sub 0) OBJ File: 'LowPoly_Level_Kit_Rocks.blend'
# www.blender.org
g Rock_Tiles_m_07
v 0.012180 0.049859 -0.187823
v 0.400000 -0.000141 -0.200003
v 0.387821 0.049859 -0.187823
v 0.012180 0.049859 0.187818
v 0.400000 -0.000141 0.199997
v 0.387821 0.049859 0.187817
v -0.000000 -0.000141 -0.200003
v -0.000000 -0.000141 0.199997
v -0.400000 0.000000 -0.199999
v -0.382008 0.051113 -0.182008
v 0.000000 0.000000 -0.199999
v -0.017992 0.051113 -0.182008
v -0.400000 0.000000 0.200001
v -0.382008 0.073642 0.182009
v 0.000000 0.000000 0.200001
v -0.017992 0.073642 0.182009
vt 0.1107 0.9372
vt 0.1157 0.8881
vt 0.1157 0.9387
vt 0.1143 0.9877
vt 0.1093 0.9387
vt 0.1143 0.9402
vt 0.1043 0.9402
vt 0.1093 0.9893
vt 0.1043 0.9877
vt 0.1057 0.8897
vt 0.1107 0.9387
vt 0.1057 0.9372
vt 0.0146 0.8881
vt 0.0538 0.9387
vt 0.0146 0.9387
vt 0.0146 0.9387
vt 0.0514 0.9862
vt 0.0146 0.9862
vt 0.2220 0.9364
vt 0.2273 0.8881
vt 0.2273 0.9387
vt 0.2168 0.9364
vt 0.2220 0.8881
vt 0.2220 0.9387
vt 0.2111 0.9410
vt 0.2185 0.9893
vt 0.2111 0.9870
vt 0.2207 0.9410
vt 0.2259 0.9893
vt 0.2185 0.9870
vt 0.1755 0.9387
vt 0.2146 0.8881
vt 0.2146 0.9387
vt 0.2111 0.9387
vt 0.1755 0.9848
vt 0.1755 0.9387
vt 0.1107 0.8897
vt 0.1093 0.9387
vt 0.1107 0.8881
vt 0.0538 0.8881
vt 0.0514 0.9387
vt 0.2220 0.8904
vt 0.2146 0.8904
vt 0.2185 0.9387
vt 0.2259 0.9387
vt 0.1755 0.8881
vt 0.2111 0.9848
vn 0.0000 0.2367 -0.9716
vn 0.9716 0.2367 0.0000
vn 0.0000 0.2367 0.9716
vn -0.9716 0.2367 0.0000
vn 0.0000 -1.0000 -0.0000
vn 0.0000 1.0000 0.0000
vn -0.0000 0.3320 -0.9433
vn 0.9433 0.3320 -0.0000
vn 0.0000 0.2373 0.9714
vn -0.9721 0.2340 -0.0145
vn -0.0000 0.9981 -0.0618
vn 0.9721 0.2340 -0.0145
vn -0.9433 0.3320 0.0000
s off
f 1/1/1 2/2/1 7/3/1
f 6/4/2 2/5/2 3/6/2
f 4/7/3 5/8/3 6/9/3
f 1/10/4 8/11/4 4/12/4
f 2/13/5 8/14/5 7/15/5
f 6/16/6 1/17/6 4/18/6
f 10/19/7 11/20/7 9/21/7
f 12/22/8 15/23/8 11/24/8
f 14/25/9 15/26/9 16/27/9
f 10/28/10 13/29/10 14/30/10
f 11/31/5 13/32/5 9/33/5
f 16/34/11 10/35/11 14/36/11
f 1/1/1 3/37/1 2/2/1
f 6/4/2 5/8/2 2/5/2
f 4/7/3 8/38/3 5/8/3
f 1/10/4 7/39/4 8/11/4
f 2/13/5 5/40/5 8/14/5
f 6/16/6 3/41/6 1/17/6
f 10/19/7 12/42/7 11/20/7
f 12/22/12 16/43/12 15/23/12
f 14/25/9 13/44/9 15/26/9
f 10/28/13 9/45/13 13/29/13
f 11/31/5 15/46/5 13/32/5
f 16/34/11 12/47/11 10/35/11
