# Blender v2.77 (sub 0) OBJ File: 'LowPoly_Level_Kit_Rocks.blend'
# www.blender.org
g Rock_Tile_crk_m_04
v -0.200000 0.000100 -0.225260
v -0.194812 0.049847 -0.218944
v -0.194812 0.044296 -0.025154
v -0.200000 -0.005765 0.004669
v 0.197148 0.044296 -0.025154
v 0.200000 -0.005765 0.004669
v 0.056368 0.049847 -0.218944
v 0.108068 0.000100 -0.225260
v 0.200000 -0.000822 -0.189118
v 0.197148 0.048264 -0.163683
v -0.200000 -0.001389 0.208100
v -0.191904 0.048491 0.202777
v 0.200000 -0.001389 0.208100
v 0.191904 0.048491 0.202777
v -0.191904 0.043592 0.010936
v -0.200000 -0.005788 0.035850
v 0.191904 0.043592 0.010936
v 0.200000 -0.005788 0.035850
vt 0.5488 0.9622
vt 0.5555 0.9355
vt 0.5555 0.9663
vt 0.5954 0.9236
vt 0.6036 0.9367
vt 0.5962 0.9366
vt 0.5124 0.9407
vt 0.5191 0.9626
vt 0.5124 0.9593
vt 0.6112 0.9358
vt 0.6036 0.8829
vt 0.6112 0.8832
vt 0.5124 0.8952
vt 0.5172 0.8829
vt 0.5434 0.8829
vt 0.6023 0.9168
vt 0.5969 0.8829
vt 0.6036 0.8836
vt 0.5691 0.9612
vt 0.5623 0.9386
vt 0.5691 0.9355
vt 0.6112 0.8839
vt 0.6179 0.9365
vt 0.6112 0.9355
vt 0.5695 0.9344
vt 0.5954 0.8829
vt 0.5954 0.9344
vt 0.5927 0.9344
vt 0.5695 0.9880
vt 0.5695 0.9344
vt 0.5623 0.9360
vt 0.5555 0.9586
vt 0.5555 0.9355
vt 0.5434 0.9883
vt 0.5487 0.9356
vt 0.5487 0.9864
vt 0.5434 0.9166
vt 0.5695 0.8829
vt 0.5695 0.9355
vt 0.5508 0.9355
vt 0.5434 0.9365
vt 0.5124 0.9365
vt 0.5487 0.9361
vt 0.5191 0.9365
vt 0.6036 0.9365
vt 0.5623 0.9618
vt 0.6179 0.8829
vt 0.5695 0.8829
vt 0.5927 0.9880
vt 0.5623 0.9618
vt 0.5434 0.9355
vt 0.5434 0.8829
vn -0.9945 0.1046 0.0027
vn 0.3308 0.4493 -0.8299
vn 0.9984 0.0572 0.0016
vn 0.0000 0.5118 0.8591
vn 0.0000 -0.9997 -0.0255
vn 0.0000 0.1260 -0.9920
vn 0.9871 0.1598 -0.0041
vn 0.0000 0.1061 0.9944
vn 0.0000 0.9997 -0.0255
vn 0.0000 -0.9997 0.0255
vn -0.9871 0.1598 -0.0041
vn 0.0000 -0.4505 -0.8928
vn 0.0000 0.9996 0.0286
vn -0.9946 0.1033 0.0030
vn 0.3308 0.4492 -0.8299
vn 0.9983 0.0578 0.0015
s off
f 3/1/1 1/2/1 4/3/1
f 8/4/2 10/5/2 9/6/2
f 5/7/3 9/8/3 10/9/3
f 3/10/4 6/11/4 5/12/4
f 8/13/5 9/14/5 6/15/5
f 7/16/6 1/17/6 2/18/6
f 14/19/7 18/20/7 17/21/7
f 12/22/8 13/23/8 14/24/8
f 17/25/9 12/26/9 14/27/9
f 16/28/10 13/29/10 11/30/10
f 12/31/11 16/32/11 11/33/11
f 18/34/12 15/35/12 17/36/12
f 7/37/13 3/38/13 5/39/13
f 10/40/13 7/37/13 5/39/13
f 8/13/5 4/41/5 1/42/5
f 3/1/14 2/43/14 1/2/14
f 8/4/15 7/16/15 10/5/15
f 5/7/16 6/44/16 9/8/16
f 3/10/4 4/45/4 6/11/4
f 7/16/6 8/4/6 1/17/6
f 14/19/7 13/46/7 18/20/7
f 12/22/8 11/47/8 13/23/8
f 17/25/9 15/48/9 12/26/9
f 16/28/10 18/49/10 13/29/10
f 12/31/11 15/50/11 16/32/11
f 18/34/12 16/51/12 15/35/12
f 7/37/13 2/52/13 3/38/13
f 8/13/5 6/15/5 4/41/5
