# Blender v2.77 (sub 0) OBJ File: 'LowPoly_Level_Kit_Rocks.blend'
# www.blender.org
g Rock_Tiles_m_06
v 0.400000 -0.000141 0.199999
v -0.000000 -0.000141 0.199999
v 0.000000 -0.000141 -0.200000
v 0.012180 0.049859 -0.187820
v 0.400000 -0.000141 -0.200000
v 0.387821 0.049859 -0.187820
v 0.012180 0.044951 0.187820
v 0.387821 0.044951 0.187820
v -0.400000 -0.000141 0.199999
v -0.000000 -0.000141 0.199999
v -0.400000 -0.000141 -0.199996
v -0.387820 0.049859 -0.187816
v -0.012180 0.049859 -0.187816
v -0.387820 0.049859 0.187824
v -0.012180 0.049859 0.187824
v 0.000000 -0.000141 -0.200000
vt 0.9684 0.6933
vt 0.9639 0.6512
vt 0.9684 0.6526
vt 0.9690 0.6959
vt 0.9731 0.7380
vt 0.9686 0.7367
vt 0.9814 0.6933
vt 0.9773 0.6512
vt 0.9814 0.6526
vt 0.9688 0.6933
vt 0.9728 0.6512
vt 0.9728 0.6946
vt 0.8946 0.6946
vt 0.9293 0.6512
vt 0.9293 0.6946
vt 0.8946 0.7353
vt 0.9272 0.6946
vt 0.9272 0.7353
vt 0.8379 0.6959
vt 0.8424 0.7380
vt 0.8379 0.7367
vt 0.8424 0.7367
vt 0.8468 0.6946
vt 0.8468 0.7380
vt 0.8513 0.6959
vt 0.8557 0.7380
vt 0.8513 0.7367
vt 0.8510 0.6526
vt 0.8555 0.6946
vt 0.8510 0.6933
vt 0.8075 0.6946
vt 0.8421 0.6512
vt 0.8421 0.6946
vt 0.8053 0.7353
vt 0.8379 0.6946
vt 0.8379 0.7353
vt 0.9639 0.6946
vt 0.9731 0.6946
vt 0.9773 0.6946
vt 0.8946 0.6512
vt 0.8946 0.6946
vt 0.8424 0.6946
vt 0.8424 0.6959
vt 0.8557 0.6946
vt 0.8555 0.6512
vt 0.8075 0.6512
vt 0.8053 0.6946
vn 0.0000 0.2367 -0.9716
vn 0.9718 0.2360 0.0031
vn 0.0000 0.2607 0.9654
vn -0.9654 0.2608 -0.0000
vn 0.0000 -1.0000 0.0000
vn 0.0000 0.9999 0.0131
vn 0.9716 0.2367 0.0000
vn 0.0000 0.2366 0.9716
vn -0.9716 0.2367 0.0000
vn 0.0000 1.0000 0.0000
vn 0.9654 0.2608 -0.0000
vn -0.9718 0.2360 0.0031
s off
f 6/1/1 3/2/1 4/3/1
f 8/4/2 5/5/2 6/6/2
f 7/7/3 1/8/3 8/9/3
f 7/10/4 3/11/4 2/12/4
f 3/13/5 1/14/5 2/15/5
f 8/16/6 4/17/6 7/18/6
f 13/19/1 11/20/1 12/21/1
f 13/22/7 10/23/7 16/24/7
f 14/25/8 10/26/8 15/27/8
f 12/28/9 9/29/9 14/30/9
f 11/31/5 10/32/5 9/33/5
f 15/34/10 12/35/10 14/36/10
f 6/1/1 5/37/1 3/2/1
f 8/4/11 1/38/11 5/5/11
f 7/7/3 2/39/3 1/8/3
f 7/10/12 4/3/12 3/11/12
f 3/13/5 5/40/5 1/14/5
f 8/16/6 6/41/6 4/17/6
f 13/19/1 16/42/1 11/20/1
f 13/22/7 15/43/7 10/23/7
f 14/25/8 9/44/8 10/26/8
f 12/28/9 11/45/9 9/29/9
f 11/31/5 16/46/5 10/32/5
f 15/34/10 13/47/10 12/35/10
