# Blender v2.77 (sub 0) OBJ File: 'LowPoly_Level_Kit_Rocks.blend'
# www.blender.org
g Rock_Tiles_m_12
v -0.431414 -0.014081 -0.358569
v -0.427104 0.035919 -0.352763
v -0.427104 0.035919 -0.025364
v -0.431414 -0.014081 -0.059948
v -0.184043 0.035919 -0.352763
v -0.209718 -0.014081 -0.358569
v -0.405379 0.000000 0.052577
v -0.400139 0.050000 0.049641
v -0.007450 0.000000 0.093230
v -0.011552 0.050000 0.089338
v 0.033202 0.000000 -0.304699
v 0.028146 0.050000 -0.299248
v -0.394662 0.050000 -0.003968
v -0.395076 0.000000 -0.048277
v -0.111753 0.050000 -0.313540
v -0.144179 0.000000 -0.322820
v -0.203798 0.086336 -0.060794
v 0.196659 0.000146 0.329341
v 0.187028 0.050344 0.333178
v -0.197864 0.099883 0.094683
v -0.203532 0.040689 0.126304
v -0.155712 0.042958 0.331864
v -0.167697 -0.007705 0.327944
v 0.066818 0.138933 -0.040966
v 0.143713 0.093824 -0.059462
v 0.186631 0.118362 0.054381
v 0.196165 0.084819 -0.017720
v -0.197984 0.120397 0.010599
v -0.075013 0.135876 -0.041510
v 0.058112 0.000000 0.106445
v 0.070237 0.050767 0.093802
v 0.049744 0.000000 -0.293467
v 0.062388 0.050767 -0.281342
v 0.458024 0.000000 0.098078
v 0.445381 0.073989 0.085953
v 0.449657 0.000000 -0.301834
v 0.437532 0.073989 -0.289191
vt 0.6494 0.9586
vt 0.6494 0.9845
vt 0.6311 0.9845
vt 0.7167 0.9174
vt 0.6966 0.8889
vt 0.7167 0.8889
vt 0.6639 0.9238
vt 0.6639 0.8889
vt 0.6722 0.8889
vt 0.7287 0.9238
vt 0.7287 0.9578
vt 0.7242 0.9238
vt 0.7323 0.9246
vt 0.7287 0.9507
vt 0.7287 0.9238
vt 0.6965 0.9455
vt 0.6966 0.9082
vt 0.6966 0.9238
vt 0.6725 0.9934
vt 0.6767 0.9592
vt 0.6767 0.9931
vt 0.7331 0.8893
vt 0.7290 0.9082
vt 0.7290 0.8889
vt 0.7315 0.9863
vt 0.7274 0.9608
vt 0.7315 0.9578
vt 0.6555 0.9673
vt 0.6604 0.9904
vt 0.6559 0.9907
vt 0.6600 0.9640
vt 0.6563 0.9586
vt 0.6604 0.9594
vt 0.7315 0.9703
vt 0.7356 0.9578
vt 0.7356 0.9732
vt 0.6767 0.9587
vt 0.6808 0.9930
vt 0.6767 0.9934
vt 0.5828 0.9843
vt 0.5869 0.9587
vt 0.5869 0.9898
vt 0.5618 0.9284
vt 0.5652 0.9238
vt 0.5775 0.9586
vt 0.5944 0.9587
vt 0.5944 0.9889
vt 0.5903 0.9776
vt 0.5304 0.9350
vt 0.5290 0.9238
vt 0.5348 0.9243
vt 0.5661 0.9880
vt 0.5621 0.9935
vt 0.5618 0.9767
vt 0.5304 0.9474
vt 0.5418 0.9244
vt 0.5828 0.9594
vt 0.5614 0.9281
vt 0.5383 0.9578
vt 0.5290 0.9541
vt 0.5661 0.9593
vt 0.5660 0.9805
vt 0.5618 0.9587
vt 0.5903 0.9652
vt 0.5944 0.9238
vt 0.5787 0.9587
vt 0.5828 0.9892
vt 0.5787 0.9904
vt 0.6725 0.9924
vt 0.6682 0.9587
vt 0.6725 0.9597
vt 0.7247 0.9227
vt 0.7290 0.8889
vt 0.7290 0.9237
vt 0.7167 0.8900
vt 0.7228 0.9237
vt 0.7167 0.9226
vt 0.6513 0.9597
vt 0.6555 0.9934
vt 0.6494 0.9923
vt 0.6311 0.9238
vt 0.6639 0.8889
vt 0.6639 0.9238
vt 0.7274 0.9578
vt 0.6965 0.9905
vt 0.6965 0.9578
vt 0.7323 0.9541
vt 0.6965 0.9578
vt 0.6725 0.9587
vt 0.7331 0.9105
vt 0.7274 0.9868
vt 0.7315 0.9581
vt 0.6808 0.9590
vt 0.5614 0.9579
vt 0.5324 0.9586
vt 0.5619 0.9587
vt 0.5944 0.9555
vt 0.6682 0.9935
vt 0.7228 0.8900
vt 0.7228 0.8889
vt 0.6555 0.9586
vt 0.6311 0.8890
vt 0.7274 0.9905
vn 0.0000 -1.0000 0.0000
vn 0.0000 1.0000 0.0000
vn 0.7234 -0.4338 0.5371
vn 0.9909 0.0892 0.1012
vn 0.0000 0.1153 -0.9933
vn -0.9963 0.0859 0.0000
vn -0.6319 0.5170 -0.5775
vn -0.9901 0.0978 -0.1011
vn 0.1009 0.1179 -0.9879
vn -0.1014 0.0689 0.9925
vn 0.9818 0.1850 0.0437
vn 0.0218 -0.9713 -0.2370
vn -0.0045 0.3728 -0.9279
vn -0.2777 0.8756 -0.3951
vn -0.9935 0.1103 0.0283
vn -0.0218 0.9713 0.2370
vn 0.4143 0.8449 -0.3383
vn -0.9531 0.2085 0.2194
vn -0.0022 -0.0766 0.9971
vn -0.9713 0.2370 0.0203
vn -0.0203 0.2370 -0.9713
vn 0.9861 0.1651 -0.0206
vn 0.0105 0.1635 0.9865
vn -0.0618 0.9981 0.0013
vn -0.0307 0.1635 -0.9861
vn 0.0203 0.2370 0.9713
s off
f 4/1/1 1/2/1 6/3/1
f 3/4/2 5/5/2 2/6/2
f 9/7/1 7/8/1 14/9/1
f 8/10/2 10/11/2 13/12/2
f 5/13/3 4/14/3 6/15/3
f 10/11/2 15/16/2 13/12/2
f 9/7/1 16/17/1 11/18/1
f 9/19/4 12/20/4 10/21/4
f 2/22/5 6/23/5 1/24/5
f 2/25/6 4/26/6 3/27/6
f 14/28/7 15/29/7 16/30/7
f 13/31/8 7/32/8 8/33/8
f 15/34/9 11/35/9 16/36/9
f 9/37/10 8/38/10 7/39/10
f 26/40/11 18/41/11 27/42/11
f 25/43/12 27/44/12 21/45/12
f 25/46/13 17/47/13 29/48/13
f 29/49/14 17/50/14 28/51/14
f 28/52/15 17/53/15 21/54/15
f 24/55/16 29/49/16 20/56/16
f 26/40/11 19/57/11 18/41/11
f 22/58/16 26/59/16 20/56/16
f 26/59/17 25/60/17 24/55/17
f 21/54/18 22/61/18 20/62/18
f 17/63/12 25/43/12 21/45/12
f 24/64/13 25/46/13 29/48/13
f 21/54/15 20/62/15 28/52/15
f 18/65/12 21/45/12 27/44/12
f 26/59/16 24/55/16 20/56/16
f 29/49/16 28/51/16 20/56/16
f 18/66/19 22/67/19 23/68/19
f 33/69/20 30/70/20 31/71/20
f 33/72/21 36/73/21 32/74/21
f 35/75/22 36/76/22 37/77/22
f 31/78/23 34/79/23 35/80/23
f 32/81/1 34/82/1 30/83/1
f 37/84/24 31/85/24 35/86/24
f 5/13/3 3/87/3 4/14/3
f 10/11/2 12/88/2 15/16/2
f 9/7/1 14/9/1 16/17/1
f 9/19/4 11/89/4 12/20/4
f 2/22/5 5/90/5 6/23/5
f 2/25/6 1/91/6 4/26/6
f 14/28/7 13/31/7 15/29/7
f 13/31/8 14/28/8 7/32/8
f 15/34/9 12/92/9 11/35/9
f 9/37/10 10/93/10 8/38/10
f 22/58/16 19/94/16 26/59/16
f 26/59/17 27/95/17 25/60/17
f 21/54/18 23/96/18 22/61/18
f 18/65/12 23/97/12 21/45/12
f 18/66/19 19/57/19 22/67/19
f 33/69/20 32/98/20 30/70/20
f 33/72/25 37/99/25 36/73/25
f 35/75/22 34/100/22 36/76/22
f 31/78/26 30/101/26 34/79/26
f 32/81/1 36/102/1 34/82/1
f 37/84/24 33/103/24 31/85/24
