# Blender v2.77 (sub 0) OBJ File: 'LowPoly_Level_Kit_Rocks.blend'
# www.blender.org
g Rock_Tile_m_14
v -0.200000 0.000000 -0.141938
v -0.141938 0.000000 -0.200000
v -0.128779 0.050000 -0.186841
v -0.186841 0.050000 -0.128779
v 0.141938 0.000000 -0.200000
v 0.200000 0.000000 -0.141938
v 0.186841 0.050000 -0.128779
v 0.128779 0.050000 -0.186841
v 0.200000 0.000000 0.002702
v 0.186841 0.050000 0.051450
v 0.141938 0.000000 0.094923
v -0.186841 0.050000 0.053712
v -0.200000 0.000000 0.036181
v -0.128779 0.050000 0.148060
v -0.141938 0.000000 0.130529
v 0.128779 0.050000 0.129204
v 0.138384 0.050000 0.128414
v 0.108557 0.000000 0.147942
v -0.127420 0.050000 0.150269
v -0.119674 0.000000 0.166708
vt 0.4129 0.9499
vt 0.3847 0.9425
vt 0.4242 0.9425
vt 0.4688 0.9392
vt 0.4401 0.9465
vt 0.4288 0.9392
vt 0.4403 0.8994
vt 0.4688 0.9067
vt 0.4311 0.9067
vt 0.4316 0.9904
vt 0.4305 0.9838
vt 0.4364 0.9879
vt 0.4089 0.8994
vt 0.3847 0.9067
vt 0.3916 0.8994
vt 0.4347 0.9555
vt 0.4287 0.9721
vt 0.4285 0.9539
vt 0.4758 0.8994
vt 0.4757 0.9000
vt 0.4696 0.8994
vt 0.3916 0.9499
vt 0.4619 0.9465
vt 0.4748 0.9147
vt 0.4427 0.9553
vt 0.4379 0.9465
vt 0.4441 0.9479
vt 0.4688 0.9125
vt 0.4748 0.9150
vt 0.4689 0.9178
vt 0.4311 0.9055
vt 0.4619 0.8994
vt 0.4200 0.9067
vt 0.4285 0.9390
vt 0.4349 0.9782
vt 0.4364 0.9539
vt 0.4441 0.9878
vt 0.4380 0.9897
vt 0.4750 0.9290
vt 0.4691 0.9318
vt 0.4263 0.9109
vt 0.4285 0.9397
vt 0.4758 0.9486
vt 0.4698 0.9509
vt 0.4302 0.9465
vt 0.4364 0.9481
vn 0.0000 -1.0000 0.0000
vn 0.0000 1.0000 0.0000
vn 0.8113 -0.2845 0.5108
vn 0.9671 0.2545 0.0000
vn 0.0776 0.3222 0.9435
vn -0.6627 0.3488 -0.6627
vn -0.8510 0.0403 0.5237
vn 0.0000 0.2545 -0.9671
vn -0.9671 0.2545 0.0000
vn 0.6627 0.3488 -0.6627
s off
f 13/1/1 2/2/1 15/3/1
f 3/4/2 12/5/2 14/6/2
f 10/7/2 8/8/2 16/9/2
f 18/10/3 11/11/3 17/12/3
f 9/13/1 5/14/1 6/15/1
f 7/16/4 9/17/4 6/18/4
f 17/19/5 16/20/5 18/21/5
f 13/1/1 1/22/1 2/2/1
f 3/4/2 4/23/2 12/5/2
f 19/24/5 18/21/5 16/20/5
f 3/4/2 16/9/2 8/8/2
f 3/25/6 1/26/6 4/27/6
f 20/28/7 14/29/7 15/30/7
f 16/9/2 17/31/2 10/7/2
f 10/7/2 7/32/2 8/8/2
f 9/13/1 11/33/1 5/14/1
f 14/6/2 19/34/2 16/9/2
f 2/2/1 11/33/1 15/3/1
f 7/16/4 10/35/4 9/17/4
f 11/11/3 10/35/3 17/12/3
f 2/36/8 8/37/8 5/38/8
f 15/30/7 12/39/7 13/40/7
f 15/3/1 18/41/1 20/42/1
f 13/40/9 4/43/9 1/44/9
f 7/16/10 5/45/10 8/46/10
f 19/24/5 20/28/5 18/21/5
f 3/4/2 14/6/2 16/9/2
f 3/25/6 2/36/6 1/26/6
f 20/28/7 19/24/7 14/29/7
f 2/2/1 5/14/1 11/33/1
f 11/11/3 9/17/3 10/35/3
f 2/36/8 3/25/8 8/37/8
f 15/30/7 14/29/7 12/39/7
f 15/3/1 11/33/1 18/41/1
f 13/40/9 12/39/9 4/43/9
f 7/16/10 6/18/10 5/45/10
