# Blender v2.77 (sub 0) OBJ File: 'LowPoly_Level_Kit_Rocks.blend'
# www.blender.org
g Rock_Tiles_m_02
v 0.000002 -0.000141 -0.400000
v 0.000002 -0.000141 0.000000
v -0.399997 -0.000141 -0.000000
v -0.387817 0.046194 -0.012180
v -0.399997 -0.000141 -0.400000
v -0.387817 0.046194 -0.387821
v -0.012177 0.046194 -0.012180
v -0.012177 0.046194 -0.387821
v 0.000002 -0.000141 0.400000
v 0.000002 -0.000141 0.000000
v -0.399993 -0.000141 0.400000
v -0.387813 0.049859 0.387820
v -0.387813 0.049859 0.012180
v -0.012173 0.049859 0.387820
v -0.012173 0.049859 0.012180
v -0.399997 -0.000141 -0.000000
v 0.012178 0.049859 -0.012180
v -0.000002 -0.000141 -0.400000
v 0.012178 0.049859 -0.387821
v 0.387818 0.049859 -0.012180
v 0.399998 -0.000141 -0.400000
v 0.387818 0.049859 -0.387821
v -0.000002 -0.000141 0.000000
v 0.399998 -0.000141 0.000000
v 0.000001 0.000000 0.400000
v 0.017993 0.051113 0.382008
v 0.000001 0.000000 -0.000000
v 0.017993 0.051113 0.017992
v 0.400001 0.000000 0.400000
v 0.382010 0.073642 0.382008
v 0.400001 0.000000 -0.000000
v 0.382010 0.073642 0.017992
vt 0.5799 0.9088
vt 0.5834 0.9417
vt 0.5799 0.9407
vt 0.5763 0.9407
vt 0.5799 0.9078
vt 0.5799 0.9417
vt 0.5799 0.9427
vt 0.5834 0.9756
vt 0.5799 0.9746
vt 0.5763 0.9427
vt 0.5799 0.9756
vt 0.5763 0.9746
vt 0.5113 0.9078
vt 0.5409 0.9417
vt 0.5113 0.9417
vt 0.5409 0.9078
vt 0.5687 0.9396
vt 0.5409 0.9396
vt 0.0966 0.9243
vt 0.1004 0.9572
vt 0.0966 0.9562
vt 0.0928 0.9901
vt 0.0966 0.9572
vt 0.0966 0.9911
vt 0.0304 0.9582
vt 0.0342 0.9911
vt 0.0304 0.9901
vt 0.1004 0.9223
vt 0.0966 0.8894
vt 0.1004 0.8904
vt 0.0650 0.9233
vt 0.0354 0.8894
vt 0.0650 0.8894
vt 0.0928 0.9212
vt 0.0650 0.8894
vt 0.0928 0.8894
vt 0.7291 0.9870
vt 0.7329 0.9541
vt 0.7329 0.9880
vt 0.7253 0.8873
vt 0.7291 0.9202
vt 0.7253 0.9192
vt 0.6591 0.9551
vt 0.6629 0.9880
vt 0.6591 0.9870
vt 0.7253 0.9531
vt 0.7291 0.9202
vt 0.7291 0.9541
vt 0.6679 0.8863
vt 0.6383 0.9202
vt 0.6383 0.8863
vt 0.6975 0.9520
vt 0.7253 0.9839
vt 0.6975 0.9839
vt 0.7931 0.7060
vt 0.7971 0.7384
vt 0.7931 0.7369
vt 0.7835 0.7369
vt 0.7875 0.7045
vt 0.7875 0.7384
vt 0.7762 0.7060
vt 0.7819 0.7384
vt 0.7762 0.7369
vt 0.7891 0.7060
vt 0.7931 0.7384
vt 0.7875 0.7369
vt 0.7762 0.7045
vt 0.8058 0.6706
vt 0.8058 0.7045
vt 0.8328 0.7045
vt 0.8058 0.7354
vt 0.8058 0.7045
vt 0.5834 0.9078
vt 0.5763 0.9088
vt 0.5834 0.9417
vt 0.5799 0.9417
vt 0.5409 0.9078
vt 0.5687 0.9078
vt 0.1004 0.9233
vt 0.0928 0.9582
vt 0.0342 0.9572
vt 0.0966 0.9233
vt 0.0354 0.9233
vt 0.0650 0.9212
vt 0.7291 0.9551
vt 0.7291 0.8863
vt 0.6629 0.9541
vt 0.7253 0.9212
vt 0.6679 0.9202
vt 0.7253 0.9520
vt 0.7971 0.7045
vt 0.7819 0.7060
vt 0.7819 0.7045
vt 0.7931 0.7045
vt 0.7762 0.6706
vt 0.8328 0.7354
vn -0.9671 0.2542 0.0000
vn 0.0000 0.2542 -0.9671
vn 0.9672 0.2542 0.0000
vn 0.0000 0.2542 0.9671
vn 0.0000 -1.0000 0.0000
vn 0.0000 1.0000 0.0000
vn -0.9716 0.2367 0.0000
vn 0.0000 0.2367 -0.9716
vn 0.9716 0.2366 0.0000
vn 0.0000 0.2367 0.9716
vn 0.9716 0.2367 0.0000
vn -0.9433 0.3320 0.0000
vn 0.0000 0.3320 -0.9433
vn 0.9714 0.2373 0.0000
vn -0.0145 0.2340 0.9721
vn -0.0618 0.9981 0.0000
vn -0.0145 0.2340 -0.9721
vn 0.0000 0.3320 0.9433
s off
f 6/1/1 3/2/1 4/3/1
f 6/4/2 1/5/2 5/6/2
f 7/7/3 1/8/3 8/9/3
f 4/10/4 2/11/4 7/12/4
f 3/13/5 1/14/5 2/15/5
f 8/16/6 4/17/6 7/18/6
f 13/19/7 11/20/7 12/21/7
f 13/22/8 10/23/8 16/24/8
f 14/25/9 10/26/9 15/27/9
f 12/28/10 9/29/10 14/30/10
f 11/31/5 10/32/5 9/33/5
f 15/34/6 12/35/6 14/36/6
f 17/37/7 18/38/7 23/39/7
f 22/40/8 18/41/8 19/42/8
f 20/43/11 21/44/11 22/45/11
f 20/46/10 23/47/10 24/48/10
f 18/49/5 24/50/5 23/51/5
f 22/52/6 17/53/6 20/54/6
f 28/55/12 25/56/12 26/57/12
f 28/58/13 31/59/13 27/60/13
f 30/61/14 31/62/14 32/63/14
f 26/64/15 29/65/15 30/66/15
f 27/67/5 29/68/5 25/69/5
f 32/70/16 26/71/16 30/72/16
f 6/1/1 5/73/1 3/2/1
f 6/4/2 8/74/2 1/5/2
f 7/7/3 2/75/3 1/8/3
f 4/10/4 3/76/4 2/11/4
f 3/13/5 5/77/5 1/14/5
f 8/16/6 6/78/6 4/17/6
f 13/19/7 16/79/7 11/20/7
f 13/22/8 15/80/8 10/23/8
f 14/25/9 9/81/9 10/26/9
f 12/28/10 11/82/10 9/29/10
f 11/31/5 16/83/5 10/32/5
f 15/34/6 13/84/6 12/35/6
f 17/37/7 19/85/7 18/38/7
f 22/40/8 21/86/8 18/41/8
f 20/43/11 24/87/11 21/44/11
f 20/46/10 17/88/10 23/47/10
f 18/49/5 21/89/5 24/50/5
f 22/52/6 19/90/6 17/53/6
f 28/55/12 27/91/12 25/56/12
f 28/58/17 32/92/17 31/59/17
f 30/61/14 29/93/14 31/62/14
f 26/64/18 25/94/18 29/65/18
f 27/67/5 31/95/5 29/68/5
f 32/70/16 28/96/16 26/71/16
