# Blender v2.77 (sub 0) OBJ File: 'LowPoly_Level_Kit_Rocks.blend'
# www.blender.org
g Rock_Tiles_m_04
v 0.000000 -0.017561 0.000000
v 0.012387 0.033205 0.012387
v 0.400000 -0.017561 0.000000
v 0.387613 0.033205 0.012387
v 0.000000 -0.017561 0.400000
v 0.012387 0.044650 0.387613
v 0.400000 -0.017561 0.400000
v 0.387613 0.044650 0.387613
v 0.000002 -0.000141 0.400000
v 0.000002 -0.000141 0.000000
v -0.399993 -0.000141 0.400000
v -0.387813 0.049859 0.387820
v -0.387813 0.049859 0.012180
v -0.012173 0.049859 0.387820
v -0.012173 0.049859 0.012180
v -0.399997 -0.000141 -0.000000
v 0.012178 0.042835 -0.012180
v -0.000002 -0.007165 -0.400000
v 0.012178 0.042835 -0.387821
v 0.387818 0.042835 -0.012180
v 0.399998 -0.007165 -0.400000
v 0.387818 0.042835 -0.387821
v -0.000002 -0.007165 0.000000
v 0.399998 -0.007165 0.000000
v -0.400001 0.000000 0.000002
v -0.391631 0.060901 -0.006043
v -0.000001 0.000000 0.000002
v -0.008356 0.060901 -0.006043
v -0.000001 0.000000 -0.399998
v -0.008356 0.060901 -0.389319
v -0.391631 0.060901 -0.049122
v -0.400001 0.000000 -0.054660
v -0.198905 0.060901 -0.389319
v -0.204362 0.000000 -0.399998
vt 0.9763 0.6986
vt 0.9799 0.6719
vt 0.9799 0.6995
vt 0.9038 0.7263
vt 0.9075 0.6995
vt 0.9075 0.7271
vt 0.8986 0.7003
vt 0.9030 0.7271
vt 0.8986 0.7263
vt 0.9082 0.7003
vt 0.9119 0.7270
vt 0.9075 0.7261
vt 0.9220 0.6995
vt 0.8940 0.6719
vt 0.9220 0.6719
vt 0.9482 0.6995
vt 0.9220 0.7254
vt 0.9220 0.6995
vt 0.7325 0.6727
vt 0.7361 0.6993
vt 0.7325 0.6985
vt 0.7258 0.6710
vt 0.7294 0.6442
vt 0.7294 0.6719
vt 0.7289 0.6727
vt 0.7325 0.6995
vt 0.7289 0.6986
vt 0.7325 0.7003
vt 0.7361 0.7271
vt 0.7325 0.7263
vt 0.6990 0.6995
vt 0.6710 0.6719
vt 0.6990 0.6719
vt 0.7253 0.6719
vt 0.6990 0.6978
vt 0.6990 0.6719
vt 0.1067 0.6709
vt 0.1103 0.6442
vt 0.1103 0.6717
vt 0.1026 0.7263
vt 0.0990 0.6995
vt 0.1026 0.7003
vt 0.1062 0.7263
vt 0.1026 0.6995
vt 0.1062 0.7003
vt 0.1031 0.6710
vt 0.1067 0.6442
vt 0.1067 0.6719
vt 0.0167 0.6719
vt 0.0447 0.6442
vt 0.0447 0.6719
vt 0.0990 0.6978
vt 0.0727 0.7237
vt 0.0727 0.6978
vt 0.6916 0.8522
vt 0.6959 0.8658
vt 0.6916 0.8654
vt 0.6578 0.8281
vt 0.6535 0.8550
vt 0.6535 0.8274
vt 0.6578 0.8280
vt 0.6621 0.8550
vt 0.6578 0.8544
vt 0.6356 0.8311
vt 0.6402 0.8559
vt 0.6359 0.8563
vt 0.6402 0.8282
vt 0.6360 0.8274
vt 0.6916 0.7721
vt 0.6916 0.7997
vt 0.6878 0.7997
vt 0.7184 0.7721
vt 0.7184 0.7986
vt 0.7154 0.7721
vt 0.6636 0.7862
vt 0.6916 0.7854
vt 0.6916 0.7986
vt 0.9763 0.6727
vt 0.9030 0.7003
vt 0.9030 0.6995
vt 0.9119 0.6995
vt 0.8940 0.6995
vt 0.9482 0.7254
vt 0.7361 0.6719
vt 0.7258 0.6451
vt 0.7325 0.6719
vt 0.7361 0.6995
vt 0.6710 0.6995
vt 0.7253 0.6978
vt 0.1067 0.6450
vt 0.0990 0.7271
vt 0.1026 0.7271
vt 0.1031 0.6451
vt 0.0167 0.6442
vt 0.0990 0.7237
vt 0.6959 0.8516
vt 0.6578 0.8546
vt 0.6621 0.8274
vt 0.6399 0.8311
vt 0.6636 0.7721
vn -0.0000 0.2370 -0.9715
vn 0.9715 0.2370 0.0000
vn 0.0000 0.1953 0.9807
vn -0.9810 0.1941 -0.0059
vn 0.0000 -1.0000 0.0000
vn -0.0000 0.9995 -0.0305
vn -0.9716 0.2367 0.0000
vn 0.0000 0.2367 -0.9716
vn 0.9716 0.2366 0.0000
vn 0.0000 0.2367 0.9716
vn 0.0000 1.0000 0.0000
vn 0.9716 0.2367 0.0000
vn 0.0000 0.1727 -0.9850
vn 0.9907 0.1359 0.0000
vn 0.0000 0.0988 0.9951
vn -0.8586 0.1622 -0.4864
vn -0.9907 0.1362 0.0000
vn 0.9810 0.1941 -0.0059
vn -0.9715 0.2370 0.0000
s off
f 2/1/1 3/2/1 1/3/1
f 4/4/2 7/5/2 3/6/2
f 6/7/3 7/8/3 8/9/3
f 2/10/4 5/11/4 6/12/4
f 1/13/5 7/14/5 5/15/5
f 8/16/6 2/17/6 6/18/6
f 13/19/7 11/20/7 12/21/7
f 13/22/8 10/23/8 16/24/8
f 14/25/9 10/26/9 15/27/9
f 12/28/10 9/29/10 14/30/10
f 11/31/5 10/32/5 9/33/5
f 15/34/11 12/35/11 14/36/11
f 17/37/7 18/38/7 23/39/7
f 22/40/8 18/41/8 19/42/8
f 20/43/12 21/44/12 22/45/12
f 20/46/10 23/47/10 24/48/10
f 18/49/5 24/50/5 23/51/5
f 22/52/11 17/53/11 20/54/11
f 30/55/13 34/56/13 33/57/13
f 30/58/14 27/59/14 29/60/14
f 26/61/15 27/62/15 28/63/15
f 32/64/16 33/65/16 34/66/16
f 26/67/17 32/64/17 25/68/17
f 27/69/5 25/70/5 32/71/5
f 26/72/11 28/73/11 31/74/11
f 34/75/5 27/69/5 32/71/5
f 33/76/11 28/73/11 30/77/11
f 2/1/1 4/78/1 3/2/1
f 4/4/18 8/79/18 7/5/18
f 6/7/3 5/80/3 7/8/3
f 2/10/19 1/81/19 5/11/19
f 1/13/5 3/82/5 7/14/5
f 8/16/6 4/83/6 2/17/6
f 13/19/7 16/84/7 11/20/7
f 13/22/8 15/85/8 10/23/8
f 14/25/9 9/86/9 10/26/9
f 12/28/10 11/87/10 9/29/10
f 11/31/5 16/88/5 10/32/5
f 15/34/11 13/89/11 12/35/11
f 17/37/7 19/90/7 18/38/7
f 22/40/8 21/91/8 18/41/8
f 20/43/12 24/92/12 21/44/12
f 20/46/10 17/93/10 23/47/10
f 18/49/5 21/94/5 24/50/5
f 22/52/11 19/95/11 17/53/11
f 30/55/13 29/96/13 34/56/13
f 30/58/14 28/97/14 27/59/14
f 26/61/15 25/98/15 27/62/15
f 32/64/16 31/99/16 33/65/16
f 26/67/17 31/99/17 32/64/17
f 34/75/5 29/100/5 27/69/5
f 33/76/11 31/74/11 28/73/11
