# Blender v2.77 (sub 0) OBJ File: 'LowPoly_Level_Kit_Rocks.blend'
# www.blender.org
g Rock_Tiles_m_01
v 0.000002 -0.000141 -0.400000
v 0.000002 -0.000141 0.000000
v -0.399997 -0.000141 -0.000000
v -0.387817 0.049859 -0.012180
v -0.399997 -0.000141 -0.400000
v -0.387817 0.049859 -0.387821
v -0.012177 0.044951 -0.012180
v -0.012177 0.044951 -0.387821
v 0.000002 -0.000141 0.400000
v 0.000002 -0.000141 0.000000
v -0.399993 -0.000141 0.400000
v -0.387813 0.049859 0.387820
v -0.387813 0.049859 0.012180
v -0.012173 0.049859 0.387820
v -0.012173 0.049859 0.012180
v -0.399997 -0.000141 -0.000000
v 0.000002 -0.000141 0.400000
v 0.012182 0.041776 0.387820
v 0.000002 -0.000141 0.000000
v 0.012182 0.041776 0.012180
v 0.400002 -0.000141 0.400000
v 0.387822 0.041776 0.387820
v 0.400002 -0.000141 0.000000
v 0.387822 0.041776 0.012180
v 0.012178 0.053132 -0.012180
v -0.000002 -0.000141 -0.400000
v 0.012178 0.053132 -0.387821
v 0.387818 0.053132 -0.012180
v 0.399998 -0.000141 -0.400000
v 0.387818 0.053132 -0.387821
v -0.000002 -0.000141 0.000000
v 0.399998 -0.000141 0.000000
vt 0.0372 0.9799
vt 0.0342 0.9540
vt 0.0372 0.9549
vt 0.0877 0.9549
vt 0.0905 0.9807
vt 0.0875 0.9799
vt 0.0935 0.9282
vt 0.0963 0.9540
vt 0.0935 0.9532
vt 0.0877 0.9532
vt 0.0905 0.9274
vt 0.0905 0.9540
vt 0.0418 0.9274
vt 0.0653 0.9540
vt 0.0418 0.9540
vt 0.0653 0.9258
vt 0.0875 0.9008
vt 0.0875 0.9258
vt 0.1630 0.7029
vt 0.1660 0.7287
vt 0.1630 0.7279
vt 0.1690 0.7279
vt 0.1720 0.7021
vt 0.1720 0.7287
vt 0.2223 0.6763
vt 0.2254 0.7021
vt 0.2223 0.7013
vt 0.2193 0.6496
vt 0.2223 0.6754
vt 0.2193 0.6746
vt 0.1972 0.6754
vt 0.1736 0.6488
vt 0.1972 0.6488
vt 0.1958 0.7271
vt 0.1736 0.7021
vt 0.1958 0.7021
vt 0.7215 0.6813
vt 0.7241 0.6555
vt 0.7241 0.6821
vt 0.7194 0.7346
vt 0.7168 0.7088
vt 0.7194 0.7096
vt 0.7164 0.6563
vt 0.7189 0.6821
vt 0.7164 0.6813
vt 0.7189 0.6555
vt 0.7215 0.6563
vt 0.6441 0.7088
vt 0.6677 0.6821
vt 0.6677 0.7088
vt 0.7133 0.7071
vt 0.6912 0.6821
vt 0.7133 0.6821
vt 0.0368 0.7230
vt 0.0400 0.6972
vt 0.0400 0.7239
vt 0.0400 0.6980
vt 0.0432 0.7239
vt 0.0400 0.7230
vt 0.0465 0.6980
vt 0.0497 0.7239
vt 0.0465 0.7230
vt 0.0432 0.7239
vt 0.0432 0.6972
vt 0.0604 0.6439
vt 0.0368 0.6706
vt 0.0368 0.6439
vt 0.0839 0.6956
vt 0.1060 0.7206
vt 0.0839 0.7206
vt 0.0342 0.9807
vt 0.0905 0.9540
vt 0.0963 0.9274
vt 0.0875 0.9282
vt 0.0653 0.9274
vt 0.0653 0.9008
vt 0.1660 0.7021
vt 0.1690 0.7029
vt 0.2254 0.6754
vt 0.2223 0.6488
vt 0.1736 0.6754
vt 0.1736 0.7271
vt 0.7215 0.6563
vt 0.7168 0.7354
vt 0.7189 0.6821
vt 0.6441 0.6821
vt 0.6912 0.7071
vt 0.0368 0.6980
vt 0.0432 0.6972
vt 0.0497 0.6972
vt 0.0465 0.7230
vt 0.0604 0.6706
vt 0.1060 0.6956
vn -0.9716 0.2367 0.0000
vn 0.0031 0.2360 -0.9718
vn 0.9654 0.2607 0.0000
vn -0.0000 0.2608 0.9654
vn 0.0000 -1.0000 0.0000
vn 0.0131 0.9999 0.0000
vn 0.0000 0.2367 -0.9716
vn 0.9716 0.2366 0.0000
vn 0.0000 0.2367 0.9716
vn 0.0000 1.0000 0.0000
vn -0.9603 0.2790 0.0000
vn 0.0000 0.2790 -0.9603
vn 0.9603 0.2790 0.0000
vn 0.0000 0.2790 0.9603
vn -0.9748 0.2229 0.0000
vn 0.0000 0.2229 -0.9748
vn 0.9748 0.2229 0.0000
vn 0.0000 0.2229 0.9748
vn 0.0000 0.2608 -0.9654
vn 0.0031 0.2360 0.9718
s off
f 6/1/1 3/2/1 4/3/1
f 8/4/2 5/5/2 6/6/2
f 7/7/3 1/8/3 8/9/3
f 7/10/4 3/11/4 2/12/4
f 3/13/5 1/14/5 2/15/5
f 8/16/6 4/17/6 7/18/6
f 13/19/1 11/20/1 12/21/1
f 13/22/7 10/23/7 16/24/7
f 14/25/8 10/26/8 15/27/8
f 12/28/9 9/29/9 14/30/9
f 11/31/5 10/32/5 9/33/5
f 15/34/10 12/35/10 14/36/10
f 18/37/11 19/38/11 17/39/11
f 24/40/12 19/41/12 20/42/12
f 22/43/13 23/44/13 24/45/13
f 18/37/14 21/46/14 22/47/14
f 19/48/5 21/49/5 17/50/5
f 24/51/10 18/52/10 22/53/10
f 25/54/15 26/55/15 31/56/15
f 30/57/16 26/58/16 27/59/16
f 28/60/17 29/61/17 30/62/17
f 28/60/18 31/63/18 32/64/18
f 26/65/5 32/66/5 31/67/5
f 30/68/10 25/69/10 28/70/10
f 6/1/1 5/71/1 3/2/1
f 8/4/19 1/72/19 5/5/19
f 7/7/3 2/73/3 1/8/3
f 7/10/20 4/74/20 3/11/20
f 3/13/5 5/75/5 1/14/5
f 8/16/6 6/76/6 4/17/6
f 13/19/1 16/77/1 11/20/1
f 13/22/7 15/78/7 10/23/7
f 14/25/8 9/79/8 10/26/8
f 12/28/9 11/80/9 9/29/9
f 11/31/5 16/81/5 10/32/5
f 15/34/10 13/82/10 12/35/10
f 18/37/11 20/83/11 19/38/11
f 24/40/12 23/84/12 19/41/12
f 22/43/13 21/46/13 23/44/13
f 18/37/14 17/85/14 21/46/14
f 19/48/5 23/86/5 21/49/5
f 24/51/10 20/87/10 18/52/10
f 25/54/15 27/88/15 26/55/15
f 30/57/16 29/89/16 26/58/16
f 28/60/17 32/90/17 29/61/17
f 28/60/18 25/91/18 31/63/18
f 26/65/5 29/92/5 32/66/5
f 30/68/10 27/93/10 25/69/10
