# Blender v2.77 (sub 0) OBJ File: 'LowPoly_Level_Kit_Rocks.blend'
# www.blender.org
g Rock_Tile_crk_m_02
v 0.203911 0.049797 0.006230
v 0.010289 0.049797 -0.031707
v -0.026735 0.056788 -0.215418
v 0.211541 0.056788 -0.206887
v 0.207734 0.000000 0.010567
v 0.007006 -0.000000 -0.028762
v -0.031377 0.000000 -0.219215
v 0.215644 0.000000 -0.210372
v -0.197372 -0.001373 0.205797
v -0.185282 0.048335 0.201316
v 0.198890 0.038434 0.034264
v 0.006094 0.042621 0.001511
v 0.197113 0.039621 0.205349
v 0.204361 -0.011727 0.031109
v 0.002752 -0.007348 -0.003141
v 0.202502 -0.010485 0.210015
v -0.199965 0.000000 0.188696
v -0.195605 0.050000 0.178639
v -0.210212 0.050000 -0.205364
v -0.013237 0.050000 -0.031193
v -0.063503 0.050000 -0.210945
v -0.215170 0.000000 -0.211015
v -0.010137 -0.000000 -0.029720
v -0.062459 0.000000 -0.216824
vt 0.2942 0.9477
vt 0.3105 0.9666
vt 0.2915 0.9666
vt 0.3296 0.9601
vt 0.3453 0.9419
vt 0.3453 0.9641
vt 0.3322 0.9221
vt 0.3284 0.9062
vt 0.3333 0.9066
vt 0.3382 0.9062
vt 0.3333 0.9288
vt 0.3290 0.9318
vt 0.3279 0.9223
vt 0.3388 0.9241
vt 0.3431 0.9062
vt 0.3431 0.9243
vt 0.2934 0.9062
vt 0.2753 0.9250
vt 0.2780 0.9062
vt 0.3279 0.9419
vt 0.3105 0.9239
vt 0.3279 0.9062
vt 0.2796 0.9565
vt 0.2765 0.9435
vt 0.2808 0.9443
vt 0.2808 0.9797
vt 0.2753 0.9562
vt 0.2861 0.9443
vt 0.2808 0.9612
vt 0.2818 0.9435
vt 0.2861 0.9793
vt 0.2851 0.9612
vt 0.3105 0.9588
vt 0.3269 0.9419
vt 0.3269 0.9778
vt 0.3105 0.9435
vt 0.2934 0.9259
vt 0.3105 0.9062
vt 0.3312 0.9641
vt 0.3269 0.9779
vt 0.3269 0.9642
vt 0.3496 0.9419
vt 0.3453 0.9782
vt 0.3453 0.9424
vt 0.2911 0.9794
vt 0.2861 0.9535
vt 0.2904 0.9535
vt 0.2911 0.9439
vt 0.3105 0.9435
vt 0.3269 0.9419
vt 0.3382 0.9293
vt 0.3333 0.9313
vt 0.3382 0.9066
vt 0.2934 0.9435
vt 0.3131 0.9419
vt 0.2765 0.9805
vt 0.2818 0.9801
vt 0.3142 0.9419
vt 0.2973 0.9435
vt 0.3312 0.9783
vt 0.3496 0.9791
vt 0.2868 0.9805
vt 0.2868 0.9435
vn 0.0000 -1.0000 0.0000
vn -0.0014 0.9993 0.0383
vn 0.9968 0.0697 0.0380
vn 0.0357 0.0638 -0.9973
vn -0.1918 0.0705 0.9789
vn -0.9774 0.0761 0.1970
vn -0.0229 -0.9997 0.0067
vn 0.0229 0.9997 -0.0067
vn 0.9941 0.1078 0.0096
vn -0.0084 0.0918 0.9957
vn -0.7160 0.1120 -0.6890
vn 0.1686 0.0802 -0.9824
vn 0.0000 1.0000 -0.0000
vn -0.0378 0.1159 -0.9925
vn -0.9948 0.0944 0.0378
vn 0.7531 0.0660 0.6546
vn 0.9618 0.0517 -0.2690
vn -0.0064 0.9994 0.0326
vn 0.9962 0.0796 0.0357
vn -0.9776 0.0666 0.1996
s off
f 6/1/1 8/2/1 5/3/1
f 2/4/2 4/5/2 3/6/2
f 1/7/3 8/8/3 4/9/3
f 8/10/4 3/11/4 4/9/4
f 1/7/5 6/12/5 5/13/5
f 2/14/6 7/15/6 6/16/6
f 16/17/7 15/18/7 14/19/7
f 13/20/8 12/21/8 10/22/8
f 13/23/9 14/24/9 11/25/9
f 10/26/10 16/27/10 13/23/10
f 10/28/11 15/29/11 9/30/11
f 11/31/12 15/29/12 12/32/12
f 20/33/13 19/34/13 18/35/13
f 22/36/1 23/37/1 17/38/1
f 24/39/14 19/40/14 21/41/14
f 22/42/15 18/43/15 19/44/15
f 18/45/16 23/46/16 20/47/16
f 23/46/17 21/48/17 20/47/17
f 6/1/1 7/49/1 8/2/1
f 2/4/18 1/50/18 4/5/18
f 1/7/19 5/13/19 8/8/19
f 8/10/4 7/51/4 3/11/4
f 1/7/5 2/52/5 6/12/5
f 2/14/20 3/53/20 7/15/20
f 16/17/7 9/54/7 15/18/7
f 13/20/8 11/55/8 12/21/8
f 13/23/9 16/27/9 14/24/9
f 10/26/10 9/56/10 16/27/10
f 10/28/11 12/32/11 15/29/11
f 11/31/12 14/57/12 15/29/12
f 20/33/13 21/58/13 19/34/13
f 22/36/1 24/59/1 23/37/1
f 24/39/14 22/60/14 19/40/14
f 22/42/15 17/61/15 18/43/15
f 18/45/16 17/62/16 23/46/16
f 23/46/17 24/63/17 21/48/17
