# Blender v2.77 (sub 0) OBJ File: 'LowPoly_Level_Kit_Rocks.blend'
# www.blender.org
g Rock_Tiles_m_11
v -0.053903 0.093601 0.207036
v -0.025966 0.138944 0.203905
v 0.311392 0.048720 0.336896
v 0.453914 -0.002978 -0.022734
v 0.448439 0.048720 -0.010747
v 0.075526 0.138944 -0.053548
v 0.080442 0.093601 -0.133755
v 0.162236 0.125263 -0.123573
v 0.110569 0.088847 -0.158085
v 0.309925 0.030554 0.341288
v 0.325724 -0.002978 0.302445
v 0.262857 0.008885 0.331908
v -0.200000 0.000000 0.200000
v -0.186841 0.050000 0.186841
v -0.200000 0.000000 -0.200000
v -0.186841 0.050000 -0.186841
v 0.200000 0.000000 0.200000
v 0.186841 0.050000 0.186841
v 0.200000 0.000000 -0.200000
v 0.186841 0.050000 -0.186841
vt 0.5977 0.9541
vt 0.5932 0.9898
vt 0.5932 0.9487
vt 0.5135 0.9056
vt 0.5172 0.9047
vt 0.5129 0.9102
vt 0.5952 0.9130
vt 0.5997 0.9444
vt 0.5952 0.9430
vt 0.5476 0.9447
vt 0.5977 0.9884
vt 0.5997 0.9047
vt 0.5129 0.9483
vt 0.5459 0.9483
vt 0.5140 0.9908
vt 0.5140 0.9564
vt 0.5225 0.9502
vt 0.5476 0.9047
vt 0.5864 0.9428
vt 0.5819 0.9061
vt 0.5864 0.9047
vt 0.5158 0.9483
vt 0.5887 0.9907
vt 0.5871 0.9912
vt 0.5842 0.9866
vt 0.5834 0.9472
vt 0.5819 0.9467
vt 0.5887 0.9502
vt 0.5465 0.9908
vt 0.3484 0.9456
vt 0.3440 0.9047
vt 0.3484 0.9059
vt 0.3508 0.9892
vt 0.3463 0.9487
vt 0.3508 0.9501
vt 0.3528 0.9458
vt 0.3484 0.9047
vt 0.3528 0.9063
vt 0.3373 0.9501
vt 0.3418 0.9915
vt 0.3373 0.9901
vt 0.3052 0.9052
vt 0.3395 0.9482
vt 0.3052 0.9487
vt 0.3052 0.9487
vt 0.3373 0.9898
vt 0.3052 0.9894
vt 0.5129 0.9505
vt 0.5842 0.9487
vt 0.5465 0.9502
vt 0.3440 0.9473
vt 0.3463 0.9906
vt 0.3484 0.9469
vt 0.3418 0.9487
vt 0.3395 0.9047
vt 0.3373 0.9491
vn 0.4118 0.2470 -0.8771
vn 0.1879 -0.7044 0.6845
vn -0.8159 0.4805 -0.3216
vn -0.2246 -0.9704 -0.0885
vn -0.2246 -0.9704 -0.0886
vn 0.2246 0.9704 0.0885
vn -0.2975 0.2470 0.9222
vn -0.2619 0.8332 -0.4871
vn 0.9302 0.0135 0.3667
vn -0.9671 0.2545 0.0000
vn 0.0000 0.2545 -0.9671
vn 0.9671 0.2545 0.0000
vn 0.0000 0.2545 0.9671
vn 0.0000 -1.0000 0.0000
vn 0.0000 1.0000 0.0000
s off
f 8/1/1 4/2/1 9/3/1
f 10/4/2 12/5/2 11/6/2
f 6/7/3 1/8/3 2/9/3
f 7/10/4 11/6/4 12/5/4
f 8/1/1 5/11/1 4/2/1
f 6/7/3 7/12/3 1/8/3
f 4/13/5 7/10/5 9/14/5
f 5/15/6 8/16/6 6/17/6
f 12/5/4 1/18/4 7/10/4
f 12/19/7 2/20/7 1/21/7
f 8/16/8 7/22/8 6/17/8
f 3/23/9 10/24/9 11/25/9
f 10/26/7 3/27/7 12/19/7
f 11/25/9 5/28/9 3/23/9
f 6/17/6 3/29/6 5/15/6
f 16/30/10 13/31/10 14/32/10
f 20/33/11 15/34/11 16/35/11
f 18/36/12 19/37/12 20/38/12
f 14/39/13 17/40/13 18/41/13
f 15/42/14 17/43/14 13/44/14
f 20/45/15 14/46/15 18/47/15
f 4/13/4 11/6/4 7/10/4
f 12/19/7 3/27/7 2/20/7
f 8/16/8 9/48/8 7/22/8
f 11/25/9 4/49/9 5/28/9
f 6/17/6 2/50/6 3/29/6
f 16/30/10 15/51/10 13/31/10
f 20/33/11 19/52/11 15/34/11
f 18/36/12 17/53/12 19/37/12
f 14/39/13 13/54/13 17/40/13
f 15/42/14 19/55/14 17/43/14
f 20/45/15 16/56/15 14/46/15
