# Blender v2.77 (sub 0) OBJ File: 'LowPoly_Level_Kit_Rocks.blend'
# www.blender.org
g Rock_Tile_m_02
v -0.200000 0.000000 0.200000
v -0.187613 0.050767 0.187613
v -0.200000 0.000000 -0.200000
v -0.187613 0.050767 -0.187613
v 0.200000 0.000000 0.200000
v 0.187613 0.073989 0.187613
v 0.200000 0.000000 -0.200000
v 0.187613 0.073989 -0.187613
vt 0.3402 0.9465
vt 0.3467 0.9943
vt 0.3402 0.9928
vt 0.3245 0.9928
vt 0.3309 0.9450
vt 0.3309 0.9943
vt 0.3124 0.9928
vt 0.3217 0.9450
vt 0.3217 0.9943
vt 0.3338 0.9465
vt 0.3402 0.9943
vt 0.3309 0.9928
vt 0.2630 0.9479
vt 0.3124 0.8986
vt 0.3124 0.9479
vt 0.3588 0.8986
vt 0.3124 0.9450
vt 0.3124 0.8986
vt 0.3467 0.9450
vt 0.3217 0.9465
vt 0.3124 0.9465
vt 0.3402 0.9450
vt 0.2630 0.8986
vt 0.3588 0.9450
vn -0.9715 0.2370 0.0000
vn 0.0000 0.2370 -0.9715
vn 0.9863 0.1651 0.0000
vn -0.0101 0.1635 0.9865
vn 0.0000 -1.0000 0.0000
vn -0.0618 0.9981 0.0000
vn -0.0101 0.1635 -0.9865
vn 0.0000 0.2370 0.9715
s off
f 4/1/1 1/2/1 2/3/1
f 4/4/2 7/5/2 3/6/2
f 8/7/3 5/8/3 7/9/3
f 2/10/4 5/11/4 6/12/4
f 3/13/5 5/14/5 1/15/5
f 8/16/6 2/17/6 6/18/6
f 4/1/1 3/19/1 1/2/1
f 4/4/7 8/20/7 7/5/7
f 8/7/3 6/21/3 5/8/3
f 2/10/8 1/22/8 5/11/8
f 3/13/5 7/23/5 5/14/5
f 8/16/6 4/24/6 2/17/6
