# Blender v2.77 (sub 0) OBJ File: 'LowPoly_Level_Kit_Rocks.blend'
# www.blender.org
g Brick_04
v -0.127499 -0.000000 0.050000
v -0.127499 0.075000 0.050000
v -0.127499 -0.000000 -0.050000
v 0.127501 0.075000 0.050000
v 0.127501 -0.000000 -0.050000
v -0.127499 0.075000 -0.012098
v -0.127499 0.058454 -0.050000
v -0.043312 0.075000 -0.050000
v 0.127501 0.015621 0.050000
v 0.127501 -0.000000 0.015242
v 0.053118 -0.000000 0.050000
v 0.099075 0.075000 -0.050000
v 0.127501 0.070147 -0.050000
v 0.127501 0.075000 0.006846
vt 0.1644 0.2662
vt 0.1640 0.2862
vt 0.1546 0.2664
vt 0.1650 0.2886
vt 0.1644 0.2662
vt 0.1751 0.2662
vt 0.2319 0.3507
vt 0.2117 0.3608
vt 0.2117 0.3341
vt 0.1644 0.3343
vt 0.1378 0.3342
vt 0.1373 0.2664
vt 0.2117 0.3493
vt 0.1958 0.3608
vt 0.1916 0.3515
vt 0.2117 0.2662
vt 0.2319 0.2662
vt 0.2319 0.3143
vt 0.1801 0.3341
vt 0.1648 0.3341
vt 0.1650 0.3266
vt 0.1916 0.2737
vt 0.2117 0.2662
vt 0.2117 0.3341
vt 0.1916 0.3341
vt 0.1916 0.2662
vt 0.1916 0.3341
vt 0.2104 0.3341
vt 0.2319 0.3341
vt 0.2117 0.3341
vt 0.2277 0.3341
vt 0.1916 0.3117
vt 0.1961 0.3341
vt 0.2274 0.3608
vt 0.2117 0.3608
vt 0.1929 0.2662
vn 0.1881 -0.8958 0.4026
vn -0.1773 0.9020 -0.3937
vn -1.0000 0.0000 0.0000
vn 0.0000 -1.0000 0.0000
vn 1.0000 0.0000 0.0000
vn 0.0000 0.0000 1.0000
vn 0.1677 0.9823 -0.0839
vn 0.0000 0.0000 -1.0000
vn 0.0000 1.0000 0.0000
s off
f 9/1/1 11/2/1 10/3/1
f 8/4/2 7/5/2 6/6/2
f 6/7/3 3/8/3 1/9/3
f 1/10/4 3/11/4 5/12/4
f 14/13/5 9/14/5 10/15/5
f 2/16/6 1/17/6 11/18/6
f 14/19/7 13/20/7 12/21/7
f 12/22/8 5/23/8 3/24/8
f 14/19/9 8/4/9 4/25/9
f 2/26/9 8/4/9 6/6/9
f 14/13/5 5/27/5 13/28/5
f 2/29/3 6/7/3 1/9/3
f 11/2/4 5/12/4 10/3/4
f 4/30/6 11/18/6 9/31/6
f 8/32/8 3/24/8 7/33/8
f 6/7/3 7/34/3 3/8/3
f 14/13/5 4/35/5 9/14/5
f 12/22/8 13/36/8 5/23/8
f 14/19/9 12/21/9 8/4/9
f 2/26/9 4/25/9 8/4/9
f 14/13/5 10/15/5 5/27/5
f 11/2/4 1/10/4 5/12/4
f 4/30/6 2/16/6 11/18/6
f 8/32/8 12/22/8 3/24/8
