# Blender v2.77 (sub 0) OBJ File: 'LowPoly_Level_Kit_Rocks.blend'
# www.blender.org
g Brick_Pile_m_05
v -0.125486 0.137500 0.092515
v -0.125486 0.212500 0.092515
v -0.122382 0.137500 -0.007436
v -0.122382 0.212500 -0.007436
v 0.129391 0.137500 0.100432
v 0.129391 0.212500 0.100432
v 0.132496 0.137500 0.000480
v 0.132496 0.212500 0.000480
v -0.132497 0.137500 -0.012555
v -0.132497 0.212500 -0.012555
v -0.132078 0.137500 -0.112554
v -0.132078 0.212500 -0.112554
v 0.122501 0.137500 -0.011488
v 0.122501 0.212500 -0.011488
v 0.122920 0.137500 -0.111487
v 0.122920 0.212500 -0.111487
v -0.113459 0.062500 -0.128386
v -0.113459 0.137500 -0.128386
v -0.013473 0.062500 -0.130050
v -0.013473 0.137500 -0.130050
v -0.109216 0.062500 0.126579
v -0.109216 0.137500 0.126579
v -0.009229 0.062500 0.124915
v -0.009229 0.137500 0.124915
v 0.003469 0.062500 -0.124950
v 0.003469 0.137500 -0.124950
v 0.103469 0.062500 -0.125061
v 0.103469 0.137500 -0.125061
v 0.003751 0.062500 0.130050
v 0.003751 0.137500 0.130050
v 0.103751 0.062500 0.129939
v 0.103751 0.137500 0.129939
v -0.131367 -0.012500 -0.010178
v -0.131367 0.062500 -0.010178
v -0.131367 -0.012500 -0.110178
v -0.131367 0.062500 -0.110178
v 0.123633 -0.012500 -0.010178
v 0.123633 0.062500 -0.010178
v 0.123633 -0.012500 -0.110178
v 0.123633 0.062500 -0.110178
v -0.131367 -0.012500 0.104791
v -0.131367 0.062500 0.104791
v -0.131367 -0.012500 0.004791
v -0.131367 0.062500 0.004791
v 0.123633 -0.012500 0.104791
v 0.123633 0.062500 0.104791
v 0.123633 -0.012500 0.004791
v 0.123633 0.062500 0.004791
vt 0.4786 0.3297
vt 0.4884 0.3433
vt 0.4786 0.3433
vt 0.4202 0.3297
vt 0.4300 0.3643
vt 0.4202 0.3643
vt 0.4884 0.3569
vt 0.4786 0.3433
vt 0.4884 0.3433
vt 0.4105 0.3297
vt 0.4202 0.3643
vt 0.4105 0.3643
vt 0.3975 0.2951
vt 0.3845 0.2605
vt 0.3975 0.2605
vt 0.4364 0.2605
vt 0.4235 0.2951
vt 0.4235 0.2605
vt 0.4494 0.3297
vt 0.4592 0.3433
vt 0.4494 0.3433
vt 0.4494 0.2951
vt 0.4592 0.3297
vt 0.4300 0.3297
vt 0.4397 0.3433
vt 0.4300 0.3433
vt 0.4592 0.2951
vt 0.4494 0.2605
vt 0.4592 0.2605
vt 0.4494 0.2951
vt 0.4364 0.3297
vt 0.4364 0.2951
vt 0.3845 0.3297
vt 0.3975 0.2951
vt 0.3975 0.3297
vt 0.4786 0.3087
vt 0.4884 0.3223
vt 0.4786 0.3223
vt 0.3845 0.3297
vt 0.3942 0.3644
vt 0.3845 0.3644
vt 0.4884 0.3087
vt 0.4786 0.2951
vt 0.4884 0.2951
vt 0.3942 0.3297
vt 0.4040 0.3644
vt 0.3942 0.3644
vt 0.4105 0.2605
vt 0.3975 0.2951
vt 0.3975 0.2605
vt 0.4235 0.2951
vt 0.4105 0.3297
vt 0.4105 0.2951
vt 0.9685 0.2741
vt 0.9782 0.2876
vt 0.9685 0.2876
vt 0.9588 0.3297
vt 0.9685 0.3644
vt 0.9588 0.3644
vt 0.9782 0.2741
vt 0.9685 0.2605
vt 0.9782 0.2605
vt 0.9490 0.3297
vt 0.9588 0.3644
vt 0.9490 0.3644
vt 0.8874 0.3297
vt 0.9003 0.2951
vt 0.9003 0.3297
vt 0.9393 0.2605
vt 0.9263 0.2951
vt 0.9263 0.2605
vt 0.4397 0.3297
vt 0.4494 0.3433
vt 0.4397 0.3433
vt 0.4689 0.2951
vt 0.4786 0.3297
vt 0.4689 0.3297
vt 0.4300 0.3433
vt 0.4397 0.3569
vt 0.4300 0.3569
vt 0.4592 0.2605
vt 0.4689 0.2951
vt 0.4592 0.2951
vt 0.4235 0.3297
vt 0.4364 0.2951
vt 0.4364 0.3297
vt 0.9393 0.3433
vt 0.9490 0.3569
vt 0.9393 0.3569
vt 0.9685 0.2951
vt 0.9588 0.2605
vt 0.9685 0.2605
vt 0.9295 0.3433
vt 0.9393 0.3569
vt 0.9295 0.3569
vt 0.9588 0.3297
vt 0.9490 0.2951
vt 0.9588 0.2951
vt 0.9133 0.2605
vt 0.9003 0.2951
vt 0.9003 0.2605
vt 0.4884 0.3297
vt 0.4300 0.3297
vt 0.4786 0.3569
vt 0.4202 0.3297
vt 0.3845 0.2951
vt 0.4364 0.2951
vt 0.4592 0.2951
vt 0.4397 0.3297
vt 0.4494 0.2951
vt 0.4494 0.3297
vt 0.3845 0.2951
vt 0.4884 0.3087
vt 0.3942 0.3297
vt 0.4786 0.3087
vt 0.4040 0.3297
vt 0.4105 0.2951
vt 0.4235 0.3297
vt 0.9782 0.2741
vt 0.9685 0.3297
vt 0.9685 0.2741
vt 0.9588 0.3297
vt 0.8874 0.2951
vt 0.9393 0.2951
vt 0.4494 0.3297
vt 0.4786 0.2951
vt 0.4397 0.3433
vt 0.4689 0.2605
vt 0.4235 0.2951
vt 0.9490 0.3433
vt 0.9588 0.2951
vt 0.9393 0.3433
vt 0.9490 0.3297
vt 0.9133 0.2951
vn -0.9995 0.0000 -0.0310
vn 0.0310 0.0000 -0.9995
vn 0.9995 0.0000 0.0310
vn -0.0310 0.0000 0.9995
vn 0.0000 -1.0000 0.0000
vn 0.0000 1.0000 0.0000
vn -1.0000 0.0000 -0.0042
vn 0.0042 0.0000 -1.0000
vn 1.0000 0.0000 0.0042
vn -0.0042 0.0000 1.0000
vn -0.0166 0.0000 -0.9999
vn 0.9999 0.0000 -0.0166
vn 0.0166 0.0000 0.9999
vn -0.9999 0.0000 0.0166
vn -0.0011 0.0000 -1.0000
vn 1.0000 0.0000 -0.0011
vn 0.0011 0.0000 1.0000
vn -1.0000 0.0000 0.0011
vn -1.0000 0.0000 0.0000
vn 0.0000 0.0000 -1.0000
vn 1.0000 0.0000 0.0000
vn 0.0000 0.0000 1.0000
s off
f 4/1/1 1/2/1 2/3/1
f 8/4/2 3/5/2 4/6/2
f 6/7/3 7/8/3 8/9/3
f 2/10/4 5/11/4 6/12/4
f 1/13/5 7/14/5 5/15/5
f 8/16/6 2/17/6 6/18/6
f 12/19/7 9/20/7 10/21/7
f 16/22/8 11/23/8 12/19/8
f 14/24/9 15/25/9 16/26/9
f 10/27/10 13/28/10 14/29/10
f 11/30/5 13/31/5 9/32/5
f 16/33/6 10/34/6 14/35/6
f 20/36/11 17/37/11 18/38/11
f 24/39/12 19/40/12 20/41/12
f 22/42/13 23/43/13 24/44/13
f 18/45/14 21/46/14 22/47/14
f 19/48/5 21/49/5 17/50/5
f 24/51/6 18/52/6 22/53/6
f 28/54/15 25/55/15 26/56/15
f 32/57/16 27/58/16 28/59/16
f 30/60/17 31/61/17 32/62/17
f 26/63/18 29/64/18 30/65/18
f 27/66/5 29/67/5 25/68/5
f 32/69/6 26/70/6 30/71/6
f 36/72/19 33/73/19 34/74/19
f 40/75/20 35/76/20 36/77/20
f 38/78/21 39/79/21 40/80/21
f 34/81/22 37/82/22 38/83/22
f 40/84/6 34/85/6 38/86/6
f 44/87/19 41/88/19 42/89/19
f 48/90/20 43/91/20 44/92/20
f 46/93/21 47/94/21 48/95/21
f 42/96/22 45/97/22 46/98/22
f 48/99/6 42/100/6 46/101/6
f 4/1/1 3/102/1 1/2/1
f 8/4/2 7/103/2 3/5/2
f 6/7/3 5/104/3 7/8/3
f 2/10/4 1/105/4 5/11/4
f 1/13/5 3/106/5 7/14/5
f 8/16/6 4/107/6 2/17/6
f 12/19/7 11/23/7 9/20/7
f 16/22/8 15/108/8 11/23/8
f 14/24/9 13/109/9 15/25/9
f 10/27/10 9/110/10 13/28/10
f 11/30/5 15/111/5 13/31/5
f 16/33/6 12/112/6 10/34/6
f 20/36/11 19/113/11 17/37/11
f 24/39/12 23/114/12 19/40/12
f 22/42/13 21/115/13 23/43/13
f 18/45/14 17/116/14 21/46/14
f 19/48/5 23/117/5 21/49/5
f 24/51/6 20/118/6 18/52/6
f 28/54/15 27/119/15 25/55/15
f 32/57/16 31/120/16 27/58/16
f 30/60/17 29/121/17 31/61/17
f 26/63/18 25/122/18 29/64/18
f 27/66/5 31/123/5 29/67/5
f 32/69/6 28/124/6 26/70/6
f 36/72/19 35/125/19 33/73/19
f 40/75/20 39/126/20 35/76/20
f 38/78/21 37/127/21 39/79/21
f 34/81/22 33/128/22 37/82/22
f 40/84/6 36/129/6 34/85/6
f 44/87/19 43/130/19 41/88/19
f 48/90/20 47/131/20 43/91/20
f 46/93/21 45/132/21 47/94/21
f 42/96/22 41/133/22 45/97/22
f 48/99/6 44/134/6 42/100/6
