# Blender v2.77 (sub 0) OBJ File: 'LowPoly_Level_Kit_Rocks.blend'
# www.blender.org
g Brick_Pile_m_03
v 0.053346 0.250000 -0.024366
v 0.065104 0.250000 -0.098439
v 0.053346 0.150000 -0.024366
v 0.065104 0.150000 -0.098439
v 0.305193 0.250000 0.015609
v 0.316951 0.250000 -0.058464
v 0.305193 0.150000 0.015609
v 0.316951 0.150000 -0.058464
v -0.212668 0.150000 -0.018232
v -0.212668 0.225000 -0.018232
v -0.205232 0.150000 -0.117955
v 0.041626 0.150000 0.000731
v 0.041626 0.225000 0.000731
v 0.049062 0.150000 -0.098992
v 0.049062 0.225000 -0.098992
v -0.204693 0.150000 0.096670
v -0.204693 0.225000 0.096670
v -0.195491 0.150000 -0.002906
v -0.195491 0.225000 -0.002906
v 0.049225 0.150000 0.120135
v 0.049225 0.225000 0.120135
v 0.058427 0.150000 0.020559
v 0.058427 0.225000 0.020559
v -0.063185 0.075000 -0.139511
v -0.063185 0.150000 -0.139511
v 0.036776 0.075000 -0.136733
v 0.036776 0.150000 -0.136733
v -0.070268 0.075000 0.115391
v -0.070268 0.150000 0.115391
v 0.029693 0.075000 0.118169
v 0.029693 0.150000 0.118169
v -0.179969 0.075000 -0.124780
v -0.179969 0.150000 -0.124780
v -0.080249 0.075000 -0.117289
v -0.080249 0.150000 -0.117289
v -0.199070 0.075000 0.129504
v -0.199070 0.150000 0.129504
v -0.099351 0.075000 0.136994
v -0.099351 0.150000 0.136994
v 0.192565 0.075000 -0.130212
v 0.192565 0.150000 -0.130212
v 0.292556 0.075000 -0.128941
v 0.292556 0.150000 -0.128941
v 0.189323 0.075000 0.124767
v 0.189323 0.150000 0.124767
v 0.289315 0.075000 0.126038
v 0.289315 0.150000 0.126038
v 0.074744 0.075000 -0.123079
v 0.074744 0.150000 -0.123079
v 0.174649 0.075000 -0.118722
v 0.174649 0.150000 -0.118722
v 0.063632 0.075000 0.131678
v 0.063632 0.150000 0.131678
v 0.163537 0.075000 0.136036
v 0.163537 0.150000 0.136036
v -0.542283 0.100000 0.199589
v -0.592534 0.100000 0.143912
v -0.542283 0.000000 0.199589
v -0.352983 0.100000 0.028737
v -0.403233 0.100000 -0.026940
v -0.352983 0.000000 0.028737
v -0.403233 0.000000 -0.026940
v -0.402866 -0.000000 0.168151
v -0.402866 0.075000 0.168151
v -0.355751 -0.000000 0.079945
v -0.355751 0.075000 0.079945
v -0.177943 -0.000000 0.288295
v -0.177943 0.075000 0.288295
v -0.130828 -0.000000 0.200090
v -0.130828 0.075000 0.200090
v 0.062644 -0.000000 0.104655
v 0.062644 0.075000 0.104655
v 0.065731 -0.000000 0.004702
v 0.065731 0.075000 0.004702
v 0.317522 -0.000000 0.112527
v 0.317522 0.075000 0.112527
v 0.320609 -0.000000 0.012575
v 0.320609 0.075000 0.012575
v 0.048630 -0.000000 -0.005323
v 0.048630 0.075000 -0.005323
v 0.048630 -0.000000 -0.105323
v 0.048630 0.075000 -0.105323
v 0.303630 -0.000000 -0.005323
v 0.303630 0.075000 -0.005323
v 0.303630 -0.000000 -0.105323
v 0.303630 0.075000 -0.105323
v -0.200633 -0.000000 0.108614
v -0.200633 0.075000 0.108614
v -0.200633 -0.000000 0.008615
v -0.200633 0.075000 0.008615
v 0.054367 -0.000000 0.108614
v 0.054367 0.075000 0.108614
v 0.054367 -0.000000 0.008615
v 0.054367 0.075000 0.008615
v 0.300964 0.100000 -0.199812
v 0.363682 0.100000 -0.240940
v 0.300964 0.000000 -0.199812
v 0.363682 0.000000 -0.240940
v 0.440797 0.100000 0.013429
v 0.503515 0.100000 -0.027699
v 0.440797 0.000000 0.013429
v 0.503515 0.000000 -0.027699
v -0.224106 -0.000000 -0.007221
v -0.224106 0.075000 -0.007221
v -0.228824 -0.000000 -0.107109
v -0.228824 0.075000 -0.107109
v 0.030610 -0.000000 -0.019252
v 0.030610 0.075000 -0.019252
v 0.025892 -0.000000 -0.119140
v 0.025892 0.075000 -0.119140
v -0.592534 0.034209 0.143912
v -0.573772 0.000000 0.164699
v -0.577428 0.000000 0.130278
v -0.206811 0.225000 -0.096775
v -0.205232 0.200423 -0.117955
v -0.162703 0.225000 -0.114783
vt 0.3578 0.3618
vt 0.3646 0.3527
vt 0.3646 0.3618
vt 0.3372 0.3035
vt 0.3304 0.2803
vt 0.3372 0.2803
vt 0.3144 0.3543
vt 0.3212 0.3634
vt 0.3144 0.3634
vt 0.3305 0.3268
vt 0.3236 0.3035
vt 0.3305 0.3035
vt 0.2962 0.3035
vt 0.2871 0.3267
vt 0.2871 0.3035
vt 0.2962 0.3267
vt 0.3053 0.3035
vt 0.3053 0.3267
vt 0.0733 0.3268
vt 0.0802 0.3035
vt 0.0802 0.3268
vt 0.0938 0.3436
vt 0.1029 0.3267
vt 0.1029 0.3436
vt 0.1124 0.3587
vt 0.1075 0.3527
vt 0.1124 0.3527
vt 0.1106 0.3618
vt 0.1075 0.3618
vt 0.2175 0.2803
vt 0.2198 0.2842
vt 0.2129 0.2803
vt 0.0482 0.3590
vt 0.0413 0.3499
vt 0.0482 0.3499
vt 0.0641 0.3452
vt 0.0573 0.3220
vt 0.0641 0.3220
vt 0.0368 0.3590
vt 0.0299 0.3499
vt 0.0368 0.3499
vt 0.0823 0.2571
vt 0.0892 0.2803
vt 0.0823 0.2803
vt 0.0482 0.2803
vt 0.0573 0.2571
vt 0.0573 0.2803
vt 0.0299 0.2803
vt 0.0391 0.2571
vt 0.0391 0.2803
vt 0.3510 0.3527
vt 0.3578 0.3618
vt 0.3510 0.3618
vt 0.3373 0.3268
vt 0.3441 0.3499
vt 0.3373 0.3499
vt 0.3578 0.3035
vt 0.3646 0.3126
vt 0.3578 0.3126
vt 0.2985 0.3267
vt 0.3053 0.3499
vt 0.2985 0.3499
vt 0.2689 0.3035
vt 0.2598 0.3268
vt 0.2598 0.3035
vt 0.3235 0.2803
vt 0.3144 0.3035
vt 0.3144 0.2803
vt 0.3213 0.3543
vt 0.3144 0.3452
vt 0.3213 0.3452
vt 0.3327 0.2571
vt 0.3395 0.2803
vt 0.3327 0.2803
vt 0.3122 0.3546
vt 0.3053 0.3455
vt 0.3122 0.3455
vt 0.3122 0.3455
vt 0.3053 0.3223
vt 0.3122 0.3223
vt 0.2780 0.3268
vt 0.2871 0.3035
vt 0.2871 0.3268
vt 0.2689 0.3268
vt 0.2780 0.3035
vt 0.2780 0.3268
vt 0.1007 0.3126
vt 0.1075 0.3217
vt 0.1007 0.3217
vt 0.0094 0.3268
vt 0.0163 0.3499
vt 0.0094 0.3499
vt 0.1075 0.3527
vt 0.1007 0.3436
vt 0.1075 0.3436
vt 0.0094 0.3499
vt 0.0026 0.3268
vt 0.0094 0.3268
vt 0.0299 0.3035
vt 0.0208 0.2803
vt 0.0299 0.2803
vt 0.0299 0.3035
vt 0.0391 0.2803
vt 0.0391 0.3035
vt 0.3236 0.3499
vt 0.3305 0.3590
vt 0.3236 0.3590
vt 0.3441 0.3035
vt 0.3510 0.3267
vt 0.3441 0.3267
vt 0.2666 0.3499
vt 0.2734 0.3590
vt 0.2666 0.3590
vt 0.3509 0.3035
vt 0.3441 0.2803
vt 0.3509 0.2804
vt 0.2689 0.2571
vt 0.2598 0.2803
vt 0.2598 0.2571
vt 0.2780 0.2803
vt 0.2871 0.2571
vt 0.2871 0.2803
vt 0.0368 0.3673
vt 0.0299 0.3590
vt 0.0368 0.3590
vt 0.1006 0.2803
vt 0.1074 0.3016
vt 0.1006 0.3016
vt 0.0413 0.3590
vt 0.0482 0.3673
vt 0.0413 0.3673
vt 0.0960 0.2571
vt 0.1028 0.2784
vt 0.0960 0.2784
vt 0.0117 0.2803
vt 0.0208 0.2571
vt 0.0208 0.2803
vt 0.3373 0.3590
vt 0.3305 0.3499
vt 0.3373 0.3499
vt 0.2871 0.3267
vt 0.2939 0.3499
vt 0.2871 0.3499
vt 0.3510 0.3590
vt 0.3441 0.3499
vt 0.3510 0.3499
vt 0.3510 0.3499
vt 0.3441 0.3267
vt 0.3510 0.3267
vt 0.3235 0.2571
vt 0.3144 0.2803
vt 0.3144 0.2571
vt 0.2130 0.3499
vt 0.2199 0.3590
vt 0.2130 0.3590
vt 0.1994 0.3268
vt 0.2062 0.3499
vt 0.1994 0.3499
vt 0.1811 0.3546
vt 0.1879 0.3636
vt 0.1811 0.3636
vt 0.2289 0.2803
vt 0.2221 0.2571
vt 0.2289 0.2571
vt 0.1719 0.3035
vt 0.1811 0.2803
vt 0.1811 0.3035
vt 0.2666 0.3590
vt 0.2598 0.3499
vt 0.2666 0.3499
vt 0.2780 0.3268
vt 0.2848 0.3499
vt 0.2780 0.3499
vt 0.3668 0.2662
vt 0.3600 0.2571
vt 0.3668 0.2571
vt 0.3305 0.3268
vt 0.3373 0.3499
vt 0.3305 0.3499
vt 0.2598 0.2803
vt 0.2689 0.3035
vt 0.2598 0.3035
vt 0.1128 0.2894
vt 0.1074 0.2803
vt 0.1128 0.2803
vt 0.1128 0.2985
vt 0.1074 0.2894
vt 0.1128 0.2894
vt 0.0664 0.2803
vt 0.0732 0.3035
vt 0.0664 0.3035
vt 0.0482 0.3221
vt 0.0573 0.3038
vt 0.0573 0.3223
vt 0.0755 0.2571
vt 0.0664 0.2755
vt 0.0664 0.2571
vt 0.2357 0.2662
vt 0.2426 0.2753
vt 0.2357 0.2753
vt 0.2266 0.2803
vt 0.2334 0.3034
vt 0.2266 0.3034
vt 0.2427 0.3358
vt 0.2358 0.3267
vt 0.2427 0.3267
vt 0.2267 0.3035
vt 0.2335 0.3266
vt 0.2267 0.3266
vt 0.1719 0.2803
vt 0.1811 0.2571
vt 0.1811 0.2803
vt 0.0664 0.3189
vt 0.0633 0.3203
vt 0.0573 0.3204
vt 0.2198 0.2804
vt 0.1583 0.3590
vt 0.1537 0.3590
vt 0.1537 0.3499
vt 0.1446 0.2842
vt 0.1465 0.2803
vt 0.1537 0.2803
vt 0.1537 0.3035
vt 0.1446 0.3035
vt 0.1902 0.2803
vt 0.1811 0.3035
vt 0.1811 0.2803
vt 0.2335 0.3436
vt 0.2267 0.3527
vt 0.2267 0.3436
vt 0.1605 0.3499
vt 0.1605 0.3571
vt 0.2129 0.3035
vt 0.2198 0.3035
vt 0.0574 0.3038
vt 0.0665 0.3035
vt 0.2130 0.3268
vt 0.2199 0.3035
vt 0.2199 0.3268
vt 0.1125 0.3126
vt 0.1075 0.3035
vt 0.1125 0.3035
vt 0.0665 0.3220
vt 0.3578 0.3527
vt 0.3304 0.3035
vt 0.3212 0.3543
vt 0.3236 0.3268
vt 0.2962 0.3267
vt 0.2962 0.3035
vt 0.0733 0.3035
vt 0.0938 0.3267
vt 0.0413 0.3590
vt 0.0573 0.3452
vt 0.0299 0.3590
vt 0.0892 0.2571
vt 0.0482 0.2571
vt 0.0299 0.2571
vt 0.3578 0.3527
vt 0.3441 0.3268
vt 0.3646 0.3035
vt 0.3053 0.3267
vt 0.2689 0.3268
vt 0.3235 0.3035
vt 0.3144 0.3543
vt 0.3395 0.2571
vt 0.3053 0.3546
vt 0.3053 0.3455
vt 0.2780 0.3035
vt 0.2689 0.3035
vt 0.1075 0.3126
vt 0.0163 0.3268
vt 0.1007 0.3527
vt 0.0026 0.3499
vt 0.0208 0.3035
vt 0.0299 0.2803
vt 0.3305 0.3499
vt 0.3510 0.3035
vt 0.2734 0.3499
vt 0.3441 0.3035
vt 0.2689 0.2803
vt 0.2780 0.2571
vt 0.0299 0.3673
vt 0.1074 0.2803
vt 0.0482 0.3590
vt 0.1028 0.2571
vt 0.0117 0.2571
vt 0.3305 0.3590
vt 0.2939 0.3267
vt 0.3441 0.3590
vt 0.3441 0.3499
vt 0.3235 0.2803
vt 0.2199 0.3499
vt 0.2062 0.3268
vt 0.1879 0.3546
vt 0.2221 0.2803
vt 0.1719 0.2803
vt 0.2598 0.3590
vt 0.2848 0.3268
vt 0.3600 0.2662
vt 0.3373 0.3268
vt 0.2689 0.2803
vt 0.1074 0.2894
vt 0.1074 0.2985
vt 0.0732 0.2803
vt 0.0482 0.3035
vt 0.0755 0.2755
vt 0.2426 0.2662
vt 0.2334 0.2803
vt 0.2358 0.3358
vt 0.2335 0.3035
vt 0.1719 0.2571
vt 0.1902 0.3035
vt 0.2335 0.3527
vt 0.2130 0.3035
vt 0.1075 0.3126
vn -0.9876 0.0000 -0.1568
vn 0.0000 -1.0000 -0.0000
vn 0.9876 0.0000 0.1568
vn 0.0000 1.0000 0.0000
vn -0.1568 -0.0000 0.9876
vn 0.1568 0.0000 -0.9876
vn 0.6700 0.0000 0.7424
vn -0.7424 0.0000 0.6700
vn 0.0744 0.0000 -0.9972
vn -0.9958 0.0000 -0.0920
vn 0.0920 0.0000 -0.9958
vn 0.9958 0.0000 0.0920
vn -0.0920 0.0000 0.9958
vn 0.0278 0.0000 -0.9996
vn 0.9996 0.0000 0.0278
vn -0.0278 0.0000 0.9996
vn -0.9996 0.0000 -0.0278
vn 0.0749 0.0000 -0.9972
vn 0.9972 0.0000 0.0749
vn -0.0749 0.0000 0.9972
vn -0.9972 0.0000 -0.0749
vn 0.0127 0.0000 -0.9999
vn 0.9999 0.0000 0.0127
vn -0.0127 0.0000 0.9999
vn -0.9999 0.0000 -0.0127
vn 0.0436 0.0000 -0.9991
vn 0.9991 0.0000 0.0436
vn -0.0436 0.0000 0.9991
vn -0.9991 0.0000 -0.0436
vn -0.8821 0.0000 -0.4712
vn 0.4712 0.0000 -0.8821
vn 0.8821 0.0000 0.4712
vn -0.4712 0.0000 0.8821
vn -0.9995 0.0000 -0.0309
vn 0.0309 0.0000 -0.9995
vn 0.9995 0.0000 0.0309
vn -0.0309 0.0000 0.9995
vn -1.0000 0.0000 -0.0000
vn 0.0000 0.0000 -1.0000
vn 1.0000 0.0000 0.0000
vn 0.0000 0.0000 1.0000
vn -0.5484 0.0000 -0.8362
vn 0.5484 0.0000 0.8362
vn -0.8362 0.0000 0.5484
vn 0.8362 0.0000 -0.5484
vn -0.9989 0.0000 0.0472
vn -0.0472 0.0000 -0.9989
vn 0.9989 0.0000 -0.0472
vn 0.0472 0.0000 0.9989
vn -0.6700 0.0000 -0.7424
vn -0.2990 0.6119 -0.7323
vn -0.9972 0.0000 -0.0744
vn 0.9972 0.0000 0.0744
vn -0.0744 0.0000 0.9972
vn 0.7424 0.0000 -0.6700
vn -0.8961 -0.4336 0.0952
s off
f 2/1/1 3/2/1 1/3/1
f 8/4/2 3/5/2 4/6/2
f 6/7/3 7/8/3 8/9/3
f 2/10/4 5/11/4 6/12/4
f 3/13/5 5/14/5 1/15/5
f 8/16/6 2/17/6 6/18/6
f 60/19/4 56/20/4 59/21/4
f 59/22/7 58/23/7 61/24/7
f 111/25/8 56/26/8 57/27/8
f 111/25/8 112/28/8 58/29/8
f 115/30/9 116/31/9 11/32/9
f 19/33/10 16/34/10 17/35/10
f 23/36/11 18/37/11 19/38/11
f 21/39/12 22/40/12 23/41/12
f 17/42/13 20/43/13 21/44/13
f 18/45/2 20/46/2 16/47/2
f 23/48/4 17/49/4 21/50/4
f 27/51/14 24/52/14 25/53/14
f 31/54/15 26/55/15 27/56/15
f 29/57/16 30/58/16 31/59/16
f 25/60/17 28/61/17 29/62/17
f 26/63/2 28/64/2 24/65/2
f 31/66/4 25/67/4 29/68/4
f 35/69/18 32/70/18 33/71/18
f 39/72/19 34/73/19 35/74/19
f 37/75/20 38/76/20 39/77/20
f 33/78/21 36/79/21 37/80/21
f 34/81/2 36/82/2 32/83/2
f 39/84/4 33/85/4 37/86/4
f 43/87/22 40/88/22 41/89/22
f 47/90/23 42/91/23 43/92/23
f 45/93/24 46/94/24 47/95/24
f 41/96/25 44/97/25 45/98/25
f 40/99/2 46/100/2 44/101/2
f 47/102/4 41/103/4 45/104/4
f 51/105/26 48/106/26 49/107/26
f 55/108/27 50/109/27 51/110/27
f 53/111/28 54/112/28 55/113/28
f 49/114/29 52/115/29 53/116/29
f 50/117/2 52/118/2 48/119/2
f 55/120/4 49/121/4 53/122/4
f 66/123/30 63/124/30 64/125/30
f 70/126/31 65/127/31 66/128/31
f 68/129/32 69/130/32 70/131/32
f 64/132/33 67/133/33 68/134/33
f 70/135/4 64/136/4 68/137/4
f 74/138/34 71/139/34 72/140/34
f 78/141/35 73/142/35 74/143/35
f 76/144/36 77/145/36 78/146/36
f 72/147/37 75/148/37 76/149/37
f 78/150/4 72/151/4 76/152/4
f 82/153/38 79/154/38 80/155/38
f 86/156/39 81/157/39 82/158/39
f 84/159/40 85/160/40 86/161/40
f 80/162/41 83/163/41 84/164/41
f 86/165/4 80/166/4 84/167/4
f 90/168/38 87/169/38 88/170/38
f 94/171/39 89/172/39 90/173/39
f 92/174/40 93/175/40 94/176/40
f 88/177/41 91/178/41 92/179/41
f 92/180/4 90/181/4 88/182/4
f 98/183/42 95/184/42 96/185/42
f 100/186/43 101/187/43 102/188/43
f 96/189/4 99/190/4 100/191/4
f 97/192/44 99/193/44 95/194/44
f 102/195/45 96/196/45 100/197/45
f 106/198/46 103/199/46 104/200/46
f 110/201/47 105/202/47 106/203/47
f 108/204/48 109/205/48 110/206/48
f 104/207/49 107/208/49 108/209/49
f 110/210/4 104/211/4 108/212/4
f 113/213/50 111/214/50 57/215/50
f 116/31/51 115/30/51 114/216/51
f 115/217/52 11/218/52 9/219/52
f 116/220/4 114/221/4 10/222/4
f 116/220/4 13/223/4 15/224/4
f 12/225/2 11/226/2 14/227/2
f 15/228/53 12/229/53 14/230/53
f 9/219/52 10/231/52 114/232/52
f 114/232/52 115/217/52 9/219/52
f 14/233/9 116/31/9 15/234/9
f 113/213/50 60/235/50 62/236/50
f 13/237/54 9/238/54 12/239/54
f 61/240/55 60/241/55 59/242/55
f 111/214/56 113/213/56 112/243/56
f 2/1/1 4/244/1 3/2/1
f 8/4/2 7/245/2 3/5/2
f 6/7/3 5/246/3 7/8/3
f 2/10/4 1/247/4 5/11/4
f 3/13/5 7/248/5 5/14/5
f 8/16/6 4/249/6 2/17/6
f 60/19/4 57/250/4 56/20/4
f 59/22/7 56/251/7 58/23/7
f 111/25/8 58/29/8 56/26/8
f 19/33/10 18/252/10 16/34/10
f 23/36/11 22/253/11 18/37/11
f 21/39/12 20/254/12 22/40/12
f 17/42/13 16/255/13 20/43/13
f 18/45/2 22/256/2 20/46/2
f 23/48/4 19/257/4 17/49/4
f 27/51/14 26/258/14 24/52/14
f 31/54/15 30/259/15 26/55/15
f 29/57/16 28/260/16 30/58/16
f 25/60/17 24/261/17 28/61/17
f 26/63/2 30/262/2 28/64/2
f 31/66/4 27/263/4 25/67/4
f 35/69/18 34/264/18 32/70/18
f 39/72/19 38/265/19 34/73/19
f 37/75/20 36/266/20 38/76/20
f 33/78/21 32/267/21 36/79/21
f 34/81/2 38/268/2 36/82/2
f 39/84/4 35/269/4 33/85/4
f 43/87/22 42/270/22 40/88/22
f 47/90/23 46/271/23 42/91/23
f 45/93/24 44/272/24 46/94/24
f 41/96/25 40/273/25 44/97/25
f 40/99/2 42/274/2 46/100/2
f 47/102/4 43/275/4 41/103/4
f 51/105/26 50/276/26 48/106/26
f 55/108/27 54/277/27 50/109/27
f 53/111/28 52/278/28 54/112/28
f 49/114/29 48/279/29 52/115/29
f 50/117/2 54/280/2 52/118/2
f 55/120/4 51/281/4 49/121/4
f 66/123/30 65/282/30 63/124/30
f 70/126/31 69/283/31 65/127/31
f 68/129/32 67/284/32 69/130/32
f 64/132/33 63/285/33 67/133/33
f 70/135/4 66/286/4 64/136/4
f 74/138/34 73/287/34 71/139/34
f 78/141/35 77/288/35 73/142/35
f 76/144/36 75/289/36 77/145/36
f 72/147/37 71/290/37 75/148/37
f 78/150/4 74/291/4 72/151/4
f 82/153/38 81/292/38 79/154/38
f 86/156/39 85/293/39 81/157/39
f 84/159/40 83/294/40 85/160/40
f 80/162/41 79/295/41 83/163/41
f 86/165/4 82/296/4 80/166/4
f 90/168/38 89/297/38 87/169/38
f 94/171/39 93/298/39 89/172/39
f 92/174/40 91/299/40 93/175/40
f 88/177/41 87/300/41 91/178/41
f 92/180/4 94/301/4 90/181/4
f 98/183/42 97/302/42 95/184/42
f 100/186/43 99/303/43 101/187/43
f 96/189/4 95/304/4 99/190/4
f 97/192/44 101/305/44 99/193/44
f 102/195/45 98/306/45 96/196/45
f 106/198/46 105/307/46 103/199/46
f 110/201/47 109/308/47 105/202/47
f 108/204/48 107/309/48 109/205/48
f 104/207/49 103/310/49 107/208/49
f 110/210/4 106/311/4 104/211/4
f 116/220/4 10/222/4 13/223/4
f 12/225/2 9/312/2 11/226/2
f 15/228/53 13/313/53 12/229/53
f 14/233/9 11/32/9 116/31/9
f 113/213/50 57/215/50 60/235/50
f 13/237/54 10/314/54 9/238/54
f 61/240/55 62/315/55 60/241/55
