# Blender v2.77 (sub 0) OBJ File: 'LowPoly_Level_Kit_Rocks.blend'
# www.blender.org
g Brick_Pile_m_09
v 0.082186 -0.000313 -0.298010
v 0.082186 0.070640 -0.322314
v 0.181955 -0.002512 -0.304432
v 0.181955 0.068440 -0.328736
v 0.099495 0.082132 -0.057327
v 0.099495 0.153085 -0.081632
v 0.199265 0.150885 -0.088053
v -0.040498 0.085150 -0.013833
v -0.061910 0.155627 0.000292
v 0.014568 0.085150 0.069640
v -0.006845 0.155627 0.083765
v -0.240518 -0.002065 0.118116
v -0.261930 0.068412 0.132241
v -0.185452 -0.002065 0.201589
v -0.206864 0.068412 0.215715
v 0.292471 -0.000000 0.103519
v 0.292471 0.075000 0.103519
v 0.276120 -0.000000 0.202174
v 0.276120 0.075000 0.202174
v 0.040903 -0.000000 0.061824
v 0.040903 0.075000 0.061824
v 0.024552 -0.000000 0.160479
v 0.024552 0.075000 0.160479
v -0.352403 -0.000000 0.283256
v -0.352403 0.075000 0.283256
v -0.451755 -0.000000 0.294623
v -0.451755 0.075000 0.294623
v -0.381388 -0.000000 0.029909
v -0.381388 0.075000 0.029909
v -0.480740 -0.000000 0.041275
v -0.480740 0.075000 0.041275
v -0.329912 0.100000 0.115039
v -0.362019 0.100000 0.047259
v -0.329912 0.000000 0.115039
v -0.362019 0.000000 0.047259
v -0.099460 0.100000 0.005874
v -0.099460 0.000000 0.005874
v -0.131568 0.000000 -0.061906
v -0.361330 0.100000 0.038885
v -0.411766 0.100000 -0.016624
v -0.361330 0.000000 0.038885
v -0.411766 0.000000 -0.016624
v -0.172600 0.100000 -0.132596
v -0.223035 0.100000 -0.188105
v -0.172600 0.000000 -0.132596
v -0.223035 0.000000 -0.188105
v 0.065943 -0.000000 0.015586
v 0.065943 0.075000 0.015586
v -0.016193 -0.000000 0.072628
v -0.016193 0.075000 0.072628
v -0.079515 -0.000000 -0.193858
v -0.079515 0.075000 -0.193858
v -0.161650 -0.000000 -0.136816
v -0.161650 0.075000 -0.136816
v 0.024569 -0.000000 0.440099
v 0.024569 0.075000 0.440099
v -0.074783 -0.000000 0.451466
v -0.074783 0.075000 0.451466
v -0.004416 -0.000000 0.186752
v -0.004416 0.075000 0.186752
v -0.103768 -0.000000 0.198118
v -0.103768 0.075000 0.198118
v -0.341658 -0.000000 -0.117410
v -0.341658 0.075000 -0.117410
v -0.423475 -0.000000 -0.174908
v -0.423475 0.075000 -0.174908
v -0.195038 -0.000000 -0.326043
v -0.195038 0.075000 -0.326043
v -0.276855 -0.000000 -0.383541
v -0.276855 0.075000 -0.383541
v 0.356092 0.100000 -0.028444
v 0.385728 0.100000 -0.097341
v 0.356092 0.000000 -0.028444
v 0.385728 0.000000 -0.097341
v 0.590340 0.100000 0.072317
v 0.619976 0.100000 0.003420
v 0.590340 0.000000 0.072317
v 0.619976 0.000000 0.003420
v 0.070476 -0.000000 0.025442
v 0.070476 0.075000 0.025442
v 0.063688 -0.000000 -0.074327
v 0.063688 0.075000 -0.074327
v 0.324888 -0.000000 0.008133
v 0.324888 0.075000 0.008133
v 0.318100 -0.000000 -0.091636
v 0.318100 0.075000 -0.091636
v 0.199265 0.106740 -0.072932
v 0.197022 0.069253 -0.094925
v 0.175981 0.080446 -0.062250
v -0.131568 0.067301 -0.061906
v -0.121868 0.100000 -0.041430
v -0.173577 0.100000 -0.042006
vt 0.5365 0.2747
vt 0.5452 0.2936
vt 0.5365 0.2936
vt 0.5365 0.3142
vt 0.5278 0.2938
vt 0.5365 0.2936
vt 0.5343 0.3421
vt 0.5348 0.3449
vt 0.5317 0.3440
vt 0.6083 0.3418
vt 0.6144 0.3504
vt 0.6083 0.3494
vt 0.5888 0.3131
vt 0.5953 0.3343
vt 0.5888 0.3344
vt 0.5625 0.3456
vt 0.5687 0.3536
vt 0.5625 0.3539
vt 0.5951 0.2934
vt 0.5886 0.2719
vt 0.5951 0.2720
vt 0.5716 0.3127
vt 0.5799 0.2926
vt 0.5799 0.3114
vt 0.5799 0.2924
vt 0.5886 0.2720
vt 0.5886 0.2924
vt 0.6081 0.2801
vt 0.6146 0.2882
vt 0.6081 0.2882
vt 0.6037 0.2936
vt 0.6102 0.3125
vt 0.6037 0.3122
vt 0.6102 0.2938
vt 0.6167 0.3008
vt 0.6102 0.3009
vt 0.5888 0.3345
vt 0.5953 0.3525
vt 0.5888 0.3527
vt 0.5452 0.3152
vt 0.5365 0.2936
vt 0.5452 0.2936
vt 0.9118 0.3535
vt 0.9053 0.3452
vt 0.9118 0.3453
vt 0.9682 0.2927
vt 0.9617 0.2720
vt 0.9682 0.2719
vt 0.9682 0.2720
vt 0.9747 0.2800
vt 0.9682 0.2801
vt 0.9383 0.3343
vt 0.9318 0.3127
vt 0.9383 0.3127
vt 0.9140 0.2719
vt 0.9227 0.2936
vt 0.9140 0.2936
vt 0.5671 0.3152
vt 0.5690 0.3192
vt 0.5625 0.3152
vt 0.9684 0.3215
vt 0.9746 0.3299
vt 0.9684 0.3300
vt 0.9608 0.3609
vt 0.9554 0.3524
vt 0.9608 0.3524
vt 0.9118 0.3369
vt 0.9053 0.3152
vt 0.9118 0.3152
vt 0.9487 0.2924
vt 0.9400 0.3129
vt 0.9400 0.2927
vt 0.9313 0.2719
vt 0.9400 0.2926
vt 0.9313 0.2925
vt 0.9053 0.3370
vt 0.9118 0.3451
vt 0.9053 0.3452
vt 0.9617 0.2932
vt 0.9552 0.2719
vt 0.9617 0.2720
vt 0.9227 0.3369
vt 0.9292 0.3452
vt 0.9227 0.3452
vt 0.9573 0.2936
vt 0.9639 0.3129
vt 0.9573 0.3129
vt 0.9227 0.2719
vt 0.9313 0.2936
vt 0.9227 0.2936
vt 0.8879 0.3449
vt 0.8944 0.3532
vt 0.8879 0.3531
vt 0.9619 0.3336
vt 0.9554 0.3130
vt 0.9619 0.3129
vt 0.9161 0.3454
vt 0.9227 0.3534
vt 0.9161 0.3535
vt 0.8944 0.3360
vt 0.8879 0.3143
vt 0.8944 0.3143
vt 0.9053 0.2719
vt 0.9140 0.2936
vt 0.9053 0.2936
vt 0.6083 0.3504
vt 0.6148 0.3578
vt 0.6083 0.3576
vt 0.5953 0.3337
vt 0.6018 0.3524
vt 0.5953 0.3522
vt 0.5947 0.3527
vt 0.5888 0.3591
vt 0.5888 0.3527
vt 0.5716 0.3346
vt 0.5781 0.3525
vt 0.5716 0.3527
vt 0.5625 0.2936
vt 0.5538 0.3152
vt 0.5538 0.2936
vt 0.9487 0.3277
vt 0.9403 0.3325
vt 0.9400 0.3279
vt 0.9704 0.3009
vt 0.9759 0.3094
vt 0.9704 0.3094
vt 0.9031 0.3368
vt 0.8966 0.3152
vt 0.9031 0.3152
vt 0.9573 0.2972
vt 0.9487 0.3126
vt 0.9487 0.2969
vt 0.9489 0.3129
vt 0.9403 0.3131
vt 0.9684 0.3338
vt 0.9749 0.3417
vt 0.9684 0.3418
vt 0.9619 0.3338
vt 0.9684 0.3540
vt 0.9619 0.3541
vt 0.8966 0.3369
vt 0.9031 0.3453
vt 0.8966 0.3453
vt 0.9619 0.3129
vt 0.9684 0.3337
vt 0.9619 0.3335
vt 0.9313 0.3152
vt 0.9227 0.2936
vt 0.9313 0.2936
vt 0.5385 0.2719
vt 0.5452 0.2719
vt 0.5863 0.3532
vt 0.5799 0.3328
vt 0.5863 0.3325
vt 0.5560 0.3340
vt 0.5625 0.3152
vt 0.5625 0.3368
vt 0.5284 0.3360
vt 0.5348 0.3360
vt 0.5585 0.3368
vt 0.5278 0.3440
vt 0.5365 0.3453
vt 0.5427 0.3539
vt 0.5365 0.3533
vt 0.5279 0.2719
vt 0.5306 0.2720
vt 0.5278 0.2759
vt 0.6083 0.3157
vt 0.6145 0.3214
vt 0.6083 0.3214
vt 0.5560 0.3453
vt 0.5625 0.3368
vt 0.5625 0.3453
vt 0.5365 0.2720
vt 0.5625 0.3369
vt 0.5690 0.3369
vt 0.5365 0.2936
vt 0.6101 0.3129
vt 0.6145 0.3129
vt 0.5452 0.2936
vt 0.5538 0.3152
vt 0.5452 0.3152
vt 0.5278 0.3143
vt 0.6144 0.3427
vt 0.5953 0.3129
vt 0.5687 0.3452
vt 0.5886 0.2933
vt 0.5716 0.2939
vt 0.5799 0.2719
vt 0.6146 0.2801
vt 0.6102 0.2939
vt 0.6167 0.2936
vt 0.5953 0.3344
vt 0.5365 0.3152
vt 0.9053 0.3534
vt 0.9617 0.2927
vt 0.9747 0.2719
vt 0.9318 0.3343
vt 0.9227 0.2719
vt 0.9746 0.3214
vt 0.9554 0.3609
vt 0.9053 0.3369
vt 0.9487 0.3127
vt 0.9400 0.2720
vt 0.9118 0.3369
vt 0.9552 0.2932
vt 0.9292 0.3369
vt 0.9639 0.2937
vt 0.9313 0.2719
vt 0.8944 0.3450
vt 0.9554 0.3337
vt 0.9227 0.3453
vt 0.8879 0.3360
vt 0.9140 0.2719
vt 0.6148 0.3505
vt 0.6018 0.3338
vt 0.5947 0.3590
vt 0.5781 0.3343
vt 0.5625 0.3152
vt 0.9489 0.3323
vt 0.9759 0.3009
vt 0.8966 0.3368
vt 0.9573 0.3129
vt 0.9749 0.3337
vt 0.9684 0.3337
vt 0.9031 0.3368
vt 0.9684 0.3131
vt 0.9227 0.3152
vt 0.5799 0.3535
vt 0.5560 0.3152
vt 0.5427 0.3459
vt 0.5560 0.3368
vt 0.5278 0.2936
vt 0.5538 0.2936
vn -0.0000 -0.9460 0.3241
vn 0.0000 0.9460 -0.3241
vn 0.7086 -0.3881 0.5893
vn 0.7844 0.3420 -0.5174
vn 0.5507 -0.0000 0.8347
vn -0.7844 -0.3420 0.5174
vn -0.5507 -0.0000 -0.8347
vn 0.2855 -0.9397 -0.1883
vn -0.2855 0.9397 0.1883
vn 0.9865 0.0000 0.1635
vn -0.1635 0.0000 0.9865
vn -0.9865 0.0000 -0.1635
vn 0.1635 0.0000 -0.9865
vn 0.0000 1.0000 0.0000
vn 0.1137 0.0000 0.9935
vn -0.9935 0.0000 0.1137
vn -0.1137 0.0000 -0.9935
vn 0.9935 0.0000 -0.1137
vn -0.7401 0.0000 0.6725
vn 0.7401 0.0000 -0.6725
vn 0.6725 0.0000 0.7401
vn -0.6725 0.0000 -0.7401
vn 0.5704 0.0000 0.8214
vn -0.8214 0.0000 0.5704
vn -0.5704 0.0000 -0.8214
vn 0.8214 0.0000 -0.5704
vn -0.5750 0.0000 0.8182
vn -0.8182 0.0000 -0.5750
vn 0.5750 0.0000 -0.8182
vn 0.8182 0.0000 0.5750
vn -0.9186 0.0000 -0.3951
vn 0.9186 0.0000 0.3951
vn -0.3951 0.0000 0.9186
vn 0.3951 0.0000 -0.9186
vn -0.9977 0.0000 0.0679
vn -0.0679 0.0000 -0.9977
vn 0.9977 0.0000 -0.0679
vn 0.0679 0.0000 0.9977
vn -0.9977 0.0220 0.0642
vn 0.9977 -0.0220 -0.0642
vn 0.0679 0.3233 0.9439
vn -0.0679 -0.3233 -0.9439
vn 0.0095 0.5287 -0.8488
vn 0.9037 0.0000 -0.4281
vn -0.9037 0.0000 0.4281
vn -0.4281 0.0000 -0.9037
vn 0.4281 -0.0000 0.9037
s off
f 88/1/1 1/2/1 3/3/1
f 6/4/2 4/5/2 2/6/2
f 89/7/3 88/8/3 87/9/3
f 11/10/4 8/11/4 9/12/4
f 15/13/5 10/14/5 11/15/5
f 13/16/6 14/17/6 15/18/6
f 9/19/7 12/20/7 13/21/7
f 10/22/8 12/23/8 8/24/8
f 15/25/9 9/26/9 13/27/9
f 19/28/10 16/29/10 17/30/10
f 23/31/11 18/32/11 19/33/11
f 21/34/12 22/35/12 23/36/12
f 17/37/13 20/38/13 21/39/13
f 21/40/14 19/41/14 17/42/14
f 27/43/15 24/44/15 25/45/15
f 31/46/16 26/47/16 27/48/16
f 29/49/17 30/50/17 31/51/17
f 25/52/18 28/53/18 29/54/18
f 29/55/14 27/56/14 25/57/14
f 91/58/14 92/59/14 36/60/14
f 42/61/19 39/62/19 40/63/19
f 44/64/20 45/65/20 46/66/20
f 40/67/14 43/68/14 44/69/14
f 41/70/21 43/71/21 39/72/21
f 44/73/22 42/74/22 40/75/22
f 50/76/23 47/77/23 48/78/23
f 54/79/24 49/80/24 50/81/24
f 52/82/25 53/83/25 54/84/25
f 48/85/26 51/86/26 52/87/26
f 52/88/14 50/89/14 48/90/14
f 58/91/15 55/92/15 56/93/15
f 62/94/16 57/95/16 58/96/16
f 60/97/17 61/98/17 62/99/17
f 56/100/18 59/101/18 60/102/18
f 60/103/14 58/104/14 56/105/14
f 66/106/27 63/107/27 64/108/27
f 70/109/28 65/110/28 66/111/28
f 68/112/29 69/113/29 70/114/29
f 64/115/30 67/116/30 68/117/30
f 70/118/14 64/119/14 68/120/14
f 74/121/31 71/122/31 72/123/31
f 76/124/32 77/125/32 78/126/32
f 72/127/14 75/128/14 76/129/14
f 73/130/33 75/131/33 71/132/33
f 78/133/34 72/123/34 76/134/34
f 82/135/35 79/136/35 80/137/35
f 86/138/36 81/139/36 82/140/36
f 84/141/37 85/142/37 86/143/37
f 80/144/38 83/145/38 84/146/38
f 84/147/14 82/148/14 80/149/14
f 88/1/1 89/150/1 5/151/1
f 5/152/39 2/153/39 1/154/39
f 88/155/40 4/156/40 7/157/40
f 89/7/41 6/158/41 5/159/41
f 7/157/40 87/160/40 88/155/40
f 87/9/41 7/161/41 6/158/41
f 1/162/42 4/163/42 3/164/42
f 91/165/43 90/166/43 92/167/43
f 90/168/44 37/169/44 38/170/44
f 33/171/45 34/172/45 32/173/45
f 92/167/46 90/166/46 38/174/46
f 32/175/14 92/59/14 33/176/14
f 35/177/46 92/167/46 38/174/46
f 90/168/44 91/178/44 36/179/44
f 32/180/47 37/181/47 36/182/47
f 88/1/1 5/151/1 1/2/1
f 6/4/2 7/183/2 4/5/2
f 11/10/4 10/184/4 8/11/4
f 15/13/5 14/185/5 10/14/5
f 13/16/6 12/186/6 14/17/6
f 9/19/7 8/187/7 12/20/7
f 10/22/8 14/188/8 12/23/8
f 15/25/9 11/189/9 9/26/9
f 19/28/10 18/190/10 16/29/10
f 23/31/11 22/191/11 18/32/11
f 21/34/12 20/192/12 22/35/12
f 17/37/13 16/193/13 20/38/13
f 21/40/14 23/194/14 19/41/14
f 27/43/15 26/195/15 24/44/15
f 31/46/16 30/196/16 26/47/16
f 29/49/17 28/197/17 30/50/17
f 25/52/18 24/198/18 28/53/18
f 29/55/14 31/199/14 27/56/14
f 42/61/19 41/200/19 39/62/19
f 44/64/20 43/201/20 45/65/20
f 40/67/14 39/202/14 43/68/14
f 41/70/21 45/203/21 43/71/21
f 44/73/22 46/204/22 42/74/22
f 50/76/23 49/205/23 47/77/23
f 54/79/24 53/206/24 49/80/24
f 52/82/25 51/207/25 53/83/25
f 48/85/26 47/208/26 51/86/26
f 52/88/14 54/209/14 50/89/14
f 58/91/15 57/210/15 55/92/15
f 62/94/16 61/211/16 57/95/16
f 60/97/17 59/212/17 61/98/17
f 56/100/18 55/213/18 59/101/18
f 60/103/14 62/214/14 58/104/14
f 66/106/27 65/215/27 63/107/27
f 70/109/28 69/216/28 65/110/28
f 68/112/29 67/217/29 69/113/29
f 64/115/30 63/218/30 67/116/30
f 70/118/14 66/219/14 64/119/14
f 74/121/31 73/220/31 71/122/31
f 76/124/32 75/221/32 77/125/32
f 72/127/14 71/222/14 75/128/14
f 73/130/33 77/223/33 75/131/33
f 78/133/34 74/121/34 72/123/34
f 82/135/35 81/224/35 79/136/35
f 86/138/36 85/225/36 81/139/36
f 84/141/37 83/226/37 85/142/37
f 80/144/38 79/227/38 83/145/38
f 84/147/14 86/228/14 82/148/14
f 5/152/39 6/229/39 2/153/39
f 88/155/40 3/230/40 4/156/40
f 89/7/41 87/9/41 6/158/41
f 1/162/42 2/231/42 4/163/42
f 90/168/44 36/179/44 37/169/44
f 33/171/45 35/232/45 34/172/45
f 32/175/14 36/60/14 92/59/14
f 35/177/46 33/233/46 92/167/46
f 32/180/47 34/234/47 37/181/47
