# Blender v2.77 (sub 0) OBJ File: 'LowPoly_Level_Kit_Rocks.blend'
# www.blender.org
g Brick_Pile_m_10
v -0.170486 0.075000 -0.013731
v -0.170486 0.150000 -0.013731
v -0.137701 0.075000 -0.108204
v -0.137701 0.150000 -0.108204
v 0.070420 0.075000 0.069870
v 0.070420 0.150000 0.069870
v 0.103205 0.075000 -0.024603
v 0.103205 0.150000 -0.024603
v -0.158317 0.075000 -0.124797
v -0.158317 0.150000 -0.124797
v -0.135717 0.075000 -0.222210
v -0.135717 0.150000 -0.222210
v 0.090085 0.075000 -0.067166
v 0.090085 0.150000 -0.067166
v 0.112685 0.075000 -0.164578
v 0.112685 0.150000 -0.164578
v 0.207524 0.100000 -0.047026
v 0.142893 0.100000 -0.085077
v 0.207524 0.000000 -0.047026
v 0.142893 0.000000 -0.085077
v 0.336897 0.100000 -0.266770
v 0.272266 0.100000 -0.304821
v 0.336897 0.000000 -0.266770
v 0.272266 0.000000 -0.304821
v -0.157632 -0.000000 0.088051
v -0.157632 0.075000 0.088051
v -0.060803 -0.000000 0.113033
v -0.060803 0.075000 0.113033
v -0.221337 -0.000000 0.334965
v -0.221337 0.075000 0.334965
v -0.124508 -0.000000 0.359947
v -0.124508 0.075000 0.359947
v 0.092482 -0.000000 0.029625
v 0.092482 0.075000 0.029625
v 0.187168 -0.000000 -0.002540
v 0.187168 0.075000 -0.002540
v 0.174503 -0.000000 0.271074
v 0.174503 0.075000 0.271074
v 0.269189 -0.000000 0.238909
v 0.269189 0.075000 0.238909
v -0.356673 -0.000000 -0.127924
v -0.356673 0.075000 -0.127924
v -0.262848 -0.000000 -0.162521
v -0.262848 0.075000 -0.162521
v -0.268450 -0.000000 0.111328
v -0.268450 0.075000 0.111328
v -0.174625 -0.000000 0.076731
v -0.174625 0.075000 0.076731
v -0.064065 -0.000000 0.011755
v -0.064065 0.075000 0.011755
v -0.161111 -0.000000 -0.012372
v -0.161111 0.075000 -0.012372
v -0.002542 -0.000000 -0.235712
v -0.002542 0.075000 -0.235712
v -0.099588 -0.000000 -0.259839
v -0.099588 0.075000 -0.259839
v 0.053330 -0.000000 0.114677
v 0.053330 0.075000 0.114677
v -0.044543 -0.000000 0.094159
v -0.044543 0.075000 0.094159
v 0.105649 -0.000000 -0.134898
v 0.105649 0.075000 -0.134898
v 0.007777 -0.000000 -0.155416
v 0.007777 0.075000 -0.155416
vt 0.4013 0.3690
vt 0.3919 0.3577
vt 0.4013 0.3577
vt 0.4824 0.2942
vt 0.4917 0.3229
vt 0.4824 0.3229
vt 0.4543 0.3569
vt 0.4637 0.3690
vt 0.4543 0.3690
vt 0.3919 0.3268
vt 0.4013 0.3577
vt 0.3919 0.3577
vt 0.4293 0.3268
vt 0.4418 0.2942
vt 0.4418 0.3268
vt 0.4293 0.2615
vt 0.4169 0.2942
vt 0.4169 0.2615
vt 0.4106 0.3573
vt 0.4200 0.3692
vt 0.4106 0.3692
vt 0.4200 0.3268
vt 0.4293 0.3571
vt 0.4200 0.3571
vt 0.4418 0.3543
vt 0.4512 0.3668
vt 0.4418 0.3668
vt 0.4824 0.3260
vt 0.4730 0.2942
vt 0.4824 0.2942
vt 0.4293 0.2942
vt 0.4418 0.2615
vt 0.4418 0.2942
vt 0.4044 0.2615
vt 0.3919 0.2942
vt 0.3919 0.2615
vt 0.4998 0.3070
vt 0.4917 0.2942
vt 0.4998 0.2942
vt 0.4917 0.3198
vt 0.4990 0.3070
vt 0.4990 0.3198
vt 0.4543 0.3268
vt 0.4637 0.2942
vt 0.4637 0.3268
vt 0.4543 0.2942
vt 0.4418 0.3223
vt 0.4418 0.2942
vt 0.4668 0.2615
vt 0.4543 0.2866
vt 0.4543 0.2615
vt 0.8457 0.3694
vt 0.8363 0.3577
vt 0.8457 0.3577
vt 0.8363 0.3260
vt 0.8457 0.3577
vt 0.8363 0.3577
vt 0.8581 0.2863
vt 0.8488 0.2739
vt 0.8581 0.2739
vt 0.7926 0.3268
vt 0.8020 0.3568
vt 0.7926 0.3568
vt 0.8051 0.2942
vt 0.8176 0.2615
vt 0.8176 0.2942
vt 0.4824 0.3229
vt 0.4917 0.3356
vt 0.4824 0.3356
vt 0.4730 0.3573
vt 0.4637 0.3264
vt 0.4730 0.3264
vt 0.4387 0.3689
vt 0.4293 0.3568
vt 0.4387 0.3568
vt 0.4730 0.3264
vt 0.4637 0.2942
vt 0.4730 0.2942
vt 0.4169 0.2615
vt 0.4044 0.2942
vt 0.4044 0.2615
vt 0.4917 0.3481
vt 0.4824 0.3356
vt 0.4917 0.3356
vt 0.4013 0.3268
vt 0.4106 0.3575
vt 0.4013 0.3575
vt 0.4293 0.3691
vt 0.4200 0.3571
vt 0.4293 0.3571
vt 0.4668 0.2615
vt 0.4761 0.2936
vt 0.4668 0.2936
vt 0.4169 0.2942
vt 0.4044 0.3268
vt 0.4044 0.2942
vt 0.8488 0.2615
vt 0.8581 0.2739
vt 0.8488 0.2739
vt 0.8269 0.3569
vt 0.8176 0.3268
vt 0.8269 0.3268
vt 0.7739 0.3693
vt 0.7645 0.3575
vt 0.7739 0.3575
vt 0.8488 0.2932
vt 0.8394 0.2615
vt 0.8488 0.2615
vt 0.7552 0.3268
vt 0.7677 0.2942
vt 0.7677 0.3268
vt 0.8457 0.3481
vt 0.8550 0.3607
vt 0.8457 0.3607
vt 0.7739 0.3268
vt 0.7833 0.3573
vt 0.7739 0.3573
vt 0.8269 0.3573
vt 0.8363 0.3693
vt 0.8269 0.3693
vt 0.8145 0.3543
vt 0.8051 0.3223
vt 0.8145 0.3223
vt 0.7926 0.2942
vt 0.7801 0.3268
vt 0.7801 0.2942
vt 0.3919 0.3690
vt 0.4917 0.2942
vt 0.4637 0.3569
vt 0.4013 0.3268
vt 0.4293 0.2942
vt 0.4293 0.2942
vt 0.4200 0.3573
vt 0.4293 0.3268
vt 0.4512 0.3543
vt 0.4730 0.3260
vt 0.4293 0.2615
vt 0.4044 0.2942
vt 0.4917 0.3070
vt 0.4917 0.3070
vt 0.4543 0.2942
vt 0.4543 0.3223
vt 0.4668 0.2866
vt 0.8363 0.3694
vt 0.8457 0.3260
vt 0.8488 0.2863
vt 0.8020 0.3268
vt 0.8051 0.2615
vt 0.4917 0.3229
vt 0.4637 0.3573
vt 0.4293 0.3689
vt 0.4637 0.3264
vt 0.4169 0.2942
vt 0.4824 0.3481
vt 0.4106 0.3268
vt 0.4200 0.3691
vt 0.4761 0.2615
vt 0.4169 0.3268
vt 0.8581 0.2615
vt 0.8176 0.3569
vt 0.7645 0.3693
vt 0.8394 0.2932
vt 0.7552 0.2942
vt 0.8550 0.3481
vt 0.7833 0.3268
vt 0.8363 0.3573
vt 0.8051 0.3543
vt 0.7926 0.3268
vn -0.9447 0.0000 -0.3278
vn 0.3278 0.0000 -0.9447
vn 0.9447 0.0000 0.3278
vn -0.3278 0.0000 0.9447
vn 0.0000 -1.0000 -0.0000
vn 0.0000 1.0000 0.0000
vn -0.9741 0.0000 -0.2260
vn 0.2260 0.0000 -0.9741
vn 0.9741 0.0000 0.2260
vn -0.2260 0.0000 0.9741
vn -0.5073 0.0000 0.8617
vn 0.5073 0.0000 -0.8617
vn 0.8617 0.0000 0.5073
vn -0.8617 0.0000 -0.5073
vn 0.2498 0.0000 -0.9683
vn 0.9683 0.0000 0.2498
vn -0.2498 0.0000 0.9683
vn -0.9683 0.0000 -0.2498
vn -0.3217 0.0000 -0.9469
vn 0.9469 0.0000 -0.3217
vn 0.3217 0.0000 0.9469
vn -0.9469 0.0000 0.3217
vn -0.3460 0.0000 -0.9382
vn 0.9382 0.0000 -0.3460
vn 0.3460 0.0000 0.9382
vn -0.9382 0.0000 0.3460
vn -0.2413 0.0000 0.9705
vn -0.9705 0.0000 -0.2413
vn 0.2413 0.0000 -0.9705
vn 0.9705 0.0000 0.2413
vn -0.2052 0.0000 0.9787
vn -0.9787 0.0000 -0.2052
vn 0.2052 0.0000 -0.9787
vn 0.9787 0.0000 0.2052
s off
f 4/1/1 1/2/1 2/3/1
f 8/4/2 3/5/2 4/6/2
f 6/7/3 7/8/3 8/9/3
f 2/10/4 5/11/4 6/12/4
f 3/13/5 5/14/5 1/15/5
f 8/16/6 2/17/6 6/18/6
f 12/19/7 9/20/7 10/21/7
f 16/22/8 11/23/8 12/24/8
f 14/25/9 15/26/9 16/27/9
f 10/28/10 13/29/10 14/30/10
f 11/31/5 13/32/5 9/33/5
f 16/34/6 10/35/6 14/36/6
f 20/37/11 17/38/11 18/39/11
f 24/40/12 21/41/12 23/42/12
f 22/43/6 17/44/6 21/45/6
f 19/46/13 21/47/13 17/48/13
f 24/49/14 18/50/14 22/51/14
f 28/52/15 25/53/15 26/54/15
f 32/55/16 27/56/16 28/57/16
f 30/58/17 31/59/17 32/60/17
f 26/61/18 29/62/18 30/63/18
f 32/64/6 26/65/6 30/66/6
f 36/67/19 33/68/19 34/69/19
f 40/70/20 35/71/20 36/72/20
f 38/73/21 39/74/21 40/75/21
f 34/76/22 37/77/22 38/78/22
f 40/79/6 34/80/6 38/81/6
f 44/82/23 41/83/23 42/84/23
f 48/85/24 43/86/24 44/87/24
f 46/88/25 47/89/25 48/90/25
f 42/91/26 45/92/26 46/93/26
f 48/94/6 42/95/6 46/96/6
f 52/97/27 49/98/27 50/99/27
f 56/100/28 51/101/28 52/102/28
f 54/103/29 55/104/29 56/105/29
f 50/106/30 53/107/30 54/108/30
f 56/109/6 50/110/6 54/111/6
f 60/112/31 57/113/31 58/114/31
f 64/115/32 59/116/32 60/117/32
f 62/118/33 63/119/33 64/120/33
f 58/121/34 61/122/34 62/123/34
f 64/124/6 58/125/6 62/126/6
f 4/1/1 3/127/1 1/2/1
f 8/4/2 7/128/2 3/5/2
f 6/7/3 5/129/3 7/8/3
f 2/10/4 1/130/4 5/11/4
f 3/13/5 7/131/5 5/14/5
f 8/16/6 4/132/6 2/17/6
f 12/19/7 11/133/7 9/20/7
f 16/22/8 15/134/8 11/23/8
f 14/25/9 13/135/9 15/26/9
f 10/28/10 9/136/10 13/29/10
f 11/31/5 15/137/5 13/32/5
f 16/34/6 12/138/6 10/35/6
f 20/37/11 19/139/11 17/38/11
f 24/40/12 22/140/12 21/41/12
f 22/43/6 18/141/6 17/44/6
f 19/46/13 23/142/13 21/47/13
f 24/49/14 20/143/14 18/50/14
f 28/52/15 27/144/15 25/53/15
f 32/55/16 31/145/16 27/56/16
f 30/58/17 29/146/17 31/59/17
f 26/61/18 25/147/18 29/62/18
f 32/64/6 28/148/6 26/65/6
f 36/67/19 35/149/19 33/68/19
f 40/70/20 39/150/20 35/71/20
f 38/73/21 37/151/21 39/74/21
f 34/76/22 33/152/22 37/77/22
f 40/79/6 36/153/6 34/80/6
f 44/82/23 43/154/23 41/83/23
f 48/85/24 47/155/24 43/86/24
f 46/88/25 45/156/25 47/89/25
f 42/91/26 41/157/26 45/92/26
f 48/94/6 44/158/6 42/95/6
f 52/97/27 51/159/27 49/98/27
f 56/100/28 55/160/28 51/101/28
f 54/103/29 53/161/29 55/104/29
f 50/106/30 49/162/30 53/107/30
f 56/109/6 52/163/6 50/110/6
f 60/112/31 59/164/31 57/113/31
f 64/115/32 63/165/32 59/116/32
f 62/118/33 61/166/33 63/119/33
f 58/121/34 57/167/34 61/122/34
f 64/124/6 60/168/6 58/125/6
