# Blender v2.77 (sub 0) OBJ File: 'LowPoly_Level_Kit_Rocks.blend'
# www.blender.org
g Brick_02
v -0.142067 -0.000000 0.035662
v -0.142067 -0.000000 -0.050000
v -0.142067 0.067843 -0.050000
v 0.112933 -0.000000 0.050000
v 0.112933 0.075000 0.050000
v 0.112933 -0.000000 -0.050000
v 0.112933 0.075000 -0.050000
v -0.072946 0.075000 -0.050000
v -0.072946 -0.000000 -0.050000
v -0.072946 0.075000 0.050000
v -0.072946 -0.000000 0.050000
v -0.142067 0.038264 0.035662
v -0.142067 0.067843 -0.009404
vt 0.4439 0.3426
vt 0.4439 0.3320
vt 0.4618 0.3320
vt 0.4836 0.3320
vt 0.4637 0.2835
vt 0.4836 0.2835
vt 0.4174 0.3320
vt 0.4373 0.3581
vt 0.4174 0.3581
vt 0.4174 0.3139
vt 0.4439 0.2654
vt 0.4439 0.3139
vt 0.4017 0.2658
vt 0.4136 0.2654
vt 0.4174 0.2839
vt 0.3909 0.3324
vt 0.4174 0.3324
vt 0.4401 0.3320
vt 0.4439 0.2838
vt 0.4637 0.3320
vt 0.4439 0.3320
vt 0.4817 0.2654
vt 0.4637 0.2654
vt 0.3909 0.2839
vt 0.4536 0.2654
vt 0.4637 0.2838
vt 0.4517 0.3543
vt 0.4618 0.3543
vt 0.4637 0.3320
vt 0.4373 0.3320
vt 0.4174 0.2654
vt 0.4174 0.3320
vt 0.3909 0.2658
vt 0.4637 0.2654
vn -1.0000 0.0000 0.0000
vn 0.0000 0.0000 -1.0000
vn 1.0000 0.0000 0.0000
vn 0.0000 -1.0000 0.0000
vn -0.4874 0.7300 0.4791
vn 0.0000 1.0000 0.0000
vn 0.0000 0.0000 1.0000
vn -0.1030 0.9947 0.0000
vn -0.2031 0.0000 0.9792
s off
f 13/1/1 3/2/1 2/3/1
f 7/4/2 9/5/2 8/6/2
f 5/7/3 6/8/3 7/9/3
f 9/10/4 4/11/4 11/12/4
f 13/13/5 12/14/5 10/15/5
f 7/16/6 10/15/6 5/17/6
f 1/18/4 9/10/4 11/12/4
f 10/19/7 4/20/7 5/21/7
f 3/22/2 9/5/2 2/23/2
f 8/24/8 13/13/8 10/15/8
f 12/25/9 11/26/9 10/19/9
f 12/27/1 2/3/1 1/28/1
f 7/4/2 6/29/2 9/5/2
f 5/7/3 4/30/3 6/8/3
f 9/10/4 6/31/4 4/11/4
f 7/16/6 8/24/6 10/15/6
f 1/18/4 2/32/4 9/10/4
f 10/19/7 11/26/7 4/20/7
f 3/22/2 8/6/2 9/5/2
f 8/24/8 3/33/8 13/13/8
f 12/25/9 1/34/9 11/26/9
f 12/27/1 13/1/1 2/3/1
