# Blender v2.77 (sub 0) OBJ File: 'LowPoly_Level_Kit_Rocks.blend'
# www.blender.org
g Brick_03
v -0.127499 -0.000000 0.050000
v -0.127499 0.075000 0.050000
v -0.127499 -0.000000 -0.050000
v -0.127499 0.075000 -0.050000
v 0.127501 -0.000000 -0.050000
v 0.127501 0.075000 -0.050000
v 0.127501 0.075000 -0.016014
v 0.127501 -0.000000 0.014046
v 0.084087 0.075000 0.050000
v 0.103856 -0.000000 0.050000
vt 0.3425 0.3306
vt 0.3628 0.3573
vt 0.3425 0.3573
vt 0.3425 0.3369
vt 0.3223 0.2691
vt 0.3425 0.2691
vt 0.3628 0.2743
vt 0.3425 0.3306
vt 0.3425 0.2691
vt 0.2953 0.2806
vt 0.3223 0.3369
vt 0.2953 0.3369
vt 0.2683 0.3369
vt 0.2683 0.2691
vt 0.2856 0.2691
vt 0.2683 0.3545
vt 0.2885 0.3635
vt 0.2683 0.3635
vt 0.2885 0.3465
vt 0.2683 0.3369
vt 0.2885 0.3369
vt 0.3223 0.2691
vt 0.3131 0.2691
vt 0.2953 0.2754
vt 0.2953 0.3369
vt 0.3628 0.3306
vt 0.3223 0.3369
vt 0.3628 0.3306
vn -1.0000 0.0000 0.0000
vn 0.0000 0.0000 -1.0000
vn 0.0000 0.0000 1.0000
vn 0.0000 1.0000 0.0000
vn 0.0000 -1.0000 0.0000
vn 1.0000 0.0000 0.0000
vn 0.8160 0.2151 0.5366
s off
f 4/1/1 1/2/1 2/3/1
f 6/4/2 3/5/2 4/6/2
f 9/7/3 1/8/3 10/9/3
f 9/10/4 4/11/4 2/12/4
f 3/13/5 5/14/5 8/15/5
f 7/16/6 5/17/6 6/18/6
f 8/19/7 9/20/7 10/21/7
f 6/22/4 9/10/4 7/23/4
f 3/13/5 10/24/5 1/25/5
f 4/1/1 3/26/1 1/2/1
f 6/4/2 5/27/2 3/5/2
f 9/7/3 2/28/3 1/8/3
f 7/16/6 8/19/6 5/17/6
f 8/19/7 7/16/7 9/20/7
f 6/22/4 4/11/4 9/10/4
f 3/13/5 8/15/5 10/24/5
