# Blender v2.77 (sub 0) OBJ File: 'LowPoly_Level_Kit_Rocks.blend'
# www.blender.org
g Brick_Pile_s_05
v -0.084142 -0.006490 0.087186
v -0.083345 0.023048 0.085383
v -0.084207 -0.004958 0.126845
v -0.114568 -0.005701 0.110600
v 0.101082 -0.000180 0.142915
v 0.085141 -0.000180 0.105314
v 0.150867 -0.017352 0.103797
v 0.111961 -0.000180 0.085569
v 0.150867 0.024012 0.103797
v 0.085141 0.025878 0.105314
v 0.101082 0.025358 0.142915
v 0.111961 0.024533 0.085569
v 0.146572 -0.007830 -0.044924
v 0.093706 -0.007789 -0.033474
v 0.087407 -0.007556 -0.050555
v 0.090773 0.007125 -0.031992
v 0.138979 0.030784 -0.041088
v 0.130263 -0.007226 -0.089151
v 0.045985 0.013636 -0.197597
v 0.053589 -0.006559 -0.167370
v 0.062698 -0.006446 -0.215219
v 0.015580 -0.006547 -0.203433
v -0.007332 -0.000180 0.038666
v -0.030023 -0.000180 0.005288
v 0.028612 -0.017352 -0.011848
v -0.008046 -0.000180 -0.022986
v 0.028612 0.019003 -0.011848
v -0.030023 0.011685 0.005288
v -0.007332 0.011164 0.038666
v -0.008046 0.019524 -0.022986
vt 0.4618 0.3167
vt 0.4618 0.3310
vt 0.4549 0.3219
vt 0.4208 0.3213
vt 0.4300 0.3172
vt 0.4300 0.3284
vt 0.4457 0.3280
vt 0.4457 0.3404
vt 0.4400 0.3376
vt 0.4271 0.3351
vt 0.4317 0.3284
vt 0.4317 0.3417
vt 0.6783 0.3045
vt 0.6898 0.3172
vt 0.6782 0.3142
vt 0.6974 0.3280
vt 0.6899 0.3399
vt 0.6898 0.3280
vt 0.6839 0.2916
vt 0.6782 0.2828
vt 0.6839 0.2819
vt 0.6707 0.3160
vt 0.6782 0.2982
vt 0.6782 0.3162
vt 0.7219 0.3043
vt 0.7147 0.3104
vt 0.7147 0.2984
vt 0.6914 0.2800
vt 0.7166 0.3310
vt 0.7166 0.3363
vt 0.7122 0.3363
vt 0.7036 0.3272
vt 0.7122 0.3167
vt 0.7122 0.3348
vt 0.7024 0.2800
vt 0.7101 0.2951
vt 0.7056 0.2951
vt 0.6898 0.3139
vt 0.6973 0.2984
vt 0.7036 0.3139
vt 0.6782 0.2800
vt 0.6629 0.2914
vt 0.6629 0.2845
vt 0.4271 0.3284
vt 0.4271 0.3417
vt 0.4208 0.3373
vt 0.4636 0.2800
vt 0.4636 0.2940
vt 0.4566 0.2858
vt 0.4673 0.3167
vt 0.4673 0.3310
vt 0.4618 0.3220
vt 0.4454 0.3139
vt 0.4454 0.3280
vt 0.4324 0.3221
vt 0.4464 0.3024
vt 0.4574 0.3167
vt 0.4462 0.3129
vt 0.4670 0.2801
vt 0.4637 0.2917
vt 0.4636 0.2800
vt 0.4373 0.2803
vt 0.4341 0.2908
vt 0.4347 0.2809
vt 0.4141 0.3162
vt 0.4087 0.3320
vt 0.4108 0.3162
vt 0.4450 0.2965
vt 0.4372 0.2984
vt 0.4450 0.2800
vt 0.4383 0.2898
vt 0.6898 0.2984
vt 0.6973 0.3399
vt 0.6785 0.2924
vt 0.6661 0.2979
vt 0.7219 0.3115
vt 0.6914 0.2984
vt 0.7139 0.2800
vt 0.6919 0.2984
vt 0.6782 0.2979
vt 0.4574 0.2984
vt 0.4670 0.2917
vt 0.4194 0.3320
vn 0.9996 -0.0268 0.0027
vn 0.0038 -0.9992 0.0386
vn -0.6101 -0.0319 -0.7917
vn -0.3025 0.7927 0.5292
vn 0.0000 -1.0000 -0.0000
vn -0.9207 0.0000 0.3903
vn -0.5929 0.0000 -0.8053
vn 0.6178 -0.0000 0.7863
vn 0.4243 0.0000 -0.9055
vn 0.0459 0.9989 -0.0057
vn -0.9175 -0.2137 0.3354
vn 0.9175 0.2137 -0.3354
vn 0.2113 -0.0554 0.9758
vn -0.0035 -0.9999 -0.0124
vn -0.4558 0.7365 -0.4998
vn 0.8227 0.5461 0.1579
vn -0.2047 0.5438 -0.8139
vn -0.5303 0.6372 0.5592
vn 0.0016 -1.0000 -0.0021
vn -0.8270 0.0000 0.5622
vn -0.7895 0.0000 -0.6137
vn 0.8148 -0.0000 0.5798
vn 0.2907 0.0000 -0.9568
vn -0.1751 0.9753 0.1343
vn -0.3747 -0.9244 -0.0711
vn 0.0185 0.9998 -0.0109
vn -0.4254 -0.9050 0.0049
vn -0.0268 0.9905 0.1346
s off
f 2/1/1 3/2/1 1/3/1
f 3/4/2 4/5/2 1/6/2
f 4/7/3 2/8/3 1/9/3
f 4/10/4 3/11/4 2/12/4
f 8/13/5 5/14/5 6/15/5
f 6/16/6 11/17/6 10/18/6
f 12/19/7 6/20/7 10/21/7
f 5/22/8 9/23/8 11/24/8
f 8/25/9 9/26/9 7/27/9
f 11/28/10 12/19/10 10/21/10
f 15/29/11 14/30/11 16/31/11
f 13/32/12 18/33/12 17/34/12
f 13/35/13 16/36/13 14/37/13
f 13/38/14 15/39/14 18/40/14
f 17/41/15 15/42/15 16/43/15
f 20/44/16 21/45/16 19/46/16
f 21/47/17 22/48/17 19/49/17
f 22/50/18 20/51/18 19/52/18
f 22/53/19 21/54/19 20/55/19
f 26/56/5 23/57/5 24/58/5
f 24/59/20 29/60/20 28/61/20
f 28/62/21 26/63/21 24/64/21
f 23/65/22 27/66/22 29/67/22
f 26/63/23 27/68/23 25/69/23
f 29/70/24 30/71/24 28/62/24
f 8/13/25 7/72/25 5/14/25
f 6/16/6 5/73/6 11/17/6
f 12/19/7 8/74/7 6/20/7
f 5/22/8 7/75/8 9/23/8
f 8/25/9 12/76/9 9/26/9
f 11/28/26 9/77/26 12/19/26
f 13/35/13 17/78/13 16/36/13
f 13/38/14 14/79/14 15/39/14
f 17/41/15 18/80/15 15/42/15
f 26/56/27 25/81/27 23/57/27
f 24/59/20 23/82/20 29/60/20
f 28/62/21 30/71/21 26/63/21
f 23/65/22 25/83/22 27/66/22
f 26/63/23 30/71/23 27/68/23
f 29/70/28 27/68/28 30/71/28
