# Blender v2.77 (sub 0) OBJ File: 'LowPoly_Level_Kit_Rocks.blend'
# www.blender.org
g Brick_Pile_s_04
v -0.020317 -0.014387 -0.027170
v -0.023401 0.062437 -0.028169
v 0.044548 -0.011869 -0.033754
v -0.012641 -0.013089 0.048950
v 0.067000 -0.008547 0.164927
v 0.080610 0.034430 0.135033
v 0.071338 0.030091 0.119976
v 0.093647 0.029814 0.128557
v 0.100755 -0.020499 0.148160
v 0.042992 -0.019782 0.125943
v 0.213719 -0.011063 -0.105187
v 0.201323 0.032578 -0.109801
v 0.248868 -0.002532 -0.118935
v 0.228136 -0.002510 -0.063019
v -0.230039 -0.012208 -0.068815
v -0.272954 -0.012208 -0.028063
v -0.227223 -0.049207 -0.132466
v -0.294842 -0.012208 -0.102056
v -0.227223 0.039920 -0.132466
v -0.272954 0.043940 -0.028063
v -0.230039 0.042818 -0.068815
v -0.294842 0.041041 -0.102056
vt 0.0930 0.3319
vt 0.0930 0.3575
vt 0.0805 0.3469
vt 0.0780 0.3042
vt 0.0946 0.2852
vt 0.0946 0.3043
vt 0.1057 0.3103
vt 0.1057 0.3378
vt 0.0930 0.3242
vt 0.0780 0.2852
vt 0.0780 0.3103
vt 0.0556 0.2985
vt 0.0805 0.3380
vt 0.0776 0.3344
vt 0.0805 0.3319
vt 0.1048 0.3471
vt 0.1123 0.3378
vt 0.1123 0.3535
vt 0.1045 0.2986
vt 0.0978 0.2852
vt 0.1017 0.2852
vt 0.1048 0.3378
vt 0.0979 0.3511
vt 0.0930 0.3378
vt 0.0588 0.3476
vt 0.0528 0.3346
vt 0.0576 0.3346
vt 0.0537 0.3476
vt 0.0537 0.3628
vt 0.0463 0.3564
vt 0.0415 0.3484
vt 0.0415 0.3633
vt 0.0342 0.3544
vt 0.1120 0.2852
vt 0.1120 0.3008
vt 0.1045 0.2938
vt 0.0463 0.3346
vt 0.0463 0.3484
vt 0.0342 0.3398
vt 0.3322 0.3055
vt 0.3170 0.3159
vt 0.3134 0.3015
vt 0.3082 0.2764
vt 0.2950 0.2914
vt 0.2947 0.2764
vt 0.3318 0.3446
vt 0.3184 0.3250
vt 0.3322 0.3250
vt 0.3082 0.2914
vt 0.2920 0.3031
vt 0.2920 0.3166
vt 0.3107 0.3032
vt 0.3107 0.3258
vt 0.3375 0.3166
vt 0.3508 0.3037
vt 0.3508 0.3231
vt 0.0946 0.2986
vt 0.1025 0.3511
vt 0.0463 0.3476
vt 0.3322 0.3250
vt 0.3187 0.3446
vt 0.3134 0.3031
vt 0.2920 0.3031
vt 0.3322 0.3015
vn -0.1003 -0.0170 -0.9948
vn 0.0401 -0.9991 0.0130
vn -0.9941 -0.0386 0.1009
vn 0.6684 0.5759 0.4707
vn 0.1489 0.9220 -0.3574
vn -0.1489 -0.9220 0.3574
vn 0.5154 0.3734 0.7714
vn -0.7965 0.4944 0.3481
vn 0.3393 -0.2995 -0.8917
vn -0.3177 -0.1885 -0.9293
vn 0.2718 -0.9570 0.1012
vn -0.9084 -0.2205 0.3553
vn 0.6064 0.7628 0.2245
vn -0.0000 -1.0000 -0.0000
vn 0.6886 0.0000 0.7252
vn -0.9589 0.0000 0.2837
vn 0.9990 0.0000 0.0442
vn -0.4102 0.0000 -0.9120
vn -0.0086 0.9993 -0.0366
vn -0.2457 -0.8427 0.4790
vn -0.0040 0.9989 -0.0457
s off
f 2/1/1 3/2/1 1/3/1
f 3/4/2 4/5/2 1/6/2
f 4/7/3 2/8/3 1/9/3
f 4/10/4 3/11/4 2/12/4
f 7/13/5 6/14/5 8/15/5
f 5/16/6 10/17/6 9/18/6
f 5/19/7 8/20/7 6/21/7
f 5/22/8 7/23/8 10/24/8
f 9/25/9 7/26/9 8/27/9
f 12/28/10 13/29/10 11/30/10
f 13/31/11 14/32/11 11/33/11
f 14/34/12 12/35/12 11/36/12
f 14/37/13 13/38/13 12/39/13
f 18/40/14 15/41/14 16/42/14
f 16/43/15 21/44/15 20/45/15
f 22/46/16 16/47/16 20/48/16
f 15/49/17 19/50/17 21/44/17
f 18/51/18 19/52/18 17/53/18
f 21/54/19 22/55/19 20/56/19
f 5/19/7 9/57/7 8/20/7
f 5/22/8 6/58/8 7/23/8
f 9/25/9 10/59/9 7/26/9
f 18/40/20 17/60/20 15/41/20
f 16/43/15 15/49/15 21/44/15
f 22/46/16 18/61/16 16/47/16
f 15/49/17 17/62/17 19/50/17
f 18/51/18 22/63/18 19/52/18
f 21/54/21 19/64/21 22/55/21
