# Blender v2.77 (sub 0) OBJ File: 'LowPoly_Level_Kit_Rocks.blend'
# www.blender.org
g Brick_crk_05
v 0.156649 -0.001818 -0.006289
v 0.156649 -0.001612 -0.081289
v 0.018828 0.033719 -0.081192
v 0.019149 0.033182 -0.006193
v 0.035574 -0.001612 -0.081289
v 0.035696 -0.001818 -0.006289
v 0.148690 -0.000000 0.085356
v 0.166656 -0.000000 -0.013017
v 0.166656 0.075000 -0.013017
v 0.157898 0.075000 0.034939
v 0.148690 0.065299 0.085356
v -0.028211 0.073118 0.053048
v -0.034599 0.075000 0.043636
v 0.024729 0.075000 -0.003021
v -0.028212 -0.000000 0.053048
v 0.025105 0.000000 -0.003290
v -0.127499 -0.000000 0.050000
v -0.127499 -0.000000 -0.050000
v -0.127499 0.075000 -0.050000
v -0.127499 0.036922 0.050000
v -0.127499 0.075000 -0.003979
v -0.052327 0.073118 0.050000
v -0.060301 0.075000 0.041889
v -0.010321 0.075000 -0.014668
v -0.052327 -0.000000 0.050000
v -0.010000 0.000000 -0.015000
v 0.006426 0.075000 -0.050000
v 0.006548 -0.000000 -0.050000
vt 0.0838 0.3414
vt 0.0788 0.3373
vt 0.0838 0.3177
vt 0.0738 0.3218
vt 0.0788 0.3177
vt 0.0788 0.3415
vt 0.0275 0.2850
vt 0.0190 0.3152
vt 0.0262 0.2837
vt 0.0167 0.2921
vt 0.0386 0.2908
vt 0.0277 0.3138
vt 0.0277 0.2837
vt 0.0319 0.3138
vt 0.0319 0.3265
vt 0.0304 0.3145
vt 0.0126 0.3264
vt 0.0109 0.3375
vt 0.0112 0.3251
vt 0.0304 0.3265
vt 0.0291 0.3260
vt 0.0304 0.3138
vt 0.0738 0.3401
vt 0.0612 0.3177
vt 0.0738 0.3177
vt 0.0570 0.3176
vt 0.0444 0.2939
vt 0.0570 0.2938
vt 0.0319 0.3564
vt 0.0444 0.3500
vt 0.0444 0.3565
vt 0.0277 0.3152
vt 0.0738 0.3566
vt 0.0612 0.3567
vt 0.0612 0.3486
vt 0.0444 0.3401
vt 0.0612 0.3275
vt 0.0612 0.3401
vt 0.0109 0.3152
vt 0.0570 0.2837
vt 0.0444 0.3138
vt 0.0680 0.2837
vt 0.0570 0.3136
vt 0.0570 0.2837
vt 0.0318 0.3381
vt 0.0444 0.3373
vt 0.0233 0.3544
vt 0.0109 0.3544
vt 0.0233 0.3467
vt 0.0280 0.3377
vt 0.0220 0.3180
vt 0.0280 0.3152
vt 0.0202 0.3377
vt 0.0738 0.3401
vt 0.0628 0.3402
vt 0.0567 0.3527
vt 0.0505 0.3401
vt 0.0567 0.3401
vt 0.0756 0.3040
vt 0.0693 0.3166
vt 0.0693 0.3040
vt 0.0170 0.3377
vt 0.0444 0.3177
vt 0.0503 0.3204
vt 0.0444 0.3140
vt 0.0319 0.3372
vt 0.0319 0.3138
vt 0.0693 0.2837
vt 0.0819 0.3040
vt 0.0693 0.3040
vt 0.0612 0.3401
vt 0.0445 0.3177
vt 0.0319 0.3499
vt 0.0445 0.2847
vt 0.0693 0.3136
vt 0.0444 0.3527
vt 0.0756 0.3166
vt 0.0109 0.3377
vt 0.0444 0.3373
vt 0.0819 0.2837
vn 0.0000 -0.0027 1.0000
vn 0.0000 0.0027 -1.0000
vn 0.0086 0.9817 0.1905
vn 0.0000 1.0000 0.0000
vn 0.0000 -1.0000 -0.0000
vn -0.8274 0.0000 0.5616
vn -0.3661 0.7604 0.5364
vn 0.7131 -0.0000 -0.7011
vn 0.0000 0.0000 -1.0000
vn -0.0703 0.0032 -0.9975
vn 0.9040 0.0015 0.4274
vn 0.9837 0.0000 0.1797
vn -0.6182 -0.0003 -0.7860
vn -0.1797 0.0000 0.9837
vn 0.8289 0.1465 0.5398
vn -1.0000 0.0000 0.0000
vn 0.0000 0.0000 1.0000
vn -0.9036 -0.4283 0.0008
vn 0.2483 0.9687 0.0059
vn 0.0000 -1.0000 -0.0027
vn -0.0686 0.0000 -0.9976
vn 0.9036 0.0020 0.4283
vn -0.7185 -0.1465 -0.6799
vn 0.7493 0.0003 0.6622
vn -0.9040 -0.4274 0.0003
vn 0.2467 0.9691 0.0027
s off
f 4/1/1 6/2/1 1/3/1
f 5/4/2 3/5/2 2/6/2
f 12/7/3 10/8/3 13/9/3
f 10/8/4 14/10/4 13/9/4
f 16/11/5 7/12/5 15/13/5
f 13/14/6 15/15/6 12/16/6
f 23/17/7 20/18/7 22/19/7
f 23/20/8 22/21/8 25/22/8
f 18/23/9 27/24/9 28/25/9
f 9/26/10 16/27/10 14/28/10
f 27/29/11 26/30/11 28/31/11
f 12/7/3 11/32/3 10/8/3
f 8/33/12 9/34/12 10/35/12
f 18/36/5 25/37/5 17/38/5
f 10/8/4 9/39/4 14/10/4
f 16/27/13 13/40/13 14/28/13
f 16/11/5 8/41/5 7/12/5
f 11/42/14 15/43/14 7/44/14
f 26/30/15 23/45/15 25/46/15
f 19/47/16 18/48/16 21/49/16
f 19/50/4 24/51/4 27/52/4
f 23/17/7 21/53/7 20/18/7
f 21/53/4 23/17/4 24/51/4
f 7/54/12 10/35/12 11/55/12
f 25/56/17 20/57/17 17/58/17
f 5/59/18 4/60/18 3/61/18
f 18/48/16 20/62/16 21/49/16
f 18/36/5 28/63/5 26/64/5
f 4/65/19 2/66/19 3/67/19
f 6/68/20 2/69/20 1/70/20
f 18/23/9 19/71/9 27/24/9
f 9/26/21 8/72/21 16/27/21
f 27/29/22 24/73/22 26/30/22
f 18/36/5 26/64/5 25/37/5
f 16/27/23 15/74/23 13/40/23
f 11/42/14 12/75/14 15/43/14
f 26/30/24 24/73/24 23/45/24
f 19/50/4 21/53/4 24/51/4
f 7/54/12 8/33/12 10/35/12
f 25/56/17 22/76/17 20/57/17
f 5/59/25 6/77/25 4/60/25
f 18/48/16 17/78/16 20/62/16
f 4/65/26 1/79/26 2/66/26
f 6/68/20 5/80/20 2/69/20
