# Blender v2.77 (sub 0) OBJ File: 'LowPoly_Level_Kit_Rocks.blend'
# www.blender.org
g Brick_crk_03
v 0.174530 -0.009628 0.088036
v 0.178209 0.065260 0.089845
v 0.200366 -0.008563 -0.008563
v 0.204045 0.066324 -0.006754
v 0.165520 0.068465 -0.017034
v 0.161841 -0.006423 -0.018843
v 0.123225 0.068316 0.075173
v 0.119546 -0.006572 0.073364
v -0.127499 -0.000000 0.050000
v -0.127499 0.075000 0.050000
v -0.127499 -0.000000 -0.050000
v -0.127499 0.075000 -0.050000
v 0.087571 0.075000 -0.050000
v 0.087571 -0.000000 -0.050000
v 0.070511 0.075000 0.050000
v 0.070511 -0.000000 0.050000
vt 0.9171 0.3135
vt 0.9078 0.3320
vt 0.9078 0.3134
vt 0.8878 0.3134
vt 0.9054 0.3381
vt 0.8878 0.3381
vt 0.9739 0.2603
vt 0.9833 0.2850
vt 0.9699 0.2850
vt 0.9833 0.3130
vt 0.9739 0.3377
vt 0.9699 0.3130
vt 0.9656 0.3373
vt 0.9523 0.3558
vt 0.9523 0.3373
vt 0.9347 0.3379
vt 0.9171 0.3135
vt 0.9347 0.3134
vt 0.9523 0.3131
vt 0.9699 0.3371
vt 0.9523 0.3373
vt 0.9699 0.3088
vt 0.9523 0.2603
vt 0.9699 0.2603
vt 0.9113 0.3092
vt 0.8878 0.2603
vt 0.9113 0.2603
vt 0.9113 0.3134
vt 0.9347 0.2645
vt 0.9347 0.3134
vt 0.9523 0.3130
vt 0.9347 0.2603
vt 0.9523 0.2603
vt 0.9347 0.3380
vt 0.9523 0.3381
vt 0.9171 0.3320
vt 0.9054 0.3135
vt 0.9833 0.2603
vt 0.9833 0.3377
vt 0.9656 0.3558
vt 0.9171 0.3380
vt 0.9699 0.3130
vt 0.9523 0.3088
vt 0.8878 0.3134
vt 0.9113 0.2603
vt 0.9347 0.3130
vn 0.2584 0.0106 -0.9660
vn 0.9648 -0.0536 0.2574
vn -0.0491 -0.9985 -0.0241
vn 0.0491 0.9985 0.0241
vn -0.2584 -0.0106 0.9660
vn -0.9076 0.0546 -0.4162
vn -1.0000 0.0000 0.0000
vn 0.0000 0.0000 1.0000
vn 0.0000 1.0000 0.0000
vn 0.0000 -1.0000 0.0000
vn 0.0000 0.0000 -1.0000
vn 0.9858 0.0000 0.1682
s off
f 4/1/1 6/2/1 5/3/1
f 2/4/2 3/5/2 4/6/2
f 6/7/3 1/8/3 8/9/3
f 2/10/4 5/11/4 7/12/4
f 7/13/5 1/14/5 2/15/5
f 5/16/6 8/17/6 7/18/6
f 12/19/7 9/20/7 10/21/7
f 10/22/8 16/23/8 15/24/8
f 15/25/9 12/26/9 10/27/9
f 11/28/10 16/29/10 9/30/10
f 13/31/11 11/32/11 12/33/11
f 16/34/12 13/31/12 15/35/12
f 4/1/1 3/36/1 6/2/1
f 2/4/2 1/37/2 3/5/2
f 6/7/3 3/38/3 1/8/3
f 2/10/4 4/39/4 5/11/4
f 7/13/5 8/40/5 1/14/5
f 5/16/6 6/41/6 8/17/6
f 12/19/7 11/42/7 9/20/7
f 10/22/8 9/43/8 16/23/8
f 15/25/9 13/44/9 12/26/9
f 11/28/10 14/45/10 16/29/10
f 13/31/11 14/46/11 11/32/11
f 16/34/12 14/46/12 13/31/12
