# Blender v2.77 (sub 0) OBJ File: 'LowPoly_Level_Kit_Rocks.blend'
# www.blender.org
g Brick_crk_01
v -0.099410 -0.000000 0.094200
v -0.099410 0.075000 0.094200
v -0.136944 -0.000000 0.001511
v -0.136944 0.075000 0.001511
v -0.018766 0.075000 -0.046345
v -0.018766 -0.000000 -0.046345
v 0.018768 0.075000 0.046344
v 0.018768 -0.000000 0.046344
v -0.008122 0.075000 0.017936
v -0.008122 -0.000000 0.017936
v 0.166553 -0.000000 0.031323
v 0.166553 0.075000 0.031323
v 0.166553 -0.000000 -0.068677
v 0.166553 0.075000 -0.068677
v 0.039053 0.075000 -0.068677
v 0.039053 -0.000000 -0.068677
v 0.039053 0.075000 0.031323
v 0.039053 -0.000000 0.031323
v 0.024792 0.075000 -0.005100
v 0.024792 -0.000000 -0.005100
vt 0.3194 0.3343
vt 0.3356 0.3549
vt 0.3194 0.3549
vt 0.3356 0.2792
vt 0.3518 0.3050
vt 0.3356 0.3050
vt 0.3056 0.3114
vt 0.2977 0.3348
vt 0.2977 0.3085
vt 0.2977 0.3348
vt 0.2899 0.3114
vt 0.2977 0.3085
vt 0.3356 0.3050
vt 0.3194 0.2792
vt 0.3356 0.2792
vt 0.3194 0.3348
vt 0.3194 0.3085
vt 0.2761 0.3348
vt 0.2761 0.3085
vt 0.2923 0.3545
vt 0.2761 0.3482
vt 0.2923 0.3482
vt 0.2923 0.3348
vt 0.2761 0.3348
vt 0.3518 0.3343
vt 0.3356 0.3085
vt 0.3518 0.3085
vt 0.3356 0.3343
vt 0.3518 0.3549
vt 0.3356 0.3549
vt 0.3115 0.3085
vt 0.2977 0.2792
vt 0.3194 0.2792
vt 0.2761 0.2792
vt 0.2840 0.3085
vt 0.2761 0.3055
vt 0.3356 0.3343
vt 0.3194 0.3085
vt 0.3356 0.3085
vt 0.3194 0.3055
vt 0.2977 0.2792
vt 0.2977 0.3055
vt 0.3086 0.3348
vt 0.2923 0.3429
vt 0.2923 0.3348
vt 0.3086 0.3540
vt 0.2923 0.3540
vt 0.3356 0.3343
vt 0.3518 0.2792
vt 0.3194 0.3050
vt 0.2761 0.3545
vt 0.3356 0.3343
vt 0.3518 0.3343
vt 0.2977 0.3055
vt 0.3194 0.3343
vt 0.3086 0.3429
vn -0.9269 0.0000 0.3753
vn 0.3753 0.0000 0.9269
vn 0.0000 1.0000 0.0000
vn 0.0000 -1.0000 0.0000
vn -0.3753 0.0000 -0.9269
vn 0.7262 0.0000 -0.6874
vn 0.9866 0.0000 -0.1634
vn 0.0000 0.0000 -1.0000
vn 1.0000 0.0000 0.0000
vn 0.0000 0.0000 1.0000
vn -0.9312 0.0000 0.3646
vn -0.9758 0.0000 -0.2189
s off
f 4/1/1 1/2/1 2/3/1
f 2/4/2 8/5/2 7/6/2
f 9/7/3 2/8/3 7/9/3
f 1/10/4 10/11/4 8/12/4
f 5/13/5 3/14/5 4/15/5
f 4/16/3 9/7/3 5/17/3
f 10/11/4 3/18/4 6/19/4
f 7/20/6 10/21/6 9/22/6
f 5/23/7 10/21/7 6/24/7
f 14/25/8 16/26/8 15/27/8
f 12/28/9 13/29/9 14/30/9
f 20/31/4 13/32/4 11/33/4
f 12/34/3 19/35/3 17/36/3
f 17/37/10 11/38/10 12/39/10
f 18/40/4 20/31/4 11/33/4
f 19/35/3 14/41/3 15/42/3
f 17/43/11 20/44/11 18/45/11
f 20/44/12 15/46/12 16/47/12
f 4/1/1 3/48/1 1/2/1
f 2/4/2 1/49/2 8/5/2
f 9/7/3 4/16/3 2/8/3
f 5/13/5 6/50/5 3/14/5
f 10/11/4 1/10/4 3/18/4
f 7/20/6 8/51/6 10/21/6
f 5/23/7 9/22/7 10/21/7
f 14/25/8 13/52/8 16/26/8
f 12/28/9 11/53/9 13/29/9
f 20/31/4 16/54/4 13/32/4
f 12/34/3 14/41/3 19/35/3
f 17/37/10 18/55/10 11/38/10
f 17/43/11 19/56/11 20/44/11
f 20/44/12 19/56/12 15/46/12
