# Blender v2.77 (sub 0) OBJ File: 'LowPoly_Level_Kit_Rocks.blend'
# www.blender.org
g Brick_01
v -0.127499 -0.000000 0.050000
v -0.127499 0.075000 0.050000
v -0.127499 -0.000000 -0.050000
v -0.127499 0.075000 -0.050000
v 0.127501 -0.000000 0.050000
v 0.127501 0.075000 0.050000
v 0.127501 -0.000000 -0.050000
v 0.127501 0.075000 -0.050000
vt 0.0229 0.3296
vt 0.0367 0.3478
vt 0.0229 0.3478
vt 0.0873 0.3296
vt 0.0735 0.2833
vt 0.0873 0.2833
vt 0.0367 0.3296
vt 0.0505 0.3478
vt 0.0367 0.3478
vt 0.0735 0.3296
vt 0.0597 0.2833
vt 0.0735 0.2833
vt 0.0413 0.3296
vt 0.0597 0.3296
vt 0.0413 0.2833
vt 0.0229 0.3296
vt 0.0229 0.2833
vt 0.0367 0.3296
vt 0.0735 0.3296
vt 0.0505 0.3296
vt 0.0413 0.2833
vt 0.0413 0.3296
vn -1.0000 0.0000 0.0000
vn 0.0000 0.0000 -1.0000
vn 1.0000 0.0000 0.0000
vn 0.0000 0.0000 1.0000
vn 0.0000 -1.0000 0.0000
vn 0.0000 1.0000 0.0000
s off
f 4/1/1 1/2/1 2/3/1
f 8/4/2 3/5/2 4/6/2
f 6/7/3 7/8/3 8/9/3
f 2/10/4 5/11/4 6/12/4
f 3/13/5 5/11/5 1/14/5
f 8/15/6 2/16/6 6/17/6
f 4/1/1 3/18/1 1/2/1
f 8/4/2 7/19/2 3/5/2
f 6/7/3 5/20/3 7/8/3
f 2/10/4 1/14/4 5/11/4
f 3/13/5 7/21/5 5/11/5
f 8/15/6 4/22/6 2/16/6
