# Blender v2.77 (sub 0) OBJ File: 'LowPoly_Level_Kit_Rocks.blend'
# www.blender.org
g Brick_Pile_m_08
v -0.315110 -0.000000 -0.424354
v -0.315110 0.075000 -0.424354
v -0.384895 -0.000000 -0.352730
v -0.384895 0.075000 -0.352730
v -0.497752 -0.000000 -0.602306
v -0.497752 0.075000 -0.602306
v -0.567537 -0.000000 -0.530682
v -0.567537 0.075000 -0.530682
v -0.313394 0.000000 0.377082
v -0.344980 0.000000 0.309057
v -0.313394 0.100000 0.377082
v -0.344980 0.100000 0.309057
v -0.544678 0.000000 0.484473
v -0.576264 0.000000 0.416448
v -0.544678 0.100000 0.484473
v -0.576264 0.100000 0.416448
v 0.155232 0.000000 -0.179517
v 0.100052 0.000000 -0.230312
v 0.155232 0.100000 -0.179517
v 0.100052 0.100000 -0.230312
v -0.017470 0.000000 0.008097
v -0.072650 0.000000 -0.042698
v -0.017470 0.100000 0.008097
v -0.072650 0.100000 -0.042698
v 0.025811 -0.000000 -0.373024
v 0.025811 0.075000 -0.373024
v 0.103090 -0.000000 -0.309558
v 0.103090 0.075000 -0.309558
v -0.136028 -0.000000 -0.175963
v -0.136028 0.075000 -0.175963
v -0.058749 -0.000000 -0.112497
v -0.058749 0.075000 -0.112497
v -0.183391 -0.000000 0.108101
v -0.183391 0.075000 0.108101
v -0.085919 -0.000000 0.130442
v -0.085919 0.075000 0.130442
v -0.240360 -0.000000 0.356656
v -0.240360 0.075000 0.356656
v -0.142887 -0.000000 0.378997
v -0.142887 0.075000 0.378997
v -0.149433 -0.000000 -0.041893
v -0.149433 0.075000 -0.041893
v -0.093726 -0.000000 0.041154
v -0.093726 0.075000 0.041154
v -0.361202 -0.000000 0.100161
v -0.361202 0.075000 0.100161
v -0.305494 -0.000000 0.183207
v -0.305494 0.075000 0.183207
v 0.178135 0.000000 0.121374
v 0.103135 0.000000 0.121374
v 0.178135 0.100000 0.121374
v 0.103135 0.100000 0.121374
v 0.178135 0.000000 0.376374
v 0.103135 0.000000 0.376374
v 0.178135 0.100000 0.376374
v 0.103135 0.100000 0.376374
v 0.351028 -0.000000 0.042822
v 0.351028 0.075000 0.042822
v 0.448120 -0.000000 0.018881
v 0.448120 0.075000 0.018881
v 0.412079 -0.000000 0.290406
v 0.412079 0.075000 0.290406
v 0.509171 -0.000000 0.266465
v 0.509171 0.075000 0.266465
v 0.200053 -0.000000 -0.070542
v 0.200053 0.075000 -0.070542
v 0.154520 -0.000000 -0.159574
v 0.154520 0.075000 -0.159574
v 0.427085 -0.000000 -0.186652
v 0.427085 0.075000 -0.186652
v 0.381552 -0.000000 -0.275684
v 0.381552 0.075000 -0.275684
v -0.146137 -0.000000 -0.088075
v -0.146137 0.075000 -0.088075
v -0.246130 -0.000000 -0.089207
v -0.246130 0.075000 -0.089207
v -0.143252 -0.000000 -0.343059
v -0.143252 0.075000 -0.343059
v -0.243246 -0.000000 -0.344190
v -0.243246 0.075000 -0.344190
v -0.256361 -0.000000 0.016443
v -0.256361 0.075000 0.016443
v -0.352236 -0.000000 0.044870
v -0.352236 0.075000 0.044870
v -0.328849 -0.000000 -0.228037
v -0.328849 0.075000 -0.228037
v -0.424723 -0.000000 -0.199611
v -0.424723 0.075000 -0.199611
v 0.005592 -0.000000 0.270925
v 0.005592 0.075000 0.270925
v -0.083700 -0.000000 0.225902
v -0.083700 0.075000 0.225902
v 0.120401 -0.000000 0.043232
v 0.120401 0.075000 0.043232
v 0.031110 -0.000000 -0.001791
v 0.031110 0.075000 -0.001791
v 0.104534 -0.000000 -0.004464
v 0.104534 0.075000 -0.004464
v 0.175612 -0.000000 -0.074806
v 0.175612 0.075000 -0.074806
v 0.283905 -0.000000 0.176784
v 0.283905 0.075000 0.176784
v 0.354983 -0.000000 0.106443
v 0.354983 0.075000 0.106443
v 0.633679 -0.000000 -0.059936
v 0.633679 0.075000 -0.059936
v 0.610241 -0.000000 -0.157150
v 0.610241 0.075000 -0.157150
v 0.881575 -0.000000 -0.119703
v 0.881575 0.075000 -0.119703
v 0.858137 -0.000000 -0.216917
v 0.858137 0.075000 -0.216917
vt 0.3264 0.3574
vt 0.3336 0.3648
vt 0.3264 0.3648
vt 0.3479 0.2626
vt 0.3551 0.2856
vt 0.3479 0.2856
vt 0.3407 0.3477
vt 0.3336 0.3381
vt 0.3407 0.3381
vt 0.2906 0.3546
vt 0.2834 0.3358
vt 0.2906 0.3358
vt 0.2691 0.2870
vt 0.2595 0.3114
vt 0.2595 0.2870
vt 0.2762 0.3645
vt 0.2830 0.3549
vt 0.2830 0.3645
vt 0.2691 0.3358
vt 0.2762 0.3114
vt 0.2762 0.3358
vt 0.3336 0.3574
vt 0.3264 0.3479
vt 0.3336 0.3479
vt 0.3168 0.3100
vt 0.3264 0.2869
vt 0.3264 0.3100
vt 0.3168 0.3327
vt 0.3264 0.3100
vt 0.3264 0.3327
vt 0.3551 0.2710
vt 0.3605 0.2805
vt 0.3551 0.2805
vt 0.2834 0.3358
vt 0.2762 0.3114
vt 0.2834 0.3114
vt 0.3550 0.3237
vt 0.3617 0.3141
vt 0.3617 0.3237
vt 0.2691 0.3298
vt 0.2595 0.3114
vt 0.2691 0.3114
vt 0.3168 0.3114
vt 0.3073 0.2870
vt 0.3168 0.2870
vt 0.3619 0.2856
vt 0.3551 0.2928
vt 0.3551 0.2856
vt 0.3407 0.3374
vt 0.3479 0.3548
vt 0.3407 0.3548
vt 0.3551 0.3651
vt 0.3479 0.3564
vt 0.3551 0.3564
vt 0.2906 0.3114
vt 0.2977 0.3357
vt 0.2906 0.3357
vt 0.3073 0.2870
vt 0.2977 0.2626
vt 0.3073 0.2626
vt 0.4534 0.2626
vt 0.4605 0.2676
vt 0.4534 0.2676
vt 0.4342 0.3332
vt 0.4414 0.3562
vt 0.4342 0.3562
vt 0.4438 0.3558
vt 0.4510 0.3648
vt 0.4438 0.3648
vt 0.4605 0.2884
vt 0.4534 0.2884
vt 0.4438 0.2626
vt 0.4342 0.2870
vt 0.4342 0.2626
vt 0.2762 0.3649
vt 0.2691 0.3564
vt 0.2762 0.3564
vt 0.2906 0.3357
vt 0.2977 0.3573
vt 0.2906 0.3573
vt 0.3479 0.3469
vt 0.3551 0.3564
vt 0.3479 0.3564
vt 0.3407 0.2626
vt 0.3479 0.2865
vt 0.3407 0.2865
vt 0.2882 0.3114
vt 0.2786 0.2870
vt 0.2882 0.2870
vt 0.3600 0.3024
vt 0.3551 0.2928
vt 0.3600 0.2928
vt 0.2834 0.3114
vt 0.2906 0.3358
vt 0.2834 0.3358
vt 0.3550 0.3237
vt 0.3479 0.3141
vt 0.3550 0.3141
vt 0.3168 0.2869
vt 0.3264 0.2626
vt 0.3264 0.2869
vt 0.3168 0.3114
vt 0.3073 0.3332
vt 0.3073 0.3114
vt 0.3336 0.3572
vt 0.3407 0.3653
vt 0.3336 0.3653
vt 0.3336 0.2626
vt 0.3407 0.2868
vt 0.3336 0.2868
vt 0.2667 0.3624
vt 0.2595 0.3530
vt 0.2667 0.3530
vt 0.3479 0.3106
vt 0.3407 0.2868
vt 0.3479 0.2868
vt 0.2882 0.2626
vt 0.2786 0.2870
vt 0.2786 0.2626
vt 0.3264 0.3383
vt 0.3336 0.3479
vt 0.3264 0.3479
vt 0.3168 0.3327
vt 0.3240 0.3558
vt 0.3168 0.3558
vt 0.3073 0.3562
vt 0.3145 0.3652
vt 0.3073 0.3652
vt 0.3551 0.3085
vt 0.3479 0.2856
vt 0.3551 0.2856
vt 0.2691 0.2870
vt 0.2786 0.3114
vt 0.2691 0.3114
vt 0.4820 0.3332
vt 0.4749 0.3237
vt 0.4820 0.3237
vt 0.4319 0.3573
vt 0.4247 0.3356
vt 0.4319 0.3356
vt 0.4820 0.3096
vt 0.4886 0.3024
vt 0.4886 0.3096
vt 0.4247 0.3114
vt 0.4319 0.3356
vt 0.4247 0.3356
vt 0.4247 0.3114
vt 0.4342 0.2870
vt 0.4342 0.3114
vt 0.2834 0.3546
vt 0.2906 0.3640
vt 0.2834 0.3640
vt 0.3407 0.3108
vt 0.3336 0.2868
vt 0.3407 0.2868
vt 0.3551 0.2626
vt 0.3622 0.2710
vt 0.3551 0.2710
vt 0.3336 0.3141
vt 0.3407 0.3381
vt 0.3336 0.3381
vt 0.2977 0.2626
vt 0.2882 0.2870
vt 0.2882 0.2626
vt 0.2977 0.3573
vt 0.3049 0.3653
vt 0.2977 0.3653
vt 0.3407 0.3141
vt 0.3479 0.3374
vt 0.3407 0.3374
vt 0.3336 0.2937
vt 0.3264 0.2884
vt 0.3336 0.2884
vt 0.3336 0.3141
vt 0.3264 0.2937
vt 0.2786 0.2626
vt 0.2691 0.2870
vt 0.2691 0.2626
vt 0.4605 0.3477
vt 0.4677 0.3572
vt 0.4605 0.3572
vt 0.4032 0.3358
vt 0.4104 0.3549
vt 0.4032 0.3549
vt 0.4247 0.3648
vt 0.4175 0.3573
vt 0.4247 0.3573
vt 0.3865 0.3298
vt 0.3936 0.3530
vt 0.3865 0.3530
vt 0.3960 0.2626
vt 0.3865 0.2870
vt 0.3865 0.2626
vt 0.4749 0.3642
vt 0.4677 0.3548
vt 0.4749 0.3548
vt 0.3960 0.3358
vt 0.4032 0.3564
vt 0.3960 0.3564
vt 0.4749 0.3374
vt 0.4820 0.3469
vt 0.4749 0.3469
vt 0.4534 0.3141
vt 0.4605 0.3383
vt 0.4534 0.3383
vt 0.4151 0.3114
vt 0.4247 0.2870
vt 0.4247 0.3114
vt 0.3336 0.3574
vt 0.3551 0.2626
vt 0.3336 0.3477
vt 0.2834 0.3546
vt 0.2691 0.3114
vt 0.2762 0.3549
vt 0.2691 0.3114
vt 0.3264 0.3574
vt 0.3168 0.2869
vt 0.3168 0.3100
vt 0.3605 0.2710
vt 0.2762 0.3358
vt 0.3550 0.3141
vt 0.2595 0.3298
vt 0.3073 0.3114
vt 0.3619 0.2928
vt 0.3479 0.3374
vt 0.3479 0.3651
vt 0.2977 0.3114
vt 0.2977 0.2870
vt 0.4605 0.2626
vt 0.4414 0.3332
vt 0.4510 0.3558
vt 0.4438 0.2870
vt 0.2691 0.3649
vt 0.2977 0.3357
vt 0.3551 0.3469
vt 0.3479 0.2626
vt 0.2786 0.3114
vt 0.3551 0.3024
vt 0.2906 0.3114
vt 0.3479 0.3237
vt 0.3168 0.2626
vt 0.3168 0.3332
vt 0.3407 0.3572
vt 0.3407 0.2626
vt 0.2595 0.3624
vt 0.3407 0.3106
vt 0.2882 0.2870
vt 0.3336 0.3383
vt 0.3240 0.3327
vt 0.3145 0.3562
vt 0.3479 0.3085
vt 0.2786 0.2870
vt 0.4749 0.3332
vt 0.4247 0.3573
vt 0.4820 0.3024
vt 0.4319 0.3114
vt 0.4247 0.2870
vt 0.2906 0.3546
vt 0.3336 0.3108
vt 0.3622 0.2626
vt 0.3407 0.3141
vt 0.2977 0.2870
vt 0.3049 0.3573
vt 0.3479 0.3141
vt 0.3264 0.3141
vt 0.2786 0.2870
vt 0.4677 0.3477
vt 0.4104 0.3358
vt 0.4175 0.3648
vt 0.3936 0.3298
vt 0.3960 0.2870
vt 0.4677 0.3642
vt 0.4032 0.3358
vt 0.4820 0.3374
vt 0.4605 0.3141
vt 0.4151 0.2870
vn 0.7162 0.0000 0.6979
vn -0.6979 0.0000 0.7162
vn -0.7162 0.0000 -0.6979
vn 0.6979 0.0000 -0.7162
vn 0.0000 1.0000 0.0000
vn 0.9070 0.0000 -0.4211
vn -0.9070 0.0000 0.4211
vn 0.4211 0.0000 0.9070
vn -0.4211 0.0000 -0.9070
vn 0.6773 0.0000 -0.7357
vn -0.6773 0.0000 0.7357
vn 0.7357 -0.0000 0.6773
vn -0.7357 0.0000 -0.6773
vn 0.6347 0.0000 -0.7728
vn 0.7728 0.0000 0.6347
vn -0.6347 0.0000 0.7728
vn -0.7728 0.0000 -0.6347
vn 0.2234 0.0000 -0.9747
vn 0.9747 0.0000 0.2234
vn -0.2234 0.0000 0.9747
vn -0.9747 0.0000 -0.2234
vn 0.8305 0.0000 -0.5571
vn 0.5571 0.0000 0.8305
vn -0.8305 0.0000 0.5571
vn -0.5571 0.0000 -0.8305
vn 0.0000 0.0000 -1.0000
vn 0.0000 0.0000 1.0000
vn 1.0000 -0.0000 0.0000
vn -1.0000 0.0000 -0.0000
vn -0.2394 0.0000 -0.9709
vn 0.9709 0.0000 -0.2394
vn 0.2394 0.0000 0.9709
vn -0.9709 0.0000 0.2394
vn -0.8903 0.0000 0.4553
vn -0.4553 0.0000 -0.8903
vn 0.8903 0.0000 -0.4553
vn 0.4553 0.0000 0.8903
vn -0.0113 0.0000 0.9999
vn -0.9999 0.0000 -0.0113
vn 0.0113 0.0000 -0.9999
vn 0.9999 0.0000 0.0113
vn 0.2843 0.0000 0.9587
vn -0.9587 0.0000 0.2843
vn -0.2843 0.0000 -0.9587
vn 0.9587 0.0000 -0.2843
vn -0.4502 0.0000 0.8929
vn -0.8929 0.0000 -0.4502
vn 0.4502 0.0000 -0.8929
vn 0.8929 0.0000 0.4502
vn -0.7034 0.0000 -0.7108
vn 0.7108 0.0000 -0.7034
vn 0.7034 0.0000 0.7108
vn -0.7108 0.0000 0.7034
vn -0.9721 0.0000 0.2344
vn -0.2344 0.0000 -0.9721
vn 0.9721 0.0000 -0.2344
vn 0.2344 0.0000 0.9721
s off
f 4/1/1 1/2/1 2/3/1
f 8/4/2 3/5/2 4/6/2
f 6/7/3 7/8/3 8/9/3
f 2/10/4 5/11/4 6/12/4
f 8/13/5 2/14/5 6/15/5
f 10/16/6 11/17/6 9/18/6
f 12/19/5 15/20/5 11/21/5
f 14/22/7 15/23/7 16/24/7
f 11/25/8 13/26/8 9/27/8
f 16/28/9 10/29/9 14/30/9
f 20/31/10 17/32/10 18/33/10
f 24/34/5 19/35/5 20/36/5
f 24/37/11 21/38/11 23/39/11
f 17/40/12 23/41/12 21/42/12
f 22/43/13 20/44/13 18/45/13
f 28/46/14 25/47/14 26/48/14
f 32/49/15 27/50/15 28/51/15
f 30/52/16 31/53/16 32/54/16
f 26/55/17 29/56/17 30/57/17
f 30/58/5 28/59/5 26/60/5
f 36/61/18 33/62/18 34/63/18
f 40/64/19 35/65/19 36/66/19
f 38/67/20 39/68/20 40/69/20
f 34/63/21 37/70/21 38/71/21
f 40/72/5 34/73/5 38/74/5
f 44/75/22 41/76/22 42/77/22
f 48/78/23 43/79/23 44/80/23
f 46/81/24 47/82/24 48/83/24
f 42/84/25 45/85/25 46/86/25
f 46/87/5 44/88/5 42/89/5
f 52/90/26 49/91/26 50/92/26
f 56/93/5 51/94/5 52/95/5
f 54/96/27 55/97/27 56/98/27
f 51/99/28 53/100/28 49/101/28
f 56/102/29 50/103/29 54/104/29
f 60/105/30 57/106/30 58/107/30
f 64/108/31 59/109/31 60/110/31
f 62/111/32 63/112/32 64/113/32
f 58/114/33 61/115/33 62/116/33
f 64/117/5 58/118/5 62/119/5
f 68/120/34 65/121/34 66/122/34
f 72/123/35 67/124/35 68/125/35
f 70/126/36 71/127/36 72/128/36
f 66/129/37 69/130/37 70/131/37
f 70/132/5 68/133/5 66/134/5
f 76/135/38 73/136/38 74/137/38
f 80/138/39 75/139/39 76/140/39
f 78/141/40 79/142/40 80/143/40
f 74/144/41 77/145/41 78/146/41
f 80/147/5 74/148/5 78/149/5
f 84/150/42 81/151/42 82/152/42
f 88/153/43 83/154/43 84/155/43
f 86/156/44 87/157/44 88/158/44
f 82/159/45 85/160/45 86/161/45
f 88/162/5 82/163/5 86/164/5
f 92/165/46 89/166/46 90/167/46
f 96/168/47 91/169/47 92/170/47
f 94/171/48 95/172/48 96/173/48
f 90/174/49 93/175/49 94/171/49
f 96/176/5 90/177/5 94/178/5
f 100/179/50 97/180/50 98/181/50
f 104/182/51 99/183/51 100/184/51
f 102/185/52 103/186/52 104/187/52
f 98/188/53 101/189/53 102/190/53
f 104/191/5 98/192/5 102/193/5
f 108/194/54 105/195/54 106/196/54
f 112/197/55 107/198/55 108/199/55
f 110/200/56 111/201/56 112/202/56
f 106/203/57 109/204/57 110/205/57
f 112/206/5 106/207/5 110/208/5
f 4/1/1 3/209/1 1/2/1
f 8/4/2 7/210/2 3/5/2
f 6/7/3 5/211/3 7/8/3
f 2/10/4 1/212/4 5/11/4
f 8/13/5 4/213/5 2/14/5
f 10/16/6 12/214/6 11/17/6
f 12/19/5 16/215/5 15/20/5
f 14/22/7 13/216/7 15/23/7
f 11/25/8 15/217/8 13/26/8
f 16/28/9 12/218/9 10/29/9
f 20/31/10 19/219/10 17/32/10
f 24/34/5 23/220/5 19/35/5
f 24/37/11 22/221/11 21/38/11
f 17/40/12 19/222/12 23/41/12
f 22/43/13 24/223/13 20/44/13
f 28/46/14 27/224/14 25/47/14
f 32/49/15 31/225/15 27/50/15
f 30/52/16 29/226/16 31/53/16
f 26/55/17 25/227/17 29/56/17
f 30/58/5 32/228/5 28/59/5
f 36/61/18 35/229/18 33/62/18
f 40/64/19 39/230/19 35/65/19
f 38/67/20 37/231/20 39/68/20
f 34/63/21 33/62/21 37/70/21
f 40/72/5 36/232/5 34/73/5
f 44/75/22 43/233/22 41/76/22
f 48/78/23 47/234/23 43/79/23
f 46/81/24 45/235/24 47/82/24
f 42/84/25 41/236/25 45/85/25
f 46/87/5 48/237/5 44/88/5
f 52/90/26 51/238/26 49/91/26
f 56/93/5 55/239/5 51/94/5
f 54/96/27 53/240/27 55/97/27
f 51/99/28 55/241/28 53/100/28
f 56/102/29 52/242/29 50/103/29
f 60/105/30 59/243/30 57/106/30
f 64/108/31 63/244/31 59/109/31
f 62/111/32 61/245/32 63/112/32
f 58/114/33 57/246/33 61/115/33
f 64/117/5 60/247/5 58/118/5
f 68/120/34 67/248/34 65/121/34
f 72/123/35 71/249/35 67/124/35
f 70/126/36 69/250/36 71/127/36
f 66/129/37 65/251/37 69/130/37
f 70/132/5 72/252/5 68/133/5
f 76/135/38 75/253/38 73/136/38
f 80/138/39 79/254/39 75/139/39
f 78/141/40 77/255/40 79/142/40
f 74/144/41 73/256/41 77/145/41
f 80/147/5 76/257/5 74/148/5
f 84/150/42 83/258/42 81/151/42
f 88/153/43 87/259/43 83/154/43
f 86/156/44 85/260/44 87/157/44
f 82/159/45 81/261/45 85/160/45
f 88/162/5 84/262/5 82/163/5
f 92/165/46 91/263/46 89/166/46
f 96/168/47 95/264/47 91/169/47
f 94/171/48 93/175/48 95/172/48
f 90/174/49 89/265/49 93/175/49
f 96/176/5 92/266/5 90/177/5
f 100/179/50 99/267/50 97/180/50
f 104/182/51 103/268/51 99/183/51
f 102/185/52 101/269/52 103/186/52
f 98/188/53 97/270/53 101/189/53
f 104/191/5 100/271/5 98/192/5
f 108/194/54 107/272/54 105/195/54
f 112/197/55 111/273/55 107/198/55
f 110/200/56 109/274/56 111/201/56
f 106/203/57 105/275/57 109/204/57
f 112/206/5 108/276/5 106/207/5
