# Blender v2.77 (sub 0) OBJ File: 'LowPoly_Level_Kit_Rocks.blend'
# www.blender.org
g Brick_crk_02
v 0.091964 -0.010274 -0.127988
v 0.091964 0.064726 -0.127988
v 0.160744 -0.010274 -0.055398
v 0.160744 0.064726 -0.055398
v 0.068192 0.064726 0.032297
v 0.068192 -0.010274 0.032297
v -0.000588 0.064726 -0.040293
v -0.000588 -0.010274 -0.040293
v 0.034816 0.064726 -0.023662
v 0.034816 -0.010274 -0.023662
v -0.024450 0.062110 0.100974
v -0.095585 0.082054 0.088048
v -0.006572 0.062110 0.002585
v -0.077707 0.082054 -0.010341
v -0.111065 -0.040856 -0.016402
v -0.039930 -0.060800 -0.003476
v -0.128943 -0.040856 0.081987
v -0.057808 -0.060800 0.094913
v -0.126163 -0.054604 0.045472
v -0.055028 -0.074548 0.058398
vt 0.9354 0.3503
vt 0.9200 0.3345
vt 0.9354 0.3345
vt 0.9704 0.3050
vt 0.9558 0.2818
vt 0.9704 0.2845
vt 0.9275 0.3123
vt 0.9200 0.3345
vt 0.9200 0.3096
vt 0.8994 0.3095
vt 0.9069 0.3317
vt 0.8994 0.3345
vt 0.9705 0.3300
vt 0.9559 0.3122
vt 0.9705 0.3095
vt 0.9405 0.3344
vt 0.9405 0.3095
vt 0.9199 0.3095
vt 0.9199 0.3345
vt 0.8994 0.3345
vt 0.9149 0.3421
vt 0.8994 0.3421
vt 0.8994 0.3516
vt 0.9149 0.3516
vt 0.9405 0.3345
vt 0.9559 0.3095
vt 0.9559 0.3345
vt 0.9559 0.3540
vt 0.9407 0.3345
vt 0.9559 0.3345
vt 0.9275 0.2818
vt 0.9405 0.3095
vt 0.9200 0.3095
vt 0.9200 0.3095
vt 0.9125 0.2818
vt 0.9200 0.2846
vt 0.9405 0.2818
vt 0.9558 0.3067
vt 0.9405 0.3068
vt 0.9200 0.2846
vt 0.8994 0.3095
vt 0.8994 0.2846
vt 0.9565 0.3522
vt 0.9711 0.3453
vt 0.9717 0.3522
vt 0.9714 0.3327
vt 0.9559 0.3453
vt 0.9562 0.3327
vt 0.9200 0.3503
vt 0.9558 0.3023
vt 0.9559 0.3327
vt 0.9149 0.3345
vt 0.9405 0.3095
vt 0.9407 0.3540
vt 0.9405 0.2846
vt 0.9558 0.2818
vn 0.7259 0.0000 -0.6878
vn -0.6878 0.0000 -0.7259
vn 0.0000 1.0000 -0.0000
vn 0.0000 -1.0000 -0.0000
vn 0.6878 0.0000 0.7259
vn -0.4252 0.0000 0.9051
vn -0.8588 0.0000 0.5122
vn 0.1788 -0.0000 -0.9839
vn 0.2616 0.9640 0.0475
vn 0.9485 -0.2659 0.1723
vn -0.9485 0.2659 -0.1723
vn -0.1788 -0.0000 0.9839
vn -0.3088 -0.8976 0.3144
vn -0.2162 -0.9406 -0.2617
vn -0.3088 -0.8976 0.3145
s off
f 4/1/1 1/2/1 2/3/1
f 2/4/2 8/5/2 7/6/2
f 9/7/3 2/8/3 7/9/3
f 1/10/4 10/11/4 8/12/4
f 5/13/5 3/14/5 4/15/5
f 4/16/3 9/7/3 5/17/3
f 10/11/4 3/18/4 6/19/4
f 7/20/6 10/21/6 9/22/6
f 5/23/7 10/21/7 6/24/7
f 15/25/8 13/26/8 16/27/8
f 12/28/9 13/29/9 14/30/9
f 20/31/10 13/32/10 11/33/10
f 12/34/11 19/35/11 17/36/11
f 17/37/12 11/38/12 12/39/12
f 18/40/10 20/31/10 11/33/10
f 19/35/11 14/41/11 15/42/11
f 17/43/13 20/44/13 18/45/13
f 16/46/14 19/47/14 15/48/14
f 4/1/1 3/49/1 1/2/1
f 2/4/2 1/50/2 8/5/2
f 9/7/3 4/16/3 2/8/3
f 5/13/5 6/51/5 3/14/5
f 10/11/4 1/10/4 3/18/4
f 7/20/6 8/52/6 10/21/6
f 5/23/7 9/22/7 10/21/7
f 15/25/8 14/53/8 13/26/8
f 12/28/9 11/54/9 13/29/9
f 20/31/10 16/55/10 13/32/10
f 12/34/11 14/41/11 19/35/11
f 17/37/12 18/56/12 11/38/12
f 17/43/15 19/47/15 20/44/15
f 16/46/14 20/44/14 19/47/14
