# Blender v2.77 (sub 0) OBJ File: 'LowPoly_Level_Kit_Rocks.blend'
# www.blender.org
g Brick_Pile_m_04
v -0.102535 0.075000 -0.022327
v -0.102535 0.150000 -0.022327
v -0.002616 0.075000 -0.026335
v -0.002616 0.150000 -0.026335
v -0.092315 0.075000 0.232468
v -0.092315 0.150000 0.232468
v 0.007604 0.075000 0.228460
v 0.007604 0.150000 0.228460
v 0.014970 0.075000 -0.034667
v 0.014970 0.150000 -0.034667
v 0.114957 0.075000 -0.036292
v 0.114957 0.150000 -0.036292
v 0.019114 0.075000 0.220300
v 0.019114 0.150000 0.220300
v 0.119100 0.075000 0.218675
v 0.119100 0.150000 0.218675
v -0.138012 -0.000000 -0.022829
v -0.138012 0.075000 -0.022829
v -0.138012 -0.000000 -0.122829
v -0.138012 0.075000 -0.122829
v 0.116988 -0.000000 -0.022829
v 0.116988 0.075000 -0.022829
v 0.116988 -0.000000 -0.122829
v 0.116988 0.075000 -0.122829
v -0.194370 -0.000000 -0.179630
v -0.194370 0.075000 -0.179630
v -0.181187 -0.000000 -0.278757
v -0.181187 0.075000 -0.278757
v 0.058405 -0.000000 -0.146013
v 0.058405 0.075000 -0.146013
v 0.071588 -0.000000 -0.245140
v 0.071588 0.075000 -0.245140
v 0.092251 0.100000 0.344946
v 0.055977 0.100000 0.279302
v 0.092251 0.000000 0.344946
v 0.055977 0.000000 0.279302
v 0.315442 0.100000 0.221614
v 0.279168 0.100000 0.155970
v 0.315442 0.000000 0.221614
v 0.279168 0.000000 0.155970
v -0.130624 -0.000000 0.084359
v -0.130624 0.075000 0.084359
v -0.128240 -0.000000 -0.015612
v -0.128240 0.075000 -0.015612
v 0.124304 -0.000000 0.090437
v 0.124304 0.075000 0.090437
v 0.126687 -0.000000 -0.009534
v 0.126687 0.075000 -0.009534
v -0.111894 -0.000000 0.196772
v -0.111894 0.075000 0.196772
v -0.111894 -0.000000 0.096772
v -0.111894 0.075000 0.096772
v 0.143106 -0.000000 0.196772
v 0.143106 0.075000 0.196772
v 0.143106 -0.000000 0.096772
v 0.143106 0.075000 0.096772
vt 0.9786 0.2621
vt 0.9885 0.2743
vt 0.9786 0.2743
vt 0.9492 0.2931
vt 0.9590 0.3241
vt 0.9492 0.3241
vt 0.9296 0.3485
vt 0.9198 0.3363
vt 0.9296 0.3363
vt 0.9688 0.3241
vt 0.9786 0.3550
vt 0.9688 0.3550
vt 0.9100 0.3241
vt 0.8969 0.2931
vt 0.9100 0.2931
vt 0.9231 0.3241
vt 0.9361 0.2931
vt 0.9361 0.3241
vt 0.4918 0.3362
vt 0.4820 0.3241
vt 0.4918 0.3241
vt 0.4623 0.2931
vt 0.4721 0.3241
vt 0.4623 0.3241
vt 0.4918 0.3108
vt 0.4820 0.2986
vt 0.4918 0.2986
vt 0.4623 0.2621
vt 0.4721 0.2931
vt 0.4623 0.2931
vt 0.4264 0.3241
vt 0.4133 0.2931
vt 0.4264 0.2931
vt 0.4002 0.2621
vt 0.3871 0.2931
vt 0.3871 0.2621
vt 0.4820 0.2743
vt 0.4918 0.2865
vt 0.4820 0.2865
vt 0.4395 0.3211
vt 0.4493 0.3520
vt 0.4395 0.3520
vt 0.4820 0.3119
vt 0.4918 0.3241
vt 0.4820 0.3241
vt 0.4721 0.2621
vt 0.4820 0.2931
vt 0.4721 0.2931
vt 0.4264 0.2621
vt 0.4133 0.2931
vt 0.4133 0.2621
vt 0.8242 0.3485
vt 0.8340 0.3605
vt 0.8242 0.3605
vt 0.8111 0.3546
vt 0.8013 0.3241
vt 0.8111 0.3241
vt 0.7882 0.3520
vt 0.7981 0.3640
vt 0.7882 0.3640
vt 0.8144 0.3241
vt 0.8242 0.3546
vt 0.8144 0.3546
vt 0.8013 0.2621
vt 0.8144 0.2931
vt 0.8013 0.2931
vt 0.4002 0.3546
vt 0.4087 0.3668
vt 0.4002 0.3668
vt 0.4483 0.3642
vt 0.4395 0.3520
vt 0.4483 0.3520
vt 0.4623 0.2931
vt 0.4525 0.2621
vt 0.4623 0.2621
vt 0.3871 0.3211
vt 0.4002 0.2931
vt 0.4002 0.3211
vt 0.4525 0.2931
vt 0.4395 0.3211
vt 0.4395 0.2931
vt 0.0474 0.3241
vt 0.0572 0.3363
vt 0.0474 0.3363
vt 0.0866 0.3551
vt 0.0768 0.3241
vt 0.0866 0.3241
vt 0.1160 0.3605
vt 0.1062 0.3483
vt 0.1160 0.3483
vt 0.0866 0.3241
vt 0.0964 0.3550
vt 0.0866 0.3550
vt 0.0637 0.2621
vt 0.0507 0.2931
vt 0.0507 0.2621
vt 0.4918 0.2986
vt 0.4820 0.2865
vt 0.4918 0.2865
vt 0.3871 0.3211
vt 0.3969 0.3520
vt 0.3871 0.3520
vt 0.4820 0.3362
vt 0.4918 0.3483
vt 0.4820 0.3483
vt 0.4721 0.2931
vt 0.4820 0.3241
vt 0.4721 0.3241
vt 0.4525 0.2621
vt 0.4395 0.2931
vt 0.4395 0.2621
vt 0.9885 0.2621
vt 0.9590 0.2931
vt 0.9198 0.3485
vt 0.9786 0.3241
vt 0.8969 0.3241
vt 0.9231 0.2931
vt 0.4820 0.3362
vt 0.4721 0.2931
vt 0.4820 0.3108
vt 0.4721 0.2621
vt 0.4133 0.3241
vt 0.4002 0.2931
vt 0.4918 0.2743
vt 0.4493 0.3211
vt 0.4918 0.3119
vt 0.4820 0.2621
vt 0.4264 0.2931
vt 0.8340 0.3485
vt 0.8013 0.3546
vt 0.7981 0.3520
vt 0.8242 0.3241
vt 0.8144 0.2621
vt 0.4087 0.3546
vt 0.4395 0.3642
vt 0.4525 0.2931
vt 0.3871 0.2931
vt 0.4525 0.3211
vt 0.0572 0.3241
vt 0.0768 0.3551
vt 0.1062 0.3605
vt 0.0964 0.3241
vt 0.0637 0.2931
vt 0.4820 0.2986
vt 0.3969 0.3211
vt 0.4918 0.3362
vt 0.4820 0.2931
vt 0.4525 0.2931
vn -0.0401 0.0000 -0.9992
vn 0.9992 0.0000 -0.0401
vn 0.0401 0.0000 0.9992
vn -0.9992 0.0000 0.0401
vn 0.0000 -1.0000 0.0000
vn 0.0000 1.0000 0.0000
vn -0.0162 0.0000 -0.9999
vn 0.9999 0.0000 -0.0162
vn 0.0162 0.0000 0.9999
vn -0.9999 0.0000 0.0162
vn -1.0000 0.0000 0.0000
vn 0.0000 0.0000 -1.0000
vn 1.0000 0.0000 0.0000
vn -0.0000 0.0000 1.0000
vn -0.9913 0.0000 -0.1318
vn 0.1318 0.0000 -0.9913
vn 0.9913 0.0000 0.1318
vn -0.1318 0.0000 0.9913
vn -0.8753 0.0000 0.4837
vn 0.8753 0.0000 -0.4837
vn 0.4837 -0.0000 0.8753
vn -0.4837 0.0000 -0.8753
vn -0.9997 0.0000 -0.0238
vn 0.0238 0.0000 -0.9997
vn 0.9997 0.0000 0.0238
vn -0.0238 0.0000 0.9997
s off
f 4/1/1 1/2/1 2/3/1
f 8/4/2 3/5/2 4/6/2
f 6/7/3 7/8/3 8/9/3
f 2/10/4 5/11/4 6/12/4
f 1/13/5 7/14/5 5/15/5
f 8/16/6 2/17/6 6/18/6
f 12/19/7 9/20/7 10/21/7
f 16/22/8 11/23/8 12/24/8
f 14/25/9 15/26/9 16/27/9
f 10/28/10 13/29/10 14/30/10
f 9/31/5 15/32/5 13/33/5
f 16/34/6 10/35/6 14/36/6
f 20/37/11 17/38/11 18/39/11
f 24/40/12 19/41/12 20/42/12
f 22/43/13 23/44/13 24/45/13
f 18/46/14 21/47/14 22/48/14
f 24/49/6 18/50/6 22/51/6
f 28/52/15 25/53/15 26/54/15
f 32/55/16 27/56/16 28/57/16
f 30/58/17 31/59/17 32/60/17
f 26/61/18 29/62/18 30/63/18
f 30/64/6 28/65/6 26/66/6
f 36/67/19 33/68/19 34/69/19
f 38/70/20 39/71/20 40/72/20
f 34/73/6 37/74/6 38/75/6
f 35/76/21 37/77/21 33/78/21
f 40/79/22 34/80/22 38/81/22
f 44/82/23 41/83/23 42/84/23
f 48/85/24 43/86/24 44/87/24
f 46/88/25 47/89/25 48/90/25
f 42/91/26 45/92/26 46/93/26
f 48/94/6 42/95/6 46/96/6
f 52/97/11 49/98/11 50/99/11
f 56/100/12 51/101/12 52/102/12
f 54/103/13 55/104/13 56/105/13
f 50/106/14 53/107/14 54/108/14
f 56/109/6 50/110/6 54/111/6
f 4/1/1 3/112/1 1/2/1
f 8/4/2 7/113/2 3/5/2
f 6/7/3 5/114/3 7/8/3
f 2/10/4 1/115/4 5/11/4
f 1/13/5 3/116/5 7/14/5
f 8/16/6 4/117/6 2/17/6
f 12/19/7 11/118/7 9/20/7
f 16/22/8 15/119/8 11/23/8
f 14/25/9 13/120/9 15/26/9
f 10/28/10 9/121/10 13/29/10
f 9/31/5 11/122/5 15/32/5
f 16/34/6 12/123/6 10/35/6
f 20/37/11 19/124/11 17/38/11
f 24/40/12 23/125/12 19/41/12
f 22/43/13 21/126/13 23/44/13
f 18/46/14 17/127/14 21/47/14
f 24/49/6 20/128/6 18/50/6
f 28/52/15 27/129/15 25/53/15
f 32/55/16 31/130/16 27/56/16
f 30/58/17 29/131/17 31/59/17
f 26/61/18 25/132/18 29/62/18
f 30/64/6 32/133/6 28/65/6
f 36/67/19 35/134/19 33/68/19
f 38/70/20 37/135/20 39/71/20
f 34/73/6 33/136/6 37/74/6
f 35/76/21 39/137/21 37/77/21
f 40/79/22 36/138/22 34/80/22
f 44/82/23 43/139/23 41/83/23
f 48/85/24 47/140/24 43/86/24
f 46/88/25 45/141/25 47/89/25
f 42/91/26 41/142/26 45/92/26
f 48/94/6 44/143/6 42/95/6
f 52/97/11 51/144/11 49/98/11
f 56/100/12 55/145/12 51/101/12
f 54/103/13 53/146/13 55/104/13
f 50/106/14 49/147/14 53/107/14
f 56/109/6 52/148/6 50/110/6
