# Blender v2.77 (sub 0) OBJ File: 'LowPoly_Level_Kit_Rocks.blend'
# www.blender.org
g Rock_Tile_m_10_Collider
v -0.200000 0.000000 0.200000
v -0.195222 0.050000 0.186841
v 0.200000 0.000000 0.200000
v 0.186841 0.050000 0.186841
v 0.200000 0.000000 -0.133682
v 0.186841 0.050000 -0.094555
v -0.200000 0.000000 0.033123
v -0.085131 0.000000 -0.149662
v -0.103932 0.050000 -0.114131
v -0.195222 0.050000 0.030105
vt 0.0275 0.9194
vt 0.0275 0.8925
vt 0.0864 0.8925
vt 0.1168 0.8940
vt 0.1092 0.9156
vt 0.1092 0.8925
vt 0.0864 0.9372
vt 0.0940 0.8925
vt 0.0940 0.9387
vt 0.1092 0.8940
vt 0.1016 0.9387
vt 0.1016 0.8925
vt 0.0825 0.9625
vt 0.0527 0.9818
vt 0.0275 0.9387
vt 0.0864 0.9387
vt 0.0569 0.9387
vt 0.0940 0.9179
vt 0.0957 0.9375
vt 0.0940 0.9372
vt 0.0940 0.8940
vt 0.1016 0.9194
vt 0.1168 0.9138
vt 0.0864 0.8940
vt 0.1092 0.9372
vt 0.0275 0.9818
vt 0.0825 0.9387
vt 0.1016 0.8925
vn -0.0000 -1.0000 0.0000
vn -0.9955 0.0951 0.0000
vn 0.9671 0.2545 0.0000
vn 0.0000 0.2545 0.9671
vn 0.0000 1.0000 0.0000
vn -0.8440 0.0484 -0.5342
vn 0.0541 0.5919 -0.8042
vn -0.8452 0.0596 -0.5311
vn 0.0438 0.6228 -0.7812
s off
f 8/1/1 5/2/1 3/3/1
f 2/4/2 7/5/2 1/6/2
f 6/7/3 3/8/3 5/9/3
f 4/10/4 1/11/4 3/12/4
f 9/13/5 10/14/5 4/15/5
f 3/3/1 1/16/1 7/17/1
f 9/18/6 7/19/6 10/20/6
f 6/21/7 8/22/7 9/18/7
f 7/17/1 8/1/1 3/3/1
f 2/4/2 10/23/2 7/5/2
f 6/7/3 4/24/3 3/8/3
f 4/10/4 2/25/4 1/11/4
f 2/26/5 4/15/5 10/14/5
f 6/27/5 9/13/5 4/15/5
f 9/18/8 8/22/8 7/19/8
f 6/21/9 5/28/9 8/22/9
