# Blender v2.77 (sub 0) OBJ File: 'LowPoly_Level_Kit_Rocks.blend'
# www.blender.org
g Rock_Tile_crk_m_02_Collider
v -0.200000 0.000000 0.200000
v -0.186841 0.050000 0.186841
v -0.206903 0.000000 -0.210355
v -0.193744 0.050000 -0.197196
v 0.200000 0.000000 0.200000
v 0.186841 0.050000 0.186841
v 0.217259 0.000000 -0.209205
v 0.204099 0.050000 -0.196045
vt 0.1168 0.9372
vt 0.1092 0.8925
vt 0.1168 0.8940
vt 0.0940 0.9372
vt 0.1016 0.8925
vt 0.1016 0.9387
vt 0.0864 0.9372
vt 0.0940 0.8925
vt 0.0940 0.9387
vt 0.1092 0.9372
vt 0.1016 0.8925
vt 0.1092 0.8940
vt 0.0275 0.9387
vt 0.0864 0.8925
vt 0.0864 0.9387
vt 0.0275 0.9387
vt 0.0825 0.9818
vt 0.0275 0.9818
vt 0.1092 0.9387
vt 0.0940 0.8940
vt 0.0864 0.8940
vt 0.1016 0.9387
vt 0.0275 0.8925
vt 0.0825 0.9387
vn -0.9658 0.2588 0.0174
vn 0.0026 0.2539 -0.9672
vn 0.9689 0.2442 0.0409
vn 0.0000 0.2545 0.9671
vn 0.0000 -1.0000 0.0000
vn 0.0000 1.0000 0.0000
vn -0.9680 0.2505 0.0163
vn 0.0028 0.2552 -0.9669
vn 0.9633 0.2650 0.0434
s off
f 4/1/1 1/2/1 2/3/1
f 4/4/2 7/5/2 3/6/2
f 8/7/3 5/8/3 7/9/3
f 2/10/4 5/11/4 6/12/4
f 3/13/5 5/14/5 1/15/5
f 6/16/6 4/17/6 2/18/6
f 4/1/7 3/19/7 1/2/7
f 4/4/8 8/20/8 7/5/8
f 8/7/9 6/21/9 5/8/9
f 2/10/4 1/22/4 5/11/4
f 3/13/5 7/23/5 5/14/5
f 6/16/6 8/24/6 4/17/6
