# Blender v2.77 (sub 0) OBJ File: 'LowPoly_Level_Kit_Rocks.blend'
# www.blender.org
g Rock_Tiles_m_06_Collider
v 0.400000 -0.000141 0.199999
v 0.400000 -0.000141 -0.200000
v 0.387821 0.049859 -0.187820
v 0.387821 0.044951 0.187820
v -0.400000 -0.000141 0.199999
v -0.400000 -0.000141 -0.199996
v -0.387820 0.049859 -0.187816
v -0.387820 0.049859 0.187824
vt 0.9690 0.6959
vt 0.9731 0.7380
vt 0.9686 0.7367
vt 0.8555 0.6512
vt 0.8510 0.6526
vt 0.8555 0.6946
vt 0.9731 0.6946
vt 0.8510 0.6933
vn 0.9718 0.2360 0.0031
vn -0.0000 0.2367 -0.9716
vn 0.0000 0.2607 0.9654
vn 0.0000 -1.0000 0.0000
vn -0.9716 0.2367 0.0000
vn 0.0063 0.9999 0.0131
vn 0.9654 0.2608 -0.0000
vn 0.0015 0.2362 0.9717
vn 0.0000 1.0000 0.0000
s off
f 4/1/1 2/2/1 3/3/1
f 3/3/2 6/4/2 7/5/2
f 4/1/3 5/6/3 1/7/3
f 1/7/4 6/4/4 2/2/4
f 7/5/5 5/6/5 8/8/5
f 3/3/6 8/8/6 4/1/6
f 4/1/7 1/7/7 2/2/7
f 3/3/2 2/2/2 6/4/2
f 4/1/8 8/8/8 5/6/8
f 1/7/4 5/6/4 6/4/4
f 7/5/5 6/4/5 5/6/5
f 3/3/9 7/5/9 8/8/9
