# Blender v2.77 (sub 0) OBJ File: 'LowPoly_Level_Kit_Rocks.blend'
# www.blender.org
g Rock_Tile_m_13_Collider
v -0.200000 0.000000 0.200000
v -0.186841 0.050000 0.186841
v -0.200000 0.000000 -0.200000
v -0.186841 0.050000 -0.186841
v 0.200000 0.000000 0.200000
v 0.186841 0.050000 0.186841
v 0.018339 0.000000 -0.200000
v 0.200000 0.000000 -0.052297
v 0.186841 0.050000 -0.013836
v -0.024117 0.050000 -0.186841
vt 0.1168 0.9372
vt 0.1092 0.8925
vt 0.1168 0.8940
vt 0.0275 0.9135
vt 0.0542 0.8925
vt 0.0864 0.9387
vt 0.0940 0.9150
vt 0.1016 0.9387
vt 0.0940 0.9372
vt 0.1092 0.9372
vt 0.1016 0.8925
vt 0.1092 0.8940
vt 0.0825 0.9596
vt 0.0825 0.9818
vt 0.0275 0.9818
vt 0.0864 0.9162
vt 0.0876 0.9374
vt 0.0864 0.9372
vt 0.0940 0.8925
vt 0.0940 0.9177
vt 0.1092 0.9387
vt 0.0864 0.8925
vt 0.0275 0.9387
vt 0.1016 0.9135
vt 0.1016 0.9387
vt 0.0275 0.9387
vt 0.0558 0.9387
vt 0.0864 0.8940
vn -0.9671 0.2545 0.0000
vn 0.0000 -1.0000 0.0000
vn 0.0000 0.2545 -0.9671
vn 0.0000 0.2545 0.9671
vn 0.0000 1.0000 0.0000
vn 0.5093 0.5959 -0.6210
vn 0.9671 0.2545 0.0000
vn 0.5016 0.6065 -0.6169
s off
f 4/1/1 1/2/1 2/3/1
f 7/4/2 8/5/2 1/6/2
f 10/7/3 3/8/3 4/9/3
f 2/10/4 5/11/4 6/12/4
f 10/13/5 4/14/5 2/15/5
f 9/16/6 7/17/6 10/18/6
f 9/16/7 5/19/7 8/20/7
f 4/1/1 3/21/1 1/2/1
f 5/22/2 1/6/2 8/5/2
f 3/23/2 7/4/2 1/6/2
f 10/7/3 7/24/3 3/8/3
f 2/10/4 1/25/4 5/11/4
f 2/15/5 6/26/5 9/27/5
f 9/27/5 10/13/5 2/15/5
f 9/16/8 8/20/8 7/17/8
f 9/16/7 6/28/7 5/19/7
