# Blender v2.77 (sub 0) OBJ File: 'LowPoly_Level_Kit_Rocks.blend'
# www.blender.org
g Rock_Tile_crk_m_01_Collider
v -0.200000 0.000000 0.200000
v -0.186841 0.050000 0.186841
v -0.200000 0.000000 -0.200000
v -0.186841 0.050000 -0.186841
v 0.225888 0.000000 0.211506
v 0.212729 0.050000 0.198346
v 0.247173 0.000000 -0.187535
v 0.234014 0.050000 -0.174376
vt 0.1168 0.9372
vt 0.1092 0.8925
vt 0.1168 0.8940
vt 0.0940 0.9372
vt 0.1016 0.8925
vt 0.1016 0.9387
vt 0.0864 0.9372
vt 0.0940 0.8925
vt 0.0940 0.9387
vt 0.1092 0.8940
vt 0.1016 0.9387
vt 0.1016 0.8925
vt 0.0864 0.9387
vt 0.0275 0.8925
vt 0.0864 0.8925
vt 0.0825 0.9387
vt 0.0275 0.9818
vt 0.0275 0.9387
vt 0.1092 0.9387
vt 0.0940 0.8940
vt 0.0864 0.8940
vt 0.1092 0.9372
vt 0.0275 0.9387
vt 0.0825 0.9818
vn -0.9671 0.2545 0.0000
vn 0.0270 0.2478 -0.9684
vn 0.9690 0.2414 0.0517
vn -0.0262 0.2480 0.9684
vn -0.0000 -1.0000 -0.0000
vn 0.0000 1.0000 0.0000
vn 0.0286 0.2614 -0.9648
vn 0.9620 0.2676 0.0549
vn -0.0278 0.2613 0.9649
s off
f 4/1/1 1/2/1 2/3/1
f 4/4/2 7/5/2 3/6/2
f 8/7/3 5/8/3 7/9/3
f 6/10/4 1/11/4 5/12/4
f 1/13/5 7/14/5 5/15/5
f 8/16/6 2/17/6 6/18/6
f 4/1/1 3/19/1 1/2/1
f 4/4/7 8/20/7 7/5/7
f 8/7/8 6/21/8 5/8/8
f 6/10/9 2/22/9 1/11/9
f 1/13/5 3/23/5 7/14/5
f 8/16/6 4/24/6 2/17/6
