# Blender v2.77 (sub 0) OBJ File: 'LowPoly_Level_Kit_Rocks.blend'
# www.blender.org
g Rock_Tiles_m_03_Collider
v -0.400000 0.000000 0.400000
v -0.385820 0.053000 0.385820
v -0.400000 0.000000 -0.400000
v -0.385820 0.053000 -0.385820
v 0.400000 0.000000 0.400000
v 0.385820 0.053000 0.385820
v 0.400000 0.000000 -0.400000
v 0.385820 0.053000 -0.385820
vn -0.9660 0.2585 0.0000
vn 0.0000 0.2585 -0.9660
vn 0.9660 0.2585 0.0000
vn 0.0000 0.2585 0.9660
vn 0.0000 -1.0000 0.0000
vn 0.0000 1.0000 0.0000
s off
f 4//1 1//1 2//1
f 4//2 7//2 3//2
f 6//3 7//3 8//3
f 6//4 1//4 5//4
f 3//5 5//5 1//5
f 8//6 2//6 6//6
f 4//1 3//1 1//1
f 4//2 8//2 7//2
f 6//3 5//3 7//3
f 6//4 2//4 1//4
f 3//5 7//5 5//5
f 8//6 4//6 2//6
