# Blender v2.77 (sub 0) OBJ File: 'LowPoly_Level_Kit_Rocks.blend'
# www.blender.org
g Rock_Tile_m_05_Collider
v -0.200000 0.000000 0.200000
v -0.186841 0.050000 0.186841
v -0.200000 0.000000 -0.200000
v -0.186841 0.050000 -0.186841
v 0.147266 0.000000 0.200000
v 0.110135 0.050000 0.186841
v 0.109870 0.000000 -0.200000
v 0.072739 0.050000 -0.186841
vt 0.1168 0.9372
vt 0.1092 0.8925
vt 0.1168 0.8940
vt 0.0940 0.8940
vt 0.1016 0.9387
vt 0.0940 0.9372
vt 0.0864 0.8940
vt 0.0940 0.9387
vt 0.0864 0.9372
vt 0.1092 0.8940
vt 0.1016 0.9387
vt 0.1016 0.8925
vt 0.0864 0.9387
vt 0.0275 0.8925
vt 0.0864 0.8925
vt 0.0825 0.9387
vt 0.0275 0.9818
vt 0.0275 0.9387
vt 0.1092 0.9387
vt 0.1016 0.8925
vt 0.0940 0.8925
vt 0.1092 0.9372
vt 0.0275 0.9387
vt 0.0825 0.9818
vn -0.9671 0.2545 0.0000
vn 0.0000 0.2545 -0.9671
vn 0.7902 0.6077 -0.0791
vn 0.0000 0.2545 0.9671
vn 0.0000 -1.0000 -0.0000
vn 0.0000 1.0000 0.0000
vn 0.8100 0.5816 -0.0757
s off
f 4/1/1 1/2/1 2/3/1
f 8/4/2 3/5/2 4/6/2
f 6/7/3 7/8/3 8/9/3
f 6/10/4 1/11/4 5/12/4
f 1/13/5 7/14/5 5/15/5
f 8/16/6 2/17/6 6/18/6
f 4/1/1 3/19/1 1/2/1
f 8/4/2 7/20/2 3/5/2
f 6/7/7 5/21/7 7/8/7
f 6/10/4 2/22/4 1/11/4
f 1/13/5 3/23/5 7/14/5
f 8/16/6 4/24/6 2/17/6
