# Blender v2.77 (sub 0) OBJ File: ''
# www.blender.org
g Rock_Flat_crk_m_04_Collider
v -0.651927 0.343381 -0.992515
v -0.524649 0.024275 -0.946347
v -1.137908 -0.009168 -0.435107
v -0.041282 0.485220 -0.779393
v -0.113411 0.593810 0.264189
v 0.181223 0.365428 -0.328204
v -0.027802 0.145197 -0.786345
v -0.171126 0.284437 0.346590
v -1.062657 0.378231 0.031965
v 0.878915 0.279220 -0.047136
v 0.698328 0.201974 0.527941
v 0.679467 0.000000 -0.048312
v -0.168106 0.165309 -0.475579
v 0.347370 0.166952 -0.563685
v -0.358725 0.000000 -0.280583
v 0.286767 -0.000000 0.638597
v -0.143060 0.113691 0.680793
v -0.334346 0.000223 0.513167
v -0.519107 0.195768 0.251967
vn -0.5908 -0.3414 -0.7310
vn 0.5486 0.8347 -0.0489
vn 0.5158 -0.8400 0.1685
vn -0.2996 -0.7101 0.6372
vn 0.8009 -0.5728 0.1746
vn -0.1186 -0.6972 -0.7070
vn -0.2530 0.9662 0.0503
vn -0.1325 -0.7440 0.6549
vn -0.0587 0.9697 0.2371
vn -0.7715 0.5452 -0.3279
vn -0.0003 -1.0000 -0.0002
vn -0.7992 0.4448 -0.4042
vn -0.7130 0.2170 0.6668
vn -0.2899 0.2965 0.9100
vn 0.0790 -0.9323 -0.3529
vn -0.1887 0.9760 -0.1089
vn 0.4822 -0.8316 0.2757
vn 0.1850 -0.9699 0.1585
vn 0.1523 0.2179 0.9640
vn -0.0113 0.9988 -0.0472
vn 0.3227 0.0321 -0.9460
vn -0.0001 -1.0000 0.0003
vn -0.7418 -0.6702 0.0230
vn 0.6637 -0.4717 -0.5805
vn 0.9006 0.0445 -0.4323
vn -0.1932 0.9744 -0.1147
vn 0.8877 -0.0435 0.4583
vn 0.1804 -0.9732 0.1424
vn 0.0023 0.9995 -0.0328
vn 0.3096 -0.0141 -0.9508
s off
f 1//1 2//1 3//1
f 4//2 5//2 6//2
f 7//3 6//3 8//3
f 9//4 3//4 8//4
f 10//5 11//5 12//5
f 13//6 14//6 15//6
f 10//7 14//7 11//7
f 16//8 17//8 18//8
f 19//9 17//9 11//9
f 3//10 9//10 1//10
f 18//11 12//11 16//11
f 13//12 15//12 19//12
f 18//13 17//13 19//13
f 8//14 5//14 9//14
f 15//15 14//15 12//15
f 9//16 4//16 1//16
f 16//17 12//17 11//17
f 7//18 3//18 2//18
f 16//19 11//19 17//19
f 19//20 14//20 13//20
f 7//21 1//21 4//21
f 18//22 15//22 12//22
f 19//23 15//23 18//23
f 14//24 10//24 12//24
f 4//25 6//25 7//25
f 9//26 5//26 4//26
f 5//27 8//27 6//27
f 7//28 8//28 3//28
f 19//29 11//29 14//29
f 7//30 2//30 1//30
