# Blender v2.77 (sub 0) OBJ File: ''
# www.blender.org
g Rock_Flat_s_05_Collider
v 0.168000 -0.045360 -0.336000
v 0.168000 -0.045360 0.168000
v -0.336000 -0.045360 0.168000
v 0.151200 0.045360 -0.302400
v -0.302400 0.045360 0.151200
v 0.151200 0.045360 0.151200
vn 0.0000 -1.0000 -0.0000
vn 0.9833 0.1821 0.0000
vn 0.0000 0.1821 0.9833
vn -0.7011 0.1298 -0.7011
vn 0.0000 1.0000 0.0000
s off
f 1//1 2//1 3//1
f 4//2 2//2 1//2
f 5//3 2//3 6//3
f 5//4 1//4 3//4
f 5//5 6//5 4//5
f 4//2 6//2 2//2
f 5//3 3//3 2//3
f 5//4 4//4 1//4
