# Blender v2.77 (sub 0) OBJ File: ''
# www.blender.org
g Rock_Flat_l_04_Collider
v 0.945034 0.000138 0.755676
v -0.735107 -0.000010 0.729777
v -1.103659 -0.000000 0.223123
v -1.179988 0.280454 0.269573
v -0.855734 0.159453 0.781078
v -0.538561 0.333042 0.685561
v -0.504539 0.564124 -0.742801
v 0.742359 0.004370 -0.722623
v -0.974868 0.001915 -0.683097
v 0.722140 0.195028 0.812377
v 1.125446 0.198753 -0.561828
v 1.087027 0.673996 -0.486832
v 1.182941 0.224724 0.498547
v -0.669683 0.664818 0.624924
v -0.874568 0.774833 -0.490070
v 0.858244 0.662145 0.676968
v -1.063113 1.229019 -0.716526
v 0.476464 0.756324 -0.679268
v -0.424724 0.790094 0.808235
v -0.991725 0.739892 0.187349
v -1.282476 1.237241 0.210274
v -0.889798 1.235132 0.710849
v 0.814647 0.873556 0.861410
v 0.855762 1.237794 -0.640897
v 1.098388 1.056446 -0.467737
v 1.321418 0.876687 0.416905
v 0.977576 1.238020 0.717055
vn 0.0001 -1.0000 -0.0001
vn -0.3379 0.8452 0.4141
vn -0.0228 -0.0867 -0.9960
vn 0.0014 -1.0000 -0.0030
vn -0.0117 -0.3143 0.9493
vn 0.0006 -1.0000 -0.0020
vn -0.6312 -0.6252 0.4591
vn 0.4738 -0.8780 -0.0675
vn 0.9944 0.0892 -0.0561
vn -0.5397 -0.0598 0.8397
vn -0.9475 0.1876 -0.2589
vn -0.0333 0.1669 0.9854
vn -0.1278 -0.4845 -0.8654
vn -0.0213 -0.8119 0.5833
vn -0.7507 -0.4607 0.4735
vn -0.0902 0.6960 -0.7124
vn -0.4657 -0.3049 0.8307
vn -0.8653 -0.4593 -0.2007
vn -0.0531 0.1602 0.9857
vn 0.0391 0.0487 -0.9980
vn 0.9687 -0.0164 -0.2476
vn 0.3051 0.0384 -0.9515
vn -0.0016 1.0000 0.0054
vn 0.6594 0.0030 0.7518
vn 0.7090 0.7043 -0.0356
vn 0.4222 -0.2634 -0.8674
vn -0.0042 0.9999 -0.0099
vn -0.0003 1.0000 -0.0001
vn 0.3055 0.1725 -0.9364
vn -0.0147 -0.2948 0.9554
vn 0.5103 0.3558 0.7829
vn 0.0498 0.0750 -0.9959
vn -0.8356 -0.3033 0.4580
vn -0.9613 -0.2389 -0.1371
vn 0.6756 -0.7370 -0.0186
vn 0.5578 0.0770 0.8264
vn 0.3167 0.1658 -0.9339
vn 0.8231 0.5427 0.1673
vn -0.9246 0.3535 -0.1417
vn -0.4330 0.2709 -0.8597
vn 0.5871 -0.4601 0.6661
vn -0.0636 0.2949 0.9534
vn -0.7064 0.3946 0.5876
vn 0.0118 -0.6560 0.7547
vn -0.8537 -0.4911 -0.1730
vn 0.4558 -0.8864 0.0806
vn -0.7321 -0.3688 0.5727
vn 0.6231 0.7801 -0.0560
vn -0.0037 0.3697 0.9292
vn -0.0287 0.5216 0.8527
s off
f 1//1 2//1 3//1
f 4//2 5//2 6//2
f 7//3 8//3 9//3
f 8//4 1//4 9//4
f 2//5 10//5 5//5
f 1//6 3//6 9//6
f 5//7 3//7 2//7
f 11//8 1//8 8//8
f 11//9 12//9 13//9
f 6//10 14//10 4//10
f 4//11 15//11 9//11
f 6//12 16//12 14//12
f 15//13 17//13 18//13
f 16//14 19//14 14//14
f 20//15 14//15 21//15
f 7//16 15//16 18//16
f 14//17 19//17 22//17
f 15//18 21//18 17//18
f 23//19 22//19 19//19
f 17//20 24//20 18//20
f 12//21 25//21 26//21
f 18//22 25//22 12//22
f 21//23 22//23 27//23
f 27//24 23//24 26//24
f 25//25 27//25 26//25
f 18//26 24//26 25//26
f 21//27 24//27 17//27
f 21//28 27//28 24//28
f 12//29 11//29 8//29
f 2//30 1//30 10//30
f 13//31 10//31 1//31
f 7//32 18//32 8//32
f 5//33 4//33 3//33
f 4//34 9//34 3//34
f 11//35 13//35 1//35
f 10//36 13//36 16//36
f 8//37 18//37 12//37
f 13//38 12//38 16//38
f 4//39 20//39 15//39
f 9//40 15//40 7//40
f 16//41 26//41 23//41
f 6//42 10//42 16//42
f 4//43 14//43 20//43
f 16//44 23//44 19//44
f 20//45 21//45 15//45
f 16//46 12//46 26//46
f 21//47 14//47 22//47
f 25//48 24//48 27//48
f 22//49 23//49 27//49
f 6//50 5//50 10//50
