# Blender v2.77 (sub 0) OBJ File: 'LowPoly_Level_Kit_Rocks.blend'
# www.blender.org
g Rock_Flat_crk_s_02_Collider
v -0.236240 0.000000 0.354638
v -0.089659 0.108860 0.354638
v -0.244616 0.000000 -0.320000
v -0.244616 0.108860 -0.320000
v 0.265556 0.000000 0.354638
v 0.265556 0.108860 0.354638
v 0.261368 0.000000 -0.320000
v 0.313485 0.108860 -0.164307
v -0.318238 0.108860 -0.169047
v -0.393622 0.000000 -0.014091
v 0.389434 0.108860 0.017319
v 0.389434 0.000000 0.017319
vn -0.8990 -0.0008 -0.4379
vn 0.0000 0.0000 -1.0000
vn 0.9387 -0.0000 0.3447
vn 0.0000 0.0000 1.0000
vn 0.0000 1.0000 0.0000
vn 0.9332 0.0599 -0.3543
vn -0.5778 0.7780 0.2466
vn 0.0000 -1.0000 0.0000
vn -0.8988 0.0000 -0.4384
vn 0.1679 0.7806 -0.6020
vn 0.9226 -0.0000 -0.3858
vn -0.5855 0.7693 0.2556
s off
f 9//1 3//1 10//1
f 4//2 7//2 3//2
f 6//3 12//3 11//3
f 2//4 5//4 6//4
f 8//5 9//5 11//5
f 11//5 2//5 6//5
f 8//6 12//6 7//6
f 2//7 10//7 1//7
f 3//8 12//8 10//8
f 1//8 10//8 12//8
f 3//8 7//8 12//8
f 12//8 5//8 1//8
f 9//9 4//9 3//9
f 4//10 8//10 7//10
f 6//3 5//3 12//3
f 2//4 1//4 5//4
f 8//5 4//5 9//5
f 11//5 9//5 2//5
f 8//11 11//11 12//11
f 2//12 9//12 10//12
