# Blender v2.77 (sub 0) OBJ File: ''
# www.blender.org
g Rocks_Flat_m_03_Collider
v 0.775797 0.090378 0.119271
v 1.052272 -0.000153 0.539416
v 0.678695 -0.002193 0.201302
v 1.058253 0.090868 0.570291
v 0.611646 -0.001114 0.772026
v 0.469242 0.092638 0.544635
v -0.544955 0.386889 0.047353
v 0.482406 0.655933 0.174360
v -0.115918 0.497092 0.370342
v -0.127884 0.611973 -0.411991
v -0.131837 0.611904 0.338576
v 0.256545 0.712454 -0.227261
v 0.117666 0.557331 -0.397647
v -0.522155 0.511796 0.014591
v -0.541572 0.389502 -0.386200
v -0.857083 0.176021 0.414570
v -0.718263 0.175799 0.917622
v -0.465616 0.175667 0.618681
v -0.701938 0.000174 0.954477
v -0.815111 -0.000000 0.388660
v -0.432154 -0.000000 0.612552
v -1.011780 0.175667 0.761840
v -1.076466 0.000579 0.690987
v 0.221441 0.592416 -0.505762
v 0.227307 0.378116 0.332371
v 0.302044 0.598235 0.194846
v 1.210041 0.203866 -0.053052
v 0.894725 0.037687 -0.267822
v 0.949689 0.341155 0.383046
v 0.132883 0.392868 -0.422460
v 0.479045 0.193288 -0.426184
v 1.100854 0.014743 0.377764
v 1.288988 -0.010269 -0.053057
v -0.522437 0.125662 -0.565277
v 0.191819 -0.000125 -0.227838
v -0.944223 0.100618 -0.427031
v -0.544314 0.385217 -0.566935
v -0.936768 0.385823 -0.267973
v 0.174503 0.386715 -0.051187
v -0.120173 0.385023 -0.462282
v -0.949432 0.386715 -0.051187
v 0.144592 0.000030 0.558792
v 0.304067 0.093171 0.313100
v 0.196327 0.074566 -0.383337
v -0.965212 -0.000002 0.218739
v 0.169075 0.165572 0.604248
v 0.306008 0.213970 -0.175628
v -0.281187 0.165572 0.604248
v -0.362663 0.000030 0.558792
v -0.965151 0.295932 0.217880
vn 0.3996 -0.8060 -0.4366
vn 0.4438 -0.3139 0.8394
vn 0.0031 1.0000 -0.0031
vn -0.0142 0.9213 0.3887
vn 0.0034 -1.0000 0.0023
vn 0.2542 -0.9671 -0.0077
vn -0.2523 0.9676 -0.0012
vn 0.2527 -0.9675 0.0057
vn -0.2475 0.9689 -0.0012
vn -0.0292 0.9874 0.1554
vn 0.2279 0.2889 0.9299
vn -0.6216 0.3029 0.7224
vn -0.4716 0.8495 -0.2364
vn 0.2466 -0.9691 -0.0039
vn 0.0008 1.0000 0.0002
vn -0.0002 -1.0000 0.0003
vn -0.5715 -0.1175 0.8121
vn -0.7539 -0.0839 -0.6516
vn -0.0008 1.0000 0.0007
vn 0.7787 0.1269 0.6144
vn 0.5007 0.1253 -0.8565
vn -0.9206 0.3768 0.1028
vn 0.4736 0.2076 -0.8559
vn -0.0316 0.5373 0.8428
vn -0.8880 0.4441 0.1198
vn -0.1869 -0.3067 -0.9333
vn -0.0724 -0.0497 0.9961
vn -0.1229 -0.9924 0.0040
vn 0.3858 0.9211 -0.0520
vn 0.4873 0.1797 -0.8545
vn -0.3813 -0.9193 0.0975
vn -0.0355 -0.9587 -0.2821
vn -0.5502 0.4176 -0.7231
vn 0.0000 1.0000 -0.0041
vn 0.5411 -0.8403 0.0327
vn 0.2457 0.0039 -0.9694
vn -0.0602 -0.9860 -0.1556
vn 0.7722 0.6000 0.2088
vn 0.0452 -0.9010 -0.4315
vn -0.9983 0.0000 -0.0583
vn -0.0017 1.0000 -0.0042
vn 0.5622 0.7205 -0.4060
vn 0.0010 1.0000 -0.0021
vn 0.8879 -0.4474 -0.1071
vn 0.0000 0.9475 0.3197
vn 0.0000 -0.2648 0.9643
vn 0.2395 0.0140 -0.9708
vn 0.0000 -1.0000 0.0002
vn -0.4914 0.0027 0.8709
vn 0.8330 0.5363 0.1359
vn 0.8526 -0.2518 0.4579
vn 0.8855 -0.4284 -0.1801
vn 0.8410 0.1234 -0.5268
vn -0.4858 -0.8723 -0.0554
vn -0.7694 0.3142 -0.5562
vn 0.1869 0.6458 -0.7403
vn 0.8412 -0.2022 -0.5015
vn -0.6519 0.1169 0.7492
vn 0.0228 -0.1568 -0.9874
vn -0.9840 0.1779 -0.0066
vn -0.4642 0.1404 0.8745
vn -0.0015 -1.0000 0.0006
vn -0.8165 0.4487 -0.3633
vn 0.7480 0.2022 0.6321
vn 0.4496 0.2341 -0.8620
vn 0.3739 0.0568 -0.9257
vn -0.4986 -0.8656 0.0455
vn 0.8552 0.3153 0.4113
vn 0.8523 0.3891 0.3496
vn 0.3835 0.9215 -0.0611
vn -0.3865 -0.9178 0.0908
vn -0.9988 0.0407 -0.0261
vn -0.3096 -0.0322 -0.9503
vn -0.4915 0.0026 0.8709
vn 0.6150 0.4650 -0.6368
s off
f 1//1 2//1 3//1
f 2//2 4//2 5//2
f 6//3 4//3 1//3
f 6//4 5//4 4//4
f 3//5 2//5 5//5
f 7//6 8//6 9//6
f 10//7 11//7 12//7
f 8//8 7//8 13//8
f 14//9 11//9 10//9
f 12//10 11//10 8//10
f 8//11 11//11 9//11
f 9//12 14//12 7//12
f 14//13 10//13 15//13
f 7//14 15//14 13//14
f 16//15 17//15 18//15
f 19//16 20//16 21//16
f 19//17 22//17 23//17
f 23//18 16//18 20//18
f 16//19 22//19 17//19
f 18//20 19//20 21//20
f 20//21 18//21 21//21
f 24//22 25//22 26//22
f 24//23 27//23 28//23
f 25//24 29//24 26//24
f 30//25 25//25 24//25
f 30//26 24//26 31//26
f 32//27 29//27 25//27
f 28//28 33//28 32//28
f 26//29 27//29 24//29
f 28//30 27//30 33//30
f 28//31 25//31 31//31
f 34//32 35//32 36//32
f 37//33 36//33 38//33
f 39//34 40//34 41//34
f 42//35 35//35 43//35
f 40//36 44//36 34//36
f 45//37 36//37 35//37
f 39//38 46//38 43//38
f 34//39 44//39 35//39
f 38//40 45//40 41//40
f 38//41 41//41 37//41
f 39//42 47//42 40//42
f 37//43 41//43 40//43
f 47//44 43//44 35//44
f 48//45 46//45 39//45
f 42//46 48//46 49//46
f 34//47 37//47 40//47
f 35//48 42//48 49//48
f 50//49 49//49 48//49
f 47//50 39//50 43//50
f 41//45 48//45 39//45
f 43//51 46//51 42//51
f 44//52 47//52 35//52
f 35//48 49//48 45//48
f 1//53 4//53 2//53
f 3//54 5//54 6//54
f 6//55 1//55 3//55
f 10//56 12//56 13//56
f 8//57 13//57 12//57
f 9//58 11//58 14//58
f 10//59 13//59 15//59
f 14//60 15//60 7//60
f 19//61 17//61 22//61
f 23//62 20//62 19//62
f 22//63 16//63 23//63
f 18//64 17//64 19//64
f 20//65 16//65 18//65
f 24//66 28//66 31//66
f 30//67 31//67 25//67
f 29//68 33//68 27//68
f 29//69 32//69 33//69
f 26//70 29//70 27//70
f 28//71 32//71 25//71
f 38//72 36//72 45//72
f 45//40 50//40 41//40
f 42//46 46//46 48//46
f 36//73 37//73 34//73
f 50//74 45//74 49//74
f 41//45 50//45 48//45
f 44//75 40//75 47//75
