# Blender v2.77 (sub 0) OBJ File: ''
# www.blender.org
g Rock_Flat_s_07_Collider
v -0.442972 -0.000000 0.051594
v 0.289237 -0.000000 0.343358
v -0.075457 -0.000000 0.503699
v 0.018986 0.163296 0.294623
v -0.161823 -0.000123 -0.353246
v -0.020339 0.164258 -0.270007
v 0.280743 -0.000594 -0.359836
v 0.298816 0.165627 0.150644
v -0.290903 0.163296 -0.086592
vn -0.0000 -1.0000 -0.0000
vn 0.2934 0.6846 0.6672
vn -0.0127 0.4604 -0.8876
vn 0.3886 0.8720 -0.2977
vn -0.4180 0.6703 -0.6131
vn -0.0023 1.0000 0.0019
vn -0.0011 -1.0000 0.0009
vn -0.4832 0.7824 0.3928
vn -0.0072 1.0000 0.0022
vn -0.0001 -1.0000 0.0002
vn 0.3168 0.7115 0.6272
vn -0.7905 0.2715 -0.5490
vn 0.9974 -0.0716 -0.0120
s off
f 1//1 2//1 3//1
f 2//2 4//2 3//2
f 5//3 6//3 7//3
f 8//4 7//4 6//4
f 5//5 9//5 6//5
f 6//6 9//6 4//6
f 7//7 2//7 5//7
f 4//8 1//8 3//8
f 6//9 4//9 8//9
f 1//10 5//10 2//10
f 2//11 8//11 4//11
f 5//12 1//12 9//12
f 2//13 7//13 8//13
f 4//8 9//8 1//8
