# Blender v2.77 (sub 0) OBJ File: ''
# www.blender.org
g Rock_Flat_l_05_Collider
v -1.085204 1.203907 -0.640949
v -1.209348 1.316503 0.000000
v -0.197827 1.600000 -0.762165
v 0.948992 1.600833 -0.678229
v 1.185902 1.600000 0.041372
v 0.745658 0.835838 -0.873105
v -0.207381 -0.000380 -0.769876
v -0.411802 0.774156 -0.880753
v 1.056830 -0.000500 0.518407
v 0.518618 -0.000000 0.882744
v -0.812866 0.270570 0.753392
v -1.037204 -0.006728 -0.591040
v -0.546160 -0.000000 0.834855
v -0.975988 1.153029 0.908651
v -1.258490 0.638335 -0.029374
v -0.973120 1.603163 0.798652
v 0.623369 0.961904 0.946824
v 0.905421 1.600473 0.658955
v 1.201910 0.797390 -0.577364
v 1.335397 0.843079 0.025639
v 0.872077 0.015860 -0.632906
v 1.115369 0.880807 0.662940
vn -0.4228 0.8751 -0.2356
vn -0.0008 1.0000 0.0014
vn 0.0139 -0.1381 -0.9903
vn -0.0006 -1.0000 0.0005
vn -0.7260 -0.6395 0.2530
vn -0.9643 0.0587 0.2582
vn -0.4022 0.8931 -0.2016
vn -0.1851 0.1115 0.9764
vn -0.3647 -0.0528 -0.9296
vn 0.0690 0.3845 0.9205
vn 0.9117 -0.3724 -0.1736
vn -0.0451 -0.1812 0.9824
vn 0.5467 0.0673 -0.8346
vn -0.2171 0.1936 -0.9567
vn 0.5127 0.1543 0.8446
vn -0.2054 -0.1916 -0.9597
vn 0.9334 0.1779 0.3117
vn 0.5568 -0.1154 0.8226
vn 0.9325 0.1906 -0.3068
vn 0.9089 -0.3886 -0.1514
vn 0.0709 0.2285 -0.9710
vn 0.1254 -0.2611 -0.9571
vn 0.0172 -0.9997 -0.0170
vn 0.0081 -1.0000 0.0019
vn 0.0013 1.0000 -0.0014
vn -0.8339 -0.4963 0.2415
vn -0.9477 -0.0506 -0.3153
vn -0.9631 0.0696 0.2599
vn -0.9759 0.0795 -0.2030
vn -0.0448 -0.0615 0.9971
vn 0.5269 -0.1631 -0.8341
vn -0.0000 -1.0000 0.0002
vn 0.9367 -0.1164 0.3303
vn 0.8796 0.2588 0.3993
vn -0.8881 -0.2338 0.3957
vn 0.4707 -0.1731 0.8652
vn 0.9367 0.2663 -0.2275
vn -0.0010 0.1424 -0.9898
vn 0.0052 0.2373 0.9714
vn 0.0004 1.0000 -0.0006
s off
f 1//1 2//1 3//1
f 4//2 3//2 5//2
f 6//3 7//3 8//3
f 7//4 9//4 10//4
f 11//5 12//5 13//5
f 14//6 2//6 15//6
f 16//7 3//7 2//7
f 13//8 17//8 11//8
f 8//9 12//9 1//9
f 18//10 16//10 17//10
f 19//11 20//11 21//11
f 11//12 17//12 14//12
f 6//13 4//13 19//13
f 1//14 3//14 8//14
f 22//15 18//15 17//15
f 12//16 8//16 7//16
f 5//17 22//17 20//17
f 9//18 17//18 10//18
f 20//19 4//19 5//19
f 9//20 21//20 20//20
f 6//21 3//21 4//21
f 6//22 21//22 7//22
f 21//23 9//23 7//23
f 12//24 7//24 13//24
f 18//25 3//25 16//25
f 11//26 15//26 12//26
f 15//27 1//27 12//27
f 14//28 16//28 2//28
f 15//29 2//29 1//29
f 13//30 10//30 17//30
f 6//31 19//31 21//31
f 7//32 10//32 13//32
f 9//33 20//33 22//33
f 5//34 18//34 22//34
f 11//35 14//35 15//35
f 9//36 22//36 17//36
f 20//37 19//37 4//37
f 6//38 8//38 3//38
f 14//39 17//39 16//39
f 18//40 5//40 3//40
