# Blender v2.77 (sub 0) OBJ File: 'LowPoly_Level_Kit_Rocks.blend'
# www.blender.org
g Rock_Flat_crk_s_01_Collider
v -0.210818 0.000000 0.252335
v -0.185880 0.090000 0.252335
v -0.300000 0.000000 -0.252741
v -0.300000 0.090000 -0.252741
v 0.253897 0.000000 0.252335
v 0.253897 0.090000 0.252335
v -0.306953 0.000000 -0.015199
v -0.303717 0.090000 -0.076722
v 0.185815 0.000000 -0.252741
v 0.253897 0.000000 -0.184659
v 0.253897 0.090000 -0.068584
v 0.001233 0.090000 -0.252741
vn -0.9106 0.2523 0.3272
vn 0.0000 0.0000 -1.0000
vn 0.0000 0.0000 1.0000
vn -0.9994 0.0159 -0.0293
vn 0.3756 0.7703 -0.5153
vn 1.0000 -0.0000 0.0000
vn 0.0000 1.0000 0.0000
vn 0.0000 -1.0000 0.0000
vn -0.9102 0.2555 0.3259
vn -0.9998 0.0000 -0.0211
vn 0.5225 0.6738 -0.5225
s off
f 2//1 7//1 1//1
f 12//2 3//2 4//2
f 2//3 5//3 6//3
f 8//4 3//4 7//4
f 11//5 9//5 12//5
f 11//6 5//6 10//6
f 2//7 11//7 8//7
f 8//7 12//7 4//7
f 9//8 10//8 7//8
f 2//9 8//9 7//9
f 12//2 9//2 3//2
f 2//3 1//3 5//3
f 8//10 4//10 3//10
f 11//11 10//11 9//11
f 11//6 6//6 5//6
f 2//7 6//7 11//7
f 8//7 11//7 12//7
f 1//8 7//8 10//8
f 3//8 9//8 7//8
f 10//8 5//8 1//8
