# Blender v2.77 (sub 0) OBJ File: ''
# www.blender.org
g Rock_Flat_l_02_Collider
v 0.410376 1.373119 -0.521750
v 0.839810 1.531986 0.459749
v 0.872133 1.207104 0.331336
v 1.256714 -0.000002 -0.742631
v 1.693475 0.078779 0.672207
v 1.361085 0.000458 1.176511
v 1.680119 0.663786 0.684690
v 0.150279 0.582101 1.349170
v 1.229321 0.461130 1.292229
v 0.113609 0.178471 1.352298
v -0.663242 -0.000002 1.192246
v -1.749719 0.289864 -0.837984
v -1.800619 -0.001770 -0.971833
v -1.961819 0.374320 0.464438
v 1.540607 0.821271 -0.403374
v 1.490642 0.170086 -0.785512
v 0.616096 0.990033 -1.002682
v -0.605824 0.969979 -0.974822
v 0.149181 0.514996 -1.657231
v -1.281341 0.401682 -1.566878
v 0.239810 -0.000002 -1.333562
v -1.661632 0.101508 0.964030
v -1.378395 0.811363 1.025783
v -1.034487 1.219920 -1.112833
v 0.481767 1.186896 -1.226761
v 1.924681 1.178410 -0.638629
v -0.878203 1.386387 -0.796751
v 0.905149 1.364939 -0.840978
v 0.165501 0.797840 1.717480
v 1.917569 1.122069 0.849789
v 0.096689 1.081711 1.549203
v 2.156688 0.909331 0.890708
v -1.403998 1.186333 1.160294
v -1.025687 1.337245 -0.409773
v -0.672340 1.186582 1.019844
v -0.303757 1.538995 0.986590
v -1.190283 1.629140 0.161323
v -0.202007 1.709173 -0.439713
v -1.690861 0.987687 1.248561
vn 0.8705 0.2534 -0.4219
vn 0.2130 -0.9770 -0.0113
vn 0.1229 0.9105 0.3949
vn 0.0058 -0.6816 0.7317
vn -0.9542 0.2452 -0.1713
vn 0.5498 0.3910 -0.7381
vn 0.5674 -0.8131 -0.1299
vn 0.0002 -1.0000 0.0002
vn -0.1008 0.7727 -0.6267
vn -0.1095 -0.7757 -0.6215
vn -0.2075 0.0264 0.9779
vn 0.3133 -0.6136 -0.7248
vn -0.7468 -0.6591 0.0888
vn -0.5112 0.8495 -0.1301
vn -0.5183 0.8438 -0.1391
vn -0.4317 -0.8706 -0.2358
vn -0.2039 0.0211 0.9788
vn 0.9920 0.0253 -0.1235
vn 0.0007 -1.0000 -0.0011
vn -0.1148 -0.9915 0.0611
vn 0.7892 0.0726 0.6098
vn -0.0112 -0.5335 -0.8457
vn 0.0530 0.0029 0.9986
vn 0.2914 -0.6252 -0.7240
vn -0.0027 -0.7521 -0.6591
vn 0.0005 0.9078 -0.4195
vn 0.2916 0.5391 0.7902
vn 0.6613 0.7494 0.0315
vn 0.5211 -0.8236 -0.2240
vn 0.2538 -0.8392 0.4811
vn 0.0355 0.9909 0.1294
vn -0.6333 0.7685 -0.0916
vn 0.2588 0.7372 -0.6242
vn -0.0302 -0.9948 -0.0974
vn 0.0092 -0.9806 -0.1958
vn -0.5140 0.5958 0.6172
vn -0.0798 0.0968 -0.9921
vn -0.0087 0.9930 0.1179
vn 0.3912 -0.3044 0.8685
vn -0.7499 -0.6512 0.1167
vn 0.0626 0.9905 0.1226
vn -0.3704 0.7795 -0.5052
vn -0.7624 0.2524 0.5959
vn 0.0005 -1.0000 0.0005
vn -0.0265 0.8179 -0.5747
vn 0.4573 -0.4141 -0.7870
vn 0.5681 0.4182 -0.7088
vn -0.8102 0.3553 -0.4661
vn -0.5182 0.8302 -0.2056
vn -0.2225 0.0039 0.9749
vn 0.9905 0.0047 -0.1375
vn 0.8344 0.0073 0.5511
vn 0.1064 -0.2135 0.9711
vn -0.6020 -0.7609 -0.2422
vn -0.0737 -0.5760 -0.8141
vn -0.2180 -0.8906 0.3991
vn -0.0152 0.8878 -0.4600
vn 0.3077 0.5014 0.8087
vn -0.1703 0.4716 0.8652
vn 0.6039 -0.7742 -0.1895
vn -0.2122 -0.8394 0.5004
vn 0.2398 -0.8536 0.4625
vn 0.2803 -0.7198 -0.6351
vn 0.0266 0.9916 0.1265
vn 0.0146 0.9943 0.1056
vn -0.1641 0.5887 0.7915
vn -0.5845 0.8071 -0.0831
vn 0.1725 0.9843 0.0381
vn 0.3933 -0.3303 0.8580
vn 0.4220 0.8476 -0.3218
s off
f 1//1 2//1 3//1
f 4//2 5//2 6//2
f 7//3 8//3 9//3
f 6//4 10//4 11//4
f 12//5 13//5 14//5
f 15//6 16//6 17//6
f 4//7 16//7 5//7
f 11//8 4//8 6//8
f 18//9 19//9 20//9
f 20//10 21//10 13//10
f 11//11 10//11 8//11
f 4//12 19//12 16//12
f 22//13 14//13 13//13
f 14//14 23//14 18//14
f 12//15 14//15 18//15
f 18//16 23//16 24//16
f 23//17 11//17 8//17
f 5//18 15//18 7//18
f 21//19 4//19 13//19
f 11//20 22//20 13//20
f 6//21 7//21 9//21
f 21//22 20//22 19//22
f 10//23 9//23 8//23
f 17//24 25//24 26//24
f 18//25 25//25 17//25
f 25//26 27//26 28//26
f 29//27 30//27 31//27
f 26//28 30//28 32//28
f 7//29 26//29 32//29
f 7//30 29//30 8//30
f 28//31 33//31 31//31
f 24//32 33//32 27//32
f 25//33 28//33 26//33
f 34//34 3//34 35//34
f 3//35 34//35 1//35
f 36//36 37//36 35//36
f 38//37 1//37 34//37
f 36//38 38//38 37//38
f 2//39 35//39 3//39
f 35//40 37//40 34//40
f 36//41 2//41 38//41
f 34//42 37//42 38//42
f 22//43 23//43 14//43
f 11//44 13//44 4//44
f 18//45 17//45 19//45
f 4//46 21//46 19//46
f 16//47 19//47 17//47
f 20//48 13//48 12//48
f 18//49 20//49 12//49
f 23//50 22//50 11//50
f 5//51 16//51 15//51
f 6//52 5//52 7//52
f 10//53 6//53 9//53
f 23//54 39//54 24//54
f 18//55 24//55 25//55
f 8//56 39//56 23//56
f 25//57 24//57 27//57
f 29//58 32//58 30//58
f 39//59 29//59 31//59
f 7//60 15//60 26//60
f 8//61 29//61 39//61
f 7//62 32//62 29//62
f 15//63 17//63 26//63
f 30//64 28//64 31//64
f 28//65 27//65 33//65
f 39//66 31//66 33//66
f 24//67 39//67 33//67
f 26//68 28//68 30//68
f 35//69 2//69 36//69
f 1//70 38//70 2//70
