# Blender v2.77 (sub 0) OBJ File: ''
# www.blender.org
g Rock_Flat_s_04_Collider
v 0.162081 0.000183 0.428617
v 0.358337 0.000000 -0.311689
v 0.443188 0.000000 0.000000
v 0.366490 0.114736 0.187450
v 0.234004 0.114589 -0.388087
v 0.006619 0.114307 0.400258
v -0.043064 0.000271 -0.434267
v -0.357780 0.000298 0.191213
v -0.252910 0.114307 0.243968
v -0.221729 0.114590 -0.171613
vn -0.0005 -1.0000 0.0001
vn -0.0012 1.0000 0.0000
vn -0.0002 -1.0000 -0.0001
vn 0.7923 -0.3195 0.5198
vn -0.3934 -0.3218 0.8612
vn 0.7273 0.6571 -0.1980
vn 0.0003 1.0000 0.0007
vn -0.8396 -0.3416 -0.4224
vn 0.2779 -0.3056 -0.9107
vn 0.3766 0.6715 0.6381
vn -0.2488 0.8147 -0.5238
vn -0.0007 -1.0000 0.0001
vn -0.5143 0.0779 0.8541
vn 0.6828 0.7135 -0.1574
vn -0.0002 1.0000 0.0003
vn -0.7224 0.6894 -0.0537
s off
f 1//1 2//1 3//1
f 4//2 5//2 6//2
f 7//3 1//3 8//3
f 3//4 4//4 1//4
f 6//5 8//5 1//5
f 5//6 3//6 2//6
f 9//7 5//7 10//7
f 8//8 10//8 7//8
f 5//9 2//9 7//9
f 1//10 4//10 6//10
f 7//11 10//11 5//11
f 7//12 2//12 1//12
f 6//13 9//13 8//13
f 5//14 4//14 3//14
f 9//15 6//15 5//15
f 9//16 10//16 8//16
