# Blender v2.77 (sub 0) OBJ File: ''
# www.blender.org
g Rock_Flat_s_09_Collider
v -0.511337 -0.000000 0.195230
v -0.261497 0.000000 -0.282743
v -0.018138 -0.000249 0.273137
v -0.264465 0.115896 -0.256866
v -0.263990 0.115689 0.240927
v 0.257487 0.114791 -0.208622
v -0.664228 0.034533 -0.006405
v 0.285727 0.000000 -0.248190
v 0.506416 0.001693 0.019132
v 0.127861 0.114995 0.203251
vn -0.0005 -1.0000 -0.0002
vn 0.0021 1.0000 0.0004
vn -0.1991 0.9800 0.0006
vn -0.5478 0.1689 -0.8194
vn -0.4439 0.7644 0.4675
vn -0.0004 -1.0000 0.0067
vn 0.0593 0.3383 -0.9392
vn 0.3312 0.9378 0.1038
vn 0.0029 -1.0000 -0.0017
vn 0.0018 1.0000 0.0001
vn -0.1322 -0.9888 -0.0691
vn 0.0870 0.4337 0.8969
vn -0.1558 -0.0564 0.9862
vn 0.0903 0.2192 -0.9715
vn 0.4358 -0.0064 0.9000
vn 0.7125 0.3789 -0.5906
s off
f 1//1 2//1 3//1
f 4//2 5//2 6//2
f 4//3 7//3 5//3
f 7//4 4//4 2//4
f 1//5 5//5 7//5
f 2//6 8//6 9//6
f 2//7 6//7 8//7
f 6//8 10//8 9//8
f 2//9 9//9 3//9
f 6//10 5//10 10//10
f 1//11 7//11 2//11
f 10//12 5//12 3//12
f 1//13 3//13 5//13
f 2//14 4//14 6//14
f 10//15 3//15 9//15
f 6//16 9//16 8//16
