# Blender v2.77 (sub 0) OBJ File: ''
# www.blender.org
g Rock_Flat_m_05_Collider
v -0.400170 0.097339 -0.288793
v -0.254819 0.243083 -0.483175
v -0.312866 0.000367 -0.478389
v -0.400170 0.238597 0.020105
v -0.400327 0.046494 0.591502
v -0.325422 0.241418 0.589842
v 0.397808 0.268185 -0.587862
v 0.394746 0.268032 0.585375
v 0.400170 -0.000126 0.211632
v -0.334176 -0.000126 0.484488
v 0.381578 0.103443 0.585292
v 0.395619 0.012822 -0.575215
vn -0.8498 0.1936 -0.4903
vn -0.9264 0.3570 0.1198
vn -1.0000 0.0003 -0.0002
vn -0.1591 0.0186 -0.9871
vn 0.9999 0.0166 0.0026
vn -0.8265 0.5120 -0.2341
vn -0.7595 -0.6503 -0.0171
vn -0.0369 0.9993 -0.0001
vn 0.0060 0.0062 1.0000
vn 0.0689 -0.8983 0.4339
vn -0.0388 0.9992 -0.0023
vn -0.1344 -0.0479 -0.9898
vn 0.9943 -0.0796 0.0715
vn 0.9999 -0.0089 -0.0059
vn 0.0153 -0.9997 -0.0165
vn -0.6233 -0.7807 -0.0452
vn 0.0080 -0.0011 1.0000
vn 0.1005 -0.9575 0.2704
vn -0.0370 0.9993 0.0000
vn -0.0002 -1.0000 -0.0005
s off
f 1//1 2//1 3//1
f 4//2 5//2 6//2
f 1//3 5//3 4//3
f 7//4 3//4 2//4
f 8//5 9//5 7//5
f 2//6 1//6 4//6
f 10//7 1//7 3//7
f 4//8 6//8 8//8
f 5//9 8//9 6//9
f 10//10 11//10 5//10
f 4//11 7//11 2//11
f 12//12 3//12 7//12
f 8//13 11//13 9//13
f 9//14 12//14 7//14
f 9//15 3//15 12//15
f 10//16 5//16 1//16
f 5//17 11//17 8//17
f 10//18 9//18 11//18
f 4//19 8//19 7//19
f 9//20 10//20 3//20
