# Blender v2.77 (sub 0) OBJ File: ''
# www.blender.org
g Rock_Flat_m_02_Collider
v -0.040262 -0.000770 -0.690435
v 0.620067 0.033100 0.199358
v 0.587542 -0.000067 0.448421
v 0.534919 0.163066 0.609518
v -0.044992 -0.000001 0.660324
v -0.656421 0.115785 -0.157214
v -0.174358 0.211285 -0.846608
v -0.587632 0.126530 -0.665100
v -0.392677 0.044464 0.628801
v -0.336021 0.302870 0.630675
v 0.425412 0.342689 -0.335453
v 0.363163 0.083736 -0.511710
v -0.001809 0.373710 -0.626978
v 0.613232 0.282754 0.188092
v -0.691060 -0.000797 -0.340100
v -0.334347 0.362351 -0.022668
v -0.375012 0.370182 -0.537683
vn 0.1915 -0.9759 -0.1049
vn 0.2439 -0.6405 0.7282
vn -0.2038 0.9790 -0.0069
vn -0.9233 0.2001 0.3280
vn 0.5398 0.3811 -0.7506
vn 0.2720 -0.9479 -0.1658
vn 0.1584 0.9417 0.2969
vn 0.0001 -1.0000 0.0006
vn -0.2242 -0.8811 -0.4165
vn 0.0468 0.1417 0.9888
vn 0.4394 -0.3357 -0.8332
vn -0.9362 -0.1879 0.2971
vn -0.6245 0.7780 0.0692
vn -0.8913 0.4396 -0.1114
vn -0.8220 0.0626 -0.5661
vn -0.6227 0.7801 0.0610
vn 0.0632 0.9938 0.0911
vn 0.0434 0.9981 0.0426
vn 0.9416 0.0106 -0.3366
vn -0.1342 -0.9871 0.0874
vn 0.9719 0.1056 0.2106
vn 0.0003 -1.0000 0.0006
vn -0.1324 0.8438 -0.5200
vn -0.1865 -0.6563 -0.7311
vn -0.0057 0.9999 0.0157
vn 0.5509 0.4029 -0.7308
vn -0.0887 0.0122 0.9960
vn 0.9406 0.0050 -0.3395
vn 0.9905 0.0332 0.1338
vn 0.0633 0.9939 0.0906
s off
f 1//1 2//1 3//1
f 3//2 4//2 5//2
f 6//3 7//3 8//3
f 9//4 10//4 6//4
f 11//5 12//5 13//5
f 1//6 12//6 2//6
f 14//7 10//7 4//7
f 5//8 1//8 3//8
f 8//9 1//9 15//9
f 5//10 4//10 10//10
f 12//11 1//11 7//11
f 9//12 6//12 15//12
f 6//13 10//13 16//13
f 15//14 6//14 8//14
f 7//15 6//15 17//15
f 17//16 6//16 16//16
f 14//17 11//17 16//17
f 13//18 16//18 11//18
f 2//19 11//19 14//19
f 5//20 9//20 15//20
f 3//21 14//21 4//21
f 5//22 15//22 1//22
f 17//23 13//23 7//23
f 8//24 7//24 1//24
f 13//25 17//25 16//25
f 12//26 7//26 13//26
f 10//27 9//27 5//27
f 2//28 12//28 11//28
f 3//29 2//29 14//29
f 10//30 14//30 16//30
