# Blender v2.77 (sub 0) OBJ File: ''
# www.blender.org
g Rocks_Flat_m_01_Collider
v 1.194449 0.171653 0.104936
v 1.310887 0.027718 0.087272
v 0.881864 0.027693 -0.451141
v 0.852761 0.141479 -0.237857
v 0.682145 0.029961 0.466579
v 0.589098 0.203483 -0.230928
v 0.597896 0.469736 0.038847
v 0.357431 0.236826 0.184208
v -0.182507 0.423230 0.298697
v -0.258095 0.556728 0.119323
v 0.080994 0.239814 -0.431777
v -0.305823 0.556901 -0.363221
v 0.459331 0.482008 -0.484885
v -0.557896 0.422492 -0.119294
v -0.241967 0.280386 0.175656
v 0.576417 -0.000055 -0.530945
v 0.734945 0.133133 -0.446335
v 0.666373 -0.000433 0.328228
v 0.468875 0.113616 0.666687
v -0.477740 -0.000621 0.659351
v -0.412622 0.099435 0.638013
v -0.271952 0.279783 -0.505977
v -0.467460 0.068364 -0.473430
v -0.655021 0.305110 -0.113550
v 0.309311 0.230851 -0.605703
v 0.596679 0.247273 0.466992
v 0.032467 0.000430 -0.562968
v -0.551028 0.324135 0.262682
v -0.922852 0.177514 0.029656
v -0.865239 0.156493 0.470238
v -0.746974 -0.000001 -0.017145
vn 0.6379 0.5785 -0.5084
vn 0.3340 0.8498 -0.4078
vn -0.9663 0.1477 -0.2107
vn -0.1939 0.9751 0.1074
vn 0.7460 -0.4860 0.4553
vn 0.1356 0.8213 0.5541
vn -0.1546 0.0249 -0.9877
vn -0.6722 0.4295 0.6030
vn -0.7187 -0.2572 0.6459
vn -0.0573 -0.6378 0.7681
vn -0.4369 0.8984 0.0435
vn -0.4929 -0.4389 -0.7512
vn 0.1002 0.9949 -0.0096
vn 0.9450 0.2169 -0.2449
vn 0.6633 -0.7451 -0.0698
vn 0.1083 -0.9212 0.3736
vn -0.0353 0.2304 0.9725
vn -0.6155 0.4720 -0.6312
vn 0.2522 0.9642 -0.0823
vn -0.0006 -1.0000 -0.0005
vn -0.0004 -1.0000 -0.0007
vn -0.0009 -1.0000 -0.0003
vn -0.4175 0.9034 0.0977
vn -0.4422 -0.8797 0.1752
vn 0.8556 -0.0480 0.5154
vn 0.9712 0.2053 0.1214
vn -0.6785 -0.5413 -0.4967
vn -0.0394 0.8419 0.5382
vn -0.0307 0.8526 0.5217
vn 0.0789 0.9965 -0.0288
vn 0.0111 0.9985 -0.0536
vn -0.1676 0.0185 -0.9857
vn -0.0001 -1.0000 -0.0009
vn 0.3747 0.1366 -0.9170
vn -0.7015 -0.7103 0.0578
vn 0.4937 0.2992 0.8166
vn -0.0024 -1.0000 0.0020
vn 0.2891 0.2740 0.9173
vn -0.3219 -0.9405 -0.1083
vn 0.0970 0.9953 -0.0024
vn 0.2632 -0.5802 -0.7708
vn -0.4008 0.9139 0.0646
vn -0.1741 -0.9526 -0.2494
vn -0.5816 0.5066 -0.6364
vn -0.2811 0.3716 0.8848
vn -0.0931 0.8388 0.5365
vn -0.1749 0.0102 -0.9845
vn 0.0567 -0.2475 -0.9672
vn 0.0729 0.9967 -0.0348
s 1
f 1//1 2//1 3//1
f 3//2 4//2 1//2
f 5//3 4//3 3//3
f 4//4 5//4 1//4
f 6//5 7//5 8//5
f 9//6 7//6 10//6
f 11//7 12//7 13//7
f 9//8 10//8 14//8
f 15//9 9//9 14//9
f 8//10 9//10 15//10
f 14//11 10//11 12//11
f 14//12 12//12 11//12
f 7//13 12//13 10//13
f 6//14 13//14 7//14
f 16//15 17//15 18//15
f 18//16 19//16 20//16
f 21//17 20//17 19//17
f 22//18 23//18 24//18
f 25//19 26//19 17//19
f 18//20 27//21 16//22
f 28//23 29//23 30//23
f 30//24 31//24 20//24
f 19//25 18//25 26//25
f 18//26 17//26 26//26
f 23//27 31//27 29//27
f 19//28 26//28 28//28
f 21//29 19//29 28//29
f 25//30 22//30 28//30
f 24//31 28//31 22//31
f 27//32 22//32 25//32
f 31//33 27//21 20//33
f 16//34 25//34 17//34
f 31//35 30//35 29//35
f 1//36 5//36 2//36
f 5//37 3//37 2//37
f 9//38 8//38 7//38
f 11//39 15//39 14//39
f 7//40 13//40 12//40
f 13//41 6//41 11//41
f 18//20 20//33 27//21
f 28//42 24//42 29//42
f 23//43 27//43 31//43
f 23//44 29//44 24//44
f 20//45 21//45 30//45
f 28//46 30//46 21//46
f 27//47 23//47 22//47
f 16//48 27//48 25//48
f 26//49 25//49 28//49
