# Blender v2.77 (sub 0) OBJ File: ''
# www.blender.org
g Rock_Flat_s_08_Collider
v -0.368881 0.134958 -0.035892
v -0.386630 0.000000 -0.252000
v -0.352992 -0.000392 0.082987
v 0.346910 0.088655 -0.011395
v 0.115225 0.000000 -0.252000
v -0.009767 0.114355 -0.252000
v -0.295179 0.121559 -0.250571
v 0.436819 0.001521 0.178761
v 0.264040 0.097782 0.237570
vn -0.9946 -0.0291 0.0998
vn 0.4963 0.5425 -0.6778
vn 0.0000 0.0118 -0.9999
vn 0.7244 -0.4295 -0.5393
vn 0.0000 -1.0000 -0.0012
vn -0.0051 -0.0056 -1.0000
vn 0.0249 0.9982 -0.0537
vn 0.5181 0.8435 0.1415
vn 0.0581 0.9983 0.0013
vn -0.2823 0.6141 0.7370
vn -0.7613 0.5762 -0.2973
vn -0.0916 -0.6337 0.7681
vn 0.0022 -1.0000 0.0019
vn 0.0788 0.9968 -0.0103
s off
f 1//1 2//1 3//1
f 4//2 5//2 6//2
f 5//3 2//3 7//3
f 4//4 8//4 5//4
f 2//5 5//5 3//5
f 6//6 5//6 7//6
f 7//7 1//7 6//7
f 8//8 4//8 9//8
f 9//9 6//9 1//9
f 1//10 3//10 9//10
f 1//11 7//11 2//11
f 9//12 3//12 8//12
f 5//13 8//13 3//13
f 9//14 4//14 6//14
