# Blender v2.77 (sub 0) OBJ File: ''
# www.blender.org
g Rock_Flat_l_01_Collider
v -0.713524 -0.000001 -0.623792
v 0.511643 0.042896 -0.969470
v 0.914947 -0.000086 -0.842770
v 1.166579 0.211323 -0.708469
v 1.017326 -0.000340 0.567855
v 0.860168 0.109884 0.938959
v -0.765665 -0.001033 1.046005
v 0.949376 0.415726 0.717534
v -0.315289 0.156577 1.041944
v -0.742001 0.108516 -0.751475
v 0.543288 0.358217 -0.965617
v 1.145228 0.347938 -0.044764
v -0.995026 0.482274 0.460952
v -1.464843 0.281768 0.047072
v -1.318892 0.218665 0.815636
v -1.185673 -0.000001 -0.027214
v 1.298526 0.524214 -0.046465
v -1.099702 0.482202 -0.122166
v -0.419115 0.453483 -0.805972
v 1.035823 0.685149 0.854407
v -1.194476 0.779948 -0.125022
v -0.052376 0.773456 0.604841
v -1.053232 0.774847 0.490642
v 0.611712 0.660105 -1.055612
v 1.171193 0.654562 -0.054485
v -0.526674 0.762285 -0.817483
vn -0.0311 -0.9725 -0.2309
vn 0.6574 -0.7520 -0.0478
vn 0.0853 -0.9447 0.3167
vn 0.0942 0.5656 0.8193
vn -0.1483 -0.7696 -0.6210
vn 0.2965 0.9372 -0.1834
vn -0.0001 -1.0000 -0.0002
vn -0.5070 0.8459 0.1657
vn -0.4225 -0.8913 0.1645
vn 0.9220 0.0113 0.3871
vn 0.9721 -0.2217 0.0769
vn -0.6785 -0.5413 -0.4967
vn 0.0778 -0.1971 0.9773
vn 0.6730 -0.5896 -0.4465
vn -0.6137 0.4748 -0.6308
vn -0.0400 0.8509 0.5238
vn 0.9676 0.0709 0.2423
vn -0.1609 0.0282 -0.9866
vn -0.0008 -1.0000 -0.0006
vn 0.3999 0.1026 -0.9108
vn -0.6986 -0.7117 0.0742
vn 0.8412 -0.4339 0.3228
vn -0.6949 -0.2277 -0.6821
vn -0.1127 -0.1225 0.9861
vn -0.2360 -0.3789 0.8949
vn 0.6749 0.6363 -0.3736
vn -0.1821 -0.2428 -0.9528
vn -0.9397 -0.2975 0.1687
vn 0.0136 0.9998 -0.0124
vn 0.0820 0.9960 -0.0352
vn 0.0856 0.9961 -0.0208
vn 0.0002 -1.0000 -0.0006
vn -0.4506 0.8891 0.0808
vn -0.5725 -0.6833 -0.4531
vn -0.5767 0.5154 -0.6339
vn -0.1631 0.4882 0.8573
vn -0.0729 0.8312 0.5512
vn -0.1711 0.0045 -0.9852
vn 0.2979 -0.0182 -0.9544
vn 0.7328 -0.6349 0.2447
vn -0.1326 -0.0596 0.9894
vn 0.7561 -0.3384 -0.5602
vn -0.6970 -0.2676 -0.6653
vn -0.2130 -0.1104 -0.9708
vn -0.9530 -0.2116 0.2169
vn 0.0005 1.0000 0.0082
vn 0.0767 0.9964 -0.0373
vn 0.7104 0.6990 0.0823
s off
f 1//1 2//1 3//1
f 3//2 4//2 5//2
f 5//3 6//3 7//3
f 6//4 8//4 9//4
f 1//5 10//5 2//5
f 11//6 12//6 4//6
f 5//7 1//7 3//7
f 13//8 14//8 15//8
f 15//9 16//9 7//9
f 6//10 5//10 8//10
f 5//11 4//11 12//11
f 10//12 16//12 14//12
f 6//13 9//13 7//13
f 12//14 11//14 17//14
f 10//15 18//15 19//15
f 13//16 9//16 8//16
f 8//17 5//17 12//17
f 2//18 19//18 11//18
f 16//19 1//19 7//19
f 3//20 11//20 4//20
f 16//21 15//21 14//21
f 8//22 17//22 20//22
f 18//23 21//23 19//23
f 13//24 22//24 23//24
f 20//25 22//25 8//25
f 24//26 25//26 17//26
f 19//27 24//27 11//27
f 13//28 21//28 18//28
f 21//29 22//29 26//29
f 24//30 26//30 22//30
f 25//31 22//31 20//31
f 5//32 7//32 1//32
f 13//33 18//33 14//33
f 10//34 1//34 16//34
f 10//35 14//35 18//35
f 7//36 9//36 15//36
f 13//37 15//37 9//37
f 2//38 10//38 19//38
f 3//39 2//39 11//39
f 8//40 12//40 17//40
f 13//41 8//41 22//41
f 17//42 11//42 24//42
f 19//43 21//43 26//43
f 19//44 26//44 24//44
f 13//45 23//45 21//45
f 21//46 23//46 22//46
f 25//47 24//47 22//47
f 17//48 25//48 20//48
