# Blender v2.77 (sub 0) OBJ File: 'LowPoly_Level_Kit_Rocks.blend'
# www.blender.org
g Rock_Round_l_03_Collider
v -0.096924 -0.000000 0.691847
v -0.830798 0.663474 0.732955
v -0.862946 -0.000000 0.773913
v -0.829838 0.653998 -0.583502
v -0.599767 1.202201 -0.001084
v -0.560610 1.238009 -0.325932
v 0.816369 0.840268 0.628682
v 1.113617 0.364119 0.980265
v 0.408500 1.254925 -0.193357
v 0.313584 1.354007 0.418402
v 0.554548 1.383239 0.181665
v 0.186963 1.804230 -0.159483
v -0.043306 1.316272 0.474280
v 1.126460 -0.000000 0.233628
v 0.367626 0.863027 0.610751
v -1.241042 0.017067 0.176008
v -0.010128 0.092680 -0.870368
v -0.876738 0.021866 -0.655571
v 0.685550 0.410508 1.213386
v 1.163584 -0.000000 0.990728
v -0.470401 1.268399 0.478397
v -0.025255 0.538920 -0.894227
v 0.718460 0.624958 -0.311886
v -1.184456 0.577760 0.130640
v 0.908058 0.832413 0.300624
v -0.438086 1.853835 -0.166272
v -0.122740 1.636940 -0.502853
v 0.688853 0.000000 -0.336456
v -0.203152 2.003654 0.265749
v 0.632566 0.003480 1.273494
vn 0.1064 0.0561 0.9927
vn -0.8963 0.4395 -0.0596
vn 0.8895 0.4166 -0.1879
vn -0.3079 0.9305 -0.1985
vn 0.8042 0.2924 0.5174
vn -0.8419 0.0738 0.5345
vn -0.2484 0.1279 -0.9602
vn 0.4839 0.0914 0.8703
vn -0.0211 0.2707 0.9624
vn 0.0943 0.0427 0.9946
vn -0.2536 0.4858 -0.8365
vn -0.7277 0.6191 -0.2953
vn -0.9144 0.0599 -0.4003
vn 0.9396 0.2258 0.2572
vn -0.1310 0.9752 -0.1783
vn -0.9344 0.2858 0.2127
vn 0.4614 0.4600 0.7586
vn 0.0742 0.8685 -0.4901
vn 0.6072 0.0025 -0.7945
vn 0.0510 0.9987 -0.0096
vn -0.8218 0.5509 0.1457
vn -0.0228 0.2854 0.9581
vn -0.8034 0.1880 0.5650
vn 0.6347 0.3088 -0.7083
vn 0.6179 -0.0211 -0.7860
vn 0.7927 0.4117 -0.4496
vn 0.7896 0.4640 -0.4016
vn 0.7932 -0.0136 -0.6089
vn 0.1049 0.3728 0.9220
vn -0.8632 0.1267 0.4888
vn -0.3673 -0.0621 -0.9280
vn 0.4692 0.0689 0.8804
vn 0.0329 0.3710 0.9281
vn -0.5429 0.2388 -0.8052
vn 0.9897 0.1344 -0.0485
vn 0.4013 0.6929 0.5991
vn 0.0170 0.8038 0.5946
vn -0.8945 0.1156 -0.4318
vn 0.7668 0.3429 0.5426
vn 0.6317 0.2989 -0.7153
vn -0.5855 0.3106 -0.7488
vn -0.8549 0.4046 0.3246
vn 0.6375 0.3409 0.6910
vn 0.0776 0.9281 -0.3641
vn -0.9716 0.2175 -0.0931
vn -0.6661 0.6856 0.2936
vn -0.5780 0.3790 0.7227
vn 0.5349 0.4029 -0.7427
vn 0.8927 0.2636 -0.3656
s off
f 1//1 2//1 3//1
f 4//2 5//2 6//2
f 14//3 7//3 8//3
f 9//4 10//4 11//4
f 12//5 13//5 9//5
f 16//6 3//6 2//6
f 4//7 17//7 18//7
f 19//8 20//8 8//8
f 21//9 15//9 13//9
f 15//10 2//10 1//10
f 6//11 22//11 4//11
f 4//12 24//12 5//12
f 24//13 18//13 16//13
f 14//14 25//14 7//14
f 9//15 13//15 10//15
f 21//16 26//16 5//16
f 11//17 15//17 25//17
f 26//18 12//18 27//18
f 28//19 17//19 23//19
f 7//20 25//20 15//20
f 5//21 2//21 21//21
f 13//22 29//22 21//22
f 15//23 30//23 19//23
f 9//24 22//24 27//24
f 22//25 23//25 17//25
f 11//26 25//26 9//26
f 25//27 23//27 9//27
f 14//28 28//28 23//28
f 10//29 13//29 15//29
f 2//30 24//30 16//30
f 4//31 22//31 17//31
f 19//32 30//32 20//32
f 21//33 2//33 15//33
f 6//34 27//34 22//34
f 8//35 20//35 14//35
f 7//36 19//36 8//36
f 7//37 15//37 19//37
f 24//38 4//38 18//38
f 29//39 13//39 12//39
f 12//40 9//40 27//40
f 6//41 26//41 27//41
f 21//42 29//42 26//42
f 11//43 10//43 15//43
f 26//44 29//44 12//44
f 26//45 6//45 5//45
f 5//46 24//46 2//46
f 15//47 1//47 30//47
f 22//48 9//48 23//48
f 25//49 14//49 23//49
