# Blender v2.77 (sub 0) OBJ File: ''
# www.blender.org
g Rocks_Round_m_02_Collider
v 0.351302 0.043634 0.448349
v -0.404940 0.004855 0.122641
v 0.327508 -0.001529 0.186425
v -0.587443 0.386459 -0.287328
v -0.590959 0.346033 0.049675
v -0.397189 0.468192 -0.152882
v 0.929897 0.209035 -0.402261
v 0.807323 0.400091 -0.254661
v 0.902168 -0.000864 -0.224130
v -0.217066 0.068474 -0.587197
v 0.527030 0.185260 -0.622750
v 0.395961 -0.001131 -0.510977
v -0.565531 0.000011 -0.407271
v 0.138693 0.352920 -0.587085
v 0.712528 0.104349 0.210151
v -0.865719 0.096481 0.018382
v -0.310496 0.293241 0.247431
v 0.322531 0.465014 -0.381206
v 0.208417 0.434481 0.248528
v -0.890648 0.204483 -0.115931
v 0.655355 0.345612 0.185567
v 0.300063 0.186031 0.463768
v -0.440989 0.105769 0.882120
v -0.442262 0.258355 0.425904
v -0.698199 0.079211 0.628998
v -0.190423 0.121092 0.219884
v -0.172328 0.271523 0.712747
v 0.049940 0.084718 0.436049
v 0.029668 -0.000008 0.704158
v -0.502116 0.124182 0.261021
v -0.672098 -0.017982 0.268821
vn -0.0236 -0.9848 0.1720
vn -0.4524 0.8860 0.1016
vn 0.8763 0.2391 0.4182
vn 0.0439 -0.5363 -0.8429
vn -0.0480 -0.8991 -0.4351
vn -0.3309 0.4142 -0.8479
vn 0.0008 -1.0000 -0.0005
vn 0.3725 -0.6557 -0.6567
vn 0.3879 -0.8426 0.3735
vn -0.2103 -0.9749 0.0726
vn -0.4692 0.4191 0.7773
vn 0.1147 0.9910 0.0688
vn -0.5867 0.5744 0.5708
vn -0.1272 0.8985 0.4202
vn -0.0593 0.0745 -0.9955
vn 0.9082 0.2495 0.3361
vn -0.1191 0.9128 -0.3906
vn 0.5142 0.2067 0.8324
vn -0.5745 0.2127 -0.7904
vn -0.0013 -1.0000 -0.0007
vn 0.2334 0.6845 0.6907
vn -0.3700 -0.2642 0.8906
vn 0.3117 0.6980 -0.6447
vn 0.2585 0.7326 -0.6297
vn 0.0210 0.9984 0.0522
vn 0.5779 0.1205 0.8072
vn -0.3802 0.8768 0.2943
vn 0.3866 0.8780 -0.2822
vn 0.2638 0.9198 -0.2904
vn 0.7824 0.5744 0.2407
vn -0.6286 0.7382 -0.2448
vn -0.4697 0.8771 0.1003
vn -0.4820 0.2347 -0.8442
vn 0.1145 -0.9807 0.1587
vn 0.2175 0.9567 0.1935
vn 0.4037 -0.6224 -0.6705
vn -0.2677 -0.3074 0.9131
vn -0.2377 0.8701 0.4317
vn 0.9078 0.2409 0.3432
vn -0.1189 0.9142 -0.3875
vn -0.7060 -0.6102 -0.3596
vn -0.0098 -0.9999 0.0121
vn -0.1675 0.6095 0.7749
vn -0.3605 -0.2277 0.9046
vn 0.2620 0.7333 -0.6275
vn -0.3587 0.8849 0.2970
vn -0.0732 0.7864 -0.6134
vn -0.1292 0.1004 -0.9865
vn 0.3925 0.2641 0.8810
vn -0.6919 0.6622 -0.2877
s off
f 1//1 2//1 3//1
f 4//2 5//2 6//2
f 7//3 8//3 9//3
f 10//4 11//4 12//4
f 12//5 13//5 10//5
f 10//6 4//6 14//6
f 9//7 3//7 12//7
f 11//8 9//8 12//8
f 9//9 15//9 1//9
f 16//10 13//10 2//10
f 5//11 16//11 17//11
f 18//12 19//12 8//12
f 16//13 5//13 20//13
f 17//14 6//14 5//14
f 14//15 11//15 10//15
f 15//16 9//16 21//16
f 4//17 18//17 14//17
f 1//18 15//18 21//18
f 4//19 13//19 20//19
f 3//20 13//20 12//20
f 19//21 22//21 21//21
f 1//22 17//22 2//22
f 11//23 8//23 7//23
f 14//24 18//24 11//24
f 19//25 18//25 6//25
f 22//26 1//26 21//26
f 23//27 24//27 25//27
f 26//28 27//28 28//28
f 24//29 27//29 26//29
f 29//30 28//30 27//30
f 25//31 30//31 31//31
f 4//32 20//32 5//32
f 10//33 13//33 4//33
f 3//34 9//34 1//34
f 8//35 19//35 21//35
f 11//36 7//36 9//36
f 16//37 2//37 17//37
f 17//38 19//38 6//38
f 8//39 21//39 9//39
f 4//40 6//40 18//40
f 20//41 13//41 16//41
f 3//42 2//42 13//42
f 19//43 17//43 22//43
f 1//44 22//44 17//44
f 11//45 18//45 8//45
f 23//46 27//46 24//46
f 26//47 30//47 24//47
f 26//48 31//48 30//48
f 23//49 29//49 27//49
f 25//50 24//50 30//50
