# Blender v2.77 (sub 0) OBJ File: 'LowPoly_Level_Kit_Rocks.blend'
# www.blender.org
g Rock_Round_crk_m_03_Collider
v 0.273541 0.046664 0.375783
v -0.256569 0.003742 0.290415
v 0.728810 -0.019470 0.104962
v 0.795856 0.222787 -0.111321
v 0.674741 0.444306 0.003183
v 0.420061 0.194073 0.459399
v 0.511448 0.390778 0.309833
v 0.289386 -0.005493 -0.367342
v -0.502950 -0.000732 -0.281041
v -0.275614 0.065620 -0.480604
v 0.035255 0.526633 0.162571
v 0.329601 0.539158 -0.203342
v -0.515524 0.474119 -0.102783
v -0.019319 0.407021 -0.501189
v -0.855444 0.192341 0.158351
v -0.507727 0.403271 0.241160
v -0.291328 0.305243 0.415311
v 0.463329 0.209843 -0.410412
vn 0.0314 -0.9575 0.2866
vn 0.5570 -0.6336 -0.5370
vn 0.8448 0.2068 0.4935
vn 0.1668 0.9717 0.1675
vn 0.7805 0.1059 0.6161
vn -0.0636 0.6226 0.7800
vn -0.1178 -0.3916 0.9126
vn 0.5224 0.5992 -0.6067
vn -0.0248 -0.9997 -0.0065
vn -0.0449 -0.9315 -0.3609
vn -0.0803 0.9963 -0.0305
vn -0.5512 0.3686 -0.7485
vn -0.3266 -0.9335 0.1481
vn -0.4444 0.4224 0.7900
vn 0.1227 -0.1512 -0.9809
vn -0.0999 0.8089 0.5794
vn -0.1890 0.9609 0.2022
vn -0.1081 0.9495 -0.2946
vn -0.7063 0.2323 -0.6687
vn -0.0049 -0.9999 0.0100
vn 0.3773 0.5979 -0.7072
vn 0.1878 0.9457 0.2651
vn 0.5605 -0.5725 -0.5984
vn 0.3002 -0.6786 0.6703
vn 0.8484 0.2059 0.4877
vn 0.0667 0.7062 0.7048
vn -0.1137 -0.4023 0.9084
vn 0.5267 0.5954 -0.6067
vn -0.5413 0.8211 0.1814
vn -0.6790 0.2422 -0.6930
vn -0.3145 -0.3940 0.8636
vn 0.1495 -0.3086 -0.9394
s off
f 1//1 2//1 3//1
f 3//2 8//2 4//2
f 4//3 5//3 3//3
f 11//4 5//4 12//4
f 6//5 3//5 7//5
f 11//6 6//6 7//6
f 2//7 6//7 17//7
f 18//8 5//8 4//8
f 3//9 2//9 8//9
f 8//10 9//10 10//10
f 11//11 12//11 13//11
f 10//12 13//12 14//12
f 15//13 9//13 2//13
f 16//14 15//14 17//14
f 14//15 18//15 10//15
f 17//16 11//16 16//16
f 11//17 13//17 16//17
f 13//18 12//18 14//18
f 13//19 9//19 15//19
f 2//20 9//20 8//20
f 14//21 12//21 18//21
f 5//22 11//22 7//22
f 18//23 4//23 8//23
f 1//24 3//24 6//24
f 5//25 7//25 3//25
f 11//26 17//26 6//26
f 2//27 1//27 6//27
f 18//28 12//28 5//28
f 13//29 15//29 16//29
f 10//30 9//30 13//30
f 15//31 2//31 17//31
f 10//32 18//32 8//32
