# Blender v2.77 (sub 0) OBJ File: ''
# www.blender.org
g Rock_Round_m_06_Collider
v 0.127318 -0.008184 0.274229
v 0.503648 0.158510 0.290787
v -0.019530 0.319483 0.408468
v 0.634043 0.171194 -0.149329
v -0.186435 0.192971 -0.436909
v 0.457417 0.377388 -0.160303
v -0.714963 0.327682 -0.169886
v -0.710033 0.045335 -0.159527
v -0.420530 0.378189 0.223119
v -0.542544 0.189697 0.344039
v -0.183928 0.340062 -0.342411
v -0.196979 0.468391 -0.072427
v -0.236540 -0.011423 0.271485
v 0.590113 0.043986 0.011696
v -0.059561 -0.007921 -0.277793
v -0.757910 0.066495 0.075627
v 0.301540 0.438740 0.081757
vn 0.1074 -0.3353 0.9360
vn 0.3273 0.2316 -0.9161
vn -0.4588 -0.0406 -0.8876
vn -0.2472 0.6315 0.7349
vn 0.7319 0.6395 0.2353
vn -0.1604 0.8884 -0.4300
vn 0.0683 0.9023 -0.4256
vn -0.0227 -0.3696 0.9289
vn -0.0036 -0.3805 0.9248
vn 0.0939 -0.9951 -0.0323
vn -0.6370 0.6638 0.3919
vn -0.2758 0.9576 0.0836
vn 0.3460 -0.8255 0.4459
vn 0.9582 0.0295 0.2847
vn 0.0089 -1.0000 -0.0035
vn -0.1676 -0.9844 0.0545
vn -0.9800 -0.0244 -0.1973
vn -0.0389 0.9504 0.3086
vn -0.2744 0.5231 -0.8069
vn 0.0038 0.9556 0.2945
vn 0.6786 0.6857 0.2632
vn -0.3344 -0.7257 0.6014
vn 0.2784 -0.4821 -0.8307
vn 0.3028 -0.7863 -0.5386
vn -0.0878 -0.9955 -0.0346
vn 0.3552 0.7099 0.6082
vn 0.2037 0.5267 -0.8253
vn -0.7739 0.4966 0.3930
vn -0.1848 -0.6792 -0.7103
vn 0.1124 0.9780 -0.1755
s off
f 1//1 2//1 3//1
f 4//2 5//2 6//2
f 7//3 5//3 8//3
f 9//4 10//4 3//4
f 6//5 2//5 4//5
f 11//6 7//6 12//6
f 6//7 11//7 12//7
f 3//8 10//8 13//8
f 13//9 1//9 3//9
f 14//10 1//10 15//10
f 7//11 10//11 9//11
f 9//12 12//12 7//12
f 14//13 2//13 1//13
f 14//14 4//14 2//14
f 15//15 1//15 13//15
f 16//16 8//16 13//16
f 16//17 7//17 8//17
f 3//18 17//18 12//18
f 5//19 7//19 11//19
f 12//20 9//20 3//20
f 6//21 17//21 2//21
f 10//22 16//22 13//22
f 5//23 4//23 15//23
f 14//24 15//24 4//24
f 13//25 8//25 15//25
f 17//26 3//26 2//26
f 5//27 11//27 6//27
f 16//28 10//28 7//28
f 15//29 8//29 5//29
f 6//30 12//30 17//30
