# Blender v2.77 (sub 0) OBJ File: 'LowPoly_Level_Kit_Rocks.blend'
# www.blender.org
g Rock_Round_l_06_Collider
v 0.041342 1.239043 0.383378
v -0.344963 1.845848 -0.143885
v -0.343313 0.022770 0.405395
v 0.355180 1.223179 -0.221753
v 0.450723 1.230849 0.006604
v 0.416216 0.004614 -0.255967
v 0.525478 0.004614 0.109474
v -0.026179 0.004614 -0.418604
v 0.003005 1.493131 -0.342383
v -0.127109 2.007975 0.051332
v -0.373936 0.004614 -0.290758
v -0.495659 0.036382 0.191354
v 0.219331 0.004614 0.402534
vn -0.6499 0.2187 0.7279
vn 0.9203 0.0570 -0.3870
vn 0.6747 0.1025 0.7309
vn 0.3518 0.0410 -0.9352
vn 0.6186 0.4218 0.6629
vn -0.4328 0.0784 -0.8981
vn -0.7161 0.1385 0.6841
vn 0.6429 0.7078 -0.2927
vn -0.7971 0.1735 0.5784
vn 0.0056 0.0163 0.9999
vn 0.9575 0.0344 -0.2863
vn 0.6873 0.1102 0.7180
vn 0.3447 0.0436 -0.9377
vn -0.9684 0.0349 -0.2468
vn -0.3445 0.0547 -0.9372
vn 0.6908 0.5412 -0.4795
vn 0.2068 0.6268 -0.7513
s off
f 1//1 2//1 3//1
f 4//2 5//2 6//2
f 1//3 7//3 5//3
f 4//4 8//4 9//4
f 5//5 10//5 1//5
f 9//6 11//6 2//6
f 2//7 1//7 10//7
f 4//8 9//8 5//8
f 12//9 3//9 2//9
f 3//10 13//10 1//10
f 7//11 6//11 5//11
f 1//12 13//12 7//12
f 4//13 6//13 8//13
f 2//14 11//14 12//14
f 9//15 8//15 11//15
f 10//16 5//16 9//16
f 10//17 9//17 2//17
