# Blender v2.77 (sub 0) OBJ File: 'LowPoly_Level_Kit_Rocks.blend'
# www.blender.org
g Rock_Round_l_07_Collider
v -0.720949 0.081922 0.219909
v -0.661377 0.262251 0.700129
v -0.586769 0.248668 0.148291
v -0.888786 0.248668 -0.408001
v -1.094709 0.095786 -0.488207
v 0.275302 0.079198 -0.685734
v -0.175895 0.248667 -1.043638
v 0.196968 0.248670 -0.563820
v 0.114109 0.730611 -0.523779
v -0.205820 0.754328 -0.965200
v -0.237816 0.951125 -0.796807
v 0.813809 0.709553 -0.193914
v 0.347435 1.091967 0.303353
v 0.405098 0.740271 0.650570
v -0.447456 1.318998 -0.224420
v -0.144612 1.318999 -0.513672
v -0.389208 1.333918 -0.790706
v -0.607100 0.799007 -0.849523
v 0.238955 1.584822 -0.236889
v 0.013010 1.138251 0.067129
v 0.141138 1.681141 0.052283
v -0.430108 1.179930 0.615501
v 0.165479 1.179316 0.620987
v -0.367744 1.179641 0.273711
v -0.210125 0.635791 0.943990
v -0.115952 0.248668 0.930941
v 0.560450 0.109725 0.909857
v 0.430523 0.248668 0.704583
v 0.694743 0.205747 -0.512755
v -0.523401 0.691674 0.107203
v -0.805808 0.102404 0.915405
v -0.201848 0.095523 -1.284527
v 0.893000 0.248671 -0.200215
v -0.662428 0.248668 -0.954476
v -0.809392 0.754329 -0.412160
v -0.576509 1.311568 -0.449909
v -0.097728 0.733971 0.361946
v 0.251361 1.060344 -0.322745
v 0.451102 1.589549 -0.102650
v -0.122427 0.098522 1.195464
v -0.808173 0.094586 -1.168278
v 0.631884 0.706175 -0.421017
v 1.145342 0.092056 -0.221704
vn -0.7982 0.5898 -0.1224
vn -0.6425 0.6805 0.3524
vn 0.6147 0.6277 -0.4777
vn 0.7021 0.5254 -0.4806
vn 0.7914 0.4903 0.3652
vn 0.6631 0.2797 0.6943
vn 0.1161 0.0617 -0.9913
vn -0.9049 0.2033 -0.3738
vn 0.0010 1.0000 -0.0007
vn 0.3778 0.2660 0.8869
vn 0.4195 0.0715 0.9050
vn 0.1921 0.8649 0.4638
vn 0.1328 0.6185 -0.7745
vn -0.9824 0.1279 -0.1360
vn -0.8095 0.5756 -0.1157
vn -0.6493 0.6739 0.3525
vn 0.6119 0.6360 -0.4702
vn 0.8256 0.1493 -0.5442
vn 0.8004 0.1850 -0.5702
vn -0.1500 0.6286 -0.7631
vn -0.1785 0.1405 -0.9739
vn -0.8701 0.1405 0.4724
vn -0.8205 0.3416 0.4583
vn -0.9114 0.1636 -0.3775
vn -0.0074 0.5146 0.8574
vn 0.5385 0.1626 -0.8268
vn -0.7961 0.3654 0.4824
vn -0.5257 0.8223 -0.2178
vn -0.5882 0.5852 -0.5582
vn -0.5805 0.6537 -0.4855
vn -0.9584 0.2254 -0.1751
vn 0.7975 0.2729 0.5381
vn -0.1922 0.8555 0.4809
vn 0.4992 0.1329 -0.8562
vn -0.0203 0.9996 -0.0213
vn -0.1037 0.8391 -0.5340
vn 0.0888 0.3537 -0.9311
vn -0.5558 0.1535 0.8170
vn 0.7238 0.2962 -0.6231
vn 0.5252 0.8107 0.2588
vn -0.4003 0.6097 0.6841
vn 0.8975 0.0938 0.4310
vn 0.1166 0.1932 -0.9742
vn 0.6656 0.2842 0.6901
vn -0.8453 0.0668 -0.5301
vn 0.3799 0.1204 0.9172
vn 0.1902 0.8518 0.4881
vn 0.7619 0.2081 -0.6134
vn 0.7818 0.1405 -0.6075
vn -0.4529 0.6030 0.6567
vn -0.2499 0.2056 -0.9462
vn -0.8549 0.1678 0.4910
vn -0.9042 0.1386 -0.4040
vn 0.1942 0.4505 -0.8714
vn -0.5994 0.2220 0.7691
vn 0.4850 0.2075 -0.8495
vn -0.8206 0.3811 -0.4260
vn -0.5320 0.8162 -0.2256
vn 0.5263 0.1495 -0.8370
vn 0.4585 0.7936 -0.3999
vn -0.8670 0.3375 -0.3665
vn -0.9526 0.3043 -0.0013
vn -0.1904 0.8450 0.4997
vn -0.0965 0.8446 -0.5266
vn 0.7255 0.3599 -0.5866
vn -0.3893 -0.1255 0.9125
vn 0.5015 0.4818 0.7186
vn 0.6974 0.3177 -0.6424
vn 0.4928 0.8329 0.2519
vn -0.3996 0.6091 0.6851
vn 0.8810 0.1452 0.4503
vn 0.1478 0.9522 -0.2672
vn 0.1986 0.1150 -0.9733
vn -0.0082 0.9981 0.0610
s off
f 1//1 2//1 3//1
f 1//2 4//2 5//2
f 6//3 7//3 8//3
f 9//4 10//4 11//4
f 12//5 13//5 14//5
f 15//6 9//6 16//6
f 17//7 11//7 18//7
f 19//8 20//8 21//8
f 22//9 23//9 24//9
f 25//10 14//10 23//10
f 26//11 14//11 25//11
f 26//12 27//12 28//12
f 6//13 8//13 29//13
f 3//14 2//14 30//14
f 1//15 31//15 2//15
f 1//16 3//16 4//16
f 6//17 32//17 7//17
f 29//18 12//18 33//18
f 8//19 10//19 9//19
f 18//20 11//20 10//20
f 34//21 10//21 7//21
f 3//22 35//22 4//22
f 15//23 36//23 30//23
f 4//24 18//24 34//24
f 25//25 23//25 22//25
f 23//26 37//26 24//26
f 30//27 36//27 35//27
f 34//28 5//28 4//28
f 30//29 38//29 9//29
f 38//30 30//30 20//30
f 24//31 2//31 22//31
f 12//32 39//32 13//32
f 26//33 31//33 40//33
f 24//34 37//34 30//34
f 16//35 36//35 15//35
f 34//36 32//36 41//36
f 39//37 42//37 38//37
f 13//38 21//38 20//38
f 16//39 11//39 17//39
f 33//40 27//40 43//40
f 13//41 37//41 14//41
f 28//42 12//42 14//42
f 8//43 42//43 29//43
f 15//44 30//44 9//44
f 19//45 38//45 20//45
f 26//46 28//46 14//46
f 26//47 40//47 27//47
f 29//48 42//48 12//48
f 8//49 7//49 10//49
f 20//50 30//50 37//50
f 34//51 18//51 10//51
f 3//52 30//52 35//52
f 4//53 35//53 18//53
f 9//54 38//54 42//54
f 22//55 2//55 25//55
f 23//56 14//56 37//56
f 36//57 17//57 18//57
f 34//58 41//58 5//58
f 19//59 39//59 38//59
f 33//60 43//60 29//60
f 35//61 36//61 18//61
f 24//62 30//62 2//62
f 26//63 2//63 31//63
f 34//64 7//64 32//64
f 39//65 12//65 42//65
f 2//66 26//66 25//66
f 13//67 39//67 21//67
f 16//68 9//68 11//68
f 33//69 28//69 27//69
f 13//70 20//70 37//70
f 28//71 33//71 12//71
f 19//72 21//72 39//72
f 8//73 9//73 42//73
f 17//74 36//74 16//74
