# Blender v2.77 (sub 0) OBJ File: 'LowPoly_Level_Kit_Rocks.blend'
# www.blender.org
g Rock_Round_crk_m_04_Collider
v 0.703806 -0.001586 0.147168
v 0.203626 -0.002375 0.438242
v 0.333322 -0.001457 -0.177119
v 0.528143 0.141061 0.447375
v 0.593394 0.425876 0.198507
v -0.182273 0.183700 0.578229
v -0.107252 -0.002277 0.413917
v 0.404615 0.187513 -0.413542
v 0.716440 0.210366 -0.035032
v 0.015782 0.507934 -0.172942
v -0.144519 0.334671 0.506031
v -0.688974 0.129755 0.042030
v -0.660730 0.264790 -0.320839
v -0.161865 0.183309 -0.601482
v -0.389598 -0.003825 -0.436082
v -0.522284 0.442063 -0.062491
v -0.078329 0.436494 -0.486945
vn 0.0008 -1.0000 -0.0013
vn 0.3235 -0.7672 0.5538
vn 0.8838 0.1762 0.4334
vn -0.0578 -0.6740 0.7365
vn 0.4825 0.7556 -0.4431
vn 0.4236 -0.7656 -0.4842
vn 0.1447 -0.3855 0.9113
vn -0.0186 0.9698 0.2431
vn 0.2407 0.6068 0.7575
vn -0.0002 -1.0000 -0.0015
vn -0.6713 0.4496 0.5892
vn -0.4989 -0.6781 0.5397
vn -0.5028 -0.1417 -0.8527
vn -0.3608 0.8479 -0.3885
vn -0.2770 -0.9563 0.0937
vn 0.2039 -0.7758 -0.5971
vn 0.0030 -1.0000 0.0008
vn -0.7330 -0.6169 -0.2866
vn 0.2973 0.3104 -0.9029
vn -0.0714 0.9704 0.2308
vn 0.4718 0.8186 -0.3276
vn 0.6835 -0.4989 -0.5329
vn 0.9311 0.2042 0.3021
vn 0.1895 0.3846 0.9034
vn -0.6567 0.5300 0.5365
vn -0.3687 0.4814 -0.7952
vn -0.1549 0.9723 -0.1748
vn 0.2074 -0.7937 -0.5718
vn -0.8590 0.4981 0.1185
vn 0.3956 0.8080 -0.4367
s off
f 1//1 2//1 3//1
f 4//2 2//2 1//2
f 4//3 1//3 5//3
f 2//4 6//4 7//4
f 8//5 5//5 9//5
f 8//6 1//6 3//6
f 2//7 4//7 6//7
f 10//8 11//8 5//8
f 11//9 4//9 5//9
f 7//10 3//10 2//10
f 11//11 12//11 6//11
f 12//12 7//12 6//12
f 13//13 14//13 15//13
f 16//14 17//14 13//14
f 7//15 12//15 15//15
f 15//16 14//16 8//16
f 7//17 15//17 3//17
f 15//18 12//18 13//18
f 8//19 14//19 17//19
f 10//20 16//20 11//20
f 17//21 10//21 8//21
f 9//22 1//22 8//22
f 1//23 9//23 5//23
f 11//24 6//24 4//24
f 11//25 16//25 12//25
f 14//26 13//26 17//26
f 17//27 16//27 10//27
f 3//28 15//28 8//28
f 12//29 16//29 13//29
f 8//30 10//30 5//30
