# Blender v2.77 (sub 0) OBJ File: 'LowPoly_Level_Kit_Rocks.blend'
# www.blender.org
g Rock_Round_l_05_Collider
v 0.491855 0.850760 0.440650
v 0.430551 0.925656 -0.189969
v 0.428217 0.909890 0.275341
v 0.054128 0.909890 0.506674
v -0.474519 0.880966 0.350994
v -0.319961 0.909890 -0.187325
v -0.475987 0.878355 -0.349806
v 0.307776 1.826798 0.175281
v 0.308496 1.818830 -0.142258
v 0.048579 0.916247 -0.422300
v 0.006474 0.880029 -0.694115
v -0.636670 -0.000000 0.469393
v -0.280825 0.416565 0.699478
v -0.616301 0.416565 0.454520
v -0.662688 0.079219 -0.136622
v -0.398213 -0.013023 -0.683065
v 0.055180 1.739370 0.347205
v -0.188657 1.713770 -0.149575
v -0.319961 0.909890 0.275341
v -0.123506 0.455336 -0.800609
v 0.403690 -0.012023 -0.695877
v -0.127415 0.880966 0.604443
v 0.550364 0.638323 -0.421922
v 0.682926 0.006901 0.028115
v -0.215754 1.607382 0.204496
v 0.496426 0.003263 0.543145
v -0.261563 -0.000000 0.743289
vn 0.6385 0.7690 0.0293
vn 0.1692 0.9469 0.2736
vn -0.1949 0.9808 -0.0032
vn 0.9908 0.1355 -0.0012
vn 0.0615 0.9881 -0.1412
vn -0.5887 0.0576 0.8063
vn -0.8906 0.0891 -0.4461
vn 0.5191 0.1607 0.8395
vn -0.0514 0.3094 -0.9495
vn -0.1839 0.9829 0.0000
vn -0.0152 -0.2350 -0.9719
vn -0.2737 0.9580 0.0850
vn -0.0834 0.9902 -0.1121
vn -0.1101 0.9824 0.1507
vn 0.2592 0.1107 0.9595
vn -0.5548 0.3388 0.7599
vn 0.9766 0.2146 0.0134
vn -0.9582 0.2744 -0.0814
vn 0.5141 0.1157 -0.8499
vn -0.5205 0.1618 0.8384
vn 0.2532 0.1128 0.9608
vn 0.5156 0.2312 -0.8250
vn 0.5507 0.6512 -0.5222
vn -0.6648 0.2100 -0.7169
vn -0.9890 0.1478 0.0000
vn 0.9105 0.4116 -0.0396
vn 0.1950 0.7811 0.5931
vn 0.3112 0.1404 -0.9399
vn -0.5154 0.8308 0.2102
vn 0.9391 0.0462 0.3404
vn 0.9913 0.1312 0.0094
vn 0.5171 0.1597 0.8409
vn -0.9975 0.0505 0.0494
vn -0.0920 0.9888 -0.1175
vn -0.0841 0.9871 0.1359
vn -0.5348 0.1266 -0.8354
vn 0.2555 0.1174 0.9597
vn -0.9737 0.2278 0.0012
vn -0.5189 0.1628 0.8392
vn -0.2063 0.9782 -0.0250
vn -0.9864 0.1624 -0.0267
vn -0.5435 0.3569 -0.7598
vn 0.9319 -0.0594 -0.3579
s off
f 1//1 2//1 3//1
f 3//2 4//2 1//2
f 5//3 6//3 7//3
f 8//4 2//4 9//4
f 10//5 2//5 11//5
f 12//6 13//6 14//6
f 15//7 7//7 16//7
f 3//8 17//8 4//8
f 18//9 9//9 10//9
f 5//10 19//10 6//10
f 20//11 21//11 16//11
f 18//12 17//12 8//12
f 6//13 11//13 7//13
f 22//14 19//14 5//14
f 13//15 1//15 22//15
f 5//16 13//16 22//16
f 23//17 1//17 24//17
f 5//18 15//18 14//18
f 9//19 2//19 10//19
f 25//20 4//20 17//20
f 26//21 13//21 27//21
f 21//22 11//22 23//22
f 11//23 2//23 23//23
f 7//24 20//24 16//24
f 25//25 6//25 19//25
f 2//26 1//26 23//26
f 22//27 1//27 4//27
f 21//28 20//28 11//28
f 18//29 25//29 17//29
f 24//30 1//30 26//30
f 8//31 3//31 2//31
f 12//6 27//6 13//6
f 3//32 8//32 17//32
f 15//33 12//33 14//33
f 6//34 10//34 11//34
f 22//35 4//35 19//35
f 6//36 18//36 10//36
f 13//37 26//37 1//37
f 5//16 14//16 13//16
f 5//38 7//38 15//38
f 25//39 19//39 4//39
f 8//40 9//40 18//40
f 25//41 18//41 6//41
f 11//42 20//42 7//42
f 24//43 21//43 23//43
