# Blender v2.77 (sub 0) OBJ File: ''
# www.blender.org
g Rocks_Round_l_01_Collider
v 0.887921 0.715413 0.413288
v 0.164445 0.923837 0.575365
v 1.403527 0.308485 1.250606
v 0.440879 0.385777 1.762468
v 0.709008 -0.142163 1.687514
v 0.994797 0.206293 0.587831
v -0.043301 0.481214 0.510663
v -0.089478 0.523052 1.269929
v -1.184484 0.839235 0.571457
v -1.827081 0.480076 0.294117
v -0.664798 0.279275 0.953323
v -0.845064 -0.000358 -0.977900
v 0.546239 -0.000003 -0.236532
v -0.597822 -0.000003 0.344251
v 1.305494 0.200744 0.073270
v 1.435957 0.316933 -0.328624
v 1.305494 0.397460 0.206493
v -1.154543 0.253215 -1.123705
v -1.879205 0.504937 -0.489814
v -0.840198 0.689720 -1.137784
v -0.567669 0.847149 -0.713164
v 0.118417 0.646826 -1.126478
v -1.738645 0.034901 0.021938
v 0.015134 0.302824 -1.126478
v 0.606164 0.847149 -0.278156
v -0.238747 0.175268 0.768975
v -0.202968 0.406642 0.909150
v 0.819722 0.687375 -0.731454
v -1.423200 0.817806 0.117132
vn 0.3191 0.9147 0.2480
vn 0.2577 0.9012 0.3485
vn 0.4736 0.1166 0.8730
vn -0.2162 -0.9132 -0.3455
vn -0.0165 -0.3274 -0.9448
vn -0.8980 0.4329 -0.0785
vn -0.6411 -0.7675 0.0033
vn -0.1818 0.8790 0.4408
vn -0.6722 -0.4272 0.6047
vn -0.1546 0.2136 -0.9646
vn -0.4657 0.1612 0.8702
vn 0.0001 -1.0000 0.0002
vn 0.9502 -0.1747 0.2580
vn -0.5387 0.3634 -0.7601
vn 0.0459 0.9267 -0.3730
vn -0.0324 -0.9995 0.0063
vn 0.0183 -0.4815 -0.8763
vn 0.1059 0.9524 -0.2858
vn 0.3154 -0.9340 -0.1677
vn 0.3571 -0.5238 0.7734
vn 0.4864 -0.1303 -0.8639
vn -0.6116 -0.6592 -0.4375
vn 0.1395 -0.9514 0.2747
vn 0.2520 -0.8446 -0.4724
vn -0.0529 0.9984 -0.0193
vn 0.2392 -0.8799 -0.4105
vn 0.2239 0.8541 0.4695
vn 0.5360 0.8431 -0.0446
vn -0.0437 -0.9099 0.4124
vn -0.2762 0.9454 -0.1732
vn -0.5529 0.7939 0.2531
vn -0.6229 0.7795 0.0661
vn 0.0116 -0.0035 -0.9999
vn -0.0626 0.5220 0.8506
vn 0.8512 -0.0012 -0.5248
vn 0.4677 -0.8703 -0.1542
vn -0.9719 -0.2282 0.0574
vn 0.2244 -0.5301 0.8177
vn 0.4919 -0.1477 -0.8581
vn -0.1407 -0.9057 0.3998
vn -0.4670 -0.7939 -0.3894
vn -0.0019 1.0000 0.0052
vn 0.2175 0.8575 0.4663
vn 0.5386 0.8425 0.0045
vn -0.4869 -0.5240 0.6988
vn -0.2851 0.9222 -0.2612
vn -0.0010 -0.0315 -0.9995
s off
f 1//1 2//1 3//1
f 2//2 4//2 3//2
f 5//3 3//3 4//3
f 6//4 5//4 7//4
f 1//5 6//5 7//5
f 7//6 8//6 2//6
f 7//7 5//7 8//7
f 2//8 8//8 4//8
f 8//9 5//9 4//9
f 1//10 7//10 2//10
f 9//11 10//11 11//11
f 12//12 13//12 14//12
f 15//13 16//13 17//13
f 18//14 19//14 20//14
f 20//15 21//15 22//15
f 12//16 14//16 23//16
f 24//17 12//17 18//17
f 25//18 22//18 21//18
f 13//19 16//19 15//19
f 26//20 17//20 27//20
f 24//21 28//21 16//21
f 18//22 23//22 19//22
f 13//23 26//23 14//23
f 12//24 16//24 13//24
f 9//25 21//25 29//25
f 12//26 24//26 16//26
f 25//27 27//27 17//27
f 25//28 16//28 28//28
f 14//29 26//29 11//29
f 19//30 21//30 20//30
f 29//31 10//31 9//31
f 10//32 29//32 19//32
f 24//33 20//33 22//33
f 9//34 11//34 27//34
f 6//35 1//35 3//35
f 5//36 6//36 3//36
f 25//18 28//18 22//18
f 23//37 10//37 19//37
f 26//20 15//20 17//20
f 26//38 27//38 11//38
f 24//39 22//39 28//39
f 23//40 14//40 11//40
f 18//41 12//41 23//41
f 13//23 15//23 26//23
f 9//42 25//42 21//42
f 25//43 9//43 27//43
f 25//44 17//44 16//44
f 10//45 23//45 11//45
f 19//46 29//46 21//46
f 24//47 18//47 20//47
