# Blender v2.77 (sub 0) OBJ File: ''
# www.blender.org
g Rock_Round_l_04_Collider
v -0.473723 0.613048 0.416443
v -0.701087 0.613048 0.000000
v -0.625592 0.613048 0.602414
v 0.209206 1.191230 0.492598
v 0.345972 1.177955 0.000000
v 0.154650 1.643404 0.115437
v -0.796730 0.000000 0.000000
v -0.033298 0.593459 -0.839423
v 0.004964 0.009026 -0.963784
v -0.690306 0.000000 -0.680563
v 0.334668 0.611301 0.627460
v 0.714669 0.000000 0.000000
v 0.619429 0.613048 0.000000
v -0.625592 0.613048 -0.602414
v 0.002159 0.678628 -0.639090
v -0.348989 0.657239 -0.456466
v -0.284942 1.177955 -0.367252
v 0.001264 0.613048 0.851942
v 0.428735 -0.000000 0.680563
v -0.003682 0.744151 0.706230
v -0.551542 0.638342 0.000000
v -0.356523 1.201729 -0.007025
v -0.125108 1.542620 -0.181220
v -0.244147 1.575658 0.314076
v 0.079356 1.651495 0.396002
v 0.353413 0.627879 -0.579340
v 0.223826 1.187617 -0.426016
v 0.435188 0.696200 0.000000
v -0.380104 1.161937 0.431520
v 0.127630 1.500598 -0.112741
v -0.690306 -0.000000 0.680563
v 0.000000 -0.000000 0.962461
v 0.428735 0.000000 -0.680563
vn -0.0000 1.0000 0.0000
vn 0.9164 0.3157 0.2459
vn -0.9806 0.1530 0.1229
vn -0.3737 0.1696 -0.9119
vn 0.9015 0.1401 0.4095
vn -0.9806 0.1530 -0.1229
vn -0.4614 0.2047 -0.8633
vn 0.5522 0.1561 0.8190
vn 0.4093 0.6851 0.6026
vn -0.1661 0.9819 0.0907
vn -0.1804 0.9725 -0.1473
vn -0.0490 0.9779 -0.2032
vn -0.9672 0.1536 -0.2023
vn -0.0299 0.4646 -0.8850
vn -0.2708 0.1239 0.9546
vn 0.9012 0.1400 -0.4102
vn 0.9499 0.2652 -0.1654
vn -0.1683 0.4421 -0.8810
vn -0.9517 0.3061 -0.0234
vn 0.0181 0.2477 -0.9687
vn 0.0018 0.3309 0.9437
vn 0.1987 0.8888 -0.4130
vn -0.3653 0.1556 0.9178
vn 0.9497 0.1759 0.2589
vn -0.9849 0.1690 -0.0376
vn -0.1404 0.5244 0.8398
vn 0.4058 0.8992 -0.1633
vn -0.1455 0.9891 -0.0236
vn 0.5328 0.2094 -0.8199
vn -0.3626 0.1554 -0.9189
vn -0.9805 0.1230 0.1533
vn 0.9081 0.1729 0.3815
vn -0.9805 0.1230 -0.1533
vn 0.5434 0.1479 0.8264
vn 0.3205 0.2798 0.9050
vn -0.2591 0.7136 0.6509
vn 0.8414 0.4890 -0.2302
vn -0.2347 0.9088 -0.3448
vn -0.8768 0.2988 -0.3767
vn -0.1132 0.3056 0.9454
vn 0.9084 0.1705 -0.3817
vn 0.9474 0.1754 -0.2677
vn 0.2021 0.3020 -0.9316
vn 0.4042 0.8956 0.1859
vn -0.4217 0.6603 -0.6214
vn -0.5373 0.0686 0.8406
vn -0.2073 0.9747 -0.0837
vn -0.3729 0.1654 0.9130
vn -0.8552 0.4776 -0.2015
vn 0.9505 0.2489 0.1859
vn -0.9265 0.3231 0.1928
vn -0.1667 0.9858 -0.0209
vn -0.1141 0.4720 0.8742
vn 0.9205 0.3097 0.2381
vn 0.5477 0.1968 -0.8132
vn 0.2905 0.7201 -0.6302
s off
f 1//1 2//1 3//1
f 4//2 5//2 6//2
f 7//3 3//3 2//3
f 8//4 9//4 10//4
f 11//5 12//5 13//5
f 14//6 7//6 2//6
f 15//7 16//7 17//7
f 18//8 19//8 11//8
f 11//9 20//9 18//9
f 1//10 21//10 2//10
f 3//11 20//11 1//11
f 16//12 8//12 14//12
f 16//13 22//13 17//13
f 23//14 15//14 17//14
f 24//15 4//15 25//15
f 12//16 26//16 13//16
f 27//17 28//17 26//17
f 27//18 15//18 23//18
f 24//19 22//19 29//19
f 22//20 6//20 5//20
f 5//21 30//21 22//21
f 26//22 8//22 15//22
f 31//23 18//23 3//23
f 4//24 28//24 5//24
f 22//25 1//25 29//25
f 30//26 23//26 22//26
f 13//27 26//27 28//27
f 14//28 21//28 16//28
f 26//29 9//29 8//29
f 14//30 8//30 10//30
f 7//31 31//31 3//31
f 11//32 19//32 12//32
f 14//33 10//33 7//33
f 18//34 32//34 19//34
f 20//35 11//35 4//35
f 3//36 18//36 20//36
f 30//37 5//37 27//37
f 16//38 15//38 8//38
f 16//39 21//39 22//39
f 24//40 29//40 4//40
f 12//41 33//41 26//41
f 27//42 5//42 28//42
f 15//43 27//43 26//43
f 11//44 13//44 28//44
f 24//45 6//45 22//45
f 29//46 1//46 20//46
f 6//47 24//47 25//47
f 31//48 32//48 18//48
f 22//49 23//49 17//49
f 4//50 11//50 28//50
f 22//51 21//51 1//51
f 14//52 2//52 21//52
f 29//53 20//53 4//53
f 6//54 25//54 4//54
f 26//55 33//55 9//55
f 30//56 27//56 23//56
