# Blender v2.77 (sub 0) OBJ File: ''
# www.blender.org
g Rock_Round_m_03_Collider
v -0.521272 0.448343 -0.121793
v -0.507727 0.403271 0.241160
v -0.350767 0.545638 0.002824
v 0.169215 0.003271 0.275756
v 0.188198 -0.002010 -0.410930
v 0.641613 0.208249 -0.273791
v -0.245016 0.128174 -0.501987
v 0.248832 0.215063 -0.535471
v -0.499639 0.000167 -0.282628
v -0.847898 0.187308 0.148556
v -0.457254 0.006365 0.309935
v -0.288008 0.297842 0.445323
v 0.087635 0.509337 0.177783
v 0.528579 0.461303 -0.139073
v 0.049699 0.523895 -0.378653
v 0.413293 0.212004 0.343503
v 0.432539 0.402781 0.193967
vn -0.5580 0.8207 0.1227
vn 0.4160 -0.9092 0.0185
vn 0.0301 -0.5037 -0.8633
vn -0.1137 -0.7950 -0.5959
vn -0.4337 -0.9002 0.0404
vn -0.4865 0.4436 0.7527
vn 0.1209 0.9925 0.0177
vn -0.4048 0.5330 -0.7430
vn -0.0406 0.8693 0.4926
vn 0.9240 0.1738 0.3407
vn -0.7161 0.2049 -0.6673
vn -0.0017 -1.0000 0.0076
vn 0.1487 0.6007 0.7855
vn 0.0467 -0.4430 0.8953
vn 0.4629 0.5687 -0.6799
vn 0.0742 0.9970 0.0210
vn -0.5555 0.8224 0.1229
vn -0.6969 0.2122 -0.6851
vn 0.2759 0.9300 0.2430
vn 0.4620 -0.5349 -0.7074
vn 0.5964 -0.7705 0.2253
vn -0.4382 -0.1567 0.8851
vn -0.1279 0.8575 0.4983
vn 0.9189 0.2463 0.3083
vn -0.1292 0.3815 -0.9153
vn -0.2702 0.9026 -0.3351
vn -0.0044 -0.9999 0.0108
vn 0.1866 0.6262 0.7570
vn 0.0844 -0.3955 0.9146
vn 0.4167 0.6106 -0.6734
s off
f 1//1 2//1 3//1
f 4//2 5//2 6//2
f 7//3 8//3 5//3
f 5//4 9//4 7//4
f 10//5 9//5 11//5
f 2//6 10//6 12//6
f 13//7 14//7 15//7
f 15//8 7//8 1//8
f 12//9 3//9 2//9
f 16//10 6//10 17//10
f 1//11 9//11 10//11
f 4//12 9//12 5//12
f 13//13 16//13 17//13
f 4//14 12//14 11//14
f 8//15 14//15 6//15
f 13//16 15//16 3//16
f 1//17 10//17 2//17
f 7//18 9//18 1//18
f 14//19 13//19 17//19
f 8//20 6//20 5//20
f 4//21 6//21 16//21
f 10//22 11//22 12//22
f 12//23 13//23 3//23
f 14//24 17//24 6//24
f 7//25 15//25 8//25
f 1//26 3//26 15//26
f 4//27 11//27 9//27
f 13//28 12//28 16//28
f 4//29 16//29 12//29
f 8//30 15//30 14//30
