# Blender v2.77 (sub 0) OBJ File: ''
# www.blender.org
g Rock_Round_m_16_Collider
v -0.027908 1.431033 0.356679
v 0.392990 0.227609 0.395770
v 0.385000 1.242262 0.203045
v 0.387576 -0.002260 -0.183129
v 0.128654 1.480019 -0.103880
v 0.386531 1.295432 -0.163033
v -0.249892 1.133844 0.385000
v 0.164571 0.431669 -0.385000
v -0.277284 0.515511 -0.398850
v 0.044408 1.403186 -0.405140
v -0.166461 -0.015960 0.389140
v -0.385000 0.243552 0.260513
v -0.391824 0.037882 0.000726
v 0.019303 0.000000 -0.201183
v -0.394968 1.331188 0.127587
v -0.385000 1.000041 -0.126550
vn 0.4120 0.1732 0.8946
vn 0.9999 0.0057 -0.0116
vn 0.5957 0.7945 0.1179
vn 0.0571 0.0524 0.9970
vn 0.0281 -0.0172 -0.9995
vn -0.7900 -0.4704 0.3932
vn -0.4139 -0.5237 -0.7446
vn -0.1235 -0.9902 -0.0656
vn 0.3721 -0.8639 0.3395
vn -0.5383 -0.0360 0.8420
vn -0.2689 0.9631 0.0110
vn 0.5884 0.0561 -0.8066
vn -0.0430 -0.3791 -0.9243
vn 0.0423 -0.4035 -0.9140
vn -0.7328 0.4003 -0.5503
vn -0.9998 0.0096 0.0187
vn 0.4784 0.8412 0.2521
vn -0.0130 0.0027 0.9999
vn -0.0047 -0.9996 -0.0285
vn -0.9489 -0.0347 -0.3136
vn 1.0000 0.0007 0.0043
vn -0.8508 0.0561 0.5225
vn -0.3296 0.9328 -0.1457
vn 0.6836 0.0119 -0.7297
vn 0.4938 0.7995 -0.3420
vn -0.6770 0.2404 -0.6956
vn -0.5548 0.4792 0.6801
vn -0.9997 -0.0120 -0.0235
s off
f 1//1 2//1 3//1
f 2//2 4//2 3//2
f 5//3 3//3 6//3
f 7//4 2//4 1//4
f 8//5 9//5 10//5
f 11//6 12//6 13//6
f 14//7 13//7 9//7
f 14//8 11//8 13//8
f 4//9 2//9 11//9
f 7//10 12//10 11//10
f 5//11 15//11 1//11
f 6//12 8//12 10//12
f 9//13 8//13 14//13
f 4//14 14//14 8//14
f 10//15 16//15 15//15
f 12//16 16//16 13//16
f 5//17 1//17 3//17
f 7//18 11//18 2//18
f 14//19 4//19 11//19
f 9//20 13//20 16//20
f 4//21 6//21 3//21
f 7//22 15//22 12//22
f 5//23 10//23 15//23
f 6//24 4//24 8//24
f 6//25 10//25 5//25
f 10//26 9//26 16//26
f 7//27 1//27 15//27
f 12//28 15//28 16//28
