# Blender v2.77 (sub 0) OBJ File: 'LowPoly_Level_Kit_Rocks.blend'
# www.blender.org
g Rock_Round_crk_m_02
v -0.465966 0.040241 -0.416234
v -0.511510 0.022595 -0.358564
v -0.390218 0.040241 -0.376496
v -0.466345 0.022595 -0.308211
v -0.465966 -0.000109 -0.416234
v -0.511510 -0.000109 -0.358564
v -0.390218 -0.000109 -0.376496
v -0.466345 -0.000109 -0.308211
v 0.121525 0.035406 0.730398
v 0.082801 0.027227 0.761303
v 0.169720 0.030052 0.774109
v 0.128148 0.022345 0.803102
v 0.118164 0.004421 0.729274
v 0.080910 0.009792 0.760670
v 0.166359 -0.000933 0.772985
v 0.126257 0.004910 0.802469
v -0.048668 0.035406 0.664914
v -0.003993 0.027227 0.686333
v -0.024049 0.030052 0.615400
v 0.020144 0.022345 0.640215
v -0.048218 0.004421 0.668429
v -0.003739 0.009792 0.688311
v -0.023599 -0.000933 0.618915
v 0.020397 0.004910 0.642193
v -0.032882 0.002038 0.540320
v -0.393868 -0.031238 0.336596
v -0.441341 0.622379 0.011475
v 0.032289 0.658189 0.284268
v 0.180161 0.446125 0.498954
v -0.098844 0.236092 0.643144
v -0.388759 0.633637 0.238642
v -0.241328 0.624585 -0.222558
v -0.534271 -0.042814 0.053272
v -0.681139 0.118472 0.093429
v -0.361291 -0.024311 -0.230974
v -0.584848 0.403867 -0.144637
v -0.386186 0.243540 -0.359602
v -0.458074 0.426657 0.413813
v -0.378457 0.302015 0.538823
v -0.625242 0.156377 0.270847
v 0.467121 0.399672 0.321704
v -0.016962 0.003484 0.532288
v 0.118481 0.643816 0.264010
v 0.244488 0.419736 0.480430
v -0.054389 0.245123 0.631860
v 0.429826 0.457939 -0.231686
v 0.314643 0.605187 0.154319
v 0.518495 0.332179 0.265847
v 0.372505 -0.006171 0.262402
v 0.513121 0.346722 -0.207661
v 0.419988 0.135549 -0.291827
v 0.364022 -0.008838 -0.035762
v -0.164673 0.633529 -0.238569
v -0.088603 0.626550 -0.284749
v 0.048977 0.542250 -0.413984
v -0.062817 0.287277 -0.515269
v -0.357649 0.002443 -0.234114
v -0.353876 0.269314 -0.367061
v 0.297616 0.053962 -0.368962
v 0.254631 -0.009360 -0.301739
v 0.021548 -0.006149 -0.411480
v 0.086518 0.062808 -0.476478
vt 0.1939 0.9270
vt 0.1970 0.9244
vt 0.1970 0.9281
vt 0.1907 0.9255
vt 0.1939 0.9283
vt 0.1912 0.9283
vt 0.1977 0.9244
vt 0.1986 0.9283
vt 0.1970 0.9283
vt 0.2020 0.9272
vt 0.2012 0.9299
vt 0.2005 0.9271
vt 0.1633 0.9334
vt 0.1641 0.9308
vt 0.1641 0.9332
vt 0.2020 0.9296
vt 0.2033 0.9276
vt 0.2033 0.9301
vt 0.1987 0.9274
vt 0.2005 0.9294
vt 0.1986 0.9298
vt 0.1987 0.9268
vt 0.2006 0.9247
vt 0.2006 0.9271
vt 0.1975 0.9283
vt 0.1983 0.9302
vt 0.1970 0.9302
vt 0.2006 0.9262
vt 0.2013 0.9244
vt 0.2017 0.9262
vt 0.1641 0.9354
vt 0.1635 0.9335
vt 0.1641 0.9334
vt 0.1958 0.9285
vt 0.1947 0.9304
vt 0.1947 0.9283
vt 0.1907 0.9303
vt 0.1927 0.9283
vt 0.1927 0.9304
vt 0.1947 0.9304
vt 0.1928 0.9283
vt 0.1947 0.9283
vt 0.2028 0.9259
vt 0.2017 0.9244
vt 0.2028 0.9245
vt 0.2028 0.9258
vt 0.2040 0.9244
vt 0.2040 0.9257
vt 0.1642 0.9356
vt 0.1635 0.9374
vt 0.1635 0.9356
vt 0.1970 0.9303
vt 0.1958 0.9283
vt 0.1970 0.9284
vt 0.1930 0.8934
vt 0.2079 0.8911
vt 0.2116 0.8974
vt 0.2074 0.9101
vt 0.2141 0.9118
vt 0.2178 0.8991
vt 0.2363 0.9142
vt 0.2178 0.9132
vt 0.2363 0.9029
vt 0.2114 0.9446
vt 0.2181 0.9381
vt 0.2189 0.9502
vt 0.2239 0.8999
vt 0.2288 0.9628
vt 0.2162 0.9578
vt 0.2346 0.8911
vt 0.2230 0.8942
vt 0.1907 0.9048
vt 0.2178 0.9181
vt 0.1955 0.9211
vt 0.1965 0.9116
vt 0.2250 0.9656
vt 0.2138 0.9833
vt 0.2114 0.9747
vt 0.2288 0.9308
vt 0.1907 0.8947
vt 0.1907 0.9266
vt 0.1806 0.9308
vt 0.1713 0.8924
vt 0.1842 0.8911
vt 0.1644 0.9013
vt 0.1659 0.9230
vt 0.1380 0.9871
vt 0.1374 0.9767
vt 0.1545 0.9860
vt 0.2034 0.9518
vt 0.2114 0.9534
vt 0.2083 0.9556
vt 0.1644 0.9416
vt 0.1764 0.9542
vt 0.1677 0.9593
vt 0.1945 0.9483
vt 0.2101 0.9425
vt 0.1407 0.9900
vt 0.1850 0.9568
vt 0.1804 0.9653
vt 0.1705 0.9611
vt 0.1681 0.9404
vt 0.1886 0.9347
vt 0.1545 0.9680
vt 0.2106 0.9876
vt 0.2072 0.9881
vt 0.2101 0.9763
vt 0.1952 0.9608
vt 0.1919 0.9503
vt 0.1947 0.9675
vt 0.1979 0.9793
vt 0.1633 0.9628
vt 0.1404 0.9447
vt 0.1633 0.9308
vt 0.1401 0.9557
vt 0.1434 0.9643
vt 0.1374 0.9573
vt 0.1919 0.9709
vt 0.1467 0.9631
vt 0.1449 0.9342
vt 0.1992 0.9870
vt 0.2060 0.9650
vt 0.2114 0.9616
vt 0.1959 0.9308
vt 0.1919 0.9682
vt 0.1374 0.9203
vt 0.1387 0.8986
vt 0.1538 0.8911
vt 0.1644 0.9273
vt 0.1568 0.9308
vt 0.1644 0.8954
vt 0.1944 0.9244
vt 0.1939 0.9244
vt 0.1986 0.9244
vt 0.2020 0.9299
vt 0.1633 0.9310
vt 0.2020 0.9271
vt 0.2005 0.9271
vt 0.1986 0.9244
vt 0.1982 0.9283
vt 0.2006 0.9244
vt 0.1635 0.9356
vt 0.1958 0.9307
vt 0.1907 0.9283
vt 0.1927 0.9303
vt 0.2022 0.9258
vt 0.2033 0.9244
vt 0.1642 0.9375
vt 0.1958 0.9302
vt 0.2246 0.9185
vt 0.2121 0.9375
vt 0.2248 0.9656
vt 0.2068 0.9244
vt 0.2250 0.9876
vt 0.1818 0.9308
vt 0.1448 0.9643
vt 0.2106 0.9650
vt 0.2104 0.9314
vt 0.1919 0.9358
vn -0.0841 0.9835 0.1604
vn 0.0000 -1.0000 -0.0000
vn 0.6677 -0.0000 0.7444
vn -0.7848 0.0000 -0.6198
vn -0.7444 0.0000 0.6677
vn 0.4646 -0.0000 -0.8855
vn -0.0555 0.9818 0.1814
vn -0.1257 -0.9919 0.0205
vn 0.5811 -0.0924 0.8086
vn -0.6332 0.0966 -0.7679
vn -0.6743 0.0464 0.7370
vn 0.6683 -0.0455 -0.7425
vn 0.1864 0.9824 -0.0136
vn 0.0586 -0.9890 0.1361
vn 0.4752 -0.0924 -0.8750
vn -0.4159 0.0966 0.9043
vn 0.8869 0.0648 0.4573
vn -0.8963 -0.0628 -0.4389
vn -0.8764 0.4464 0.1807
vn -0.7653 0.1411 0.6281
vn -0.5446 -0.4165 0.7279
vn -0.7398 -0.3459 -0.5771
vn -0.6481 -0.6770 0.3488
vn -0.7914 -0.2115 -0.5736
vn -0.4036 -0.4609 0.7904
vn -0.5509 0.6935 -0.4643
vn -0.1187 0.6643 0.7380
vn -0.0542 0.9978 -0.0369
vn 0.0955 -0.9954 -0.0067
vn 0.9166 -0.1006 -0.3869
vn 0.5393 -0.8267 -0.1607
vn 0.8960 0.3641 -0.2541
vn 0.8324 0.0198 -0.5538
vn 0.8723 -0.1662 -0.4599
vn 0.5482 -0.2447 0.7998
vn 0.6446 -0.7176 -0.2637
vn 0.7994 0.6007 0.0094
vn 0.9180 -0.3959 -0.0226
vn 0.4333 0.7402 0.5142
vn 0.3225 0.9124 -0.2518
vn -0.4198 0.4880 -0.7652
vn 0.4537 0.1500 -0.8784
vn -0.3949 -0.4052 -0.8246
vn -0.0182 -0.9998 0.0095
vn 0.2577 -0.7801 -0.5701
vn 0.1459 0.9855 -0.0861
vn -0.0315 0.6851 0.7277
vn -0.8408 0.2716 0.4682
vn -0.9277 -0.2557 0.2719
vn -0.7836 0.5693 0.2487
vn -0.8934 0.2103 0.3969
vn -0.1762 0.9716 0.1581
vn -0.0621 0.9813 0.1819
vn -0.1291 -0.9914 0.0209
vn 0.5810 -0.0924 0.8086
vn 0.1778 0.9840 -0.0111
vn 0.0595 -0.9889 0.1358
vn -0.7089 -0.5295 -0.4659
vn -0.4626 0.4505 -0.7636
vn 0.0589 0.9968 -0.0536
s off
f 1/1/1 4/2/1 3/3/1
f 5/4/2 8/5/2 6/6/2
f 4/7/3 7/8/3 3/9/3
f 5/10/4 2/11/4 1/12/4
f 6/13/5 4/14/5 2/15/5
f 7/16/6 1/17/6 3/18/6
f 9/19/7 12/20/7 11/21/7
f 13/22/8 16/23/8 14/24/8
f 12/25/9 15/26/9 11/27/9
f 13/28/10 10/29/10 9/30/10
f 10/31/11 16/32/11 12/33/11
f 15/34/12 9/35/12 11/36/12
f 18/37/13 19/38/13 17/39/13
f 23/40/14 22/41/14 21/42/14
f 20/43/15 23/44/15 19/45/15
f 21/46/16 18/47/16 17/48/16
f 22/49/17 20/50/17 18/51/17
f 19/52/18 21/53/18 17/54/18
f 36/55/19 34/56/19 40/57/19
f 38/58/20 40/57/20 39/59/20
f 39/59/21 40/57/21 26/60/21
f 35/61/22 34/62/22 37/63/22
f 40/64/23 33/65/23 26/66/23
f 37/63/24 34/62/24 36/67/24
f 25/68/25 39/69/25 26/66/25
f 32/70/26 36/67/26 27/71/26
f 40/57/19 27/72/19 36/55/19
f 30/73/27 28/74/27 39/59/27
f 38/58/19 31/75/19 27/72/19
f 28/74/27 31/75/27 38/58/27
f 38/58/27 39/59/27 28/74/27
f 28/76/28 27/77/28 31/78/28
f 33/65/29 35/79/29 26/66/29
f 26/66/29 35/79/29 25/68/29
f 25/80/30 35/81/30 37/82/30
f 29/83/31 30/84/31 37/82/31
f 30/84/32 25/80/32 37/82/32
f 28/85/33 29/83/33 37/82/33
f 32/86/34 28/85/34 37/82/34
f 41/87/35 44/88/35 49/89/35
f 51/90/36 60/91/36 59/92/36
f 50/93/37 47/94/37 48/95/37
f 51/90/38 50/96/38 52/97/38
f 48/98/35 41/87/35 49/89/35
f 43/99/39 44/100/39 47/94/39
f 47/94/37 41/101/37 48/95/37
f 46/102/40 54/103/40 47/94/40
f 44/88/35 42/104/35 49/89/35
f 47/94/39 44/100/39 41/101/39
f 53/105/41 54/106/41 58/107/41
f 59/92/42 55/108/42 46/109/42
f 61/110/43 58/107/43 56/111/43
f 57/112/44 52/113/44 42/114/44
f 60/115/45 62/116/45 59/117/45
f 62/118/43 61/110/43 56/111/43
f 61/119/44 60/115/44 52/113/44
f 52/113/44 49/120/44 42/114/44
f 56/111/41 54/106/41 55/121/41
f 57/112/44 61/119/44 52/113/44
f 51/90/36 52/97/36 60/91/36
f 56/122/42 55/108/42 62/123/42
f 46/109/42 50/96/42 51/90/42
f 51/90/42 59/92/42 46/109/42
f 48/124/38 52/97/38 50/96/38
f 54/103/46 43/99/46 47/94/46
f 45/125/47 44/100/47 43/99/47
f 43/126/48 53/127/48 58/128/48
f 42/129/49 45/130/49 58/128/49
f 45/130/50 43/126/50 58/128/50
f 57/131/51 42/129/51 58/128/51
f 1/1/52 2/132/52 4/2/52
f 5/4/2 7/133/2 8/5/2
f 4/7/3 8/134/3 7/8/3
f 5/10/4 6/135/4 2/11/4
f 6/13/5 8/136/5 4/14/5
f 7/16/6 5/137/6 1/17/6
f 9/19/53 10/138/53 12/20/53
f 13/22/54 15/139/54 16/23/54
f 12/25/55 16/140/55 15/26/55
f 13/28/10 14/141/10 10/29/10
f 10/31/11 14/142/11 16/32/11
f 15/34/12 13/143/12 9/35/12
f 18/37/56 20/144/56 19/38/56
f 23/40/57 24/145/57 22/41/57
f 20/43/15 24/146/15 23/44/15
f 21/46/16 22/147/16 18/47/16
f 22/49/17 24/148/17 20/50/17
f 19/52/18 23/149/18 21/53/18
f 35/61/58 33/150/58 34/62/58
f 40/64/23 34/151/23 33/65/23
f 25/68/25 30/152/25 39/69/25
f 32/70/59 37/63/59 36/67/59
f 40/57/19 38/58/19 27/72/19
f 30/73/27 29/153/27 28/74/27
f 28/76/28 32/154/28 27/77/28
f 50/93/37 46/102/37 47/94/37
f 46/102/40 55/155/40 54/103/40
f 44/88/35 45/156/35 42/104/35
f 59/92/42 62/123/42 55/108/42
f 61/110/43 57/157/43 58/107/43
f 60/115/45 61/119/45 62/116/45
f 56/111/41 58/107/41 54/106/41
f 48/124/38 49/158/38 52/97/38
f 54/103/60 53/159/60 43/99/60
