# Blender v2.77 (sub 0) OBJ File: ''
# www.blender.org
g Brick_crk_01_Collider
v -0.136944 0.075000 0.001511
v -0.099410 -0.000000 0.094200
v -0.099410 0.075000 0.094200
v 0.018768 -0.000000 0.046344
v 0.018768 0.075000 0.046344
v -0.018766 0.075000 -0.046345
v -0.136944 -0.000000 0.001511
v 0.166553 0.075000 -0.068677
v 0.039053 0.000000 -0.068677
v 0.039053 0.075000 -0.068677
v 0.166553 0.075000 0.031323
v 0.166553 0.000000 -0.068677
v 0.039053 0.075000 0.031323
v 0.166553 -0.000000 0.031323
v -0.018766 0.000000 -0.046345
v 0.039053 -0.000000 0.031323
vt 0.3194 0.3343
vt 0.3356 0.3549
vt 0.3194 0.3549
vt 0.3356 0.2792
vt 0.3518 0.3050
vt 0.3356 0.3050
vt 0.3356 0.3050
vt 0.3194 0.2792
vt 0.3356 0.2792
vt 0.3518 0.3343
vt 0.3356 0.3085
vt 0.3518 0.3085
vt 0.3356 0.3343
vt 0.3518 0.3549
vt 0.3356 0.3549
vt 0.3356 0.3343
vt 0.3194 0.3085
vt 0.3356 0.3085
vt 0.3194 0.3050
vt 0.3518 0.2792
vt 0.3194 0.3343
vt 0.3356 0.3343
vt 0.3356 0.3343
vt 0.3518 0.3343
vn -0.9269 -0.0000 0.3753
vn 0.3753 -0.0000 0.9269
vn -0.3753 0.0000 -0.9269
vn 0.0000 0.0000 -1.0000
vn 1.0000 0.0000 0.0000
vn 0.0000 -0.0000 1.0000
vn 0.0000 1.0000 0.0000
vn 0.9269 0.0000 -0.3753
vn -0.0000 -1.0000 -0.0000
vn -1.0000 -0.0000 0.0000
s 1
f 1/1/1 2/2/1 3/3/1
f 3/4/2 4/5/2 5/6/2
f 6/7/3 7/8/3 1/9/3
f 8/10/4 9/11/4 10/12/4
f 11/13/5 12/14/5 8/15/5
f 13/16/6 14/17/6 11/18/6
f 3/4/7 6/7/7 1/9/7
f 15/19/8 5/6/8 4/5/8
f 15/19/9 2/20/9 7/8/9
f 13/16/7 8/15/7 10/12/7
f 13/16/10 9/11/10 16/21/10
f 14/17/9 9/11/9 12/22/9
f 1/1/1 7/23/1 2/2/1
f 3/4/2 2/20/2 4/5/2
f 6/7/3 15/19/3 7/8/3
f 8/10/4 12/22/4 9/11/4
f 11/13/5 14/24/5 12/14/5
f 13/16/6 16/21/6 14/17/6
f 3/4/7 5/6/7 6/7/7
f 15/19/8 6/7/8 5/6/8
f 15/19/9 4/5/9 2/20/9
f 13/16/7 11/18/7 8/15/7
f 13/16/10 10/12/10 9/11/10
f 14/17/9 16/21/9 9/11/9
