# Blender v2.77 (sub 0) OBJ File: 'LowPoly_Level_Kit_Rocks.blend'
# www.blender.org
g Brick_Pile_m_10_Collider
v 0.207524 0.100000 -0.047026
v 0.142893 0.100000 -0.085077
v 0.207524 0.000000 -0.047026
v 0.142893 0.000000 -0.085077
v 0.336897 0.100000 -0.266770
v 0.272266 0.100000 -0.304821
v 0.336897 0.000000 -0.266770
v 0.272266 0.000000 -0.304821
v -0.157632 -0.000000 0.088051
v -0.157632 0.075000 0.088051
v -0.060803 -0.000000 0.113033
v -0.060803 0.075000 0.113033
v -0.221337 -0.000000 0.334965
v -0.221337 0.075000 0.334965
v -0.124508 -0.000000 0.359947
v -0.124508 0.075000 0.359947
v 0.092482 -0.000000 0.029625
v 0.092482 0.075000 0.029625
v 0.187168 -0.000000 -0.002540
v 0.187168 0.075000 -0.002540
v 0.174503 -0.000000 0.271074
v 0.174503 0.075000 0.271074
v 0.269189 -0.000000 0.238909
v 0.269189 0.075000 0.238909
v -0.356673 -0.000000 -0.127924
v -0.356673 0.075000 -0.127924
v -0.262848 -0.000000 -0.162521
v -0.262848 0.075000 -0.162521
v -0.268450 -0.000000 0.111328
v -0.268450 0.075000 0.111328
v -0.174625 -0.000000 0.076731
v -0.174625 0.075000 0.076731
v -0.167019 0.000000 -0.009267
v -0.167019 0.150511 -0.009267
v -0.111499 -0.000000 -0.221439
v -0.111499 0.150511 -0.221439
v 0.067738 0.000000 0.070719
v 0.067738 0.150511 0.070719
v 0.111965 0.000000 -0.164978
v 0.111965 0.150511 -0.164978
vt 0.4998 0.3070
vt 0.4917 0.2942
vt 0.4998 0.2942
vt 0.4917 0.3070
vt 0.4990 0.3198
vt 0.4917 0.3198
vt 0.4543 0.3268
vt 0.4637 0.2942
vt 0.4637 0.3268
vt 0.4543 0.2942
vt 0.4418 0.3223
vt 0.4418 0.2942
vt 0.4668 0.2615
vt 0.4543 0.2866
vt 0.4543 0.2615
vt 0.8457 0.3694
vt 0.8363 0.3577
vt 0.8457 0.3577
vt 0.8363 0.3260
vt 0.8457 0.3577
vt 0.8363 0.3577
vt 0.8581 0.2863
vt 0.8488 0.2739
vt 0.8581 0.2739
vt 0.7926 0.3268
vt 0.8020 0.3568
vt 0.7926 0.3568
vt 0.8051 0.2942
vt 0.8176 0.2615
vt 0.8176 0.2942
vt 0.4824 0.3229
vt 0.4917 0.3356
vt 0.4824 0.3356
vt 0.4730 0.3573
vt 0.4637 0.3264
vt 0.4730 0.3264
vt 0.4387 0.3689
vt 0.4293 0.3568
vt 0.4387 0.3568
vt 0.4730 0.3264
vt 0.4637 0.2942
vt 0.4730 0.2942
vt 0.4044 0.2615
vt 0.4169 0.2942
vt 0.4044 0.2942
vt 0.4917 0.3481
vt 0.4824 0.3356
vt 0.4917 0.3356
vt 0.4013 0.3268
vt 0.4106 0.3575
vt 0.4013 0.3575
vt 0.4293 0.3691
vt 0.4200 0.3571
vt 0.4293 0.3571
vt 0.4668 0.2615
vt 0.4761 0.2936
vt 0.4668 0.2936
vt 0.4044 0.2942
vt 0.4169 0.3268
vt 0.4044 0.3268
vt 0.0000 0.0000
vt 0.0000 0.0000
vt 0.0000 0.0000
vt 0.0000 0.0000
vt 0.0000 0.0000
vt 0.0000 0.0000
vt 0.0000 0.0000
vt 0.0000 0.0000
vt 0.4917 0.3070
vt 0.4990 0.3070
vt 0.4543 0.2942
vt 0.4543 0.3223
vt 0.4668 0.2866
vt 0.8363 0.3694
vt 0.8457 0.3260
vt 0.8488 0.2863
vt 0.8020 0.3268
vt 0.8051 0.2615
vt 0.4917 0.3229
vt 0.4637 0.3573
vt 0.4293 0.3689
vt 0.4637 0.3264
vt 0.4169 0.2615
vt 0.4824 0.3481
vt 0.4106 0.3268
vt 0.4200 0.3691
vt 0.4761 0.2615
vt 0.4169 0.2942
vn -0.5073 0.0000 0.8617
vn 0.5073 0.0000 -0.8617
vn 0.0000 1.0000 0.0000
vn 0.8617 0.0000 0.5073
vn -0.8617 0.0000 -0.5073
vn 0.2498 0.0000 -0.9683
vn 0.9683 0.0000 0.2498
vn -0.2498 0.0000 0.9683
vn -0.9683 0.0000 -0.2498
vn -0.3217 0.0000 -0.9469
vn 0.9469 0.0000 -0.3217
vn 0.3217 0.0000 0.9469
vn -0.9469 0.0000 0.3217
vn -0.3460 0.0000 -0.9382
vn 0.9382 0.0000 -0.3460
vn 0.3460 0.0000 0.9382
vn -0.9382 0.0000 0.3460
vn -0.9674 0.0000 -0.2532
vn 0.2450 0.0000 -0.9695
vn 0.9828 0.0000 0.1844
vn -0.3225 0.0000 0.9466
s off
f 4/1/1 1/2/1 2/3/1
f 6/4/2 7/5/2 8/6/2
f 6/7/3 1/8/3 5/9/3
f 3/10/4 5/11/4 1/12/4
f 8/13/5 2/14/5 6/15/5
f 12/16/6 9/17/6 10/18/6
f 16/19/7 11/20/7 12/21/7
f 14/22/8 15/23/8 16/24/8
f 10/25/9 13/26/9 14/27/9
f 16/28/3 10/29/3 14/30/3
f 20/31/10 17/32/10 18/33/10
f 24/34/11 19/35/11 20/36/11
f 22/37/12 23/38/12 24/39/12
f 18/40/13 21/41/13 22/42/13
f 22/43/3 20/44/3 18/45/3
f 28/46/14 25/47/14 26/48/14
f 32/49/15 27/50/15 28/51/15
f 30/52/16 31/53/16 32/54/16
f 26/55/17 29/56/17 30/57/17
f 30/58/3 28/59/3 26/60/3
f 36/61/18 33/62/18 34/63/18
f 40/64/19 35/65/19 36/61/19
f 38/66/20 39/67/20 40/64/20
f 34/63/21 37/68/21 38/66/21
f 40/64/3 34/63/3 38/66/3
f 4/1/1 3/69/1 1/2/1
f 6/4/2 5/70/2 7/5/2
f 6/7/3 2/71/3 1/8/3
f 3/10/4 7/72/4 5/11/4
f 8/13/5 4/73/5 2/14/5
f 12/16/6 11/74/6 9/17/6
f 16/19/7 15/75/7 11/20/7
f 14/22/8 13/76/8 15/23/8
f 10/25/9 9/77/9 13/26/9
f 16/28/3 12/78/3 10/29/3
f 20/31/10 19/79/10 17/32/10
f 24/34/11 23/80/11 19/35/11
f 22/37/12 21/81/12 23/38/12
f 18/40/13 17/82/13 21/41/13
f 22/43/3 24/83/3 20/44/3
f 28/46/14 27/84/14 25/47/14
f 32/49/15 31/85/15 27/50/15
f 30/52/16 29/86/16 31/53/16
f 26/55/17 25/87/17 29/56/17
f 30/58/3 32/88/3 28/59/3
f 36/61/18 35/65/18 33/62/18
f 40/64/19 39/67/19 35/65/19
f 38/66/20 37/68/20 39/67/20
f 34/63/21 33/62/21 37/68/21
f 40/64/3 36/61/3 34/63/3
