# Blender v2.77 (sub 0) OBJ File: 'LowPoly_Level_Kit_Rocks.blend'
# www.blender.org
g Brick_Pile_m_05_Collider
v -0.130646 0.000000 0.105804
v -0.130646 0.231285 0.105804
v -0.130646 0.000000 -0.113442
v -0.130646 0.231285 -0.113442
v 0.125065 0.000000 0.105804
v 0.125065 0.231285 0.105804
v 0.125065 0.000000 -0.113442
v 0.125065 0.231285 -0.113442
vn -1.0000 0.0000 0.0000
vn 0.0000 0.0000 -1.0000
vn 1.0000 0.0000 0.0000
vn 0.0000 0.0000 1.0000
vn 0.0000 1.0000 0.0000
s off
f 4//1 1//1 2//1
f 8//2 3//2 4//2
f 6//3 7//3 8//3
f 2//4 5//4 6//4
f 8//5 2//5 6//5
f 4//1 3//1 1//1
f 8//2 7//2 3//2
f 6//3 5//3 7//3
f 2//4 1//4 5//4
f 8//5 4//5 2//5
