# Blender v2.77 (sub 0) OBJ File: 'LowPoly_Level_Kit_Rocks.blend'
# www.blender.org
g Brick_Pile_m_03_Collider
v -0.542283 0.100000 0.199587
v -0.592534 0.100000 0.143911
v -0.542283 0.000000 0.199587
v -0.352983 0.100000 0.028736
v -0.403233 0.100000 -0.026941
v -0.352983 0.000000 0.028736
v -0.403233 0.000000 -0.026941
v -0.402866 -0.000000 0.168149
v -0.402866 0.075000 0.168149
v -0.355751 -0.000000 0.079944
v -0.355751 0.075000 0.079944
v -0.177943 -0.000000 0.288293
v -0.177943 0.075000 0.288293
v -0.130828 -0.000000 0.200088
v -0.130828 0.075000 0.200088
v 0.300964 0.100000 -0.199814
v 0.363682 0.100000 -0.240941
v 0.300964 0.000000 -0.199814
v 0.363682 0.000000 -0.240941
v 0.440797 0.100000 0.013427
v 0.503515 0.100000 -0.027700
v 0.440797 0.000000 0.013427
v 0.503515 0.000000 -0.027700
v -0.592534 0.000000 0.143911
v -0.199897 0.000000 0.122962
v -0.199897 0.227735 0.122962
v -0.199897 0.000000 -0.120309
v -0.199897 0.227735 -0.120309
v 0.303364 0.000000 0.122962
v 0.053995 0.148988 -0.021532
v 0.303364 0.000000 -0.120309
v 0.303364 0.227735 0.017234
v 0.303364 0.249659 0.017234
v 0.051733 0.227735 0.122962
v 0.051733 0.000000 0.122962
v 0.053995 0.227735 -0.021532
v -0.199897 0.148988 -0.120309
v 0.303364 0.148988 -0.120309
v 0.303364 0.148988 0.122962
v 0.303364 0.148988 0.017234
v 0.051733 0.148988 0.122962
v 0.069548 0.148988 -0.120309
v 0.066379 0.148988 -0.100182
v 0.303364 0.227735 -0.060070
v 0.066379 0.227735 -0.100182
v 0.303364 0.148988 -0.060070
v 0.053995 0.249659 -0.021532
v 0.303364 0.249659 -0.060070
v 0.066379 0.249659 -0.100182
vt 0.0665 0.3035
vt 0.0573 0.3204
vt 0.0574 0.3038
vt 0.0482 0.3035
vt 0.0573 0.3223
vt 0.0482 0.3221
vt 0.0000 0.0000
vt 0.0000 0.0000
vt 0.0000 0.0000
vt 0.1074 0.2803
vt 0.1006 0.3016
vt 0.1006 0.2803
vt 0.0482 0.3590
vt 0.0413 0.3673
vt 0.0413 0.3590
vt 0.1028 0.2571
vt 0.0960 0.2784
vt 0.0960 0.2571
vt 0.0000 0.0000
vt 0.0000 0.0000
vt 0.1074 0.2894
vt 0.1128 0.2803
vt 0.1128 0.2894
vt 0.0733 0.3035
vt 0.0802 0.3268
vt 0.0733 0.3268
vt 0.0000 0.0000
vt 0.0000 0.0000
vt 0.0755 0.2571
vt 0.0664 0.2755
vt 0.0664 0.2571
vt 0.0117 0.2803
vt 0.0208 0.2571
vt 0.0208 0.2803
vt 0.1029 0.3267
vt 0.0938 0.3267
vt 0.0000 0.0000
vt 0.0000 0.0000
vt 0.0000 0.0000
vt 0.0000 0.0000
vt 0.0000 0.0000
vt 0.1125 0.3035
vt 0.1075 0.3126
vt 0.1075 0.3035
vt 0.0000 0.0000
vt 0.0000 0.0000
vt 0.0000 0.0000
vt 0.0000 0.0000
vt 0.0000 0.0000
vt 0.0000 0.0000
vt 0.1128 0.2985
vt 0.1074 0.2894
vt 0.1128 0.2894
vt 0.0299 0.3673
vt 0.0368 0.3590
vt 0.0368 0.3673
vt 0.0664 0.2803
vt 0.0732 0.3035
vt 0.0664 0.3035
vt 0.0000 0.0000
vt 0.0000 0.0000
vt 0.0000 0.0000
vt 0.0000 0.0000
vt 0.1029 0.3436
vt 0.0938 0.3436
vt 0.0000 0.0000
vt 0.0000 0.0000
vt 0.0000 0.0000
vt 0.0664 0.3189
vt 0.0573 0.3038
vt 0.1074 0.3016
vt 0.0482 0.3673
vt 0.1028 0.2784
vt 0.1074 0.2803
vt 0.0802 0.3035
vt 0.0755 0.2755
vt 0.0117 0.2571
vt 0.1125 0.3126
vt 0.1074 0.2985
vt 0.0299 0.3590
vt 0.0732 0.2803
vn -0.6700 -0.0000 -0.7424
vn -0.8362 0.0000 0.5484
vn 0.0000 1.0000 0.0000
vn 0.4712 0.0000 -0.8821
vn 0.8821 0.0000 0.4712
vn -0.4712 0.0000 0.8821
vn 0.9999 0.0000 0.0157
vn -0.5484 0.0000 -0.8362
vn 0.0000 0.0000 1.0000
vn 0.8362 0.0000 -0.5484
vn -0.7424 0.0000 0.6700
vn 1.0000 0.0000 0.0000
vn 0.7424 0.0000 -0.6700
vn -1.0000 0.0000 0.0000
vn 0.0754 0.0000 -0.9972
vn 0.5484 0.0000 0.8362
vn 0.0000 0.0000 -1.0000
vn -0.8821 0.0000 -0.4712
vn 0.1669 0.0000 -0.9860
vn -0.9878 0.0000 -0.1555
vn 0.6700 -0.0000 0.7424
vn -0.1536 0.0000 0.9881
s off
f 7/1/1 2/2/1 5/3/1
f 22/4/2 16/5/2 18/6/2
f 36/7/3 26/8/3 34/9/3
f 14/10/4 11/11/4 15/12/4
f 12/13/5 15/14/5 13/15/5
f 8/16/6 13/17/6 9/18/6
f 36/7/7 41/19/7 30/20/7
f 18/21/8 17/22/8 19/23/8
f 2/24/3 4/25/3 5/26/3
f 35/27/9 39/28/9 41/19/9
f 23/29/10 17/30/10 21/31/10
f 26/8/9 41/19/9 34/9/9
f 15/32/3 9/33/3 13/34/3
f 2/2/11 3/35/11 1/36/11
f 37/37/9 27/38/9 28/39/9
f 39/28/12 29/40/12 40/41/12
f 4/42/13 7/43/13 5/44/13
f 43/45/3 42/46/3 37/37/3
f 40/41/3 41/19/3 39/28/3
f 25/47/9 41/19/9 26/8/9
f 38/48/3 43/45/3 46/49/3
f 27/38/14 26/8/14 28/39/14
f 43/45/15 28/39/15 45/50/15
f 21/51/16 22/52/16 23/53/16
f 42/46/17 27/38/17 37/37/17
f 10/54/18 9/55/18 11/56/18
f 17/57/3 20/58/3 21/59/3
f 40/41/12 44/60/12 32/61/12
f 43/45/19 44/60/19 46/49/19
f 36/7/20 49/62/20 45/50/20
f 38/48/12 46/49/12 31/63/12
f 40/41/12 31/63/12 46/49/12
f 1/36/21 6/64/21 4/65/21
f 32/61/22 30/20/22 40/41/22
f 36/7/3 45/50/3 28/39/3
f 45/50/19 48/66/19 44/60/19
f 44/60/12 33/67/12 32/61/12
f 32/61/22 47/68/22 36/7/22
f 47/68/3 48/66/3 49/62/3
f 31/63/17 42/46/17 38/48/17
f 7/1/1 24/69/1 2/2/1
f 22/4/2 20/70/2 16/5/2
f 36/7/3 28/39/3 26/8/3
f 14/10/4 10/71/4 11/11/4
f 12/13/5 14/72/5 15/14/5
f 8/16/6 12/73/6 13/17/6
f 36/7/7 34/9/7 41/19/7
f 18/21/8 16/74/8 17/22/8
f 2/24/3 1/75/3 4/25/3
f 35/27/9 29/40/9 39/28/9
f 23/29/10 19/76/10 17/30/10
f 15/32/3 11/77/3 9/33/3
f 2/2/11 24/69/11 3/35/11
f 4/42/13 6/78/13 7/43/13
f 40/41/3 30/20/3 41/19/3
f 25/47/9 35/27/9 41/19/9
f 38/48/3 42/46/3 43/45/3
f 27/38/14 25/47/14 26/8/14
f 43/45/15 37/37/15 28/39/15
f 21/51/16 20/79/16 22/52/16
f 10/54/18 8/80/18 9/55/18
f 17/57/3 16/81/3 20/58/3
f 40/41/12 46/49/12 44/60/12
f 43/45/19 45/50/19 44/60/19
f 36/7/20 47/68/20 49/62/20
f 40/41/12 29/40/12 31/63/12
f 1/36/21 3/35/21 6/64/21
f 32/61/22 36/7/22 30/20/22
f 45/50/19 49/62/19 48/66/19
f 44/60/12 48/66/12 33/67/12
f 32/61/22 33/67/22 47/68/22
f 47/68/3 33/67/3 48/66/3
f 31/63/17 27/38/17 42/46/17
