# Blender v2.77 (sub 0) OBJ File: 'LowPoly_Level_Kit_Rocks.blend'
# www.blender.org
g Brick_Pile_m_06_Collider
v -0.074449 0.097551 0.069740
v -0.074449 0.230176 0.069740
v -0.130921 0.097551 -0.163658
v -0.130921 0.230176 -0.163658
v 0.194852 0.097551 -0.010951
v 0.194852 0.230176 -0.010951
v 0.120000 0.097551 -0.191077
v 0.120000 0.230176 -0.191077
v 0.391523 -0.001531 -0.558125
v 0.411244 0.069344 -0.572713
v 0.451765 -0.001865 -0.478308
v 0.471486 0.069010 -0.492896
v 0.199348 0.081866 -0.412733
v 0.219069 0.152741 -0.427321
v 0.259590 0.081532 -0.332916
v 0.279311 0.152407 -0.347504
v -0.189490 0.075000 -0.235728
v -0.189490 0.150000 -0.235728
v -0.287987 0.075000 -0.218455
v -0.287987 0.150000 -0.218455
v -0.233536 0.075000 -0.486895
v -0.233536 0.150000 -0.486895
v -0.332033 0.075000 -0.469622
v -0.332033 0.150000 -0.469622
v 0.798811 -0.000000 -0.040594
v 0.798811 0.075000 -0.040594
v 0.718765 -0.000000 0.019345
v 0.718765 0.075000 0.019345
v 0.645965 -0.000000 -0.244710
v 0.645965 0.075000 -0.244710
v 0.565920 -0.000000 -0.184770
v 0.565920 0.075000 -0.184770
v -0.198338 0.254989 0.162040
v -0.123624 0.254989 0.168588
v -0.189607 0.254989 0.062422
v -0.114893 0.254989 0.068970
v -0.198338 -0.000011 0.162040
v -0.123624 -0.000011 0.168588
v -0.189607 -0.000011 0.062422
v -0.114893 -0.000011 0.068970
v -0.077100 0.075000 0.351068
v -0.077100 0.150000 0.351068
v -0.150310 0.075000 0.419188
v -0.150310 0.150000 0.419188
v -0.250804 0.075000 0.164381
v -0.250804 0.150000 0.164381
v -0.324014 0.075000 0.232500
v -0.324014 0.150000 0.232500
v 0.077148 0.325000 0.055862
v 0.003446 0.325000 0.041969
v 0.003446 0.225000 0.041969
v 0.124384 0.325000 -0.194725
v 0.050682 0.325000 -0.208618
v 0.124384 0.225000 -0.194725
v 0.050682 0.225000 -0.208618
v -0.579172 0.100000 0.360370
v -0.608751 0.100000 0.291449
v -0.579172 0.000000 0.360370
v -0.608751 0.000000 0.291449
v -0.344841 0.100000 0.259803
v -0.374419 0.100000 0.190882
v -0.344841 0.000000 0.259803
v -0.374419 0.000000 0.190882
v -0.256166 -0.000000 -0.351756
v -0.256166 0.075000 -0.351756
v -0.355953 -0.000000 -0.358276
v -0.355953 0.075000 -0.358276
v -0.239540 -0.000000 -0.606213
v -0.239540 0.075000 -0.606213
v -0.339327 -0.000000 -0.612733
v -0.339327 0.075000 -0.612733
v -0.345831 -0.000000 -0.271151
v -0.345831 0.075000 -0.271151
v -0.374402 -0.000000 -0.175319
v -0.374402 0.075000 -0.175319
v -0.590203 -0.000000 -0.344005
v -0.590203 0.075000 -0.344005
v -0.618773 -0.000000 -0.248173
v -0.618773 0.075000 -0.248173
v -0.438875 -0.000000 0.583191
v -0.438875 0.075000 0.583191
v -0.526804 -0.000000 0.535562
v -0.317421 -0.000000 0.358972
v -0.317421 0.075000 0.358972
v -0.405350 -0.000000 0.311343
v -0.405350 0.075000 0.311343
v 0.145956 0.075000 0.446053
v 0.145956 0.150000 0.446053
v 0.047459 0.075000 0.463326
v 0.047459 0.150000 0.463326
v 0.101910 0.075000 0.194886
v 0.101910 0.150000 0.194886
v 0.003413 0.075000 0.212159
v 0.003413 0.150000 0.212159
v -0.526421 0.073402 -0.081521
v -0.531838 0.147323 -0.092982
v -0.441866 0.071327 -0.134870
v -0.447283 0.145248 -0.146332
v -0.391529 0.116178 0.130610
v -0.396946 0.190099 0.119148
v -0.306974 0.114102 0.077260
v -0.312391 0.188023 0.065799
v 0.381844 0.074685 0.140212
v 0.397922 0.145560 0.158738
v 0.306957 0.074351 0.206482
v 0.323035 0.145227 0.225008
v 0.221939 0.158082 -0.040067
v 0.238018 0.228957 -0.021541
v 0.147052 0.157748 0.026203
v 0.163130 0.228624 0.044729
v -0.526800 0.075000 0.535562
v 0.077148 0.225000 0.052321
v 0.148750 0.000000 -0.498163
v -0.320803 0.000000 -0.367405
v -0.595765 0.000000 0.006799
v -0.171288 0.000000 0.540985
v 0.208113 0.000000 0.423750
v 0.503359 -0.000000 -0.254716
v 0.385036 0.000000 0.441742
v 0.592948 -0.000000 0.150985
v 0.148750 0.100000 -0.498163
v -0.320803 0.100000 -0.367405
v -0.595765 0.100000 0.006799
v -0.171288 0.100000 0.540985
v 0.208113 0.100000 0.423750
v 0.503359 0.100000 -0.254716
v 0.385036 0.100000 0.441742
v 0.592948 0.100000 0.150985
vt 0.0000 0.0000
vt 0.0000 0.0000
vt 0.0000 0.0000
vt 0.0000 0.0000
vt 0.0000 0.0000
vt 0.0000 0.0000
vt 0.0000 0.0000
vt 0.0000 0.0000
vt 0.9781 0.2597
vt 0.9824 0.2653
vt 0.9781 0.2656
vt 0.9692 0.2896
vt 0.9648 0.2747
vt 0.9692 0.2748
vt 0.9781 0.2899
vt 0.9824 0.2960
vt 0.9781 0.2958
vt 0.9038 0.3203
vt 0.9083 0.3355
vt 0.9038 0.3355
vt 0.9454 0.3051
vt 0.9395 0.3194
vt 0.9395 0.3051
vt 0.1406 0.3559
vt 0.1450 0.3616
vt 0.1406 0.3617
vt 0.1643 0.3355
vt 0.1688 0.3499
vt 0.1643 0.3498
vt 0.2407 0.3237
vt 0.2363 0.3184
vt 0.2407 0.3184
vt 0.1583 0.3497
vt 0.1538 0.3352
vt 0.1583 0.3352
vt 0.1406 0.2747
vt 0.1465 0.2595
vt 0.1465 0.2747
vt 0.4842 0.2805
vt 0.4886 0.2863
vt 0.4842 0.2863
vt 0.3861 0.3317
vt 0.3905 0.3467
vt 0.3861 0.3467
vt 0.4098 0.3494
vt 0.4143 0.3554
vt 0.4098 0.3554
vt 0.4699 0.3184
vt 0.4744 0.3334
vt 0.4699 0.3334
vt 0.4158 0.2595
vt 0.4098 0.2747
vt 0.4098 0.2595
vt 0.9499 0.3545
vt 0.9454 0.3485
vt 0.9499 0.3485
vt 0.9768 0.3322
vt 0.9801 0.3474
vt 0.9768 0.3474
vt 0.9728 0.3322
vt 0.9768 0.3474
vt 0.9728 0.3474
vt 0.9276 0.3348
vt 0.9325 0.3196
vt 0.9325 0.3348
vt 0.9454 0.3336
vt 0.9505 0.3184
vt 0.9505 0.3336
vt 0.8523 0.3574
vt 0.8567 0.3630
vt 0.8523 0.3630
vt 0.8487 0.2899
vt 0.8531 0.3046
vt 0.8487 0.3046
vt 0.8115 0.3555
vt 0.8160 0.3614
vt 0.8115 0.3614
vt 0.8115 0.3348
vt 0.8160 0.3495
vt 0.8115 0.3495
vt 0.7818 0.2595
vt 0.7758 0.2747
vt 0.7758 0.2595
vt 0.9773 0.3474
vt 0.9817 0.3534
vt 0.9773 0.3534
vt 0.9639 0.3604
vt 0.9684 0.3544
vt 0.9684 0.3604
vt 0.9142 0.3355
vt 0.9098 0.3203
vt 0.9142 0.3203
vt 0.9335 0.2595
vt 0.9276 0.2747
vt 0.9276 0.2595
vt 0.8800 0.3199
vt 0.8860 0.3051
vt 0.8860 0.3199
vt 0.8612 0.3594
vt 0.8656 0.3647
vt 0.8612 0.3647
vt 0.8576 0.2747
vt 0.8620 0.2875
vt 0.8576 0.2875
vt 0.8710 0.3071
vt 0.8665 0.3025
vt 0.8710 0.3025
vt 0.8523 0.3323
vt 0.8567 0.3453
vt 0.8523 0.3453
vt 0.8115 0.3051
vt 0.8055 0.2899
vt 0.8115 0.2899
vt 0.2844 0.3203
vt 0.2887 0.3246
vt 0.2843 0.3245
vt 0.3007 0.3470
vt 0.3052 0.3586
vt 0.3007 0.3586
vt 0.3067 0.3616
vt 0.3111 0.3663
vt 0.3067 0.3663
vt 0.2888 0.3352
vt 0.2844 0.3352
vt 0.2948 0.3051
vt 0.2888 0.2899
vt 0.2948 0.2899
vt 0.2363 0.3498
vt 0.2408 0.3524
vt 0.2363 0.3525
vt 0.2372 0.2805
vt 0.2327 0.2747
vt 0.2372 0.2747
vt 0.1406 0.3355
vt 0.1450 0.3499
vt 0.1406 0.3498
vt 0.2000 0.3605
vt 0.2045 0.3658
vt 0.2000 0.3658
vt 0.1762 0.3353
vt 0.1807 0.3497
vt 0.1762 0.3498
vt 0.1406 0.2747
vt 0.1346 0.2899
vt 0.1346 0.2747
vt 0.8612 0.3534
vt 0.8656 0.3594
vt 0.8612 0.3593
vt 0.8487 0.2898
vt 0.8442 0.2747
vt 0.8487 0.2747
vt 0.8612 0.3184
vt 0.8656 0.3244
vt 0.8612 0.3243
vt 0.8442 0.3050
vt 0.8397 0.2899
vt 0.8442 0.2899
vt 0.8174 0.2749
vt 0.8115 0.2899
vt 0.8115 0.2749
vt 0.3674 0.2712
vt 0.3631 0.2660
vt 0.3674 0.2656
vt 0.3445 0.3335
vt 0.3489 0.3485
vt 0.3445 0.3484
vt 0.3674 0.3143
vt 0.3632 0.3082
vt 0.3674 0.3084
vt 0.3498 0.2595
vt 0.3542 0.2742
vt 0.3498 0.2743
vt 0.3304 0.2595
vt 0.3245 0.2738
vt 0.3245 0.2595
vt 0.2274 0.3454
vt 0.2230 0.3573
vt 0.2230 0.3453
vt 0.1346 0.2620
vt 0.1406 0.2747
vt 0.1346 0.2747
vt 0.2238 0.2732
vt 0.2283 0.2618
vt 0.2283 0.2732
vt 0.1822 0.3664
vt 0.1866 0.3615
vt 0.1866 0.3664
vt 0.3408 0.2747
vt 0.3364 0.2899
vt 0.3364 0.2747
vt 0.2710 0.3317
vt 0.2650 0.3199
vt 0.2710 0.3199
vt 0.3007 0.3308
vt 0.3067 0.3199
vt 0.3067 0.3318
vt 0.3497 0.3525
vt 0.3533 0.3484
vt 0.3534 0.3544
vt 0.3520 0.3604
vt 0.3489 0.3663
vt 0.3489 0.3604
vt 0.0000 0.0000
vt 0.0000 0.0000
vt 0.0000 0.0000
vt 0.0000 0.0000
vt 0.0000 0.0000
vt 0.0000 0.0000
vt 0.0000 0.0000
vt 0.0000 0.0000
vt 0.0000 0.0000
vt 0.0000 0.0000
vt 0.0000 0.0000
vt 0.0000 0.0000
vt 0.0000 0.0000
vt 0.0000 0.0000
vt 0.0000 0.0000
vt 0.0000 0.0000
vt 0.9824 0.2595
vt 0.9648 0.2895
vt 0.9824 0.2901
vt 0.9083 0.3203
vt 0.9454 0.3194
vt 0.1450 0.3558
vt 0.1688 0.3355
vt 0.2363 0.3237
vt 0.1538 0.3497
vt 0.1406 0.2595
vt 0.4886 0.2805
vt 0.3905 0.3317
vt 0.4143 0.3494
vt 0.4744 0.3184
vt 0.4158 0.2747
vt 0.9454 0.3545
vt 0.9801 0.3322
vt 0.9768 0.3322
vt 0.9276 0.3196
vt 0.9454 0.3184
vt 0.8567 0.3574
vt 0.8531 0.2899
vt 0.8160 0.3555
vt 0.8160 0.3349
vt 0.7818 0.2747
vt 0.9817 0.3474
vt 0.9639 0.3544
vt 0.9098 0.3355
vt 0.9335 0.2747
vt 0.8800 0.3051
vt 0.8656 0.3594
vt 0.8620 0.2747
vt 0.8665 0.3070
vt 0.8567 0.3323
vt 0.8055 0.3051
vt 0.2888 0.3203
vt 0.3052 0.3469
vt 0.3111 0.3615
vt 0.2888 0.3051
vt 0.2408 0.3474
vt 0.2327 0.2805
vt 0.1450 0.3355
vt 0.2045 0.3605
vt 0.1807 0.3352
vt 0.1406 0.2899
vt 0.8656 0.3534
vt 0.8442 0.2898
vt 0.8656 0.3185
vt 0.8397 0.3050
vt 0.8174 0.2898
vt 0.3631 0.2717
vt 0.3489 0.3336
vt 0.3632 0.3142
vt 0.3542 0.2595
vt 0.3304 0.2738
vt 0.2274 0.3574
vt 0.1406 0.2595
vt 0.2238 0.2595
vt 0.1822 0.3614
vt 0.3408 0.2899
vt 0.2650 0.3316
vt 0.3007 0.3199
vt 0.3496 0.3484
vt 0.3520 0.3663
vn -0.9720 0.0000 0.2352
vn -0.1086 0.0000 -0.9941
vn 0.9234 0.0000 -0.3837
vn 0.2870 0.0000 0.9579
vn 0.0000 1.0000 -0.0000
vn 0.7536 -0.3270 -0.5702
vn 0.6024 -0.0033 0.7982
vn -0.7536 0.3270 0.5702
vn -0.6024 0.0033 -0.7982
vn 0.2629 0.9450 -0.1945
vn 0.1727 0.0000 0.9850
vn -0.9850 0.0000 0.1727
vn -0.1727 0.0000 -0.9850
vn 0.9850 0.0000 -0.1727
vn 0.5994 0.0000 0.8005
vn -0.8005 0.0000 0.5994
vn -0.5994 0.0000 -0.8005
vn 0.8005 0.0000 -0.5994
vn 0.0873 -0.0000 -0.9962
vn -0.0873 -0.0000 0.9962
vn -0.9962 -0.0000 -0.0873
vn 0.9962 0.0000 0.0873
vn 0.6812 0.0000 0.7321
vn -0.7321 0.0000 0.6812
vn -0.6812 0.0000 -0.7321
vn 0.7321 0.0000 -0.6812
vn -0.9189 0.0000 0.3944
vn 0.9189 0.0000 -0.3944
vn 0.3944 0.0000 0.9189
vn -0.3944 0.0000 -0.9189
vn -0.0652 0.0000 0.9979
vn -0.9979 0.0000 -0.0652
vn 0.0652 0.0000 -0.9979
vn 0.9979 0.0000 0.0652
vn 0.9583 0.0000 0.2857
vn -0.2857 0.0000 0.9583
vn -0.9583 0.0000 -0.2857
vn 0.2857 0.0000 -0.9583
vn -0.4763 0.0000 0.8793
vn -0.5290 -0.1677 -0.8319
vn 0.8456 -0.0208 -0.5335
vn 0.5290 0.1677 0.8319
vn -0.8455 0.0208 0.5335
vn -0.0722 0.9856 -0.1528
vn 0.6271 -0.3270 0.7070
vn -0.7489 -0.0033 0.6627
vn -0.6271 0.3270 -0.7070
vn 0.7489 0.0033 -0.6627
vn 0.2144 0.9450 0.2470
vn 0.8793 0.0000 0.4763
vn -0.8793 0.0000 -0.4763
vn 0.4763 0.0000 -0.8793
vn -0.9827 0.0000 -0.1852
vn 0.9827 -0.0066 0.1852
vn -0.1391 -0.0000 0.9903
vn 0.1852 -0.0000 -0.9827
vn 0.9765 0.0000 -0.2156
vn 0.5660 0.0000 -0.8244
vn 0.2952 0.0000 0.9554
vn -0.8058 0.0000 -0.5921
vn 0.8134 0.0000 0.5817
vn -0.1012 0.0000 0.9949
vn -0.7829 0.0000 0.6221
vn -0.2683 0.0000 -0.9633
vn 0.8455 -0.0208 -0.5335
vn 0.9822 -0.0000 0.1878
vn -0.1851 -0.0348 0.9821
s off
f 4/1/1 1/2/1 2/3/1
f 8/4/2 3/5/2 4/1/2
f 6/6/3 7/7/3 8/4/3
f 2/3/4 5/8/4 6/6/4
f 8/4/5 2/3/5 6/6/5
f 12/9/6 9/10/6 10/11/6
f 16/12/7 11/13/7 12/14/7
f 14/15/8 15/16/8 16/17/8
f 10/18/9 13/19/9 14/20/9
f 16/21/10 10/22/10 14/23/10
f 20/24/11 17/25/11 18/26/11
f 24/27/12 19/28/12 20/29/12
f 22/30/13 23/31/13 24/32/13
f 18/33/14 21/34/14 22/35/14
f 24/36/5 18/37/5 22/38/5
f 28/39/15 25/40/15 26/41/15
f 32/42/16 27/43/16 28/44/16
f 30/45/17 31/46/17 32/47/17
f 26/48/18 29/49/18 30/50/18
f 32/51/5 26/52/5 30/53/5
f 36/54/5 33/55/5 34/56/5
f 40/57/19 35/58/19 36/59/19
f 34/60/20 37/61/20 38/62/20
f 35/63/21 37/64/21 33/65/21
f 40/66/22 34/67/22 38/68/22
f 44/69/23 41/70/23 42/71/23
f 48/72/24 43/73/24 44/74/24
f 46/75/25 47/76/25 48/77/25
f 42/78/26 45/79/26 46/80/26
f 48/81/5 42/82/5 46/83/5
f 59/84/27 56/85/27 57/86/27
f 63/87/28 60/88/28 62/89/28
f 57/90/5 60/91/5 61/92/5
f 58/93/29 60/94/29 56/95/29
f 63/96/30 57/97/30 61/98/30
f 67/99/31 64/100/31 65/101/31
f 71/102/32 66/103/32 67/104/32
f 69/105/33 70/106/33 71/107/33
f 65/108/34 68/109/34 69/110/34
f 69/111/5 67/112/5 65/113/5
f 75/114/35 72/115/35 73/116/35
f 79/117/36 74/118/36 75/119/36
f 77/120/37 78/121/37 79/122/37
f 73/116/38 76/123/38 77/124/38
f 77/125/5 75/126/5 73/127/5
f 111/128/39 80/129/39 81/130/39
f 90/131/11 87/132/11 88/133/11
f 94/134/12 89/135/12 90/136/12
f 92/137/13 93/138/13 94/139/13
f 88/140/14 91/141/14 92/142/14
f 94/143/5 88/144/5 92/145/5
f 98/146/40 95/147/40 96/148/40
f 102/149/41 97/150/41 98/151/41
f 100/152/42 101/153/42 102/154/42
f 96/155/43 99/156/43 100/157/43
f 102/158/44 96/159/44 100/160/44
f 106/161/45 103/162/45 104/163/45
f 110/164/46 105/165/46 106/166/46
f 108/167/47 109/168/47 110/169/47
f 104/170/48 107/171/48 108/172/48
f 110/173/49 104/174/49 108/175/49
f 84/176/50 80/177/50 83/178/50
f 111/179/5 84/180/5 86/181/5
f 85/182/51 111/183/51 86/184/51
f 86/185/52 83/186/52 85/187/52
f 53/188/5 49/189/5 52/190/5
f 53/191/53 51/192/53 50/193/53
f 112/194/54 52/195/54 49/196/54
f 112/197/55 50/198/55 51/199/55
f 55/200/56 52/201/56 54/202/56
f 126/203/57 120/204/57 118/205/57
f 121/206/58 118/205/58 113/207/58
f 125/208/59 116/209/59 117/210/59
f 123/211/60 114/212/60 115/213/60
f 128/214/61 119/215/61 120/204/61
f 127/216/62 117/210/62 119/215/62
f 124/217/63 115/213/63 116/209/63
f 122/218/64 113/207/64 114/212/64
f 125/208/5 126/203/5 121/206/5
f 121/206/5 122/218/5 125/208/5
f 123/211/5 124/217/5 122/218/5
f 125/208/5 127/216/5 128/214/5
f 128/214/5 126/203/5 125/208/5
f 122/218/5 124/217/5 125/208/5
f 4/1/1 3/5/1 1/2/1
f 8/4/2 7/7/2 3/5/2
f 6/6/3 5/8/3 7/7/3
f 2/3/4 1/2/4 5/8/4
f 8/4/5 4/1/5 2/3/5
f 12/9/6 11/219/6 9/10/6
f 16/12/7 15/220/7 11/13/7
f 14/15/8 13/221/8 15/16/8
f 10/18/9 9/222/9 13/19/9
f 16/21/10 12/223/10 10/22/10
f 20/24/11 19/224/11 17/25/11
f 24/27/12 23/225/12 19/28/12
f 22/30/13 21/226/13 23/31/13
f 18/33/14 17/227/14 21/34/14
f 24/36/5 20/228/5 18/37/5
f 28/39/15 27/229/15 25/40/15
f 32/42/16 31/230/16 27/43/16
f 30/45/17 29/231/17 31/46/17
f 26/48/18 25/232/18 29/49/18
f 32/51/5 28/233/5 26/52/5
f 36/54/5 35/234/5 33/55/5
f 40/57/19 39/235/19 35/58/19
f 34/60/20 33/236/20 37/61/20
f 35/63/21 39/237/21 37/64/21
f 40/66/22 36/238/22 34/67/22
f 44/69/23 43/239/23 41/70/23
f 48/72/24 47/240/24 43/73/24
f 46/75/25 45/241/25 47/76/25
f 42/78/26 41/242/26 45/79/26
f 48/81/5 44/243/5 42/82/5
f 59/84/27 58/244/27 56/85/27
f 63/87/28 61/245/28 60/88/28
f 57/90/5 56/246/5 60/91/5
f 58/93/29 62/247/29 60/94/29
f 63/96/30 59/248/30 57/97/30
f 67/99/31 66/249/31 64/100/31
f 71/102/32 70/250/32 66/103/32
f 69/105/33 68/251/33 70/106/33
f 65/108/34 64/252/34 68/109/34
f 69/111/5 71/253/5 67/112/5
f 75/114/35 74/254/35 72/115/35
f 79/117/36 78/255/36 74/118/36
f 77/120/37 76/256/37 78/121/37
f 73/116/38 72/115/38 76/123/38
f 77/125/5 79/257/5 75/126/5
f 111/128/39 82/258/39 80/129/39
f 90/131/11 89/259/11 87/132/11
f 94/134/12 93/260/12 89/135/12
f 92/137/13 91/261/13 93/138/13
f 88/140/14 87/262/14 91/141/14
f 94/143/5 90/263/5 88/144/5
f 98/146/40 97/264/40 95/147/40
f 102/149/65 101/265/65 97/150/65
f 100/152/42 99/266/42 101/153/42
f 96/155/43 95/267/43 99/156/43
f 102/158/44 98/268/44 96/159/44
f 106/161/45 105/269/45 103/162/45
f 110/164/46 109/270/46 105/165/46
f 108/167/47 107/271/47 109/168/47
f 104/170/48 103/272/48 107/171/48
f 110/173/49 106/273/49 104/174/49
f 84/176/50 81/274/50 80/177/50
f 111/179/5 81/275/5 84/180/5
f 85/182/51 82/276/51 111/183/51
f 86/185/52 84/277/52 83/186/52
f 53/188/5 50/278/5 49/189/5
f 53/191/53 55/279/53 51/192/53
f 112/194/66 54/280/66 52/195/66
f 112/197/67 49/281/67 50/198/67
f 55/200/56 53/282/56 52/201/56
f 126/203/57 128/214/57 120/204/57
f 121/206/58 126/203/58 118/205/58
f 125/208/59 124/217/59 116/209/59
f 123/211/60 122/218/60 114/212/60
f 128/214/61 127/216/61 119/215/61
f 127/216/62 125/208/62 117/210/62
f 124/217/63 123/211/63 115/213/63
f 122/218/64 121/206/64 113/207/64
