# Blender v2.77 (sub 0) OBJ File: 'LowPoly_Level_Kit_Rocks.blend'
# www.blender.org
g Brick_Pile_m_07_Collider
v -0.112458 0.097405 0.050083
v -0.112458 0.151778 0.050083
v -0.135064 0.101271 -0.208148
v -0.135064 0.155643 -0.208148
v 0.225472 0.100614 -0.028510
v 0.225472 0.154987 -0.028510
v 0.082171 0.099301 -0.224962
v 0.082171 0.153674 -0.224962
v 0.806498 -0.000000 0.312680
v 0.806498 0.075000 0.312680
v 0.742714 -0.000000 0.389696
v 0.742714 0.075000 0.389696
v 0.610105 -0.000000 0.150030
v 0.610105 0.075000 0.150030
v 0.546321 -0.000000 0.227047
v 0.546321 0.075000 0.227047
v -0.597546 0.100000 0.334971
v -0.627125 0.100000 0.266050
v -0.597546 0.000000 0.334971
v -0.627125 0.000000 0.266050
v -0.363215 0.100000 0.234404
v -0.392793 0.100000 0.165483
v -0.363215 0.000000 0.234404
v -0.392793 0.000000 0.165483
v -0.415075 -0.000000 -0.404673
v -0.415075 0.075000 -0.404673
v -0.477674 -0.000000 -0.326690
v -0.477674 0.075000 -0.326690
v -0.613932 -0.000000 -0.564301
v -0.613932 0.075000 -0.564301
v -0.676531 -0.000000 -0.486318
v -0.676531 0.075000 -0.486318
v -0.792116 -0.000000 0.607375
v -0.792116 0.075000 0.607375
v -0.821104 -0.000000 0.511669
v -0.548065 -0.000000 0.533454
v -0.548065 0.075000 0.533454
v -0.577054 -0.000000 0.437748
v -0.577054 0.075000 0.437748
v 0.129614 0.075000 0.419594
v 0.129614 0.150000 0.419594
v 0.031117 0.075000 0.436867
v 0.031117 0.150000 0.436867
v 0.085567 0.075000 0.168427
v 0.085567 0.150000 0.168427
v -0.012930 0.075000 0.185700
v -0.012930 0.150000 0.185700
v -0.542965 0.072467 -0.107222
v -0.548382 0.146388 -0.118684
v -0.458410 0.070392 -0.160571
v -0.463827 0.144313 -0.172033
v -0.408073 0.115243 0.104908
v -0.413490 0.189164 0.093447
v -0.323518 0.113167 0.051559
v -0.328935 0.187088 0.040098
v 0.365230 0.075464 0.119361
v 0.381308 0.146340 0.137886
v 0.290342 0.075131 0.185631
v 0.306421 0.146006 0.204156
v 0.205325 0.158861 -0.060918
v 0.221403 0.229737 -0.042392
v 0.130438 0.158528 0.005352
v 0.146516 0.229403 0.023878
v -0.821102 0.075000 0.511671
v 0.073445 0.000000 -0.374448
v -0.261635 0.000000 -0.368750
v -0.609894 0.000000 -0.011002
v 0.035800 -0.000000 0.441475
v 0.224250 -0.000000 0.348445
v 0.506210 -0.000000 -0.127720
v 0.356796 0.000000 0.429640
v 0.594292 -0.000000 0.032649
v 0.073445 0.100000 -0.374448
v -0.261635 0.100000 -0.368750
v -0.609894 0.100000 -0.011002
v 0.035800 0.100000 0.441475
v 0.224250 0.100000 0.348445
v 0.506210 0.100000 -0.127720
v 0.356796 0.100000 0.429640
v 0.594292 0.100000 0.032649
v -0.178862 -0.000000 0.516949
v -0.178862 0.075000 0.516949
v -0.269289 -0.000000 0.474254
v -0.069988 -0.000000 0.286360
v -0.069988 0.075000 0.286360
v -0.160415 -0.000000 0.243664
v -0.160415 0.075000 0.243664
v -0.269286 0.075000 0.474253
v 0.299008 0.100000 -0.207222
v 0.269429 0.100000 -0.276143
v 0.299008 0.000000 -0.207222
v 0.269429 0.000000 -0.276143
v 0.533339 0.100000 -0.307789
v 0.503761 0.100000 -0.376710
v 0.533339 0.000000 -0.307789
v 0.503761 0.000000 -0.376710
v 0.253687 -0.000000 -0.308420
v 0.253687 0.075000 -0.308420
v 0.158510 -0.000000 -0.339100
v 0.331920 -0.000000 -0.551123
v 0.331920 0.075000 -0.551123
v 0.236743 -0.000000 -0.581803
v 0.236743 0.075000 -0.581803
v 0.158513 0.075000 -0.339101
v -0.325511 0.115300 0.052688
v -0.332427 0.189013 0.040709
v -0.410539 0.115875 0.105318
v -0.417455 0.189588 0.093339
v -0.457651 0.068294 -0.160278
v -0.464566 0.142008 -0.172257
v -0.542678 0.068869 -0.107648
v -0.549594 0.142583 -0.119627
v -0.139849 0.150000 -0.120857
v -0.110270 0.150000 -0.051936
v -0.139849 0.250000 -0.120857
v -0.110270 0.250000 -0.051936
v 0.124061 0.250000 -0.152503
v 0.094483 0.250000 -0.221424
v 0.124061 0.150000 -0.152503
v 0.094483 0.150000 -0.221424
v -0.117862 0.100000 -0.488252
v -0.042862 0.100000 -0.488277
v -0.117862 0.000000 -0.488252
v -0.042862 0.000000 -0.488277
v -0.117777 0.100000 -0.374133
v -0.042777 0.100000 -0.374157
v -0.117777 0.000000 -0.374133
v -0.042777 0.000000 -0.374157
vt 0.9773 0.3474
vt 0.9817 0.3534
vt 0.9773 0.3534
vt 0.0000 0.0000
vt 0.0000 0.0000
vt 0.0000 0.0000
vt 0.0000 0.0000
vt 0.9335 0.2595
vt 0.9276 0.2747
vt 0.9276 0.2595
vt 0.4842 0.2805
vt 0.4886 0.2863
vt 0.4842 0.2863
vt 0.3861 0.3317
vt 0.3905 0.3467
vt 0.3861 0.3467
vt 0.4098 0.3494
vt 0.4143 0.3554
vt 0.4098 0.3554
vt 0.4699 0.3184
vt 0.4744 0.3334
vt 0.4699 0.3334
vt 0.4158 0.2595
vt 0.4098 0.2747
vt 0.4098 0.2595
vt 0.9773 0.3474
vt 0.9817 0.3534
vt 0.9773 0.3534
vt 0.9639 0.3604
vt 0.9684 0.3544
vt 0.9684 0.3604
vt 0.9142 0.3355
vt 0.9098 0.3203
vt 0.9142 0.3203
vt 0.9335 0.2595
vt 0.9276 0.2747
vt 0.9276 0.2595
vt 0.8800 0.3199
vt 0.8860 0.3051
vt 0.8860 0.3199
vt 0.2844 0.3203
vt 0.2887 0.3246
vt 0.2843 0.3245
vt 0.3007 0.3470
vt 0.3052 0.3586
vt 0.3007 0.3586
vt 0.3067 0.3616
vt 0.3111 0.3663
vt 0.3067 0.3663
vt 0.2888 0.3352
vt 0.2844 0.3352
vt 0.2948 0.3051
vt 0.2888 0.2899
vt 0.2948 0.2899
vt 0.2363 0.3498
vt 0.2408 0.3524
vt 0.2363 0.3525
vt 0.2372 0.2805
vt 0.2327 0.2747
vt 0.2372 0.2747
vt 0.1406 0.3355
vt 0.1450 0.3499
vt 0.1406 0.3498
vt 0.2000 0.3605
vt 0.2045 0.3658
vt 0.2000 0.3658
vt 0.1762 0.3353
vt 0.1807 0.3497
vt 0.1762 0.3498
vt 0.1406 0.2747
vt 0.1346 0.2899
vt 0.1346 0.2747
vt 0.8612 0.3534
vt 0.8656 0.3594
vt 0.8612 0.3593
vt 0.8487 0.2898
vt 0.8442 0.2747
vt 0.8487 0.2747
vt 0.8612 0.3184
vt 0.8656 0.3244
vt 0.8612 0.3243
vt 0.8442 0.3050
vt 0.8397 0.2899
vt 0.8442 0.2899
vt 0.8174 0.2749
vt 0.8115 0.2899
vt 0.8115 0.2749
vt 0.3674 0.2712
vt 0.3631 0.2660
vt 0.3674 0.2656
vt 0.3445 0.3335
vt 0.3489 0.3485
vt 0.3445 0.3484
vt 0.3674 0.3143
vt 0.3632 0.3082
vt 0.3674 0.3084
vt 0.3498 0.2595
vt 0.3542 0.2742
vt 0.3498 0.2743
vt 0.3304 0.2595
vt 0.3245 0.2738
vt 0.3245 0.2595
vt 0.2274 0.3454
vt 0.2230 0.3573
vt 0.2230 0.3453
vt 0.1346 0.2620
vt 0.1406 0.2747
vt 0.1346 0.2747
vt 0.2238 0.2732
vt 0.2283 0.2618
vt 0.2283 0.2732
vt 0.1822 0.3664
vt 0.1866 0.3615
vt 0.1866 0.3664
vt 0.0000 0.0000
vt 0.0000 0.0000
vt 0.0000 0.0000
vt 0.0000 0.0000
vt 0.0000 0.0000
vt 0.0000 0.0000
vt 0.0000 0.0000
vt 0.0000 0.0000
vt 0.0000 0.0000
vt 0.0000 0.0000
vt 0.0000 0.0000
vt 0.0000 0.0000
vt 0.0000 0.0000
vt 0.0000 0.0000
vt 0.0000 0.0000
vt 0.0000 0.0000
vt 0.9639 0.3604
vt 0.9684 0.3544
vt 0.9684 0.3604
vt 0.9142 0.3355
vt 0.9098 0.3203
vt 0.9142 0.3203
vt 0.4886 0.2805
vt 0.3905 0.3317
vt 0.4143 0.3494
vt 0.4744 0.3184
vt 0.4158 0.2747
vt 0.9817 0.3474
vt 0.9639 0.3544
vt 0.9098 0.3355
vt 0.9335 0.2747
vt 0.8800 0.3051
vt 0.2888 0.3203
vt 0.3052 0.3469
vt 0.3111 0.3615
vt 0.2888 0.3051
vt 0.2408 0.3474
vt 0.2327 0.2805
vt 0.1450 0.3355
vt 0.2045 0.3605
vt 0.1807 0.3352
vt 0.1406 0.2899
vt 0.8656 0.3534
vt 0.8442 0.2898
vt 0.8656 0.3185
vt 0.8397 0.3050
vt 0.8174 0.2898
vt 0.3631 0.2717
vt 0.3489 0.3336
vt 0.3632 0.3142
vt 0.3542 0.2595
vt 0.3304 0.2738
vt 0.2274 0.3574
vt 0.1406 0.2595
vt 0.2238 0.2595
vt 0.1822 0.3614
vt 0.2363 0.3498
vt 0.2408 0.3524
vt 0.2363 0.3525
vt 0.2274 0.3454
vt 0.2230 0.3573
vt 0.2230 0.3453
vt 0.1346 0.2620
vt 0.1406 0.2747
vt 0.1346 0.2747
vt 0.2238 0.2732
vt 0.2283 0.2618
vt 0.2283 0.2732
vt 0.2408 0.3474
vt 0.2274 0.3574
vt 0.1406 0.2595
vt 0.2238 0.2595
vt 0.9773 0.3474
vt 0.9817 0.3534
vt 0.9773 0.3534
vt 0.9639 0.3604
vt 0.9684 0.3544
vt 0.9684 0.3604
vt 0.9142 0.3355
vt 0.9098 0.3203
vt 0.9142 0.3203
vt 0.9335 0.2595
vt 0.9276 0.2747
vt 0.9276 0.2595
vt 0.8800 0.3199
vt 0.8860 0.3051
vt 0.8860 0.3199
vt 0.9817 0.3474
vt 0.9639 0.3544
vt 0.9098 0.3355
vt 0.9335 0.2747
vt 0.8800 0.3051
vt 0.2363 0.3498
vt 0.2408 0.3524
vt 0.2363 0.3525
vt 0.2274 0.3454
vt 0.2230 0.3573
vt 0.2230 0.3453
vt 0.1346 0.2620
vt 0.1406 0.2747
vt 0.1346 0.2747
vt 0.2238 0.2732
vt 0.2283 0.2618
vt 0.2283 0.2732
vt 0.1822 0.3664
vt 0.1866 0.3615
vt 0.1866 0.3664
vt 0.2408 0.3474
vt 0.2274 0.3574
vt 0.1406 0.2595
vt 0.2238 0.2595
vt 0.1822 0.3614
vt 0.2844 0.3203
vt 0.2887 0.3246
vt 0.2843 0.3245
vt 0.3007 0.3470
vt 0.3052 0.3586
vt 0.3007 0.3586
vt 0.3067 0.3616
vt 0.3111 0.3663
vt 0.3067 0.3663
vt 0.2888 0.3352
vt 0.2844 0.3352
vt 0.2948 0.3051
vt 0.2888 0.2899
vt 0.2948 0.2899
vt 0.2888 0.3203
vt 0.3052 0.3469
vt 0.3111 0.3615
vt 0.2888 0.3051
vt 0.0000 0.0000
vt 0.0000 0.0000
vt 0.8800 0.3199
vt 0.8860 0.3051
vt 0.8860 0.3199
vt 0.9817 0.3474
vt 0.9639 0.3544
vt 0.9098 0.3355
vt 0.9335 0.2747
vt 0.8800 0.3051
vt 0.9773 0.3474
vt 0.9817 0.3534
vt 0.9773 0.3534
vt 0.9142 0.3355
vt 0.9098 0.3203
vt 0.9142 0.3203
vt 0.9335 0.2595
vt 0.9276 0.2747
vt 0.9276 0.2595
vt 0.8800 0.3199
vt 0.8860 0.3051
vt 0.8860 0.3199
vt 0.9817 0.3474
vt 0.9098 0.3355
vt 0.9335 0.2747
vt 0.8800 0.3051
vt 0.0000 0.0000
vt 0.0000 0.0000
vn -0.9189 0.0000 0.3944
vn -0.0094 1.0000 0.0002
vn 0.2265 0.0000 0.9740
vn 0.8079 0.0000 -0.5893
vn 0.3944 0.0000 0.9189
vn 0.7702 0.0000 0.6378
vn -0.6378 0.0000 0.7702
vn -0.7702 0.0000 -0.6378
vn 0.6378 0.0000 -0.7702
vn 0.0000 1.0000 0.0000
vn 0.9189 0.0000 -0.3944
vn -0.3944 0.0000 -0.9189
vn 0.7798 0.0000 0.6260
vn -0.6260 0.0000 0.7798
vn -0.7798 0.0000 -0.6260
vn 0.6260 0.0000 -0.7798
vn -0.9571 0.0000 0.2899
vn 0.1727 0.0000 0.9850
vn -0.9850 0.0000 0.1727
vn -0.1727 0.0000 -0.9850
vn 0.9850 0.0000 -0.1727
vn -0.5290 -0.1677 -0.8319
vn 0.8456 -0.0208 -0.5335
vn 0.5290 0.1677 0.8319
vn -0.8455 0.0208 0.5335
vn -0.0722 0.9856 -0.1528
vn 0.6271 -0.3270 0.7070
vn -0.7489 -0.0033 0.6627
vn -0.6271 0.3270 -0.7070
vn 0.7489 0.0033 -0.6627
vn 0.2144 0.9450 0.2470
vn 0.2899 0.0000 0.9571
vn -0.2899 0.0000 -0.9571
vn 0.9571 0.0000 -0.2899
vn 0.8765 0.0000 -0.4814
vn 0.4953 0.0000 -0.8687
vn 0.4427 0.0000 0.8967
vn -0.7165 0.0000 -0.6975
vn 0.8582 0.0000 0.5134
vn -0.5224 0.0000 0.8527
vn -0.5739 0.0000 0.8189
vn -0.0170 0.0000 -0.9999
vn 0.8455 -0.0208 -0.5335
vn -0.8456 0.0208 0.5335
vn -0.4270 0.0000 0.9043
vn 0.9043 0.0000 0.4270
vn -0.9043 0.0000 -0.4269
vn -0.9043 0.0000 -0.4270
vn -0.3068 0.0000 0.9518
vn 0.9518 0.0000 0.3068
vn -0.9518 0.0000 -0.3068
vn 0.3068 0.0000 -0.9518
vn 0.5182 0.1843 0.8352
vn -0.8503 0.0058 0.5263
vn -0.5182 -0.1843 -0.8352
vn 0.8503 -0.0058 -0.5263
vn -0.0922 0.9828 -0.1597
vn -0.0772 0.0000 -0.9970
vn -0.9962 0.0000 0.0872
vn -0.0003 0.0000 -1.0000
vn -1.0000 0.0000 0.0007
vn 1.0000 0.0000 -0.0007
vn 0.0102 0.9998 0.0141
s off
f 113/1/1 116/2/1 115/3/1
f 8/4/2 2/5/2 6/6/2
f 2/5/3 5/7/3 6/6/3
f 5/7/4 8/4/4 6/6/4
f 114/8/5 117/9/5 116/10/5
f 12/11/6 9/12/6 10/13/6
f 16/14/7 11/15/7 12/16/7
f 14/17/8 15/18/8 16/19/8
f 10/20/9 13/21/9 14/22/9
f 16/23/10 10/24/10 14/25/10
f 20/26/1 17/27/1 18/28/1
f 24/29/11 21/30/11 23/31/11
f 18/32/10 21/33/10 22/34/10
f 19/35/5 21/36/5 17/37/5
f 24/38/12 18/39/12 22/40/12
f 28/41/13 25/42/13 26/43/13
f 32/44/14 27/45/14 28/46/14
f 30/47/15 31/48/15 32/49/15
f 26/43/16 29/50/16 30/51/16
f 30/52/10 28/53/10 26/54/10
f 64/55/17 33/56/17 34/57/17
f 43/58/18 40/59/18 41/60/18
f 47/61/19 42/62/19 43/63/19
f 45/64/20 46/65/20 47/66/20
f 41/67/21 44/68/21 45/69/21
f 47/70/10 41/71/10 45/72/10
f 51/73/22 48/74/22 49/75/22
f 55/76/23 50/77/23 51/78/23
f 53/79/24 54/80/24 55/81/24
f 49/82/25 52/83/25 53/84/25
f 55/85/26 49/86/26 53/87/26
f 59/88/27 56/89/27 57/90/27
f 63/91/28 58/92/28 59/93/28
f 61/94/29 62/95/29 63/96/29
f 57/97/30 60/98/30 61/99/30
f 63/100/31 57/101/31 61/102/31
f 37/103/32 33/104/32 36/105/32
f 64/106/10 37/107/10 39/108/10
f 38/109/33 64/110/33 39/111/33
f 39/112/34 36/113/34 38/114/34
f 78/115/35 72/116/35 70/117/35
f 73/118/36 70/117/36 65/119/36
f 77/120/37 68/121/37 69/122/37
f 75/123/38 66/124/38 67/125/38
f 80/126/39 71/127/39 72/116/39
f 79/128/40 69/122/40 71/127/40
f 76/129/41 67/125/41 68/121/41
f 74/130/42 65/119/42 66/124/42
f 77/120/10 78/115/10 73/118/10
f 73/118/10 74/130/10 77/120/10
f 75/123/10 76/129/10 74/130/10
f 77/120/10 79/128/10 80/126/10
f 80/126/10 78/115/10 77/120/10
f 74/130/10 76/129/10 77/120/10
f 120/131/11 117/132/11 119/133/11
f 115/134/10 117/135/10 118/136/10
f 12/11/6 11/137/6 9/12/6
f 16/14/7 15/138/7 11/15/7
f 14/17/8 13/139/8 15/18/8
f 10/20/9 9/140/9 13/21/9
f 16/23/10 12/141/10 10/24/10
f 20/26/1 19/142/1 17/27/1
f 24/29/11 22/143/11 21/30/11
f 18/32/10 17/144/10 21/33/10
f 19/35/5 23/145/5 21/36/5
f 24/38/12 20/146/12 18/39/12
f 28/41/13 27/147/13 25/42/13
f 32/44/14 31/148/14 27/45/14
f 30/47/15 29/149/15 31/48/15
f 26/43/16 25/42/16 29/50/16
f 30/52/10 32/150/10 28/53/10
f 64/55/17 35/151/17 33/56/17
f 43/58/18 42/152/18 40/59/18
f 47/61/19 46/153/19 42/62/19
f 45/64/20 44/154/20 46/65/20
f 41/67/21 40/155/21 44/68/21
f 47/70/10 43/156/10 41/71/10
f 51/73/22 50/157/22 48/74/22
f 55/76/43 54/158/43 50/77/43
f 53/79/24 52/159/24 54/80/24
f 49/82/44 48/160/44 52/83/44
f 55/85/26 51/161/26 49/86/26
f 59/88/27 58/162/27 56/89/27
f 63/91/28 62/163/28 58/92/28
f 61/94/29 60/164/29 62/95/29
f 57/97/30 56/165/30 60/98/30
f 63/100/31 59/166/31 57/101/31
f 37/103/32 34/167/32 33/104/32
f 64/106/10 34/168/10 37/107/10
f 38/109/33 35/169/33 64/110/33
f 39/112/34 37/170/34 36/113/34
f 78/115/35 80/126/35 72/116/35
f 73/118/36 78/115/36 70/117/36
f 77/120/37 76/129/37 68/121/37
f 75/123/38 74/130/38 66/124/38
f 80/126/39 79/128/39 71/127/39
f 79/128/40 77/120/40 69/122/40
f 76/129/41 75/123/41 67/125/41
f 74/130/42 73/118/42 65/119/42
f 88/171/45 81/172/45 82/173/45
f 85/174/46 81/175/46 84/176/46
f 88/177/10 85/178/10 87/179/10
f 86/180/47 88/181/47 87/182/47
f 88/171/45 83/183/45 81/172/45
f 85/174/46 82/184/46 81/175/46
f 88/177/10 82/185/10 85/178/10
f 86/180/48 83/186/48 88/181/48
f 92/187/1 89/188/1 90/189/1
f 96/190/11 93/191/11 95/192/11
f 90/193/10 93/194/10 94/195/10
f 91/196/5 93/197/5 89/198/5
f 96/199/12 90/200/12 94/201/12
f 92/187/1 91/202/1 89/188/1
f 96/190/11 94/203/11 93/191/11
f 90/193/10 89/204/10 93/194/10
f 91/196/5 95/205/5 93/197/5
f 96/199/12 92/206/12 90/200/12
f 104/207/49 97/208/49 98/209/49
f 101/210/50 97/211/50 100/212/50
f 104/213/10 101/214/10 103/215/10
f 102/216/51 104/217/51 103/218/51
f 103/219/52 100/220/52 102/221/52
f 104/207/49 99/222/49 97/208/49
f 101/210/50 98/223/50 97/211/50
f 104/213/10 98/224/10 101/214/10
f 102/216/51 99/225/51 104/217/51
f 103/219/52 101/226/52 100/220/52
f 108/227/53 105/228/53 106/229/53
f 112/230/54 107/231/54 108/232/54
f 110/233/55 111/234/55 112/235/55
f 106/229/56 109/236/56 110/237/56
f 110/238/57 108/239/57 106/240/57
f 108/227/53 107/241/53 105/228/53
f 112/230/54 111/242/54 107/231/54
f 110/233/55 109/243/55 111/234/55
f 106/229/56 105/228/56 109/236/56
f 110/238/57 112/244/57 108/239/57
f 8/4/58 3/245/58 4/246/58
f 3/245/59 2/5/59 4/246/59
f 120/247/12 115/248/12 118/249/12
f 113/1/1 114/250/1 116/2/1
f 120/131/11 118/251/11 117/132/11
f 115/134/10 116/252/10 117/135/10
f 114/8/5 119/253/5 117/9/5
f 120/247/12 113/254/12 115/248/12
f 124/255/60 121/256/60 122/257/60
f 122/258/10 125/259/10 126/260/10
f 123/261/61 125/262/61 121/263/61
f 128/264/62 122/265/62 126/266/62
f 124/255/60 123/267/60 121/256/60
f 122/258/10 121/268/10 125/259/10
f 123/261/61 127/269/61 125/262/61
f 128/264/62 124/270/62 122/265/62
f 8/4/63 4/246/63 2/5/63
f 2/5/3 1/271/3 5/7/3
f 5/7/4 7/272/4 8/4/4
f 8/4/58 7/272/58 3/245/58
f 3/245/59 1/271/59 2/5/59
