# Blender v2.77 (sub 0) OBJ File: 'LowPoly_Level_Kit_Rocks.blend'
# www.blender.org
g Brick_crk_05_Collider
v 0.148690 -0.000000 0.085356
v 0.166656 -0.000000 -0.013017
v 0.166656 0.075000 -0.013017
v 0.148690 0.075000 0.085356
v -0.034601 0.073118 0.053048
v 0.024729 0.075000 -0.003021
v -0.028212 -0.000000 0.053048
v 0.025105 0.000000 -0.003290
v -0.127499 -0.000000 0.050000
v -0.127499 -0.000000 -0.050000
v -0.127499 0.075000 -0.050000
v -0.127499 0.075000 0.050000
v -0.052327 0.073118 0.050000
v -0.052327 -0.000000 0.050000
v 0.006426 0.075000 -0.050000
v 0.006548 -0.000000 -0.050000
vt 0.0386 0.2908
vt 0.0277 0.3138
vt 0.0277 0.2837
vt 0.0738 0.3401
vt 0.0612 0.3177
vt 0.0738 0.3177
vt 0.0570 0.3176
vt 0.0444 0.2939
vt 0.0570 0.2938
vt 0.0738 0.3566
vt 0.0628 0.3402
vt 0.0738 0.3401
vt 0.0190 0.3152
vt 0.0167 0.2921
vt 0.0262 0.2837
vt 0.0444 0.3401
vt 0.0612 0.3275
vt 0.0612 0.3401
vt 0.0445 0.2847
vt 0.0444 0.3138
vt 0.0680 0.2837
vt 0.0570 0.3136
vt 0.0570 0.2837
vt 0.0444 0.3500
vt 0.0318 0.3381
vt 0.0444 0.3373
vt 0.0444 0.3527
vt 0.0567 0.3401
vt 0.0567 0.3527
vt 0.0612 0.3401
vt 0.0505 0.3401
vt 0.0109 0.3377
vt 0.0233 0.3544
vt 0.0109 0.3544
vt 0.0445 0.3177
vt 0.0612 0.3567
vt 0.0109 0.3152
vt 0.0503 0.3204
vt 0.0570 0.2837
vt 0.0693 0.3136
vt 0.0319 0.3499
vt 0.0233 0.3467
vn 0.0000 -1.0000 -0.0000
vn 0.0000 0.0000 -1.0000
vn -0.0703 0.0032 -0.9975
vn 0.9837 0.0000 0.1797
vn -0.0136 0.9997 0.0191
vn -0.7263 -0.0012 -0.6874
vn -0.1797 0.0000 0.9837
vn 0.8617 -0.0000 0.5073
vn 0.0000 0.0000 1.0000
vn 0.0250 0.9997 0.0000
vn -1.0000 0.0000 0.0000
vn -0.0686 0.0000 -0.9976
vn 0.0000 1.0000 0.0000
vn -0.6846 -0.0598 -0.7264
vn -0.1734 -0.0152 0.9847
vn 0.8622 0.0014 0.5066
vn 0.0000 0.9998 0.0188
s off
f 8/1/1 1/2/1 7/3/1
f 10/4/2 15/5/2 16/6/2
f 3/7/3 8/8/3 6/9/3
f 2/10/4 4/11/4 1/12/4
f 4/13/5 6/14/5 5/15/5
f 10/16/1 14/17/1 9/18/1
f 7/19/6 6/9/6 8/8/6
f 8/1/1 2/20/1 1/2/1
f 4/21/7 7/22/7 1/23/7
f 16/24/8 13/25/8 14/26/8
f 13/27/9 9/28/9 14/29/9
f 13/27/10 11/30/10 12/31/10
f 9/32/11 11/33/11 10/34/11
f 10/4/2 11/30/2 15/5/2
f 3/7/12 2/35/12 8/8/12
f 2/10/4 3/36/4 4/11/4
f 4/13/13 3/37/13 6/14/13
f 10/16/1 16/38/1 14/17/1
f 7/19/14 5/39/14 6/9/14
f 4/21/15 5/40/15 7/22/15
f 16/24/16 15/41/16 13/25/16
f 13/27/9 12/31/9 9/28/9
f 13/27/17 15/41/17 11/30/17
f 9/32/11 12/42/11 11/33/11
