# Blender v2.77 (sub 0) OBJ File: ''
# www.blender.org
g Rocks_Sharp_m_03_Collider
v -0.182398 0.531312 -0.481311
v -0.093181 0.659920 0.168126
v 0.050119 0.547787 -0.306539
v 0.326337 0.488645 0.248251
v 0.126343 0.329847 0.222357
v -0.231813 -0.019450 -0.644584
v 0.218475 0.581602 0.498969
v -0.046826 0.495892 0.443369
v -0.423054 0.148244 -0.032887
v -0.444023 0.346770 -0.264762
v -0.335924 -0.050084 -0.300332
v -0.464104 -0.016620 -0.384410
v -0.477085 0.294067 -0.587601
v -0.331187 0.398434 -0.691008
v -0.522889 -0.110800 -0.984560
v -0.250200 0.077967 -0.891042
v 0.181193 0.498799 -0.254254
v 0.716042 0.000125 0.586395
v 0.067906 -0.004097 0.161264
v 0.752982 0.147412 0.453151
v -0.576109 0.224041 0.491862
v -0.363354 0.406151 0.563054
v -0.466851 0.292477 0.167062
v -0.475319 0.001701 0.190394
v -0.079561 -0.000000 0.508725
v 0.522854 0.432111 0.387004
v 0.077324 0.448780 0.616199
v 0.762962 0.148986 0.622083
v 0.043936 0.456155 0.365215
v -0.145554 0.201930 0.101234
v 0.747477 0.133089 -0.593792
v 0.372242 -0.024934 0.027677
v 0.167246 -0.035436 -0.184527
v 0.312240 0.129782 -0.017095
v -0.133810 -0.167091 0.302161
v -0.467757 -0.032162 -1.112746
vn 0.0848 0.9751 -0.2048
vn 0.6157 -0.7855 0.0621
vn 0.1071 -0.7528 0.6495
vn -0.8337 0.3800 0.4008
vn -0.4763 -0.7734 0.4183
vn -0.0098 -0.8047 0.5936
vn -0.6191 0.7826 -0.0644
vn -0.6041 0.7934 -0.0741
vn -0.9943 0.0600 0.0880
vn -0.9949 0.0117 0.1000
vn 0.5638 -0.8201 0.0975
vn 0.8403 -0.4797 -0.2523
vn 0.3891 0.9134 -0.1197
vn 0.5054 -0.7153 0.4826
vn 0.4743 0.8723 -0.1194
vn 0.3531 0.9287 -0.1128
vn 0.6112 -0.7194 -0.3300
vn -0.9948 0.0139 0.1006
vn -0.0109 -0.8035 0.5952
vn 0.4770 0.5490 -0.6864
vn 0.8404 -0.4795 -0.2524
vn 0.4770 0.5490 -0.6863
vn 0.4785 0.5479 -0.6862
vn 0.4122 -0.6659 -0.6218
vn -0.6390 0.7674 -0.0533
vn -0.3772 -0.8011 0.4647
vn 0.3237 0.7517 0.5746
vn -0.1013 0.9939 0.0427
vn -0.2213 0.9512 -0.2152
vn 0.9560 -0.2884 -0.0538
vn -0.0010 -0.9999 0.0114
vn -0.0103 -0.9999 0.0074
vn -0.2195 -0.0717 -0.9730
vn -0.0541 -0.3305 -0.9422
vn -0.9479 0.0021 -0.3184
vn -0.1330 -0.2222 0.9659
vn -0.0951 -0.2036 0.9744
vn 0.0675 0.6940 -0.7168
vn -0.0983 -0.1991 0.9750
vn 0.7825 0.6204 -0.0520
vn 0.3740 0.0878 -0.9233
vn 0.1883 -0.9730 -0.1337
vn 0.7173 0.4356 0.5438
vn -0.4867 0.7947 -0.3627
vn 0.3545 0.3842 0.8525
vn -0.8391 0.3934 0.3757
vn -0.3567 -0.9169 0.1788
vn 0.2950 -0.9555 0.0042
vn -0.3593 0.7738 0.5217
vn 0.6043 -0.7682 -0.2114
vn -0.9276 0.3098 -0.2089
vn 0.4408 0.5528 -0.7072
vn -0.6127 0.7872 -0.0699
vn -0.7017 0.5996 -0.3849
vn 0.0491 0.9985 0.0228
vn 0.0516 0.7006 -0.7117
vn -0.0958 -0.2000 0.9751
vn 0.3606 0.1036 -0.9269
vn -0.6345 0.7492 -0.1898
vn 0.1960 -0.9704 -0.1413
s off
f 1//1 2//1 3//1
f 4//2 5//2 6//2
f 7//3 8//3 5//3
f 9//4 2//4 10//4
f 11//5 9//5 12//5
f 11//6 5//6 9//6
f 13//7 10//7 2//7
f 1//8 14//8 2//8
f 12//9 9//9 15//9
f 10//10 13//10 9//10
f 11//11 6//11 5//11
f 4//12 6//12 16//12
f 7//13 17//13 3//13
f 7//14 5//14 4//14
f 4//15 17//15 7//15
f 2//16 7//16 3//16
f 15//17 16//17 6//17
f 13//18 15//18 9//18
f 5//19 8//19 9//19
f 16//20 14//20 3//20
f 16//21 17//21 4//21
f 1//22 3//22 14//22
f 3//23 17//23 16//23
f 18//24 19//24 20//24
f 21//25 22//25 23//25
f 24//26 25//26 21//26
f 26//27 27//27 28//27
f 22//28 27//28 29//28
f 29//29 23//29 22//29
f 20//30 28//30 18//30
f 19//31 18//31 25//31
f 25//32 24//32 19//32
f 23//33 30//33 24//33
f 19//34 24//34 30//34
f 24//35 21//35 23//35
f 22//36 21//36 25//36
f 25//37 18//37 28//37
f 30//38 29//38 26//38
f 25//39 27//39 22//39
f 20//40 26//40 28//40
f 19//41 26//41 20//41
f 31//42 32//42 33//42
f 31//43 34//43 32//43
f 34//44 31//44 33//44
f 32//45 34//45 35//45
f 9//46 8//46 2//46
f 15//47 11//47 12//47
f 11//48 15//48 6//48
f 2//49 8//49 7//49
f 15//50 36//50 16//50
f 13//51 36//51 15//51
f 16//52 36//52 14//52
f 14//53 13//53 2//53
f 13//54 14//54 36//54
f 26//55 29//55 27//55
f 30//56 23//56 29//56
f 25//57 28//57 27//57
f 19//58 30//58 26//58
f 35//59 34//59 33//59
f 32//60 35//60 33//60
