# Blender v2.77 (sub 0) OBJ File: ''
# www.blender.org
g Rock_Sharp_s_10_Collider
v 0.071057 0.347124 -0.071057
v 0.121968 0.000000 -0.063314
v -0.000963 -0.003755 -0.129116
v 0.059076 0.430218 0.058737
v 0.121915 -0.000002 0.014866
v 0.008986 0.780510 0.003045
v -0.056601 0.460508 -0.054969
v -0.060451 0.418007 0.060442
v -0.106769 0.006197 -0.055128
v -0.018466 -0.000000 0.121968
v 0.048230 -0.000000 0.121968
vn 0.4702 0.0493 -0.8812
vn 0.9895 0.1447 -0.0013
vn 0.9899 0.1417 0.0007
vn 0.0292 0.1725 -0.9846
vn -0.9803 0.1939 0.0387
vn -0.5679 0.0630 -0.8207
vn 0.9894 0.1451 0.0007
vn -0.8950 -0.0243 0.4454
vn 0.0000 0.1454 0.9894
vn 0.0175 0.1597 -0.9870
vn -0.9939 0.1098 0.0073
vn 0.8222 0.0624 0.5657
vn -0.0019 0.1567 0.9876
vn -0.0008 0.1455 0.9894
s off
f 1//1 2//1 3//1
f 1//2 4//2 5//2
f 1//3 6//3 4//3
f 7//4 6//4 1//4
f 7//5 8//5 6//5
f 7//6 3//6 9//6
f 2//7 1//7 5//7
f 9//8 10//8 8//8
f 10//9 11//9 4//9
f 1//10 3//10 7//10
f 7//11 9//11 8//11
f 4//12 11//12 5//12
f 4//13 6//13 8//13
f 8//14 10//14 4//14
