# Blender v2.77 (sub 0) OBJ File: ''
# www.blender.org
g Rock_Sharp_s_06_Collider
v -0.075631 0.349573 -0.067445
v -0.028052 0.619086 0.024935
v 0.001150 0.731680 -0.010148
v -0.081048 0.308534 0.071354
v 0.036788 0.552903 0.032700
v 0.077189 0.333755 -0.069301
v 0.085639 0.269742 0.075906
v -0.109771 -0.000000 0.097574
v 0.109771 -0.000000 0.097574
v -0.109771 0.000000 -0.097574
v 0.109771 0.000000 -0.097574
vn -0.9693 0.2132 -0.1227
vn 0.0276 0.1432 0.9893
vn 0.9814 0.1906 -0.0209
vn 0.0000 0.0801 0.9968
vn -0.9957 0.0927 0.0000
vn 0.9960 0.0891 0.0000
vn 0.1496 0.2586 0.9543
vn -0.9854 0.1699 0.0118
vn 0.0084 0.1523 0.9883
vn 0.9848 0.1728 0.0189
vn 0.0033 0.1476 -0.9890
vn 0.0000 0.0844 -0.9964
vn -0.0073 0.0854 0.9963
vn -0.9951 0.0980 -0.0099
vn 0.9950 0.0984 -0.0145
vn -0.0032 0.0862 -0.9963
s off
f 1//1 2//1 3//1
f 4//2 5//2 2//2
f 5//3 6//3 3//3
f 7//4 8//4 9//4
f 4//5 10//5 8//5
f 11//6 7//6 9//6
f 2//7 5//7 3//7
f 1//8 4//8 2//8
f 4//9 7//9 5//9
f 5//10 7//10 6//10
f 3//11 6//11 1//11
f 10//12 6//12 11//12
f 7//13 4//13 8//13
f 4//14 1//14 10//14
f 11//15 6//15 7//15
f 10//16 1//16 6//16
