# Blender v2.77 (sub 0) OBJ File: ''
# www.blender.org
g Rock_Sharp_crk_m_01_Collider
v 1.269518 0.364821 -0.784836
v 1.001983 0.037844 -0.484423
v 0.711832 0.070393 -0.774989
v -0.620028 0.273285 0.584335
v 0.088003 0.532376 0.093046
v -0.639091 0.319468 -0.080265
v -0.107766 0.107317 0.394738
v 0.810735 -0.015698 -0.602944
v -0.038428 -0.001155 -0.506921
v -0.024934 0.009249 0.333600
v 0.193152 0.404760 -0.374043
v -0.943560 -0.007937 0.600589
v -1.096682 0.000057 0.291382
v 0.403895 0.081361 0.190787
v 0.265608 0.516517 0.050032
v 0.703411 0.498805 -0.105668
v -0.187179 -0.015096 0.356817
v -0.281616 0.000558 -0.361902
v -0.043742 0.404760 -0.310933
vn 0.4010 -0.7758 -0.4873
vn -0.2966 0.9521 0.0747
vn 0.4274 0.3841 0.8184
vn -0.0627 -0.9065 -0.4175
vn -0.0157 -0.9998 0.0126
vn 0.5387 -0.5877 -0.6037
vn -0.3372 0.4611 -0.8208
vn -0.2880 0.5186 -0.8051
vn -0.6119 0.7226 0.3217
vn 0.1502 -0.9691 0.1955
vn -0.0486 0.9679 -0.2468
vn -0.8640 0.5033 0.0150
vn -0.0152 -0.9997 -0.0198
vn 0.2918 -0.2829 0.9137
vn 0.8619 -0.4916 -0.1240
vn 0.2379 0.3665 0.8995
vn 0.1989 -0.4054 0.8922
vn -0.3818 0.3334 -0.8620
vn -0.0153 -0.9997 -0.0182
vn -0.2236 0.9480 -0.2266
vn 0.8634 -0.4881 -0.1274
vn -0.8697 0.4936 0.0079
vn 0.7451 -0.0630 0.6640
vn -0.6254 -0.0119 -0.7802
vn -0.5298 0.8449 0.0739
vn 0.2373 -0.9421 0.2368
vn -0.0543 0.9701 -0.2367
vn 0.8499 -0.5088 -0.1373
vn 0.3233 0.3827 0.8655
vn 0.7644 -0.0339 0.6438
s off
f 1//1 2//1 3//1
f 4//2 5//2 6//2
f 4//3 7//3 5//3
f 8//4 9//4 3//4
f 8//5 10//5 9//5
f 2//6 8//6 3//6
f 3//7 9//7 11//7
f 1//8 3//8 11//8
f 12//9 4//9 13//9
f 14//10 8//10 2//10
f 11//11 15//11 16//11
f 15//12 11//12 10//12
f 17//13 13//13 18//13
f 4//14 12//14 17//14
f 19//15 17//15 18//15
f 14//16 15//16 10//16
f 4//17 17//17 7//17
f 6//18 19//18 18//18
f 12//19 13//19 17//19
f 5//20 19//20 6//20
f 19//21 5//21 7//21
f 10//22 11//22 9//22
f 2//23 16//23 14//23
f 18//24 13//24 6//24
f 4//25 6//25 13//25
f 14//26 10//26 8//26
f 1//27 11//27 16//27
f 19//28 7//28 17//28
f 14//29 16//29 15//29
f 2//30 1//30 16//30
