# Blender v2.77 (sub 0) OBJ File: ''
# www.blender.org
g Rock_Sharp_s_04_Collider
v 0.040447 0.465447 -0.076088
v -0.162624 0.000000 -0.091818
v -0.057309 0.749895 -0.021691
v 0.115041 0.007847 0.090856
v 0.108713 0.000000 -0.091818
v -0.162624 -0.000000 0.087380
vn -0.1965 0.1186 -0.9733
vn 0.9884 0.1463 -0.0405
vn -0.0165 0.1462 0.9891
vn 0.9187 0.2586 0.2985
vn -0.9903 0.1391 0.0000
vn 0.0000 0.0338 -0.9994
s off
f 1//1 2//1 3//1
f 4//2 5//2 1//2
f 6//3 4//3 3//3
f 1//4 3//4 4//4
f 2//5 6//5 3//5
f 1//6 5//6 2//6
