# Blender v2.77 (sub 0) OBJ File: ''
# www.blender.org
g Rock_Sharp_m_07_Collider
v -0.263467 -0.000434 -0.068887
v -0.089022 1.092297 0.149020
v -0.146421 0.824954 -0.184590
v 0.145486 1.479187 -0.214372
v -0.007568 1.458727 -0.118008
v 0.051780 -0.001607 -0.289438
v 0.030790 0.623830 -0.201956
v 0.290658 1.951439 -0.202333
v 0.223158 0.837378 0.167632
v 0.216155 0.623830 -0.007046
v 0.250035 0.000000 -0.024020
v -0.142162 -0.000000 0.250035
v 0.240194 0.002199 0.243618
vn -0.9877 0.1473 0.0519
vn -0.5410 0.2042 -0.8159
vn -0.5730 -0.0335 -0.8189
vn -0.0989 -0.0012 -0.9951
vn -0.5412 0.1873 -0.8198
vn 0.9983 -0.0525 0.0241
vn 0.7996 0.0597 -0.5976
vn 0.7205 -0.1066 -0.6852
vn -0.9319 0.0781 0.3543
vn 0.0162 0.0913 0.9957
vn 0.9982 0.0150 -0.0584
vn 0.1886 0.2992 0.9354
vn 0.7194 0.1198 -0.6842
vn 0.5596 -0.1513 -0.8148
vn 0.0624 0.1403 -0.9881
vn -0.9767 0.2144 -0.0038
vn -0.7081 0.5119 0.4864
vn 0.0149 0.0909 0.9957
vn 0.9979 0.0532 0.0363
s off
f 1//1 2//1 3//1
f 4//2 3//2 5//2
f 1//3 3//3 6//3
f 3//4 4//4 7//4
f 5//5 8//5 4//5
f 8//6 9//6 10//6
f 6//7 10//7 11//7
f 4//8 10//8 7//8
f 12//9 2//9 1//9
f 13//10 2//10 12//10
f 13//11 10//11 9//11
f 2//12 9//12 8//12
f 6//13 7//13 10//13
f 4//14 8//14 10//14
f 6//15 3//15 7//15
f 3//16 2//16 5//16
f 2//17 8//17 5//17
f 13//18 9//18 2//18
f 13//19 11//19 10//19
