# Blender v2.77 (sub 0) OBJ File: ''
# www.blender.org
g Rock_Sharp_m_15_Collider
v -0.079509 -0.002782 -0.320559
v 0.069511 0.638618 0.303296
v 0.056903 1.037992 0.104932
v 0.108675 1.230435 -0.160020
v 0.184070 0.550160 -0.325831
v 0.433056 0.000000 -0.057010
v 0.065360 0.000000 -0.386464
v -0.478782 -0.001627 0.252290
v -0.185488 0.916202 0.274927
v -0.178269 1.172344 0.100813
v 0.024387 1.342289 -0.093360
v -0.346972 0.000000 -0.222602
v 0.022509 0.004908 0.296052
v 0.356696 1.238217 -0.158261
v -0.110621 0.000817 -0.304069
v 0.042497 0.873729 0.224748
v -0.035246 -0.000000 0.136544
v -0.112972 1.237853 -0.072647
v 0.373943 -0.000000 0.148961
v -0.154492 0.002002 0.275700
vn -0.9827 0.0566 0.1765
vn -0.3896 0.1771 -0.9038
vn 0.6660 -0.0618 -0.7434
vn -0.8885 0.2749 0.3675
vn 0.3138 0.5277 0.7893
vn -0.9428 0.2077 -0.2610
vn -0.9842 0.0711 0.1620
vn -0.0296 0.8115 0.5836
vn -0.4098 0.1868 -0.8929
vn -0.0005 0.2368 -0.9716
vn 0.7210 -0.0122 -0.6928
vn 0.9832 -0.0705 -0.1683
vn -0.5960 0.7992 0.0775
vn 0.3853 -0.0391 0.9219
vn 0.7153 0.1777 0.6759
vn 0.2164 0.0082 0.9763
vn -0.2764 0.1762 -0.9447
vn 0.2759 0.5472 0.7903
vn -0.9385 0.2106 -0.2738
vn 0.7517 -0.1321 0.6461
vn 0.9838 -0.0733 -0.1639
vn -0.9842 0.1601 -0.0760
vn -0.0720 -0.0016 0.9974
vn 0.9580 0.0816 0.2749
vn 0.4297 0.4125 0.8032
vn -0.3215 0.1735 -0.9309
s off
f 1//1 2//1 3//1
f 4//2 5//2 1//2
f 5//3 6//3 7//3
f 8//4 9//4 10//4
f 9//5 11//5 10//5
f 10//6 12//6 8//6
f 1//7 13//7 2//7
f 14//8 4//8 3//8
f 7//9 1//9 5//9
f 4//10 14//10 5//10
f 5//11 14//11 6//11
f 15//12 16//12 17//12
f 11//13 18//13 10//13
f 13//14 19//14 2//14
f 14//15 2//15 19//15
f 20//16 16//16 9//16
f 15//17 18//17 11//17
f 9//18 16//18 11//18
f 10//19 18//19 12//19
f 17//20 16//20 20//20
f 15//21 11//21 16//21
f 3//22 4//22 1//22
f 9//23 8//23 20//23
f 19//24 6//24 14//24
f 3//25 2//25 14//25
f 15//26 12//26 18//26
