# Blender v2.77 (sub 0) OBJ File: ''
# www.blender.org
g Rock_Sharp_m_12_Collider
v 0.467185 1.769295 -0.016176
v 0.101072 0.066949 -0.394763
v -0.247048 0.508421 -0.250889
v 0.256874 0.520486 0.239654
v 0.228295 1.142758 0.227550
v -0.047711 0.020597 0.377566
v -0.323012 0.100559 0.219196
v 0.055059 1.303290 0.098977
v -0.270823 0.008322 -0.323307
v 0.315491 0.040691 -0.053811
v 0.531221 1.687354 0.095090
vn -0.0997 0.2364 -0.9665
vn 0.3642 0.0348 0.9307
vn -0.9443 0.3083 0.1149
vn -0.2093 0.1499 -0.9663
vn 0.8886 -0.1554 0.4316
vn 0.3481 0.0342 0.9368
vn 0.7402 -0.2827 0.6101
vn -0.2987 0.3792 0.8758
vn -0.4553 0.5714 0.6828
vn -0.7014 0.4931 -0.5147
vn -0.9924 0.0625 -0.1061
vn -0.4379 0.2247 0.8705
vn 0.8444 -0.0625 -0.5320
vn -0.4363 0.2238 0.8715
vn 0.8427 -0.0623 -0.5348
s off
f 1//1 2//1 3//1
f 4//2 5//2 6//2
f 3//3 7//3 8//3
f 9//4 3//4 2//4
f 4//5 10//5 11//5
f 4//6 11//6 5//6
f 10//7 4//7 6//7
f 5//8 11//8 8//8
f 8//9 11//9 1//9
f 1//10 3//10 8//10
f 3//11 9//11 7//11
f 7//12 5//12 8//12
f 10//13 1//13 11//13
f 7//14 6//14 5//14
f 10//15 2//15 1//15
