# Blender v2.77 (sub 0) OBJ File: ''
# www.blender.org
g Rock_Sharp_l_01_Collider
v 3.923432 4.531916 -1.265364
v 7.282780 8.637372 -0.378982
v 6.064456 5.866110 0.699072
v -1.262003 0.579430 4.183968
v 5.989200 7.807296 1.107948
v 1.247772 4.859942 1.188244
v 3.114509 5.004850 -1.498472
v 0.746366 0.068180 -2.696097
v -0.119087 0.612408 -3.897170
v -1.302575 2.702254 -2.293005
v -4.353652 -0.081104 2.856072
v 0.993823 -0.007147 2.732298
v 1.776329 0.242384 0.791005
v -3.398051 0.032191 -3.803220
vn 0.7335 -0.5011 -0.4591
vn -0.4071 0.6718 0.6188
vn 0.7475 -0.2053 -0.6317
vn -0.6587 0.7522 0.0163
vn 0.2699 -0.0130 -0.9628
vn 0.7777 -0.1005 0.6205
vn -0.4143 0.8778 -0.2405
vn 0.8989 -0.2944 0.3245
vn 0.3174 0.0770 -0.9452
vn 0.8268 -0.5185 -0.2183
vn -0.5277 0.8493 0.0151
vn -0.1398 0.5519 -0.8221
vn 0.2475 -0.9686 -0.0247
vn -0.1225 0.5597 -0.8196
vn -0.7554 0.6479 -0.0974
vn 0.5187 -0.1569 0.8404
vn -0.4088 0.6719 0.6176
vn -0.5606 0.7509 -0.3490
vn 0.6780 -0.6811 -0.2764
vn 0.5077 -0.1481 0.8487
s off
f 1//1 2//1 3//1
f 4//2 5//2 6//2
f 7//3 8//3 9//3
f 10//4 11//4 6//4
f 7//5 2//5 1//5
f 3//6 2//6 5//6
f 6//7 7//7 10//7
f 1//8 12//8 13//8
f 1//9 8//9 7//9
f 1//10 13//10 8//10
f 2//11 6//11 5//11
f 10//12 7//12 9//12
f 12//13 8//13 13//13
f 9//14 14//14 10//14
f 14//15 11//15 10//15
f 5//16 12//16 3//16
f 4//17 6//17 11//17
f 6//18 2//18 7//18
f 1//19 3//19 12//19
f 5//20 4//20 12//20
