# Blender v2.77 (sub 0) OBJ File: ''
# www.blender.org
g Rocks_Sharp_l_02_Collider
v -0.502546 0.178432 2.944762
v -1.061952 0.594941 1.190903
v -1.601545 -0.014031 -0.120241
v 4.237314 3.217463 0.566752
v 3.613168 3.309016 0.661066
v 4.208064 3.512179 1.748244
v 1.283681 -0.094191 1.491463
v 0.119828 0.014252 -0.184330
v 5.978030 6.110715 -0.487624
v 3.565103 2.329716 -0.419034
v 3.446746 4.237356 -1.747498
v -0.692995 2.459261 0.001151
v -2.986780 0.000001 -3.122652
v -3.915675 -0.000000 0.001151
v 1.270053 2.416040 2.238621
v 2.566907 -0.003676 -0.000995
v 3.564433 2.320153 0.411732
v 1.270053 2.416041 -2.240609
v -1.791752 0.000000 -2.986927
v 1.758477 4.341579 0.001152
v 2.150925 3.961709 -1.996339
v 3.446746 4.237355 1.745511
v 5.964952 6.100089 0.492934
v 6.454414 7.145652 0.001081
v 2.150861 3.961619 1.998784
v -1.791752 -0.000000 2.984938
v -2.986780 -0.000001 3.124953
vn -0.9365 0.1235 0.3281
vn -0.0882 0.3570 -0.9299
vn 0.1056 0.9655 -0.2382
vn -0.5090 0.8414 -0.1813
vn 0.5137 -0.4678 0.7192
vn -0.0403 0.2769 -0.9601
vn -0.4901 0.8651 0.1065
vn -0.4822 0.8052 0.3450
vn 0.7585 -0.6276 0.1753
vn 0.6328 -0.4157 -0.6533
vn -0.5970 0.7823 -0.1775
vn 0.5681 -0.3740 0.7331
vn 0.5130 -0.4186 -0.7494
vn 0.5423 -0.4572 -0.7049
vn -0.5879 0.7656 -0.2611
vn 0.6326 -0.4158 0.6534
vn 0.9070 -0.4211 0.0075
vn 0.0772 0.4529 0.8882
vn 0.2113 0.0339 -0.9768
vn 0.1154 0.1303 0.9847
vn 0.2064 0.3385 -0.9180
vn 0.1771 0.0543 -0.9827
vn 0.8442 -0.5360 -0.0055
vn 0.9192 -0.3939 -0.0038
vn -0.4957 0.8301 0.2553
vn -0.5678 0.7960 0.2097
vn 0.5966 -0.6597 -0.4570
vn -0.5678 0.7960 -0.2097
vn 0.5130 -0.4186 0.7494
vn 0.5678 -0.3743 -0.7332
vn -0.4957 0.8301 -0.2553
vn 0.5422 -0.4572 0.7050
vn 0.2101 0.3339 0.9189
vn 0.1118 0.1349 -0.9845
vn 0.2152 0.0289 0.9762
vn 0.1815 0.0490 0.9822
vn 0.0729 0.4575 -0.8862
vn 0.8430 -0.5379 0.0054
vn -0.5879 0.7656 0.2611
vn -0.5970 0.7823 0.1775
s off
f 1//1 2//1 3//1
f 4//2 3//2 5//2
f 4//3 5//3 6//3
f 5//4 3//4 2//4
f 6//5 1//5 7//5
f 3//6 4//6 8//6
f 5//7 2//7 6//7
f 1//8 6//8 2//8
f 6//9 7//9 4//9
f 9//10 10//10 11//10
f 12//11 13//11 14//11
f 15//12 16//12 17//12
f 18//13 16//13 19//13
f 11//14 10//14 18//14
f 20//15 21//15 12//15
f 22//16 17//16 23//16
f 24//17 23//17 9//17
f 22//18 24//18 25//18
f 19//19 21//19 18//19
f 26//20 25//20 27//20
f 11//21 24//21 9//21
f 18//22 21//22 11//22
f 17//23 10//23 23//23
f 16//24 10//24 17//24
f 20//25 25//25 24//25
f 12//26 27//26 25//26
f 4//27 7//27 8//27
f 12//28 21//28 13//28
f 15//29 26//29 16//29
f 18//30 10//30 16//30
f 20//31 24//31 21//31
f 22//32 15//32 17//32
f 22//33 23//33 24//33
f 19//34 13//34 21//34
f 26//35 15//35 25//35
f 15//36 22//36 25//36
f 11//37 21//37 24//37
f 23//38 10//38 9//38
f 20//39 12//39 25//39
f 12//40 14//40 27//40
