# Blender v2.77 (sub 0) OBJ File: ''
# www.blender.org
g Rock_Sharp_m_09_Collider
v 0.026875 0.008559 0.235422
v 0.196992 0.452313 0.101264
v 0.135468 0.798007 0.162294
v 0.098084 1.271528 -0.108069
v 0.026954 1.390962 0.001764
v -0.108548 1.061360 -0.135365
v -0.115112 -0.003283 -0.040366
v -0.197099 0.998475 -0.028977
v -0.034920 0.561206 -0.156766
v 0.121500 0.015482 -0.002609
v 0.141502 0.778152 -0.135915
v -0.174255 0.700856 0.145580
v -0.135167 -0.000000 0.163963
vn 0.6489 -0.0188 0.7606
vn 0.9141 0.2531 0.3168
vn -0.3910 0.4859 -0.7816
vn -0.6961 -0.0488 -0.7163
vn 0.3207 -0.1712 -0.9316
vn 0.1708 -0.2222 -0.9599
vn -0.1265 0.2376 0.9631
vn -0.0860 0.1036 0.9909
vn 0.0683 0.0622 -0.9957
vn -0.7421 -0.0808 -0.6654
vn -0.9936 -0.0580 -0.0966
vn 0.9902 0.0930 -0.1039
vn 0.0554 0.0508 -0.9972
vn 0.9045 -0.2401 0.3526
vn 0.9799 0.1515 0.1298
vn -0.7922 0.4816 -0.3747
vn -0.6752 0.3339 0.6577
vn -0.4036 0.0015 0.9150
vn -0.9966 -0.0815 -0.0085
vn 0.9390 -0.0829 -0.3336
s off
f 1//1 2//1 3//1
f 3//2 4//2 5//2
f 6//3 5//3 4//3
f 7//4 8//4 9//4
f 10//5 9//5 11//5
f 7//6 9//6 10//6
f 12//7 3//7 5//7
f 3//8 12//8 1//8
f 11//9 6//9 4//9
f 8//10 6//10 9//10
f 12//11 7//11 13//11
f 2//12 11//12 4//12
f 9//13 6//13 11//13
f 10//14 2//14 1//14
f 3//15 2//15 4//15
f 6//16 8//16 5//16
f 5//17 8//17 12//17
f 1//18 12//18 13//18
f 12//19 8//19 7//19
f 2//20 10//20 11//20
