# Blender v2.77 (sub 0) OBJ File: ''
# www.blender.org
g Rock_Sharp_m_03_Collider
v 0.066293 0.583324 0.292426
v 0.413572 0.045303 0.182129
v -0.081387 1.886701 -0.059271
v -0.323617 0.039505 0.010017
v -0.062317 0.479978 0.331454
v 0.217116 0.513938 -0.341066
v 0.215959 1.122033 -0.136273
v 0.447393 0.054864 -0.141218
v -0.121670 0.009082 0.336146
v -0.054775 0.304677 -0.367663
v -0.129552 0.000000 -0.300948
v -0.018870 1.720497 -0.167654
vn 0.6417 0.2667 0.7191
vn -0.8493 0.1306 0.5115
vn 0.8256 0.1815 -0.5343
vn 0.0763 0.2678 0.9605
vn -0.8402 0.1112 0.5307
vn -0.8399 0.0889 -0.5354
vn -0.0110 0.1401 -0.9901
vn 0.6865 0.2333 -0.6887
vn 0.2881 -0.2571 -0.9225
vn 0.8507 0.2864 0.4407
vn 0.9311 0.3642 -0.0215
vn 0.2807 -0.2705 -0.9209
vn 0.2946 -0.0057 0.9556
vn 0.2780 -0.0255 0.9602
vn -0.7817 0.1066 -0.6144
vn 0.9717 0.2102 0.1079
vn -0.8402 0.0901 -0.5348
s off
f 1//1 2//1 3//1
f 3//2 4//2 5//2
f 6//3 7//3 8//3
f 5//4 1//4 3//4
f 9//5 5//5 4//5
f 10//6 11//6 4//6
f 6//7 10//7 12//7
f 6//8 12//8 7//8
f 10//9 6//9 8//9
f 3//10 2//10 7//10
f 7//11 12//11 3//11
f 8//12 11//12 10//12
f 2//13 1//13 5//13
f 5//14 9//14 2//14
f 10//15 3//15 12//15
f 2//16 8//16 7//16
f 10//17 4//17 3//17
