# Blender v2.77 (sub 0) OBJ File: ''
# www.blender.org
g Rock_Sharp_m_19_Collider
v -0.729094 0.104513 0.169881
v 0.257001 0.249834 -0.152375
v -1.021624 0.009825 0.150727
v 1.026174 0.104694 -0.030147
v 0.282571 0.255731 -0.025530
v 0.258831 -0.000022 -0.228416
v 1.151589 0.000582 0.049265
v 0.340706 0.113690 0.242550
v 0.714684 0.177390 0.155958
v -0.492907 0.002043 0.246676
v 0.340706 -0.000000 0.242550
vn -0.2592 0.8809 -0.3959
vn 0.1978 0.9765 -0.0853
vn 0.2787 -0.3472 -0.8954
vn -0.0399 0.8793 0.4746
vn -0.0120 -0.9998 -0.0147
vn -0.1508 0.9884 -0.0156
vn 0.4259 0.8141 0.3948
vn -0.0629 0.5016 0.8628
vn -0.2707 0.2785 -0.9215
vn -0.0024 -1.0000 0.0005
vn -0.1646 0.3198 0.9331
vn 0.2290 -0.0214 0.9732
vn 0.2029 0.2865 -0.9364
vn -0.0398 0.8793 0.4745
vn 0.1985 0.9788 -0.0501
vn 0.0007 -1.0000 -0.0001
vn 0.0049 -0.0000 1.0000
vn 0.2319 0.0000 0.9727
s off
f 1//1 2//1 3//1
f 4//2 2//2 5//2
f 6//3 4//3 7//3
f 5//4 8//4 9//4
f 3//5 6//5 10//5
f 1//6 5//6 2//6
f 4//7 9//7 7//7
f 1//8 10//8 8//8
f 3//9 2//9 6//9
f 6//10 11//10 10//10
f 1//11 3//11 10//11
f 7//12 9//12 8//12
f 6//13 2//13 4//13
f 5//14 1//14 8//14
f 4//15 5//15 9//15
f 6//16 7//16 11//16
f 11//17 8//17 10//17
f 7//18 8//18 11//18
