# Blender v2.77 (sub 0) OBJ File: ''
# www.blender.org
g Rock_Sharp_s_08_Collider
v -0.043228 0.567753 -0.093148
v -0.100854 0.577786 -0.087474
v -0.104876 0.573805 -0.032169
v 0.065732 0.240385 0.057532
v -0.090194 0.288893 -0.092832
v -0.087693 0.269010 0.047050
v 0.059163 0.249444 -0.091168
v -0.105178 0.000000 -0.099597
v 0.102617 0.000000 -0.099556
v -0.105173 -0.000000 0.107919
v 0.102621 -0.000000 0.107919
vn 0.1789 0.9803 0.0836
vn 0.6379 0.4869 0.5966
vn -0.9966 -0.0354 -0.0750
vn -0.0954 0.0149 -0.9953
vn -0.0194 0.2505 0.9679
vn 0.9517 0.3060 -0.0234
vn -0.9985 -0.0536 0.0102
vn 0.0104 -0.0029 -0.9999
vn 0.0171 0.0225 -0.9996
vn 0.9844 0.1726 -0.0330
vn -0.9984 0.0512 0.0251
vn -0.0251 0.2222 0.9747
vn 0.0002 0.0336 -0.9994
vn 0.9884 0.1517 -0.0000
vn -0.9979 0.0648 0.0000
vn 0.0000 0.2052 0.9787
s off
f 1//1 2//1 3//1
f 3//2 4//2 1//2
f 5//3 3//3 2//3
f 1//4 5//4 2//4
f 6//5 4//5 3//5
f 4//6 7//6 1//6
f 5//7 6//7 3//7
f 1//8 7//8 5//8
f 7//9 8//9 5//9
f 4//10 9//10 7//10
f 8//11 6//11 5//11
f 10//12 4//12 6//12
f 7//13 9//13 8//13
f 4//14 11//14 9//14
f 8//15 10//15 6//15
f 10//16 11//16 4//16
