# Blender v2.77 (sub 0) OBJ File: ''
# www.blender.org
g Rock_Sharp_l_04_Collider
v 4.357867 4.697188 -0.034511
v 3.535939 3.091543 0.075038
v 1.745974 2.387558 -0.704437
v 1.394273 2.492902 0.855137
v 1.670857 -0.001497 -0.000360
v -1.166505 0.000000 -1.080341
v 1.144842 2.826549 0.000416
v 1.400344 2.579239 -0.722055
v -2.556859 0.021305 0.000416
v -1.166505 -0.000000 1.079621
v -1.944518 -0.000000 1.130264
v -1.944518 0.000000 -1.129431
vn 0.4778 -0.3009 -0.8254
vn 0.3936 -0.2589 0.8821
vn 0.3418 -0.2755 -0.8985
vn -0.5431 0.7167 -0.4374
vn 0.0821 0.0565 -0.9950
vn 0.0649 0.0231 0.9976
vn -0.4494 0.7800 0.4356
vn -0.5514 0.7731 0.3134
vn -0.5551 0.7697 -0.3154
vn 0.3423 -0.2706 0.8998
vn 0.4703 -0.2630 -0.8424
vn -0.4581 0.7788 -0.4286
vn 0.3706 -0.1269 0.9201
vn 0.0628 0.0757 -0.9951
vn 0.1278 0.1402 -0.9818
vn -0.5429 0.7164 0.4381
s off
f 1//1 2//1 3//1
f 4//2 5//2 2//2
f 3//3 5//3 6//3
f 7//4 8//4 9//4
f 6//5 8//5 3//5
f 10//6 4//6 11//6
f 7//7 4//7 1//7
f 9//8 11//8 4//8
f 9//9 8//9 12//9
f 4//10 10//10 5//10
f 3//11 2//11 5//11
f 7//12 1//12 8//12
f 4//13 2//13 1//13
f 6//14 12//14 8//14
f 3//15 8//15 1//15
f 7//16 9//16 4//16
