# Blender v2.77 (sub 0) OBJ File: ''
# www.blender.org
g Rock_Sharp_m_16_Collider
v -0.900173 0.024829 -0.349622
v -0.048043 -0.004552 0.252628
v -0.768380 0.163791 -0.154451
v 0.703989 0.248934 -0.032719
v 0.477876 0.451279 -0.137659
v 0.543154 0.324973 0.312403
v 0.555392 0.001890 0.287688
v 0.157789 0.000000 -0.112788
v -0.522460 0.480123 -0.052933
v -0.002143 0.498645 -0.250876
v 0.003665 0.506839 0.030393
v 0.180231 0.224366 0.345329
vn -0.5120 -0.4977 0.7001
vn 0.6291 0.7674 0.1241
vn 0.4266 -0.8011 -0.4198
vn -0.2826 0.6772 -0.6794
vn 0.1054 0.9939 -0.0311
vn 0.1960 0.9512 0.2385
vn -0.0184 -0.9996 -0.0228
vn 0.0110 -0.9999 -0.0062
vn 0.1098 -0.0717 0.9914
vn -0.0512 -0.3305 0.9424
vn 0.9066 0.0021 0.4220
vn 0.2398 -0.2222 -0.9451
vn -0.1469 0.6940 0.7048
vn 0.2063 -0.1991 -0.9580
vn -0.8024 0.5832 0.1266
vn -0.4745 0.0878 0.8759
vn -0.0462 0.9985 -0.0281
vn -0.1306 0.7006 0.7015
vn 0.2097 -0.1979 -0.9575
vn -0.4616 0.1036 0.8810
s off
f 1//1 2//1 3//1
f 4//2 5//2 6//2
f 7//3 8//3 4//3
f 9//4 10//4 1//4
f 5//5 10//5 11//5
f 11//6 6//6 5//6
f 2//7 1//7 8//7
f 8//8 7//8 2//8
f 6//9 12//9 7//9
f 2//10 7//10 12//10
f 7//11 4//11 6//11
f 5//12 4//12 8//12
f 12//13 11//13 9//13
f 8//14 10//14 5//14
f 3//15 9//15 1//15
f 2//16 9//16 3//16
f 9//17 11//17 10//17
f 12//18 6//18 11//18
f 8//19 1//19 10//19
f 2//20 12//20 9//20
