# Blender v2.77 (sub 0) OBJ File: ''
# www.blender.org
g Rock_Sharp_s_05_Collider
v -0.177705 0.000000 -0.160998
v -0.084317 0.661655 -0.074019
v 0.101396 0.546469 -0.082848
v 0.154682 -0.000000 0.160998
v 0.104875 0.598260 0.121924
v -0.178259 0.012800 0.154843
v 0.154682 0.000000 -0.160998
vn 0.0310 0.1260 -0.9915
vn -0.0160 0.0638 0.9978
vn 0.9961 0.0805 -0.0373
vn -0.9900 0.1407 -0.0074
vn -0.6194 0.3394 0.7079
vn 0.0000 0.1416 -0.9899
vn 0.9953 0.0970 0.0000
vn 0.5067 0.8337 -0.2195
s off
f 1//1 2//1 3//1
f 4//2 5//2 6//2
f 4//3 3//3 5//3
f 1//4 6//4 2//4
f 5//5 2//5 6//5
f 7//6 1//6 3//6
f 4//7 7//7 3//7
f 5//8 3//8 2//8
