# Blender v2.77 (sub 0) OBJ File: ''
# www.blender.org
g Rock_Sharp_m_06_Collider
v 0.008423 1.679461 0.121156
v -0.181028 -0.000000 0.250035
v 0.249201 -0.000088 0.249821
v -0.019895 1.857610 0.021417
v 0.090464 1.219570 -0.170843
v -0.168409 0.946469 -0.190082
v -0.147452 1.331029 0.011594
v -0.257201 -0.001360 0.133447
v 0.246184 -0.000093 -0.118831
v 0.144313 1.428109 -0.046171
v -0.050202 0.000000 -0.156182
vn 0.0005 0.0765 0.9971
vn -0.1952 0.2518 -0.9479
vn -0.7531 0.1344 0.6441
vn -0.9959 0.0779 -0.0451
vn 0.8533 0.0870 -0.5141
vn -0.8073 -0.1215 -0.5775
vn -0.8075 0.1852 0.5600
vn 0.9974 0.0716 -0.0082
vn 0.5354 0.3272 -0.7786
vn 0.1045 -0.0290 -0.9941
vn 0.8703 0.1604 0.4657
vn 0.9098 0.3033 0.2833
vn -0.8319 0.1181 0.5422
vn 0.1250 -0.0199 -0.9920
vn -0.9129 0.2275 -0.3389
s off
f 1//1 2//1 3//1
f 4//2 5//2 6//2
f 7//3 2//3 1//3
f 7//4 6//4 8//4
f 9//5 5//5 10//5
f 11//6 8//6 6//6
f 1//7 4//7 7//7
f 9//8 10//8 3//8
f 4//9 10//9 5//9
f 9//10 6//10 5//10
f 3//11 10//11 1//11
f 1//12 10//12 4//12
f 7//13 8//13 2//13
f 9//14 11//14 6//14
f 4//15 6//15 7//15
