# Blender v2.77 (sub 0) OBJ File: ''
# www.blender.org
g Rock_Sharp_s_07_Collider
v -0.128382 -0.000000 0.100910
v 0.028015 0.433925 0.067111
v -0.063926 0.538019 0.049555
v -0.128382 0.000000 -0.106566
v -0.050147 0.639930 -0.043310
v 0.018487 0.498888 -0.059364
v -0.007805 0.524948 0.054675
v 0.079411 -0.000000 0.100910
v 0.079411 0.000000 -0.106566
vn -0.0724 0.1034 0.9920
vn -0.0245 0.1013 -0.9946
vn -0.0649 0.1100 0.9918
vn 0.0000 0.0777 0.9970
vn 0.0871 0.6645 0.7422
vn 0.0000 0.0942 -0.9956
vn 0.9173 0.3781 0.1251
vn 0.8986 0.4247 0.1101
vn 0.9924 0.1223 -0.0119
vn -0.9924 0.1226 -0.0127
vn 0.9931 0.1176 0.0000
vn -0.9929 0.1190 0.0000
s off
f 1//1 2//1 3//1
f 4//2 5//2 6//2
f 7//3 3//3 2//3
f 1//4 8//4 2//4
f 5//5 3//5 7//5
f 9//6 4//6 6//6
f 2//7 6//7 7//7
f 6//8 5//8 7//8
f 2//9 9//9 6//9
f 4//10 3//10 5//10
f 2//11 8//11 9//11
f 4//12 1//12 3//12
