# Blender v2.77 (sub 0) OBJ File: ''
# www.blender.org
g Rock_Sharp_s_01_Collider
v 0.121968 -0.000000 0.121968
v 0.071057 0.347124 -0.071057
v 0.000543 0.825605 0.000381
v -0.121968 0.000000 -0.121968
v 0.112250 0.003145 -0.098215
v -0.121968 -0.000000 0.121968
vn 0.9893 0.1457 0.0010
vn -0.0037 0.1471 -0.9891
vn 0.9916 0.1221 -0.0420
vn 0.0993 0.0901 -0.9910
vn -0.9892 0.1468 0.0000
vn 0.0000 0.1457 0.9893
s off
f 1//1 2//1 3//1
f 2//2 4//2 3//2
f 1//3 5//3 2//3
f 2//4 5//4 4//4
f 3//5 4//5 6//5
f 3//6 6//6 1//6
