# Blender v2.77 (sub 0) OBJ File: ''
# www.blender.org
g Rock_Sharp_m_01_Collider
v 0.094830 1.583183 0.053924
v -0.121880 0.964952 0.161218
v 0.306223 -0.000000 0.134410
v -0.201301 0.001125 -0.161770
v -0.202198 0.000000 -0.076622
v 0.071629 0.984616 -0.223240
v 0.247298 0.000000 -0.036742
v -0.102537 1.202031 -0.241129
v -0.009097 1.841645 -0.117051
v 0.012115 -0.000000 0.212701
vn 0.2449 0.0818 0.9661
vn -0.9963 0.0852 -0.0094
vn 0.2658 -0.1334 -0.9548
vn 0.2771 0.1438 -0.9500
vn -0.8010 -0.0796 0.5933
vn 0.2563 0.0869 0.9627
vn -0.9966 0.0820 0.0004
vn 0.0183 -0.0674 -0.9976
vn 0.9402 0.1064 -0.3237
vn 0.9229 0.1318 -0.3618
vn -0.5156 0.3188 0.7953
vn -0.9898 0.1381 0.0338
vn 0.9424 0.1098 -0.3160
s off
f 1//1 2//1 3//1
f 4//2 5//2 2//2
f 4//3 6//3 7//3
f 8//4 9//4 6//4
f 2//5 5//5 10//5
f 10//6 3//6 2//6
f 2//7 8//7 4//7
f 4//8 8//8 6//8
f 6//9 3//9 7//9
f 1//10 6//10 9//10
f 1//11 9//11 2//11
f 2//12 9//12 8//12
f 6//13 1//13 3//13
