# Blender v2.77 (sub 0) OBJ File: ''
# www.blender.org
g Rocks_Sharp_l_03_Collider
v 0.740247 0.099033 0.051669
v -0.504064 1.752604 0.141391
v -0.166813 3.212174 0.208592
v 0.359306 3.777335 0.389387
v 0.676020 1.745915 0.590726
v 0.056190 0.103041 1.021730
v 0.833745 0.103041 0.365885
v 0.282023 2.382404 0.958618
v 0.294425 3.987809 0.760394
v -0.492524 0.103041 0.059207
v -0.166448 3.102215 0.698890
v -0.522554 0.120158 0.725616
v 1.339047 1.947483 0.718158
v 1.175979 0.053107 0.241073
v 1.384146 1.225302 0.077710
v 0.734749 0.095041 0.383718
v 0.805213 1.389076 0.213688
v 0.847542 0.077825 -0.150454
v -0.629672 -0.015507 -0.763086
v -0.383014 1.598082 -0.691879
v -0.224310 2.055407 -1.308662
v 0.709775 3.709920 -1.523118
v 0.219759 3.690372 -1.239556
v 0.907133 2.443194 -0.234992
v 0.420700 3.520952 -0.570484
v -0.134058 2.356499 -0.218116
v 0.101179 -0.073812 -1.294840
v 0.324026 1.532053 -1.289993
v 1.183429 4.991702 -1.590288
v 0.876969 1.585595 -0.661860
v 0.511606 -0.077166 -1.277619
v 0.965312 -0.013548 -0.557110
v -0.292171 0.078361 0.240705
v 0.900499 0.074922 0.269822
v -1.142106 -0.067802 0.004755
v -1.137429 1.287908 0.497610
v -1.551266 2.217501 0.277517
v -1.133875 3.756410 0.196455
v -1.514143 4.010470 -0.045790
v -1.240796 2.903421 -0.651545
v -0.849128 3.180604 -0.382331
v -0.675048 1.769823 -0.527120
v -0.321967 0.103271 -0.342188
v -0.434785 1.785382 -0.124542
v -0.501076 0.131196 0.336080
v -0.698923 2.384729 0.367328
v -1.354796 1.951504 -0.612512
v -0.894335 -0.040674 -0.449268
vn -0.0083 0.0479 -0.9988
vn 0.9571 0.1232 -0.2624
vn 0.6442 -0.0427 0.7637
vn 0.7435 0.0763 0.6643
vn -0.0059 0.0497 -0.9987
vn -0.5598 0.6749 -0.4808
vn -0.9488 0.1159 0.2939
vn 0.9499 0.1301 -0.2843
vn 0.9836 0.1613 0.0805
vn -0.3497 0.1175 0.9295
vn -0.4275 0.0591 0.9021
vn -0.9990 -0.0048 -0.0449
vn -0.8853 0.4536 0.1024
vn 0.9642 -0.1398 0.2255
vn -0.9779 0.0260 -0.2073
vn 0.7405 -0.2200 -0.6350
vn 0.0122 0.6639 -0.7477
vn -0.9784 0.1556 -0.1364
vn -0.4986 0.1713 -0.8498
vn -0.0089 0.2935 0.9559
vn -0.5906 -0.0955 -0.8013
vn -0.0579 -0.0961 -0.9937
vn -0.5001 0.1400 -0.8546
vn 0.9950 -0.0702 0.0708
vn -0.9569 0.2870 0.0434
vn 0.8457 0.0118 -0.5336
vn 0.7438 -0.2000 -0.6377
vn 0.0419 -0.0028 -0.9991
vn -0.9434 0.1307 0.3050
vn -0.7942 0.4879 0.3621
vn -0.0233 0.1989 0.9797
vn 0.9989 -0.0125 -0.0455
vn -0.7831 -0.2101 0.5853
vn -0.4476 0.1677 0.8784
vn 0.4867 0.1484 -0.8609
vn 0.6623 0.6682 -0.3389
vn 0.8500 0.1233 -0.5121
vn 0.9136 0.0747 0.3996
vn 0.9667 0.0320 0.2540
vn -0.9774 -0.0177 -0.2105
vn -0.9735 -0.1541 -0.1688
vn 0.9374 0.3156 0.1472
vn 0.8454 0.1567 -0.5106
vn 0.1925 -0.0359 -0.9806
vn -0.0080 0.1211 0.9926
vn 0.9428 0.3049 0.1348
vn -0.9736 0.2226 0.0507
vn 0.2140 0.1113 -0.9705
vn -0.4528 0.0695 0.8889
vn -0.7479 0.1263 0.6516
vn -0.1505 0.2600 -0.9538
vn 0.2751 -0.2570 0.9264
vn 0.3336 0.4142 0.8468
vn 0.7446 0.0817 -0.6625
vn 0.5974 -0.2605 -0.7585
vn 0.0326 -0.0015 -0.9995
vn -0.9467 0.1255 0.2967
vn -0.9632 0.2638 -0.0522
vn -0.6982 0.6156 0.3656
vn -0.0015 0.2085 0.9780
vn 0.9956 0.0597 0.0716
vn 0.1103 -0.0539 -0.9924
vn -0.3554 -0.3183 0.8788
vn -0.2471 0.1177 0.9618
vn 0.2131 0.5090 -0.8340
vn -0.8459 0.0797 -0.5273
vn -0.8473 -0.2349 -0.4764
vn 0.1008 -0.0886 -0.9910
vn 0.2625 0.0097 0.9649
s off
f 1//1 2//1 3//1
f 4//2 5//2 1//2
f 5//3 6//3 7//3
f 8//4 5//4 9//4
f 1//5 10//5 2//5
f 9//6 4//6 3//6
f 11//7 2//7 12//7
f 7//8 1//8 5//8
f 4//9 9//9 5//9
f 5//3 8//3 6//3
f 9//10 11//10 8//10
f 12//11 8//11 11//11
f 10//12 12//12 2//12
f 9//13 3//13 11//13
f 13//14 14//14 15//14
f 16//15 17//15 18//15
f 14//16 18//16 15//16
f 15//17 17//17 13//17
f 19//18 20//18 21//18
f 22//19 21//19 23//19
f 24//20 25//20 26//20
f 19//21 21//21 27//21
f 21//22 22//22 28//22
f 23//23 29//23 22//23
f 29//24 24//24 30//24
f 26//25 23//25 20//25
f 31//26 30//26 32//26
f 22//27 30//27 28//27
f 27//28 28//28 31//28
f 33//29 20//29 19//29
f 26//30 25//30 23//30
f 34//31 26//31 33//31
f 34//32 30//32 24//32
f 35//33 36//33 37//33
f 37//34 38//34 39//34
f 40//35 41//35 42//35
f 41//36 39//36 38//36
f 43//37 42//37 44//37
f 45//38 44//38 46//38
f 43//39 44//39 45//39
f 47//40 37//40 39//40
f 37//41 47//41 35//41
f 46//42 41//42 38//42
f 42//43 41//43 44//43
f 47//44 43//44 48//44
f 36//45 46//45 38//45
f 44//46 41//46 46//46
f 11//47 3//47 2//47
f 3//48 4//48 1//48
f 12//49 6//49 8//49
f 16//50 13//50 17//50
f 15//51 18//51 17//51
f 16//52 14//52 13//52
f 25//53 24//53 29//53
f 31//54 28//54 30//54
f 22//55 29//55 30//55
f 27//56 21//56 28//56
f 33//57 26//57 20//57
f 21//58 20//58 23//58
f 25//59 29//59 23//59
f 34//60 24//60 26//60
f 34//61 32//61 30//61
f 47//62 40//62 42//62
f 45//63 36//63 35//63
f 37//64 36//64 38//64
f 41//65 40//65 39//65
f 39//66 40//66 47//66
f 35//67 47//67 48//67
f 47//68 42//68 43//68
f 36//69 45//69 46//69
