# Blender v2.77 (sub 0) OBJ File: ''
# www.blender.org
g Rock_Sharp_m_14_Collider
v -0.373197 0.521617 0.002936
v -0.740495 0.001795 -0.375014
v -0.716557 -0.001205 0.364670
v 0.387952 1.048167 -0.374500
v 0.580445 1.010571 -0.216370
v 0.091203 0.034761 -0.444333
v 0.388295 0.764245 0.150274
v 0.237524 0.022133 0.138239
v 0.610765 1.640714 -0.097799
v 0.013306 0.698468 0.265070
v 0.026137 -0.003161 0.391784
v -0.319041 0.271756 -0.444099
v 0.296100 1.370080 -0.224379
vn -0.8262 0.5627 0.0290
vn 0.6148 -0.1264 -0.7785
vn 0.9164 -0.1919 0.3513
vn 0.2538 0.2032 0.9457
vn -0.5975 0.6830 0.4201
vn 0.7655 -0.1656 0.6217
vn -0.0354 0.1770 0.9836
vn 0.2597 0.1762 0.9495
vn 0.6437 0.1115 -0.7571
vn 0.0335 0.0589 -0.9977
vn -0.7734 0.5088 -0.3781
vn -0.2828 0.3379 -0.8977
vn -0.0771 -0.1325 -0.9882
vn 0.9100 -0.1185 0.3973
vn -0.6826 0.5958 0.4231
vn -0.6152 0.6168 0.4909
vn 0.8902 -0.3921 -0.2321
vn 0.0009 0.4228 -0.9062
vn -0.5309 0.7107 -0.4616
s off
f 1//1 2//1 3//1
f 4//2 5//2 6//2
f 5//3 7//3 8//3
f 7//4 9//4 10//4
f 1//5 3//5 10//5
f 7//6 11//6 8//6
f 11//7 10//7 3//7
f 10//8 11//8 7//8
f 4//9 9//9 5//9
f 4//10 6//10 12//10
f 1//11 13//11 12//11
f 12//12 13//12 4//12
f 6//13 2//13 12//13
f 7//14 5//14 9//14
f 10//15 9//15 13//15
f 1//16 10//16 13//16
f 5//17 8//17 6//17
f 4//18 13//18 9//18
f 1//19 12//19 2//19
