# Blender v2.77 (sub 0) OBJ File: ''
# www.blender.org
g Rock_Sharp_m_18_Collider
v -0.081789 0.336000 -0.173371
v 0.469552 0.339363 -0.026625
v 0.185968 0.119447 -0.294141
v 0.785347 0.105234 -0.051576
v 0.643668 0.189113 0.126877
v 0.479250 -0.000638 0.006142
v 0.079088 0.178211 0.321789
v -0.190535 0.350710 0.108024
v -0.178768 0.050905 0.287954
v -0.319851 0.336000 -0.106814
v -0.740067 0.109607 0.118984
v 0.527816 0.000682 -0.163804
v -0.538476 0.089153 -0.094451
v -0.798694 0.141050 -0.000548
vn 0.1921 0.6484 -0.7367
vn 0.3588 -0.7022 0.6149
vn 0.1217 0.8419 0.5258
vn 0.2438 -0.6781 0.6933
vn -0.0031 0.9999 -0.0112
vn -0.2526 0.2642 0.9308
vn -0.0926 -0.9951 -0.0342
vn 0.3407 -0.9359 0.0901
vn 0.3757 0.0669 -0.9243
vn 0.3294 0.5277 -0.7830
vn -0.0815 -0.9965 0.0185
vn -0.2408 0.5841 0.7751
vn 0.2547 -0.6665 0.7006
vn -0.2683 0.1903 -0.9444
vn -0.1040 -0.8557 -0.5070
vn -0.2638 0.2001 -0.9436
vn 0.1828 0.7982 0.5740
vn -0.0934 -0.9950 -0.0354
vn 0.5977 0.7954 0.1006
vn -0.2404 -0.9612 -0.1349
vn -0.3617 0.8426 0.3990
vn -0.2937 0.2134 -0.9318
vn 0.0029 0.9975 -0.0700
vn -0.3455 0.9273 0.1444
s off
f 1//1 2//1 3//1
f 4//2 5//2 6//2
f 7//3 2//3 8//3
f 9//4 6//4 7//4
f 1//5 10//5 2//5
f 9//6 7//6 11//6
f 9//7 12//7 6//7
f 4//8 6//8 12//8
f 12//9 3//9 4//9
f 2//10 4//10 3//10
f 11//11 13//11 12//11
f 8//12 11//12 7//12
f 6//13 5//13 7//13
f 13//14 10//14 3//14
f 13//15 3//15 12//15
f 1//16 3//16 10//16
f 7//17 5//17 2//17
f 9//18 11//18 12//18
f 2//19 5//19 4//19
f 11//20 14//20 13//20
f 8//21 14//21 11//21
f 13//22 14//22 10//22
f 10//23 8//23 2//23
f 8//24 10//24 14//24
