# Blender v2.77 (sub 0) OBJ File: ''
# www.blender.org
g Rocks_Sharp_l_04_Collider
v -0.604750 2.607443 0.557080
v -1.182515 2.070426 0.747090
v -0.263967 -0.000000 0.689572
v -1.352921 0.002415 0.054082
v -1.354847 -0.000000 0.236776
v -0.767317 2.112612 -0.077809
v -0.390398 -0.000000 0.322345
v -0.872355 3.721904 0.123141
v -1.141012 2.579096 -0.116194
v -1.102595 3.172164 0.358948
v -0.864884 3.111335 0.583193
v -0.895012 -0.000000 0.857555
v 0.410834 -0.042562 0.505566
v -0.357634 -0.051088 0.467613
v -0.228289 1.766968 0.620792
v 0.086627 2.193851 1.077028
v -0.196938 1.798961 0.939030
v -0.407275 -0.063074 0.865538
v 0.461665 -0.038449 0.708431
v -0.046618 -0.068727 1.081408
v -0.423241 -0.031212 -0.328758
v -0.078294 0.849147 -0.683804
v -0.229266 1.543629 -0.573337
v -0.219802 1.329250 -1.209276
v -0.297686 -0.072391 -0.866050
v -0.361243 2.460847 -1.217411
v -0.517447 2.707193 -0.976478
v -0.928861 1.782898 -1.207912
v -0.764107 -0.095977 -0.931502
v -0.624947 1.027295 -1.250174
v -0.930846 1.401434 -0.599026
v -0.791937 -0.067815 -0.473483
v 0.478736 1.298812 -0.615237
v -0.792288 0.613846 -0.411178
v 1.103867 2.763193 -0.240716
v 2.514194 3.945706 0.134288
v 1.119681 0.202260 -0.019075
v 0.758089 1.073405 -0.733586
v 2.468726 3.947208 0.038944
v 2.158455 3.657837 0.421121
v -0.229264 1.151221 0.337930
v 0.742509 2.513355 0.113829
v -1.017081 0.630966 0.000217
v 0.693873 0.011419 -0.927252
v 0.415643 0.682478 0.543140
v 0.542129 -0.000000 0.674124
v -1.110217 0.000000 -0.434782
v -0.357189 0.006402 0.693735
v -1.344479 -0.000000 0.032396
vn 0.2428 0.0809 0.9667
vn -0.9963 0.0852 -0.0094
vn 0.2658 -0.1334 -0.9548
vn -0.9245 0.2731 -0.2661
vn 0.7843 0.3794 0.4909
vn 0.2685 0.1366 -0.9536
vn -0.8010 -0.0796 0.5933
vn 0.2563 0.0869 0.9627
vn 0.2462 0.0770 0.9662
vn -0.5170 0.5111 0.6867
vn -0.9966 0.0820 0.0004
vn 0.0183 -0.0674 -0.9976
vn 0.9402 0.1064 -0.3237
vn 0.0483 0.0804 -0.9956
vn 0.6514 0.2751 -0.7071
vn -0.9903 0.1084 0.0867
vn 0.9496 0.1995 -0.2420
vn 0.5926 -0.0333 0.8048
vn -0.4559 0.0164 0.8899
vn -0.9894 0.0806 -0.1210
vn -0.8157 0.5780 0.0223
vn 0.6780 0.0306 0.7345
vn 0.9150 -0.1432 -0.3773
vn 0.9103 0.3175 0.2656
vn -0.5086 0.4152 -0.7543
vn -0.5346 -0.1687 -0.8281
vn -0.9108 0.3511 0.2170
vn 0.1473 -0.2868 -0.9466
vn -0.0964 0.3045 0.9476
vn -0.0688 0.1614 0.9845
vn -0.0071 -0.0081 -0.9999
vn -0.9936 -0.0986 -0.0543
vn 0.9807 0.1215 -0.1531
vn 0.0454 0.0740 -0.9962
vn -0.3363 0.3655 -0.8679
vn 0.7164 -0.2400 -0.6552
vn -0.4836 0.8406 0.2439
vn -0.6047 0.5293 0.5952
vn -0.6589 0.7515 0.0341
vn -0.1519 0.3053 -0.9401
vn 0.9033 0.0235 -0.4284
vn 0.8302 -0.3861 -0.4020
vn 0.7041 0.2575 0.6618
vn -0.1959 0.1545 0.9684
vn -0.5508 0.5026 0.6663
vn -0.7869 0.4248 -0.4476
vn -0.5380 0.3044 0.7861
vn -0.7118 0.6492 -0.2680
vn -0.6167 0.7835 -0.0764
vn -0.0559 0.2901 -0.9554
vn 0.0228 0.1925 0.9810
vn -0.2525 0.1857 -0.9496
vn -0.2532 0.1884 -0.9489
vn 0.4918 -0.2539 0.8328
vn -0.5296 0.3150 0.7876
vn -0.0810 0.3041 0.9492
vn -0.2605 0.1714 -0.9501
vn 0.9419 0.1015 -0.3203
vn -0.6122 0.3019 0.7308
vn -0.9975 0.0700 -0.0067
vn -0.5129 0.0319 0.8578
vn 0.9330 -0.2693 0.2387
vn 0.9764 0.1990 0.0833
vn 0.2751 -0.2431 -0.9302
vn -0.3689 0.0445 0.9284
vn -0.9933 -0.0965 -0.0637
vn -0.8179 0.4035 -0.4101
vn -0.6615 0.6417 -0.3881
vn 0.7337 -0.2983 0.6105
s off
f 1//1 2//1 3//1
f 4//2 5//2 2//2
f 4//3 6//3 7//3
f 8//4 9//4 10//4
f 11//5 1//5 8//5
f 9//6 8//6 6//6
f 2//7 5//7 12//7
f 12//8 3//8 2//8
f 1//9 11//9 2//9
f 8//10 10//10 11//10
f 2//11 9//11 4//11
f 4//12 9//12 6//12
f 6//13 3//13 7//13
f 13//14 14//14 15//14
f 16//15 13//15 15//15
f 17//16 15//16 18//16
f 13//17 16//17 19//17
f 19//18 16//18 20//18
f 18//19 16//19 17//19
f 14//20 18//20 15//20
f 16//21 15//21 17//21
f 21//22 22//22 23//22
f 24//23 22//23 25//23
f 23//24 26//24 27//24
f 28//25 27//25 26//25
f 29//26 28//26 30//26
f 28//27 31//27 27//27
f 29//28 30//28 25//28
f 31//29 23//29 27//29
f 23//30 31//30 21//30
f 24//31 28//31 26//31
f 31//32 29//32 32//32
f 22//33 24//33 26//33
f 30//34 28//34 24//34
f 33//35 34//35 35//35
f 36//36 37//36 38//36
f 36//37 39//37 40//37
f 41//38 42//38 43//38
f 35//39 40//39 39//39
f 38//40 33//40 35//40
f 44//41 38//41 37//41
f 39//42 36//42 38//42
f 45//43 46//43 37//43
f 41//44 45//44 40//44
f 41//45 40//45 42//45
f 47//46 43//46 34//46
f 41//47 43//47 48//47
f 35//48 34//48 42//48
f 42//49 40//49 35//49
f 39//50 38//50 35//50
f 45//51 48//51 46//51
f 34//52 33//52 38//52
f 38//53 44//53 34//53
f 37//54 40//54 45//54
f 48//55 43//55 49//55
f 45//56 41//56 48//56
f 44//57 47//57 34//57
f 1//58 6//58 8//58
f 11//59 10//59 2//59
f 2//60 10//60 9//60
f 6//13 1//13 3//13
f 18//61 20//61 16//61
f 25//62 22//62 21//62
f 23//63 22//63 26//63
f 24//64 25//64 30//64
f 21//65 31//65 32//65
f 31//66 28//66 29//66
f 47//67 49//67 43//67
f 34//68 43//68 42//68
f 37//69 36//69 40//69
