# Blender v2.77 (sub 0) OBJ File: ''
# www.blender.org
g Rock_Sharp_s_03_Collider
v 0.060940 0.027338 -0.109698
v -0.083040 0.005809 -0.106711
v -0.055154 0.707094 -0.000015
v -0.024772 0.434326 0.068440
v 0.054504 0.002058 0.063591
v -0.107835 0.000632 0.066911
v -0.109029 0.315049 0.010061
vn -0.0432 0.1520 -0.9874
vn 0.9818 0.1794 0.0626
vn 0.0205 -0.0075 0.9998
vn -0.9894 -0.0295 -0.1422
vn -0.6807 0.1278 0.7213
vn -0.8715 0.1075 -0.4785
vn 0.9794 0.1445 0.1411
vn -0.6670 0.1106 0.7368
s off
f 1//1 2//1 3//1
f 4//2 5//2 1//2
f 5//3 4//3 6//3
f 2//4 6//4 7//4
f 7//5 6//5 4//5
f 3//6 2//6 7//6
f 4//7 1//7 3//7
f 7//8 4//8 3//8
