# Blender v2.77 (sub 0) OBJ File: ''
# www.blender.org
g Rocks_Sharp_m_02_Collider
v 1.044988 -0.028051 -0.285407
v 1.012306 0.115617 -0.037713
v 0.880900 0.029950 -0.196041
v 0.513096 0.289480 -0.065620
v 0.972484 0.296498 -0.204186
v 0.513393 0.510711 -0.277088
v 0.817151 0.208731 -0.489230
v 0.068204 0.518800 -0.456783
v 0.042917 0.540796 -0.584596
v 0.489784 0.538636 -0.474682
v 0.565535 0.218909 -0.593627
v 0.428250 0.146693 -0.744137
v 0.201550 0.249442 -0.627260
v -0.013474 -0.000000 0.283312
v 0.273583 0.000000 -0.503683
v 0.494653 0.000000 -0.608297
v -0.436445 0.345194 -0.064521
v -0.100167 0.059935 -0.392685
v -0.540472 0.274964 0.357411
v -0.817775 0.102208 0.232588
v 0.183674 0.306421 0.133531
v -0.114875 0.131549 0.546300
v -0.746421 0.004644 0.639659
v -0.793868 0.095762 0.779225
vn -0.0351 -0.8665 0.4980
vn 0.2032 0.6764 0.7079
vn -0.5433 -0.3987 -0.7388
vn 0.7920 0.3087 -0.5267
vn -0.4803 -0.8753 -0.0556
vn -0.2689 0.6657 0.6961
vn -0.2868 -0.7226 0.6290
vn 0.2312 0.2706 -0.9345
vn -0.2516 -0.7590 -0.6005
vn 0.5971 0.6152 -0.5148
vn 0.1188 0.8486 -0.5155
vn 0.0000 -1.0000 -0.0000
vn -0.6495 0.1013 -0.7536
vn -0.5319 0.8467 0.0098
vn 0.8285 -0.3029 0.4710
vn -0.8656 -0.4997 0.0320
vn 0.7704 -0.2091 -0.6024
vn -0.2221 -0.9563 -0.1903
vn -0.2081 -0.9611 -0.1817
vn 0.0853 0.9937 -0.0724
vn 0.0086 0.9860 0.1662
vn 0.2420 -0.7727 0.5868
vn -0.0077 -1.0000 -0.0028
vn -0.2979 -0.7177 -0.6294
vn -0.3019 -0.7151 -0.6305
vn -0.5194 -0.2012 -0.8305
vn -0.6503 0.0997 -0.7531
vn 0.8292 -0.3001 0.4716
vn 0.2002 0.6870 0.6985
vn -0.4951 -0.8671 0.0547
vn 0.9761 0.2174 0.0027
vn -0.0548 0.9822 0.1799
vn 0.4112 0.9081 0.0792
vn -0.0305 0.9892 0.1434
vn 0.0900 0.9933 -0.0723
vn 0.1001 0.8881 0.4487
vn 0.2412 -0.8275 0.5070
vn -0.5393 0.8415 0.0335
vn 0.1044 0.8912 0.4414
vn 0.8282 -0.3021 0.4720
s off
f 1//1 2//1 3//1
f 4//2 5//2 6//2
f 4//3 1//3 3//3
f 5//4 1//4 7//4
f 8//5 9//5 1//5
f 6//6 8//6 4//6
f 3//7 2//7 4//7
f 9//8 10//8 7//8
f 9//9 7//9 1//9
f 5//10 7//10 10//10
f 11//11 12//11 13//11
f 14//12 15//12 16//12
f 17//13 13//13 18//13
f 19//14 17//14 20//14
f 21//15 22//15 14//15
f 20//16 23//16 24//16
f 12//17 11//17 16//17
f 20//18 18//18 23//18
f 15//19 23//19 18//19
f 13//20 17//20 21//20
f 19//21 21//21 17//21
f 23//22 22//22 24//22
f 14//23 23//23 15//23
f 12//24 16//24 15//24
f 15//25 18//25 12//25
f 13//26 12//26 18//26
f 18//27 20//27 17//27
f 21//28 16//28 11//28
f 4//29 2//29 5//29
f 4//30 8//30 1//30
f 5//31 2//31 1//31
f 6//32 9//32 8//32
f 10//33 6//33 5//33
f 6//34 10//34 9//34
f 21//35 11//35 13//35
f 19//36 22//36 21//36
f 23//37 14//37 22//37
f 19//38 20//38 24//38
f 24//39 22//39 19//39
f 21//40 14//40 16//40
