# Blender v2.77 (sub 0) OBJ File: 'LowPoly_Level_Kit_Rocks.blend'
# www.blender.org
g Rock_Sharp_s_08
v -0.105173 0.000000 0.107919
v -0.105178 0.000000 -0.099597
v 0.102621 0.000000 0.107919
v 0.102617 0.000000 -0.099556
v -0.018932 0.498888 -0.093627
v 0.000080 0.433925 0.002905
v -0.100854 0.577786 -0.087474
v -0.069040 0.605939 -0.083668
v -0.046405 0.524948 -0.017225
v -0.103132 0.538019 -0.022916
v -0.071754 0.606266 -0.066580
v -0.099070 0.586296 -0.040117
v -0.090194 0.288893 -0.092832
v 0.059163 0.249444 -0.091168
v 0.070854 0.216963 0.063550
v -0.087693 0.269010 0.047050
vt 0.8506 0.5280
vt 0.8520 0.5307
vt 0.8487 0.5299
vt 0.8095 0.5304
vt 0.8059 0.5363
vt 0.8076 0.5280
vt 0.8098 0.5350
vt 0.8027 0.5447
vt 0.8475 0.5343
vt 0.8267 0.5280
vt 0.8302 0.5378
vt 0.8245 0.5306
vt 0.8524 0.5568
vt 0.8252 0.5568
vt 0.8087 0.5602
vt 0.8168 0.5449
vt 0.8103 0.5625
vt 0.8101 0.5388
vt 0.8517 0.5281
vt 0.8154 0.5358
vt 0.8427 0.5586
vt 0.8355 0.5604
vt 0.7978 0.5652
vt 0.8210 0.5656
vt 0.8242 0.5830
vt 0.8099 0.5852
vt 0.8528 0.5831
vt 0.8108 0.5281
vt 0.8099 0.5853
vt 0.8385 0.5830
vt 0.8242 0.5852
vt 0.8385 0.5831
vt 0.8120 0.5280
vt 0.7956 0.5853
vn -0.6538 0.7487 -0.1099
vn 0.3250 0.5627 0.7601
vn -0.0549 0.1888 0.9805
vn -0.9956 0.0913 0.0211
vn 0.0262 0.1048 -0.9941
vn -0.9977 -0.0358 -0.0572
vn -0.0592 0.0163 -0.9981
vn 0.0125 0.2524 0.9676
vn 0.9542 0.2989 0.0132
vn -0.6502 0.7506 -0.1176
vn -0.0168 0.3368 0.9414
vn 0.8668 0.4757 0.1494
vn -0.9985 -0.0547 0.0101
vn 0.0093 -0.0069 -0.9999
vn -0.0133 0.2652 0.9641
vn 0.9513 0.3083 -0.0072
vn 0.0171 0.0225 -0.9996
vn 0.9842 0.1727 -0.0381
vn -0.9984 0.0512 0.0251
vn 0.8965 0.4024 0.1851
vn -0.0284 0.2224 0.9745
vn 0.0002 0.0336 -0.9994
vn 0.9895 0.1449 -0.0000
vn -0.9979 0.0648 0.0000
vn 0.9184 0.3705 0.1388
vn -0.0000 0.2004 0.9797
s off
f 11/1/1 7/2/1 12/3/1
f 12/4/2 9/5/2 11/6/2
f 9/5/3 10/7/3 6/8/3
f 12/3/4 7/2/4 10/9/4
f 8/10/5 5/11/5 7/12/5
f 13/13/6 10/9/6 7/2/6
f 5/11/7 13/14/7 7/12/7
f 16/15/8 6/8/8 10/7/8
f 6/16/9 14/17/9 5/18/9
f 11/1/10 8/19/10 7/2/10
f 12/4/11 10/7/11 9/5/11
f 6/16/12 5/18/12 9/20/12
f 13/13/13 16/21/13 10/9/13
f 5/11/14 14/22/14 13/14/14
f 16/15/15 15/23/15 6/8/15
f 6/16/16 15/24/16 14/17/16
f 14/22/17 2/25/17 13/14/17
f 15/24/18 4/26/18 14/17/18
f 2/27/19 16/21/19 13/13/19
f 8/28/20 9/20/20 5/18/20
f 1/29/21 15/23/21 16/15/21
f 14/22/22 4/30/22 2/25/22
f 15/24/23 3/31/23 4/26/23
f 2/27/24 1/32/24 16/21/24
f 8/28/25 11/33/25 9/20/25
f 1/29/26 3/34/26 15/23/26
