# Blender v2.77 (sub 0) OBJ File: 'LowPoly_Level_Kit_Rocks.blend'
# www.blender.org
g Rocks_Sharp_s_03
v -0.001926 0.049112 0.008337
v -0.065839 -0.006742 0.099767
v 0.120687 -0.004144 0.045325
v -0.076446 -0.006567 -0.094546
v 0.302903 -0.027306 0.298581
v 0.276644 -0.012202 0.328909
v 0.254519 0.038968 0.244834
v 0.233098 0.047444 0.280537
v 0.183994 -0.026872 0.227136
v 0.169626 -0.011812 0.264609
v -0.359724 0.094478 0.323925
v -0.402517 -0.006066 0.439079
v -0.245271 -0.003877 0.393182
v -0.411459 -0.005919 0.275268
v -0.139619 0.020431 -0.545287
v -0.140697 0.032321 -0.512791
v -0.217895 0.016742 -0.533660
v -0.211146 0.029001 -0.502327
v -0.209633 -0.054847 -0.500754
v -0.203711 -0.035429 -0.472712
vt 0.2659 0.5228
vt 0.2994 0.5155
vt 0.2994 0.5489
vt 0.3142 0.6008
vt 0.2994 0.5896
vt 0.3142 0.5708
vt 0.2994 0.5905
vt 0.2906 0.5700
vt 0.2994 0.5489
vt 0.3405 0.6023
vt 0.3251 0.5838
vt 0.3405 0.5689
vt 0.3397 0.5394
vt 0.3277 0.5275
vt 0.3397 0.5155
vt 0.2829 0.5926
vt 0.2904 0.5773
vt 0.2904 0.5937
vt 0.2773 0.5787
vt 0.2829 0.5942
vt 0.2773 0.5939
vt 0.3397 0.5382
vt 0.3470 0.5155
vt 0.3470 0.5394
vt 0.2659 0.5934
vt 0.3277 0.5155
vt 0.3277 0.5436
vt 0.2994 0.5374
vt 0.3378 0.5436
vt 0.3466 0.5689
vt 0.3251 0.5689
vt 0.2874 0.5773
vt 0.2659 0.5773
vt 0.2663 0.5489
vt 0.2994 0.5576
vt 0.3251 0.5436
vt 0.3251 0.5708
vt 0.3247 0.5708
vt 0.3247 0.5842
vt 0.3142 0.5825
vt 0.3466 0.5820
vt 0.3405 0.5944
vt 0.3405 0.5811
vt 0.3142 0.5853
vt 0.3203 0.5976
vt 0.3142 0.5973
vt 0.3466 0.5552
vt 0.3516 0.5453
vt 0.3516 0.5583
vt 0.3525 0.5689
vt 0.3527 0.5811
vt 0.3405 0.5811
vt 0.2829 0.5779
vt 0.2829 0.5773
vt 0.3397 0.5167
vt 0.3466 0.5939
vt 0.3203 0.5842
vt 0.3466 0.5436
vn 0.0134 -0.9999 -0.0016
vn -0.6288 0.7768 0.0350
vn 0.4583 0.5993 -0.6563
vn 0.1626 0.7874 0.5947
vn 0.4897 -0.3049 -0.8168
vn -0.5296 0.6972 -0.4832
vn 0.6790 0.6927 0.2429
vn -0.1861 -0.9343 0.3041
vn -0.4897 0.3049 0.8168
vn -0.8974 0.4385 0.0494
vn 0.5751 0.0973 -0.8123
vn 0.1901 0.7035 0.6848
vn -0.1133 -0.4257 -0.8977
vn -0.9764 -0.0136 0.2156
vn -0.0952 0.9338 -0.3448
vn 0.7775 -0.5819 0.2387
vn 0.1133 0.4257 0.8977
s off
f 3/1/1 2/2/1 4/3/1
f 2/4/2 1/5/2 4/6/2
f 4/7/3 1/8/3 3/9/3
f 3/10/4 1/11/4 2/12/4
f 9/13/5 7/14/5 5/15/5
f 10/16/6 7/17/6 9/18/6
f 6/19/7 7/20/7 8/21/7
f 6/22/8 9/23/8 5/24/8
f 6/19/9 8/21/9 10/25/9
f 13/26/1 12/27/1 14/28/1
f 12/29/10 11/30/10 14/31/10
f 14/32/11 11/33/11 13/34/11
f 13/35/12 11/36/12 12/37/12
f 19/38/13 17/39/13 15/40/13
f 20/41/14 17/42/14 19/43/14
f 16/44/15 17/45/15 18/46/15
f 16/47/16 19/48/16 15/49/16
f 16/50/17 18/51/17 20/52/17
f 10/16/6 8/53/6 7/17/6
f 6/19/7 5/54/7 7/20/7
f 6/22/8 10/55/8 9/23/8
f 20/41/14 18/56/14 17/42/14
f 16/44/15 15/57/15 17/45/15
f 16/47/16 20/58/16 19/48/16
