# Blender v2.77 (sub 0) OBJ File: 'LowPoly_Level_Kit_Rocks.blend'
# www.blender.org
g Rock_Sharp_m_14
v 0.395353 0.726887 0.156172
v 0.268960 1.029378 0.096431
v -0.153710 0.405280 0.370845
v 0.056378 0.219840 -0.474411
v -0.163173 -0.003161 -0.467595
v -0.319041 0.271756 -0.444099
v -0.662249 -0.003161 -0.436632
v -0.791104 -0.003161 -0.115680
v -0.445771 0.385991 -0.138627
v -0.804314 -0.003161 0.335127
v 0.173340 1.101970 -0.312172
v 0.103311 1.122662 -0.138471
v 0.547528 0.911951 -0.075368
v 0.448510 1.059296 0.055286
v -0.356313 -0.003161 0.444974
v 0.515211 0.904090 -0.302540
v 0.166104 0.654397 -0.426469
v 0.422598 1.102947 -0.361867
v 0.368564 0.471107 0.083905
v 0.309486 0.505161 -0.293762
v 0.135369 -0.003161 -0.335046
v 0.434232 1.538375 -0.121488
v 0.641568 1.565037 -0.092985
v 0.026137 -0.003161 0.391784
v 0.002017 0.754296 0.213918
v -0.452450 0.346107 0.161132
v 0.251906 -0.003161 0.136092
vt 0.6720 0.5459
vt 0.6821 0.5390
vt 0.6799 0.5722
vt 0.7221 0.5351
vt 0.7243 0.5224
vt 0.7341 0.5282
vt 0.6621 0.5321
vt 0.6507 0.5136
vt 0.6661 0.5108
vt 0.7113 0.5374
vt 0.6993 0.5534
vt 0.7034 0.5357
vt 0.7159 0.5340
vt 0.7166 0.5485
vt 0.7276 0.5527
vt 0.7232 0.5699
vt 0.7216 0.5516
vt 0.6893 0.5652
vt 0.6947 0.5477
vt 0.7122 0.5580
vt 0.6931 0.5746
vt 0.7292 0.5742
vt 0.7388 0.5904
vt 0.7336 0.5963
vt 0.6779 0.5331
vt 0.6889 0.5164
vt 0.6523 0.5351
vt 0.6394 0.5188
vt 0.6874 0.5790
vt 0.6766 0.5908
vt 0.7166 0.5832
vt 0.6834 0.5556
vt 0.6661 0.5806
vt 0.7020 0.5282
vt 0.7159 0.5108
vt 0.6507 0.5751
vt 0.6405 0.5368
vt 0.7166 0.5300
vt 0.7367 0.5686
vt 0.7388 0.5108
vt 0.6723 0.5336
vt 0.6837 0.5108
vt 0.6570 0.5729
vt 0.6602 0.5947
vt 0.6893 0.5374
vt 0.6661 0.5569
vt 0.6954 0.6102
vt 0.6893 0.6019
vt 0.6954 0.5832
vt 0.7098 0.5782
vt 0.6893 0.6007
vn 0.2078 0.2724 0.9395
vn -0.0745 0.0429 -0.9963
vn -0.7095 0.7044 -0.0208
vn 0.8824 -0.4575 -0.1097
vn 0.8189 0.0428 0.5724
vn 0.4877 -0.2698 -0.8303
vn 0.6341 -0.0752 -0.7696
vn 0.8856 -0.2098 0.4143
vn 0.9359 -0.3064 -0.1740
vn 0.0583 0.4813 -0.8746
vn 0.1544 0.3461 0.9254
vn -0.7241 0.6254 -0.2907
vn -0.5765 0.4138 0.7045
vn 0.8100 -0.2365 0.5366
vn -0.0389 0.4242 0.9048
vn 0.1369 0.1107 0.9844
vn 0.2719 0.1683 0.9475
vn 0.6802 0.1002 -0.7261
vn -0.0627 0.1251 -0.9902
vn -0.7163 0.5019 -0.4848
vn 0.3731 -0.3930 -0.8404
vn -0.1598 0.2467 -0.9558
vn -0.0618 0.0501 -0.9968
vn -0.1905 0.2458 -0.9504
vn 0.7429 -0.0891 0.6635
vn 0.9803 -0.1448 -0.1344
vn -0.7222 0.5897 -0.3614
vn -0.6226 0.4700 0.6257
vn -0.5540 0.5343 0.6385
vn -0.6174 0.6258 0.4767
vn -0.8003 0.5965 0.0615
vn -0.4441 0.6801 0.5833
vn 0.1742 0.2604 0.9497
vn 0.7450 -0.1109 0.6578
vn -0.7439 0.6644 0.0718
vn 0.8879 -0.4245 -0.1772
vn 0.3906 -0.0914 -0.9160
vn 0.6997 -0.1836 -0.6904
vn 0.9383 -0.2563 -0.2321
vn -0.1734 0.4795 -0.8602
vn -0.1706 0.3366 0.9261
vn -0.5537 0.6781 -0.4833
vn -0.1929 0.5863 0.7868
vn -0.7458 0.5560 -0.3669
s off
f 1/1/1 2/2/1 3/3/1
f 4/4/2 5/5/2 6/6/2
f 26/7/3 8/8/3 10/9/3
f 13/10/4 20/11/4 16/12/4
f 13/10/5 14/13/5 1/14/5
f 17/15/6 16/16/6 20/17/6
f 20/11/7 4/18/7 17/19/7
f 13/10/8 1/14/8 19/20/8
f 19/20/9 21/21/9 20/11/9
f 18/22/10 22/23/10 23/24/10
f 14/25/11 22/26/11 2/2/11
f 9/27/12 7/28/12 8/8/12
f 26/29/13 15/30/13 3/3/13
f 1/14/14 24/31/14 19/20/14
f 3/3/15 2/2/15 25/32/15
f 24/33/16 3/3/16 15/30/16
f 3/3/17 24/33/17 1/1/17
f 18/34/18 23/35/18 16/12/18
f 17/15/19 4/4/19 6/6/19
f 9/27/20 11/36/20 6/37/20
f 4/4/21 21/38/21 5/5/21
f 6/6/22 11/39/22 17/15/22
f 5/5/23 7/40/23 6/6/23
f 18/22/24 17/15/24 11/39/24
f 14/25/25 13/41/25 23/42/25
f 23/35/26 13/10/26 16/12/26
f 12/43/27 22/44/27 11/36/27
f 2/2/28 22/26/28 12/45/28
f 26/29/29 3/3/29 25/32/29
f 26/7/30 25/46/30 12/43/30
f 9/27/31 26/7/31 12/43/31
f 12/45/32 25/32/32 2/2/32
f 14/25/33 2/2/33 1/1/33
f 24/47/34 27/48/34 19/49/34
f 26/7/35 9/27/35 8/8/35
f 13/10/36 19/20/36 20/11/36
f 17/15/37 18/22/37 16/16/37
f 20/11/38 21/21/38 4/18/38
f 19/20/39 27/50/39 21/21/39
f 18/22/40 11/39/40 22/23/40
f 14/25/41 23/42/41 22/26/41
f 9/27/42 6/37/42 7/28/42
f 26/29/43 10/51/43 15/30/43
f 9/27/44 12/43/44 11/36/44
