# Blender v2.77 (sub 0) OBJ File: 'LowPoly_Level_Kit_Rocks.blend'
# www.blender.org
g Rock_Sharp_m_01
v -0.200602 -0.000000 -0.160882
v -0.085781 1.420546 -0.204261
v -0.202198 -0.000000 -0.076622
v 0.012115 -0.000000 0.212701
v -0.084633 1.478436 -0.019683
v -0.088266 0.759648 0.174394
v -0.139908 0.820851 0.112507
v 0.071629 0.984616 -0.223240
v 0.016367 1.649071 -0.165277
v 0.247298 -0.000000 -0.036742
v 0.306223 -0.000000 0.134410
v 0.026156 1.450086 0.084830
v -0.007039 1.649391 0.001153
v 0.147396 1.215240 0.072660
v 0.034404 1.709017 -0.093176
v -0.070068 0.913886 -0.252613
v -0.168642 0.387543 -0.206266
v -0.095364 1.297870 -0.218073
vt 0.0842 0.5308
vt 0.0734 0.5171
vt 0.0787 0.5201
vt 0.0994 0.5586
vt 0.0897 0.5857
vt 0.0974 0.5386
vt 0.0977 0.5323
vt 0.1071 0.5549
vt 0.0600 0.5803
vt 0.0482 0.5563
vt 0.0600 0.5176
vt 0.0201 0.5407
vt 0.0214 0.5198
vt 0.0428 0.5600
vt 0.1071 0.6055
vt 0.1030 0.5204
vt 0.0899 0.5288
vt 0.0847 0.5436
vt 0.0673 0.5199
vt 0.0564 0.5923
vt 0.0483 0.5171
vt 0.0521 0.6032
vt 0.0451 0.5947
vt 0.0323 0.5872
vt 0.0348 0.5934
vt 0.0943 0.5199
vt 0.1012 0.5171
vt 0.0170 0.5205
vt 0.0847 0.6056
vt 0.0600 0.5542
vt 0.0847 0.6072
vt 0.0709 0.6064
vn 0.7500 0.3584 0.5560
vn -0.5748 0.0357 -0.8175
vn 0.1546 0.0986 -0.9830
vn 0.2564 0.0824 0.9631
vn -0.9966 0.0800 -0.0189
vn 0.2647 -0.1337 -0.9550
vn -0.8973 0.4227 -0.1270
vn 0.9402 0.1064 -0.3237
vn -0.6441 0.2024 0.7377
vn -0.8012 -0.0759 0.5935
vn -0.8973 0.4228 -0.1270
s off
f 12/1/1 15/2/1 13/3/1
f 16/4/2 17/5/2 18/6/2
f 2/7/3 8/8/3 18/6/3
f 14/9/4 6/10/4 11/11/4
f 17/12/5 3/13/5 7/14/5
f 17/5/6 8/8/6 10/15/6
f 9/16/7 2/7/7 5/17/7
f 14/18/8 9/19/8 15/2/8
f 12/1/1 14/18/1 15/2/1
f 16/4/3 18/6/3 8/8/3
f 2/7/3 9/16/3 8/8/3
f 12/20/9 7/14/9 6/10/9
f 6/10/10 3/13/10 4/21/10
f 4/21/4 11/11/4 6/10/4
f 14/9/4 12/20/4 6/10/4
f 13/22/9 5/23/9 12/20/9
f 7/14/5 18/24/5 17/12/5
f 5/23/5 2/25/5 18/24/5
f 9/16/11 13/26/11 15/27/11
f 1/28/5 3/13/5 17/12/5
f 10/15/6 1/29/6 17/5/6
f 17/5/6 16/4/6 8/8/6
f 8/30/8 11/31/8 10/32/8
f 14/18/8 8/30/8 9/19/8
f 12/20/9 5/23/9 7/14/9
f 6/10/10 7/14/10 3/13/10
f 7/14/5 5/23/5 18/24/5
f 9/16/7 5/17/7 13/26/7
f 8/30/8 14/18/8 11/31/8
