# Blender v2.77 (sub 0) OBJ File: 'LowPoly_Level_Kit_Rocks.blend'
# www.blender.org
g Rock_Sharp_m_17
v 0.658189 0.222765 -0.574293
v 0.627571 0.014036 -0.655529
v 0.608453 0.000000 -0.631057
v 0.100327 0.000000 0.260552
v 0.376936 0.174652 -0.713437
v 0.592396 0.114105 -0.748856
v 0.657189 0.223813 -0.571861
v 0.655161 0.223260 -0.582326
v 0.631135 0.220953 -0.646074
v 0.315350 0.249442 -0.650020
v -0.284575 0.341509 -0.119401
v -0.507301 0.101892 0.707434
v -0.001075 0.131549 0.523540
v 0.304265 0.303253 0.098779
v 0.091735 0.323372 0.109529
v -0.645601 0.151770 0.166355
v -0.373700 0.328239 -0.044261
v -0.710605 0.087420 0.613000
v -0.426672 0.274964 0.334651
v -0.617218 0.141753 0.652892
v 0.013633 0.059935 -0.415445
v 0.387383 0.000000 -0.526443
v -0.542806 0.000000 0.556156
v -0.671833 0.012887 0.636658
v -0.611814 0.093831 0.129248
v -0.682508 0.016157 0.631405
vt 0.8312 0.6058
vt 0.8398 0.6118
vt 0.8314 0.6061
vt 0.7787 0.5110
vt 0.7904 0.5191
vt 0.7907 0.5239
vt 0.7753 0.5124
vt 0.7748 0.5127
vt 0.7749 0.5126
vt 0.8442 0.6062
vt 0.8312 0.6057
vt 0.8233 0.5305
vt 0.8028 0.5176
vt 0.8050 0.5090
vt 0.7921 0.5750
vt 0.7688 0.5614
vt 0.7920 0.5684
vt 0.7921 0.5555
vt 0.8123 0.5963
vt 0.8088 0.6094
vt 0.8442 0.5585
vt 0.8496 0.5139
vt 0.8600 0.5353
vt 0.8325 0.6084
vt 0.8435 0.6079
vt 0.7834 0.5090
vt 0.7613 0.5522
vt 0.7783 0.5914
vt 0.7921 0.5944
vt 0.8233 0.5639
vt 0.8310 0.5341
vt 0.8398 0.5490
vt 0.8545 0.5843
vt 0.8600 0.6029
vt 0.8562 0.6033
vt 0.8044 0.5092
vt 0.8221 0.5766
vt 0.8492 0.6039
vt 0.8442 0.6099
vt 0.8444 0.6035
vt 0.7539 0.5810
vt 0.8442 0.5165
vt 0.8366 0.5107
vt 0.8093 0.6111
vt 0.8233 0.6031
vt 0.8161 0.6133
vt 0.8487 0.6033
vt 0.7759 0.6139
vt 0.7713 0.6114
vt 0.8442 0.5090
vt 0.7648 0.6089
vt 0.8578 0.5815
vt 0.8449 0.5651
vt 0.8538 0.5090
vt 0.8492 0.6150
vn 0.9357 0.0000 -0.3527
vn 0.0703 0.6782 -0.7315
vn 0.5244 0.8389 -0.1459
vn 0.8274 -0.3049 0.4716
vn -0.2071 -0.9620 -0.1780
vn 0.0905 0.9934 -0.0701
vn -0.0341 0.9903 0.1345
vn 0.0000 -1.0000 0.0000
vn -0.6501 0.1031 -0.7529
vn -0.5175 0.8544 0.0478
vn -0.8961 -0.4019 -0.1883
vn -0.4242 0.0660 0.9032
vn 0.1067 0.8928 0.4376
vn 0.2322 -0.8311 0.5053
vn -0.3035 -0.7047 -0.6413
vn -0.4242 0.0660 0.9031
s off
f 1/1/1 6/2/1 8/3/1
f 9/4/2 5/5/2 10/6/2
f 8/7/3 7/8/3 1/9/3
f 3/10/4 1/1/4 7/11/4
f 25/12/5 23/13/5 26/14/5
f 8/7/6 10/6/6 7/8/6
f 17/15/7 15/16/7 11/17/7
f 4/18/8 22/19/8 3/20/8
f 11/21/9 10/22/9 21/23/9
f 9/24/1 8/3/1 6/2/1
f 1/1/1 2/25/1 6/2/1
f 9/4/2 6/26/2 5/5/2
f 14/27/6 10/6/6 15/16/6
f 19/28/10 17/15/10 16/29/10
f 14/30/4 13/31/4 4/32/4
f 16/33/11 26/34/11 18/35/11
f 2/25/4 1/1/4 3/10/4
f 24/36/5 26/14/5 23/13/5
f 25/12/5 21/37/5 23/13/5
f 22/19/5 23/13/5 21/37/5
f 24/38/12 20/39/12 18/40/12
f 8/7/6 9/4/6 10/6/6
f 10/6/6 11/17/6 15/16/6
f 14/27/13 15/16/13 13/41/13
f 19/28/7 15/16/7 17/15/7
f 23/42/14 13/31/14 12/43/14
f 2/44/15 5/45/15 6/46/15
f 26/47/16 24/38/16 18/40/16
f 19/28/10 18/48/10 20/49/10
f 24/50/14 23/42/14 12/43/14
f 4/18/8 23/13/8 22/19/8
f 12/51/13 19/28/13 20/49/13
f 2/44/15 3/20/15 22/19/15
f 22/19/15 21/37/15 5/45/15
f 25/52/9 16/33/9 17/53/9
f 17/53/9 11/21/9 21/23/9
f 10/22/9 5/54/9 21/23/9
f 21/23/9 25/52/9 17/53/9
f 14/30/4 3/10/4 7/11/4
f 14/27/6 7/8/6 10/6/6
f 16/33/11 25/52/11 26/34/11
f 24/38/12 12/55/12 20/39/12
f 19/28/13 13/41/13 15/16/13
f 23/42/14 4/32/14 13/31/14
f 2/44/15 22/19/15 5/45/15
f 19/28/10 16/29/10 18/48/10
f 12/51/13 13/41/13 19/28/13
f 14/30/4 4/32/4 3/10/4
