# Blender v2.77 (sub 0) OBJ File: 'LowPoly_Level_Kit_Rocks.blend'
# www.blender.org
g Rock_Sharp_m_12
v 0.125922 0.000776 -0.375401
v 0.321663 0.001454 -0.106592
v 0.358212 0.309129 -0.012697
v -0.057420 0.000876 0.368701
v 0.109980 0.110496 -0.385356
v -0.272664 0.000000 -0.297134
v -0.297299 0.000015 0.249879
v -0.264368 0.133917 -0.311826
v -0.247048 0.508421 -0.250889
v 0.526971 1.693333 0.072172
v 0.467185 1.769295 -0.016176
v 0.383174 1.734754 0.022339
v 0.518733 1.678470 0.089161
v 0.256874 0.520486 0.239654
v 0.058392 0.290655 0.359755
v 0.482083 1.538782 0.137098
v 0.228295 1.142758 0.227550
v -0.284813 0.259784 0.195541
v 0.055059 1.303290 0.098977
vt 0.3832 0.5893
vt 0.4002 0.6093
vt 0.3811 0.6017
vt 0.4180 0.5067
vt 0.4176 0.5999
vt 0.3993 0.5828
vt 0.4570 0.5067
vt 0.4594 0.5103
vt 0.4515 0.5102
vt 0.4206 0.5818
vt 0.4184 0.5067
vt 0.4225 0.5148
vt 0.4339 0.5698
vt 0.4338 0.5371
vt 0.4448 0.5828
vt 0.4669 0.5386
vt 0.4502 0.5193
vt 0.3987 0.5339
vt 0.4009 0.6027
vt 0.4831 0.5067
vt 0.4856 0.5120
vt 0.4671 0.5119
vt 0.4669 0.5293
vt 0.4513 0.5112
vt 0.4194 0.5074
vt 0.4669 0.5975
vt 0.4500 0.6078
vt 0.4486 0.5912
vt 0.4545 0.5446
vt 0.4135 0.5089
vt 0.4180 0.5989
vt 0.4856 0.6053
vt 0.4793 0.6031
vt 0.4180 0.6050
vt 0.4631 0.6112
vt 0.4486 0.5989
vn -0.9982 0.0386 -0.0450
vn -0.1002 0.2367 -0.9664
vn -0.0098 0.7549 0.6557
vn 0.9353 -0.1341 0.3274
vn 0.4837 0.0392 0.8744
vn -0.2847 0.3733 0.8829
vn -0.9438 0.3163 0.0963
vn -0.1800 0.1661 -0.9695
vn 0.8067 0.0639 -0.5876
vn 0.8089 0.0816 -0.5823
vn 0.9317 -0.1278 0.3400
vn 0.8702 -0.1450 0.4709
vn 0.2909 0.0320 0.9562
vn -0.4374 0.2019 0.8763
vn 0.7415 -0.3372 0.5801
vn -0.2792 0.3764 0.8834
vn -0.2913 0.3865 0.8751
vn -0.4780 0.2121 -0.8524
vn -0.7014 0.4931 -0.5147
vn 0.7562 -0.2715 0.5953
vn -0.9970 0.0549 -0.0538
vn -0.4389 0.2235 0.8703
vn 0.8014 -0.0612 -0.5950
vn -0.1912 -0.1162 -0.9747
vn -0.9970 0.0558 -0.0540
vn -0.4351 0.2043 0.8769
vn 0.7504 -0.2814 0.5981
vn -0.4370 0.2224 0.8715
vn 0.8460 -0.0644 -0.5292
vn -0.1976 -0.0948 -0.9757
s off
f 18/1/1 6/2/1 7/3/1
f 11/4/2 5/5/2 9/6/2
f 11/7/3 12/8/3 10/9/3
f 3/10/4 10/11/4 16/12/4
f 14/13/5 17/14/5 15/15/5
f 19/16/6 16/17/6 12/8/6
f 9/6/7 18/1/7 19/18/7
f 8/19/8 9/6/8 5/5/8
f 1/20/9 5/21/9 2/22/9
f 3/23/10 2/22/10 5/21/10
f 13/24/3 10/9/3 12/8/3
f 13/25/11 16/12/11 10/11/11
f 14/13/12 3/10/12 16/12/12
f 14/13/13 16/12/13 17/14/13
f 18/26/14 4/27/14 15/28/14
f 3/10/15 14/13/15 15/15/15
f 13/24/16 12/8/16 16/17/16
f 17/29/17 16/17/17 19/16/17
f 19/18/18 12/30/18 11/4/18
f 11/4/19 9/6/19 19/18/19
f 15/15/20 2/31/20 3/10/20
f 9/6/21 8/19/21 18/1/21
f 18/26/22 17/29/22 19/16/22
f 3/23/23 11/32/23 10/33/23
f 6/2/24 5/5/24 1/34/24
f 18/1/25 8/19/25 6/2/25
f 18/26/26 7/35/26 4/27/26
f 15/15/27 4/36/27 2/31/27
f 18/26/28 15/28/28 17/29/28
f 3/23/29 5/21/29 11/32/29
f 6/2/30 8/19/30 5/5/30
