# Blender v2.77 (sub 0) OBJ File: 'LowPoly_Level_Kit_Rocks.blend'
# www.blender.org
g Rock_Sharp_l_01
v 7.384192 8.507472 -0.246740
v 4.836407 7.249558 -0.364187
v 5.962107 7.976412 0.849523
v 0.683234 1.708812 -3.556895
v 0.744597 0.008261 -2.694736
v -0.897384 0.004151 -3.827557
v 4.859946 6.613789 1.620314
v 1.847556 1.921318 2.609859
v 5.596158 5.809948 1.257980
v 3.923432 4.531916 -1.265365
v 5.482430 5.296228 0.116647
v 1.006380 2.802673 3.132617
v -0.186417 0.656710 4.177406
v -0.843304 1.546025 3.776911
v -1.679953 0.023985 4.238910
v -4.198999 0.004873 0.926478
v 0.521174 -0.001850 3.185419
v 4.103713 5.807722 -1.247265
v 0.850792 4.337000 1.720522
v 1.845861 3.679188 -2.281105
v 1.934803 5.349049 -0.668916
v -1.198005 2.857977 -0.486469
v -0.041329 2.977643 -2.785223
v -2.875456 1.410433 -1.513592
v 1.990276 1.915778 -2.030339
v 2.585768 1.992016 1.466066
v -4.124521 0.046048 2.952208
v -1.151508 2.878310 1.581565
v 1.999023 0.849790 -0.154285
v 2.576149 5.906281 0.726276
v 1.532873 0.132299 1.624082
v -3.398051 0.032190 -3.803220
vt 0.2897 0.5139
vt 0.2867 0.5331
vt 0.2821 0.5220
vt 0.3492 0.5421
vt 0.3431 0.5357
vt 0.3490 0.5257
vt 0.2840 0.5575
vt 0.2783 0.5849
vt 0.2700 0.5640
vt 0.3090 0.5483
vt 0.3210 0.5139
vt 0.3184 0.5402
vt 0.3247 0.5776
vt 0.3179 0.5875
vt 0.3197 0.5725
vt 0.3272 0.5969
vt 0.3312 0.5787
vt 0.3332 0.5950
vt 0.3267 0.5384
vt 0.3326 0.5253
vt 0.3311 0.5387
vt 0.3518 0.5829
vt 0.3546 0.5952
vt 0.3494 0.6137
vt 0.3395 0.5694
vt 0.2916 0.5680
vt 0.2898 0.5449
vt 0.2916 0.5819
vt 0.2809 0.6019
vt 0.3569 0.5463
vt 0.3587 0.5714
vt 0.3524 0.5597
vt 0.3455 0.5523
vt 0.3247 0.5387
vt 0.2560 0.6075
vt 0.2663 0.6113
vt 0.2677 0.5813
vt 0.3431 0.6166
vt 0.3309 0.6073
vt 0.3247 0.5948
vt 0.3479 0.5758
vt 0.3397 0.5515
vt 0.3311 0.5139
vt 0.2778 0.5494
vt 0.3098 0.5787
vt 0.2965 0.6043
vt 0.2916 0.6043
vt 0.2928 0.5947
vt 0.2948 0.5841
vt 0.3010 0.5694
vt 0.3431 0.5859
vt 0.3247 0.5947
vt 0.3587 0.5139
vt 0.2916 0.6144
vt 0.3266 0.5780
vt 0.2916 0.5731
vn -0.4340 0.8913 -0.1312
vn 0.5285 -0.3686 -0.7647
vn -0.6198 0.7831 0.0505
vn 0.7025 -0.4759 -0.5292
vn 0.7807 -0.4013 0.4791
vn 0.0255 0.4261 0.9043
vn 0.5062 0.0764 0.8590
vn -0.2597 0.5969 -0.7591
vn -0.3342 0.6197 0.7102
vn -0.3204 0.6667 -0.6729
vn -0.5489 0.8024 -0.2344
vn -0.0670 0.6949 -0.7160
vn 0.7613 -0.0298 -0.6478
vn 0.7756 -0.6010 0.1932
vn -0.7173 0.6967 0.0122
vn -0.6877 0.7259 0.0083
vn -0.4094 0.4636 0.7858
vn 0.7684 -0.1211 0.6285
vn 0.3149 -0.0310 -0.9486
vn -0.4397 0.6845 0.5814
vn -0.1064 0.3419 0.9337
vn 0.5980 0.0498 0.7999
vn 0.8591 -0.4933 0.1364
vn -0.2638 0.9314 -0.2507
vn 0.8868 -0.4621 0.0046
vn 0.3128 -0.6732 0.6700
vn 0.8469 -0.4606 -0.2656
vn 0.4662 -0.0870 -0.8804
vn -0.5891 0.8081 0.0053
vn -0.4250 0.7694 0.4768
vn -0.4647 0.5737 0.6745
vn -0.6670 0.7440 0.0408
vn -0.6693 0.7429 0.0110
vn 0.7199 -0.5441 0.4310
vn 0.4557 -0.0518 -0.8886
vn 0.8078 -0.5109 -0.2941
vn -0.5207 0.8533 -0.0281
vn 0.0287 0.5313 -0.8467
vn 0.6931 -0.7130 -0.1060
vn 0.1367 -0.9906 0.0035
vn -0.1349 0.4575 -0.8789
vn -0.5654 0.7573 -0.3268
vn -0.0078 0.1638 -0.9865
vn -0.8289 0.5423 -0.1372
vn 0.8709 -0.4905 0.0304
vn 0.3903 -0.0568 0.9189
vn -0.6092 0.7465 -0.2677
vn 0.7847 -0.3993 0.4742
vn -0.4605 0.7287 0.5069
vn 0.4760 -0.0658 0.8770
vn -0.6078 0.6159 -0.5012
vn 0.6369 -0.6948 -0.3342
vn 0.7479 -0.2785 -0.6026
vn -0.3476 0.7791 0.5216
vn 0.4476 -0.0999 0.8887
s off
f 1/1/1 2/2/1 3/3/1
f 4/4/2 5/5/2 6/6/2
f 21/7/3 22/8/3 19/9/3
f 10/10/4 1/11/4 11/12/4
f 8/13/5 31/14/5 26/15/5
f 13/16/6 12/17/6 14/18/6
f 9/19/7 3/20/7 7/21/7
f 18/22/8 2/23/8 1/24/8
f 12/17/9 7/21/9 19/25/9
f 20/26/10 21/7/10 18/27/10
f 22/8/11 23/28/11 24/29/11
f 23/30/12 21/31/12 20/32/12
f 20/32/13 25/33/13 4/4/13
f 9/34/14 26/15/14 11/12/14
f 27/35/15 24/29/15 16/36/15
f 22/8/16 27/35/16 28/37/16
f 14/18/17 27/38/17 15/39/17
f 17/40/18 12/17/18 13/16/18
f 18/22/19 1/24/19 10/41/19
f 3/20/20 30/42/20 7/21/20
f 15/39/21 13/16/21 14/18/21
f 9/19/22 1/43/22 3/20/22
f 1/11/23 9/34/23 11/12/23
f 30/44/24 18/27/24 21/7/24
f 10/10/25 26/15/25 29/45/25
f 17/46/26 13/47/26 15/48/26
f 5/49/27 25/50/27 29/45/27
f 10/41/28 25/33/28 20/32/28
f 19/9/29 22/8/29 28/37/29
f 7/21/30 30/42/30 19/25/30
f 28/51/31 12/17/31 19/25/31
f 27/35/32 22/8/32 24/29/32
f 19/9/33 30/44/33 21/7/33
f 9/34/34 8/13/34 26/15/34
f 20/32/35 18/22/35 10/41/35
f 10/10/36 29/45/36 25/50/36
f 2/2/37 30/44/37 3/3/37
f 23/30/38 20/32/38 4/4/38
f 5/49/39 29/45/39 31/14/39
f 17/52/40 5/49/40 31/14/40
f 4/4/41 32/53/41 23/30/41
f 24/29/42 23/28/42 32/54/42
f 6/6/43 32/53/43 4/4/43
f 32/54/44 16/36/44 24/29/44
f 29/45/45 26/15/45 31/14/45
f 7/21/46 8/55/46 9/19/46
f 21/7/47 23/28/47 22/8/47
f 8/13/48 17/52/48 31/14/48
f 14/18/49 28/51/49 27/38/49
f 17/40/50 8/55/50 12/17/50
f 30/44/51 2/2/51 18/27/51
f 10/10/52 11/12/52 26/15/52
f 5/49/53 4/56/53 25/50/53
f 28/51/54 14/18/54 12/17/54
f 7/21/55 12/17/55 8/55/55
