# Blender v2.77 (sub 0) OBJ File: 'LowPoly_Level_Kit_Rocks.blend'
# www.blender.org
g Rocks_Sharp_l_05
v 0.284142 2.574210 -0.192064
v 1.277499 1.941023 -0.576088
v 1.018699 1.529888 -0.062363
v 1.019636 3.494670 -0.538057
v 1.229170 2.338375 -0.356405
v 0.940294 1.039556 -0.002197
v 0.372121 2.057324 -0.036756
v 0.735958 1.954032 -0.032664
v 0.917539 1.545853 -0.018893
v 1.186118 1.117134 -0.571845
v 0.782846 -0.016338 0.032231
v 0.822995 0.081047 0.029105
v 0.696933 -0.025450 -0.695867
v 0.938103 0.592761 -0.837206
v 0.975470 3.723399 -0.606375
v 1.087656 2.862520 -0.993192
v 0.899824 2.130239 -1.139949
v 0.831388 2.261771 -1.160869
v 0.910236 3.993915 -0.842046
v 0.923580 3.841017 -0.989158
v 0.801037 3.807625 -1.048593
v 0.260361 3.138464 -0.584396
v 0.365554 3.253307 -0.411440
v 0.768194 3.989162 -0.673619
v 0.346408 3.380899 -0.906124
v 0.653104 3.903293 -0.986927
v 0.793514 4.068750 -0.794026
v 0.161713 2.557186 -0.463163
v 0.264973 2.517456 -0.202140
v 0.303179 1.454504 -0.017060
v 0.273740 0.030267 0.029727
v 0.232332 0.017762 -0.668949
v 0.321165 1.685612 -1.007326
v 0.221525 2.439021 -0.920819
v 0.090477 0.036383 -0.428094
v 0.079219 1.775559 -0.603023
v 0.269936 1.213593 0.216471
v 0.163448 0.539628 0.492894
v 0.412651 -0.013593 0.709290
v 0.698648 1.448801 0.109107
v 0.339107 0.047701 -0.197467
v 0.873870 0.811652 0.463661
v 0.850914 1.314360 0.285365
v 0.847013 1.034771 0.121929
v 0.863975 -0.005971 0.009570
v -0.016830 0.050139 0.216456
v 0.186220 0.055572 -0.131062
v 0.158579 0.833830 0.134161
v 0.482149 -0.017692 0.687612
v 0.885652 0.420489 0.506599
v 0.888754 -0.031256 0.390704
v 0.023132 0.034580 0.419491
v 0.138098 0.422904 0.508748
v 0.238282 0.004350 0.638676
v 0.446968 1.578152 0.263695
v 0.541053 1.597399 0.405783
v 0.647161 1.639513 0.437146
v 0.698792 1.665520 0.417573
v 0.678852 1.622853 0.174107
v 0.763384 1.623504 0.314229
v 0.713380 1.677163 0.384916
v 0.626574 1.666106 0.211501
v -1.208973 0.000000 0.324692
v -1.003807 0.000000 0.568784
v -0.471639 4.793505 0.199345
v 0.262295 0.000000 0.568784
v -0.273412 4.029222 0.258249
v -0.004401 3.661444 -0.088001
v 0.277789 0.000000 0.542416
v 0.277789 0.000000 -0.386753
v 0.078706 0.000000 -0.563937
v -0.177756 3.148945 -0.675287
v -1.208973 0.000000 0.171145
v -0.899123 2.396095 -0.733309
v -0.614848 0.000000 -0.638942
v -0.903982 3.957283 -0.140128
v -0.555262 5.448258 -0.037087
v -0.951049 2.650573 -0.713696
v -1.007818 2.610001 -0.628131
v -0.675294 3.851450 -0.621144
v -0.493814 5.432751 -0.159787
v -0.146944 3.835391 -0.622382
v -0.004895 3.667852 -0.502178
v -0.045207 4.190907 -0.337043
v -0.230581 4.163241 -0.597114
v -0.291412 5.006699 -0.325227
vt 0.9289 0.5511
vt 0.9302 0.5510
vt 0.9299 0.5585
vt 0.9495 0.5287
vt 0.9562 0.5312
vt 0.9492 0.5360
vt 0.9674 0.5143
vt 0.9677 0.5167
vt 0.9662 0.5173
vt 0.9375 0.5522
vt 0.9324 0.5449
vt 0.9367 0.5433
vt 0.9379 0.5361
vt 0.9505 0.5741
vt 0.9526 0.5745
vt 0.9518 0.5756
vt 0.9490 0.5497
vt 0.9428 0.5393
vt 0.9492 0.5341
vt 0.9513 0.5147
vt 0.9604 0.5246
vt 0.9599 0.5153
vt 0.9545 0.5433
vt 0.9315 0.5133
vt 0.9365 0.5247
vt 0.9291 0.5174
vt 0.9377 0.5353
vt 0.9514 0.5133
vt 0.9286 0.5209
vt 0.9704 0.5311
vt 0.9509 0.5485
vt 0.9571 0.5582
vt 0.9503 0.5662
vt 0.9547 0.5727
vt 0.9505 0.5698
vt 0.9459 0.5506
vt 0.9403 0.5501
vt 0.9422 0.5641
vt 0.9462 0.5737
vt 0.9423 0.5728
vt 0.9687 0.5424
vt 0.9678 0.5405
vt 0.9388 0.5146
vt 0.9379 0.5397
vt 0.9456 0.5596
vt 0.9449 0.5752
vt 0.9704 0.5651
vt 0.9622 0.5495
vt 0.9479 0.5612
vt 0.9624 0.5742
vt 0.9680 0.5744
vt 0.9262 0.5385
vt 0.9313 0.5728
vt 0.9318 0.5742
vt 0.9611 0.5241
vt 0.9492 0.5506
vt 0.9379 0.5734
vt 0.9416 0.5138
vt 0.9471 0.5133
vt 0.9644 0.5160
vt 0.9604 0.5481
vt 0.9604 0.5383
vt 0.9659 0.5133
vt 0.3285 0.5466
vt 0.3326 0.5453
vt 0.3328 0.5574
vt 0.3343 0.5631
vt 0.3372 0.5692
vt 0.3354 0.5689
vt 0.3367 0.5507
vt 0.3350 0.5448
vt 0.3376 0.5447
vt 0.2916 0.5800
vt 0.2979 0.5651
vt 0.2979 0.5808
vt 0.3491 0.5524
vt 0.3440 0.5457
vt 0.3491 0.5459
vt 0.2979 0.5624
vt 0.3031 0.5712
vt 0.2988 0.5682
vt 0.3405 0.5545
vt 0.3432 0.5457
vt 0.3467 0.5707
vt 0.3366 0.5525
vt 0.3491 0.5583
vt 0.3012 0.5803
vt 0.3000 0.5811
vt 0.3014 0.5756
vt 0.2960 0.5563
vt 0.2962 0.5589
vt 0.2933 0.5568
vt 0.2989 0.5556
vt 0.3035 0.5556
vt 0.3035 0.5776
vt 0.3029 0.5802
vt 0.3454 0.5702
vt 0.3402 0.5528
vt 0.3412 0.5462
vt 0.3350 0.5708
vt 0.3376 0.5701
vt 0.3371 0.5709
vt 0.3473 0.5711
vt 0.3374 0.5707
vt 0.3004 0.5812
vt 0.2898 0.5798
vt 0.2897 0.5680
vt 0.2911 0.5622
vt 0.2954 0.5556
vt 0.3024 0.5810
vt 0.6506 0.5247
vt 0.6591 0.5851
vt 0.6440 0.5851
vt 0.6692 0.5200
vt 0.6636 0.5370
vt 0.6672 0.5133
vt 0.6392 0.5725
vt 0.6392 0.5134
vt 0.6411 0.5133
vt 0.6295 0.5162
vt 0.6321 0.5531
vt 0.6306 0.5504
vt 0.6688 0.5481
vt 0.6595 0.5585
vt 0.6530 0.5133
vt 0.6692 0.5328
vt 0.6732 0.5399
vt 0.6757 0.5322
vt 0.6782 0.5404
vt 0.6720 0.5371
vt 0.6726 0.5322
vt 0.6828 0.5350
vt 0.6766 0.5198
vt 0.6828 0.5234
vt 0.6440 0.5136
vt 0.6440 0.5857
vt 0.6714 0.5954
vt 0.6714 0.5404
vt 0.6311 0.5539
vt 0.6418 0.5953
vt 0.6333 0.5722
vt 0.6714 0.5950
vt 0.6825 0.5960
vt 0.6791 0.5134
vt 0.6806 0.5133
vt 0.6690 0.5953
vt 0.6403 0.5954
vt 0.6699 0.5378
vt 0.6591 0.5547
vt 0.6828 0.5960
vt 0.6607 0.5945
vn 0.4008 0.0482 0.9149
vn 0.9184 -0.0999 0.3827
vn 0.1535 0.6920 -0.7053
vn -0.0019 0.0329 0.9995
vn -0.6818 0.1016 0.7245
vn 0.6019 0.6021 0.5246
vn 0.4140 0.2140 0.8848
vn -0.9278 0.0314 0.3718
vn 0.9184 -0.3819 -0.1036
vn 0.0740 0.2985 0.9515
vn 0.4188 0.0740 -0.9051
vn 0.8125 -0.0931 -0.5755
vn 0.9828 0.1651 -0.0825
vn -0.9779 0.1322 -0.1619
vn -0.8389 0.5182 0.1661
vn -0.8622 -0.0562 -0.5035
vn -0.8918 0.2323 0.3882
vn -0.0748 -0.1944 -0.9781
vn -0.3502 0.0610 -0.9347
vn -0.8560 0.1393 -0.4979
vn -0.8074 0.3286 0.4901
vn -0.7095 0.0484 0.7031
vn 0.3742 0.1056 -0.9213
vn 0.5735 -0.1999 0.7945
vn 0.9977 0.0231 -0.0633
vn -0.3500 0.2003 0.9151
vn -0.9503 0.2342 0.2050
vn 0.3019 0.1130 0.9466
vn 0.8653 0.2022 0.4586
vn -0.3926 0.2822 -0.8753
vn 0.8217 0.2790 -0.4970
vn -0.4014 0.9046 0.1432
vn -0.3690 0.2880 -0.8837
vn -0.3830 0.2992 -0.8739
vn -0.3841 0.3017 -0.8726
vn 0.4772 0.8290 -0.2917
vn 0.0000 0.0768 0.9970
vn -0.1544 0.2930 -0.9436
vn -0.9970 0.0768 0.0000
vn -0.8007 -0.1181 -0.5873
vn 0.0000 0.0768 -0.9970
vn 0.9970 0.0768 0.0000
vn 0.7775 0.2430 -0.5800
vn 0.8764 0.2586 0.4062
vn -0.7587 0.1334 0.6377
vn 0.6646 0.0277 -0.7467
vn -0.8576 0.2323 -0.4588
vn 0.1075 -0.0264 -0.9939
vn 0.8522 0.1519 0.5007
s off
f 3/1/1 9/2/1 6/3/1
f 6/4/2 10/5/2 3/6/2
f 19/7/3 20/8/3 21/9/3
f 30/10/4 6/3/4 8/11/4
f 7/12/5 29/13/5 30/10/5
f 24/14/6 19/15/6 27/16/6
f 8/11/7 9/2/7 3/1/7
f 29/17/8 36/18/8 30/19/8
f 6/4/2 12/20/2 10/5/2
f 14/21/9 10/5/9 13/22/9
f 2/23/2 3/6/2 10/5/2
f 24/24/10 23/25/10 15/26/10
f 1/27/10 7/12/10 8/11/10
f 13/22/9 12/20/9 11/28/9
f 15/26/10 23/25/10 4/29/10
f 16/30/11 21/9/11 20/8/11
f 10/5/12 14/21/12 2/23/12
f 5/31/13 16/32/13 4/33/13
f 20/34/13 19/15/13 15/35/13
f 15/35/13 4/33/13 16/32/13
f 28/36/14 34/37/14 36/18/14
f 16/32/13 20/34/13 15/35/13
f 25/38/15 24/39/15 26/40/15
f 16/30/11 17/41/11 18/42/11
f 32/43/16 36/18/16 33/44/16
f 29/17/17 22/45/17 28/36/17
f 24/39/15 27/46/15 26/40/15
f 14/47/18 33/48/18 17/41/18
f 22/45/15 23/49/15 24/39/15
f 32/50/18 33/48/18 13/51/18
f 18/42/18 17/41/18 33/48/18
f 8/11/7 5/52/7 4/29/7
f 12/53/4 6/3/4 11/54/4
f 9/2/4 8/11/4 6/3/4
f 7/12/4 30/10/4 8/11/4
f 18/42/19 25/55/19 21/9/19
f 7/12/5 1/27/5 29/13/5
f 1/56/17 23/49/17 29/17/17
f 4/29/10 1/27/10 8/11/10
f 36/18/16 34/37/16 33/44/16
f 6/3/4 31/57/4 11/54/4
f 22/45/14 25/38/14 34/37/14
f 30/19/8 35/58/8 31/59/8
f 25/55/19 26/60/19 21/9/19
f 2/23/12 17/61/12 16/32/12
f 33/48/19 34/62/19 18/42/19
f 19/7/3 26/60/3 27/63/3
f 47/64/20 46/65/20 48/66/20
f 37/67/21 56/68/21 55/69/21
f 53/70/22 52/71/22 54/72/22
f 41/73/23 44/74/23 45/75/23
f 50/76/24 49/77/24 51/78/24
f 50/79/25 44/80/25 42/81/25
f 38/82/26 39/83/26 57/84/26
f 46/65/27 53/70/27 38/85/27
f 57/84/28 39/83/28 42/86/28
f 60/87/29 58/88/29 43/89/29
f 59/90/30 40/91/30 55/92/30
f 37/67/21 38/85/21 56/68/21
f 41/73/23 40/91/23 44/74/23
f 43/89/25 42/81/25 44/80/25
f 50/79/25 51/93/25 45/94/25
f 45/94/25 44/80/25 50/79/25
f 60/87/31 40/95/31 59/96/31
f 57/84/26 56/97/26 38/82/26
f 38/82/26 53/98/26 39/83/26
f 54/99/26 39/83/26 53/98/26
f 38/85/27 37/67/27 48/66/27
f 48/66/27 46/65/27 38/85/27
f 52/71/27 53/70/27 46/65/27
f 62/100/32 57/101/32 61/102/32
f 50/76/28 42/86/28 39/83/28
f 58/103/28 57/84/28 42/86/28
f 39/83/28 49/77/28 50/76/28
f 57/101/32 58/104/32 61/102/32
f 55/69/32 56/68/32 62/100/32
f 42/81/29 43/89/29 58/88/29
f 60/87/29 61/105/29 58/88/29
f 44/80/31 40/95/31 43/89/31
f 47/106/33 48/107/33 41/73/33
f 37/108/34 55/92/34 40/91/34
f 62/109/30 59/90/30 55/92/30
f 40/91/33 41/73/33 48/107/33
f 48/107/35 37/108/35 40/91/35
f 62/110/36 60/87/36 59/96/36
f 67/111/37 64/112/37 66/113/37
f 86/114/38 80/115/38 81/116/38
f 76/117/39 73/118/39 63/119/39
f 75/120/40 79/121/40 74/122/40
f 80/115/41 72/123/41 74/124/41
f 67/111/37 65/125/37 64/112/37
f 86/114/38 85/126/38 80/115/38
f 83/127/42 84/128/42 68/129/42
f 84/128/43 82/130/43 85/131/43
f 67/132/44 86/133/44 65/134/44
f 76/117/45 64/135/45 65/136/45
f 76/117/39 79/121/39 73/118/39
f 70/137/46 72/123/46 83/138/46
f 78/139/40 74/122/40 79/121/40
f 75/120/40 73/118/40 79/121/40
f 65/136/45 77/140/45 76/117/45
f 79/121/47 76/117/47 80/141/47
f 70/142/42 68/129/42 69/143/42
f 80/141/47 78/139/47 79/121/47
f 86/133/43 84/128/43 85/131/43
f 81/144/44 77/145/44 65/134/44
f 71/146/48 74/124/48 72/123/48
f 68/129/44 84/128/44 86/133/44
f 86/133/44 81/144/44 65/134/44
f 81/147/47 76/117/47 77/140/47
f 82/148/46 83/138/46 72/123/46
f 74/124/41 78/149/41 80/115/41
f 80/115/41 85/126/41 72/123/41
f 82/148/41 72/123/41 85/126/41
f 66/150/49 68/129/49 67/132/49
f 24/14/6 15/35/6 19/15/6
f 29/17/8 28/36/8 36/18/8
f 2/23/2 5/31/2 3/6/2
f 13/22/9 10/5/9 12/20/9
f 16/30/11 18/42/11 21/9/11
f 5/31/13 2/23/13 16/32/13
f 28/36/14 22/45/14 34/37/14
f 25/38/15 22/45/15 24/39/15
f 32/43/16 35/58/16 36/18/16
f 29/17/17 23/49/17 22/45/17
f 14/47/18 13/51/18 33/48/18
f 8/11/7 3/1/7 5/52/7
f 18/42/19 34/62/19 25/55/19
f 4/29/10 23/25/10 1/27/10
f 6/3/4 30/10/4 31/57/4
f 30/19/8 36/18/8 35/58/8
f 2/23/12 14/21/12 17/61/12
f 19/7/3 21/9/3 26/60/3
f 60/87/31 43/89/31 40/95/31
f 62/100/32 56/68/32 57/101/32
f 62/110/36 61/105/36 60/87/36
f 84/128/43 83/127/43 82/130/43
f 67/132/44 68/129/44 86/133/44
f 76/117/45 63/119/45 64/135/45
f 70/137/46 71/146/46 72/123/46
f 70/142/42 83/127/42 68/129/42
f 71/146/48 75/151/48 74/124/48
f 81/147/47 80/141/47 76/117/47
f 66/150/49 69/143/49 68/129/49
