# Blender v2.77 (sub 0) OBJ File: 'LowPoly_Level_Kit_Rocks.blend'
# www.blender.org
g Rock_Sharp_m_05
v 0.191501 -0.002637 -0.222742
v -0.034675 -0.002637 -0.288349
v 0.285142 -0.002637 -0.061239
v 0.113949 1.002610 -0.245777
v -0.153330 0.914132 -0.324679
v -0.424885 1.218463 -0.214908
v -0.049027 1.133520 -0.285640
v -0.440676 1.512295 0.004744
v 0.088068 1.157757 -0.182934
v -0.179667 1.549542 -0.166213
v -0.333147 1.742561 -0.096279
v -0.366726 1.713844 -0.017679
v 0.209148 -0.002637 0.154356
v 0.024462 0.905749 0.182298
v -0.110505 1.064166 0.224988
v 0.081860 -0.002637 0.222495
v -0.456677 1.323020 0.041914
v -0.459142 1.177505 -0.089334
v -0.418712 1.111317 0.101613
v -0.050945 -0.002637 -0.279884
v -0.282313 0.511537 -0.202038
v -0.173113 -0.002637 0.094739
v -0.316084 0.496263 -0.083142
v 0.225030 0.555454 -0.136147
v 0.157704 0.621105 -0.235989
v 0.132932 0.480090 0.168261
v -0.088962 0.595958 -0.306943
v -0.303305 0.579160 0.085036
v -0.010077 0.581725 0.229511
vt 0.5993 0.5237
vt 0.6028 0.5400
vt 0.5968 0.5326
vt 0.5832 0.5137
vt 0.5898 0.5426
vt 0.5741 0.5482
vt 0.5542 0.5558
vt 0.5453 0.5719
vt 0.5467 0.5374
vt 0.5538 0.5713
vt 0.5489 0.5993
vt 0.5904 0.5686
vt 0.5622 0.5468
vt 0.5627 0.5251
vt 0.5588 0.5137
vt 0.5688 0.5548
vt 0.5703 0.5763
vt 0.5665 0.5730
vt 0.5703 0.5565
vt 0.5744 0.5719
vt 0.6093 0.5386
vt 0.6054 0.5137
vt 0.6013 0.5146
vt 0.5703 0.5469
vt 0.5285 0.6035
vt 0.5403 0.5796
vt 0.5399 0.6028
vt 0.5266 0.5248
vt 0.5318 0.5137
vt 0.5362 0.5147
vt 0.5453 0.5492
vt 0.5242 0.5769
vt 0.5196 0.5543
vt 0.5225 0.5470
vt 0.5925 0.5692
vt 0.5932 0.5428
vt 0.5883 0.5228
vt 0.5904 0.5319
vt 0.6006 0.5736
vt 0.5904 0.5979
vt 0.5452 0.6009
vt 0.5453 0.5728
vt 0.5496 0.5995
vt 0.5610 0.6022
vt 0.5903 0.5973
vt 0.5764 0.6003
vt 0.5415 0.5585
vt 0.6093 0.5998
vt 0.6066 0.5734
vt 0.5676 0.6025
vn -0.9955 0.0721 -0.0613
vn -0.3353 0.2107 0.9182
vn -0.4780 -0.1123 -0.8712
vn -0.4523 -0.0689 -0.8892
vn -0.3840 -0.1118 0.9165
vn 0.3260 0.0132 -0.9453
vn -0.1347 0.2411 -0.9611
vn 0.8510 0.0843 -0.5184
vn 0.3958 0.0910 0.9138
vn -0.9672 0.1168 -0.2258
vn 0.2758 0.0070 -0.9612
vn -0.9113 0.3034 -0.2785
vn 0.5050 0.3951 -0.7674
vn 0.5101 0.3815 -0.7709
vn 0.9341 0.1380 0.3293
vn 0.7622 0.4310 0.4831
vn 0.7639 0.4675 0.4449
vn 0.9699 0.2111 -0.1217
vn -0.9680 -0.2140 0.1308
vn -0.2887 0.2099 0.9341
vn -0.3018 0.2082 0.9303
vn -0.9610 -0.2121 0.1776
vn 0.4266 0.0563 0.9027
vn 0.2786 -0.0053 -0.9604
vn -0.9782 -0.1297 0.1622
vn -0.4465 -0.0809 0.8911
vn -0.1278 0.2364 -0.9632
vn 0.9178 0.2336 0.3210
vn -0.4259 -0.1360 -0.8945
vn 0.7379 0.4842 0.4703
vn -0.4398 -0.0835 0.8942
vn -0.4604 -0.0692 -0.8850
vn -0.8867 -0.3540 -0.2973
vn 0.8648 0.0258 -0.5014
vn 0.4417 0.0831 0.8933
vn -0.9357 -0.1991 -0.2913
vn 0.2524 0.0196 -0.9674
vn -0.8881 0.2437 -0.3898
vn 0.9368 0.1437 0.3190
vn -0.9643 -0.2009 0.1723
vn 0.4714 0.0491 0.8806
vn 0.2769 -0.0047 -0.9609
vn -0.1288 0.2328 -0.9640
vn 0.9165 0.2226 0.3324
vn 0.7306 0.4959 0.4694
vn -0.4399 -0.0832 0.8942
vn -0.8878 -0.3577 -0.2895
vn 0.8388 0.0339 -0.5433
vn -0.9288 -0.1931 -0.3164
s off
f 8/1/1 18/2/1 17/3/1
f 12/4/2 19/5/2 15/6/2
f 5/7/3 21/8/3 6/9/3
f 27/10/4 20/11/4 21/8/4
f 28/12/5 15/6/5 19/5/5
f 5/7/6 7/13/6 27/10/6
f 10/14/7 6/9/7 11/15/7
f 4/16/8 24/17/8 25/18/8
f 14/19/9 15/6/9 29/20/9
f 8/1/10 6/21/10 18/2/10
f 27/10/11 4/16/11 25/18/11
f 11/22/12 8/1/12 12/23/12
f 4/16/13 7/13/13 9/24/13
f 10/14/14 9/24/14 7/13/14
f 3/25/15 26/26/15 13/27/15
f 10/28/16 11/29/16 12/30/16
f 12/30/17 15/31/17 10/28/17
f 24/32/18 4/33/18 9/34/18
f 18/2/19 28/35/19 19/36/19
f 12/4/20 8/37/20 19/5/20
f 17/38/21 19/5/21 8/37/21
f 28/35/22 23/39/22 22/40/22
f 16/41/23 26/26/23 29/42/23
f 2/43/24 25/18/24 1/44/24
f 17/3/25 18/2/25 19/36/25
f 22/45/26 16/46/26 29/20/26
f 7/13/27 6/9/27 10/14/27
f 14/47/28 24/32/28 9/34/28
f 5/7/29 27/10/29 21/8/29
f 15/31/30 9/34/30 10/28/30
f 29/20/31 28/12/31 22/45/31
f 27/10/32 2/43/32 20/11/32
f 20/48/33 23/39/33 21/49/33
f 1/44/34 24/17/34 3/50/34
f 26/26/35 14/47/35 29/42/35
f 18/2/36 21/49/36 23/39/36
f 27/10/37 7/13/37 4/16/37
f 11/22/38 6/21/38 8/1/38
f 3/25/39 24/32/39 26/26/39
f 18/2/40 23/39/40 28/35/40
f 16/41/41 13/27/41 26/26/41
f 2/43/42 27/10/42 25/18/42
f 7/13/43 5/7/43 6/9/43
f 14/47/44 26/26/44 24/32/44
f 15/31/45 14/47/45 9/34/45
f 29/20/46 15/6/46 28/12/46
f 20/48/47 22/40/47 23/39/47
f 1/44/48 25/18/48 24/17/48
f 18/2/49 6/21/49 21/49/49
