# Blender v2.77 (sub 0) OBJ File: 'LowPoly_Level_Kit_Rocks.blend'
# www.blender.org
g Rocks_Sharp_m_03
v -0.182398 0.531312 -0.481311
v -0.444023 0.346770 -0.264762
v -0.430716 0.197172 -0.095425
v -0.331187 0.398434 -0.691008
v -0.477085 0.294067 -0.587601
v -0.530168 -0.070503 -1.041376
v -0.448570 -0.014646 -1.102993
v 0.297390 0.469077 0.290924
v -0.095341 0.647027 0.093905
v -0.148268 0.608443 0.122797
v -0.430161 -0.011277 -1.087504
v -0.316935 -0.088428 -0.680634
v -0.464104 -0.016620 -0.384410
v -0.520563 -0.098828 -0.937521
v -0.332109 -0.099138 -0.668149
v -0.307027 -0.055809 -0.383349
v -0.389145 -0.014948 -0.266963
v 0.155321 0.473674 -0.292685
v 0.301065 0.465061 0.209129
v -0.250200 0.077967 -0.891042
v -0.231813 -0.019450 -0.644584
v 0.141307 0.546061 0.508793
v -0.051204 0.493716 0.438819
v -0.337923 0.224356 0.077864
v 0.159223 0.359279 0.258226
v -0.117088 0.118071 -0.064978
v -0.368249 0.021288 -0.194487
v 0.049960 0.547828 -0.306603
v 0.271134 0.547320 0.410338
v -0.058136 0.649734 0.122169
v 0.140509 0.514006 -0.270720
v 0.293837 0.499685 0.119226
v 0.197912 0.498966 -0.198909
v 0.213882 0.583386 0.500175
v 0.673209 0.188021 0.622040
v -0.508727 0.334824 0.302660
v -0.473201 0.323577 0.220641
v -0.437204 0.230598 0.125834
v 0.043936 0.456155 0.365215
v -0.002863 0.000000 0.140660
v 0.357868 0.405411 0.318333
v -0.145554 0.201930 0.101234
v 0.736092 0.011846 0.590467
v 0.713689 0.000000 0.585757
v 0.313386 0.000000 0.266156
v -0.521814 0.215315 0.511830
v -0.574754 0.193901 0.431883
v -0.480497 0.007345 0.191794
v -0.464940 0.000000 0.192074
v -0.079561 0.000000 0.508725
v 0.144854 0.408832 0.617959
v -0.373015 0.364485 0.558184
v -0.357443 0.409041 0.505017
v 0.007637 0.478593 0.498466
v 0.163241 0.463471 0.552601
v 0.524084 0.390144 0.382991
v 0.724391 0.191459 0.596342
v 0.752982 0.147412 0.453151
v 0.808336 0.096308 0.554193
v 0.520724 0.401108 0.463889
v -0.008334 -0.133110 0.222294
v 0.377813 -0.023405 0.025458
v 0.319088 0.099167 0.004568
v 0.167797 -0.054090 -0.139896
v -0.049849 -0.137575 0.174569
v 0.721445 0.118551 -0.566389
v 0.493300 0.051913 -0.432967
v -0.021313 -0.076647 0.228301
v 0.258910 0.081181 0.043598
v -0.063478 -0.078287 0.180876
v 0.350673 0.111444 -0.042590
v 0.702802 0.153343 -0.547692
v 0.153703 0.007224 -0.133373
v 0.451629 0.085059 -0.399819
v 0.027062 -0.003970 0.041848
v 0.187424 0.070411 -0.009623
v 0.611208 0.145122 -0.490538
v 0.321215 0.111921 -0.110720
v 0.224124 -0.067702 0.109758
v 0.522801 0.036490 -0.224257
vt 0.2614 0.5371
vt 0.2670 0.5324
vt 0.2658 0.5493
vt 0.2918 0.5168
vt 0.2992 0.5429
vt 0.2873 0.5286
vt 0.2795 0.5050
vt 0.2843 0.5070
vt 0.2764 0.5084
vt 0.2623 0.5339
vt 0.2637 0.5280
vt 0.3260 0.5757
vt 0.3240 0.5697
vt 0.3260 0.5668
vt 0.2947 0.5658
vt 0.2968 0.5628
vt 0.2963 0.5670
vt 0.2744 0.5729
vt 0.2677 0.5695
vt 0.2768 0.5268
vt 0.2659 0.5803
vt 0.2632 0.5781
vt 0.2911 0.5683
vt 0.2968 0.6026
vt 0.3123 0.5245
vt 0.3271 0.5148
vt 0.3200 0.5292
vt 0.3646 0.5989
vt 0.3719 0.5949
vt 0.3655 0.6048
vt 0.3608 0.5869
vt 0.3707 0.5895
vt 0.3613 0.5682
vt 0.3683 0.5610
vt 0.3017 0.5053
vt 0.3069 0.5184
vt 0.3026 0.5407
vt 0.2736 0.5225
vt 0.2936 0.5050
vt 0.2999 0.5410
vt 0.2746 0.5226
vt 0.2843 0.5060
vt 0.3069 0.5381
vt 0.3095 0.5603
vt 0.3214 0.5422
vt 0.3069 0.5543
vt 0.3118 0.5186
vt 0.3195 0.5050
vt 0.2773 0.5701
vt 0.2849 0.5192
vt 0.2983 0.5628
vt 0.2849 0.5357
vt 0.2852 0.5318
vt 0.3236 0.5723
vt 0.2882 0.5498
vt 0.2947 0.5605
vt 0.2720 0.5754
vt 0.3638 0.6013
vt 0.3719 0.5693
vt 0.2849 0.5918
vt 0.2849 0.5529
vt 0.2837 0.5573
vt 0.2693 0.5789
vt 0.2944 0.6145
vt 0.2940 0.6155
vt 0.2851 0.5793
vt 0.3149 0.5668
vt 0.3117 0.5639
vt 0.1059 0.6053
vt 0.1024 0.6063
vt 0.0950 0.5980
vt 0.1000 0.5567
vt 0.1067 0.5359
vt 0.1073 0.5578
vt 0.0162 0.6046
vt 0.0144 0.6120
vt 0.0146 0.6063
vt 0.0926 0.5253
vt 0.1073 0.5217
vt 0.0891 0.5572
vt 0.0888 0.5578
vt 0.0847 0.5472
vt 0.0287 0.5942
vt 0.0205 0.5927
vt 0.0187 0.5893
vt 0.0902 0.5606
vt 0.0890 0.5796
vt 0.0805 0.5580
vt 0.0936 0.6069
vt 0.0926 0.5989
vt 0.0086 0.5945
vt 0.0187 0.5808
vt 0.0970 0.5819
vt 0.1026 0.5813
vt 0.0815 0.5580
vt 0.0764 0.5576
vt 0.0927 0.5761
vt 0.1036 0.5610
vt 0.1003 0.5578
vt 0.0955 0.5751
vt 0.1059 0.5687
vt 0.1007 0.5610
vt 0.0187 0.6117
vt 0.0994 0.5050
vt 0.0926 0.5404
vt 0.0194 0.5833
vt 0.0287 0.5803
vt 0.0791 0.5607
vt 0.0906 0.5613
vt 0.0966 0.6098
vt 0.0152 0.5803
vt 0.0731 0.5677
vt 0.0906 0.6145
vt 0.0826 0.6133
vt 0.0901 0.6155
vt 0.0723 0.5349
vt 0.0767 0.5237
vt 0.0723 0.5907
vt 0.0111 0.6094
vt 0.1040 0.5614
vt 0.0926 0.5256
vt 0.0773 0.5159
vt 0.0869 0.5050
vt 0.1611 0.5778
vt 0.1640 0.5668
vt 0.1631 0.5976
vt 0.1568 0.5675
vt 0.1499 0.5890
vt 0.1561 0.5628
vt 0.1523 0.6103
vt 0.1498 0.5947
vt 0.1534 0.5956
vt 0.1751 0.5676
vt 0.1717 0.5839
vt 0.1737 0.5668
vt 0.1710 0.6040
vt 0.1746 0.6152
vt 0.1724 0.6152
vt 0.1528 0.5880
vt 0.1585 0.5936
vt 0.1564 0.6028
vt 0.1681 0.6143
vt 0.1703 0.6028
vt 0.1594 0.5854
vt 0.1666 0.5668
vt 0.1703 0.5833
vt 0.1703 0.5964
vt 0.1761 0.5995
vt 0.1549 0.6103
vt 0.1585 0.5757
vt 0.2180 0.5143
vt 0.2156 0.5057
vt 0.2172 0.5050
vt 0.1761 0.5939
vt 0.2187 0.5318
vt 0.2162 0.5159
vt 0.1493 0.5915
vt 0.2151 0.5094
vt 0.1759 0.5963
vt 0.1761 0.5757
vt 0.1781 0.5784
vt 0.1761 0.5784
vt 0.2162 0.5483
vt 0.2147 0.5407
vt 0.2161 0.5317
vt 0.2187 0.5485
vt 0.3013 0.5614
vt 0.3271 0.5470
vt 0.0065 0.5954
vt 0.1781 0.5759
vn 0.1350 -0.9013 0.4117
vn 0.0881 0.9739 -0.2092
vn 0.3925 -0.8775 -0.2756
vn -0.2397 -0.9564 0.1666
vn 0.9604 0.2772 0.0295
vn 0.7180 0.5173 -0.4656
vn 0.6111 -0.7888 0.0662
vn 0.4308 -0.7085 0.5590
vn 0.4770 0.5490 -0.6863
vn -0.8420 0.3698 0.3929
vn -0.7180 -0.5173 0.4656
vn 0.0007 -0.8017 0.5977
vn -0.6111 0.7888 -0.0662
vn -0.9949 0.0226 0.0982
vn -0.3763 0.8278 0.4161
vn 0.8404 -0.4797 -0.2523
vn 0.3885 0.9137 -0.1192
vn 0.6745 -0.6680 -0.3144
vn -0.7029 0.5924 -0.3937
vn -0.1866 0.9592 -0.2123
vn 0.4709 -0.6561 -0.5898
vn 0.4487 0.0000 0.8937
vn 0.0000 -1.0000 0.0000
vn -0.1067 -0.2626 -0.9590
vn -0.9132 0.0579 -0.4035
vn -0.3843 -0.7960 0.4677
vn -0.7195 0.6214 0.3100
vn 0.2851 0.6944 0.6607
vn 0.0115 0.7161 -0.6979
vn -0.1373 0.7786 0.6123
vn 0.1397 0.9820 -0.1273
vn -0.0945 -0.2082 0.9735
vn 0.7349 0.6754 -0.0610
vn 0.3677 0.0789 -0.9266
vn 0.2228 -0.9694 -0.1031
vn -0.0671 0.9971 0.0360
vn -0.3341 0.9043 0.2658
vn 0.8351 0.1656 0.5246
vn 0.4348 0.0041 0.9005
vn -0.4780 0.8282 -0.2926
vn 0.3926 0.2953 0.8710
vn -0.5328 0.1609 -0.8308
vn 0.7451 0.3764 0.5506
vn -0.6547 -0.0704 -0.7526
vn -0.2228 0.9694 0.1031
vn 0.6939 0.4308 0.5769
vn -0.7223 -0.2352 0.6503
vn -0.8007 -0.1217 -0.5865
vn 0.4077 0.2896 0.8660
vn 0.4341 0.3495 0.8303
vn 0.7396 0.4159 0.5292
s off
f 27/1/1 16/2/1 26/3/1
f 1/4/2 30/5/2 28/6/2
f 6/7/3 11/8/3 14/9/3
f 16/2/4 17/10/4 13/11/4
f 29/12/5 19/13/5 32/14/5
f 31/15/6 33/16/6 18/17/6
f 19/18/7 25/19/7 21/20/7
f 34/21/8 22/22/8 25/19/8
f 28/23/9 31/15/9 20/24/9
f 3/25/10 10/26/10 2/27/10
f 27/1/1 17/10/1 16/2/1
f 27/28/11 3/29/11 13/30/11
f 27/28/12 26/31/12 24/32/12
f 25/33/12 22/34/12 26/31/12
f 5/35/13 2/36/13 10/37/13
f 15/38/4 13/11/4 14/9/4
f 1/4/13 4/39/13 9/40/13
f 1/4/2 9/40/2 30/5/2
f 15/38/3 14/9/3 12/41/3
f 6/7/3 7/42/3 11/8/3
f 11/8/3 12/41/3 14/9/3
f 13/43/14 3/25/14 14/44/14
f 2/27/14 5/45/14 3/25/14
f 16/2/7 21/20/7 26/3/7
f 23/46/15 30/5/15 10/37/15
f 24/47/10 23/48/10 3/25/10
f 32/49/16 21/20/16 20/50/16
f 34/51/17 33/52/17 31/53/17
f 29/12/5 8/54/5 19/13/5
f 32/55/17 33/52/17 29/56/17
f 31/53/17 28/6/17 34/51/17
f 30/5/17 34/51/17 28/6/17
f 16/2/7 15/38/7 12/41/7
f 12/41/18 20/50/18 21/20/18
f 19/18/7 8/57/7 25/19/7
f 25/19/7 26/3/7 21/20/7
f 5/45/14 14/44/14 3/25/14
f 13/30/11 17/58/11 27/28/11
f 9/40/15 10/37/15 30/5/15
f 26/31/12 23/59/12 24/32/12
f 20/24/9 4/60/9 28/23/9
f 20/50/16 18/61/16 32/49/16
f 33/62/16 32/49/16 18/61/16
f 25/19/8 8/57/8 29/63/8
f 29/63/8 34/21/8 25/19/8
f 20/24/9 11/64/9 7/65/9
f 4/39/13 10/37/13 9/40/13
f 1/66/9 28/23/9 4/60/9
f 31/15/9 18/17/9 20/24/9
f 5/45/19 7/67/19 6/68/19
f 37/69/20 36/70/20 53/71/20
f 44/72/21 45/73/21 58/74/21
f 35/75/22 59/76/22 57/77/22
f 50/78/23 40/79/23 45/73/23
f 49/80/24 48/81/24 42/82/24
f 47/83/25 36/84/25 37/85/25
f 48/86/26 50/87/26 47/88/26
f 46/89/27 52/90/27 36/70/27
f 60/91/28 51/92/28 35/75/28
f 53/71/20 54/93/20 39/94/20
f 39/94/20 37/69/20 53/71/20
f 38/95/29 37/96/29 42/82/29
f 54/93/30 52/90/30 51/97/30
f 58/74/21 59/98/21 43/99/21
f 43/99/21 44/72/21 58/74/21
f 55/100/30 54/93/30 51/97/30
f 41/101/31 55/100/31 60/102/31
f 35/75/22 43/103/22 59/76/22
f 45/73/23 44/72/23 50/78/23
f 50/78/23 49/104/23 40/79/23
f 38/95/24 42/82/24 48/81/24
f 40/105/24 49/80/24 42/82/24
f 37/85/25 38/106/25 47/83/25
f 48/107/25 47/83/25 38/106/25
f 46/108/26 47/88/26 50/87/26
f 48/86/26 49/109/26 50/87/26
f 53/71/27 36/70/27 52/90/27
f 47/110/27 46/89/27 36/70/27
f 35/75/28 57/77/28 60/91/28
f 60/91/28 55/111/28 51/92/28
f 52/112/32 46/108/32 50/87/32
f 50/87/32 44/113/32 35/114/32
f 43/115/32 35/114/32 44/113/32
f 42/82/29 39/116/29 41/117/29
f 50/87/32 51/118/32 52/112/32
f 57/77/33 59/76/33 58/119/33
f 54/93/31 55/100/31 39/94/31
f 60/102/31 56/120/31 41/101/31
f 40/105/34 42/82/34 45/121/34
f 41/117/34 56/122/34 58/123/34
f 58/119/33 60/91/33 57/77/33
f 45/121/34 41/117/34 58/123/34
f 79/124/35 61/125/35 80/126/35
f 77/127/36 71/128/36 72/129/36
f 68/130/37 69/131/37 76/132/37
f 72/133/38 80/134/38 66/135/38
f 79/136/39 68/137/39 61/138/39
f 78/139/40 73/140/40 75/141/40
f 66/142/35 80/126/35 67/143/35
f 62/144/35 79/124/35 80/126/35
f 61/125/35 65/145/35 64/146/35
f 62/147/41 69/148/41 79/136/41
f 77/127/36 78/139/36 71/128/36
f 68/130/37 75/141/37 70/149/37
f 76/132/40 78/139/40 75/141/40
f 77/127/40 74/150/40 73/140/40
f 67/151/42 72/152/42 66/153/42
f 72/133/43 71/154/43 80/134/43
f 80/126/35 64/146/35 67/143/35
f 64/155/44 74/156/44 67/151/44
f 69/131/45 63/157/45 71/128/45
f 77/158/42 72/152/42 74/156/42
f 62/147/46 71/154/46 63/159/46
f 65/160/47 68/161/47 70/162/47
f 70/163/48 75/164/48 73/165/48
f 79/136/49 69/148/49 68/137/49
f 71/128/45 76/132/45 69/131/45
f 70/163/48 64/155/48 65/166/48
f 3/25/10 23/48/10 10/26/10
f 27/28/11 24/32/11 3/29/11
f 15/38/4 16/2/4 13/11/4
f 16/2/7 12/41/7 21/20/7
f 23/46/15 22/167/15 30/5/15
f 32/49/16 19/18/16 21/20/16
f 34/51/17 29/56/17 33/52/17
f 30/5/15 22/167/15 34/51/15
f 12/41/18 11/8/18 20/50/18
f 5/45/14 6/68/14 14/44/14
f 26/31/12 22/34/12 23/59/12
f 20/24/9 7/65/9 4/60/9
f 4/39/13 5/35/13 10/37/13
f 5/45/19 4/168/19 7/67/19
f 54/93/30 53/71/30 52/90/30
f 41/101/31 39/94/31 55/100/31
f 42/82/29 37/96/29 39/116/29
f 50/87/32 35/114/32 51/118/32
f 58/119/33 56/169/33 60/91/33
f 45/121/34 42/82/34 41/117/34
f 78/139/40 77/127/40 73/140/40
f 62/147/50 63/159/50 69/148/50
f 68/130/37 76/132/37 75/141/37
f 67/151/42 74/156/42 72/152/42
f 80/126/35 61/125/35 64/146/35
f 64/155/44 73/165/44 74/156/44
f 62/147/51 80/134/51 71/154/51
f 65/160/47 61/170/47 68/161/47
f 71/128/45 78/139/45 76/132/45
f 70/163/48 73/165/48 64/155/48
