# Blender v2.77 (sub 0) OBJ File: 'LowPoly_Level_Kit_Rocks.blend'
# www.blender.org
g Rock_Sharp_m_11
v 0.288474 -0.000000 0.014337
v 0.068367 -0.000000 0.270853
v 0.017547 0.274210 0.218226
v -0.689645 -0.000000 0.013016
v 0.305903 0.096234 -0.006779
v 0.102617 0.002582 -0.365233
v -0.595522 -0.000000 -0.174689
v 0.145564 0.123822 -0.352737
v 0.155137 0.431279 -0.294744
v 0.784520 1.540559 0.147977
v 0.860715 1.585328 0.053955
v 0.833255 1.567879 0.010722
v 0.789321 1.539716 0.006088
v 0.761904 1.527272 0.150127
v -0.241568 0.462544 0.135776
v -0.558101 0.253513 0.000087
v 0.649836 1.402007 0.168947
v 0.148877 1.009830 0.045735
v -0.480963 0.231279 -0.165675
v 0.042897 0.521844 -0.247194
v 0.294065 1.110211 -0.096716
v 0.220891 1.056604 -0.094709
v -0.295562 -0.000000 0.284530
v -0.262327 0.264147 0.181065
v -0.228802 -0.008870 -0.279726
vt 0.2837 0.5518
vt 0.2952 0.5744
vt 0.2944 0.5783
vt 0.2681 0.5420
vt 0.2769 0.5268
vt 0.2928 0.5271
vt 0.3447 0.5139
vt 0.3435 0.5831
vt 0.3269 0.5716
vt 0.3172 0.5139
vt 0.3195 0.5175
vt 0.3154 0.5174
vt 0.3447 0.5253
vt 0.3576 0.5866
vt 0.3542 0.5793
vt 0.3191 0.5820
vt 0.3232 0.5528
vt 0.3266 0.5978
vt 0.3260 0.5457
vt 0.3152 0.5258
vt 0.2771 0.5522
vt 0.3270 0.5848
vt 0.3426 0.5151
vt 0.3620 0.5176
vt 0.3620 0.5220
vt 0.3482 0.5139
vt 0.3156 0.5185
vt 0.3188 0.5153
vt 0.3570 0.5858
vt 0.3065 0.5814
vt 0.2898 0.5164
vt 0.2982 0.5259
vt 0.3142 0.5893
vt 0.3266 0.5495
vt 0.2928 0.6069
vt 0.2923 0.6091
vt 0.3067 0.5992
vt 0.2982 0.5894
vt 0.2982 0.5711
vt 0.3447 0.5873
vt 0.3266 0.5904
vt 0.3244 0.6101
vt 0.2659 0.5368
vt 0.2955 0.5139
vt 0.3620 0.5898
vn -0.2796 0.3482 -0.8947
vn -0.2515 0.1870 -0.9496
vn 0.7166 -0.2403 -0.6548
vn -0.5273 0.8494 -0.0229
vn 0.2519 -0.0992 0.9627
vn -0.6047 0.5293 0.5952
vn -0.6615 0.7471 0.0652
vn -0.1519 0.3053 -0.9401
vn -0.3351 0.3598 -0.8708
vn 0.9077 0.0503 -0.4167
vn 0.8380 -0.4004 -0.3707
vn 0.7589 0.0054 0.6512
vn 0.6882 0.2577 0.6782
vn -0.5080 0.8611 -0.0223
vn -0.5399 0.8417 0.0032
vn 0.0142 0.1361 0.9906
vn -0.1971 0.1528 0.9684
vn -0.5581 0.5063 0.6575
vn -0.8026 0.4143 -0.4291
vn -0.5128 0.2417 0.8238
vn -0.7489 0.6571 -0.0858
vn -0.5912 0.8057 -0.0348
vn -0.6063 0.7930 -0.0591
vn -0.1652 0.4057 -0.8990
vn -0.0559 0.2901 -0.9554
vn 0.0368 0.1949 0.9801
vn -0.7441 0.6471 -0.1661
vn 0.4934 -0.2527 0.8323
vn 0.8658 -0.2628 -0.4257
vn -0.5377 0.3188 0.7805
vn -0.1362 0.2340 0.9626
vn -0.2676 0.1695 -0.9485
vn -0.8179 0.4035 -0.4101
vn -0.1352 0.3761 0.9167
vn -0.6598 0.6405 -0.3930
vn 0.8048 -0.3202 0.4997
vn 0.8706 -0.2506 -0.4235
vn -0.4945 0.3702 0.7864
s off
f 20/1/1 22/2/1 21/3/1
f 8/4/2 25/5/2 19/6/2
f 11/7/3 5/8/3 9/9/3
f 11/10/4 13/11/4 10/12/4
f 3/13/5 10/14/5 17/15/5
f 15/16/6 18/17/6 16/18/6
f 21/19/7 17/20/7 13/11/7
f 9/21/8 20/1/8 21/3/8
f 20/1/9 19/6/9 22/2/9
f 8/22/10 9/9/10 5/8/10
f 12/23/11 11/7/11 9/9/11
f 1/24/12 5/25/12 2/26/12
f 3/13/13 2/26/13 5/25/13
f 14/27/14 10/12/14 13/11/14
f 11/10/15 12/28/15 13/11/15
f 14/29/16 17/15/16 10/14/16
f 15/16/17 3/30/17 17/20/17
f 15/16/18 17/20/18 18/17/18
f 7/31/19 16/32/19 19/6/19
f 15/16/20 16/18/20 24/33/20
f 14/27/21 13/11/21 17/20/21
f 21/19/22 22/34/22 18/17/22
f 18/17/23 17/20/23 21/19/23
f 21/3/24 13/35/24 12/36/24
f 12/36/25 9/21/25 21/3/25
f 3/30/26 23/37/26 2/38/26
f 19/6/2 20/1/2 9/21/2
f 9/21/2 8/4/2 19/6/2
f 19/6/27 18/39/27 22/2/27
f 5/25/28 10/14/28 3/13/28
f 8/22/29 1/40/29 6/41/29
f 23/37/30 16/18/30 4/42/30
f 3/30/31 15/16/31 24/33/31
f 25/5/32 7/31/32 19/6/32
f 8/4/2 6/43/2 25/5/2
f 7/31/33 4/44/33 16/32/33
f 3/30/34 24/33/34 23/37/34
f 19/6/35 16/32/35 18/39/35
f 5/25/36 11/45/36 10/14/36
f 8/22/37 5/8/37 1/40/37
f 23/37/38 24/33/38 16/18/38
