# Blender v2.77 (sub 0) OBJ File: 'LowPoly_Level_Kit_Rocks.blend'
# www.blender.org
g Rocks_Sharp_l_02
v 1.206482 -0.097887 1.576001
v 2.475329 1.374540 1.728624
v 1.137537 -0.091706 0.731519
v 2.500942 1.374968 0.660263
v 1.287828 -0.103756 1.322760
v 3.448421 2.547984 1.992709
v 1.628957 1.540421 2.471188
v -1.560004 -0.000000 0.934970
v -1.061952 0.594941 1.190903
v -1.306265 -0.000000 -0.101944
v -0.332036 -0.006599 2.816076
v 0.430329 0.879061 2.775283
v -0.936151 -0.000000 2.477752
v -0.096182 1.058220 2.433277
v 0.510315 1.402073 2.524881
v -0.163243 -0.011066 -0.314466
v 1.808583 1.510694 0.052849
v -0.939350 0.407462 -0.053673
v 4.293038 3.219863 1.062515
v 3.303546 2.181936 0.585280
v 2.887635 2.195967 0.246690
v 3.411460 2.904130 1.864940
v 4.042509 3.188498 1.745466
v 3.503995 3.051568 1.705613
v 3.031271 2.971667 0.717781
v 2.729129 2.757227 0.494667
v 3.412808 2.791676 0.437583
v 4.213916 3.675628 1.259288
v 4.528609 3.795780 1.284249
v -1.791752 0.000000 2.984938
v -2.986780 -0.000000 3.124953
v 5.253758 5.602587 0.864478
v 5.255488 6.291567 0.634247
v -2.986780 0.000000 -3.122652
v -1.791752 -0.000000 -2.986927
v 5.253757 5.602598 -0.866460
v 5.255488 6.291567 -0.631945
v 2.073498 0.000000 -0.379382
v 2.073499 0.000000 0.377392
v 6.361495 7.012838 0.001151
v 5.944181 6.052853 0.469260
v 5.944181 6.052853 -0.471249
v 1.270053 2.416041 2.238621
v 0.235901 2.459261 2.395895
v 2.567634 4.261027 1.944614
v 3.446746 4.237355 1.745510
v 3.446746 4.237355 -1.747499
v 2.567634 4.261027 -1.942312
v 0.235900 2.459260 -2.393593
v 1.270053 2.416041 -2.240610
v 4.747771 4.202322 -0.466963
v 4.747772 4.202322 0.464974
v 3.564433 2.320153 0.411732
v 3.564433 2.320153 -0.413721
v -3.915675 -0.000000 0.001151
v -0.692995 2.459261 0.001151
v 4.648132 6.095070 0.001151
v 1.638738 4.261027 0.001151
vt 0.4570 0.5808
vt 0.4575 0.5726
vt 0.4607 0.5741
vt 0.4494 0.5741
vt 0.4530 0.5810
vt 0.4478 0.5842
vt 0.4145 0.5815
vt 0.4140 0.5788
vt 0.4164 0.5798
vt 0.4493 0.5564
vt 0.4557 0.5562
vt 0.4563 0.5594
vt 0.4503 0.5691
vt 0.4524 0.5727
vt 0.4561 0.5345
vt 0.4505 0.5482
vt 0.4552 0.5351
vt 0.4621 0.5793
vt 0.4624 0.5842
vt 0.4623 0.5436
vt 0.4652 0.5317
vt 0.4650 0.5499
vt 0.4652 0.5578
vt 0.4632 0.5523
vt 0.4652 0.5517
vt 0.4541 0.5620
vt 0.4520 0.5680
vt 0.4511 0.5657
vt 0.4605 0.5368
vt 0.4177 0.5946
vt 0.4162 0.5954
vt 0.4169 0.5856
vt 0.4588 0.5308
vt 0.4561 0.5323
vt 0.4550 0.5594
vt 0.4572 0.5626
vt 0.4613 0.5385
vt 0.4613 0.5569
vt 0.4558 0.5806
vt 0.4177 0.5752
vt 0.4585 0.5662
vt 0.4505 0.5512
vt 0.4478 0.5542
vt 0.4622 0.5490
vt 0.4613 0.5332
vt 0.4646 0.5295
vt 0.4649 0.5592
vt 0.4631 0.5569
vt 0.4167 0.5982
vt 0.4588 0.5295
vt 0.3177 0.5686
vt 0.3180 0.5625
vt 0.3202 0.5715
vt 0.3257 0.5671
vt 0.3223 0.5617
vt 0.3278 0.5574
vt 0.2949 0.5461
vt 0.2783 0.5349
vt 0.2917 0.5295
vt 0.3375 0.5595
vt 0.3278 0.5607
vt 0.3317 0.5503
vt 0.3277 0.5456
vt 0.3169 0.5414
vt 0.3278 0.5295
vt 0.3001 0.5728
vt 0.2892 0.5628
vt 0.2972 0.5583
vt 0.3198 0.5527
vt 0.2848 0.5510
vt 0.2978 0.5758
vt 0.3037 0.5748
vt 0.3118 0.5604
vt 0.3160 0.5534
vt 0.3234 0.5752
vt 0.3245 0.5707
vt 0.3380 0.5475
vt 0.3408 0.5355
vt 0.3405 0.5505
vt 0.3555 0.5634
vt 0.3587 0.5766
vt 0.3556 0.5800
vt 0.3380 0.5337
vt 0.3406 0.5295
vt 0.3374 0.5761
vt 0.3406 0.5629
vt 0.3408 0.5801
vt 0.3561 0.5921
vt 0.3589 0.6041
vt 0.3563 0.6021
vt 0.3586 0.5891
vt 0.3135 0.5421
vt 0.3562 0.6059
vt 0.3069 0.5476
vt 0.3071 0.5600
vt 0.3071 0.5303
vt 0.3018 0.5807
vt 0.4612 0.5591
vt 0.3071 0.5494
vt 0.3382 0.5374
vt 0.3589 0.5594
vt 0.3587 0.6101
vn 0.5086 -0.5101 0.6936
vn 0.5202 -0.5085 -0.6862
vn -0.3757 0.4463 0.8122
vn -0.7897 0.5238 0.3193
vn 0.4792 -0.5643 -0.6723
vn -0.2762 0.7801 0.5615
vn 0.5480 -0.4389 0.7121
vn -0.1324 0.4165 -0.8994
vn -0.1369 0.7382 -0.6606
vn 0.6435 -0.2872 -0.7096
vn -0.4474 0.8829 0.1427
vn 0.0570 0.3424 0.9378
vn -0.2326 0.7268 0.6462
vn 0.8424 -0.4555 0.2881
vn -0.5119 0.8406 -0.1771
vn 0.7105 -0.7017 0.0530
vn 0.7252 -0.6686 -0.1644
vn -0.4058 0.3875 0.8277
vn 0.4849 -0.5543 0.6765
vn 0.5088 -0.5663 -0.6484
vn -0.4470 0.3887 0.8057
vn 0.4662 -0.5138 0.7202
vn -0.0960 0.3795 -0.9202
vn -0.0787 0.3842 -0.9199
vn -0.1736 0.2685 -0.9475
vn -0.1119 0.3678 -0.9232
vn 0.5098 -0.5077 -0.6945
vn -0.0912 0.7768 -0.6231
vn -0.2476 0.7705 -0.5875
vn 0.5987 -0.2883 -0.7473
vn 0.5438 0.0984 -0.8334
vn -0.5688 0.7958 0.2079
vn -0.4960 0.8662 0.0605
vn -0.4997 0.8637 0.0664
vn -0.0103 0.4331 0.9013
vn 0.0248 0.3399 0.9401
vn -0.0076 0.4145 0.9100
vn -0.2408 0.7781 0.5802
vn -0.3244 0.7230 0.6100
vn 0.7561 -0.6050 0.2496
vn 0.7334 -0.6467 0.2097
vn 0.7330 -0.6517 0.1948
vn -0.5090 0.8511 -0.1286
vn -0.7176 0.6748 -0.1723
vn 0.6406 -0.4157 0.6456
vn 0.6325 -0.4151 -0.6540
vn -0.5970 0.7823 -0.1775
vn 0.5676 -0.3756 0.7326
vn 0.5095 -0.4124 -0.7552
vn -0.5050 0.8287 -0.2414
vn 0.5422 -0.4572 -0.7050
vn -0.5949 0.7699 -0.2308
vn -0.3078 0.9514 0.0000
vn 0.6322 -0.4160 0.6537
vn 0.9171 -0.3987 0.0000
vn 0.2180 0.3089 0.9258
vn 0.1500 0.1133 -0.9822
vn 0.3192 0.2996 0.8991
vn 0.1152 0.1405 0.9833
vn 0.1522 0.0502 0.9871
vn 0.2135 0.3143 -0.9250
vn 0.2165 0.0056 -0.9763
vn 0.8466 -0.5323 -0.0000
vn 0.8413 -0.5406 0.0000
vn 0.8398 -0.5429 0.0000
vn 0.3154 0.3051 -0.8986
vn -0.5566 0.7870 0.2661
vn -0.5111 0.8272 0.2335
vn -0.5606 0.7990 0.2174
vn -0.5462 0.8376 0.0000
vn 0.7213 -0.6472 0.2467
vn -0.7280 0.5924 0.3450
vn 0.7136 -0.6728 -0.1951
vn -0.7210 0.6701 -0.1764
vn 0.6325 -0.4151 0.6540
vn 0.6406 -0.4157 -0.6456
vn -0.5606 0.7990 -0.2174
vn 0.5095 -0.4124 0.7552
vn 0.5676 -0.3756 -0.7326
vn -0.5111 0.8272 -0.2335
vn 0.6322 -0.4160 -0.6537
vn -0.5566 0.7870 -0.2660
vn 0.5422 -0.4572 0.7050
vn 0.2181 0.3088 0.9258
vn 0.1117 0.1451 -0.9831
vn 0.1539 0.1084 0.9821
vn 0.2209 0.0001 0.9753
vn 0.2134 0.3144 -0.9250
vn 0.1484 0.0553 -0.9874
vn -0.5949 0.7699 0.2308
vn -0.5050 0.8287 0.2414
vn -0.5970 0.7823 0.1775
s off
f 1/1/1 2/2/1 7/3/1
f 17/4/2 3/5/2 16/6/2
f 15/7/3 14/8/3 12/9/3
f 13/10/4 9/11/4 8/12/4
f 21/13/5 4/14/5 17/4/5
f 24/15/6 15/16/6 22/17/6
f 12/18/7 11/19/7 1/1/7
f 17/20/8 18/21/8 26/22/8
f 28/23/9 27/24/9 25/25/9
f 19/26/10 20/27/10 27/28/10
f 25/29/11 15/16/11 24/15/11
f 6/30/12 22/31/12 7/32/12
f 28/33/13 24/15/13 23/34/13
f 19/26/14 29/35/14 23/36/14
f 26/37/15 18/38/15 9/11/15
f 4/14/16 20/27/16 19/26/16
f 19/26/17 5/39/17 4/14/17
f 11/40/18 12/9/18 14/8/18
f 6/41/19 7/3/19 2/2/19
f 21/13/20 20/27/20 4/14/20
f 14/42/21 13/10/21 11/43/21
f 7/3/22 12/18/22 1/1/22
f 26/22/23 27/24/23 21/44/23
f 21/44/24 17/20/24 26/22/24
f 16/45/25 10/46/25 18/21/25
f 18/21/26 17/20/26 16/45/26
f 4/14/27 3/5/27 17/4/27
f 26/22/28 25/25/28 27/24/28
f 29/47/29 27/24/29 28/23/29
f 21/13/30 27/28/30 20/27/30
f 29/47/31 19/48/31 27/24/31
f 24/15/32 28/33/32 25/29/32
f 25/29/33 9/11/33 15/16/33
f 14/42/34 15/16/34 9/11/34
f 12/9/35 7/32/35 15/7/35
f 23/49/36 22/31/36 6/30/36
f 15/7/37 7/32/37 22/31/37
f 22/17/38 23/34/38 24/15/38
f 29/50/39 28/33/39 23/34/39
f 23/36/40 6/41/40 19/26/40
f 5/39/41 19/26/41 2/2/41
f 6/41/42 2/2/42 19/26/42
f 25/29/43 26/37/43 9/11/43
f 18/38/44 8/12/44 9/11/44
f 32/51/45 52/52/45 41/53/45
f 36/54/46 51/55/46 47/56/46
f 56/57/47 34/58/47 55/59/47
f 43/60/48 39/61/48 53/62/48
f 50/63/49 38/64/49 35/65/49
f 57/66/50 48/67/50 58/68/50
f 47/56/51 54/69/51 50/63/51
f 58/68/52 49/70/52 56/57/52
f 37/71/53 57/66/53 33/72/53
f 46/73/54 53/74/54 52/52/54
f 40/75/55 41/53/55 42/76/55
f 46/77/56 33/78/56 45/79/56
f 35/80/57 49/81/57 50/82/57
f 33/78/58 41/83/58 40/84/58
f 30/85/59 44/86/59 31/87/59
f 43/60/60 45/79/60 44/86/60
f 47/88/61 37/89/61 36/90/61
f 50/82/62 48/91/62 47/88/62
f 53/74/63 51/55/63 52/52/63
f 39/92/64 54/69/64 53/74/64
f 52/52/65 42/76/65 41/53/65
f 37/89/66 42/93/66 36/90/66
f 58/68/67 44/94/67 45/95/67
f 57/66/68 45/95/68 33/72/68
f 56/57/69 31/96/69 44/94/69
f 40/97/70 37/71/70 33/72/70
f 1/1/71 5/39/71 2/2/71
f 14/42/72 9/11/72 13/10/72
f 4/14/73 5/39/73 3/5/73
f 18/38/74 10/98/74 8/12/74
f 32/51/75 46/73/75 52/52/75
f 36/54/76 42/76/76 51/55/76
f 56/57/77 49/70/77 34/58/77
f 43/60/78 30/85/78 39/61/78
f 50/63/79 54/69/79 38/64/79
f 57/66/80 37/71/80 48/67/80
f 47/56/81 51/55/81 54/69/81
f 58/68/82 48/67/82 49/70/82
f 46/73/83 43/99/83 53/74/83
f 46/77/84 32/100/84 33/78/84
f 35/80/85 34/101/85 49/81/85
f 33/78/58 32/100/58 41/83/58
f 30/85/86 43/60/86 44/86/86
f 43/60/87 46/77/87 45/79/87
f 47/88/88 48/91/88 37/89/88
f 50/82/89 49/81/89 48/91/89
f 53/74/63 54/69/63 51/55/63
f 39/92/64 38/64/64 54/69/64
f 52/52/65 51/55/65 42/76/65
f 37/89/66 40/102/66 42/93/66
f 58/68/90 56/57/90 44/94/90
f 57/66/91 58/68/91 45/95/91
f 56/57/92 55/59/92 31/96/92
