# Blender v2.77 (sub 0) OBJ File: 'LowPoly_Level_Kit_Rocks.blend'
# www.blender.org
g Rocks_Sharp_m_01
v 0.371766 0.000000 0.224167
v 0.001873 0.000000 -0.035751
v 0.640071 0.000000 -0.157663
v 0.270178 0.000000 -0.417581
v 0.142376 0.779166 -0.076691
v 0.566905 0.727089 -0.136344
v 0.272295 0.292533 -0.383596
v 0.149800 0.788676 -0.089385
v 0.372306 0.978060 -0.184724
v 0.403370 0.938820 -0.224477
v 0.366800 0.425241 0.144450
v 0.266289 0.841336 -0.000764
v 0.508656 0.801044 -0.083401
v 0.385271 0.959988 -0.103544
v 0.624901 -0.317786 1.062561
v 0.504459 -0.006871 0.420742
v 0.491292 0.182922 0.536022
v 0.160921 -0.026758 0.687259
v 0.534411 -0.313480 1.110688
v -0.228405 0.498051 -0.276689
v -0.131528 0.304973 0.107704
v 0.648161 -0.233975 1.098797
v 0.522607 0.129892 0.638576
v 0.558834 -0.225475 1.148737
v 0.434804 0.225366 0.474111
v -0.195030 0.542202 -0.232767
v 0.186180 0.064254 0.726608
v -0.085160 0.337203 0.192004
v 0.404100 -0.041182 0.979670
v 0.410272 0.121445 0.730222
v -0.144411 0.492288 -0.072682
v 0.319143 0.247190 0.497878
v 0.561342 -0.133881 0.677997
v 0.195245 0.206169 0.126478
v -1.199200 0.188021 -0.246381
v 0.016328 0.334824 -0.099858
v -0.007065 0.323577 -0.013591
v -0.029088 0.230598 0.085400
v -0.539593 0.456155 -0.082484
v -0.461064 0.000000 0.133035
v -0.843552 0.405411 0.008948
v -0.314193 0.201930 0.151584
v -1.256903 0.011846 -0.206113
v -1.234056 0.000000 -0.204666
v -0.792045 0.000000 0.054205
v -0.000726 0.215315 -0.308741
v 0.063134 0.193901 -0.237216
v 0.004295 0.007345 0.013912
v -0.437960 0.000000 -0.242226
v -0.675723 0.408832 -0.318137
v -0.154636 0.364485 -0.333271
v -0.162420 0.409041 -0.278419
v -0.522784 0.478593 -0.219564
v -0.684545 0.463471 -0.250817
v -1.017324 0.390144 -0.031197
v -1.246166 0.191459 -0.213606
v -1.253919 0.147412 -0.067795
v -1.323196 0.096308 -0.159851
v -1.025605 0.401108 -0.111740
vt 0.5695 0.5800
vt 0.5728 0.5532
vt 0.5871 0.5701
vt 0.5734 0.5529
vt 0.5847 0.5464
vt 0.6050 0.5704
vt 0.6050 0.5946
vt 0.5923 0.5881
vt 0.5586 0.5501
vt 0.5590 0.5485
vt 0.5621 0.5487
vt 0.5691 0.5829
vt 0.5513 0.5727
vt 0.5663 0.5575
vt 0.5360 0.5995
vt 0.5196 0.5845
vt 0.5324 0.5720
vt 0.6024 0.5976
vt 0.5918 0.6000
vt 0.5889 0.5800
vt 0.5824 0.5451
vt 0.5897 0.5751
vt 0.5663 0.5545
vt 0.5843 0.5897
vt 0.5798 0.5875
vt 0.5847 0.5892
vt 0.5508 0.5829
vt 0.5265 0.5698
vt 0.5175 0.5995
vt 0.5983 0.6026
vt 0.5847 0.5800
vt 0.5816 0.5814
vt 0.3820 0.5230
vt 0.3870 0.5087
vt 0.3853 0.5485
vt 0.4099 0.5147
vt 0.3983 0.5425
vt 0.4088 0.5087
vt 0.4027 0.5698
vt 0.3981 0.5498
vt 0.4041 0.5509
vt 0.4738 0.5098
vt 0.4702 0.5315
vt 0.4711 0.5087
vt 0.4699 0.5573
vt 0.4745 0.5704
vt 0.4705 0.5704
vt 0.4030 0.5412
vt 0.4128 0.5483
vt 0.4093 0.5602
vt 0.3937 0.5699
vt 0.3973 0.5550
vt 0.3793 0.5328
vt 0.3913 0.5087
vt 0.3973 0.5299
vt 0.4695 0.5481
vt 0.4788 0.5516
vt 0.4070 0.5698
vt 0.4128 0.5253
vt 0.4295 0.5670
vt 0.4255 0.5536
vt 0.4282 0.5525
vt 0.4788 0.5444
vt 0.4307 0.5922
vt 0.4266 0.5695
vt 0.3973 0.5457
vt 0.4248 0.5593
vt 0.4787 0.5477
vt 0.4646 0.5835
vt 0.4686 0.5800
vt 0.4687 0.5835
vt 0.4265 0.6143
vt 0.4240 0.6043
vt 0.4264 0.5923
vt 0.4307 0.6143
vt 0.3337 0.5096
vt 0.3373 0.5087
vt 0.3455 0.5149
vt 0.2918 0.5809
vt 0.2990 0.5698
vt 0.2990 0.5839
vt 0.3151 0.5147
vt 0.3135 0.5087
vt 0.3159 0.5128
vt 0.3039 0.5362
vt 0.2888 0.5332
vt 0.2938 0.5224
vt 0.3342 0.5876
vt 0.3267 0.5884
vt 0.3254 0.5868
vt 0.2912 0.5498
vt 0.3032 0.5525
vt 0.3357 0.5908
vt 0.3325 0.5973
vt 0.3254 0.5191
vt 0.3212 0.5326
vt 0.3445 0.5277
vt 0.3388 0.5284
vt 0.3283 0.5103
vt 0.3254 0.5202
vt 0.3254 0.5356
vt 0.3183 0.5464
vt 0.2953 0.5848
vt 0.2921 0.5817
vt 0.3245 0.5316
vt 0.3345 0.5390
vt 0.3455 0.5332
vt 0.3392 0.5451
vt 0.3093 0.5105
vt 0.3066 0.5087
vt 0.2888 0.5677
vt 0.2899 0.5575
vt 0.2986 0.5693
vt 0.2986 0.5525
vt 0.3266 0.5834
vt 0.3357 0.5800
vt 0.3066 0.5506
vt 0.3298 0.5972
vt 0.3128 0.5485
vt 0.3066 0.5331
vt 0.3088 0.5109
vt 0.2672 0.5699
vt 0.2717 0.5701
vt 0.2690 0.5739
vt 0.3359 0.5449
vt 0.2693 0.5972
vt 0.2598 0.6001
vt 0.2717 0.5879
vt 0.2552 0.5838
vt 0.2572 0.5790
vt 0.2568 0.5766
vt 0.4646 0.5800
vt 0.3210 0.5456
vn -0.8305 0.1212 -0.5437
vn -0.5818 0.3038 -0.7545
vn 0.7811 0.0604 0.6215
vn 0.7892 0.6140 0.0106
vn 0.5678 0.0812 -0.8192
vn -0.5688 0.1451 0.8095
vn 0.3545 0.3833 0.8529
vn -0.8808 0.0609 -0.4695
vn -0.8160 0.0725 -0.5734
vn 0.7451 0.1168 0.6566
vn 0.8126 0.1165 0.5710
vn -0.5570 0.7874 0.2642
vn 0.5597 0.0893 -0.8239
vn 0.5726 0.0905 -0.8148
vn -0.2469 -0.8895 -0.3846
vn 0.2250 0.9481 0.2245
vn 0.3620 0.7767 0.5154
vn 0.7271 0.1223 -0.6755
vn 0.9578 -0.1636 -0.2365
vn -0.2178 0.8200 0.5292
vn 0.9802 0.1204 -0.1573
vn -0.8801 0.2965 0.3707
vn 0.7746 0.3106 -0.5509
vn -0.8821 0.0420 0.4692
vn 0.2469 0.8895 0.3846
vn 0.7989 0.3517 -0.4878
vn 0.4012 -0.4550 0.7950
vn -0.7689 -0.0618 0.6364
vn 0.9777 0.1176 -0.1737
vn 0.2151 0.9592 0.1834
vn -0.3814 -0.6561 0.6512
vn -0.5723 0.0000 -0.8201
vn 0.0000 -1.0000 0.0000
vn 0.9616 0.0579 0.2683
vn 0.3132 -0.7960 -0.5180
vn 0.6676 0.6214 -0.4100
vn -0.3769 0.6944 -0.6130
vn 0.0887 0.7161 0.6923
vn 0.0481 0.7786 -0.6257
vn -0.1200 0.9820 0.1460
vn 0.0160 -0.9999 0.0010
vn 0.2432 -0.2626 0.9338
vn -0.0461 -0.2082 -0.9770
vn -0.7186 0.6754 0.1658
vn -0.2310 0.0789 0.9698
vn 0.9624 0.1866 -0.1974
vn 0.7611 0.3533 -0.5440
s off
f 2/1/1 5/2/1 7/3/1
f 8/4/2 10/5/2 7/3/2
f 3/6/3 6/7/3 11/8/3
f 10/9/4 9/10/4 14/11/4
f 3/12/5 7/13/5 6/14/5
f 2/15/6 11/16/6 5/17/6
f 13/18/7 12/19/7 11/8/7
f 8/4/8 7/3/8 5/2/8
f 4/20/9 2/1/9 7/3/9
f 8/4/2 9/21/2 10/5/2
f 13/18/10 11/8/10 6/7/10
f 1/22/11 3/6/11 11/8/11
f 14/11/4 13/23/4 10/9/4
f 6/14/4 10/9/4 13/23/4
f 5/24/12 12/25/12 8/26/12
f 10/9/13 6/14/13 7/13/13
f 3/12/14 4/27/14 7/13/14
f 12/28/6 5/17/6 11/16/6
f 2/15/6 1/29/6 11/16/6
f 13/18/7 14/30/7 12/19/7
f 9/31/12 12/25/12 14/32/12
f 33/33/15 15/34/15 34/35/15
f 31/36/16 25/37/16 26/38/16
f 22/39/17 23/40/17 30/41/17
f 26/42/18 34/43/18 20/44/18
f 33/45/19 22/46/19 15/47/19
f 32/48/20 27/49/20 29/50/20
f 20/51/15 34/35/15 21/52/15
f 16/53/15 33/33/15 34/35/15
f 15/34/15 19/54/15 18/55/15
f 16/56/21 23/57/21 33/45/21
f 31/36/16 32/48/16 25/37/16
f 22/39/17 29/50/17 24/58/17
f 30/41/20 32/48/20 29/50/20
f 31/36/20 28/59/20 27/49/20
f 21/60/22 26/61/22 20/62/22
f 26/42/23 25/63/23 34/43/23
f 34/35/15 18/55/15 21/52/15
f 18/64/24 28/65/24 21/60/24
f 23/40/25 17/66/25 25/37/25
f 31/67/22 26/61/22 28/65/22
f 16/56/26 25/63/26 17/68/26
f 19/69/27 22/70/27 24/71/27
f 24/72/28 29/73/28 27/74/28
f 33/45/29 23/57/29 22/46/29
f 25/37/25 30/41/25 23/40/25
f 24/72/28 18/64/28 19/75/28
f 37/76/30 36/77/30 52/78/30
f 44/79/31 45/80/31 57/81/31
f 35/82/32 58/83/32 56/84/32
f 49/85/33 40/86/33 45/87/33
f 47/88/34 36/89/34 37/90/34
f 48/91/35 49/85/35 47/92/35
f 46/93/36 51/94/36 36/89/36
f 59/95/37 50/96/37 35/82/37
f 52/78/30 53/97/30 39/98/30
f 39/98/30 37/76/30 52/78/30
f 38/99/38 37/76/38 42/100/38
f 53/101/39 51/102/39 50/96/39
f 57/81/31 58/103/31 43/104/31
f 43/104/31 44/79/31 57/81/31
f 54/105/39 53/101/39 50/96/39
f 41/106/40 54/107/40 59/108/40
f 35/82/32 43/109/32 58/83/32
f 45/87/33 44/110/33 49/85/33
f 49/85/41 48/91/41 40/86/41
f 38/111/42 42/112/42 48/113/42
f 40/114/42 48/113/42 42/112/42
f 37/90/34 38/115/34 47/88/34
f 48/116/34 47/88/34 38/115/34
f 46/117/35 47/92/35 49/85/35
f 52/118/36 36/89/36 51/94/36
f 47/88/36 46/93/36 36/89/36
f 35/82/37 56/84/37 59/95/37
f 59/95/37 54/105/37 50/96/37
f 51/102/43 46/119/43 49/120/43
f 49/120/43 44/121/43 35/82/43
f 43/109/43 35/82/43 44/121/43
f 42/100/38 39/98/38 41/106/38
f 49/120/43 50/96/43 51/102/43
f 56/122/44 58/123/44 57/124/44
f 53/97/40 54/107/40 39/98/40
f 59/108/40 55/125/40 41/106/40
f 40/126/45 42/127/45 45/128/45
f 41/129/45 55/130/45 57/124/45
f 57/124/44 59/131/44 56/122/44
f 45/128/45 41/129/45 57/124/45
f 9/31/12 8/26/12 12/25/12
f 32/48/20 31/36/20 27/49/20
f 16/56/46 17/68/46 23/57/46
f 22/39/17 30/41/17 29/50/17
f 21/60/22 28/65/22 26/61/22
f 34/35/15 15/34/15 18/55/15
f 18/64/24 27/74/24 28/65/24
f 16/56/47 34/43/47 25/63/47
f 19/69/27 15/132/27 22/70/27
f 25/37/25 32/48/25 30/41/25
f 24/72/28 27/74/28 18/64/28
f 53/101/39 52/133/39 51/102/39
f 41/106/40 39/98/40 54/107/40
f 42/100/38 37/76/38 39/98/38
f 49/120/43 35/82/43 50/96/43
f 57/124/44 55/130/44 59/131/44
f 45/128/45 42/127/45 41/129/45
