# Blender v2.77 (sub 0) OBJ File: 'LowPoly_Level_Kit_Rocks.blend'
# www.blender.org
g Rock_Sharp_m_07
v -0.250035 0.000000 -0.025395
v -0.142162 0.000000 0.250035
v -0.108784 0.623830 0.201956
v -0.187758 0.623830 0.000315
v 0.025073 1.247661 0.107080
v -0.054437 1.247661 -0.009420
v -0.100880 0.951474 0.152126
v -0.112800 0.974573 0.116756
v 0.095234 0.000000 -0.250035
v 0.250035 0.000000 -0.024020
v 0.203950 1.699768 -0.222247
v 0.239764 1.871491 -0.177167
v 0.253317 1.247661 -0.117731
v 0.124699 1.247661 -0.200675
v 0.030790 0.623830 -0.201956
v 0.216155 0.623830 -0.007046
v -0.250035 0.000000 -0.081596
v -0.187758 0.623830 -0.143276
v -0.113344 0.623830 -0.201956
v -0.036435 0.000000 -0.250035
v -0.054437 1.247661 -0.139973
v 0.022877 1.479020 -0.165062
v 0.049897 1.431506 -0.209447
v -0.001871 1.247661 -0.200675
v -0.172340 0.695977 -0.156888
v -0.117283 0.763724 -0.201669
v 0.237226 0.977548 0.148160
v 0.116617 1.247661 0.107080
v 0.106125 1.499148 0.030893
v 0.253317 1.247661 0.056135
v 0.242146 1.766281 -0.193294
v 0.264585 1.390387 -0.124541
v 0.279130 1.574640 -0.057625
v 0.253606 1.871491 -0.142658
v 0.042940 1.539057 -0.092624
v 0.070638 1.621942 -0.142404
v 0.223925 1.871491 -0.163731
v 0.238453 1.871491 -0.137011
v 0.135613 1.617823 -0.017894
v 0.161035 0.000000 0.250035
v 0.216155 0.623830 0.190545
v 0.250035 0.000000 0.176039
vt 0.7711 0.5236
vt 0.7675 0.5415
vt 0.7669 0.5337
vt 0.8507 0.5423
vt 0.8642 0.5414
vt 0.8614 0.5607
vt 0.8444 0.5786
vt 0.8478 0.5777
vt 0.8487 0.5909
vt 0.8285 0.5756
vt 0.8279 0.5899
vt 0.8227 0.5756
vt 0.8094 0.5421
vt 0.8138 0.5414
vt 0.8138 0.5454
vt 0.8002 0.5437
vt 0.8114 0.5495
vt 0.8023 0.5780
vt 0.8094 0.5870
vt 0.8032 0.6029
vt 0.8357 0.5415
vt 0.8332 0.5077
vt 0.8396 0.5086
vt 0.7848 0.5560
vt 0.7878 0.5752
vt 0.7751 0.5754
vt 0.8103 0.5975
vt 0.8039 0.6124
vt 0.8377 0.5763
vt 0.8636 0.5593
vt 0.8401 0.5092
vt 0.8416 0.5434
vt 0.8458 0.5889
vt 0.8396 0.5519
vt 0.8414 0.5474
vt 0.8561 0.5767
vt 0.8148 0.5413
vt 0.8015 0.6069
vt 0.8029 0.6125
vt 0.8621 0.5912
vt 0.8539 0.5937
vt 0.7619 0.5133
vt 0.7599 0.5170
vt 0.8096 0.5076
vt 0.7967 0.5096
vt 0.7950 0.5872
vt 0.7939 0.5795
vt 0.8103 0.5766
vt 0.8116 0.5893
vt 0.7786 0.5413
vt 0.8517 0.5987
vt 0.8396 0.5951
vt 0.8299 0.5968
vt 0.8655 0.5076
vt 0.8642 0.5092
vt 0.8644 0.5076
vt 0.7651 0.5076
vt 0.7595 0.6097
vt 0.7749 0.6094
vt 0.7628 0.5076
vt 0.8555 0.6135
vt 0.8537 0.6135
vt 0.8380 0.6118
vt 0.8370 0.6118
vt 0.7878 0.5460
vt 0.7883 0.5110
vt 0.8642 0.5765
vt 0.8622 0.5076
vt 0.8437 0.5087
vt 0.8365 0.5608
vt 0.8150 0.5593
vt 0.8602 0.5981
vt 0.8138 0.5076
vt 0.7878 0.6092
vt 0.8655 0.5096
vt 0.7615 0.5758
vn 0.9969 -0.0787 -0.0000
vn -0.9283 0.0777 0.3636
vn -0.7438 0.1787 -0.6441
vn 0.0000 0.2899 0.9570
vn -0.6191 -0.0158 -0.7851
vn 0.0000 0.0021 -1.0000
vn -0.0000 -0.0477 -0.9989
vn 0.6392 0.0168 0.7688
vn 0.9982 -0.0595 0.0000
vn -0.6167 0.3172 -0.7205
vn 0.3346 0.2860 0.8979
vn -0.9951 0.0993 -0.0000
vn -0.9484 0.3169 0.0000
vn 0.0347 0.1430 0.9891
vn 0.4226 0.1467 -0.8944
vn -0.7569 0.4004 0.5166
vn 0.6954 -0.0889 -0.7131
vn 0.5401 -0.0826 -0.8375
vn -0.6173 0.3202 -0.7186
vn -0.6134 0.3177 -0.7231
vn -0.9779 0.2090 0.0000
vn 0.0000 1.0000 0.0000
vn 0.9692 0.0129 -0.2461
vn 0.8235 0.0601 -0.5641
vn 0.9253 0.0778 -0.3711
vn -0.7598 0.5020 0.4131
vn 0.7205 -0.1070 -0.6852
vn 0.0000 0.0768 -0.9970
vn -0.0631 0.1224 0.9905
vn 0.0000 0.1504 0.9886
vn 0.0000 0.0768 0.9970
vn 0.9985 0.0542 0.0000
vn 0.0000 0.1326 0.9912
vn 0.5797 -0.1399 -0.8028
vn 0.7188 0.1269 -0.6836
vn 0.5333 -0.1785 -0.8269
vn 0.0349 0.0918 0.9952
s off
f 33/1/1 13/2/1 32/3/1
f 4/4/2 3/5/2 8/6/2
f 24/7/3 21/8/3 22/9/3
f 28/10/4 29/11/4 5/12/4
f 19/13/5 18/14/5 25/15/5
f 15/16/6 19/13/6 26/17/6
f 14/18/7 23/19/7 11/20/7
f 41/21/8 40/22/8 42/23/8
f 27/24/9 41/25/9 16/26/9
f 11/20/10 36/27/10 37/28/10
f 28/10/11 30/29/11 29/11/11
f 7/30/2 8/6/2 3/5/2
f 17/31/12 4/4/12 18/32/12
f 22/9/3 23/33/3 24/7/3
f 24/7/3 26/34/3 21/8/3
f 25/35/3 21/8/3 26/34/3
f 6/36/13 22/9/13 21/8/13
f 25/15/5 26/17/5 19/13/5
f 41/21/14 5/12/14 3/37/14
f 31/38/15 11/20/15 12/39/15
f 6/36/16 29/40/16 35/41/16
f 31/42/17 32/3/17 11/43/17
f 17/44/5 19/13/5 20/45/5
f 14/18/18 32/46/18 13/47/18
f 26/17/6 24/48/6 15/16/6
f 14/18/6 15/16/6 24/48/6
f 14/18/7 24/48/7 23/19/7
f 22/49/19 36/27/19 23/19/19
f 37/28/20 12/39/20 11/20/20
f 13/2/9 30/50/9 16/26/9
f 35/41/13 36/51/13 22/9/13
f 29/11/11 33/52/11 39/53/11
f 8/6/21 6/36/21 4/4/21
f 34/54/22 37/55/22 38/56/22
f 18/32/21 4/4/21 25/35/21
f 33/1/23 31/42/23 34/57/23
f 9/58/24 16/26/24 10/59/24
f 12/60/25 34/57/25 31/42/25
f 36/51/26 38/61/26 37/62/26
f 34/63/11 38/64/11 33/52/11
f 14/18/27 16/65/27 15/16/27
f 33/52/11 38/64/11 39/53/11
f 20/45/28 15/16/28 9/66/28
f 7/30/16 5/67/16 8/6/16
f 2/68/2 4/4/2 1/69/2
f 8/6/16 5/67/16 6/36/16
f 25/35/21 6/36/21 21/8/21
f 27/70/29 28/10/29 41/21/29
f 5/12/30 7/71/30 3/37/30
f 39/72/16 35/41/16 29/40/16
f 30/50/9 27/24/9 16/26/9
f 40/22/31 3/37/31 2/73/31
f 42/74/32 16/26/32 41/25/32
f 11/20/19 23/19/19 36/27/19
f 28/10/11 27/70/11 30/29/11
f 17/31/12 1/69/12 4/4/12
f 6/36/13 35/41/13 22/9/13
f 41/21/33 28/10/33 5/12/33
f 6/36/16 5/67/16 29/40/16
f 17/44/5 18/14/5 19/13/5
f 14/18/34 11/20/34 32/46/34
f 13/2/1 33/1/1 30/50/1
f 29/11/11 30/29/11 33/52/11
f 34/54/22 12/75/22 37/55/22
f 33/1/23 32/3/23 31/42/23
f 9/58/35 15/76/35 16/26/35
f 36/51/26 39/72/26 38/61/26
f 14/18/36 13/47/36 16/65/36
f 20/45/28 19/13/28 15/16/28
f 2/68/2 3/5/2 4/4/2
f 25/35/21 4/4/21 6/36/21
f 39/72/26 36/51/26 35/41/26
f 40/22/37 41/21/37 3/37/37
f 42/74/32 10/59/32 16/26/32
