# Blender v2.77 (sub 0) OBJ File: 'LowPoly_Level_Kit_Rocks.blend'
# www.blender.org
g Rock_Sharp_l_03
v -1.001461 -0.080582 2.404546
v 3.356113 3.384560 0.432897
v 0.892233 1.413714 1.510341
v 0.252620 1.440445 1.400268
v 2.238495 2.540178 0.955313
v -2.315086 -0.080582 -0.074922
v 4.453123 4.243537 0.010059
v 4.368915 4.212587 0.060241
v -0.221440 1.440445 -0.332854
v -0.106218 1.440445 0.478870
v -1.048309 0.886109 -0.074922
v 3.293129 3.642383 0.263447
v 3.876937 4.031761 0.103390
v -1.346445 -0.080582 2.328723
v -0.036421 1.219875 1.522345
v -1.883720 -0.080582 1.664788
v -0.627119 -0.080582 -2.216708
v 1.086515 1.405595 -1.469633
v 3.394407 3.331841 -0.514697
v 2.409539 2.508256 -0.923280
v 4.453123 4.243537 -0.057554
v -2.269153 -0.080582 -0.260170
v -1.108885 -0.080582 -2.142613
v 0.587369 1.972453 -0.472977
v -0.046657 1.440445 -0.781650
v 3.837571 4.017292 -0.015160
v 4.100461 4.113917 -0.091459
v -1.010639 0.195091 -1.970259
v -1.191805 0.491172 -1.320022
v 2.995732 2.398855 0.143594
v 0.799907 -0.080582 0.772502
v 2.105395 1.363013 0.311273
v 3.580321 3.075871 -0.177227
v 4.464299 4.232769 -0.004139
v 4.466365 4.230779 -0.068266
v 4.354918 4.080316 -0.153444
v 1.165308 -0.080582 -0.592765
v 2.259627 1.356568 -0.310150
v 3.574503 3.083881 0.036472
v 3.052363 2.388286 -0.234205
v 1.159727 -0.080582 -0.493429
v 3.462680 2.940103 0.049894
v 1.770833 2.617070 0.790527
vt 0.6000 0.5313
vt 0.5961 0.5491
vt 0.5974 0.5327
vt 0.5634 0.5358
vt 0.5613 0.5435
vt 0.5613 0.5340
vt 0.5942 0.5693
vt 0.5998 0.5523
vt 0.5984 0.5745
vt 0.5981 0.5787
vt 0.6000 0.6031
vt 0.5938 0.6003
vt 0.5998 0.5234
vt 0.5492 0.5185
vt 0.5505 0.5181
vt 0.5494 0.5219
vt 0.5606 0.5779
vt 0.5647 0.5436
vt 0.5671 0.5585
vt 0.5398 0.5660
vt 0.5341 0.5475
vt 0.5436 0.5303
vt 0.5916 0.5974
vt 0.5470 0.5958
vt 0.5402 0.5757
vt 0.5358 0.5755
vt 0.5594 0.5330
vt 0.5609 0.5200
vt 0.5483 0.5989
vt 0.5407 0.5931
vt 0.5283 0.6018
vt 0.5309 0.5850
vt 0.5740 0.5468
vt 0.5632 0.5338
vt 0.5677 0.5323
vt 0.5574 0.5469
vt 0.5613 0.5579
vt 0.5548 0.5656
vt 0.5598 0.5779
vt 0.5510 0.5902
vt 0.5507 0.5490
vt 0.5510 0.5910
vt 0.5512 0.5904
vt 0.5512 0.5911
vt 0.5621 0.5179
vt 0.5622 0.5178
vt 0.5629 0.5186
vt 0.5242 0.5653
vt 0.5299 0.5717
vt 0.5809 0.5652
vt 0.5916 0.5902
vt 0.5725 0.5795
vt 0.5615 0.5179
vt 0.5984 0.5178
vt 0.5477 0.5245
vt 0.5469 0.5236
vt 0.5499 0.5178
vt 0.5222 0.5687
vt 0.5266 0.6016
vt 0.5147 0.5917
vt 0.5510 0.5951
vt 0.5510 0.5202
vt 0.5506 0.5181
vt 0.5506 0.5342
vt 0.5506 0.5689
vt 0.5510 0.5902
vn -0.0206 0.5456 0.8378
vn 0.7906 -0.6107 0.0444
vn -0.1160 0.5709 0.8128
vn -0.5043 0.7610 0.4081
vn -0.1190 0.5249 0.8428
vn -0.3450 0.9386 0.0000
vn 0.7575 -0.6163 0.2153
vn -0.5387 0.8391 0.0765
vn -0.1186 0.6162 0.7786
vn -0.4215 0.7753 -0.4704
vn -0.5624 0.7973 -0.2190
vn 0.5977 -0.4451 -0.6669
vn -0.7198 0.5339 -0.4437
vn -0.5936 0.7843 -0.1803
vn 0.6222 -0.4287 0.6551
vn 0.6208 -0.4211 0.6613
vn 0.6261 -0.4284 -0.6516
vn 0.6230 -0.3727 -0.6877
vn -0.1262 0.5578 -0.8203
vn 0.6938 0.7202 0.0000
vn 0.5722 -0.3707 0.7316
vn -0.5441 0.8118 0.2119
vn 0.6218 -0.3773 0.6863
vn -0.1774 0.5973 0.7821
vn -0.5360 0.8180 0.2088
vn 0.6264 -0.4275 0.6518
vn -0.5999 0.7861 0.1487
vn -0.1658 0.6349 0.7546
vn -0.1129 0.5903 0.7993
vn 0.6203 -0.4215 -0.6615
vn -0.5999 0.7861 -0.1487
vn 0.6254 -0.4214 0.6568
vn 0.6218 -0.4296 -0.6549
vn 0.6478 -0.3614 -0.6707
vn -0.5904 0.7737 -0.2299
vn 0.6939 0.7201 0.0000
vn 0.6037 -0.4389 0.6655
vn 0.5677 -0.4146 0.7112
vn -0.5831 0.7861 0.2052
vn -0.1631 0.6318 0.7578
vn 0.6452 -0.3699 0.6685
vn 0.6252 -0.4218 -0.6567
vn -0.5734 0.7977 -0.1869
vn -0.5564 0.8105 0.1831
s off
f 12/1/1 5/2/1 2/3/1
f 42/4/2 40/5/2 33/6/2
f 3/7/3 43/8/3 4/9/3
f 15/10/4 16/11/4 14/12/4
f 2/3/5 13/13/5 12/1/5
f 8/14/6 21/15/6 27/16/6
f 41/17/7 30/18/7 32/19/7
f 24/20/8 43/21/8 12/22/8
f 3/7/9 15/10/9 1/23/9
f 24/20/10 27/16/10 28/24/10
f 24/20/11 25/25/11 9/26/11
f 33/6/12 19/27/12 36/28/12
f 23/29/13 29/30/13 28/24/13
f 29/30/14 22/31/14 11/32/14
f 5/33/15 32/19/15 30/18/15
f 42/4/16 39/34/16 2/35/16
f 20/36/17 38/37/17 18/38/17
f 18/38/18 37/39/18 17/40/18
f 20/41/19 28/24/19 27/16/19
f 21/42/20 34/43/20 35/44/20
f 34/45/21 7/46/21 8/47/21
f 4/48/22 43/21/22 10/49/22
f 3/50/23 1/51/23 31/52/23
f 33/6/2 36/28/2 39/34/2
f 35/53/2 34/45/2 36/28/2
f 39/34/2 42/4/2 33/6/2
f 41/17/2 37/39/2 38/37/2
f 38/37/2 40/5/2 42/4/2
f 36/28/2 34/45/2 39/34/2
f 42/4/2 41/17/2 38/37/2
f 3/7/24 5/2/24 43/8/24
f 2/3/5 8/54/5 13/13/5
f 27/16/6 26/55/6 13/56/6
f 13/56/6 8/14/6 27/16/6
f 7/57/6 21/15/6 8/14/6
f 41/17/7 42/4/7 30/18/7
f 32/19/7 31/52/7 41/17/7
f 13/56/8 26/55/8 12/22/8
f 24/20/8 9/26/8 10/49/8
f 11/32/8 10/49/8 9/26/8
f 12/22/8 26/55/8 24/20/8
f 10/49/8 43/21/8 24/20/8
f 15/58/25 4/48/25 10/49/25
f 3/50/26 32/19/26 5/33/26
f 6/59/27 16/60/27 11/32/27
f 14/12/28 1/23/28 15/10/28
f 3/7/29 4/9/29 15/10/29
f 25/25/10 24/20/10 28/24/10
f 26/55/10 27/16/10 24/20/10
f 28/24/10 29/30/10 25/25/10
f 23/29/13 22/31/13 29/30/13
f 40/5/30 19/27/30 33/6/30
f 22/31/31 6/59/31 11/32/31
f 2/35/32 5/33/32 30/18/32
f 30/18/16 42/4/16 2/35/16
f 20/36/33 40/5/33 38/37/33
f 18/38/34 38/37/34 37/39/34
f 25/25/35 11/32/35 9/26/35
f 23/29/19 28/24/19 17/61/19
f 27/16/19 21/15/19 36/62/19
f 35/63/19 36/62/19 21/15/19
f 19/64/19 20/41/19 27/16/19
f 18/65/19 17/61/19 28/24/19
f 28/24/19 20/41/19 18/65/19
f 36/62/19 19/64/19 27/16/19
f 21/42/36 7/66/36 34/43/36
f 8/47/37 2/35/37 39/34/37
f 39/34/38 34/45/38 8/47/38
f 11/32/39 15/58/39 10/49/39
f 12/1/40 43/8/40 5/2/40
f 3/50/41 31/52/41 32/19/41
f 40/5/42 20/36/42 19/27/42
f 25/25/43 29/30/43 11/32/43
f 11/32/44 16/60/44 15/58/44
