# Blender v2.77 (sub 0) OBJ File: 'LowPoly_Level_Kit_Rocks.blend'
# www.blender.org
g Rocks_Sharp_l_04
v -1.351421 -0.000000 0.055987
v -1.105059 3.047953 -0.037087
v -1.354847 -0.000000 0.236776
v -0.895012 -0.000000 0.857555
v -1.102595 3.172164 0.358947
v -1.110391 1.629917 0.775361
v -1.221196 1.761236 0.642577
v -0.767317 2.112612 -0.077809
v -0.885888 3.538281 0.046557
v -0.390398 -0.000000 0.322345
v -0.263967 -0.000000 0.689572
v -0.864884 3.111335 0.583192
v -0.936110 3.538967 0.403653
v -0.604750 2.607443 0.557080
v -0.847187 3.666903 0.201259
v -1.071346 1.960852 -0.140833
v -1.282847 0.831520 -0.041389
v -1.125621 2.784737 -0.066723
v 0.039646 2.246680 1.049303
v 0.164398 2.216083 0.923965
v 0.045629 2.263825 1.041441
v -0.357634 -0.051088 0.467613
v 0.419597 -0.043671 0.519126
v 0.002967 2.280582 0.749329
v 0.133776 2.228185 0.777868
v 0.309687 -0.043911 0.488558
v -0.046618 -0.068727 1.081408
v 0.078671 1.349199 1.098393
v 0.339065 0.964571 0.868673
v 0.455887 -0.049479 0.698674
v -0.418024 -0.062779 0.783534
v -0.291369 -0.067325 0.957587
v -0.175010 1.781441 0.955964
v -0.379439 0.971158 0.553799
v -0.182018 1.859838 0.635316
v -0.170187 1.916099 0.646977
v -0.258705 1.625916 0.854768
v -0.409154 0.912360 0.710690
v -0.948553 1.621629 -0.724098
v -0.099883 1.288785 -0.703434
v -0.381871 0.996364 -0.397209
v -0.425692 2.297820 -0.805581
v -0.227584 1.550340 -0.577999
v -0.409408 0.663863 -0.357089
v -0.883921 1.287627 -0.572044
v -0.623410 1.252478 -0.468194
v -0.465208 0.998059 -0.394387
v -0.092027 0.732943 -0.693009
v -0.435152 -0.051953 -0.334204
v -0.415003 0.016424 -0.329448
v -0.297686 -0.072391 -0.866050
v -0.146533 0.359329 -0.924495
v -0.458035 2.445143 -0.873977
v -0.200205 1.879955 -1.081393
v -0.226638 1.374774 -1.205843
v -0.280061 1.455699 -1.243800
v -0.463556 2.616805 -1.066664
v -0.401192 2.515121 -1.160104
v -0.467289 2.481136 -1.233059
v -0.908889 1.990898 -1.026661
v -0.892600 2.078424 -0.882071
v -0.607136 2.602088 -0.986537
v -0.783739 2.157043 -1.238128
v -0.595002 2.531655 -1.233058
v -0.564097 2.656230 -1.067083
v -0.958945 1.596646 -0.945710
v -0.954153 1.582063 -0.734065
v -0.884091 0.880887 -0.553367
v -0.791937 -0.067815 -0.473483
v -0.631216 -0.086153 -0.972753
v -0.624947 1.027295 -1.250174
v -0.783658 1.519548 -1.245324
v -0.796247 -0.084677 -0.842816
v -0.909786 1.068420 -1.035347
v 1.089950 -0.000000 0.035684
v 0.542129 -0.000000 0.674124
v 0.415643 0.682478 0.543140
v -1.344479 -0.000000 0.032396
v 1.133331 0.239516 -0.016872
v 0.627373 0.006427 -0.909024
v -1.110217 -0.000000 -0.434782
v 0.734263 0.308178 -0.877924
v 0.758089 1.073405 -0.733586
v 2.324555 3.834281 0.368298
v 2.514194 3.945706 0.134287
v 2.445851 3.902277 0.026686
v 2.336503 3.832182 0.015151
v 2.268265 3.801209 0.373649
v -0.229264 1.151221 0.337930
v -1.017081 0.630966 0.000217
v 1.989340 3.489439 0.420489
v 0.742509 2.513355 0.113829
v -0.825093 0.575629 -0.412348
v 0.478736 1.298812 -0.615237
v 1.103867 2.763193 -0.240716
v 0.921744 2.629769 -0.235720
v -0.363649 -0.000000 0.708163
v -0.280933 0.657433 0.450652
v -0.197492 -0.022076 -0.696207
vt 0.6067 0.5998
vt 0.6100 0.6066
vt 0.6075 0.6051
vt 0.5972 0.5805
vt 0.5933 0.5941
vt 0.5970 0.5704
vt 0.5973 0.5671
vt 0.6004 0.5786
vt 0.6091 0.5934
vt 0.6020 0.5817
vt 0.6100 0.5611
vt 0.5916 0.5268
vt 0.5927 0.5161
vt 0.5984 0.5368
vt 0.6004 0.6034
vt 0.5997 0.5610
vt 0.5953 0.5648
vt 0.6105 0.5288
vt 0.6045 0.5167
vt 0.6066 0.5153
vt 0.6020 0.5536
vt 0.6004 0.5351
vt 0.6020 0.5153
vt 0.6025 0.5616
vt 0.6001 0.5591
vt 0.5980 0.5546
vt 0.5941 0.5507
vt 0.5947 0.5538
vt 0.5972 0.5603
vt 0.5994 0.5591
vt 0.5913 0.5164
vt 0.5913 0.6040
vt 0.6020 0.5341
vt 0.6105 0.5611
vt 0.6057 0.5607
vt 0.9173 0.5815
vt 0.9194 0.5811
vt 0.9197 0.5922
vt 0.9585 0.5955
vt 0.9527 0.5824
vt 0.9562 0.5717
vt 0.9736 0.5964
vt 0.9707 0.5809
vt 0.9736 0.5683
vt 0.9156 0.5970
vt 0.9214 0.6096
vt 0.9136 0.6096
vt 0.9083 0.6016
vt 0.9064 0.5928
vt 0.9104 0.5809
vt 0.9193 0.5809
vt 0.9514 0.5950
vt 0.9563 0.5710
vt 0.9596 0.5672
vt 0.9584 0.5666
vt 0.9053 0.5937
vt 0.9714 0.5683
vt 0.9718 0.5963
vt 0.9596 0.5735
vt 0.9614 0.5710
vt 0.9614 0.5747
vt 0.9121 0.6096
vt 0.9121 0.6098
vt 0.9092 0.6102
vt 0.9098 0.6036
vt 0.9136 0.5987
vt 0.9596 0.5955
vt 0.9514 0.5827
vt 0.9078 0.5809
vt 0.9071 0.6055
vt 0.9070 0.6048
vt 0.8411 0.5732
vt 0.8402 0.5732
vt 0.8410 0.5691
vt 0.8464 0.5706
vt 0.7940 0.5722
vt 0.7951 0.5734
vt 0.7944 0.5743
vt 0.8133 0.5901
vt 0.8079 0.5934
vt 0.8095 0.5860
vt 0.8126 0.5851
vt 0.8138 0.5811
vt 0.7926 0.5710
vt 0.7927 0.5721
vt 0.8388 0.5762
vt 0.8169 0.5864
vt 0.8417 0.5611
vt 0.7790 0.5968
vt 0.7826 0.5927
vt 0.7781 0.6020
vt 0.8456 0.5774
vt 0.8104 0.5683
vt 0.8133 0.5748
vt 0.8085 0.5705
vt 0.8136 0.5807
vt 0.7836 0.6018
vt 0.7833 0.6026
vt 0.8080 0.5725
vt 0.7802 0.5779
vt 0.7785 0.5701
vt 0.7797 0.5699
vt 0.7836 0.5859
vt 0.8430 0.5804
vt 0.8464 0.5850
vt 0.8416 0.5895
vt 0.8441 0.5926
vt 0.8426 0.5937
vt 0.8416 0.5914
vt 0.7926 0.5904
vt 0.7891 0.5889
vt 0.7919 0.5838
vt 0.7887 0.5966
vt 0.7878 0.6026
vt 0.7863 0.6012
vt 0.7776 0.5838
vt 0.7771 0.5827
vt 0.7901 0.5699
vt 0.7877 0.5829
vt 0.8155 0.5803
vt 0.8148 0.5754
vt 0.7868 0.6031
vt 0.7745 0.5876
vt 0.7913 0.5950
vt 0.7918 0.5964
vt 0.7752 0.6016
vt 0.8092 0.6012
vt 0.8096 0.6020
vt 0.8080 0.5893
vt 0.7836 0.5882
vt 0.7850 0.6006
vt 0.8140 0.6017
vt 0.8169 0.6008
vt 0.7927 0.5741
vt 0.6617 0.5426
vt 0.6699 0.5579
vt 0.6693 0.5606
vt 0.6509 0.5354
vt 0.6571 0.5250
vt 0.6682 0.5256
vt 0.7058 0.5153
vt 0.7050 0.5617
vt 0.6935 0.5532
vt 0.7037 0.5678
vt 0.7054 0.5666
vt 0.7049 0.5709
vt 0.7058 0.5234
vt 0.7149 0.5660
vt 0.7125 0.5609
vt 0.6859 0.5516
vt 0.6850 0.5321
vt 0.6931 0.5613
vt 0.6692 0.6013
vt 0.6655 0.5855
vt 0.6692 0.5818
vt 0.6571 0.5427
vt 0.6934 0.5627
vt 0.7044 0.5161
vt 0.7180 0.5181
vt 0.7180 0.5211
vt 0.7084 0.5153
vt 0.7054 0.5710
vt 0.7044 0.5666
vt 0.7145 0.5654
vt 0.6771 0.5541
vt 0.6760 0.5153
vt 0.6662 0.5180
vt 0.6724 0.5239
vt 0.6835 0.5574
vt 0.6668 0.5809
vt 0.6931 0.5968
vt 0.6937 0.5955
vt 0.6982 0.5956
vt 0.6982 0.6061
vt 0.6685 0.5794
vt 0.6681 0.5809
vt 0.6795 0.5650
vt 0.6724 0.5613
vt 0.6724 0.5548
vt 0.7058 0.5645
vt 0.6931 0.5666
vt 0.6931 0.5699
vt 0.9597 0.5716
vt 0.9136 0.5813
vt 0.9490 0.5942
vt 0.7951 0.5699
vt 0.7926 0.5701
vt 0.6494 0.5317
vt 0.6706 0.5153
vt 0.7180 0.5683
vn 0.7500 0.3584 0.5560
vn -0.5748 0.0357 -0.8175
vn 0.1546 0.0986 -0.9831
vn 0.2564 0.0824 0.9631
vn -0.9966 0.0800 -0.0189
vn 0.2647 -0.1337 -0.9550
vn -0.8973 0.4227 -0.1270
vn 0.9402 0.1064 -0.3237
vn 0.1546 0.0986 -0.9830
vn -0.6441 0.2024 0.7377
vn -0.8012 -0.0759 0.5935
vn -0.8973 0.4228 -0.1270
vn 0.7155 0.0691 0.6952
vn 0.0303 0.0846 -0.9960
vn 0.9709 0.1440 -0.1916
vn 0.6062 -0.0631 0.7928
vn -0.8069 0.0513 0.5885
vn 0.2650 0.1420 -0.9538
vn -0.9694 0.2245 -0.0995
vn 0.3720 0.9282 -0.0011
vn -0.9085 0.3881 0.1549
vn -0.4511 0.0292 0.8920
vn -0.9822 -0.0051 -0.1879
vn -0.9791 0.1917 0.0683
vn 0.0360 0.1168 0.9925
vn 0.7243 0.0232 0.6891
vn 0.2919 0.7380 -0.6083
vn -0.3650 0.0429 0.9300
vn -0.9035 0.0200 0.4281
vn 0.2800 0.7208 0.6341
vn 0.0384 0.3003 0.9531
vn -0.9953 -0.0953 0.0160
vn 0.9239 -0.2896 0.2499
vn -0.3072 0.3444 0.8871
vn 0.7020 0.1355 -0.6991
vn 0.9699 0.0091 -0.2431
vn 0.9111 0.3204 0.2594
vn -0.8625 0.0056 -0.5060
vn -0.8791 0.4452 -0.1705
vn -0.6086 -0.1886 -0.7708
vn -0.9907 0.1323 0.0315
vn 0.3051 -0.2319 -0.9237
vn 0.0045 0.0113 -0.9999
vn -0.2796 0.3482 -0.8947
vn -0.2515 0.1870 -0.9496
vn 0.7166 -0.2403 -0.6548
vn -0.5273 0.8494 -0.0229
vn 0.2519 -0.0992 0.9627
vn -0.6047 0.5293 0.5952
vn -0.6615 0.7471 0.0652
vn -0.1519 0.3053 -0.9401
vn -0.3351 0.3598 -0.8708
vn 0.9077 0.0503 -0.4167
vn 0.8380 -0.4004 -0.3707
vn 0.7589 0.0054 0.6512
vn 0.6882 0.2577 0.6782
vn -0.5080 0.8611 -0.0223
vn -0.5399 0.8417 0.0032
vn 0.0142 0.1361 0.9906
vn -0.1971 0.1528 0.9684
vn -0.5581 0.5063 0.6575
vn -0.8026 0.4143 -0.4291
vn -0.5128 0.2417 0.8238
vn -0.7489 0.6571 -0.0858
vn -0.5912 0.8057 -0.0348
vn -0.6063 0.7930 -0.0591
vn -0.1652 0.4057 -0.8990
vn -0.0559 0.2901 -0.9554
vn 0.0368 0.1949 0.9801
vn -0.7441 0.6471 -0.1661
vn 0.4934 -0.2527 0.8323
vn 0.8658 -0.2628 -0.4257
vn -0.5377 0.3188 0.7805
vn -0.1362 0.2340 0.9626
vn -0.2676 0.1695 -0.9485
vn -0.9047 0.4089 0.1198
vn 0.2919 0.7381 -0.6083
vn -0.8179 0.4035 -0.4101
vn -0.1352 0.3761 0.9167
vn -0.6598 0.6405 -0.3930
vn 0.8048 -0.3202 0.4997
vn 0.8706 -0.2506 -0.4235
vn -0.4945 0.3702 0.7864
s off
f 12/1/1 15/2/1 13/3/1
f 16/4/2 17/5/2 18/6/2
f 2/7/3 8/8/3 18/6/3
f 14/9/4 6/10/4 11/11/4
f 17/12/5 3/13/5 7/14/5
f 17/5/6 8/8/6 10/15/6
f 9/16/7 2/7/7 5/17/7
f 14/18/8 9/19/8 15/20/8
f 12/1/1 14/9/1 15/2/1
f 16/4/9 18/6/9 8/8/9
f 2/7/9 9/16/9 8/8/9
f 12/21/10 7/14/10 6/22/10
f 6/22/11 3/13/11 4/23/11
f 4/24/4 11/11/4 6/10/4
f 14/9/4 12/1/4 6/10/4
f 13/25/10 5/26/10 12/21/10
f 7/14/5 18/27/5 17/12/5
f 5/26/5 2/28/5 18/27/5
f 9/16/12 13/29/12 15/30/12
f 1/31/5 3/13/5 17/12/5
f 10/15/6 1/32/6 17/5/6
f 17/5/6 16/4/6 8/8/6
f 8/33/8 11/34/8 10/35/8
f 20/36/13 19/37/13 28/38/13
f 26/39/14 34/40/14 35/41/14
f 25/42/15 29/43/15 23/44/15
f 29/45/16 27/46/16 30/47/16
f 37/48/17 38/49/17 32/50/17
f 28/38/13 29/45/13 20/36/13
f 20/36/13 21/51/13 19/37/13
f 26/39/14 22/52/14 34/40/14
f 35/41/18 36/53/18 25/54/18
f 24/55/18 25/54/18 36/53/18
f 37/48/19 34/56/19 38/49/19
f 30/57/15 23/44/15 29/43/15
f 25/42/15 20/58/15 29/43/15
f 29/45/16 28/38/16 27/46/16
f 20/59/20 24/60/20 21/61/20
f 19/62/21 21/63/21 24/64/21
f 19/62/22 33/65/22 28/66/22
f 35/41/18 23/67/18 26/39/18
f 32/50/22 28/66/22 33/65/22
f 22/52/23 38/68/23 34/40/23
f 31/69/17 32/50/17 38/49/17
f 33/65/17 37/48/17 32/50/17
f 19/62/21 36/70/21 33/65/21
f 35/71/24 33/65/24 36/70/24
f 41/72/25 47/73/25 44/74/25
f 44/74/26 48/75/26 41/72/26
f 57/76/27 58/77/27 59/78/27
f 68/79/28 44/80/28 46/81/28
f 45/82/29 67/83/29 68/79/29
f 62/84/30 57/76/30 65/85/30
f 46/86/31 47/73/31 41/72/31
f 67/83/32 74/87/32 68/79/32
f 44/74/26 50/88/26 48/75/26
f 52/89/33 48/90/33 51/91/33
f 40/92/26 41/72/26 48/75/26
f 62/93/34 61/94/34 53/95/34
f 39/96/34 45/82/34 46/81/34
f 51/91/33 50/97/33 49/98/33
f 53/95/34 61/94/34 42/99/34
f 54/100/35 59/101/35 58/102/35
f 48/90/36 52/89/36 40/103/36
f 43/104/37 54/105/37 42/106/37
f 58/107/37 57/108/37 53/109/37
f 53/109/37 42/106/37 54/105/37
f 66/110/38 72/111/38 74/112/38
f 54/105/37 58/107/37 53/109/37
f 63/113/39 62/114/39 64/115/39
f 54/100/35 55/116/35 56/117/35
f 70/118/40 74/112/40 71/119/40
f 66/120/41 61/94/41 60/121/41
f 62/114/39 65/122/39 64/115/39
f 52/89/42 71/123/42 55/116/42
f 60/124/39 61/125/39 62/114/39
f 70/126/42 71/123/42 51/91/42
f 56/117/42 55/116/42 71/123/42
f 46/86/31 43/104/31 42/106/31
f 50/127/28 44/80/28 49/128/28
f 47/129/28 46/81/28 44/80/28
f 45/82/28 68/79/28 46/81/28
f 56/130/43 63/113/43 59/131/43
f 45/82/29 39/96/29 67/83/29
f 39/96/41 61/94/41 67/83/41
f 42/99/34 39/96/34 46/81/34
f 74/112/40 72/111/40 71/119/40
f 44/80/28 69/132/28 49/128/28
f 60/124/38 63/113/38 72/111/38
f 68/79/32 73/133/32 69/132/32
f 63/113/43 64/115/43 59/131/43
f 40/103/36 55/116/36 54/100/36
f 71/119/43 72/111/43 56/130/43
f 57/76/27 64/134/27 65/85/27
f 94/135/44 96/136/44 95/137/44
f 82/138/45 99/139/45 93/140/45
f 85/141/46 79/142/46 83/143/46
f 85/144/47 87/145/47 84/146/47
f 77/147/48 84/148/48 91/149/48
f 89/150/49 92/151/49 90/152/49
f 95/153/50 91/154/50 87/155/50
f 83/156/51 94/135/51 95/137/51
f 94/135/52 93/140/52 96/136/52
f 82/157/53 83/143/53 79/142/53
f 86/158/54 85/141/54 83/143/54
f 75/159/55 79/160/55 76/161/55
f 77/147/56 76/161/56 79/160/56
f 88/162/57 84/146/57 87/145/57
f 85/144/58 86/163/58 87/145/58
f 88/164/59 91/149/59 84/148/59
f 89/150/60 77/165/60 91/166/60
f 89/150/61 91/166/61 92/151/61
f 81/167/62 90/168/62 93/140/62
f 89/150/63 90/152/63 98/169/63
f 88/170/64 87/155/64 91/154/64
f 95/171/65 96/172/65 92/173/65
f 92/173/66 91/174/66 95/171/66
f 95/137/67 87/175/67 86/176/67
f 86/176/68 83/156/68 95/137/68
f 77/165/69 97/177/69 76/178/69
f 93/140/45 94/135/45 83/156/45
f 83/156/45 82/138/45 93/140/45
f 93/140/70 92/179/70 96/136/70
f 79/160/71 84/148/71 77/147/71
f 82/157/72 75/180/72 80/181/72
f 97/177/73 90/152/73 78/182/73
f 77/165/74 89/150/74 98/169/74
f 99/139/75 81/167/75 93/140/75
f 14/18/8 8/33/8 9/19/8
f 12/21/10 5/26/10 7/14/10
f 6/22/11 7/14/11 3/13/11
f 7/14/5 5/26/5 18/27/5
f 9/16/7 5/17/7 13/29/7
f 8/33/8 14/18/8 11/34/8
f 37/48/19 35/71/19 34/56/19
f 20/59/20 25/183/20 24/60/20
f 35/41/18 25/54/18 23/67/18
f 32/50/22 27/184/22 28/66/22
f 22/52/23 31/185/23 38/68/23
f 19/62/21 24/64/21 36/70/21
f 35/71/76 37/48/76 33/65/76
f 62/84/30 53/186/30 57/76/30
f 67/83/32 66/120/32 74/87/32
f 40/92/26 43/104/26 41/72/26
f 51/91/33 48/90/33 50/97/33
f 54/100/35 56/117/35 59/101/35
f 43/104/37 40/92/37 54/105/37
f 66/110/38 60/124/38 72/111/38
f 63/113/39 60/124/39 62/114/39
f 70/118/40 73/187/40 74/112/40
f 66/120/41 67/83/41 61/94/41
f 52/89/42 51/91/42 71/123/42
f 46/86/31 41/72/31 43/104/31
f 56/130/43 72/111/43 63/113/43
f 42/99/34 61/94/34 39/96/34
f 44/80/28 68/79/28 69/132/28
f 68/79/32 74/87/32 73/133/32
f 40/103/36 52/89/36 55/116/36
f 57/76/77 59/78/77 64/134/77
f 82/138/45 80/188/45 99/139/45
f 81/167/78 78/189/78 90/168/78
f 77/165/79 98/169/79 97/177/79
f 93/140/80 90/168/80 92/179/80
f 79/160/81 85/190/81 84/148/81
f 82/157/82 79/142/82 75/180/82
f 97/177/83 98/169/83 90/152/83
