# Blender v2.77 (sub 0) OBJ File: 'LowPoly_Level_Kit_Rocks.blend'
# www.blender.org
g Rock_Sharp_m_03
v -0.311249 -0.000000 -0.015930
v -0.129552 -0.000000 -0.300948
v -0.054775 0.304677 -0.367663
v 0.449435 -0.000000 -0.110820
v -0.314889 0.106927 0.007532
v -0.096439 -0.000000 0.327657
v 0.423619 -0.000000 0.156771
v -0.113120 0.132569 0.337283
v -0.062317 0.479978 0.331454
v -0.035422 1.711733 -0.164419
v -0.096755 1.761476 -0.059950
v -0.070977 1.742088 -0.011914
v -0.030898 1.710796 -0.006764
v -0.016614 1.696968 -0.166808
v 0.217116 0.513938 -0.341066
v 0.399915 0.281681 -0.211462
v 0.041219 1.557785 -0.187719
v 0.215959 1.122033 -0.136273
v 0.368392 0.250724 0.182759
v 0.066293 0.583324 0.292426
v 0.157345 1.233568 0.107462
v 0.181731 1.174004 0.105232
vt 0.3431 0.5501
vt 0.3575 0.5810
vt 0.3569 0.5845
vt 0.3568 0.5293
vt 0.3287 0.5206
vt 0.3575 0.5153
vt 0.3182 0.6126
vt 0.3194 0.5211
vt 0.3287 0.5425
vt 0.2848 0.6149
vt 0.2804 0.6120
vt 0.2869 0.6109
vt 0.2960 0.5342
vt 0.2852 0.6017
vt 0.2853 0.5431
vt 0.2770 0.5773
vt 0.2736 0.5301
vt 0.2692 0.5856
vt 0.3350 0.5459
vt 0.3287 0.5233
vt 0.3196 0.6116
vt 0.3177 0.5153
vt 0.2996 0.5170
vt 0.2863 0.6099
vt 0.2820 0.6140
vt 0.2589 0.5318
vt 0.2679 0.5153
vt 0.2684 0.5822
vt 0.3538 0.6126
vt 0.3522 0.6148
vt 0.2960 0.5191
vt 0.3290 0.5279
vt 0.3115 0.6105
vt 0.3271 0.5162
vt 0.2580 0.5176
vn 0.4980 0.1720 0.8500
vn 0.3120 -0.0297 0.9496
vn -0.8500 0.1329 0.5098
vn 0.6164 0.7873 -0.0130
vn -0.0134 0.1431 -0.9896
vn 0.7336 0.2182 -0.6437
vn 0.9249 0.3768 0.0500
vn 0.0811 0.2622 0.9616
vn -0.8399 0.0889 -0.5354
vn 0.9743 0.2049 0.0940
vn 0.3001 -0.2737 -0.9138
vn -0.8391 -0.1437 0.5246
s off
f 20/1/1 22/2/1 21/3/1
f 19/4/2 6/5/2 7/6/2
f 11/7/3 5/8/3 9/9/3
f 11/10/4 13/11/4 10/12/4
f 3/13/5 10/12/5 17/14/5
f 15/15/6 18/16/6 16/17/6
f 21/18/7 17/14/7 13/11/7
f 9/19/8 20/1/8 21/3/8
f 20/1/1 19/4/1 22/2/1
f 8/20/3 9/9/3 5/8/3
f 12/21/3 11/7/3 9/9/3
f 1/22/9 5/8/9 2/23/9
f 3/13/9 2/23/9 5/8/9
f 14/24/4 10/12/4 13/11/4
f 11/10/4 12/25/4 13/11/4
f 14/24/5 17/14/5 10/12/5
f 15/15/5 3/13/5 17/14/5
f 15/15/6 17/14/6 18/16/6
f 19/26/10 4/27/10 16/17/10
f 3/13/11 15/15/11 16/17/11
f 14/24/7 13/11/7 17/14/7
f 21/18/7 22/28/7 18/16/7
f 18/16/7 17/14/7 21/18/7
f 21/3/8 13/29/8 12/30/8
f 12/30/8 9/19/8 21/3/8
f 16/17/11 2/31/11 3/13/11
f 19/4/2 20/1/2 9/19/2
f 9/19/2 8/32/2 19/4/2
f 19/26/10 18/16/10 22/28/10
f 3/13/9 11/7/9 10/33/9
f 6/34/12 5/8/12 1/22/12
f 19/4/2 8/32/2 6/5/2
f 19/26/10 7/35/10 4/27/10
f 16/17/11 4/27/11 2/31/11
f 19/26/10 16/17/10 18/16/10
f 3/13/9 5/8/9 11/7/9
f 6/34/12 8/20/12 5/8/12
