# Blender v2.77 (sub 0) OBJ File: 'LowPoly_Level_Kit_Rocks.blend'
# www.blender.org
g Rock_Sharp_s_09
v -0.081312 0.000000 0.052152
v -0.081312 0.000000 -0.063118
v 0.054356 0.000000 0.052152
v 0.054356 0.000000 -0.063118
v -0.038144 0.588649 -0.035996
v -0.036329 0.613400 0.001698
v -0.012509 0.555139 -0.037540
v -0.024916 0.599777 0.002819
v -0.093957 0.294325 -0.049557
v -0.019509 0.299889 0.027485
v -0.093050 0.306700 0.026925
v -0.013306 0.277570 -0.050329
vt 0.9475 0.5346
vt 0.9431 0.5354
vt 0.9475 0.5331
vt 0.9428 0.5389
vt 0.9507 0.5627
vt 0.9416 0.5649
vt 0.9115 0.5638
vt 0.9240 0.5904
vt 0.9228 0.5919
vt 0.9562 0.5624
vt 0.9637 0.5355
vt 0.9652 0.5636
vt 0.9266 0.5601
vt 0.9398 0.5366
vt 0.9358 0.5626
vt 0.9240 0.5879
vt 0.9398 0.5894
vt 0.9533 0.5912
vt 0.9669 0.5912
vt 0.9081 0.5348
vt 0.9200 0.5622
vt 0.9533 0.5917
vt 0.9398 0.5917
vt 0.9592 0.5331
vt 0.9373 0.5331
vt 0.9240 0.5331
vn 0.7165 0.5668 -0.4067
vn 0.9967 -0.0066 0.0813
vn -0.0000 0.0820 0.9966
vn -0.9822 0.1871 -0.0186
vn 0.0000 0.0460 -0.9989
vn -0.9991 -0.0429 0.0000
vn 0.9716 0.2368 0.0000
vn 0.9663 0.0384 0.2546
vn -0.9820 0.1760 -0.0683
vn -0.9992 -0.0368 0.0178
vn 0.9708 0.2398 0.0086
s off
f 8/1/1 5/2/1 6/3/1
f 7/4/2 10/5/2 12/6/2
f 11/7/3 8/8/3 6/9/3
f 11/10/4 5/11/4 9/12/4
f 9/13/5 7/14/5 12/15/5
f 2/16/5 12/15/5 4/17/5
f 1/18/6 9/12/6 2/19/6
f 1/20/3 10/21/3 11/7/3
f 12/6/7 3/22/7 4/23/7
f 8/1/1 7/4/1 5/2/1
f 7/4/8 8/1/8 10/5/8
f 11/7/3 10/21/3 8/8/3
f 11/10/9 6/24/9 5/11/9
f 9/13/5 5/25/5 7/14/5
f 2/16/5 9/13/5 12/15/5
f 1/18/10 11/10/10 9/12/10
f 1/20/3 3/26/3 10/21/3
f 12/6/11 10/5/11 3/22/11
