# Blender v2.77 (sub 0) OBJ File: 'LowPoly_Level_Kit_Rocks.blend'
# www.blender.org
g Rock_Sharp_m_10
v 0.684565 0.755303 0.256394
v -0.012621 0.000000 0.450000
v 1.476706 1.282647 0.121220
v 0.571714 0.000000 0.450000
v 0.879406 0.000000 0.263992
v -0.048099 0.000000 -0.450000
v 1.541801 1.176403 -0.148453
v -0.319112 0.000000 0.334733
v -0.103616 0.230595 0.276620
v 0.044506 0.329203 -0.126763
v -0.220347 0.000000 -0.333222
v 0.879406 0.000000 -0.134896
v 0.959106 0.125605 -0.276252
v 0.587882 0.000000 -0.450000
v 0.862163 0.143388 -0.413246
v 1.632584 1.186988 0.010706
v 1.670651 1.320323 -0.067051
v 1.643932 1.204873 -0.032491
v 1.564846 1.341323 0.077924
v 1.592380 1.359653 0.032133
v 1.668087 1.365915 -0.011851
v 1.658664 1.349522 0.022604
vt 0.1793 0.6032
vt 0.1906 0.6002
vt 0.1876 0.6132
vt 0.1668 0.5831
vt 0.1891 0.5608
vt 0.1890 0.5126
vt 0.1906 0.5147
vt 0.1899 0.5162
vt 0.1922 0.5683
vt 0.2020 0.5752
vt 0.1906 0.5775
vt 0.2173 0.5457
vt 0.2343 0.5118
vt 0.2343 0.5952
vt 0.1972 0.5684
vt 0.2076 0.5201
vt 0.2113 0.5132
vt 0.2150 0.5127
vt 0.2120 0.5182
vt 0.1494 0.6044
vt 0.1463 0.5333
vt 0.1569 0.6102
vt 0.1894 0.5208
vt 0.1851 0.5173
vt 0.1631 0.5643
vt 0.1898 0.5118
vt 0.2135 0.5193
vt 0.2173 0.5775
vt 0.2192 0.5328
vt 0.1631 0.5719
vt 0.1372 0.5168
vt 0.1616 0.5248
vt 0.2138 0.5118
vt 0.1553 0.6130
vt 0.1531 0.6121
vt 0.1329 0.5229
vt 0.1601 0.6042
vt 0.1586 0.6087
vt 0.1631 0.5118
vn -0.3065 0.4918 0.8150
vn 0.0000 0.2483 0.9687
vn 0.1987 0.8628 0.4649
vn 0.4630 -0.7759 -0.4284
vn -0.0000 0.2483 -0.9687
vn 0.7450 -0.3436 -0.5718
vn 0.9682 -0.1689 0.1844
vn -0.4027 0.6965 -0.5940
vn 0.5119 -0.1441 0.8468
vn -0.5542 0.8324 -0.0000
vn 0.8444 -0.5358 0.0000
vn -0.7398 0.6638 -0.1094
s off
f 2/1/1 9/2/1 8/3/1
f 4/4/2 1/5/2 2/1/2
f 22/6/3 20/7/3 19/8/3
f 15/9/4 12/10/4 14/11/4
f 15/12/5 6/13/5 7/14/5
f 13/15/6 15/9/6 7/16/6
f 17/17/7 22/18/7 18/19/7
f 7/20/8 10/21/8 20/22/8
f 19/8/9 3/23/9 16/24/9
f 20/22/10 10/21/10 1/25/10
f 2/1/1 1/5/1 9/2/1
f 4/4/2 3/23/2 1/5/2
f 22/6/3 21/26/3 20/7/3
f 13/15/11 16/27/11 5/28/11
f 15/9/4 13/15/4 12/10/4
f 15/12/5 14/29/5 6/13/5
f 7/16/6 17/17/6 18/19/6
f 18/19/6 13/15/6 7/16/6
f 3/23/9 5/30/9 16/24/9
f 5/28/11 12/10/11 13/15/11
f 11/31/12 9/32/12 10/21/12
f 16/27/7 18/19/7 22/18/7
f 17/17/7 21/33/7 22/18/7
f 21/34/8 17/35/8 20/22/8
f 7/20/8 6/36/8 10/21/8
f 11/31/8 10/21/8 6/36/8
f 20/22/8 17/35/8 7/20/8
f 22/6/9 19/8/9 16/24/9
f 9/32/10 1/25/10 10/21/10
f 3/37/10 19/38/10 20/22/10
f 20/22/10 1/25/10 3/37/10
f 13/15/11 18/19/11 16/27/11
f 3/23/9 4/4/9 5/30/9
f 11/31/12 8/39/12 9/32/12
