# Blender v2.77 (sub 0) OBJ File: 'LowPoly_Level_Kit_Rocks.blend'
# www.blender.org
g Rock_Sharp_m_20
v -0.716994 -0.000363 0.024111
v 0.623953 0.255782 -0.091838
v 0.593509 0.345587 -0.059781
v 0.564176 0.430295 0.064048
v 0.005661 0.273983 -0.224014
v 0.082971 0.406053 0.322268
v -0.336322 0.345674 -0.150048
v 0.244372 0.480686 0.108315
v -0.782591 -0.000556 0.224429
v -0.757272 -0.000552 0.237816
v -0.280249 0.303332 0.301370
v 0.616337 0.000439 -0.010594
v 0.683537 0.076408 0.029775
v 0.605673 0.302600 0.290301
v 0.128260 -0.000035 0.235360
v -0.132941 0.000172 -0.228354
v 0.446331 0.000471 -0.179582
v 0.434680 0.069945 -0.215326
v 0.031422 0.131286 -0.280075
v -0.146428 0.085466 -0.272169
v -0.527038 0.289547 -0.144142
v -0.770847 0.033572 0.027611
v -0.786947 0.181197 0.109251
v -0.858855 0.065827 0.142870
v -0.532045 0.204247 -0.174813
vt 0.0304 0.5236
vt 0.0350 0.5222
vt 0.0450 0.5322
vt 0.0907 0.5235
vt 0.0907 0.5510
vt 0.0835 0.5240
vt 0.0593 0.5865
vt 0.0649 0.5937
vt 0.0595 0.5893
vt 0.1103 0.5638
vt 0.0907 0.5608
vt 0.0963 0.5426
vt 0.1035 0.6098
vt 0.0930 0.6079
vt 0.0907 0.6035
vt 0.0949 0.5874
vt 0.1078 0.5919
vt 0.0447 0.5226
vt 0.0474 0.5316
vt 0.0369 0.5809
vt 0.0474 0.5610
vt 0.0422 0.5899
vt 0.0428 0.5527
vt 0.0356 0.5538
vt 0.0245 0.5247
vt 0.0210 0.5408
vt 0.0860 0.5191
vt 0.0901 0.5222
vt 0.0444 0.5617
vt 0.0306 0.5708
vt 0.0688 0.5899
vt 0.1118 0.5191
vt 0.0771 0.5928
vt 0.0794 0.5782
vt 0.0884 0.5940
vt 0.0903 0.5702
vt 0.0915 0.5958
vt 0.1035 0.5919
vt 0.1118 0.5887
vt 0.0408 0.5191
vt 0.0405 0.5926
vt 0.0498 0.5276
vt 0.0578 0.5191
vt 0.0694 0.5438
vt 0.0694 0.5886
vt 0.0474 0.5569
vt 0.0370 0.5968
vt 0.0326 0.5931
vt 0.0327 0.5805
vt 0.0694 0.5471
vt 0.0704 0.5371
vn 0.2035 0.3896 -0.8982
vn -0.4098 0.4812 0.7749
vn -0.5330 -0.8277 -0.1753
vn 0.0028 -0.2090 0.9779
vn 0.9477 0.3190 0.0062
vn 0.3395 -0.6577 0.6725
vn 0.6844 -0.2395 -0.6886
vn -0.3496 -0.4712 -0.8098
vn 0.0540 0.8301 -0.5550
vn 0.0753 -0.4462 -0.8918
vn -0.1295 0.3422 -0.9306
vn 0.0188 -0.2072 0.9781
vn 0.1996 0.8686 0.4536
vn -0.3496 -0.4713 -0.8098
vn 0.0006 -1.0000 -0.0008
vn -0.7275 0.2696 -0.6309
vn -0.2766 0.9530 0.1237
s off
f 3/1/1 2/2/1 18/3/1
f 10/4/2 11/5/2 23/6/2
f 1/7/3 24/8/3 22/9/3
f 15/10/4 6/11/4 11/12/4
f 13/13/5 2/14/5 3/15/5
f 14/16/6 15/10/6 13/17/6
f 12/18/7 17/19/7 2/2/7
f 25/20/8 16/21/8 1/22/8
f 18/3/1 19/23/1 5/24/1
f 5/24/1 3/1/1 18/3/1
f 4/25/9 3/1/9 8/26/9
f 19/23/10 17/19/10 16/21/10
f 23/6/2 24/27/2 9/28/2
f 9/28/2 10/4/2 23/6/2
f 20/29/10 19/23/10 16/21/10
f 7/30/11 20/29/11 25/20/11
f 1/7/3 9/31/3 24/8/3
f 11/12/4 10/32/4 15/10/4
f 15/10/12 14/16/12 6/11/12
f 4/33/13 8/34/13 14/35/13
f 6/36/13 14/35/13 8/34/13
f 3/15/5 4/37/5 13/13/5
f 14/38/5 13/13/5 4/37/5
f 12/39/6 13/17/6 15/10/6
f 18/3/7 2/2/7 17/19/7
f 13/40/7 12/18/7 2/2/7
f 1/22/8 22/41/8 25/20/8
f 25/20/14 20/29/14 16/21/14
f 17/42/15 12/43/15 15/44/15
f 15/44/15 10/45/15 1/7/15
f 9/31/15 1/7/15 10/45/15
f 8/26/9 5/24/9 7/30/9
f 15/44/15 16/46/15 17/42/15
f 22/41/16 24/47/16 23/48/16
f 19/23/11 20/29/11 5/24/11
f 25/20/11 21/49/11 7/30/11
f 6/36/17 8/34/17 11/5/17
f 7/50/17 21/51/17 23/6/17
f 23/48/16 25/20/16 22/41/16
f 11/5/17 7/50/17 23/6/17
f 19/23/10 18/3/10 17/19/10
f 7/30/11 5/24/11 20/29/11
f 8/26/9 3/1/9 5/24/9
f 15/44/15 1/7/15 16/46/15
f 23/48/16 21/49/16 25/20/16
f 11/5/17 8/34/17 7/50/17
