# Blender v2.77 (sub 0) OBJ File: 'LowPoly_Level_Kit_Rocks.blend'
# www.blender.org
g Rock_Sharp_m_06
v -0.250035 0.000000 0.167935
v -0.181028 0.000000 0.250035
v -0.002034 1.612291 0.125775
v 0.244824 0.000000 0.250035
v 0.064639 1.355225 0.145587
v 0.155121 1.231524 0.029127
v 0.250035 0.000000 0.241167
v 0.250035 0.000000 -0.071358
v 0.183074 0.000000 -0.130954
v 0.096813 1.059145 -0.168406
v -0.250035 0.000000 0.116290
v -0.145818 0.805925 -0.187922
v -0.050202 0.000000 -0.156182
v -0.147452 1.331029 0.011594
v -0.030160 1.832517 0.046251
v -0.163283 0.891518 -0.181326
v -0.182377 0.877871 -0.152546
v -0.070533 1.295432 -0.150196
v -0.009493 1.827301 0.004981
v 0.107177 1.290030 -0.150612
v 0.154955 1.233679 -0.110181
v 0.141396 1.409608 -0.054638
v 0.079046 1.400303 -0.142113
v 0.058585 1.683999 -0.050664
vt 0.6448 0.5334
vt 0.6606 0.6040
vt 0.6333 0.6040
vt 0.7064 0.5162
vt 0.6963 0.5364
vt 0.7026 0.5083
vt 0.6852 0.5774
vt 0.6853 0.5084
vt 0.6884 0.5083
vt 0.6650 0.5110
vt 0.6730 0.5543
vt 0.6697 0.5511
vt 0.7059 0.5493
vt 0.6891 0.5615
vt 0.6491 0.5200
vt 0.7064 0.5315
vt 0.7119 0.5398
vt 0.7158 0.5309
vt 0.7203 0.5405
vt 0.7105 0.5363
vt 0.7118 0.5304
vt 0.7295 0.5339
vt 0.7182 0.5162
vt 0.7300 0.5201
vt 0.6584 0.5341
vt 0.7104 0.6036
vt 0.7104 0.5401
vt 0.6709 0.5553
vt 0.6509 0.5083
vt 0.6737 0.5767
vt 0.7294 0.6050
vt 0.7232 0.5085
vt 0.7261 0.5083
vt 0.7062 0.6038
vt 0.6855 0.6041
vt 0.6884 0.6040
vt 0.7077 0.5373
vt 0.6884 0.5570
vt 0.7300 0.6050
vt 0.6650 0.6037
vt 0.6913 0.6031
vn 0.0000 0.0768 0.9970
vn -0.1544 0.2930 -0.9436
vn -0.9970 0.0768 0.0000
vn -0.8007 -0.1181 -0.5873
vn 0.0000 0.0768 -0.9970
vn 0.9970 0.0768 -0.0000
vn 0.7775 0.2430 -0.5800
vn 0.8764 0.2586 0.4062
vn -0.7587 0.1334 0.6377
vn 0.6646 0.0277 -0.7467
vn -0.8576 0.2323 -0.4588
vn 0.1075 -0.0264 -0.9939
vn 0.8522 0.1519 0.5007
s off
f 5/1/1 2/2/1 4/3/1
f 24/4/2 18/5/2 19/6/2
f 14/7/3 11/8/3 1/9/3
f 13/10/4 17/11/4 12/12/4
f 18/5/5 10/13/5 12/14/5
f 5/1/1 3/15/1 2/2/1
f 24/4/2 23/16/2 18/5/2
f 21/17/6 22/18/6 6/19/6
f 22/18/7 20/20/7 23/21/7
f 5/22/8 24/23/8 3/24/8
f 14/25/9 2/2/9 3/15/9
f 14/7/3 17/11/3 11/8/3
f 8/26/10 10/13/10 21/27/10
f 16/28/4 12/12/4 17/11/4
f 13/10/4 11/8/4 17/11/4
f 3/15/9 15/29/9 14/25/9
f 17/11/11 14/7/11 18/30/11
f 8/26/6 6/19/6 7/31/6
f 18/30/11 16/28/11 17/11/11
f 24/23/7 22/18/7 23/21/7
f 19/32/8 15/33/8 3/24/8
f 9/34/12 12/14/12 10/13/12
f 6/19/8 22/18/8 24/23/8
f 24/23/8 19/32/8 3/24/8
f 19/35/11 14/7/11 15/36/11
f 20/37/10 21/27/10 10/13/10
f 12/14/5 16/38/5 18/5/5
f 18/5/5 23/16/5 10/13/5
f 20/37/5 10/13/5 23/16/5
f 4/39/13 6/19/13 5/22/13
f 22/18/7 21/17/7 20/20/7
f 5/22/8 6/19/8 24/23/8
f 14/25/9 1/40/9 2/2/9
f 8/26/10 9/34/10 10/13/10
f 8/26/6 21/17/6 6/19/6
f 9/34/12 13/41/12 12/14/12
f 19/35/11 18/30/11 14/7/11
f 4/39/13 7/31/13 6/19/13
