# Blender v2.77 (sub 0) OBJ File: 'LowPoly_Level_Kit_Rocks.blend'
# www.blender.org
g Rock_Sharp_s_10
v 0.027123 0.000000 -0.121968
v 0.121968 0.000000 -0.063314
v 0.071057 0.347124 -0.071057
v 0.015790 0.726334 0.015790
v 0.017495 0.714655 -0.017495
v -0.037952 0.570933 -0.037952
v -0.030500 0.621438 0.030500
v -0.018466 0.000000 0.121968
v -0.060447 0.417975 0.060447
v -0.073178 0.331554 0.029098
v -0.024031 0.000000 -0.121968
v -0.061194 0.412991 -0.061194
v -0.037598 0.151726 -0.099715
v -0.103260 0.127128 -0.044992
v -0.103708 0.000000 -0.053482
v 0.048230 0.000000 0.121968
v 0.121968 0.000000 0.014790
v 0.058873 0.431617 0.058873
v 0.098111 0.162661 0.031517
v 0.055135 0.272402 0.081874
vt 0.0455 0.5652
vt 0.0459 0.5968
vt 0.0365 0.5962
vt 0.0534 0.5408
vt 0.0567 0.5319
vt 0.0599 0.5453
vt 0.0676 0.5644
vt 0.0809 0.5584
vt 0.0746 0.5826
vt 0.0809 0.5310
vt 0.0537 0.5310
vt 0.0777 0.5316
vt 0.0636 0.5961
vt 0.0708 0.5972
vt 0.0387 0.5433
vt 0.0459 0.5310
vt 0.0515 0.5596
vt 0.0343 0.5574
vt 0.0327 0.5815
vt 0.0269 0.5822
vt 0.0625 0.5860
vt 0.0459 0.5975
vt 0.0548 0.5675
vt 0.0627 0.5597
vt 0.0833 0.5882
vt 0.0921 0.5709
vt 0.0874 0.5979
vt 0.0809 0.5976
vt 0.0858 0.5310
vt 0.0920 0.5311
vt 0.0921 0.5562
vt 0.0636 0.5975
vt 0.0318 0.5955
vt 0.0809 0.5729
vt 0.0809 0.5694
vt 0.0251 0.5937
vn 0.5251 0.0581 -0.8491
vn -0.9092 0.3762 -0.1786
vn 0.9895 0.1445 -0.0012
vn 0.9895 0.1442 0.0001
vn 0.9894 0.1451 0.0000
vn -0.0063 0.1433 -0.9897
vn -0.9893 0.1457 0.0002
vn -0.6509 0.0529 -0.7573
vn -0.8992 -0.0260 0.4369
vn -0.0012 0.1458 -0.9893
vn -0.9893 0.1456 0.0000
vn 0.0000 0.1451 -0.9894
vn -0.0100 0.1432 0.9896
vn 0.8222 0.0624 0.5657
vn 0.0000 0.1456 0.9893
s off
f 3/1/1 2/2/1 1/3/1
f 7/4/2 5/5/2 6/6/2
f 3/7/3 18/8/3 19/9/3
f 3/7/3 4/10/3 18/8/3
f 7/4/2 4/11/2 5/5/2
f 5/12/4 4/10/4 3/7/4
f 2/13/5 19/9/5 17/14/5
f 6/15/6 5/16/6 3/1/6
f 6/6/7 9/17/7 7/4/7
f 12/18/8 13/19/8 14/20/8
f 2/13/5 3/7/5 19/9/5
f 14/21/9 8/22/9 10/23/9
f 3/1/10 12/18/10 6/15/10
f 12/24/11 10/23/11 6/6/11
f 1/3/12 13/19/12 3/1/12
f 7/25/13 18/26/13 4/27/13
f 19/9/14 16/28/14 17/14/14
f 8/29/15 16/30/15 20/31/15
f 6/6/7 10/23/7 9/17/7
f 9/17/9 10/23/9 8/22/9
f 14/21/9 15/32/9 8/22/9
f 3/1/10 13/19/10 12/18/10
f 12/24/11 14/21/11 10/23/11
f 1/3/12 11/33/12 13/19/12
f 7/25/13 20/31/13 18/26/13
f 19/9/14 18/8/14 20/34/14
f 20/34/14 16/28/14 19/9/14
f 20/31/15 7/25/15 9/35/15
f 9/35/15 8/29/15 20/31/15
f 11/33/8 14/20/8 13/19/8
f 11/33/8 15/36/8 14/20/8
