# Blender v2.77 (sub 0) OBJ File: 'LowPoly_Level_Kit_Rocks.blend'
# www.blender.org
g Rock_Sharp_s_03
v -0.082311 0.000000 0.085219
v -0.082311 0.000000 -0.103818
v -0.058672 0.629648 0.015197
v -0.058678 0.628224 -0.015531
v -0.045783 0.640734 -0.012601
v -0.046003 0.641675 0.012381
v -0.073057 0.314715 -0.073398
v 0.000511 0.319868 -0.072191
v 0.000420 0.320256 0.072076
v -0.073055 0.315301 0.073236
v 0.021435 0.000000 -0.103818
v 0.083393 0.000000 -0.069790
v 0.052750 0.118260 -0.092125
v 0.020110 0.000000 0.085219
v 0.013058 0.271477 0.074078
v 0.083393 0.000000 -0.003843
v -0.058675 0.628984 0.000879
v -0.109029 0.315049 0.010061
v -0.118284 0.000000 -0.006145
vt 0.2698 0.6114
vt 0.2677 0.5616
vt 0.2715 0.6132
vt 0.3575 0.5627
vt 0.3586 0.5122
vt 0.3615 0.5106
vt 0.3596 0.5959
vt 0.3615 0.6149
vt 0.3496 0.6134
vt 0.2597 0.5612
vt 0.3440 0.5612
vt 0.2571 0.5111
vt 0.2688 0.5538
vt 0.2681 0.5106
vt 0.2883 0.5106
vt 0.3309 0.6102
vt 0.2982 0.5300
vt 0.3173 0.6109
vt 0.3223 0.5605
vt 0.3201 0.6110
vt 0.2753 0.6132
vt 0.3170 0.6131
vt 0.3214 0.6132
vt 0.2895 0.5622
vt 0.2982 0.5110
vt 0.3055 0.5612
vt 0.3174 0.5106
vt 0.3309 0.5110
vt 0.3309 0.5610
vt 0.3226 0.6111
vt 0.2982 0.5113
vn 0.0397 0.1880 0.9814
vn 0.0404 0.1881 -0.9813
vn 0.4810 -0.0408 -0.8758
vn 0.0033 0.1814 0.9834
vn 0.0034 0.1814 -0.9834
vn 0.0094 0.0377 0.9992
vn 0.8144 0.0449 0.5786
vn 0.0000 0.0984 -0.9951
vn 0.9680 0.2508 -0.0000
vn -0.9874 0.1582 -0.0071
vn 0.9896 0.1436 0.0033
vn -0.6920 0.7211 -0.0333
vn 0.0000 0.0410 0.9992
vn 0.0128 0.0443 0.9989
vn 0.0020 0.0962 -0.9954
vn 0.0093 0.1008 -0.9949
vn 0.9680 0.2508 -0.0001
vn -0.9172 0.0473 -0.3955
vn -0.8682 0.0443 0.4942
vn -0.9121 0.1145 -0.3936
vn 0.9898 0.1428 0.0002
vn -0.9366 0.0609 -0.3450
vn -0.9304 0.0085 0.3663
vn -0.8618 0.1300 0.4903
s off
f 3/1/1 9/2/1 6/3/1
f 8/4/2 4/5/2 5/6/2
f 13/7/3 12/8/3 11/9/3
f 3/1/4 10/10/4 9/2/4
f 8/4/5 7/11/5 4/5/5
f 10/10/6 1/12/6 15/13/6
f 14/14/7 16/15/7 15/13/7
f 13/7/8 11/9/8 2/16/8
f 15/13/9 16/15/9 13/17/9
f 4/18/10 18/19/10 17/20/10
f 9/2/11 5/21/11 6/3/11
f 5/22/12 17/20/12 6/23/12
f 14/14/13 15/13/13 1/12/13
f 9/2/14 10/10/14 15/13/14
f 2/16/15 7/11/15 13/7/15
f 8/4/16 13/7/16 7/11/16
f 13/17/17 8/24/17 15/13/17
f 9/2/17 15/13/17 8/24/17
f 16/15/9 12/25/9 13/17/9
f 7/26/18 19/27/18 18/19/18
f 18/19/19 1/28/19 10/29/19
f 18/19/10 3/30/10 17/20/10
f 3/30/12 6/23/12 17/20/12
f 4/18/20 7/26/20 18/19/20
f 9/2/21 8/24/21 5/21/21
f 5/22/12 4/18/12 17/20/12
f 7/26/22 2/31/22 19/27/22
f 18/19/23 19/27/23 1/28/23
f 18/19/24 10/29/24 3/30/24
