# Blender v2.77 (sub 0) OBJ File: 'LowPoly_Level_Kit_Rocks.blend'
# www.blender.org
g Rock_Wall_01_Collider
v -0.389265 1.200000 0.935170
v 0.234204 1.771481 0.991296
v -0.121794 2.402707 0.818376
v 0.513401 0.000000 -0.416487
v -0.073998 0.005725 -0.959491
v 0.486867 1.417525 -0.479866
v 0.477084 2.325517 -0.031580
v 0.446529 2.372747 0.773904
v 0.530932 -0.000000 0.759490
v -0.911967 -0.000078 -0.584257
v -2.499435 0.000000 -0.034437
v -2.350084 0.522025 0.021754
v -0.535464 2.055921 0.520419
v -1.250672 2.055921 0.491184
v -1.569557 1.679327 0.638054
v 0.932177 0.002599 1.007817
v 2.653943 0.002599 0.984553
v 2.653943 0.415800 0.984553
v 0.932177 1.157974 1.007817
v 2.330723 1.157974 0.988920
v 2.151385 1.157974 0.627724
v 1.370858 2.279260 -0.284636
v 0.413195 2.192287 0.011264
v 1.055385 2.313349 0.642533
v 0.327237 -0.000000 0.968745
v -1.712304 1.280592 -0.043562
v -1.056962 2.068287 -0.345046
v -0.600395 2.410174 0.355095
v -0.389265 -0.000000 0.935170
v -0.871149 2.254275 -0.388699
v -0.963858 0.000000 -0.643514
v 0.072291 1.389643 -0.861995
v 2.494591 1.157974 -0.168472
v -1.964334 1.200000 0.765574
v -0.199715 2.272150 -0.661139
v 2.639755 0.790436 -0.065401
v -1.479062 -0.000000 0.888792
v -0.479009 1.200000 0.675527
v -1.494361 1.200000 0.844653
v 2.639755 0.002599 -0.065401
v 1.022251 2.061743 -0.407165
v 2.137198 1.540944 -0.422230
v 2.137198 1.157974 -0.422230
v -0.830409 1.200000 -0.360232
v 2.151385 1.688209 0.627724
v -2.556936 -0.000000 0.888247
v -2.443609 0.588594 0.798236
v 0.414620 0.003640 -0.399165
v 0.410672 1.199705 0.655007
v 2.142556 1.921358 -0.025699
v 2.137198 0.002599 -0.422230
v 1.918885 2.329382 0.582550
v -0.479009 -0.000000 0.675527
v 0.429620 0.002599 0.650988
vn -0.2172 0.1421 0.9657
vn 0.6786 -0.0201 -0.7343
vn 0.9992 -0.0082 0.0384
vn 0.6870 0.0200 0.7264
vn -0.3212 0.1917 -0.9274
vn -0.0376 0.3906 0.9198
vn 0.0135 -0.0000 0.9999
vn 0.0000 1.0000 -0.0000
vn -0.1131 0.9908 -0.0749
vn -0.0745 -0.0166 0.9971
vn -0.7887 0.5896 -0.1740
vn -0.6769 0.2188 0.7028
vn 0.0904 0.3102 0.9464
vn 0.0481 0.9972 -0.0566
vn -0.9397 -0.0000 0.3420
vn 0.6783 -0.0200 -0.7345
vn -0.7610 0.6248 -0.1748
vn 0.6225 0.3518 -0.6991
vn -0.0468 -0.0000 0.9989
vn 0.9095 0.3953 0.1288
vn 0.7163 0.0287 0.6972
vn 0.1642 0.0383 0.9857
vn 0.9999 -0.0000 -0.0135
vn 0.0345 0.9920 -0.1211
vn -0.0135 0.0000 -0.9999
vn -0.3216 0.1906 -0.9275
vn -0.3430 -0.0731 -0.9365
vn 0.1498 0.4111 0.8992
vn -0.0005 0.1513 0.9885
vn -0.3682 0.1040 -0.9239
vn -0.0134 0.0001 -0.9999
vn -0.6797 0.4004 0.6146
vn -0.0134 0.0000 -0.9999
vn -0.3157 0.1948 -0.9287
vn -0.2559 0.7522 -0.6072
vn 0.5789 -0.0000 -0.8154
vn -0.0954 0.9807 -0.1708
vn 0.0252 0.9964 0.0807
vn -0.0413 0.0855 0.9955
vn 0.0672 0.0944 0.9933
vn 0.0150 0.0025 0.9999
vn -0.9481 0.2862 -0.1387
vn 0.1342 0.3144 -0.9398
vn -0.0006 0.9999 0.0146
vn -0.0159 0.9954 0.0942
vn -0.9397 0.0000 0.3421
vn -0.5366 0.1552 -0.8295
vn 0.9997 0.0180 -0.0149
vn 0.4887 0.7970 -0.3549
vn -0.5603 -0.0000 0.8283
vn -0.7843 0.5929 -0.1826
vn -0.9710 -0.0517 0.2336
vn -0.7823 0.6055 -0.1461
vn 0.9318 0.3457 0.1108
vn 0.2086 -0.0000 0.9780
vn 0.0614 0.9970 -0.0473
vn 0.6218 0.3510 -0.7002
vn 0.4929 0.6245 -0.6058
vn 0.0458 0.1811 0.9824
vn -0.3329 0.1194 -0.9354
vn -0.3765 0.0937 -0.9217
vn 0.0157 -0.0000 0.9999
vn -0.1658 0.0341 0.9856
vn -0.9818 0.1797 -0.0612
vn 0.9994 0.0355 0.0051
vn -0.0216 0.9988 -0.0441
vn -0.5789 -0.0119 0.8153
s off
f 1//1 2//1 3//1
f 4//2 5//2 6//2
f 6//3 7//3 8//3
f 2//4 9//4 8//4
f 10//5 11//5 12//5
f 13//6 14//6 15//6
f 16//7 17//7 18//7
f 19//8 20//8 21//8
f 22//9 23//9 24//9
f 1//10 25//10 2//10
f 26//11 14//11 27//11
f 28//12 1//12 3//12
f 3//13 2//13 8//13
f 3//14 8//14 7//14
f 29//15 30//15 31//15
f 32//16 6//16 5//16
f 33//8 21//8 20//8
f 16//7 20//7 19//7
f 12//17 34//17 26//17
f 35//18 7//18 6//18
f 25//19 1//19 29//19
f 36//20 20//20 18//20
f 2//21 25//21 9//21
f 37//22 38//22 39//22
f 40//23 18//23 17//23
f 28//24 7//24 35//24
f 41//25 42//25 43//25
f 26//26 10//26 12//26
f 27//27 44//27 26//27
f 21//23 42//23 45//23
f 38//28 15//28 39//28
f 46//29 37//29 47//29
f 5//30 30//30 32//30
f 48//31 41//31 43//31
f 23//32 49//32 24//32
f 42//23 50//23 45//23
f 51//33 48//33 43//33
f 10//34 26//34 44//34
f 41//35 23//35 22//35
f 43//36 33//36 36//36
f 35//37 30//37 28//37
f 49//38 19//38 21//38
f 37//39 34//39 47//39
f 45//40 52//40 24//40
f 24//41 49//41 45//41
f 11//42 47//42 12//42
f 41//43 22//43 42//43
f 13//44 27//44 14//44
f 39//45 26//45 34//45
f 28//46 30//46 1//46
f 41//47 48//47 23//47
f 6//48 9//48 4//48
f 36//36 51//36 43//36
f 22//49 52//49 50//49
f 49//50 16//50 19//50
f 26//51 15//51 14//51
f 26//52 39//52 15//52
f 29//15 1//15 30//15
f 33//8 43//8 21//8
f 16//7 18//7 20//7
f 12//53 47//53 34//53
f 36//20 33//20 20//20
f 45//54 50//54 52//54
f 37//55 53//55 38//55
f 40//23 36//23 18//23
f 28//56 3//56 7//56
f 35//57 6//57 32//57
f 21//23 43//23 42//23
f 50//58 42//58 22//58
f 38//59 13//59 15//59
f 5//60 31//60 30//60
f 35//61 32//61 30//61
f 21//62 45//62 49//62
f 37//63 39//63 34//63
f 11//64 46//64 47//64
f 6//65 8//65 9//65
f 36//36 40//36 51//36
f 52//66 22//66 24//66
f 49//67 54//67 16//67
