# Blender v2.77 (sub 0) OBJ File: 'LowPoly_Level_Kit_Rocks.blend'
# www.blender.org
g Rock_Wall_07_Collider
v -0.793853 5.828376 -1.060418
v -3.349366 6.131909 -1.060419
v -2.421403 6.445185 -1.106660
v -1.237197 6.436602 0.736642
v -0.770585 6.469132 -0.321995
v -1.056605 5.495296 1.099582
v -0.793853 4.828846 1.099582
v -2.787060 2.183581 1.032228
v -4.793357 2.183581 -0.632596
v -3.861970 2.183581 1.595524
v -3.975846 2.514472 0.472688
v -4.902537 3.901484 0.298414
v -6.056787 3.348931 0.312385
v -3.815036 3.200304 -0.976979
v -3.973731 3.912305 -0.786371
v -5.278206 4.042260 -0.866967
v -5.893944 3.160149 -1.138527
v -5.945819 3.926621 -0.254140
v 2.681998 5.864233 -0.344988
v 3.055030 5.596132 -0.155841
v 2.284258 5.688193 -0.975208
v 2.264127 -0.002694 0.329721
v 2.264127 -0.002694 2.084074
v 2.264127 3.183013 1.840335
v 3.876927 -0.002694 2.084074
v 3.876927 2.048228 1.927158
v 3.876927 -0.002694 0.329721
v 3.876927 3.201446 0.329722
v 0.940537 3.076503 1.134954
v -0.526146 3.077306 -0.684956
v -0.241208 3.115477 1.000517
v -1.072709 -0.002694 0.996890
v -1.389272 2.682669 0.499700
v 5.061278 4.640656 -0.674375
v 4.658710 4.110140 1.504316
v 5.826843 3.941025 -1.209971
v 3.501331 -0.002694 1.504315
v 5.826847 -0.002694 1.504315
v 5.826847 2.655608 1.504315
v 5.826847 -0.002694 -1.209969
v 4.416153 4.522590 -1.210116
v 3.501331 4.384023 -0.665014
v 4.038440 4.650646 -0.314062
v 4.438129 4.640686 0.963962
v 3.501042 4.334128 1.503454
v -3.349366 5.377120 1.099582
v 0.990952 -0.002694 1.104791
v 3.055030 4.406192 1.104792
v 0.990952 4.660363 1.104792
v 2.264127 3.712010 1.328490
v 3.012455 3.326646 1.829347
v 3.841479 3.703324 1.159587
v -3.326502 6.418721 0.707601
v -0.793853 -0.002694 1.099581
v -0.793853 -0.002694 -1.060419
v -5.326558 2.183581 1.317421
v -4.793357 -0.002694 -0.632596
v -5.326558 -0.002694 1.317421
v -6.450217 2.702893 0.151390
v -4.742338 -0.002694 0.151390
v -6.450217 -0.002694 0.151390
v -1.132277 2.702893 -0.528610
v -3.010942 -0.002694 -0.528610
v -3.010942 2.702893 -0.528610
v -2.453336 2.183581 -0.188262
v -2.787060 -0.002694 1.032228
v -2.453336 -0.002694 -0.188262
v -6.450217 2.702893 0.951390
v -4.742338 2.702893 0.151390
v -1.132276 2.702893 1.631390
v -1.132277 -0.002694 -0.528610
v -4.742339 2.702893 0.951390
v -6.450217 -0.002694 0.951390
v -4.742339 -0.002694 0.951390
v -3.010942 -0.002694 1.631390
v -3.010942 2.702893 1.631390
v 2.279183 0.837306 1.824915
v 0.472364 0.837306 -0.569437
v -0.060838 0.837306 1.380580
v -6.056787 -0.036602 0.312384
v -3.975846 -0.036602 0.472688
v -3.815036 -0.036602 -0.976980
v -3.349366 -0.002694 1.099581
v 3.055029 4.834888 -0.975208
v -3.861970 -0.002694 1.595524
v 1.169452 -0.002694 -0.838915
v -1.221891 2.575154 -1.020107
v 1.169452 2.386527 -0.838915
v 0.472364 -0.002694 -0.569437
v -0.060838 -0.002694 1.380580
v 2.812385 -0.002694 -0.125103
v 2.812385 0.837306 -0.125103
v 2.279183 -0.002694 1.824915
v 0.990952 5.364005 0.467251
v 0.990952 5.255974 -0.975208
v 1.138833 3.077306 -0.562892
v 2.535065 5.380842 1.113571
v -1.426306 -0.002694 0.833555
v 0.990952 -0.002694 -0.975209
v 2.264127 3.712010 0.329722
v 3.136775 3.712010 0.329722
v -3.349366 -0.002694 -1.060420
v -5.895978 -0.036602 -1.137283
v 3.501331 4.064844 -1.209968
v 3.501331 -0.002694 -1.209969
v 0.489122 -0.002694 1.117204
v 0.986784 -0.002694 0.807799
v 3.055029 -0.002694 -0.975209
v 3.055030 -0.002694 1.104791
v -1.132276 -0.002694 1.631390
v -1.220359 -0.002694 -1.023012
vn -0.0129 -0.1085 -0.9940
vn -0.0241 0.9995 0.0201
vn 0.8520 0.3359 0.4015
vn 0.2902 0.7182 -0.6324
vn 0.9997 -0.0237 -0.0110
vn 0.0000 1.0000 0.0000
vn -0.0362 0.1007 0.9943
vn 0.9684 0.1661 0.1860
vn -0.6005 0.5865 -0.5435
vn 0.6523 0.5155 -0.5557
vn -1.0000 0.0000 0.0000
vn 0.0000 0.0763 0.9971
vn 1.0000 -0.0000 0.0000
vn 0.0000 0.0000 -1.0000
vn 0.0362 0.9989 -0.0287
vn -0.1121 0.0287 0.9933
vn -0.4331 0.1145 0.8940
vn 0.7475 0.6003 0.2843
vn 0.0000 -0.0000 1.0000
vn -0.2914 0.9221 -0.2546
vn 0.3177 0.7706 -0.5524
vn 0.1416 0.7347 0.6635
vn -0.4552 0.8901 0.0204
vn 0.0632 0.8344 0.5475
vn 0.8644 0.3165 0.3907
vn -0.9996 0.0253 0.0088
vn 0.0932 0.9916 0.0897
vn -0.9646 0.0000 -0.2638
vn 0.9646 0.0000 0.2638
vn 0.6524 0.5067 0.5636
vn -0.0768 -0.0000 0.9970
vn 0.9939 0.0000 0.1103
vn -0.9901 0.0720 -0.1205
vn -0.3241 0.6934 0.6436
vn -0.0470 0.9859 -0.1607
vn 0.1866 0.0000 -0.9824
vn -0.1866 -0.0000 0.9824
vn 0.0756 0.0000 -0.9971
vn 0.4642 -0.0000 0.8857
vn -0.0000 1.0000 0.0005
vn 0.4393 0.8386 0.3222
vn 0.0678 0.3728 -0.9254
vn -0.9940 0.0001 -0.1095
vn 0.6299 0.5690 -0.5286
vn -0.5429 0.8314 -0.1186
vn -0.0012 -0.0096 1.0000
vn 0.0113 0.9999 0.0043
vn -0.3026 0.6400 0.7063
vn -0.1356 0.9445 0.2993
vn 0.9992 0.0322 0.0232
vn 0.4710 0.3794 0.7964
vn 0.5132 0.7439 -0.4280
vn -0.9939 0.0006 -0.1103
vn -0.3141 0.9467 -0.0709
vn 0.0768 -0.0004 -0.9970
vn 0.0061 1.0000 0.0053
vn -0.0768 0.0055 0.9970
vn -0.4164 0.1178 0.9015
vn 0.9932 -0.0023 0.1160
vn 0.9934 0.0028 0.1142
vn -0.0009 -0.0007 1.0000
vn -0.0002 0.0002 1.0000
vn -0.3965 0.7922 -0.4640
vn -0.3230 0.9349 -0.1475
vn -0.2627 0.9607 0.0896
vn -0.0184 0.3566 0.9341
vn -0.0000 -0.0003 -1.0000
vn -0.1220 0.6902 0.7133
vn -0.0476 0.9897 0.1349
vn 0.0836 0.2394 -0.9673
vn -0.0087 0.9999 0.0102
vn 0.8087 0.4278 0.4038
vn 0.0768 0.0012 -0.9970
vn 0.1027 0.4498 -0.8872
vn -0.9939 -0.0005 -0.1103
vn -0.3681 0.9289 0.0412
vn -0.9938 0.0000 -0.1115
vn 0.5262 -0.0820 0.8464
vn -1.0000 -0.0001 -0.0001
vn -0.3163 0.9464 -0.0648
vn 0.0775 0.0000 -0.9970
vn 0.0693 0.2724 -0.9597
vn -1.0000 0.0002 -0.0001
vn -0.0160 0.3525 0.9357
s off
f 1//1 2//1 3//1
f 3//2 4//2 5//2
f 5//3 6//3 7//3
f 3//4 5//4 1//4
f 7//5 1//5 5//5
f 8//6 9//6 10//6
f 11//7 12//7 13//7
f 14//8 15//8 11//8
f 16//9 17//9 18//9
f 19//10 20//10 21//10
f 22//11 23//11 24//11
f 23//12 25//12 26//12
f 26//13 25//13 27//13
f 28//14 27//14 22//14
f 29//15 30//15 31//15
f 31//16 32//16 29//16
f 33//17 32//17 31//17
f 34//18 35//18 36//18
f 37//19 38//19 39//19
f 39//13 40//13 36//13
f 41//20 42//20 43//20
f 41//21 34//21 36//21
f 35//22 44//22 45//22
f 6//19 46//19 7//19
f 43//23 42//23 45//23
f 47//19 48//19 49//19
f 50//24 51//24 52//24
f 5//25 4//25 6//25
f 53//26 2//26 46//26
f 16//27 12//27 15//27
f 7//13 54//13 55//13
f 55//13 1//13 7//13
f 56//28 57//28 58//28
f 59//14 60//14 61//14
f 62//14 63//14 64//14
f 65//29 66//29 67//29
f 68//6 69//6 59//6
f 70//13 71//13 62//13
f 72//19 73//19 74//19
f 69//13 74//13 60//13
f 56//6 10//6 9//6
f 8//6 65//6 9//6
f 64//11 75//11 76//11
f 77//6 78//6 79//6
f 11//30 15//30 12//30
f 13//31 80//31 11//31
f 81//31 11//31 80//31
f 11//32 81//32 82//32
f 82//32 14//32 11//32
f 18//33 17//33 13//33
f 13//34 12//34 18//34
f 7//19 83//19 54//19
f 20//13 48//13 84//13
f 34//35 41//35 43//35
f 76//6 62//6 64//6
f 9//36 67//36 57//36
f 68//11 61//11 73//11
f 10//37 58//37 85//37
f 86//38 87//38 88//38
f 10//39 66//39 8//39
f 79//28 89//28 90//28
f 78//36 91//36 89//36
f 92//29 93//29 91//29
f 77//37 90//37 93//37
f 49//11 94//11 95//11
f 96//40 30//40 29//40
f 20//41 19//41 97//41
f 88//42 30//42 96//42
f 21//14 84//14 95//14
f 87//43 98//43 33//43
f 84//44 21//44 20//44
f 33//45 30//45 87//45
f 97//46 49//46 48//46
f 43//47 44//47 34//47
f 49//48 97//48 94//48
f 97//49 19//49 94//49
f 84//14 99//14 95//14
f 24//11 50//11 100//11
f 100//11 22//11 24//11
f 26//12 51//12 24//12
f 24//12 23//12 26//12
f 27//13 28//13 26//13
f 52//50 26//50 28//50
f 26//51 52//51 51//51
f 52//52 28//52 101//52
f 22//14 100//14 28//14
f 101//14 28//14 100//14
f 46//11 102//11 83//11
f 80//53 17//53 103//53
f 37//11 104//11 105//11
f 19//54 95//54 94//54
f 17//55 82//55 103//55
f 101//56 50//56 52//56
f 106//57 29//57 32//57
f 33//58 98//58 32//58
f 99//11 49//11 95//11
f 29//59 88//59 96//59
f 107//60 88//60 29//60
f 34//18 44//18 35//18
f 35//18 39//18 36//18
f 39//61 35//61 45//61
f 45//62 37//62 39//62
f 39//13 38//13 40//13
f 108//13 48//13 109//13
f 105//14 36//14 40//14
f 41//63 104//63 42//63
f 2//64 53//64 3//64
f 102//14 1//14 55//14
f 43//65 45//65 44//65
f 4//66 46//66 6//66
f 76//19 110//19 70//19
f 36//67 104//67 41//67
f 47//19 109//19 48//19
f 50//68 24//68 51//68
f 16//69 18//69 12//69
f 56//28 9//28 57//28
f 59//14 69//14 60//14
f 62//14 71//14 63//14
f 65//29 8//29 66//29
f 68//6 72//6 69//6
f 70//13 110//13 71//13
f 72//19 68//19 73//19
f 69//13 72//13 74//13
f 64//11 63//11 75//11
f 77//6 92//6 78//6
f 17//70 16//70 15//70
f 53//71 4//71 3//71
f 7//19 46//19 83//19
f 20//72 97//72 48//72
f 76//6 70//6 62//6
f 9//36 65//36 67//36
f 68//11 59//11 61//11
f 10//37 56//37 58//37
f 86//73 111//73 87//73
f 10//39 85//39 66//39
f 79//28 78//28 89//28
f 78//36 92//36 91//36
f 92//29 77//29 93//29
f 77//37 79//37 90//37
f 88//74 87//74 30//74
f 87//75 111//75 98//75
f 33//76 31//76 30//76
f 84//14 108//14 99//14
f 46//11 2//11 102//11
f 80//77 13//77 17//77
f 106//78 107//78 29//78
f 37//79 45//79 104//79
f 19//80 21//80 95//80
f 17//81 14//81 82//81
f 101//6 100//6 50//6
f 99//11 47//11 49//11
f 107//32 86//32 88//32
f 108//13 84//13 48//13
f 17//82 15//82 14//82
f 105//14 104//14 36//14
f 102//14 2//14 1//14
f 42//83 104//83 45//83
f 4//84 53//84 46//84
f 76//19 75//19 110//19
