# Blender v2.77 (sub 0) OBJ File: 'LowPoly_Level_Kit_Rocks.blend'
# www.blender.org
g Rock_Wall_02_Collider
v 0.024278 0.000000 -0.704064
v -0.680601 0.006870 -1.355668
v -0.007562 1.701030 -0.780118
v 0.045315 -0.000000 0.707109
v -0.041761 2.396378 0.757736
v -0.421559 2.563653 1.003894
v -0.053861 2.395833 -0.526227
v -1.492491 -0.000078 -0.812727
v -3.079959 0.000000 -0.262907
v -2.367175 1.247687 -0.252300
v 0.351654 1.191834 0.779348
v 1.947323 1.150776 0.757758
v 1.570862 1.191834 0.399254
v 0.659120 2.259788 -0.640177
v -0.166366 2.225945 -0.214712
v 0.474862 2.347209 0.414064
v 2.378514 1.440000 -0.795170
v 1.630352 2.125778 -0.862522
v 2.059479 2.884441 -0.654621
v 1.295316 -0.000000 0.826819
v 1.998755 0.005880 1.476907
v 1.327155 1.701030 0.902873
v 1.338895 2.790621 0.364930
v 1.375561 2.847296 -0.601651
v 2.756958 -0.000000 1.212470
v 2.867840 1.888662 0.917772
v 1.274278 0.000000 -0.584354
v 2.746232 -0.000000 0.215127
v 2.874837 2.076618 0.568465
v -1.058921 1.440000 0.917925
v -0.199118 -0.000000 0.958215
v -0.550949 1.989420 -1.197554
v -1.058921 -0.000000 0.917925
v -0.957796 2.769606 -0.471700
v -1.661727 1.973580 -0.739425
v -1.310143 2.484835 0.250107
v -1.115987 2.055921 0.291950
v -1.637486 2.068286 -0.573515
v -2.021796 1.936480 0.343248
v -1.410932 1.200000 -0.588702
v 2.578502 2.791363 -0.210002
v -2.059585 -0.000000 0.660323
v -1.059532 1.200000 0.447058
v -2.074884 1.200000 0.616183
v -1.748433 0.000000 -0.976496
v -2.544857 1.200000 0.537104
v 2.083215 2.499435 1.172349
v 1.556675 0.000000 -0.650700
v -0.203048 0.036318 -0.632768
v 1.559213 1.644073 -0.647305
v -0.169193 1.233784 0.426460
v 1.433226 2.304258 0.394273
v -3.179156 0.151567 0.617437
v 1.933809 2.781695 0.897594
v 1.518711 0.000000 -0.835460
v 1.824647 1.667571 1.361428
v 2.378514 0.000000 -0.795170
v 1.559949 -0.000000 0.763022
v 0.192982 -0.000000 0.730889
v -1.059532 -0.000000 0.447058
vn 0.6786 -0.0201 -0.7343
vn 0.5445 0.0021 0.8387
vn 0.9975 0.0699 -0.0094
vn -0.3212 0.1914 -0.9275
vn 0.0268 0.9959 0.0859
vn -0.0912 0.9910 -0.0981
vn 0.2170 0.1419 -0.9658
vn -0.6785 -0.0201 0.7343
vn -0.9992 -0.0082 -0.0384
vn 0.3275 0.1269 0.9363
vn -0.6870 0.0200 -0.7264
vn 0.9397 0.0000 -0.3420
vn -0.0894 -0.0255 0.9957
vn 0.9981 -0.0603 -0.0107
vn -0.0498 0.9972 0.0566
vn 0.6165 0.0224 -0.7870
vn 0.9997 0.0180 -0.0149
vn -0.0468 -0.0000 0.9989
vn -0.7309 0.6766 -0.0899
vn -0.1252 0.9881 0.0896
vn 0.7157 0.0497 0.6967
vn -0.3342 -0.0708 -0.9399
vn -0.6318 0.3038 0.7131
vn 0.6573 0.2154 -0.7222
vn 0.1642 0.0383 0.9857
vn -0.9397 0.0002 0.3420
vn -0.0098 0.9983 0.0581
vn 0.6423 0.6695 0.3731
vn -0.9407 -0.0094 0.3391
vn -0.0101 0.0021 -0.9999
vn -0.4568 0.1742 -0.8724
vn -0.6792 0.3997 0.6156
vn -0.3168 0.1948 -0.9283
vn -0.7702 0.5918 -0.2378
vn 0.0253 0.9964 0.0811
vn 0.0206 -0.0008 0.9998
vn -0.8534 0.4891 -0.1804
vn -0.3258 0.5473 -0.7709
vn 0.4008 0.9162 -0.0042
vn -0.6214 0.3523 0.6998
vn 0.5114 0.7524 -0.4151
vn 0.0745 -0.0166 -0.9971
vn -0.0901 0.3103 -0.9463
vn -0.6783 -0.0200 0.7345
vn -0.6214 0.3522 0.6999
vn -0.9997 0.0180 0.0149
vn 0.0468 0.0000 -0.9989
vn -0.0257 0.0918 0.9954
vn -0.7163 0.0287 -0.6972
vn -0.2790 0.9320 0.2315
vn -0.0235 -0.0375 0.9990
vn 0.1136 0.9907 0.0748
vn 0.1549 0.3335 0.9299
vn 0.6362 0.6735 0.3762
vn 0.3707 0.1030 0.9230
vn -0.3806 0.0982 -0.9195
vn -0.5582 0.0406 0.8287
vn 0.9981 -0.0597 -0.0122
vn -0.0412 0.9972 0.0627
vn 0.9993 0.0362 0.0059
vn 0.9379 0.0113 -0.3467
vn 0.2086 -0.0000 0.9780
vn -0.9398 -0.0000 0.3418
vn -0.0081 -0.0002 -1.0000
vn 0.6753 0.2924 -0.6771
vn 0.6369 0.6838 0.3561
vn 0.3727 0.0940 0.9232
vn 0.2624 0.7271 -0.6344
vn 0.3816 0.9243 -0.0097
vn 0.0431 0.9962 -0.0751
vn 0.0158 0.0064 0.9999
vn -0.9280 0.1864 0.3226
vn -0.9994 0.0355 -0.0051
vn -0.1658 0.0341 0.9856
vn 0.0135 0.0000 0.9999
vn 0.0319 0.1803 0.9831
vn -0.3326 0.1269 -0.9345
vn -0.8499 0.5018 -0.1610
s off
f 1//1 2//1 3//1
f 4//2 5//2 6//2
f 3//3 7//3 5//3
f 8//4 9//4 10//4
f 11//5 12//5 13//5
f 14//6 15//6 16//6
f 17//7 18//7 19//7
f 20//8 21//8 22//8
f 22//9 23//9 24//9
f 21//10 25//10 26//10
f 18//11 27//11 24//11
f 28//12 17//12 29//12
f 30//13 31//13 6//13
f 28//14 26//14 25//14
f 23//15 19//15 24//15
f 32//16 3//16 2//16
f 3//17 4//17 1//17
f 31//18 30//18 33//18
f 34//19 35//19 36//19
f 37//20 38//20 39//20
f 31//21 4//21 6//21
f 38//22 40//22 10//22
f 36//23 30//23 6//23
f 41//24 17//24 19//24
f 42//25 43//25 44//25
f 33//26 35//26 45//26
f 44//27 10//27 46//27
f 29//28 47//28 26//28
f 36//29 35//29 30//29
f 48//30 49//30 50//30
f 49//31 15//31 14//31
f 15//32 51//32 16//32
f 8//33 10//33 40//33
f 10//34 39//34 38//34
f 51//35 11//35 13//35
f 16//36 51//36 52//36
f 9//37 53//37 10//37
f 34//38 32//38 35//38
f 7//39 6//39 5//39
f 22//40 47//40 54//40
f 14//41 52//41 50//41
f 17//42 55//42 18//42
f 19//43 18//43 24//43
f 56//44 22//44 21//44
f 54//45 23//45 22//45
f 22//46 27//46 20//46
f 55//47 17//47 57//47
f 42//48 46//48 53//48
f 18//49 55//49 27//49
f 34//50 36//50 6//50
f 58//51 11//51 59//51
f 54//52 41//52 19//52
f 43//53 39//53 44//53
f 41//54 54//54 29//54
f 56//55 21//55 26//55
f 2//56 35//56 32//56
f 51//57 59//57 11//57
f 28//12 57//12 17//12
f 28//58 29//58 26//58
f 23//59 54//59 19//59
f 3//60 5//60 4//60
f 41//61 29//61 17//61
f 42//62 60//62 43//62
f 33//63 30//63 35//63
f 49//64 14//64 50//64
f 7//65 3//65 32//65
f 29//66 54//66 47//66
f 26//67 47//67 56//67
f 34//68 7//68 32//68
f 7//69 34//69 6//69
f 22//45 56//45 47//45
f 52//70 14//70 16//70
f 13//71 52//71 51//71
f 10//72 44//72 39//72
f 22//73 24//73 27//73
f 42//74 44//74 46//74
f 58//75 12//75 11//75
f 43//76 37//76 39//76
f 2//77 45//77 35//77
f 10//78 53//78 46//78
