# Blender v2.77 (sub 0) OBJ File: 'LowPoly_Level_Kit_Rocks.blend'
# www.blender.org
g Rock_Wall_04_Collider
v -3.072342 1.743483 -1.057991
v -3.352421 -0.000000 0.944970
v -3.267560 1.839097 0.964208
v -1.366640 -0.000000 1.183032
v -3.114358 0.000000 -1.040811
v -1.128577 0.000000 -0.802749
v -1.137313 2.008604 -0.764821
v -1.962210 -0.000000 1.637325
v -1.983862 1.859580 1.624549
v -2.540066 -0.000000 0.184681
v -0.909146 2.200000 -1.612913
v -0.040383 0.000000 -1.612913
v -2.444427 -0.022734 -1.550981
v -0.040383 2.200000 1.637325
v -0.040383 2.200000 -1.612913
v -0.040383 -0.000000 1.637325
v -2.015264 2.200000 0.582569
v -2.015264 2.200000 -0.722060
v 3.020909 2.045320 0.378013
v 2.527519 0.000000 -1.560174
v 2.527519 2.197936 -1.560174
v 0.589333 0.000000 -1.066784
v 3.020909 -0.000000 0.378013
v 1.082722 -0.000000 0.871402
v 1.082722 1.799890 0.871402
v 0.589333 2.388130 -1.066784
v 2.424637 2.955713 0.448594
v 0.945002 2.884698 0.277410
v 2.143603 2.795533 -1.426977
v 1.382011 1.000000 -0.834127
v 1.382011 -0.000000 1.165873
v 1.382011 1.000000 1.165873
v 3.382011 1.000000 -0.834127
v 1.382011 0.000000 -0.834127
v 3.382011 1.000000 1.165873
v 3.382011 0.000000 -0.834127
v 3.382011 -0.000000 1.165873
v 0.519152 0.000000 -1.291595
v -1.992255 0.000000 -0.618665
v -1.992255 1.391238 -0.618665
v 1.036791 -0.000000 0.640257
v -1.474617 -0.000000 1.313187
v 1.036791 2.235127 0.640257
v 0.519152 2.377677 -1.291595
v 0.153870 3.712764 0.866651
v 0.739117 3.476362 -0.686005
v -0.986146 3.689532 0.157123
v -0.835259 3.391868 -0.808994
v -1.482001 3.343325 1.305816
v -1.366640 1.671691 1.183032
vn -0.9941 0.0469 -0.0982
vn 0.0000 -1.0000 -0.0000
vn -0.1190 -0.0049 0.9929
vn 0.1516 -0.0134 -0.9884
vn -0.9291 -0.0083 0.3696
vn -0.0257 -0.0101 -0.9996
vn 1.0000 -0.0000 0.0000
vn 0.0000 0.0069 1.0000
vn 0.0098 -0.9999 0.0136
vn 0.0000 1.0000 0.0000
vn -0.9727 0.2320 0.0000
vn 0.9691 0.0000 -0.2467
vn -0.2467 0.0000 -0.9691
vn 0.2467 -0.0000 0.9691
vn -0.9691 -0.0000 0.2467
vn -0.1237 0.4644 0.8769
vn 0.8184 0.5491 -0.1695
vn -1.0000 0.0000 0.0000
vn 0.0000 0.0000 -1.0000
vn 0.0000 -0.0000 1.0000
vn -0.2588 0.0000 -0.9659
vn 0.9659 0.0000 -0.2588
vn 0.8478 0.4686 0.2482
vn -0.8799 0.3977 -0.2600
vn -0.0400 0.9855 -0.1651
vn -0.9659 0.0000 0.2588
vn 0.2566 0.0027 0.9665
vn 0.0660 0.9819 0.1776
vn -0.9926 0.0227 -0.1190
vn -0.1144 -0.0000 0.9934
vn 0.1190 0.0193 -0.9927
vn -0.1267 0.9902 -0.0591
vn 0.9931 -0.0000 0.1169
vn 0.9929 0.0021 0.1190
vn -0.0066 -0.0000 1.0000
vn -0.5800 0.3806 -0.7202
vn -0.1660 0.9359 0.3108
vn -0.9718 0.2139 0.0992
vn -0.9762 0.2096 -0.0565
vn -0.3007 0.9177 -0.2595
vn -0.2406 0.0614 -0.9687
vn 0.2364 0.0798 0.9684
vn -0.0386 0.9961 -0.0793
vn -0.9679 0.0144 0.2508
vn 0.8132 0.5587 -0.1630
vn -0.2851 0.0740 -0.9556
vn -0.1577 0.9622 0.2219
vn 0.9639 -0.0486 -0.2619
vn 0.0431 0.4756 -0.8786
vn -0.8485 0.4670 -0.2488
vn 0.1486 0.9514 -0.2699
vn -0.9662 -0.0016 0.2578
vn 0.2580 0.0061 0.9661
vn 0.2588 -0.0000 0.9659
s off
f 1//1 2//1 3//1
f 4//2 5//2 6//2
f 3//3 2//3 4//3
f 7//4 5//4 1//4
f 8//5 9//5 10//5
f 11//6 12//6 13//6
f 14//7 12//7 15//7
f 9//8 8//8 16//8
f 13//9 12//9 10//9
f 15//10 17//10 14//10
f 18//11 10//11 17//11
f 19//12 20//12 21//12
f 22//2 23//2 24//2
f 21//13 20//13 22//13
f 25//14 23//14 19//14
f 26//15 22//15 25//15
f 27//16 28//16 25//16
f 29//17 27//17 19//17
f 30//18 31//18 32//18
f 33//19 34//19 30//19
f 35//7 36//7 33//7
f 32//20 37//20 35//20
f 34//2 37//2 31//2
f 33//10 32//10 35//10
f 38//21 39//21 40//21
f 39//2 41//2 42//2
f 43//22 38//22 44//22
f 45//23 43//23 46//23
f 47//24 48//24 49//24
f 46//25 48//25 45//25
f 40//26 39//26 42//26
f 49//27 42//27 43//27
f 7//28 3//28 50//28
f 1//29 5//29 2//29
f 4//2 2//2 5//2
f 4//30 50//30 3//30
f 7//31 6//31 5//31
f 3//32 7//32 1//32
f 7//33 50//33 4//33
f 4//34 6//34 7//34
f 11//19 15//19 12//19
f 14//7 16//7 12//7
f 16//35 14//35 9//35
f 18//36 11//36 13//36
f 8//2 10//2 16//2
f 12//2 16//2 10//2
f 9//37 14//37 17//37
f 15//10 11//10 17//10
f 18//10 17//10 11//10
f 9//38 17//38 10//38
f 18//39 13//39 10//39
f 28//40 29//40 26//40
f 19//12 23//12 20//12
f 22//2 20//2 23//2
f 22//13 26//13 21//13
f 29//41 21//41 26//41
f 19//42 27//42 25//42
f 25//14 24//14 23//14
f 29//43 28//43 27//43
f 28//44 26//44 25//44
f 22//15 24//15 25//15
f 19//45 21//45 29//45
f 30//18 34//18 31//18
f 33//19 36//19 34//19
f 35//7 37//7 36//7
f 32//20 31//20 37//20
f 34//2 36//2 37//2
f 33//10 30//10 32//10
f 40//46 48//46 44//46
f 44//21 38//21 40//21
f 39//2 38//2 41//2
f 49//47 45//47 47//47
f 46//48 43//48 44//48
f 41//22 38//22 43//22
f 48//49 46//49 44//49
f 40//50 49//50 48//50
f 47//51 45//51 48//51
f 42//52 49//52 40//52
f 43//53 45//53 49//53
f 42//54 41//54 43//54
