# Blender v2.77 (sub 0) OBJ File: 'LowPoly_Level_Kit_Rocks.blend'
# www.blender.org
g Concrete_Block_03
v -0.280817 0.000000 -0.076000
v -0.280817 0.000000 0.076000
v -0.151217 0.000000 -0.076000
v -0.151217 0.000000 0.076000
v -0.151217 0.240000 -0.076000
v -0.151217 0.240000 0.076000
v -0.280817 0.240000 -0.076000
v -0.280817 0.240000 0.076000
v 0.064783 0.240000 -0.076000
v 0.064783 0.240000 0.076000
v -0.064817 0.240000 -0.076000
v -0.064817 0.240000 0.076000
v -0.064817 0.000000 -0.076000
v -0.064817 0.000000 0.076000
v 0.064783 0.000000 -0.076000
v 0.064783 0.000000 0.076000
v -0.324017 0.000000 0.120000
v -0.324017 0.240000 0.120000
v -0.324017 0.240000 -0.120000
v -0.324017 0.000000 -0.120000
v 0.107982 0.240000 -0.120000
v 0.107982 0.000000 -0.120000
v 0.107982 0.240000 0.120000
v 0.107982 0.000000 0.120000
v -0.108018 0.240000 -0.120000
v -0.108018 0.240000 0.120000
v -0.108018 0.000000 0.120000
v -0.108018 0.000000 -0.120000
v 0.280847 0.240000 -0.076000
v 0.280847 0.240000 0.076000
v 0.151247 0.240000 -0.076000
v 0.151247 0.240000 0.076000
v 0.151247 0.000000 -0.076000
v 0.151247 0.000000 0.076000
v 0.280847 0.000000 -0.076000
v 0.280847 0.000000 0.076000
v 0.324046 0.240000 -0.120000
v 0.324046 0.000000 -0.120000
v 0.324046 0.240000 0.120000
v 0.324046 0.000000 0.120000
vt 0.7076 0.6731
vt 0.7248 0.6769
vt 0.7114 0.6769
vt 0.6865 0.6731
vt 0.7037 0.6694
vt 0.7076 0.6731
vt 0.6654 0.6544
vt 0.6654 0.6731
vt 0.6904 0.6881
vt 0.6865 0.6918
vt 0.7114 0.6694
vt 0.7076 0.6544
vt 0.7114 0.6582
vt 0.7286 0.6544
vt 0.7248 0.6694
vt 0.7248 0.6582
vt 0.7076 0.6544
vt 0.7037 0.6582
vt 0.6654 0.6918
vt 0.6444 0.6731
vt 0.6654 0.6731
vt 0.7114 0.6881
vt 0.7076 0.6918
vt 0.7037 0.6881
vt 0.7076 0.6918
vt 0.6904 0.6582
vt 0.7286 0.6565
vt 0.7420 0.6773
vt 0.7286 0.6773
vt 0.7056 0.7126
vt 0.7170 0.7334
vt 0.7056 0.7334
vt 0.7076 0.6918
vt 0.6942 0.7126
vt 0.6942 0.6918
vt 0.7284 0.7126
vt 0.7170 0.7334
vt 0.7170 0.7126
vt 0.6691 0.7126
vt 0.6805 0.7334
vt 0.6691 0.7334
vt 0.7209 0.7126
vt 0.7076 0.6918
vt 0.7209 0.6918
vt 0.6805 0.7334
vt 0.6918 0.7126
vt 0.6918 0.7334
vt 0.7420 0.6357
vt 0.7286 0.6565
vt 0.7286 0.6357
vt 0.6904 0.6694
vt 0.6865 0.6544
vt 0.7286 0.6731
vt 0.7248 0.6881
vt 0.6444 0.6544
vt 0.6654 0.6544
vt 0.6654 0.6918
vt 0.7037 0.6769
vt 0.7286 0.6918
vt 0.6444 0.6918
vt 0.6654 0.7126
vt 0.6444 0.7126
vt 0.6904 0.6507
vt 0.7037 0.6507
vt 0.6654 0.6357
vt 0.7114 0.6507
vt 0.7076 0.6357
vt 0.7114 0.6395
vt 0.7286 0.6357
vt 0.7248 0.6507
vt 0.7248 0.6395
vt 0.7076 0.6357
vt 0.7037 0.6395
vt 0.6904 0.6395
vt 0.7056 0.7334
vt 0.6942 0.7126
vt 0.7056 0.7126
vt 0.6444 0.7126
vt 0.6577 0.7334
vt 0.6444 0.7334
vt 0.6577 0.7334
vt 0.6691 0.7126
vt 0.6691 0.7334
vt 0.7343 0.6918
vt 0.7209 0.7126
vt 0.7209 0.6918
vt 0.6865 0.6357
vt 0.6444 0.6357
vt 0.6654 0.6357
vt 0.6654 0.7126
vt 0.6865 0.6918
vt 0.6865 0.7126
vt 0.6904 0.6769
vt 0.6444 0.6918
vt 0.7420 0.6565
vt 0.7170 0.7126
vt 0.7076 0.7126
vt 0.7284 0.7334
vt 0.6805 0.7126
vt 0.7076 0.7126
vt 0.6805 0.7126
vt 0.7420 0.6565
vt 0.6654 0.6918
vt 0.6942 0.7334
vt 0.6577 0.7126
vt 0.6577 0.7126
vt 0.7343 0.7126
vt 0.6654 0.6918
vn 0.0000 1.0000 0.0000
vn 0.0000 -1.0000 0.0000
vn 0.0000 0.0000 -1.0000
vn 0.0000 0.0000 1.0000
vn -1.0000 0.0000 0.0000
vn 1.0000 0.0000 0.0000
s off
f 26/1/1 5/2/1 6/3/1
f 28/4/2 14/5/2 27/6/2
f 21/7/3 28/4/3 25/8/3
f 28/4/2 1/9/2 20/10/2
f 12/11/1 23/12/1 10/13/1
f 21/14/1 11/15/1 9/16/1
f 24/17/2 14/5/2 16/18/2
f 18/19/4 27/20/4 26/21/4
f 26/1/1 8/22/1 18/23/1
f 2/24/2 27/6/2 17/25/2
f 15/26/2 24/17/2 16/18/2
f 6/27/5 3/28/5 4/29/5
f 4/30/3 8/31/3 6/32/3
f 1/33/6 8/34/6 2/35/6
f 7/36/4 3/37/4 5/38/4
f 12/39/3 16/40/3 14/41/3
f 14/42/6 11/43/6 12/44/6
f 15/45/4 11/46/4 13/47/4
f 9/48/5 16/49/5 10/50/5
f 13/51/2 22/52/2 15/26/2
f 25/53/1 7/54/1 5/2/1
f 26/21/4 24/55/4 23/56/4
f 25/8/3 20/10/3 19/57/3
f 4/58/2 28/4/2 27/6/2
f 11/15/1 26/1/1 12/11/1
f 23/12/1 9/16/1 10/13/1
f 8/22/1 19/59/1 18/23/1
f 17/25/2 1/9/2 2/24/2
f 19/60/5 17/61/5 18/62/5
f 24/17/2 33/63/2 34/64/2
f 37/65/3 22/52/3 21/7/3
f 32/66/1 39/67/1 30/68/1
f 37/69/1 31/70/1 29/71/1
f 40/72/2 34/64/2 36/73/2
f 35/74/2 40/72/2 36/73/2
f 32/75/3 36/76/3 34/77/3
f 34/78/6 31/79/6 32/80/6
f 35/81/4 31/82/4 33/83/4
f 29/84/5 36/85/5 30/86/5
f 33/63/2 38/87/2 35/74/2
f 23/56/4 40/88/4 39/89/4
f 31/70/1 23/12/1 32/66/1
f 39/90/6 38/91/6 37/92/6
f 39/67/1 29/71/1 30/68/1
f 26/1/1 25/53/1 5/2/1
f 28/4/2 13/51/2 14/5/2
f 21/7/3 22/52/3 28/4/3
f 28/4/2 3/93/2 1/9/2
f 12/11/1 26/1/1 23/12/1
f 21/14/1 25/53/1 11/15/1
f 24/17/2 27/6/2 14/5/2
f 18/19/4 17/94/4 27/20/4
f 26/1/1 6/3/1 8/22/1
f 2/24/2 4/58/2 27/6/2
f 15/26/2 22/52/2 24/17/2
f 6/27/5 5/95/5 3/28/5
f 4/30/3 2/96/3 8/31/3
f 1/33/6 7/97/6 8/34/6
f 7/36/4 1/98/4 3/37/4
f 12/39/3 10/99/3 16/40/3
f 14/42/6 13/100/6 11/43/6
f 15/45/4 9/101/4 11/46/4
f 9/48/5 15/102/5 16/49/5
f 13/51/2 28/4/2 22/52/2
f 25/53/1 19/59/1 7/54/1
f 26/21/4 27/20/4 24/55/4
f 25/8/3 28/4/3 20/10/3
f 4/58/2 3/93/2 28/4/2
f 11/15/1 25/53/1 26/1/1
f 23/12/1 21/14/1 9/16/1
f 8/22/1 7/54/1 19/59/1
f 17/25/2 20/10/2 1/9/2
f 19/60/5 20/103/5 17/61/5
f 24/17/2 22/52/2 33/63/2
f 37/65/3 38/87/3 22/52/3
f 32/66/1 23/12/1 39/67/1
f 37/69/1 21/14/1 31/70/1
f 40/72/2 24/17/2 34/64/2
f 35/74/2 38/87/2 40/72/2
f 32/75/3 30/104/3 36/76/3
f 34/78/6 33/105/6 31/79/6
f 35/81/4 29/106/4 31/82/4
f 29/84/5 35/107/5 36/85/5
f 33/63/2 22/52/2 38/87/2
f 23/56/4 24/55/4 40/88/4
f 31/70/1 21/14/1 23/12/1
f 39/90/6 40/108/6 38/91/6
f 39/67/1 37/69/1 29/71/1
