# Blender v2.77 (sub 0) OBJ File: 'LowPoly_Level_Kit_Rocks.blend'
# www.blender.org
g Concrete_Block_02
v -0.172800 0.000000 -0.076000
v -0.172800 0.000000 0.076000
v -0.043200 0.000000 -0.076000
v -0.043200 0.000000 0.076000
v -0.043200 0.240000 -0.076000
v -0.043200 0.240000 0.076000
v -0.172800 0.240000 -0.076000
v -0.172800 0.240000 0.076000
v 0.172800 0.240000 -0.076000
v 0.172800 0.240000 0.076000
v 0.043200 0.240000 -0.076000
v 0.043200 0.240000 0.076000
v 0.043200 0.000000 -0.076000
v 0.043200 0.000000 0.076000
v 0.172800 0.000000 -0.076000
v 0.172800 0.000000 0.076000
v -0.000001 0.240000 -0.120000
v -0.000001 0.240000 0.120000
v -0.000001 0.000000 0.120000
v -0.000001 0.000000 -0.120000
v 0.215999 0.240000 0.076000
v 0.215999 0.240000 -0.076000
v -0.216000 0.240000 -0.076000
v -0.216000 0.240000 0.076000
v 0.215999 0.000000 0.076000
v 0.215999 0.000000 -0.076000
v -0.216000 0.000000 -0.076000
v -0.216000 0.000000 0.076000
v -0.250001 0.000000 0.120000
v -0.250001 0.240000 0.120000
v -0.250001 0.240000 -0.120000
v -0.250001 0.000000 -0.120000
v -0.250001 0.240000 -0.076000
v -0.250001 0.000000 0.076000
v -0.250001 0.240000 0.076000
v -0.250001 0.000000 -0.076000
v 0.245999 0.240000 0.076000
v 0.245999 0.240000 0.120000
v 0.245999 0.240000 -0.120000
v 0.245999 0.000000 -0.120000
v 0.245999 0.000000 0.120000
v 0.245999 0.000000 -0.076000
v 0.245999 0.240000 -0.076000
v 0.245999 0.000000 0.076000
vt 0.3119 0.6613
vt 0.2941 0.6652
vt 0.2901 0.6613
vt 0.2682 0.6613
vt 0.2861 0.6575
vt 0.2901 0.6613
vt 0.3119 0.6393
vt 0.3337 0.6613
vt 0.2722 0.6768
vt 0.2682 0.6837
vt 0.2941 0.6459
vt 0.2941 0.6575
vt 0.3079 0.6459
vt 0.2861 0.6459
vt 0.3337 0.6393
vt 0.3555 0.6617
vt 0.3337 0.6617
vt 0.2941 0.6768
vt 0.2901 0.6837
vt 0.2901 0.6393
vt 0.2941 0.6420
vt 0.2861 0.6768
vt 0.2901 0.6837
vt 0.2861 0.6806
vt 0.2941 0.6806
vt 0.2722 0.6420
vt 0.2861 0.6420
vt 0.3336 0.7051
vt 0.3363 0.7266
vt 0.3336 0.7266
vt 0.3305 0.7051
vt 0.3336 0.7266
vt 0.3305 0.7266
vt 0.3235 0.6837
vt 0.3373 0.7051
vt 0.3235 0.7051
vt 0.2841 0.7051
vt 0.2959 0.7266
vt 0.2841 0.7266
vt 0.3511 0.6837
vt 0.3373 0.7051
vt 0.3373 0.6837
vt 0.2800 0.7051
vt 0.2682 0.7266
vt 0.2682 0.7051
vt 0.3194 0.7266
vt 0.3077 0.7051
vt 0.3194 0.7051
vt 0.3097 0.7051
vt 0.2959 0.6837
vt 0.3097 0.6837
vt 0.2959 0.7266
vt 0.3077 0.7051
vt 0.3077 0.7266
vt 0.3235 0.6837
vt 0.3097 0.7051
vt 0.3097 0.6837
vt 0.2722 0.6459
vt 0.2682 0.6393
vt 0.3079 0.6768
vt 0.3079 0.6652
vt 0.3555 0.6837
vt 0.3337 0.6837
vt 0.3337 0.6837
vt 0.3119 0.6837
vt 0.2722 0.6652
vt 0.2861 0.6652
vt 0.3079 0.6575
vt 0.2821 0.6837
vt 0.2682 0.7051
vt 0.2682 0.6837
vt 0.3079 0.6420
vt 0.3079 0.6806
vt 0.2901 0.6393
vt 0.2722 0.6806
vt 0.2722 0.6393
vt 0.2959 0.7051
vt 0.2821 0.6837
vt 0.2959 0.6837
vt 0.3194 0.7051
vt 0.3234 0.7266
vt 0.3194 0.7266
vt 0.2840 0.7051
vt 0.2800 0.7266
vt 0.2800 0.7051
vt 0.2722 0.6837
vt 0.3274 0.7051
vt 0.3305 0.7266
vt 0.3274 0.7266
vt 0.2861 0.6837
vt 0.2941 0.6837
vt 0.3079 0.6837
vt 0.3511 0.6837
vt 0.3551 0.7051
vt 0.3511 0.7051
vt 0.3274 0.7051
vt 0.3234 0.7266
vt 0.3234 0.7051
vt 0.2941 0.6393
vt 0.2861 0.6393
vt 0.3391 0.7266
vt 0.3363 0.7051
vt 0.3391 0.7051
vt 0.3079 0.6393
vt 0.2722 0.6575
vt 0.3337 0.6393
vt 0.3555 0.6393
vt 0.3363 0.7051
vt 0.3336 0.7051
vt 0.3373 0.6837
vt 0.2959 0.7051
vt 0.3511 0.7051
vt 0.2800 0.7266
vt 0.3077 0.7266
vt 0.2959 0.7051
vt 0.2959 0.7051
vt 0.3235 0.7051
vt 0.2821 0.7051
vt 0.2821 0.7051
vt 0.3234 0.7051
vt 0.2840 0.7266
vt 0.3305 0.7051
vt 0.3551 0.6837
vt 0.3274 0.7266
vt 0.3363 0.7266
vn 0.0000 1.0000 0.0000
vn 0.0000 -1.0000 0.0000
vn 0.0000 0.0000 -1.0000
vn 0.0000 0.0000 1.0000
vn -1.0000 0.0000 0.0000
vn 1.0000 0.0000 0.0000
s off
f 17/1/1 6/2/1 18/3/1
f 20/4/2 14/5/2 19/6/2
f 39/7/3 20/8/3 17/1/3
f 20/4/2 1/9/2 32/10/2
f 18/3/1 10/11/1 12/12/1
f 17/1/1 9/13/1 39/7/1
f 16/14/2 19/6/2 14/5/2
f 30/15/4 19/16/4 18/17/4
f 18/3/1 8/18/1 30/19/1
f 38/20/1 21/21/1 10/11/1
f 2/22/2 19/6/2 29/23/2
f 29/23/2 28/24/2 2/22/2
f 8/18/1 24/25/1 30/19/1
f 16/14/2 26/26/2 25/27/2
f 21/28/3 44/29/3 25/30/3
f 28/31/3 35/32/3 24/33/3
f 6/34/5 3/35/5 4/36/5
f 4/37/3 8/38/3 6/39/3
f 1/40/6 8/41/6 2/42/6
f 7/43/4 3/44/4 5/45/4
f 12/46/3 16/47/3 14/48/3
f 14/49/6 11/50/6 12/51/6
f 15/52/4 11/53/4 13/54/4
f 9/55/5 16/56/5 10/57/5
f 15/58/2 20/4/2 40/59/2
f 17/1/1 7/60/1 5/61/1
f 18/17/4 41/62/4 38/63/4
f 17/1/3 32/64/3 31/65/3
f 3/66/2 19/6/2 4/67/2
f 11/68/1 18/3/1 12/12/1
f 21/69/6 26/70/6 22/71/6
f 21/21/1 9/13/1 10/11/1
f 9/13/1 22/72/1 39/7/1
f 23/73/1 7/60/1 31/65/1
f 24/25/1 7/60/1 23/73/1
f 25/27/2 41/74/2 16/14/2
f 26/26/2 15/58/2 40/59/2
f 1/9/2 27/75/2 32/10/2
f 2/22/2 27/75/2 1/9/2
f 26/26/2 40/59/2 42/76/2
f 24/77/5 27/78/5 28/79/5
f 33/80/5 32/81/5 36/82/5
f 35/83/5 29/84/5 30/85/5
f 32/10/2 27/75/2 36/86/2
f 23/87/4 36/88/4 27/89/4
f 28/24/2 29/23/2 34/90/2
f 30/19/1 24/25/1 35/91/1
f 23/73/1 31/65/1 33/92/1
f 37/93/6 41/94/6 44/95/6
f 43/96/6 40/97/6 39/98/6
f 21/21/1 38/20/1 37/99/1
f 41/74/2 25/27/2 44/100/2
f 26/101/4 43/102/4 22/103/4
f 39/7/1 22/72/1 43/104/1
f 17/1/1 5/61/1 6/2/1
f 20/4/2 13/105/2 14/5/2
f 39/7/3 40/106/3 20/8/3
f 20/4/2 3/66/2 1/9/2
f 18/3/1 38/20/1 10/11/1
f 17/1/1 11/68/1 9/13/1
f 16/14/2 41/74/2 19/6/2
f 30/15/4 29/107/4 19/16/4
f 18/3/1 6/2/1 8/18/1
f 2/22/2 4/67/2 19/6/2
f 16/14/2 15/58/2 26/26/2
f 21/28/3 37/108/3 44/29/3
f 28/31/3 34/109/3 35/32/3
f 6/34/5 5/110/5 3/35/5
f 4/37/3 2/111/3 8/38/3
f 1/40/6 7/112/6 8/41/6
f 7/43/4 1/113/4 3/44/4
f 12/46/3 10/114/3 16/47/3
f 14/49/6 13/115/6 11/50/6
f 15/52/4 9/116/4 11/53/4
f 9/55/5 15/117/5 16/56/5
f 15/58/2 13/105/2 20/4/2
f 17/1/1 31/65/1 7/60/1
f 18/17/4 19/16/4 41/62/4
f 17/1/3 20/8/3 32/64/3
f 3/66/2 20/4/2 19/6/2
f 11/68/1 17/1/1 18/3/1
f 21/69/6 25/118/6 26/70/6
f 21/21/1 22/72/1 9/13/1
f 24/25/1 8/18/1 7/60/1
f 2/22/2 28/24/2 27/75/2
f 24/77/5 23/119/5 27/78/5
f 33/80/5 31/120/5 32/81/5
f 35/83/5 34/121/5 29/84/5
f 23/87/4 33/122/4 36/88/4
f 37/93/6 38/123/6 41/94/6
f 43/96/6 42/124/6 40/97/6
f 26/101/4 42/125/4 43/102/4
