# Blender v2.77 (sub 0) OBJ File: 'LowPoly_Level_Kit_Rocks.blend'
# www.blender.org
g Concrete_Block_05
v -0.216000 0.000000 0.120000
v -0.216000 0.240000 0.120000
v -0.216000 0.240000 -0.120000
v -0.216000 0.000000 -0.120000
v 0.215999 0.240000 -0.120000
v 0.215999 0.000000 -0.120000
v 0.215999 0.240000 0.120000
v 0.215999 0.000000 0.120000
vt 0.0414 0.6914
vt 0.0072 0.7428
vt 0.0072 0.6914
vt 0.0757 0.6400
vt 0.1100 0.6914
vt 0.0757 0.6914
vt 0.0414 0.6914
vt 0.0072 0.6400
vt 0.0414 0.6400
vt 0.0414 0.6914
vt 0.0757 0.6400
vt 0.0757 0.6914
vt 0.0757 0.6914
vt 0.1100 0.7200
vt 0.0757 0.7200
vt 0.0757 0.7200
vt 0.0414 0.7200
vt 0.0414 0.7428
vt 0.1100 0.6400
vt 0.0072 0.6914
vt 0.0414 0.6400
vt 0.1100 0.6914
vn 0.0000 -1.0000 0.0000
vn 0.0000 1.0000 0.0000
vn 0.0000 0.0000 1.0000
vn 0.0000 0.0000 -1.0000
vn 1.0000 0.0000 0.0000
vn -1.0000 0.0000 0.0000
s off
f 8/1/1 4/2/1 6/3/1
f 7/4/2 3/5/2 2/6/2
f 2/7/3 8/8/3 7/9/3
f 3/10/4 6/11/4 4/12/4
f 7/13/5 6/14/5 5/15/5
f 3/10/6 1/16/6 2/17/6
f 8/1/1 1/18/1 4/2/1
f 7/4/2 5/19/2 3/5/2
f 2/7/3 1/20/3 8/8/3
f 3/10/4 5/21/4 6/11/4
f 7/13/5 8/22/5 6/14/5
f 3/10/6 4/12/6 1/16/6
