# Blender v2.77 (sub 0) OBJ File: 'LowPoly_Level_Kit_Rocks.blend'
# www.blender.org
g Concrete_Block_06
v 0.215999 0.240000 0.076000
v 0.215999 0.240000 -0.076000
v -0.216000 0.240000 -0.076000
v -0.216000 0.240000 0.076000
v 0.215999 0.000000 0.076000
v 0.215999 0.000000 -0.076000
v -0.216000 0.000000 -0.076000
v -0.216000 0.000000 0.076000
v -0.250001 0.000000 0.120000
v -0.250001 0.240000 0.120000
v -0.250001 0.240000 -0.120000
v -0.250001 0.000000 -0.120000
v -0.250001 0.240000 -0.076000
v -0.250001 0.000000 0.076000
v -0.250001 0.240000 0.076000
v -0.250001 0.000000 -0.076000
v 0.245999 0.240000 0.076000
v 0.245999 0.240000 0.120000
v 0.245999 0.240000 -0.120000
v 0.245999 0.000000 -0.120000
v 0.245999 0.000000 0.120000
v 0.245999 0.000000 -0.076000
v 0.245999 0.240000 -0.076000
v 0.245999 0.000000 0.076000
vt 0.1888 0.6900
vt 0.1931 0.6323
vt 0.1931 0.6943
vt 0.2119 0.6900
vt 0.1973 0.6360
vt 0.2119 0.6360
vt 0.1470 0.6323
vt 0.1701 0.6943
vt 0.1470 0.6943
vt 0.1973 0.6900
vt 0.1931 0.6323
vt 0.2005 0.6943
vt 0.2034 0.7243
vt 0.2005 0.7243
vt 0.1879 0.7243
vt 0.1846 0.6943
vt 0.1879 0.6943
vt 0.1743 0.6360
vt 0.1743 0.6900
vt 0.1701 0.6323
vt 0.1701 0.6943
vt 0.1616 0.6943
vt 0.1470 0.7243
vt 0.1470 0.6943
vt 0.2391 0.6943
vt 0.2161 0.6323
vt 0.2391 0.6323
vt 0.2161 0.6943
vt 0.1743 0.6323
vt 0.1762 0.7243
vt 0.1616 0.6943
vt 0.1762 0.6943
vt 0.1888 0.6943
vt 0.1931 0.7243
vt 0.1888 0.7243
vt 0.1973 0.6943
vt 0.1931 0.7243
vt 0.1931 0.6943
vt 0.1743 0.6943
vt 0.1973 0.6943
vt 0.2005 0.7243
vt 0.1973 0.7243
vt 0.1888 0.6943
vt 0.2119 0.6943
vt 0.1762 0.6943
vt 0.1804 0.7243
vt 0.1762 0.7243
vt 0.1846 0.6943
vt 0.1804 0.7243
vt 0.1804 0.6943
vt 0.1973 0.6323
vt 0.1888 0.6360
vt 0.1888 0.6323
vt 0.2063 0.7243
vt 0.2034 0.6943
vt 0.2063 0.6943
vt 0.2119 0.6323
vt 0.1701 0.6323
vt 0.2034 0.6943
vt 0.1846 0.7243
vt 0.1616 0.7243
vt 0.1616 0.7243
vt 0.1931 0.6943
vt 0.1973 0.7243
vt 0.2005 0.6943
vt 0.1804 0.6943
vt 0.1846 0.7243
vt 0.2034 0.7243
vn 0.0000 -1.0000 0.0000
vn 0.0000 1.0000 0.0000
vn 0.0000 0.0000 1.0000
vn 0.0000 -0.0000 -1.0000
vn 1.0000 -0.0000 0.0000
vn -1.0000 0.0000 0.0000
s off
f 8/1/1 21/2/1 9/3/1
f 3/4/2 1/5/2 2/6/2
f 21/7/3 10/8/3 9/9/3
f 4/10/2 18/11/2 1/5/2
f 1/12/4 24/13/4 5/14/4
f 8/15/4 15/16/4 4/17/4
f 6/18/1 8/1/1 7/19/1
f 20/20/1 7/19/1 12/21/1
f 1/22/5 6/23/5 2/24/5
f 12/25/4 19/26/4 20/27/4
f 3/4/2 19/26/2 11/28/2
f 6/18/1 20/20/1 22/29/1
f 4/30/6 7/31/6 8/32/6
f 13/33/6 12/34/6 16/35/6
f 15/36/6 9/37/6 10/38/6
f 12/21/1 7/19/1 16/39/1
f 3/40/3 16/41/3 7/42/3
f 8/1/1 9/3/1 14/43/1
f 10/38/2 4/10/2 15/36/2
f 3/4/2 11/28/2 13/44/2
f 17/45/5 21/46/5 24/47/5
f 23/48/5 20/49/5 19/50/5
f 1/5/2 18/11/2 17/51/2
f 21/2/1 5/52/1 24/53/1
f 6/54/3 23/55/3 2/56/3
f 19/26/2 2/6/2 23/57/2
f 8/1/1 5/52/1 21/2/1
f 3/4/2 4/10/2 1/5/2
f 21/7/3 18/58/3 10/8/3
f 4/10/2 10/38/2 18/11/2
f 1/12/4 17/59/4 24/13/4
f 8/15/4 14/60/4 15/16/4
f 6/18/1 5/52/1 8/1/1
f 20/20/1 6/18/1 7/19/1
f 1/22/5 5/61/5 6/23/5
f 12/25/4 11/28/4 19/26/4
f 3/4/2 2/6/2 19/26/2
f 4/30/6 3/62/6 7/31/6
f 13/33/6 11/63/6 12/34/6
f 15/36/6 14/64/6 9/37/6
f 3/40/3 13/65/3 16/41/3
f 17/45/5 18/66/5 21/46/5
f 23/48/5 22/67/5 20/49/5
f 6/54/3 22/68/3 23/55/3
