# Blender v2.77 (sub 0) OBJ File: 'LowPoly_Level_Kit_Rocks.blend'
# www.blender.org
g Rock_Blocks_s_05
v -0.011755 0.029660 0.074440
v 0.070371 0.015021 -0.015033
v -0.067278 0.029660 -0.013124
v 0.030190 0.015021 -0.054205
v -0.011755 -0.003815 0.074440
v 0.070370 -0.003815 -0.015033
v -0.067278 -0.003815 -0.013124
v 0.030190 -0.003815 -0.054205
v 0.027522 0.022340 0.046686
v -0.037666 0.022340 -0.043499
v 0.027522 -0.003815 0.046686
v -0.037666 -0.003815 -0.043499
v 0.165079 0.031196 0.229801
v 0.116222 0.020042 0.186623
v 0.134175 0.031196 0.262020
v 0.086994 0.020042 0.217830
v 0.165079 0.005690 0.229801
v 0.116222 0.005690 0.186623
v 0.134175 0.005690 0.262020
v 0.086994 0.005690 0.217830
v 0.239761 0.034061 -0.209227
v 0.173690 0.014024 -0.259314
v 0.182559 -0.006770 -0.107296
v 0.118428 -0.026243 -0.158899
v 0.248509 -0.013506 -0.215752
v 0.179861 -0.019525 -0.263916
v 0.188455 -0.038825 -0.111693
v 0.121745 -0.044280 -0.161373
vt 0.6929 0.6545
vt 0.6702 0.6735
vt 0.6616 0.6550
vt 0.6616 0.6618
vt 0.6387 0.6431
vt 0.6543 0.6400
vt 0.7148 0.7079
vt 0.7222 0.7184
vt 0.7127 0.7184
vt 0.7316 0.6907
vt 0.7261 0.7138
vt 0.7242 0.6907
vt 0.7222 0.6762
vt 0.7168 0.6866
vt 0.7168 0.6762
vt 0.7023 0.6400
vt 0.6929 0.6715
vt 0.6929 0.6401
vt 0.7316 0.6762
vt 0.7222 0.6762
vt 0.7222 0.7079
vt 0.6323 0.6751
vt 0.6616 0.6767
vt 0.6638 0.6424
vt 0.6929 0.6400
vt 0.7028 0.6400
vt 0.7149 0.6602
vt 0.7023 0.6605
vt 0.7115 0.7137
vt 0.6994 0.7338
vt 0.6989 0.7136
vt 0.6585 0.7200
vt 0.6543 0.7000
vt 0.6615 0.7000
vt 0.6543 0.7000
vt 0.6584 0.6871
vt 0.6616 0.7000
vt 0.6543 0.6767
vt 0.6584 0.6767
vt 0.7023 0.6605
vt 0.7095 0.6743
vt 0.7023 0.6743
vt 0.6540 0.7136
vt 0.6304 0.6795
vt 0.6540 0.6767
vt 0.6852 0.6783
vt 0.6618 0.7130
vt 0.6616 0.6762
vt 0.6341 0.7159
vt 0.6393 0.7412
vt 0.6301 0.7415
vt 0.6989 0.6766
vt 0.6871 0.6949
vt 0.6852 0.6762
vt 0.6968 0.6952
vt 0.6937 0.7189
vt 0.7032 0.6762
vt 0.7127 0.7136
vt 0.6989 0.7136
vt 0.6857 0.6762
vt 0.6301 0.6622
vt 0.7315 0.7139
vt 0.7222 0.6866
vt 0.7023 0.6714
vt 0.7149 0.6400
vt 0.7115 0.7338
vt 0.6544 0.7200
vt 0.6543 0.6871
vt 0.7095 0.6605
vt 0.6301 0.7157
vt 0.6852 0.7159
vt 0.6393 0.7157
vt 0.6989 0.7191
vt 0.7125 0.6762
vn 0.0961 0.9929 -0.0695
vn 0.0000 -1.0000 0.0000
vn -0.7160 -0.0000 -0.6981
vn 0.8214 0.0000 0.5703
vn 0.6981 -0.0000 -0.7160
vn -0.8445 -0.0000 0.5355
vn 0.5771 0.0000 0.8167
vn -0.1559 0.0000 -0.9878
vn 0.1272 0.9886 -0.0807
vn -0.1218 0.9857 -0.1168
vn -0.6836 0.0000 0.7299
vn 0.6622 0.0000 -0.7493
vn -0.7299 0.0000 -0.6836
vn 0.7217 0.0000 0.6922
vn -0.3919 0.9087 0.1441
vn 0.1793 -0.9747 -0.1337
vn -0.5722 -0.2138 0.7918
vn 0.5488 0.2119 -0.8087
vn -0.8573 -0.0881 -0.5072
vn 0.8536 0.0865 0.5137
vn 0.0686 0.9952 -0.0704
vn -0.1558 -0.0000 -0.9878
vn 0.1398 0.9850 -0.1011
vn -0.1241 0.9854 -0.1162
vn -0.3894 0.9088 0.1501
s off
f 9/1/1 4/2/1 10/3/1
f 11/4/2 8/5/2 6/6/2
f 10/7/3 7/8/3 3/9/3
f 11/10/4 2/11/4 9/12/4
f 6/13/5 4/14/5 2/15/5
f 7/16/6 1/17/6 3/18/6
f 5/19/7 9/12/7 1/20/7
f 4/14/8 12/21/8 10/7/8
f 7/22/2 11/4/2 5/23/2
f 9/1/9 3/24/9 1/25/9
f 14/26/10 15/27/10 13/28/10
f 19/29/2 18/30/2 17/31/2
f 16/32/11 19/33/11 15/34/11
f 17/35/12 14/36/12 13/37/12
f 14/36/13 20/38/13 16/39/13
f 15/40/14 17/41/14 13/42/14
f 21/43/15 24/44/15 23/45/15
f 25/46/16 28/47/16 26/48/16
f 24/49/17 27/50/17 23/51/17
f 25/52/18 22/53/18 21/54/18
f 26/55/19 24/56/19 22/53/19
f 23/57/20 25/58/20 21/59/20
f 9/1/21 2/60/21 4/2/21
f 11/4/2 12/61/2 8/5/2
f 10/7/3 12/21/3 7/8/3
f 11/10/4 6/62/4 2/11/4
f 6/13/5 8/63/5 4/14/5
f 7/16/6 5/64/6 1/17/6
f 5/19/7 11/10/7 9/12/7
f 4/14/22 8/63/22 12/21/22
f 7/22/2 12/61/2 11/4/2
f 9/1/23 10/3/23 3/24/23
f 14/26/24 16/65/24 15/27/24
f 19/29/2 20/66/2 18/30/2
f 16/32/11 20/67/11 19/33/11
f 17/35/12 18/68/12 14/36/12
f 14/36/13 18/68/13 20/38/13
f 15/40/14 19/69/14 17/41/14
f 21/43/25 22/70/25 24/44/25
f 25/46/16 27/71/16 28/47/16
f 24/49/17 28/72/17 27/50/17
f 25/52/18 26/55/18 22/53/18
f 26/55/19 28/73/19 24/56/19
f 23/57/20 27/74/20 25/58/20
