# Blender v2.77 (sub 0) OBJ File: 'LowPoly_Level_Kit_Rocks.blend'
# www.blender.org
g Rock_Block_m_14
v -0.578751 0.000000 0.317160
v 0.578751 0.000000 0.317160
v -0.221733 0.582479 -0.317160
v -0.578751 0.000000 -0.164838
v -0.369083 0.000000 -0.317160
v -0.506877 0.127945 -0.317160
v -0.578751 0.143246 -0.276915
v 0.578751 0.128809 -0.317160
v 0.578751 0.000000 -0.065048
v 0.432534 0.000000 -0.317160
v -0.578751 0.399292 0.317160
v -0.441609 0.582479 -0.208550
v -0.578751 0.486365 -0.170592
v 0.499134 0.582479 0.273529
v 0.578751 0.542414 0.317160
v 0.499134 0.582479 -0.317160
v 0.578751 0.542414 -0.317160
v -0.359045 0.542414 0.317160
v -0.309498 0.582479 0.273529
vt 0.6283 0.6313
vt 0.6444 0.6313
vt 0.6283 0.6388
vt 0.6941 0.7496
vt 0.6687 0.7496
vt 0.6687 0.6899
vt 0.7091 0.6320
vt 0.7091 0.6420
vt 0.7063 0.6442
vt 0.6283 0.6802
vt 0.7033 0.7383
vt 0.7033 0.6899
vt 0.7091 0.6971
vt 0.7309 0.6916
vt 0.7146 0.7223
vt 0.7180 0.6915
vt 0.7461 0.6510
vt 0.7442 0.6916
vt 0.7171 0.6364
vt 0.7098 0.6840
vt 0.7091 0.6433
vt 0.7407 0.6315
vt 0.7183 0.6323
vt 0.6687 0.6899
vt 0.7063 0.6855
vt 0.7091 0.6899
vt 0.7467 0.6388
vt 0.7100 0.6313
vt 0.6547 0.7237
vt 0.6283 0.7237
vt 0.6629 0.7107
vt 0.6781 0.6313
vt 0.6756 0.6375
vt 0.6283 0.6910
vt 0.6629 0.6910
vt 0.7467 0.6876
vt 0.7401 0.6974
vt 0.6687 0.6487
vt 0.6687 0.6910
vt 0.6380 0.6910
vt 0.6687 0.6855
vt 0.7401 0.7223
vt 0.6687 0.6313
vn 0.6172 -0.7006 -0.3580
vn 0.0000 0.0000 1.0000
vn -0.5398 0.8287 0.1479
vn 0.0000 -1.0000 0.0000
vn -1.0000 0.0000 0.0000
vn 0.0000 0.0000 -1.0000
vn -0.4267 0.2677 -0.8639
vn 0.4495 0.8933 0.0000
vn -0.4966 -0.5349 -0.6836
vn 1.0000 0.0000 0.0000
vn 0.0000 0.7366 0.6764
vn 0.0000 1.0000 0.0000
s off
f 8/1/1 9/2/1 10/3/1
f 11/4/2 1/5/2 2/6/2
f 11/7/3 18/8/3 19/9/3
f 9/2/4 5/10/4 10/3/4
f 18/11/2 2/6/2 15/12/2
f 13/13/5 7/14/5 11/15/5
f 8/16/6 3/17/6 17/18/6
f 6/19/6 10/20/6 5/21/6
f 13/22/7 6/19/7 7/23/7
f 17/24/8 14/25/8 15/26/8
f 12/27/7 3/17/7 13/22/7
f 4/28/9 6/19/9 5/21/9
f 8/29/10 17/30/10 9/31/10
f 13/32/3 19/9/3 12/33/3
f 9/31/10 15/34/10 2/35/10
f 16/36/6 17/18/6 3/17/6
f 18/8/11 14/25/11 19/9/11
f 4/37/5 11/15/5 7/14/5
f 19/9/12 3/38/12 12/33/12
f 9/2/4 1/39/4 4/40/4
f 3/38/12 14/25/12 16/41/12
f 9/2/4 4/40/4 5/10/4
f 18/11/2 11/4/2 2/6/2
f 8/16/6 6/19/6 3/17/6
f 6/19/6 8/16/6 10/20/6
f 13/22/7 3/17/7 6/19/7
f 17/24/8 16/41/8 14/25/8
f 4/28/9 7/23/9 6/19/9
f 13/32/3 11/7/3 19/9/3
f 9/31/10 17/30/10 15/34/10
f 18/8/11 15/26/11 14/25/11
f 4/37/5 1/42/5 11/15/5
f 9/2/4 2/43/4 1/39/4
f 3/38/12 19/9/12 14/25/12
