# Blender v2.77 (sub 0) OBJ File: 'LowPoly_Level_Kit_Rocks.blend'
# www.blender.org
g Rock_Block_m_01
v -0.535881 0.000000 0.291240
v -0.535881 0.582479 0.291240
v -0.535881 0.000000 -0.291240
v -0.535881 0.582479 -0.291240
v 0.535881 0.000000 0.291240
v 0.535881 0.582479 0.291240
v 0.535881 0.000000 -0.291240
v 0.535881 0.582479 -0.291240
vt 0.0475 0.6895
vt 0.0814 0.7172
vt 0.0475 0.7172
vt 0.0814 0.6895
vt 0.0475 0.6385
vt 0.0814 0.6385
vt 0.0814 0.6895
vt 0.1154 0.7172
vt 0.0814 0.7172
vt 0.0475 0.6895
vt 0.0135 0.6385
vt 0.0475 0.6385
vt 0.0135 0.7404
vt 0.0475 0.6895
vt 0.0475 0.7404
vt 0.1154 0.6385
vt 0.0814 0.6895
vt 0.0814 0.6385
vt 0.0814 0.6895
vt 0.0475 0.6895
vt 0.1154 0.6895
vt 0.0135 0.6895
vt 0.0135 0.6895
vt 0.1154 0.6895
vn -1.0000 0.0000 0.0000
vn 0.0000 0.0000 -1.0000
vn 1.0000 0.0000 0.0000
vn 0.0000 0.0000 1.0000
vn 0.0000 -1.0000 0.0000
vn 0.0000 1.0000 0.0000
s off
f 4/1/1 1/2/1 2/3/1
f 8/4/2 3/5/2 4/6/2
f 6/7/3 7/8/3 8/9/3
f 2/10/4 5/11/4 6/12/4
f 3/13/5 5/14/5 1/15/5
f 8/16/6 2/17/6 6/18/6
f 4/1/1 3/19/1 1/2/1
f 8/4/2 7/20/2 3/5/2
f 6/7/3 5/21/3 7/8/3
f 2/10/4 1/22/4 5/11/4
f 3/13/5 7/23/5 5/14/5
f 8/16/6 4/24/6 2/17/6
