# Blender v2.77 (sub 0) OBJ File: 'LowPoly_Level_Kit_Rocks.blend'
# www.blender.org
g Rock_Block_m_06
v -0.502757 0.594310 0.315000
v -0.502757 0.630000 0.279310
v -0.567000 0.594310 0.279310
v -0.502757 0.035690 -0.315000
v -0.502757 0.000000 -0.279310
v -0.567000 0.035690 -0.279310
v -0.502757 0.630000 -0.279310
v -0.502757 0.594310 -0.315000
v -0.567000 0.594310 -0.279310
v 0.502757 0.035690 0.315000
v 0.502757 0.000000 0.279310
v 0.567000 0.035690 0.279310
v 0.567000 0.035690 -0.279310
v 0.502757 0.000000 -0.279310
v 0.502757 0.035690 -0.315000
v 0.502757 0.630000 -0.279310
v 0.567000 0.594310 -0.279310
v 0.502757 0.594310 -0.315000
v 0.502757 0.630000 0.089939
v 0.567000 0.594310 0.042704
v 0.502757 0.496490 0.315000
v 0.567000 0.453951 0.279310
v 0.389482 0.630000 0.279310
v 0.404121 0.594310 0.315000
v -0.502757 0.157586 0.315000
v -0.567000 0.229983 0.279310
v -0.502757 0.000000 0.086327
v -0.567000 0.035690 -0.002629
v -0.414671 0.000000 0.279310
v -0.422020 0.035690 0.315000
vt 0.6665 0.6799
vt 0.6527 0.6773
vt 0.6635 0.6722
vt 0.7379 0.7039
vt 0.7379 0.7131
vt 0.7290 0.7148
vt 0.6707 0.6352
vt 0.6687 0.6352
vt 0.6707 0.6321
vt 0.7379 0.6833
vt 0.7399 0.6833
vt 0.7379 0.6864
vt 0.7043 0.6833
vt 0.7063 0.6833
vt 0.7063 0.6864
vt 0.7043 0.6894
vt 0.7023 0.6897
vt 0.7023 0.6864
vt 0.6707 0.6864
vt 0.6707 0.6897
vt 0.6687 0.6894
vt 0.7043 0.6352
vt 0.7063 0.6321
vt 0.7063 0.6352
vt 0.6913 0.6321
vt 0.6954 0.6352
vt 0.7023 0.6833
vt 0.6787 0.6864
vt 0.6763 0.6833
vt 0.6321 0.6778
vt 0.6502 0.6809
vt 0.6323 0.6813
vt 0.6707 0.7372
vt 0.6864 0.7399
vt 0.6707 0.7399
vt 0.7023 0.7330
vt 0.6914 0.7372
vt 0.6647 0.6836
vt 0.6377 0.6933
vt 0.6658 0.6736
vt 0.6664 0.6341
vt 0.7359 0.7148
vt 0.7043 0.6394
vt 0.7043 0.6833
vt 0.7379 0.6352
vt 0.6359 0.6329
vt 0.6670 0.6321
vt 0.7399 0.6352
vt 0.6354 0.6348
vt 0.6687 0.6348
vt 0.7043 0.6864
vt 0.7249 0.7131
vt 0.7043 0.7131
vt 0.7359 0.6996
vt 0.7359 0.6864
vt 0.6707 0.6786
vt 0.7023 0.6391
vt 0.6687 0.6926
vt 0.7379 0.6321
vn 0.6489 0.6544 0.3882
vn -0.7792 -0.5161 0.3557
vn -0.3656 0.6581 0.6581
vn -0.3656 -0.6581 -0.6581
vn -0.3656 0.6581 -0.6581
vn 0.3656 -0.6581 0.6581
vn 0.3656 -0.6581 -0.6581
vn 0.3656 0.6581 -0.6581
vn -0.4856 0.0000 0.8742
vn 0.4856 0.0000 0.8742
vn 0.4856 0.8742 0.0000
vn -0.4856 -0.8742 0.0000
vn 0.0000 -1.0000 0.0000
vn 0.0000 0.0000 1.0000
vn 1.0000 -0.0000 0.0000
vn 0.0000 1.0000 0.0000
vn 0.0000 -0.7071 0.7071
vn 0.0000 0.0000 -1.0000
vn -0.4856 0.8742 0.0000
vn -0.4856 0.0000 -0.8742
vn 0.4856 -0.8742 0.0000
vn 0.0000 0.7071 -0.7071
vn 0.0000 -0.7071 -0.7071
vn 0.0000 0.7071 0.7071
vn -1.0000 0.0000 0.0000
vn 0.4856 0.0000 -0.8742
s off
f 21/1/1 19/2/1 23/3/1
f 27/4/2 29/5/2 25/6/2
f 1/7/3 2/8/3 3/9/3
f 4/10/4 5/11/4 6/12/4
f 7/13/5 8/14/5 9/15/5
f 10/16/6 11/17/6 12/18/6
f 13/19/7 14/20/7 15/21/7
f 16/22/8 17/23/8 18/24/8
f 1/7/9 26/25/9 25/26/9
f 10/27/10 22/28/10 21/29/10
f 16/30/11 20/31/11 17/32/11
f 5/33/12 28/34/12 6/35/12
f 29/36/13 27/37/13 11/17/13
f 25/26/14 21/29/14 1/7/14
f 22/38/15 13/39/15 20/31/15
f 24/40/1 21/1/1 23/3/1
f 23/3/16 19/2/16 2/41/16
f 14/20/13 27/37/13 5/33/13
f 29/5/2 30/42/2 25/6/2
f 10/27/17 29/43/17 11/44/17
f 1/7/9 3/9/9 26/25/9
f 8/14/18 15/45/18 4/10/18
f 2/41/19 9/46/19 3/47/19
f 8/14/20 6/12/20 9/15/20
f 11/17/21 13/19/21 12/18/21
f 7/13/22 18/24/22 8/14/22
f 10/27/10 12/18/10 22/28/10
f 14/48/23 4/10/23 15/45/23
f 7/49/16 19/2/16 16/30/16
f 1/50/24 23/3/24 2/41/24
f 13/39/15 17/32/15 20/31/15
f 9/51/25 26/52/25 3/53/25
f 16/30/11 19/2/11 20/31/11
f 5/33/12 27/37/12 28/34/12
f 27/4/2 26/52/2 28/54/2
f 9/51/25 6/55/25 28/54/25
f 21/29/14 24/56/14 1/7/14
f 22/38/1 19/2/1 21/1/1
f 30/57/14 10/27/14 25/26/14
f 17/23/26 15/45/26 18/24/26
f 25/26/14 10/27/14 21/29/14
f 22/38/15 12/58/15 13/39/15
f 14/20/13 11/17/13 27/37/13
f 10/27/17 30/57/17 29/43/17
f 8/14/18 18/24/18 15/45/18
f 2/41/19 7/49/19 9/46/19
f 8/14/20 4/10/20 6/12/20
f 11/17/21 14/20/21 13/19/21
f 7/13/22 16/22/22 18/24/22
f 14/48/23 5/11/23 4/10/23
f 7/49/16 2/41/16 19/2/16
f 1/50/24 24/40/24 23/3/24
f 9/51/25 28/54/25 26/52/25
f 27/4/2 25/6/2 26/52/2
f 22/38/1 20/31/1 19/2/1
f 17/23/26 13/59/26 15/45/26
