# Blender v2.77 (sub 0) OBJ File: 'LowPoly_Level_Kit_Rocks.blend'
# www.blender.org
g Rock_Blocks_m_06
v -0.310899 -0.026203 -0.704231
v -0.390909 0.443029 -1.039940
v 0.251591 -0.038189 -0.855043
v -0.074645 0.608420 0.126498
v -0.052285 1.075471 -0.236659
v -0.099443 0.753849 0.022451
v -0.175994 1.020333 -0.284245
v 0.449697 0.820154 -0.184373
v 0.463493 0.531023 -0.109938
v 0.258378 0.601324 0.037209
v 0.029101 0.434080 -1.152551
v 0.196406 0.285449 -1.086587
v 0.219210 0.558986 -1.023274
v 0.393002 1.025826 -0.412176
v 0.303700 1.067886 -0.332104
v 0.415681 1.019648 -0.327100
v -0.228364 0.027864 -0.267265
v -0.261316 0.011924 -0.162610
v -0.167194 0.003537 -0.129685
v -0.234137 -0.031582 -0.265906
v -0.264564 -0.021525 -0.161845
v -0.170442 -0.029912 -0.128920
v -0.011455 0.024939 -0.365076
v -0.060894 0.018891 -0.425699
v -0.052921 0.019672 -0.330574
v -0.100993 0.014131 -0.394570
v -0.010428 -0.005313 -0.368381
v -0.060316 0.001869 -0.427559
v -0.051894 -0.010581 -0.333878
v -0.100415 -0.002892 -0.396429
v 0.216761 0.038292 1.045665
v 0.187016 0.017458 0.921705
v 0.096514 0.038292 1.034696
v 0.107483 0.017458 0.914450
v 0.216761 -0.009349 1.045665
v 0.187016 -0.009349 0.921705
v 0.096514 -0.009349 1.034696
v 0.107483 -0.009349 0.914450
v 0.235276 0.027875 0.979770
v 0.101998 0.027875 0.974573
v 0.235276 -0.009349 0.979770
v 0.101998 -0.009349 0.974573
v 0.516427 0.032710 0.861118
v 0.580133 0.022128 0.854020
v 0.509528 0.025783 0.789908
v 0.575031 0.015812 0.786869
v 0.519329 -0.007378 0.864668
v 0.581766 -0.000429 0.856017
v 0.512430 -0.014305 0.793458
v 0.576664 -0.006745 0.788866
v 0.221442 0.040241 0.648303
v 0.223293 0.022595 0.570357
v 0.146643 0.040240 0.666055
v 0.155932 0.022595 0.564213
v 0.221443 -0.000109 0.648303
v 0.223293 -0.000109 0.570357
v 0.146642 -0.000109 0.666055
v 0.155932 -0.000109 0.564213
v -0.046055 -0.075704 0.378933
v -0.118114 0.058239 0.280419
v -0.165753 -0.141334 0.278634
v -0.197285 0.014831 0.214080
v -0.003129 -0.075704 0.327704
v -0.093960 0.058239 0.251593
v -0.122826 -0.141334 0.227405
v -0.173130 0.014831 0.185254
v 0.072362 -0.004343 -0.087841
v 0.570008 -0.014541 0.163774
v 0.528950 0.143679 -0.104432
v 0.419902 0.137552 -0.146419
v 0.359210 0.589127 -0.078140
v 0.293228 0.474377 -0.125913
v 0.627898 0.270069 0.467354
v 0.308668 0.593987 0.520173
v 0.541886 0.351384 -0.057759
v 0.451553 0.587158 -0.044026
v 0.625483 0.447829 0.426834
v 0.567685 0.587247 0.417543
v 0.624173 0.112179 0.468322
v 0.385216 -0.008068 0.508648
v 0.595243 -0.014214 0.314281
v -0.036436 0.440543 -0.050287
v 0.011012 0.597990 0.027722
v 0.014254 0.598109 0.059495
v -0.040580 0.405002 -0.069795
v 0.035179 0.598872 0.264503
v 0.247461 0.285881 0.531105
v -0.022858 -0.000312 0.203376
v -0.861187 0.000000 0.587136
v -0.861187 0.000000 -0.052864
v -0.110510 0.000000 -0.052864
v -0.861187 0.304065 0.587136
v -0.648193 0.600000 0.587136
v -0.766237 0.600000 0.404923
v -0.861187 0.473010 0.399441
v -0.861187 0.262140 -0.052864
v -0.706025 0.600000 0.117308
v -0.861187 0.363706 0.004345
v 0.007476 0.600000 0.587136
v 0.099467 0.000000 0.587136
v -0.234784 0.441958 -0.032863
v -0.204715 0.600000 0.052255
v -0.206773 0.600000 0.084127
v -0.234784 0.406450 -0.052864
v -0.220039 0.600000 0.289774
v -0.047199 0.290476 0.587136
v -0.252615 0.000000 0.218607
vt 0.2987 0.6369
vt 0.2987 0.6948
vt 0.2886 0.6948
vt 0.2821 0.6951
vt 0.2690 0.7074
vt 0.2656 0.6949
vt 0.2661 0.6897
vt 0.2656 0.6946
vt 0.3315 0.6949
vt 0.3286 0.7103
vt 0.3199 0.7012
vt 0.3315 0.7279
vt 0.3026 0.7237
vt 0.3449 0.6901
vt 0.3643 0.7383
vt 0.3316 0.7375
vt 0.3583 0.6383
vt 0.3644 0.6369
vt 0.3643 0.6415
vt 0.2775 0.7263
vt 0.2965 0.7214
vt 0.3316 0.6947
vt 0.2938 0.6956
vt 0.2965 0.7015
vt 0.3144 0.6948
vt 0.3315 0.6486
vt 0.3283 0.6949
vt 0.2690 0.7260
vt 0.2983 0.6981
vt 0.3315 0.6912
vt 0.3561 0.6901
vt 0.3375 0.6382
vt 0.3316 0.6429
vt 0.3316 0.6900
vt 0.3644 0.6797
vt 0.2661 0.6370
vt 0.3214 0.6369
vt 0.2988 0.6889
vt 0.2988 0.6369
vt 0.3500 0.6638
vt 0.3434 0.6654
vt 0.3434 0.6627
vt 0.3400 0.6663
vt 0.3433 0.6627
vt 0.3433 0.6694
vt 0.3434 0.7039
vt 0.3467 0.7007
vt 0.3467 0.7073
vt 0.3481 0.6661
vt 0.3524 0.6680
vt 0.3481 0.6689
vt 0.2569 0.6826
vt 0.2584 0.6788
vt 0.2584 0.6826
vt 0.3515 0.6734
vt 0.3540 0.6699
vt 0.3540 0.6734
vt 0.3522 0.6744
vt 0.3547 0.6778
vt 0.3523 0.6778
vt 0.2576 0.6827
vt 0.2584 0.6859
vt 0.2570 0.6859
vt 0.2584 0.6896
vt 0.2576 0.6927
vt 0.2570 0.6896
vt 0.2576 0.7029
vt 0.2584 0.7014
vt 0.2584 0.7030
vt 0.2570 0.6991
vt 0.2584 0.7011
vt 0.2570 0.7012
vt 0.3356 0.6722
vt 0.3328 0.6758
vt 0.3331 0.6699
vt 0.3385 0.6758
vt 0.3357 0.6722
vt 0.3382 0.6699
vt 0.3495 0.6774
vt 0.3521 0.6756
vt 0.3521 0.6778
vt 0.3491 0.6726
vt 0.3479 0.6755
vt 0.3473 0.6726
vt 0.2570 0.6895
vt 0.2582 0.6860
vt 0.2582 0.6895
vt 0.3514 0.6699
vt 0.3492 0.6750
vt 0.3492 0.6699
vt 0.3491 0.6699
vt 0.3469 0.6699
vt 0.3469 0.6770
vt 0.3495 0.6757
vt 0.3413 0.6704
vt 0.3300 0.6704
vt 0.3300 0.6758
vt 0.3502 0.6657
vt 0.3531 0.6627
vt 0.3531 0.6659
vt 0.3532 0.7073
vt 0.3503 0.7042
vt 0.3532 0.7041
vt 0.3496 0.7015
vt 0.3468 0.7026
vt 0.3468 0.7007
vt 0.3350 0.6759
vt 0.3379 0.6771
vt 0.3350 0.6778
vt 0.2574 0.6989
vt 0.2584 0.6959
vt 0.2584 0.6989
vt 0.3503 0.7008
vt 0.3521 0.7040
vt 0.3503 0.7040
vt 0.3468 0.7062
vt 0.3502 0.7027
vt 0.3502 0.7073
vt 0.3445 0.6689
vt 0.3480 0.6655
vt 0.3480 0.6687
vt 0.3344 0.6766
vt 0.3300 0.6778
vt 0.3300 0.6759
vt 0.3413 0.6778
vt 0.3380 0.6767
vt 0.3413 0.6759
vt 0.2584 0.6928
vt 0.2574 0.6958
vt 0.2574 0.6928
vt 0.3552 0.7073
vt 0.3533 0.7039
vt 0.3552 0.7039
vt 0.3151 0.6767
vt 0.3226 0.6715
vt 0.3226 0.6780
vt 0.3227 0.6699
vt 0.3299 0.6756
vt 0.3227 0.6768
vt 0.3151 0.6724
vt 0.3215 0.6699
vt 0.3468 0.6699
vt 0.3456 0.6775
vt 0.3446 0.6709
vt 0.3532 0.6675
vt 0.3550 0.6627
vt 0.3550 0.6675
vt 0.3414 0.6699
vt 0.3445 0.6769
vt 0.3414 0.6769
vt 0.2865 0.7161
vt 0.2839 0.7373
vt 0.2720 0.7371
vt 0.2581 0.7375
vt 0.2581 0.7261
vt 0.2652 0.7371
vt 0.3463 0.7345
vt 0.3617 0.7285
vt 0.3590 0.7347
vt 0.3500 0.6537
vt 0.3400 0.6456
vt 0.3486 0.6377
vt 0.2993 0.7384
vt 0.2866 0.7311
vt 0.2866 0.7240
vt 0.3030 0.7137
vt 0.3653 0.6547
vt 0.3646 0.6562
vt 0.2865 0.7326
vt 0.3653 0.6358
vt 0.3434 0.6919
vt 0.3444 0.6790
vt 0.3653 0.6781
vt 0.3679 0.6817
vt 0.3665 0.6989
vt 0.3601 0.6626
vt 0.3454 0.6579
vt 0.3617 0.7204
vt 0.3506 0.7078
vt 0.3438 0.7207
vt 0.3434 0.6367
vt 0.3411 0.6568
vt 0.3134 0.7135
vt 0.3072 0.7365
vt 0.3577 0.7007
vt 0.3617 0.7134
vt 0.2937 0.7115
vt 0.2922 0.7384
vt 0.2744 0.7096
vt 0.3428 0.7153
vt 0.3437 0.7169
vt 0.3317 0.7359
vt 0.3150 0.7355
vt 0.3151 0.7222
vt 0.3437 0.7356
vt 0.3376 0.7080
vt 0.3390 0.7080
vt 0.3150 0.7078
vt 0.3284 0.7080
vt 0.3214 0.6978
vt 0.3150 0.7077
vt 0.3153 0.6988
vt 0.3292 0.7061
vt 0.3151 0.6866
vt 0.2866 0.6449
vt 0.3009 0.6714
vt 0.2866 0.6736
vt 0.3183 0.6648
vt 0.3145 0.6358
vt 0.3273 0.6689
vt 0.3265 0.6805
vt 0.3312 0.6781
vt 0.2865 0.6358
vt 0.2865 0.6693
vt 0.2739 0.6629
vt 0.3149 0.7113
vt 0.2961 0.6837
vt 0.3149 0.6781
vt 0.3433 0.7063
vt 0.3433 0.6782
vt 0.3293 0.6440
vt 0.2979 0.7111
vt 0.2944 0.6836
vt 0.3385 0.6422
vt 0.3399 0.6419
vt 0.3399 0.6644
vt 0.2866 0.7037
vt 0.2868 0.6819
vt 0.3144 0.6359
vt 0.3144 0.6780
vt 0.2569 0.6358
vt 0.2569 0.6786
vt 0.2862 0.7086
vt 0.2675 0.7096
vt 0.2865 0.6981
vt 0.2658 0.7087
vt 0.2585 0.7046
vt 0.2586 0.7032
vt 0.2587 0.6944
vt 0.2732 0.6800
vt 0.2865 0.6787
vt 0.2588 0.6793
vt 0.3643 0.6906
vt 0.3500 0.6653
vt 0.3524 0.6664
vt 0.2569 0.6787
vt 0.3516 0.6699
vt 0.3547 0.6743
vt 0.2584 0.6827
vt 0.2584 0.6927
vt 0.2576 0.7013
vt 0.2584 0.6990
vt 0.3356 0.6758
vt 0.3357 0.6758
vt 0.3491 0.6755
vt 0.2570 0.6860
vt 0.3514 0.6751
vt 0.3469 0.6757
vt 0.3413 0.6758
vt 0.3501 0.6627
vt 0.3503 0.7072
vt 0.3496 0.7025
vt 0.3379 0.6760
vt 0.2574 0.6959
vt 0.3521 0.7008
vt 0.3470 0.7027
vt 0.3434 0.6655
vt 0.3344 0.6777
vt 0.3380 0.6777
vt 0.2584 0.6958
vt 0.3533 0.7073
vt 0.3299 0.6710
vt 0.3145 0.6715
vt 0.3468 0.6769
vt 0.3532 0.6627
vt 0.3445 0.6699
vt 0.3679 0.6986
vt 0.3134 0.7355
vt 0.3003 0.6358
vt 0.3028 0.7114
vn -0.9657 0.0206 0.2589
vn 0.6176 0.2236 0.7541
vn -0.5049 0.5852 0.6345
vn 0.4814 0.1594 -0.8619
vn -0.2204 -0.5921 -0.7751
vn 0.1374 -0.8056 0.5763
vn 0.3968 0.9171 -0.0392
vn 0.2204 0.5921 0.7751
vn 0.9657 -0.0206 -0.2589
vn -0.1374 0.8056 -0.5763
vn 0.9029 -0.0973 -0.4186
vn -0.1106 -0.9918 0.0635
vn 0.0318 0.9866 0.1603
vn -0.9540 0.0861 -0.2873
vn -0.3255 0.0532 0.9440
vn -0.1216 0.9926 0.0054
vn 0.0147 -0.9911 -0.1327
vn -0.7922 -0.0928 0.6031
vn 0.7668 0.0954 -0.6348
vn -0.6167 0.0648 -0.7845
vn 0.6430 -0.0616 0.7634
vn 0.0071 0.9832 -0.1823
vn 0.0000 -1.0000 0.0000
vn -0.9959 -0.0000 -0.0908
vn 0.7691 0.0000 -0.6392
vn 0.0908 0.0000 -0.9959
vn -0.0908 0.0000 0.9959
vn 0.9627 0.0000 0.2705
vn 0.0154 0.9854 -0.1693
vn 0.1509 0.9824 -0.1102
vn 0.1218 -0.9890 0.0844
vn -0.0602 -0.0924 -0.9939
vn 0.1260 0.0966 0.9873
vn 0.9946 0.0648 -0.0817
vn -0.9928 -0.0628 0.1023
vn -0.0414 0.9838 -0.1742
vn 0.9997 0.0000 0.0237
vn 0.2309 0.0000 0.9730
vn -0.6834 0.1568 0.7130
vn 0.6423 -0.0000 -0.7665
vn -0.7066 -0.3874 -0.5921
vn 0.5741 0.6626 0.4810
vn -0.2970 0.9219 -0.2488
vn 0.2970 -0.9219 0.2488
vn 0.2462 -0.8178 -0.5201
vn 0.4534 -0.7289 0.5129
vn 0.3648 0.2116 0.9067
vn 0.3440 0.1854 -0.9205
vn -0.0236 -0.9997 0.0061
vn 0.9860 -0.0243 -0.1653
vn -0.2424 0.4884 -0.8383
vn -0.1654 -0.0021 -0.9862
vn 0.0236 0.9997 -0.0061
vn 0.1654 0.0021 0.9862
vn 0.9048 0.3599 -0.2277
vn -0.9905 0.0442 0.1299
vn -0.5705 -0.3250 0.7543
vn -0.9233 -0.2416 -0.2986
vn -0.9652 0.2425 0.0976
vn -0.6727 0.1593 0.7226
vn -0.7760 0.0108 0.6306
vn -0.7184 0.5170 0.4654
vn -0.7865 0.5952 -0.1647
vn 0.0000 0.0000 1.0000
vn 0.0000 1.0000 0.0000
vn -1.0000 -0.0000 -0.0000
vn 0.0000 -0.0000 -1.0000
vn -0.1123 0.4877 -0.8658
vn 0.8551 0.2615 0.4476
vn 0.9737 -0.2191 0.0629
vn 0.9737 -0.2191 0.0628
vn 0.6792 0.3429 -0.6489
vn 0.7865 -0.1389 -0.6018
vn 0.9992 -0.0201 0.0356
vn 0.8696 0.0113 -0.4936
vn 0.9029 -0.0972 -0.4187
vn -0.1193 0.9929 -0.0018
vn 0.0149 -0.9910 -0.1334
vn 0.0060 0.9880 -0.1545
vn 0.1450 0.9840 -0.1036
vn 0.1224 -0.9889 0.0837
vn 0.0201 0.9752 -0.2203
vn -0.9799 0.0761 0.1847
vn 0.9985 -0.0518 -0.0203
s off
f 1/1/1 4/2/1 6/3/1
f 8/4/2 10/5/2 9/6/2
f 7/7/3 6/3/3 5/8/3
f 13/9/4 12/10/4 11/11/4
f 12/10/5 3/12/5 1/13/5
f 10/14/6 1/15/6 3/16/6
f 15/17/7 16/18/7 14/19/7
f 6/20/8 8/4/8 5/21/8
f 3/16/6 9/22/6 10/14/6
f 16/23/8 15/24/8 8/4/8
f 8/25/9 13/26/9 16/27/9
f 4/28/8 10/5/8 6/20/8
f 8/4/8 15/24/8 5/21/8
f 11/11/5 1/13/5 2/29/5
f 14/30/9 16/27/9 13/26/9
f 11/31/10 5/32/10 15/17/10
f 7/33/10 5/32/10 2/34/10
f 15/17/10 14/19/10 13/35/10
f 13/35/10 11/31/10 15/17/10
f 1/1/1 7/7/1 2/36/1
f 12/37/9 9/38/9 3/39/9
f 19/40/11 20/41/11 17/42/11
f 21/43/12 20/44/12 22/45/12
f 18/46/13 19/47/13 17/48/13
f 20/49/14 18/50/14 17/51/14
f 21/52/15 19/53/15 18/54/15
f 23/55/16 26/56/16 25/57/16
f 27/58/17 30/59/17 28/60/17
f 26/61/18 29/62/18 25/63/18
f 27/64/19 24/65/19 23/66/19
f 28/67/20 26/68/20 24/69/20
f 25/70/21 27/71/21 23/72/21
f 32/73/22 40/74/22 39/75/22
f 42/76/23 36/77/23 41/78/23
f 40/79/24 37/80/24 33/81/24
f 41/82/25 32/83/25 39/84/25
f 36/85/26 34/86/26 32/87/26
f 37/88/27 31/89/27 33/90/27
f 35/91/28 39/84/28 31/92/28
f 34/93/24 42/94/24 40/79/24
f 35/95/23 42/76/23 41/78/23
f 31/96/29 40/74/29 33/97/29
f 44/98/30 45/99/30 43/100/30
f 49/101/31 48/102/31 47/103/31
f 46/104/32 49/105/32 45/106/32
f 47/107/33 44/108/33 43/109/33
f 48/110/34 46/111/34 44/112/34
f 45/113/35 47/114/35 43/115/35
f 51/116/36 54/117/36 53/118/36
f 55/119/23 58/120/23 56/121/23
f 54/122/24 57/123/24 53/124/24
f 55/125/37 52/126/37 51/127/37
f 56/128/26 54/129/26 52/130/26
f 53/131/38 55/132/38 51/133/38
f 60/134/39 61/135/39 59/136/39
f 65/137/40 64/138/40 63/139/40
f 62/140/41 65/141/41 61/135/41
f 63/142/42 60/143/42 59/144/42
f 64/145/43 62/146/43 60/147/43
f 61/148/44 63/149/44 59/150/44
f 67/151/45 69/152/45 68/153/45
f 79/154/46 80/155/46 81/156/46
f 74/157/47 77/158/47 78/159/47
f 72/160/48 75/161/48 70/162/48
f 67/151/49 68/153/49 80/155/49
f 73/163/50 81/164/50 68/165/50
f 75/166/50 73/163/50 68/165/50
f 72/160/51 85/167/51 82/168/51
f 67/151/45 70/169/45 69/152/45
f 72/160/52 70/162/52 67/170/52
f 74/171/53 78/172/53 76/173/53
f 71/174/53 84/175/53 76/173/53
f 72/160/51 83/176/51 71/177/51
f 74/157/47 73/178/47 77/158/47
f 80/179/54 73/178/54 87/180/54
f 69/181/48 70/162/48 75/161/48
f 72/160/48 71/177/48 76/182/48
f 76/182/48 75/161/48 72/160/48
f 76/183/55 77/184/55 75/166/55
f 68/153/49 81/156/49 80/155/49
f 76/173/53 86/185/53 74/171/53
f 79/186/54 73/178/54 80/179/54
f 69/187/50 75/166/50 68/165/50
f 79/188/50 81/164/50 73/163/50
f 72/160/52 67/170/52 85/167/52
f 74/157/54 87/180/54 73/178/54
f 80/155/49 88/189/49 67/151/49
f 82/190/56 85/191/56 88/192/56
f 88/192/57 80/193/57 87/194/57
f 85/191/58 67/195/58 88/192/58
f 84/196/59 83/197/59 82/190/59
f 74/198/60 86/199/60 87/194/60
f 84/196/59 82/190/59 86/199/59
f 86/199/61 88/192/61 87/194/61
f 95/200/62 93/201/62 94/202/62
f 95/200/62 92/203/62 93/201/62
f 97/204/63 95/200/63 94/202/63
f 93/205/64 106/206/64 99/207/64
f 93/208/65 99/209/65 94/210/65
f 92/203/66 95/200/66 98/211/66
f 98/211/66 96/212/66 92/203/66
f 90/213/23 91/214/23 107/215/23
f 90/216/67 104/217/67 91/218/67
f 89/219/66 96/212/66 90/220/66
f 99/209/65 105/221/65 94/210/65
f 104/217/68 98/222/68 101/223/68
f 103/224/65 102/225/65 97/226/65
f 101/223/68 97/227/68 102/228/68
f 105/221/65 97/226/65 94/210/65
f 106/206/64 89/229/64 100/230/64
f 89/231/23 107/215/23 100/232/23
f 91/233/69 104/234/69 107/235/69
f 101/236/70 102/237/70 103/238/70
f 103/238/71 105/239/71 101/236/71
f 106/240/72 100/241/72 107/235/72
f 105/239/73 99/242/73 106/240/73
f 104/234/74 101/236/74 107/235/74
f 107/235/75 105/239/75 106/240/75
f 10/14/6 4/243/6 1/15/6
f 6/20/8 10/5/8 8/4/8
f 8/25/9 12/37/9 13/26/9
f 11/11/5 12/10/5 1/13/5
f 11/31/10 2/34/10 5/32/10
f 1/1/1 6/3/1 7/7/1
f 12/37/9 8/25/9 9/38/9
f 19/40/76 22/244/76 20/41/76
f 20/49/14 21/245/14 18/50/14
f 21/52/15 22/246/15 19/53/15
f 23/55/77 24/247/77 26/56/77
f 27/58/78 29/248/78 30/59/78
f 26/61/18 30/249/18 29/62/18
f 27/64/19 28/250/19 24/65/19
f 28/67/20 30/251/20 26/68/20
f 25/70/21 29/252/21 27/71/21
f 32/73/29 34/253/29 40/74/29
f 42/76/23 38/254/23 36/77/23
f 40/79/24 42/94/24 37/80/24
f 41/82/25 36/255/25 32/83/25
f 36/85/26 38/256/26 34/86/26
f 37/88/27 35/257/27 31/89/27
f 35/91/28 41/82/28 39/84/28
f 34/93/24 38/258/24 42/94/24
f 35/95/23 37/259/23 42/76/23
f 31/96/79 39/75/79 40/74/79
f 44/98/80 46/260/80 45/99/80
f 49/101/81 50/261/81 48/102/81
f 46/104/32 50/262/32 49/105/32
f 47/107/33 48/263/33 44/108/33
f 48/110/34 50/264/34 46/111/34
f 45/113/35 49/265/35 47/114/35
f 51/116/82 52/266/82 54/117/82
f 55/119/23 57/267/23 58/120/23
f 54/122/24 58/268/24 57/123/24
f 55/125/37 56/269/37 52/126/37
f 56/128/26 58/270/26 54/129/26
f 53/131/38 57/271/38 55/132/38
f 60/134/39 62/140/39 61/135/39
f 65/137/40 66/272/40 64/138/40
f 62/140/41 66/273/41 65/141/41
f 63/142/42 64/274/42 60/143/42
f 64/145/43 66/275/43 62/146/43
f 61/148/44 65/276/44 63/149/44
f 75/166/50 77/184/50 73/163/50
f 71/174/53 83/277/53 84/175/53
f 72/160/51 82/168/51 83/176/51
f 76/183/55 78/278/55 77/184/55
f 76/173/53 84/175/53 86/185/53
f 86/199/83 82/190/83 88/192/83
f 97/204/63 98/211/63 95/200/63
f 93/205/64 92/279/64 106/206/64
f 90/216/67 96/280/67 104/217/67
f 89/219/66 92/203/66 96/212/66
f 104/217/68 96/280/68 98/222/68
f 101/223/68 98/222/68 97/227/68
f 105/221/65 103/224/65 97/226/65
f 106/206/64 92/279/64 89/229/64
f 89/231/23 90/213/23 107/215/23
f 107/235/84 101/236/84 105/239/84
