# Blender v2.77 (sub 0) OBJ File: 'LowPoly_Level_Kit_Rocks.blend'
# www.blender.org
g Rock_Block_m_09
v -0.504172 0.060112 0.315000
v -0.606548 0.060112 0.254778
v -0.504172 -0.000110 0.254779
v 0.362076 0.060112 -0.315000
v 0.464452 0.060112 -0.254779
v 0.362076 -0.000109 -0.254779
v 0.362076 0.569669 0.315000
v 0.464452 0.569669 0.254779
v 0.362076 0.629891 0.254779
v 0.362076 0.629891 -0.254779
v 0.464452 0.569669 -0.254778
v 0.362076 0.569669 -0.315000
v -0.087877 0.629891 -0.254779
v -0.141772 0.569669 -0.315000
v -0.359976 0.569669 0.315000
v -0.264365 0.629891 0.254779
v -0.606548 0.354225 0.254779
v -0.504172 0.453504 0.315000
v -0.606548 0.060112 -0.080375
v -0.504172 -0.000109 -0.223722
v -0.446678 0.060112 -0.315000
v -0.483010 -0.000109 -0.254779
v -0.466063 0.308417 -0.315000
v -0.606548 0.254494 -0.102647
v 0.284507 0.060112 0.315000
v 0.213204 -0.000109 0.254779
v 0.464452 0.060112 -0.082867
v 0.362076 -0.000109 -0.074384
v 0.464452 0.153438 0.254779
v 0.362076 0.107517 0.315000
vt 0.0797 0.6948
vt 0.0764 0.7006
vt 0.0764 0.6944
vt 0.0829 0.6864
vt 0.0829 0.6928
vt 0.0797 0.6870
vt 0.0795 0.7359
vt 0.0758 0.7411
vt 0.0764 0.7346
vt 0.0493 0.7318
vt 0.0487 0.7383
vt 0.0460 0.7324
vt 0.0271 0.6403
vt 0.0428 0.6463
vt 0.0218 0.6463
vt 0.0124 0.7107
vt 0.0156 0.7007
vt 0.0156 0.7163
vt 0.0586 0.7006
vt 0.1100 0.6864
vt 0.1133 0.6619
vt 0.1133 0.6870
vt 0.1067 0.7294
vt 0.0795 0.7294
vt 0.1067 0.7197
vt 0.0493 0.6456
vt 0.0460 0.6916
vt 0.0460 0.6460
vt 0.0797 0.6504
vt 0.0764 0.6540
vt 0.0797 0.6463
vt 0.0589 0.6456
vt 0.0493 0.6932
vt 0.0764 0.6408
vt 0.0156 0.6952
vt 0.0378 0.7007
vt 0.0156 0.7007
vt 0.0156 0.7329
vt 0.0347 0.7219
vt 0.0335 0.7329
vt 0.0584 0.6403
vt 0.1100 0.6583
vt 0.0961 0.6403
vt 0.0428 0.6403
vt 0.0460 0.7329
vt 0.0460 0.7189
vt 0.0412 0.7364
vt 0.0124 0.6596
vt 0.0124 0.6949
vt 0.0428 0.7364
vt 0.0460 0.7041
vt 0.0460 0.6865
vt 0.0460 0.6460
vt 0.0124 0.7041
vt 0.0428 0.7007
vt 0.0829 0.6413
vt 0.0509 0.6944
vt 0.0428 0.6908
vt 0.0156 0.6545
vt 0.0795 0.7006
vt 0.0516 0.7074
vt 0.0795 0.7006
vt 0.0403 0.6952
vt 0.0493 0.6403
vt 0.1017 0.7006
vt 0.1100 0.6928
vn -0.3840 -0.6529 0.6529
vn 0.3840 -0.6529 -0.6529
vn 0.3840 0.6529 0.6529
vn 0.3840 0.6529 -0.6529
vn -0.5070 0.0000 0.8619
vn -0.6130 0.7610 -0.2123
vn -0.5070 -0.8619 -0.0000
vn -0.0000 0.7071 -0.7071
vn 1.0000 0.0000 0.0000
vn 0.0000 -0.7071 -0.7071
vn 0.5075 -0.8305 0.2295
vn 0.0000 -1.0000 -0.0000
vn 0.5070 -0.0000 0.8619
vn -1.0000 -0.0000 -0.0000
vn 0.5070 0.8619 0.0000
vn 0.0000 0.0000 -1.0000
vn 0.5070 -0.8619 -0.0000
vn -0.8247 -0.0644 -0.5619
vn -0.0000 0.7071 0.7071
vn 0.0000 -0.7071 0.7071
vn -0.0000 -0.0000 1.0000
vn -0.0000 1.0000 0.0000
vn 0.5070 0.0000 -0.8619
s off
f 1/1/1 2/2/1 3/3/1
f 4/4/2 5/5/2 6/6/2
f 7/7/3 8/8/3 9/9/3
f 10/10/4 11/11/4 12/12/4
f 17/13/5 1/14/5 18/15/5
f 18/16/6 16/17/6 17/18/6
f 19/19/7 3/3/7 2/2/7
f 12/20/8 13/21/8 10/22/8
f 5/23/9 11/24/9 27/25/9
f 6/26/10 21/27/10 4/28/10
f 25/29/11 26/30/11 30/31/11
f 28/32/12 22/33/12 6/26/12
f 29/34/11 30/31/11 26/30/11
f 7/35/13 29/36/13 8/37/13
f 2/38/14 24/39/14 19/40/14
f 29/34/11 28/32/11 27/41/11
f 9/9/15 11/11/15 10/10/15
f 14/42/16 4/4/16 23/43/16
f 6/26/17 27/41/17 28/32/17
f 17/13/5 2/44/5 1/14/5
f 21/45/18 24/39/18 23/46/18
f 19/40/18 24/39/18 20/47/18
f 16/48/19 7/35/19 9/49/19
f 22/50/18 20/47/18 21/45/18
f 14/51/6 23/46/6 24/39/6
f 26/52/20 1/14/20 3/53/20
f 18/16/6 15/54/6 16/17/6
f 14/51/6 24/39/6 13/55/6
f 4/4/16 21/56/16 23/43/16
f 20/57/12 26/30/12 3/3/12
f 19/19/7 20/57/7 3/3/7
f 25/58/21 15/59/21 18/15/21
f 8/60/9 27/25/9 11/24/9
f 16/17/6 24/39/6 17/18/6
f 9/9/22 13/61/22 16/62/22
f 1/14/21 25/58/21 18/15/21
f 30/63/21 7/35/21 15/59/21
f 12/20/23 5/5/23 4/4/23
f 12/20/8 14/42/8 13/21/8
f 6/26/10 22/33/10 21/27/10
f 28/32/12 20/57/12 22/33/12
f 7/35/13 30/63/13 29/36/13
f 2/38/14 17/18/14 24/39/14
f 29/34/11 26/30/11 28/32/11
f 9/9/15 8/8/15 11/11/15
f 14/42/16 12/20/16 4/4/16
f 6/26/17 5/64/17 27/41/17
f 21/45/18 20/47/18 24/39/18
f 16/48/19 15/59/19 7/35/19
f 26/52/20 25/58/20 1/14/20
f 20/57/12 28/32/12 26/30/12
f 25/58/21 30/63/21 15/59/21
f 8/60/9 29/65/9 27/25/9
f 16/17/6 13/55/6 24/39/6
f 9/9/22 10/10/22 13/61/22
f 12/20/23 11/66/23 5/5/23
