# Blender v2.77 (sub 0) OBJ File: 'LowPoly_Level_Kit_Rocks.blend'
# www.blender.org
g Rock_Block_m_08
v -0.438598 0.077867 0.342922
v -0.585066 0.077867 0.257073
v -0.438598 0.000000 0.257073
v -0.438598 0.077867 -0.342922
v -0.438598 0.000000 -0.257073
v -0.585066 0.077867 -0.257073
v 0.438598 0.077867 0.342922
v 0.438598 0.000000 0.257073
v 0.585066 0.077867 0.257073
v 0.585066 0.077867 -0.257073
v 0.438598 0.000000 -0.257073
v 0.438598 0.077867 -0.342922
v -0.070732 0.622080 -0.257073
v 0.585066 0.256351 -0.257073
v 0.438598 0.189843 -0.342922
v 0.438598 0.596212 -0.107508
v 0.585066 0.517998 -0.105499
v -0.438598 0.570072 0.043632
v -0.585066 0.493372 0.036886
v -0.438598 0.412318 -0.342922
v -0.585066 0.373405 -0.257073
v -0.187576 0.539051 -0.342922
v -0.438598 0.225207 0.342922
v -0.585066 0.458643 0.237687
v 0.438598 0.549739 0.161197
v 0.438598 0.164214 0.342922
v 0.585066 0.336156 0.257073
v 0.585066 0.465864 0.195932
v -0.438598 0.544325 0.192499
vt 0.9245 0.6852
vt 0.9195 0.6921
vt 0.9195 0.6852
vt 0.8843 0.6852
vt 0.8893 0.6852
vt 0.8893 0.6921
vt 0.9858 0.7360
vt 0.9903 0.7376
vt 0.9853 0.7438
vt 0.8893 0.6373
vt 0.8893 0.6441
vt 0.8843 0.6441
vt 0.9807 0.7358
vt 0.9701 0.7432
vt 0.9665 0.6918
vt 0.9798 0.6971
vt 0.9610 0.6988
vt 0.9245 0.7065
vt 0.9489 0.7168
vt 0.9265 0.7159
vt 0.9888 0.6925
vt 0.9884 0.6975
vt 0.9101 0.6921
vt 0.8997 0.7162
vt 0.8950 0.6921
vt 0.9303 0.6381
vt 0.9460 0.6376
vt 0.9460 0.6445
vt 0.9289 0.6622
vt 0.9245 0.6569
vt 0.9252 0.6451
vt 0.8843 0.7091
vt 0.8874 0.6950
vt 0.9548 0.6854
vt 0.9389 0.6858
vt 0.9548 0.6442
vt 0.9195 0.6441
vt 0.9625 0.7438
vt 0.9580 0.7378
vt 0.9729 0.6918
vt 0.9909 0.6852
vt 0.9896 0.6910
vt 0.9195 0.6373
vt 0.9489 0.6927
vt 0.9315 0.6927
vt 0.9648 0.6750
vt 0.9846 0.6455
vt 0.9720 0.6861
vt 0.9624 0.6373
vt 0.9795 0.6381
vt 0.9580 0.6442
vt 0.9588 0.6690
vt 0.9896 0.6376
vt 0.9909 0.6452
vt 0.9401 0.6927
vt 0.9580 0.6922
vt 0.9245 0.6441
vt 0.9101 0.7162
vt 0.9580 0.6373
vn -0.3664 -0.6892 0.6251
vn -0.3664 -0.6892 -0.6251
vn 0.3664 -0.6892 0.6251
vn 0.3664 -0.6892 -0.6251
vn 0.5057 0.0000 0.8627
vn 0.0296 0.4262 0.9041
vn -1.0000 -0.0000 0.0000
vn -0.5057 0.0000 0.8627
vn 0.0000 -0.7407 -0.6718
vn 1.0000 0.0000 0.0000
vn -0.4235 0.8388 -0.3423
vn -0.4372 0.8660 -0.2425
vn 0.0000 0.9854 0.1704
vn -0.0000 0.0000 1.0000
vn -0.4640 0.8729 0.1510
vn -0.4694 -0.8830 0.0000
vn 0.0000 -1.0000 0.0000
vn -0.5057 0.0000 -0.8627
vn 0.4694 -0.8830 0.0000
vn 0.0000 0.0000 -1.0000
vn 0.2692 0.4828 -0.8333
vn 0.5057 0.0000 -0.8627
vn 0.4640 0.8729 0.1510
vn -0.5370 0.0429 0.8425
vn 0.0000 -0.7407 0.6718
vn -0.4026 0.8475 -0.3459
s off
f 1/1/1 2/2/1 3/3/1
f 4/4/2 5/5/2 6/6/2
f 7/7/3 8/8/3 9/9/3
f 10/10/4 11/11/4 12/12/4
f 26/13/5 9/9/5 27/14/5
f 24/15/6 23/16/6 29/17/6
f 19/18/7 2/19/7 24/20/7
f 23/16/8 2/21/8 1/22/8
f 11/11/9 4/4/9 12/12/9
f 9/23/10 14/24/10 27/25/10
f 21/26/11 19/27/11 18/28/11
f 13/29/12 22/30/12 20/31/12
f 27/25/10 17/32/10 28/33/10
f 18/28/13 25/34/13 16/35/13
f 1/22/14 26/13/14 23/16/14
f 19/27/15 29/36/15 18/28/15
f 5/5/16 2/2/16 6/6/16
f 26/13/5 7/7/5 9/9/5
f 3/3/17 11/11/17 8/37/17
f 27/14/6 28/38/6 25/39/6
f 21/40/18 4/41/18 6/42/18
f 23/16/6 26/13/6 27/14/6
f 8/37/19 10/10/19 9/43/19
f 6/44/7 19/18/7 21/45/7
f 22/46/20 15/47/20 20/48/20
f 17/49/21 14/50/21 16/51/21
f 25/39/6 23/16/6 27/14/6
f 13/52/21 16/51/21 14/50/21
f 15/47/22 10/53/22 12/54/22
f 17/55/23 25/34/23 28/56/23
f 15/47/20 4/41/20 20/48/20
f 16/35/13 13/29/13 18/28/13
f 13/52/21 15/47/21 22/46/21
f 18/28/11 20/31/11 21/26/11
f 23/16/24 24/15/24 2/21/24
f 3/3/25 7/57/25 1/1/25
f 11/11/9 5/5/9 4/4/9
f 9/23/10 10/58/10 14/24/10
f 27/25/10 14/24/10 17/32/10
f 18/28/13 29/36/13 25/34/13
f 1/22/14 7/7/14 26/13/14
f 19/27/15 24/59/15 29/36/15
f 5/5/16 3/3/16 2/2/16
f 3/3/17 5/5/17 11/11/17
f 21/40/18 20/48/18 4/41/18
f 8/37/19 11/11/19 10/10/19
f 6/44/7 2/19/7 19/18/7
f 25/39/6 29/17/6 23/16/6
f 15/47/22 14/50/22 10/53/22
f 17/55/23 16/35/23 25/34/23
f 15/47/20 12/54/20 4/41/20
f 13/52/21 14/50/21 15/47/21
f 18/28/26 13/29/26 20/31/26
f 3/3/25 8/37/25 7/57/25
