# Blender v2.77 (sub 0) OBJ File: 'LowPoly_Level_Kit_Rocks.blend'
# www.blender.org
g Rock_Block_crk_m_03
v -1.284137 0.108663 0.316472
v -1.324678 0.011564 0.160932
v -1.018741 0.044464 0.538882
v -0.729143 0.147061 0.503204
v -0.607181 -0.005857 0.574140
v -1.109777 0.228760 0.300566
v -0.704615 0.112979 0.014745
v -0.795137 0.015803 -0.091328
v -0.834759 0.278438 0.283702
v -1.206664 0.105400 0.160310
v -0.984002 -0.002561 0.190759
v 0.615600 0.000000 0.268629
v 0.484705 0.000000 0.341172
v -0.484705 0.000000 0.341172
v -0.615600 0.000000 0.268629
v 0.484705 0.000000 -0.341172
v 0.615600 0.000000 -0.268629
v 0.484705 0.720000 -0.268629
v 0.615600 0.643453 -0.268629
v 0.484705 0.643453 -0.341172
v -0.615600 0.000000 -0.268629
v -0.484705 0.000000 -0.341172
v 0.615600 0.400037 0.268629
v 0.484705 0.388065 0.341172
v -0.158067 0.778685 0.248432
v -0.066544 0.643453 0.341172
v 0.484705 0.748358 -0.018771
v 0.615600 0.643453 0.025449
v -0.324926 0.743711 -0.059719
v -0.484705 0.520748 -0.341172
v -0.615600 0.531525 -0.268629
v 0.079027 0.720000 -0.268629
v -0.032471 0.643453 -0.341172
v -0.615600 0.312683 0.268629
v -0.484705 0.232103 0.341172
vt 0.2195 0.7090
vt 0.2152 0.6997
vt 0.2273 0.7100
vt 0.2029 0.7404
vt 0.1975 0.7351
vt 0.2029 0.7251
vt 0.1921 0.7300
vt 0.2236 0.7149
vt 0.2306 0.6923
vt 0.2244 0.6910
vt 0.1686 0.7120
vt 0.1603 0.7037
vt 0.1635 0.6948
vt 0.1686 0.6911
vt 0.1954 0.7203
vt 0.2008 0.7146
vt 0.1576 0.6911
vt 0.1603 0.6954
vt 0.1487 0.7001
vt 0.1361 0.6969
vt 0.1603 0.7163
vt 0.1451 0.7124
vt 0.1367 0.7026
vt 0.1549 0.6503
vt 0.1561 0.6459
vt 0.1586 0.6505
vt 0.1921 0.7057
vt 0.1921 0.6910
vt 0.2125 0.6910
vt 0.2016 0.6459
vt 0.2220 0.6459
vt 0.2248 0.6507
vt 0.2248 0.6862
vt 0.2220 0.6910
vt 0.2016 0.6910
vt 0.1989 0.6862
vt 0.1989 0.6507
vt 0.1893 0.7196
vt 0.1921 0.7005
vt 0.1921 0.7196
vt 0.1606 0.6862
vt 0.1586 0.6693
vt 0.1689 0.6886
vt 0.1361 0.6745
vt 0.1549 0.6650
vt 0.1473 0.6800
vt 0.1731 0.6906
vt 0.1843 0.6864
vt 0.1835 0.6910
vt 0.1985 0.6909
vt 0.1689 0.7081
vt 0.1893 0.7001
vt 0.2125 0.7146
vt 0.2013 0.7146
vt 0.1989 0.6863
vt 0.1902 0.6510
vt 0.1989 0.6509
vt 0.1689 0.6535
vt 0.1458 0.6507
vt 0.1460 0.6466
vt 0.1747 0.6664
vt 0.1689 0.6857
vt 0.1691 0.6629
vt 0.1985 0.6459
vt 0.2152 0.6910
vt 0.2152 0.7146
vt 0.1697 0.6910
vt 0.1814 0.6923
vt 0.2306 0.7138
vt 0.1689 0.7196
vt 0.1579 0.6911
vt 0.1868 0.6460
vn -0.1793 0.7968 -0.5770
vn -0.0294 0.4013 0.9155
vn -0.2096 0.7913 0.5744
vn -0.5602 0.7744 -0.2941
vn 0.7827 0.6224 -0.0041
vn -0.3889 0.6509 0.6519
vn 0.5176 -0.8034 0.2943
vn -0.0336 -0.9956 -0.0873
vn 0.2372 -0.9410 -0.2412
vn -0.3099 -0.9458 0.0968
vn -0.0822 -0.8356 0.5431
vn 0.3732 0.6382 -0.6734
vn 1.0000 0.0000 0.0000
vn 0.0000 -1.0000 0.0000
vn -0.4847 0.0000 -0.8747
vn 0.0000 0.0000 -1.0000
vn -0.0000 0.9936 -0.1128
vn -0.2230 0.8218 -0.5244
vn 0.3112 0.6717 0.6723
vn 0.4847 0.0000 0.8747
vn 0.0000 0.6879 -0.7258
vn -1.0000 0.0000 0.0000
vn -0.0000 0.0000 1.0000
vn 0.6254 0.7803 0.0000
vn -0.4847 0.0000 0.8747
vn 0.4847 0.0000 -0.8747
vn -0.3507 0.3565 0.8660
vn -0.6767 0.6769 0.2896
vn -0.6877 0.6724 0.2739
vn -0.1000 0.7682 0.6323
vn -0.5928 0.7435 -0.3096
vn -0.3816 0.4747 -0.7931
vn -0.1306 -0.9842 0.1199
vn 0.5024 0.8591 -0.0975
vn -0.2950 0.3285 0.8972
s off
f 6/1/1 9/2/1 10/3/1
f 5/4/2 4/5/2 3/6/2
f 9/7/3 3/6/3 4/5/3
f 10/3/4 1/8/4 6/1/4
f 8/9/1 10/3/1 7/10/1
f 7/11/5 9/12/5 4/13/5
f 4/13/5 5/14/5 7/11/5
f 9/2/1 7/10/1 10/3/1
f 6/15/6 1/16/6 3/6/6
f 8/17/7 7/18/7 11/19/7
f 2/20/8 8/17/8 11/19/8
f 11/19/9 7/18/9 5/21/9
f 11/19/10 3/22/10 1/23/10
f 1/23/11 2/20/11 11/19/11
f 18/24/12 19/25/12 20/26/12
f 23/27/13 12/28/13 17/29/13
f 17/30/14 12/31/14 13/32/14
f 13/32/14 14/33/14 15/34/14
f 15/34/14 21/35/14 22/36/14
f 22/36/14 16/37/14 17/30/14
f 21/38/15 30/39/15 22/40/15
f 30/41/16 33/42/16 22/43/16
f 25/44/17 32/45/17 29/46/17
f 29/46/18 32/45/18 33/42/18
f 28/47/19 24/48/19 23/49/19
f 24/48/20 12/50/20 23/49/20
f 22/36/14 13/32/14 15/34/14
f 20/26/21 32/45/21 18/24/21
f 21/38/22 34/51/22 31/52/22
f 17/29/13 19/53/13 28/54/13
f 28/54/13 23/27/13 17/29/13
f 13/55/23 35/56/23 14/57/23
f 16/58/16 33/42/16 20/26/16
f 27/59/17 18/24/17 32/45/17
f 19/25/24 27/59/24 28/60/24
f 24/48/23 26/61/23 35/56/23
f 26/61/19 27/62/19 25/63/19
f 30/41/18 29/46/18 33/42/18
f 35/56/25 15/64/25 14/57/25
f 19/53/26 16/65/26 20/66/26
f 25/63/27 35/56/27 26/61/27
f 25/67/28 29/68/28 34/51/28
f 31/52/29 34/51/29 29/68/29
f 9/7/30 6/15/30 3/6/30
f 10/3/31 2/69/31 1/8/31
f 8/9/32 2/69/32 10/3/32
f 11/19/33 5/21/33 3/22/33
f 21/38/15 31/52/15 30/39/15
f 25/44/17 27/59/17 32/45/17
f 28/47/19 26/61/19 24/48/19
f 24/48/20 13/55/20 12/50/20
f 22/36/14 17/30/14 13/32/14
f 20/26/21 33/42/21 32/45/21
f 21/38/22 15/70/22 34/51/22
f 13/55/23 24/48/23 35/56/23
f 16/58/16 22/43/16 33/42/16
f 19/25/34 18/24/34 27/59/34
f 26/61/19 28/47/19 27/62/19
f 30/41/18 31/71/18 29/46/18
f 35/56/25 34/72/25 15/64/25
f 19/53/26 17/29/26 16/65/26
f 25/63/35 34/72/35 35/56/35
