# Blender v2.77 (sub 0) OBJ File: 'LowPoly_Level_Kit_Rocks.blend'
# www.blender.org
g Rock_Blocks_m_03
v 1.731849 0.640987 0.027871
v 1.731849 0.605297 0.063561
v 1.667606 0.640987 0.063561
v 1.731849 0.605297 0.622181
v 1.731849 0.640988 0.657871
v 1.667606 0.640988 0.622181
v 2.823083 1.199607 0.622181
v 2.758841 1.235297 0.622181
v 2.758841 1.199607 0.657871
v 2.758840 0.605297 0.622181
v 2.823083 0.640987 0.622181
v 2.758840 0.640987 0.657871
v 2.758840 0.605297 0.252932
v 2.823083 0.640987 0.300167
v 2.758840 0.738807 0.027871
v 2.823083 0.781346 0.063561
v 2.645565 0.605297 0.063561
v 2.660204 0.640987 0.027871
v 1.731849 1.077711 0.027871
v 1.667606 1.005314 0.063561
v 1.731849 1.235297 0.256544
v 1.667606 1.199607 0.345500
v 1.819935 1.235297 0.063561
v 1.812586 1.199607 0.027871
v 2.758840 1.046629 0.027871
v 2.758840 1.235297 0.159606
v 2.823083 1.199607 0.172556
v 2.595911 1.235297 0.063561
v 2.823083 1.043508 0.063561
v 2.577641 1.199607 0.027871
v 0.615772 0.635690 0.000001
v 0.615772 0.600000 0.035691
v 0.551529 0.635690 0.035691
v 1.601092 0.635690 0.630001
v 1.601092 0.600000 0.594310
v 1.665334 0.635690 0.594310
v 1.665334 0.635690 0.035691
v 1.601092 0.600000 0.035691
v 1.601092 0.635690 0.000001
v 1.601092 1.230000 0.035691
v 1.665334 1.194310 0.035691
v 1.601092 1.194310 0.000001
v 1.601092 1.230000 0.404940
v 1.665334 1.194310 0.357705
v 1.601092 1.096490 0.630001
v 1.665334 1.053952 0.594310
v 1.487816 1.230000 0.594310
v 1.502456 1.194310 0.630001
v 0.615772 0.757586 0.630001
v 0.551529 0.829983 0.594310
v 0.615772 0.600000 0.401327
v 0.551529 0.635690 0.312372
v 0.703858 0.600000 0.594310
v 0.696509 0.635690 0.630001
v 2.206079 0.594310 0.000002
v 2.270322 0.594310 0.035692
v 2.206079 0.630000 0.035692
v 2.206079 0.035690 0.000002
v 2.206079 0.000000 0.035692
v 2.270322 0.035690 0.035692
v 2.270322 0.594310 0.594312
v 2.206079 0.594310 0.630002
v 2.206079 0.630000 0.594312
v 1.136322 0.594310 0.035692
v 1.200564 0.594310 0.000002
v 1.200564 0.630000 0.035692
v 1.136322 0.594310 0.594312
v 1.200564 0.630000 0.594312
v 1.200564 0.594310 0.630002
v 1.200564 0.000000 0.594312
v 1.136322 0.035690 0.594312
v 1.200564 0.035690 0.630002
v 0.064242 0.035690 0.605629
v -0.000000 0.035690 0.569939
v 0.064242 0.000000 0.569939
v 0.064242 0.035690 -0.024371
v 0.064242 0.000000 0.011319
v -0.000000 0.035690 0.011319
v 0.064242 0.630000 0.011319
v 0.064242 0.594310 -0.024371
v -0.000000 0.594310 0.011319
v 1.069757 0.035690 0.605629
v 1.069757 0.000000 0.569939
v 1.134000 0.035690 0.569939
v 1.069757 0.630000 0.569939
v 1.069757 0.594310 0.605629
v 1.134000 0.594310 0.569939
v 1.134000 0.035690 0.011319
v 1.069757 0.000000 0.011319
v 1.069757 0.035690 -0.024371
v 0.615772 1.230000 0.145585
v 0.551529 1.194310 0.165229
v 0.615772 1.114088 0.000001
v 0.551529 1.091174 0.035691
v 0.725277 1.230000 0.035691
v 0.716173 1.194310 0.000001
v 0.551529 1.120342 0.072327
v 0.615772 1.025327 0.630001
v 0.551529 1.194310 0.493048
v 0.809757 1.230000 0.594310
v 0.837449 1.194310 0.630001
v 0.551529 1.033155 0.594310
v 0.615772 1.230000 0.501394
v 0.064242 0.513363 0.605629
v -0.000000 0.427321 0.569939
v 0.064242 0.630000 0.460850
v -0.000000 0.594310 0.362660
v 0.113425 0.630000 0.569939
v 0.109543 0.594310 0.605629
v 2.206079 0.099086 0.630002
v 2.108452 0.035690 0.630002
v 2.078913 0.000000 0.594312
v 2.270322 0.035690 0.402766
v 2.206079 0.000000 0.415793
v 2.270322 0.124293 0.594312
v 1.136322 0.035690 0.084994
v 1.200564 0.000000 0.104021
v 1.336883 0.000000 0.035692
v 1.200564 0.072469 0.000002
v 1.136322 0.070038 0.035692
v 1.305884 0.035690 0.000002
v 1.045535 0.630000 0.011319
v 1.051064 0.594310 -0.024371
v 1.134000 0.391300 0.011319
v 1.069757 0.543870 -0.024371
v 1.069757 0.630000 0.123614
v 1.134000 0.594310 0.360124
v 1.731849 1.131237 0.657871
v 1.667606 1.023068 0.622181
v 1.667606 1.199607 0.511757
v 1.750124 1.235297 0.622181
v 1.758432 1.199607 0.657871
vt 0.4663 0.6843
vt 0.4583 0.6844
vt 0.4650 0.6806
vt 0.4194 0.6761
vt 0.4194 0.6826
vt 0.4138 0.6838
vt 0.4630 0.7294
vt 0.4643 0.7297
vt 0.4629 0.7318
vt 0.4205 0.7307
vt 0.4218 0.7306
vt 0.4218 0.7328
vt 0.4226 0.6477
vt 0.4226 0.6498
vt 0.4213 0.6499
vt 0.4451 0.6844
vt 0.4451 0.6865
vt 0.4438 0.6844
vt 0.4500 0.7313
vt 0.4475 0.7289
vt 0.4566 0.6865
vt 0.0419 0.6502
vt 0.0314 0.6483
vt 0.0419 0.6483
vt 0.4226 0.6837
vt 0.4325 0.6865
vt 0.4265 0.6865
vt 0.4663 0.6811
vt 0.4650 0.6499
vt 0.4182 0.6838
vt 0.3037 0.6333
vt 0.3223 0.6356
vt 0.3037 0.6356
vt 0.4610 0.6953
vt 0.4643 0.6987
vt 0.4432 0.7260
vt 0.4443 0.7007
vt 0.4425 0.6814
vt 0.4357 0.6844
vt 0.4425 0.6553
vt 0.4080 0.7033
vt 0.4164 0.7079
vt 0.4164 0.7167
vt 0.4391 0.6498
vt 0.4125 0.7219
vt 0.4500 0.6949
vt 0.0946 0.6406
vt 0.0874 0.6366
vt 0.0933 0.6362
vt 0.0818 0.7367
vt 0.0755 0.7367
vt 0.0744 0.7319
vt 0.0925 0.7165
vt 0.0936 0.7167
vt 0.0925 0.7186
vt 0.0754 0.6531
vt 0.0743 0.6530
vt 0.0743 0.6511
vt 0.0562 0.6511
vt 0.0562 0.6530
vt 0.0550 0.6531
vt 0.0430 0.6502
vt 0.0356 0.6825
vt 0.0293 0.6846
vt 0.0290 0.6825
vt 0.7352 0.6838
vt 0.7190 0.6741
vt 0.7292 0.6686
vt 0.0755 0.7297
vt 0.0562 0.6831
vt 0.0652 0.6851
vt 0.0562 0.6851
vt 0.0743 0.6804
vt 0.0680 0.6831
vt 0.0945 0.6373
vt 0.0744 0.7356
vt 0.0754 0.6548
vt 0.0756 0.6379
vt 0.0860 0.6379
vt 0.0419 0.6870
vt 0.0419 0.7146
vt 0.0379 0.6846
vt 0.3023 0.6680
vt 0.3105 0.6715
vt 0.3023 0.6714
vt 0.3249 0.6738
vt 0.3249 0.6715
vt 0.3262 0.6715
vt 0.3268 0.6833
vt 0.3254 0.6835
vt 0.3254 0.6810
vt 0.3276 0.6761
vt 0.3262 0.6760
vt 0.3276 0.6737
vt 0.3010 0.7127
vt 0.3023 0.7127
vt 0.3010 0.7150
vt 0.2798 0.7127
vt 0.2798 0.7150
vt 0.2784 0.7127
vt 0.3488 0.6761
vt 0.3488 0.6737
vt 0.3501 0.6760
vt 0.7179 0.6698
vt 0.7222 0.6674
vt 0.6638 0.7248
vt 0.6638 0.7267
vt 0.6627 0.7249
vt 0.7168 0.6621
vt 0.7178 0.6623
vt 0.7168 0.6640
vt 0.6995 0.6623
vt 0.7005 0.6621
vt 0.7005 0.6640
vt 0.6811 0.6627
vt 0.6821 0.6627
vt 0.6821 0.6644
vt 0.6638 0.6662
vt 0.6627 0.6662
vt 0.6638 0.6645
vt 0.6984 0.6644
vt 0.6984 0.6627
vt 0.6995 0.6627
vt 0.6801 0.6938
vt 0.6698 0.6956
vt 0.6670 0.6938
vt 0.7064 0.6333
vt 0.7168 0.6349
vt 0.7020 0.6349
vt 0.6699 0.6645
vt 0.6768 0.6662
vt 0.0299 0.6502
vt 0.0238 0.6743
vt 0.0238 0.6536
vt 0.6777 0.7248
vt 0.6638 0.6973
vt 0.6752 0.7267
vt 0.4119 0.6638
vt 0.4182 0.6731
vt 0.3982 0.6638
vt 0.4354 0.7328
vt 0.3249 0.6405
vt 0.3262 0.6393
vt 0.6801 0.7236
vt 0.6801 0.6973
vt 0.4417 0.7297
vt 0.4393 0.7306
vt 0.4417 0.6961
vt 0.6638 0.6925
vt 0.6627 0.6926
vt 0.4451 0.6499
vt 0.3110 0.6738
vt 0.4218 0.6961
vt 0.4417 0.6941
vt 0.3042 0.6872
vt 0.3254 0.7189
vt 0.3042 0.7189
vt 0.0777 0.7186
vt 0.0770 0.7165
vt 0.3037 0.6670
vt 0.4112 0.6826
vt 0.0936 0.6421
vt 0.3056 0.6835
vt 0.3055 0.6810
vt 0.0754 0.6806
vt 0.4446 0.6934
vt 0.4502 0.6930
vt 0.3965 0.7220
vt 0.4213 0.6835
vt 0.6801 0.6669
vt 0.0550 0.6831
vt 0.4451 0.6477
vt 0.4430 0.7002
vt 0.4432 0.6954
vt 0.6873 0.6749
vt 0.7036 0.6857
vt 0.6976 0.6903
vt 0.0847 0.7356
vt 0.0894 0.7186
vt 0.0924 0.7209
vt 0.0238 0.6913
vt 0.0226 0.6904
vt 0.4438 0.6559
vt 0.4438 0.6817
vt 0.0377 0.6822
vt 0.0268 0.6803
vt 0.0383 0.6803
vt 0.0744 0.6868
vt 0.0925 0.6851
vt 0.0925 0.6868
vt 0.3010 0.6768
vt 0.2798 0.6745
vt 0.3010 0.6745
vt 0.2798 0.6768
vt 0.3492 0.7276
vt 0.3281 0.7406
vt 0.3281 0.7207
vt 0.0744 0.7135
vt 0.6821 0.6351
vt 0.6811 0.6351
vt 0.3254 0.7210
vt 0.0226 0.6735
vt 0.0226 0.6532
vt 0.3249 0.6332
vt 0.3262 0.6355
vt 0.3230 0.6333
vt 0.4663 0.6499
vt 0.2784 0.6768
vt 0.3023 0.6768
vt 0.3023 0.6356
vt 0.7353 0.6686
vt 0.7189 0.6674
vt 0.7178 0.6683
vt 0.6801 0.6956
vt 0.7168 0.6333
vt 0.6984 0.6351
vt 0.6821 0.6333
vt 0.6984 0.6333
vt 0.6995 0.6351
vt 0.6638 0.6956
vt 0.6801 0.6956
vt 0.7004 0.6913
vt 0.6873 0.6903
vt 0.0419 0.6769
vt 0.0407 0.6823
vt 0.0430 0.6772
vt 0.0936 0.7217
vt 0.0936 0.7356
vt 0.0419 0.6823
vt 0.0430 0.6803
vt 0.0270 0.7146
vt 0.0238 0.7116
vt 0.0755 0.7235
vt 0.0788 0.7186
vt 0.0226 0.6843
vt 0.3015 0.7221
vt 0.2803 0.7403
vt 0.2803 0.7203
vt 0.7036 0.6913
vt 0.7046 0.6881
vt 0.4157 0.6626
vt 0.4182 0.6675
vt 0.7046 0.6903
vt 0.0283 0.7164
vt 0.3454 0.7141
vt 0.3276 0.7119
vt 0.3464 0.7119
vt 0.3458 0.7208
vt 0.0935 0.6548
vt 0.3488 0.7084
vt 0.4387 0.6477
vt 0.4650 0.6864
vt 0.4595 0.6933
vt 0.3002 0.7203
vt 0.7005 0.6354
vt 0.3037 0.6737
vt 0.6811 0.6938
vt 0.6811 0.6667
vt 0.0238 0.6823
vt 0.4182 0.6626
vt 0.4194 0.6638
vt 0.7189 0.6838
vt 0.4438 0.6499
vt 0.4218 0.6941
vt 0.3982 0.6826
vt 0.3965 0.7033
vt 0.4650 0.6477
vt 0.7036 0.6749
vt 0.0271 0.6822
vt 0.0744 0.6851
vt 0.3492 0.7407
vt 0.3042 0.7210
vt 0.3015 0.7403
vt 0.0419 0.7164
vt 0.3276 0.7141
vn 0.6489 -0.6544 -0.3882
vn -0.7792 0.5161 -0.3557
vn -0.3656 -0.6581 -0.6581
vn -0.3656 -0.6581 0.6581
vn 0.3656 0.6581 0.6581
vn 0.3656 -0.6581 0.6581
vn -0.4856 -0.0000 -0.8742
vn 0.4856 -0.8742 0.0000
vn 0.4856 0.8742 0.0000
vn -0.3970 0.9178 0.0000
vn -0.0000 -1.0000 0.0000
vn -0.4856 -0.8742 0.0000
vn -0.0000 -0.0000 -1.0000
vn 0.0000 1.0000 0.0000
vn 1.0000 -0.0000 0.0000
vn 0.6489 0.6544 0.3882
vn -0.7792 -0.5161 0.3557
vn 0.3656 -0.6581 -0.6581
vn 0.3656 0.6581 -0.6581
vn -0.4856 0.0000 0.8742
vn -0.0000 -0.0000 1.0000
vn 0.5077 -0.7819 0.3617
vn -0.3656 0.6581 -0.6581
vn -0.3656 0.6581 0.6581
vn 0.9191 0.3406 -0.1982
vn -0.4856 0.8742 0.0000
vn 0.4856 0.0000 -0.8742
vn -1.0000 0.0000 0.0000
vn 0.0000 -0.7071 -0.7071
vn 0.0000 0.7071 0.7071
vn 0.0000 -0.7071 0.7071
vn 0.4856 0.0000 0.8742
vn -0.4609 0.8871 0.0230
vn 0.4352 0.5154 -0.7382
vn -0.3758 0.4930 0.7846
vn 0.0000 0.7071 -0.7071
vn -0.2754 -0.7888 -0.5495
vn -0.8121 0.4545 0.3661
vn -0.5301 0.6634 -0.5282
vn -0.8121 0.4544 0.3661
vn -0.8065 0.3136 0.5013
s off
f 15/1/1 13/2/1 17/3/1
f 21/4/2 23/5/2 19/6/2
f 1/7/3 2/8/3 3/9/3
f 4/10/4 5/11/4 6/12/4
f 7/13/5 8/14/5 9/15/5
f 10/16/6 11/17/6 12/18/6
f 1/7/7 20/19/7 19/20/7
f 10/16/8 14/21/8 11/17/8
f 40/22/9 44/23/9 41/24/9
f 131/25/10 22/26/10 130/27/10
f 18/28/1 15/1/1 17/3/1
f 17/3/11 13/2/11 2/29/11
f 23/5/2 24/30/2 19/6/2
f 1/7/7 3/9/7 20/19/7
f 71/31/12 117/32/12 70/33/12
f 15/34/13 18/35/13 1/7/13
f 24/36/13 30/37/13 19/20/13
f 23/38/14 21/39/14 28/40/14
f 14/41/15 16/42/15 29/43/15
f 26/44/14 28/40/14 21/39/14
f 27/45/15 14/41/15 29/43/15
f 30/37/13 25/46/13 19/20/13
f 45/47/16 43/48/16 47/49/16
f 51/50/17 53/51/17 49/52/17
f 31/53/3 32/54/3 33/55/3
f 34/56/6 35/57/6 36/58/6
f 37/59/18 38/60/18 39/61/18
f 40/22/19 41/24/19 42/62/19
f 50/63/20 98/64/20 102/65/20
f 84/66/15 124/67/15 127/68/15
f 50/69/17 51/50/17 49/52/17
f 32/70/12 52/71/12 33/72/12
f 53/73/11 51/74/11 35/57/11
f 48/75/16 45/47/16 47/49/16
f 53/51/17 54/76/17 49/52/17
f 37/77/15 41/78/15 44/79/15
f 32/70/12 51/74/12 52/71/12
f 54/80/21 34/81/21 49/82/21
f 111/83/22 114/84/22 110/85/22
f 60/86/18 59/87/18 58/88/18
f 66/89/23 65/90/23 64/91/23
f 69/92/24 68/93/24 67/94/24
f 63/95/5 62/96/5 61/97/5
f 57/98/19 56/99/19 55/100/19
f 72/101/4 71/102/4 70/103/4
f 124/67/25 125/104/25 126/105/25
f 73/106/4 74/107/4 75/108/4
f 76/109/3 77/110/3 78/111/3
f 79/112/23 80/113/23 81/114/23
f 82/115/6 83/116/6 84/117/6
f 85/118/5 86/119/5 87/120/5
f 88/121/18 89/122/18 90/123/18
f 79/124/26 107/125/26 106/126/26
f 124/127/27 90/128/27 125/129/27
f 85/118/9 127/130/9 126/131/9
f 43/132/14 100/133/14 47/134/14
f 104/135/21 73/106/21 82/136/21
f 73/106/20 105/137/20 74/107/20
f 129/138/28 22/139/28 6/140/28
f 5/11/20 129/141/20 6/12/20
f 58/88/29 118/142/29 121/143/29
f 109/144/21 82/136/21 86/145/21
f 132/146/21 128/147/21 9/148/21
f 86/119/30 108/149/30 109/150/30
f 12/18/31 4/151/31 10/16/31
f 113/152/8 59/87/8 60/86/8
f 12/153/32 7/154/32 9/148/32
f 121/155/13 55/156/13 58/157/13
f 31/53/7 94/158/7 93/159/7
f 118/142/11 112/160/11 70/33/11
f 21/39/33 22/26/33 131/25/33
f 20/161/28 6/140/28 22/139/28
f 43/48/16 46/162/16 44/79/16
f 64/91/7 119/163/7 120/164/7
f 53/73/31 34/56/31 54/165/31
f 50/63/20 49/82/20 98/64/20
f 25/46/34 27/166/34 29/167/34
f 7/168/15 14/41/15 27/45/15
f 132/169/30 8/14/30 131/25/30
f 79/124/14 126/131/14 122/170/14
f 39/61/29 32/70/29 31/171/29
f 13/2/11 4/151/11 2/29/11
f 6/172/12 2/29/12 4/151/12
f 25/46/34 28/173/34 26/174/34
f 20/161/2 21/4/2 19/6/2
f 78/175/28 105/176/28 107/177/28
f 52/178/28 92/179/28 97/180/28
f 98/64/35 101/181/35 100/182/35
f 23/38/36 30/183/36 24/184/36
f 92/185/26 103/186/26 91/187/26
f 36/58/8 38/60/8 37/59/8
f 42/188/27 37/189/27 39/190/27
f 68/191/26 64/192/26 67/193/26
f 63/95/14 66/194/14 68/191/14
f 113/195/15 56/196/15 61/197/15
f 111/83/22 112/160/22 114/84/22
f 96/198/13 39/190/13 31/53/13
f 57/98/9 61/97/9 56/99/9
f 75/199/31 82/115/31 73/200/31
f 56/201/27 58/157/27 55/156/27
f 47/134/30 101/202/30 48/203/30
f 120/204/37 119/205/37 116/206/37
f 121/143/37 118/142/37 117/32/37
f 17/3/29 1/207/29 18/28/29
f 66/194/36 55/100/36 65/208/36
f 63/95/30 69/209/30 62/96/30
f 72/210/31 112/160/31 111/83/31
f 87/211/15 84/66/15 127/68/15
f 122/212/25 126/105/25 125/104/25
f 127/68/25 124/67/25 126/105/25
f 125/104/25 123/213/25 122/212/25
f 79/124/26 81/214/26 107/125/26
f 75/199/11 89/122/11 83/116/11
f 80/113/7 78/111/7 81/114/7
f 124/127/27 88/215/27 90/128/27
f 77/216/12 74/217/12 78/218/12
f 85/118/9 87/120/9 127/130/9
f 89/122/29 76/219/29 90/123/29
f 86/145/32 84/220/32 87/221/32
f 83/116/8 88/121/8 84/117/8
f 105/176/38 106/222/38 107/177/38
f 81/223/28 78/175/28 107/177/28
f 42/62/36 95/224/36 40/22/36
f 93/159/13 96/198/13 31/53/13
f 97/225/39 92/185/39 91/187/39
f 91/187/39 95/224/39 96/226/39
f 52/178/28 94/227/28 33/228/28
f 94/229/39 97/225/39 93/230/39
f 126/131/14 108/149/14 85/118/14
f 95/224/14 91/187/14 100/133/14
f 103/186/14 100/133/14 91/187/14
f 51/74/11 38/60/11 35/57/11
f 45/231/21 48/232/21 101/181/21
f 119/205/37 117/32/37 116/206/37
f 52/178/28 50/69/28 102/233/28
f 102/233/28 99/234/28 92/179/28
f 98/64/21 49/82/21 101/181/21
f 103/235/35 98/64/35 100/182/35
f 116/236/28 67/237/28 64/238/28
f 108/239/40 106/222/40 104/240/40
f 128/241/41 130/242/41 129/138/41
f 104/240/38 109/243/38 108/239/38
f 34/81/32 46/244/32 45/231/32
f 73/106/20 104/135/20 105/137/20
f 115/245/32 62/246/32 110/247/32
f 61/197/15 115/248/15 113/195/15
f 37/77/15 46/162/15 36/249/15
f 110/247/21 62/246/21 111/250/21
f 8/14/9 27/251/9 26/44/9
f 13/2/1 16/252/1 14/21/1
f 125/129/13 76/109/13 80/113/13
f 119/163/13 65/90/13 121/155/13
f 43/132/14 95/224/14 100/133/14
f 25/46/27 16/253/27 15/34/27
f 93/230/39 91/187/39 96/226/39
f 117/32/11 118/142/11 70/33/11
f 59/87/11 114/84/11 118/142/11
f 21/39/14 8/14/14 26/44/14
f 64/238/28 120/254/28 116/236/28
f 12/153/21 128/147/21 5/11/21
f 123/255/13 125/129/13 80/113/13
f 19/20/13 15/34/13 1/7/13
f 101/181/21 34/81/21 45/231/21
f 114/84/22 115/256/22 110/85/22
f 111/250/21 69/92/21 72/101/21
f 80/257/36 122/170/36 123/258/36
f 129/138/28 130/242/28 22/139/28
f 102/65/35 103/235/35 99/259/35
f 128/241/41 132/260/41 131/261/41
f 5/11/20 128/147/20 129/141/20
f 72/101/20 67/94/20 71/102/20
f 10/16/8 13/2/8 14/21/8
f 40/22/9 43/132/9 44/23/9
f 71/31/12 116/206/12 117/32/12
f 84/66/15 88/262/15 124/67/15
f 50/69/17 52/178/17 51/50/17
f 58/88/29 59/87/29 118/142/29
f 109/144/21 104/135/21 82/136/21
f 86/119/30 85/118/30 108/149/30
f 12/18/31 5/263/31 4/151/31
f 113/152/8 114/84/8 59/87/8
f 12/153/32 11/264/32 7/154/32
f 121/155/13 65/90/13 55/156/13
f 31/53/7 33/55/7 94/158/7
f 118/142/11 114/84/11 112/160/11
f 20/161/28 3/265/28 6/140/28
f 43/48/16 45/47/16 46/162/16
f 64/91/7 65/90/7 119/163/7
f 53/73/31 35/57/31 34/56/31
f 25/46/34 26/174/34 27/166/34
f 7/168/15 11/266/15 14/41/15
f 132/169/30 9/15/30 8/14/30
f 79/124/14 106/126/14 126/131/14
f 39/61/29 38/60/29 32/70/29
f 13/2/11 10/16/11 4/151/11
f 6/172/12 3/267/12 2/29/12
f 25/46/34 30/37/34 28/173/34
f 20/161/2 22/139/2 21/4/2
f 78/175/28 74/268/28 105/176/28
f 52/178/28 102/233/28 92/179/28
f 23/38/36 28/40/36 30/183/36
f 92/185/26 99/269/26 103/186/26
f 36/58/8 35/57/8 38/60/8
f 42/188/27 41/270/27 37/189/27
f 68/191/26 66/194/26 64/192/26
f 63/95/14 57/98/14 66/194/14
f 113/195/15 60/271/15 56/196/15
f 96/198/13 42/188/13 39/190/13
f 57/98/9 63/95/9 61/97/9
f 75/199/31 83/116/31 82/115/31
f 56/201/27 60/272/27 58/157/27
f 47/134/30 100/133/30 101/202/30
f 17/3/29 2/29/29 1/207/29
f 66/194/36 57/98/36 55/100/36
f 63/95/30 68/191/30 69/209/30
f 72/210/31 70/33/31 112/160/31
f 75/199/11 77/216/11 89/122/11
f 80/113/7 76/109/7 78/111/7
f 77/216/12 75/199/12 74/217/12
f 89/122/29 77/216/29 76/219/29
f 86/145/32 82/136/32 84/220/32
f 83/116/8 89/122/8 88/121/8
f 105/176/38 104/240/38 106/222/38
f 42/62/36 96/226/36 95/224/36
f 52/178/28 97/180/28 94/227/28
f 126/131/14 106/126/14 108/149/14
f 51/74/11 32/70/11 38/60/11
f 119/205/37 121/143/37 117/32/37
f 103/235/35 102/65/35 98/64/35
f 116/236/28 71/273/28 67/237/28
f 128/241/41 131/261/41 130/242/41
f 34/81/32 36/274/32 46/244/32
f 115/245/32 61/275/32 62/246/32
f 37/77/15 44/79/15 46/162/15
f 8/14/9 7/13/9 27/251/9
f 13/2/1 15/1/1 16/252/1
f 125/129/13 90/128/13 76/109/13
f 43/132/14 40/22/14 95/224/14
f 25/46/27 29/167/27 16/253/27
f 93/230/39 97/225/39 91/187/39
f 21/39/14 131/25/14 8/14/14
f 12/153/21 9/148/21 128/147/21
f 19/20/13 25/46/13 15/34/13
f 101/181/21 49/82/21 34/81/21
f 114/84/22 113/152/22 115/256/22
f 111/250/21 62/246/21 69/92/21
f 80/257/36 79/124/36 122/170/36
f 72/101/20 69/92/20 67/94/20
