# Blender v2.77 (sub 0) OBJ File: 'LowPoly_Level_Kit_Rocks.blend'
# www.blender.org
g Rock_Blocks_s_04
v 0.115511 0.040241 0.159826
v 0.038221 0.022595 0.091521
v 0.050710 0.040240 0.185792
v -0.008018 0.022595 0.140889
v 0.115511 -0.000109 0.159827
v 0.038221 -0.000109 0.091521
v 0.050710 -0.000109 0.185792
v -0.008018 -0.000109 0.140889
v 0.101526 0.027031 -0.108998
v 0.139541 0.018926 -0.140070
v 0.067460 0.021726 -0.151920
v 0.108319 0.014088 -0.181130
v 0.104870 -0.003674 -0.107922
v 0.141423 0.001648 -0.139465
v 0.070803 -0.008980 -0.150845
v 0.110200 -0.003190 -0.180525
v -0.089056 0.045549 -0.177687
v -0.230684 0.068524 -0.164150
v -0.081693 0.026023 0.002705
v -0.222587 0.048999 0.013189
v -0.086091 -0.000109 -0.175703
v -0.227719 -0.000109 -0.162167
v -0.081693 -0.000109 0.002705
v -0.222587 -0.000109 0.013189
vt 0.1753 0.7183
vt 0.1572 0.6975
vt 0.1753 0.6888
vt 0.1378 0.7098
vt 0.1558 0.6894
vt 0.1558 0.7187
vt 0.1702 0.7395
vt 0.1636 0.7186
vt 0.1753 0.7186
vt 0.1479 0.7187
vt 0.1405 0.7388
vt 0.1363 0.7187
vt 0.2311 0.7230
vt 0.2376 0.7039
vt 0.2376 0.7231
vt 0.1596 0.7385
vt 0.1596 0.7187
vt 0.1974 0.7372
vt 0.2117 0.7219
vt 0.2117 0.7376
vt 0.1915 0.7407
vt 0.1775 0.7255
vt 0.1915 0.7251
vt 0.2369 0.7371
vt 0.2311 0.7231
vt 0.2400 0.7231
vt 0.2318 0.6494
vt 0.2373 0.6363
vt 0.2407 0.6494
vt 0.2117 0.7339
vt 0.2167 0.7222
vt 0.2167 0.7342
vt 0.2400 0.7039
vt 0.2311 0.6883
vt 0.2400 0.6883
vt 0.2185 0.6385
vt 0.1775 0.6870
vt 0.1772 0.6363
vt 0.1365 0.6381
vt 0.1772 0.6862
vt 0.1363 0.6888
vt 0.2311 0.6885
vt 0.2235 0.7267
vt 0.2169 0.6883
vt 0.2037 0.6890
vt 0.2169 0.7210
vt 0.1971 0.7219
vt 0.1971 0.6887
vt 0.1829 0.7251
vt 0.1772 0.6883
vt 0.2242 0.6363
vt 0.2318 0.6870
vt 0.2185 0.6876
vt 0.1558 0.7186
vt 0.1363 0.6888
vt 0.1637 0.7395
vt 0.1470 0.7388
vt 0.2311 0.7039
vt 0.1479 0.7385
vt 0.1971 0.7225
vt 0.1772 0.7402
vt 0.2319 0.7371
vt 0.2323 0.6363
vt 0.2117 0.7219
vt 0.2311 0.7039
vt 0.2185 0.6883
vt 0.1772 0.6363
vt 0.2311 0.7267
vt 0.2169 0.6883
vt 0.1971 0.7246
vt 0.2318 0.6363
vn -0.0699 0.9822 -0.1746
vn 0.0000 -1.0000 0.0000
vn -0.6074 0.0000 0.7944
vn 0.6622 0.0000 -0.7493
vn -0.7299 -0.0000 -0.6836
vn 0.3720 0.0000 0.9283
vn 0.0668 0.9824 -0.1745
vn 0.1481 -0.9890 0.0047
vn -0.5904 -0.0924 -0.8018
vn 0.6422 0.0966 0.7605
vn 0.7906 0.0648 -0.6088
vn -0.7779 -0.0628 0.6252
vn 0.1686 0.9807 0.0993
vn 0.0742 0.0000 0.9972
vn -0.1004 -0.0331 -0.9944
vn -0.9983 -0.0419 0.0410
vn 0.9974 0.0633 -0.0339
vn -0.1702 0.9724 -0.1595
vn 0.0655 0.9840 -0.1657
vn 0.1482 -0.9889 0.0038
vn 0.1674 0.9808 0.1003
vn -0.0950 -0.0494 -0.9942
vn -0.9996 -0.0000 0.0293
vn 0.9997 0.0000 -0.0246
s off
f 2/1/1 3/2/1 1/3/1
f 7/4/2 6/5/2 5/6/2
f 4/7/3 7/8/3 3/9/3
f 5/10/4 2/11/4 1/12/4
f 6/13/5 4/14/5 2/15/5
f 3/16/6 5/10/6 1/17/6
f 10/18/7 11/19/7 9/20/7
f 15/21/8 14/22/8 13/23/8
f 12/24/9 15/25/9 11/26/9
f 13/27/10 10/28/10 9/29/10
f 14/30/11 12/31/11 10/32/11
f 11/33/12 13/34/12 9/35/12
f 18/36/13 19/37/13 17/38/13
f 23/39/2 22/40/2 21/41/2
f 24/42/14 19/43/14 20/44/14
f 17/45/15 22/46/15 18/47/15
f 22/48/16 20/49/16 18/50/16
f 19/51/17 21/52/17 17/53/17
f 2/1/18 4/54/18 3/2/18
f 7/4/2 8/55/2 6/5/2
f 4/7/3 8/56/3 7/8/3
f 5/10/4 6/57/4 2/11/4
f 6/13/5 8/58/5 4/14/5
f 3/16/6 7/59/6 5/10/6
f 10/18/19 12/60/19 11/19/19
f 15/21/20 16/61/20 14/22/20
f 12/24/9 16/62/9 15/25/9
f 13/27/10 14/63/10 10/28/10
f 14/30/11 16/64/11 12/31/11
f 11/33/12 15/65/12 13/34/12
f 18/36/21 20/66/21 19/37/21
f 23/39/2 24/67/2 22/40/2
f 24/42/14 23/68/14 19/43/14
f 17/45/22 21/69/22 22/46/22
f 22/48/23 24/70/23 20/49/23
f 19/51/24 23/71/24 21/52/24
