# Blender v2.77 (sub 0) OBJ File: 'LowPoly_Level_Kit_Rocks.blend'
# www.blender.org
g Rock_Block_crk_m_05
v 0.789314 -0.002584 -0.258333
v 0.616549 0.230389 0.063188
v 0.695055 -0.001272 0.439152
v 0.593108 0.205002 0.343352
v 0.125458 0.033923 0.293066
v 0.344948 0.110724 0.375422
v 0.349248 0.030232 0.411395
v 0.701674 0.153298 -0.251690
v 0.568577 0.225143 -0.148857
v 0.151739 0.074391 -0.222911
v 0.189368 -0.002406 -0.311528
v -0.685844 0.000376 0.346339
v 0.014156 0.000376 0.346339
v 0.014156 0.000376 -0.353661
v 0.014156 0.404310 -0.353661
v 0.006338 0.477182 0.346339
v -0.685844 0.487799 0.346339
v -0.529943 0.700376 0.248319
v -0.685844 0.629711 0.256948
v -0.308827 0.625561 0.346339
v -0.608547 0.673964 -0.186632
v -0.685844 0.000376 -0.286722
v -0.603019 0.000376 -0.353661
v -0.685844 0.638736 -0.243375
v -0.551759 0.610477 -0.353661
vt 0.4778 0.6562
vt 0.4599 0.6446
vt 0.4699 0.6413
vt 0.4798 0.6723
vt 0.4736 0.6658
vt 0.4928 0.6755
vt 0.4841 0.6746
vt 0.4798 0.6589
vt 0.4773 0.7331
vt 0.4875 0.7222
vt 0.4876 0.7391
vt 0.4206 0.7146
vt 0.4284 0.7115
vt 0.4284 0.7326
vt 0.4833 0.7216
vt 0.4876 0.7112
vt 0.4556 0.6685
vt 0.4575 0.6737
vt 0.4798 0.6432
vt 0.4813 0.6452
vt 0.4928 0.6413
vt 0.4317 0.7326
vt 0.4284 0.7161
vt 0.4317 0.7115
vt 0.4072 0.6900
vt 0.3890 0.7246
vt 0.3900 0.6904
vt 0.4189 0.6945
vt 0.4189 0.7241
vt 0.4553 0.6881
vt 0.4366 0.6814
vt 0.4476 0.6772
vt 0.4556 0.6705
vt 0.4504 0.6772
vt 0.4471 0.6742
vt 0.4206 0.7115
vt 0.4210 0.6886
vt 0.4594 0.6772
vt 0.4900 0.7112
vt 0.4553 0.7112
vt 0.4553 0.6806
vt 0.4553 0.7115
vt 0.3890 0.6615
vt 0.4195 0.6675
vt 0.3892 0.6667
vt 0.4137 0.6413
vt 0.4206 0.6590
vt 0.4262 0.6771
vt 0.4553 0.6804
vt 0.4206 0.6438
vt 0.4111 0.6892
vt 0.4553 0.7451
vt 0.4751 0.7112
vt 0.4773 0.7451
vt 0.4254 0.6711
vt 0.4556 0.6413
vt 0.4206 0.6597
vt 0.4209 0.6429
vt 0.4900 0.6772
vt 0.3896 0.6421
vt 0.3911 0.6900
vt 0.4565 0.7112
vn -0.3483 0.9357 0.0556
vn 0.4026 0.9083 -0.1135
vn 0.8679 0.4830 0.1164
vn -0.0363 0.4061 0.9131
vn 0.0880 0.0917 -0.9919
vn -0.4337 0.3482 0.8311
vn -0.1388 0.7185 -0.6816
vn -0.9272 -0.3667 -0.0760
vn -0.0899 -0.9959 -0.0103
vn -0.0456 -0.9974 0.0551
vn -0.1912 0.5232 0.8305
vn -0.1289 0.9116 -0.3903
vn 0.0000 0.0000 1.0000
vn 0.0000 -1.0000 0.0000
vn -0.6277 0.0527 -0.7767
vn -1.0000 0.0000 0.0000
vn -0.4246 0.9053 0.0163
vn 0.0000 0.0000 -1.0000
vn 0.9998 0.0164 0.0095
vn 0.5173 0.8435 -0.1447
vn 0.4243 0.9011 -0.0891
vn 0.3760 0.9144 -0.1502
vn -0.0044 -0.9989 0.0461
vn -0.4119 0.9110 0.0191
vn 1.0000 0.0000 0.0000
vn 0.3390 0.9306 -0.1377
s off
f 2/1/1 5/2/1 6/3/1
f 2/1/2 8/4/2 9/5/2
f 1/6/3 8/7/3 2/8/3
f 4/9/4 7/10/4 3/11/4
f 8/12/5 1/13/5 11/14/5
f 6/15/6 5/16/6 7/10/6
f 10/17/1 2/1/1 9/5/1
f 9/5/7 11/18/7 10/17/7
f 6/3/1 4/19/1 2/1/1
f 4/20/3 3/21/3 2/8/3
f 3/21/3 1/6/3 2/8/3
f 5/22/8 10/23/8 11/24/8
f 7/25/9 1/26/9 3/27/9
f 7/25/10 5/28/10 11/29/10
f 17/30/11 20/31/11 18/32/11
f 25/33/12 24/34/12 21/35/12
f 20/31/13 13/36/13 16/37/13
f 23/38/14 13/39/14 12/40/14
f 19/41/11 17/30/11 18/32/11
f 17/30/13 12/42/13 20/31/13
f 22/43/15 25/44/15 23/45/15
f 22/43/16 17/46/16 24/47/16
f 19/48/17 21/35/17 24/34/17
f 22/49/14 23/38/14 12/40/14
f 17/46/16 19/50/16 24/47/16
f 15/51/18 23/45/18 25/44/18
f 13/52/19 15/53/19 16/54/19
f 25/33/20 21/35/20 18/55/20
f 15/56/21 20/57/21 16/58/21
f 20/57/22 25/33/22 18/55/22
f 4/9/4 6/15/4 7/10/4
f 10/17/1 5/2/1 2/1/1
f 9/5/7 8/4/7 11/18/7
f 7/25/23 11/29/23 1/26/23
f 20/31/13 12/42/13 13/36/13
f 23/38/14 14/59/14 13/39/14
f 22/43/15 24/47/15 25/44/15
f 22/43/16 12/60/16 17/46/16
f 19/48/24 18/55/24 21/35/24
f 15/51/18 14/61/18 23/45/18
f 13/52/25 14/62/25 15/53/25
f 15/56/26 25/33/26 20/57/26
