# Blender v2.77 (sub 0) OBJ File: 'LowPoly_Level_Kit_Rocks.blend'
# www.blender.org
g Rock_Block_m_07
v -0.561330 0.000000 -0.300000
v 0.561330 0.000000 -0.300000
v 0.046593 0.000000 0.300000
v 0.089036 0.000000 0.300000
v -0.561330 0.600000 0.000000
v -0.561330 0.000000 0.000000
v 0.561330 0.600000 0.000000
v 0.561330 0.000000 0.000000
v 0.134751 0.600000 0.000000
v 0.134751 0.000000 0.000000
v 0.561330 0.600000 0.251083
v 0.561330 0.551083 0.300000
v 0.060967 0.600000 0.251083
v 0.046593 0.551083 0.300000
v 0.089036 0.551083 0.300000
v 0.096490 0.600000 0.251083
v -0.461448 0.600000 0.251083
v -0.462471 0.551083 0.300000
v -0.561330 0.385163 0.300000
v -0.561330 0.600000 0.077347
v 0.354009 0.000000 0.300000
v 0.561330 0.000000 0.052541
v 0.561330 0.143371 0.300000
v -0.561330 0.000000 0.196781
v -0.483172 0.000000 0.300000
v -0.561330 0.109795 0.300000
v 0.561330 0.407253 -0.300000
v 0.561330 0.600000 -0.176633
v 0.471237 0.600000 -0.236640
v -0.561330 0.600000 -0.191649
v -0.561330 0.545409 -0.300000
v 0.438901 0.600000 -0.258178
v 0.397686 0.577547 -0.300000
vt 0.8055 0.6538
vt 0.7928 0.6365
vt 0.8055 0.6365
vt 0.7928 0.6820
vt 0.8055 0.6820
vt 0.7928 0.7083
vt 0.7949 0.7063
vt 0.8055 0.7063
vt 0.8564 0.7063
vt 0.8455 0.7063
vt 0.8434 0.7044
vt 0.8181 0.6365
vt 0.8181 0.6449
vt 0.8077 0.6365
vt 0.8415 0.6820
vt 0.8309 0.6648
vt 0.8415 0.6632
vt 0.8159 0.7063
vt 0.8181 0.6976
vt 0.8179 0.7044
vt 0.8612 0.6365
vt 0.8415 0.6385
vt 0.8415 0.6365
vt 0.8138 0.6820
vt 0.8180 0.6820
vt 0.8181 0.6865
vt 0.7674 0.6861
vt 0.7695 0.7067
vt 0.7674 0.7072
vt 0.8615 0.6609
vt 0.8503 0.6609
vt 0.8415 0.6550
vt 0.8182 0.6754
vt 0.8229 0.6366
vt 0.8200 0.6771
vt 0.8309 0.6820
vt 0.8209 0.6784
vt 0.7756 0.6365
vt 0.7684 0.6432
vt 0.7674 0.6402
vt 0.7697 0.6820
vt 0.8055 0.7306
vt 0.7928 0.7306
vt 0.8181 0.6789
vt 0.8181 0.6574
vt 0.8181 0.6557
vt 0.8434 0.6985
vt 0.8382 0.7063
vt 0.8308 0.7063
vt 0.7928 0.7041
vt 0.8054 0.6820
vt 0.7973 0.7063
vt 0.8309 0.6366
vt 0.8342 0.6366
vt 0.8308 0.6820
vt 0.8286 0.6820
vt 0.8202 0.7063
vt 0.8181 0.7044
vt 0.7765 0.6820
vt 0.7928 0.7067
vt 0.8415 0.6406
vt 0.8415 0.6618
vt 0.8054 0.7063
vt 0.7695 0.6860
vt 0.7881 0.6820
vt 0.7928 0.6852
vt 0.8087 0.7063
vt 0.7674 0.6415
vt 0.7674 0.6365
vt 0.8615 0.6385
vt 0.8181 0.6878
vt 0.8564 0.6820
vt 0.8434 0.6820
vt 0.8181 0.6365
vt 0.8235 0.6820
vt 0.8434 0.6820
vn 0.0000 -1.0000 0.0000
vn -0.9886 0.0000 -0.1506
vn 0.9594 -0.0000 0.2819
vn 0.5135 -0.7425 0.4302
vn 0.0000 1.0000 0.0000
vn -0.7703 0.4589 0.4428
vn 0.0000 0.7071 0.7071
vn -0.6934 -0.4936 0.5250
vn 0.0000 0.0000 1.0000
vn -0.0299 0.8927 -0.4498
vn 0.4893 0.4702 -0.7346
vn 0.0000 0.0000 -1.0000
vn 1.0000 0.0000 0.0000
vn -1.0000 0.0000 0.0000
s off
f 10/1/1 2/2/1 8/3/1
f 1/4/1 10/1/1 6/5/1
f 15/6/2 16/7/2 9/8/2
f 9/9/3 13/10/3 14/11/3
f 23/12/4 21/13/4 22/14/4
f 11/15/5 9/16/5 16/17/5
f 17/18/6 19/19/6 18/20/6
f 16/21/7 12/22/7 11/23/7
f 24/24/8 25/25/8 26/26/8
f 17/27/7 14/28/7 13/29/7
f 4/30/9 21/31/9 23/32/9
f 33/33/10 30/34/10 32/35/10
f 7/36/5 29/37/5 9/16/5
f 27/38/11 33/39/11 29/40/11
f 27/38/12 1/4/12 31/41/12
f 15/6/2 10/42/2 4/43/2
f 25/44/1 24/24/1 3/45/1
f 10/1/1 21/13/1 4/46/1
f 27/47/13 28/48/13 7/49/13
f 30/34/5 9/16/5 32/35/5
f 31/50/14 6/51/14 30/52/14
f 9/16/5 5/53/5 20/54/5
f 8/55/13 7/49/13 22/56/13
f 11/57/13 12/58/13 7/49/13
f 19/59/9 3/60/9 14/28/9
f 8/55/13 27/47/13 7/49/13
f 9/16/5 17/61/5 13/62/5
f 10/1/1 8/3/1 22/14/1
f 6/51/14 19/19/14 5/63/14
f 18/64/9 19/59/9 14/28/9
f 26/65/9 25/66/9 3/60/9
f 20/67/14 5/63/14 19/19/14
f 6/51/14 24/24/14 26/26/14
f 3/45/1 6/5/1 10/1/1
f 33/39/12 27/38/12 31/41/12
f 32/68/11 29/40/11 33/39/11
f 28/69/11 27/38/11 29/40/11
f 6/51/14 5/63/14 30/52/14
f 15/70/9 23/32/9 12/22/9
f 23/71/13 7/49/13 12/58/13
f 29/37/5 32/35/5 9/16/5
f 10/72/3 14/11/3 3/73/3
f 1/4/1 2/2/1 10/1/1
f 11/15/5 7/36/5 9/16/5
f 17/18/6 20/67/6 19/19/6
f 16/21/7 15/70/7 12/22/7
f 17/27/7 18/64/7 14/28/7
f 33/33/10 31/74/10 30/34/10
f 7/36/5 28/75/5 29/37/5
f 27/38/12 2/2/12 1/4/12
f 15/6/2 9/8/2 10/42/2
f 10/1/1 22/14/1 21/13/1
f 30/34/5 5/53/5 9/16/5
f 31/50/14 1/4/14 6/51/14
f 19/59/9 26/65/9 3/60/9
f 8/55/13 2/76/13 27/47/13
f 9/16/5 20/54/5 17/61/5
f 6/51/14 26/26/14 19/19/14
f 3/45/1 24/24/1 6/5/1
f 15/70/9 4/30/9 23/32/9
f 23/71/13 22/56/13 7/49/13
f 10/72/3 9/9/3 14/11/3
