# Blender v2.77 (sub 0) OBJ File: 'LowPoly_Level_Kit_Rocks.blend'
# www.blender.org
g Rock_Blocks_m_01
v 0.611759 1.194310 0.630001
v 0.611759 1.230000 0.594310
v 0.547516 1.194310 0.594310
v 0.611759 0.635690 0.000001
v 0.611759 0.600000 0.035691
v 0.547516 0.635690 0.035691
v 0.611759 1.230000 0.035691
v 0.611759 1.194310 0.000001
v 0.547516 1.194310 0.035691
v 1.617274 0.635690 0.630001
v 1.617274 0.600000 0.594310
v 1.681516 0.635690 0.594310
v 1.681516 0.635690 0.035691
v 1.617274 0.600000 0.035691
v 1.617274 0.635690 0.000001
v 1.617274 1.230000 0.035691
v 1.681516 1.194310 0.035691
v 1.617274 1.194310 0.000001
v 1.617274 1.230000 0.404940
v 1.681516 1.194310 0.357705
v 1.617274 1.096490 0.630001
v 1.681516 1.053952 0.594310
v 1.503998 1.230000 0.594310
v 1.518638 1.194310 0.630001
v 0.611759 0.757586 0.630001
v 0.547516 0.829983 0.594310
v 0.611759 0.600000 0.401327
v 0.547516 0.635690 0.312372
v 0.699845 0.600000 0.594310
v 0.692496 0.635690 0.630001
v 1.144280 0.000000 0.635001
v 1.144280 0.000000 -0.004999
v 1.894958 0.000000 -0.004999
v 2.344280 0.000000 0.325418
v 2.344280 0.158849 0.054455
v 2.243852 0.150409 -0.004999
v 1.144280 0.304065 0.635001
v 1.357274 0.600000 0.635001
v 1.239230 0.600000 0.452787
v 1.144280 0.473010 0.447306
v 1.144280 0.262140 -0.004999
v 2.161768 0.600000 0.053273
v 2.107393 0.484021 -0.004999
v 1.299443 0.600000 0.165173
v 1.144280 0.363705 0.052210
v 2.344280 0.284031 0.635001
v 2.012944 0.600000 0.635001
v 2.344280 0.366511 0.103069
v 2.247224 0.600000 0.102181
v 2.344280 0.461930 0.595020
v 2.285445 0.600000 0.576599
v 2.344280 0.126094 0.635001
v 2.104934 0.000000 0.635001
v 2.344280 0.000000 0.478026
v 0.064242 0.035690 0.630002
v -0.000000 0.035690 0.594312
v 0.064242 0.000000 0.594312
v 0.064242 0.594310 0.630002
v 0.064242 0.630000 0.594312
v -0.000000 0.594310 0.594312
v 0.064242 0.035690 0.000002
v 0.064242 0.000000 0.035692
v -0.000000 0.035690 0.035692
v 0.064242 0.630000 0.035692
v 0.064242 0.594310 0.000002
v -0.000000 0.594310 0.035692
v 1.069757 0.035690 0.630002
v 1.069757 0.000000 0.594312
v 1.134000 0.035690 0.594312
v 1.069757 0.630000 0.594312
v 1.069757 0.594310 0.630002
v 1.134000 0.594310 0.594312
v 1.134000 0.035690 0.035692
v 1.069757 0.000000 0.035692
v 1.069757 0.035690 0.000002
v 1.069757 0.630000 0.035692
v 1.134000 0.594310 0.035692
v 1.069757 0.594310 0.000002
vt 0.2179 0.7166
vt 0.2085 0.7116
vt 0.2164 0.7114
vt 0.1821 0.7115
vt 0.1902 0.7115
vt 0.1917 0.7174
vt 0.1945 0.7026
vt 0.1960 0.7024
vt 0.1960 0.7050
vt 0.1977 0.6672
vt 0.1975 0.6657
vt 0.2001 0.6657
vt 0.2195 0.7024
vt 0.2211 0.7026
vt 0.2195 0.7050
vt 0.1414 0.6707
vt 0.1400 0.6707
vt 0.1415 0.6682
vt 0.1682 0.7115
vt 0.1667 0.7091
vt 0.1679 0.7089
vt 0.1929 0.7087
vt 0.1914 0.7111
vt 0.1912 0.7085
vt 0.1649 0.7084
vt 0.1497 0.7108
vt 0.1466 0.7084
vt 0.1591 0.6683
vt 0.1608 0.6707
vt 0.2197 0.6653
vt 0.2061 0.6632
vt 0.2197 0.6632
vt 0.2001 0.6541
vt 0.1942 0.6422
vt 0.1975 0.6503
vt 0.1603 0.6422
vt 0.2165 0.7183
vt 0.1929 0.7340
vt 0.2065 0.7131
vt 0.2179 0.7128
vt 0.1961 0.6695
vt 0.2041 0.6653
vt 0.1603 0.6657
vt 0.1917 0.7128
vt 0.1605 0.6407
vt 0.1650 0.7108
vt 0.1912 0.6711
vt 0.1679 0.6715
vt 0.1682 0.6693
vt 0.1914 0.6689
vt 0.1582 0.6657
vt 0.1582 0.6422
vt 0.1929 0.6713
vt 0.1605 0.6672
vt 0.1665 0.6749
vt 0.1665 0.7084
vt 0.1929 0.7131
vt 0.1667 0.7338
vt 0.1902 0.7201
vt 0.1902 0.7338
vt 0.1783 0.7128
vt 0.1667 0.7128
vt 0.1649 0.6744
vt 0.1414 0.7054
vt 0.6447 0.6580
vt 0.6474 0.6413
vt 0.6596 0.6402
vt 0.7158 0.7081
vt 0.7101 0.7156
vt 0.7101 0.7083
vt 0.6736 0.6410
vt 0.6736 0.6497
vt 0.6665 0.6402
vt 0.7285 0.6535
vt 0.7223 0.6402
vt 0.7285 0.6425
vt 0.6798 0.6503
vt 0.6844 0.6402
vt 0.6947 0.6446
vt 0.6762 0.7033
vt 0.6832 0.6919
vt 0.6901 0.6919
vt 0.7002 0.7065
vt 0.6897 0.6884
vt 0.6848 0.6882
vt 0.6447 0.6452
vt 0.7234 0.7156
vt 0.7101 0.6968
vt 0.7014 0.6584
vt 0.7152 0.6884
vt 0.7285 0.6799
vt 0.6428 0.7063
vt 0.6438 0.6953
vt 0.6652 0.6942
vt 0.6679 0.6973
vt 0.6679 0.7316
vt 0.6736 0.6816
vt 0.6743 0.6479
vt 0.6466 0.7319
vt 0.6554 0.7355
vt 0.7207 0.6922
vt 0.7253 0.6900
vt 0.6736 0.6877
vt 0.6447 0.6877
vt 0.7142 0.6402
vt 0.7014 0.6499
vt 0.7015 0.6884
vt 0.6940 0.6403
vt 0.6740 0.6442
vt 0.7003 0.7161
vt 0.6780 0.7104
vt 0.7071 0.6402
vt 0.7024 0.6982
vt 0.6762 0.6970
vt 0.7371 0.7156
vt 0.7371 0.6900
vt 0.0676 0.6381
vt 0.1167 0.6692
vt 0.0676 0.6692
vt 0.0319 0.7130
vt 0.0629 0.7407
vt 0.0319 0.7407
vt 0.0042 0.6761
vt 0.0532 0.7073
vt 0.0042 0.7072
vt 0.1172 0.6732
vt 0.0674 0.7043
vt 0.0674 0.6732
vt 0.0569 0.6403
vt 0.0080 0.6711
vt 0.0075 0.6403
vt 0.0673 0.6712
vt 0.0641 0.6692
vt 0.0535 0.7093
vt 0.0566 0.7073
vt 0.0673 0.6361
vt 0.0641 0.6381
vt 0.0532 0.6762
vt 0.0535 0.6742
vt 0.0566 0.6762
vt 0.0673 0.7062
vt 0.0641 0.7043
vt 0.0673 0.6712
vt 0.0641 0.6732
vt 0.0608 0.6708
vt 0.0577 0.6728
vt 0.0574 0.6711
vt 0.0571 0.6380
vt 0.0603 0.6400
vt 0.1203 0.7043
vt 0.1172 0.7043
vt 0.0046 0.6400
vt 0.0077 0.6380
vt 0.1164 0.6361
vt 0.1167 0.6381
vt 0.0014 0.6760
vt 0.1196 0.6692
vt 0.1172 0.6712
vt 0.0980 0.7418
vt 0.0669 0.7141
vt 0.0980 0.7141
vt 0.2164 0.7340
vt 0.1947 0.6407
vt 0.6789 0.7161
vt 0.7014 0.6882
vt 0.0629 0.7130
vt 0.1204 0.6732
vt 0.0051 0.6708
vt 0.0014 0.7071
vt 0.1196 0.6381
vt 0.1164 0.6712
vt 0.0669 0.7418
vn 0.6489 0.6544 0.3882
vn -0.7792 -0.5161 0.3557
vn -0.3656 0.6581 0.6581
vn -0.3656 -0.6581 -0.6581
vn -0.3656 0.6581 -0.6581
vn 0.3656 -0.6581 0.6581
vn 0.3656 -0.6581 -0.6581
vn 0.3656 0.6581 -0.6581
vn -0.4856 0.0000 0.8742
vn 0.4856 0.0000 0.8742
vn 0.4856 0.8742 0.0000
vn -0.4856 -0.8742 0.0000
vn 0.0000 -1.0000 -0.0000
vn -0.0000 0.0000 1.0000
vn 1.0000 -0.0000 0.0000
vn 0.0000 1.0000 0.0000
vn 0.0000 -0.7071 0.7071
vn 0.0000 0.0000 -1.0000
vn -0.4856 0.8742 0.0000
vn -0.4856 0.0000 -0.8742
vn 0.4856 -0.8742 0.0000
vn 0.0000 0.7071 -0.7071
vn 0.0000 -0.7071 -0.7071
vn 0.0000 0.7071 0.7071
vn -1.0000 0.0000 0.0000
vn 0.4856 0.0000 -0.8742
vn 0.3486 -0.8086 -0.4740
vn -0.7184 0.5170 0.4654
vn 0.3799 -0.7212 0.5793
vn 0.2047 0.2146 0.9550
vn 0.4868 0.1991 -0.8505
vn -0.1123 0.4877 -0.8658
vn -0.7865 0.5952 -0.1647
vn 0.9210 0.3825 -0.0742
vn -0.3656 -0.6581 0.6581
vn 0.3656 0.6581 0.6581
s off
f 21/1/1 19/2/1 23/3/1
f 27/4/2 29/5/2 25/6/2
f 1/7/3 2/8/3 3/9/3
f 4/10/4 5/11/4 6/12/4
f 7/13/5 8/14/5 9/15/5
f 10/16/6 11/17/6 12/18/6
f 13/19/7 14/20/7 15/21/7
f 16/22/8 17/23/8 18/24/8
f 1/25/9 26/26/9 25/27/9
f 10/16/10 22/28/10 21/29/10
f 16/30/11 20/31/11 17/32/11
f 5/11/12 28/33/12 6/12/12
f 29/34/13 27/35/13 11/36/13
f 25/27/14 21/29/14 1/25/14
f 22/37/15 13/38/15 20/39/15
f 24/40/1 21/1/1 23/3/1
f 23/41/16 19/42/16 2/8/16
f 14/43/13 27/35/13 5/11/13
f 29/5/2 30/44/2 25/6/2
f 10/45/17 29/34/17 11/36/17
f 1/25/9 3/46/9 26/26/9
f 8/47/18 15/21/18 4/48/18
f 2/8/19 9/15/19 3/9/19
f 8/47/20 6/49/20 9/50/20
f 11/36/21 13/51/21 12/52/21
f 7/53/22 18/24/22 8/47/22
f 10/16/10 12/18/10 22/28/10
f 14/43/23 4/10/23 15/54/23
f 7/13/16 19/42/16 16/30/16
f 1/25/24 23/55/24 2/56/24
f 13/38/15 17/57/15 20/39/15
f 9/58/25 26/59/25 3/60/25
f 16/30/11 19/42/11 20/31/11
f 5/11/12 27/35/12 28/33/12
f 27/4/2 26/59/2 28/61/2
f 9/58/25 6/62/25 28/61/25
f 21/29/14 24/63/14 1/25/14
f 22/37/1 19/2/1 21/1/1
f 30/64/14 10/16/14 25/27/14
f 17/23/26 15/21/26 18/24/26
f 33/65/27 35/66/27 34/67/27
f 40/68/28 38/69/28 39/70/28
f 52/71/29 53/72/29 54/73/29
f 47/74/30 50/75/30 51/76/30
f 43/77/31 48/78/31 36/79/31
f 33/65/13 34/67/13 53/72/13
f 46/80/15 54/81/15 34/82/15
f 48/83/15 46/80/15 34/82/15
f 43/77/32 41/84/32 45/85/32
f 33/65/27 36/86/27 35/66/27
f 40/68/28 37/87/28 38/69/28
f 44/88/33 40/68/33 39/70/33
f 43/77/18 36/79/18 33/89/18
f 37/90/14 47/74/14 38/91/14
f 47/92/16 51/93/16 49/94/16
f 49/94/16 42/95/16 44/96/16
f 43/77/32 44/97/32 42/98/32
f 38/99/16 47/92/16 39/100/16
f 37/87/25 40/68/25 45/101/25
f 45/101/25 41/102/25 37/87/25
f 33/65/13 31/103/13 32/104/13
f 47/74/30 46/105/30 50/75/30
f 53/106/14 37/90/14 31/107/14
f 35/108/31 36/79/31 48/78/31
f 43/77/31 42/98/31 49/109/31
f 49/109/31 48/78/31 43/77/31
f 49/110/34 50/111/34 48/83/34
f 34/67/13 54/73/13 53/72/13
f 44/96/16 47/92/16 49/94/16
f 52/112/14 46/105/14 53/106/14
f 35/113/15 48/83/15 34/82/15
f 33/89/18 41/84/18 43/77/18
f 52/114/15 54/81/15 46/80/15
f 31/115/25 41/102/25 32/116/25
f 62/117/13 68/118/13 57/119/13
f 72/120/15 73/121/15 77/122/15
f 76/123/16 59/124/16 70/125/16
f 58/126/14 67/127/14 71/128/14
f 78/129/18 61/130/18 65/131/18
f 55/132/35 56/133/35 57/119/35
f 58/134/3 59/124/3 60/135/3
f 61/136/4 62/117/4 63/137/4
f 64/138/5 65/139/5 66/140/5
f 67/127/6 68/141/6 69/142/6
f 70/143/36 71/128/36 72/144/36
f 73/145/7 74/146/7 75/147/7
f 76/148/8 77/149/8 78/129/8
f 58/126/9 56/150/9 55/151/9
f 64/138/19 60/135/19 59/124/19
f 61/130/20 66/152/20 65/131/20
f 57/119/12 63/137/12 62/117/12
f 76/148/22 65/131/22 64/153/22
f 73/145/26 78/129/26 77/149/26
f 62/117/23 75/154/23 74/155/23
f 70/125/11 77/156/11 76/123/11
f 67/127/10 72/144/10 71/128/10
f 74/155/21 69/157/21 68/118/21
f 59/158/24 71/128/24 70/143/24
f 68/118/17 55/132/17 57/119/17
f 66/159/25 56/160/25 60/161/25
f 25/27/14 10/16/14 21/29/14
f 22/37/15 12/162/15 13/38/15
f 14/43/13 11/36/13 27/35/13
f 10/45/17 30/163/17 29/34/17
f 8/47/18 18/24/18 15/21/18
f 2/8/19 7/13/19 9/15/19
f 8/47/20 4/48/20 6/49/20
f 11/36/21 14/43/21 13/51/21
f 7/53/22 16/22/22 18/24/22
f 14/43/23 5/11/23 4/10/23
f 7/13/16 2/8/16 19/42/16
f 1/25/24 24/63/24 23/55/24
f 9/58/25 28/61/25 26/59/25
f 27/4/2 25/6/2 26/59/2
f 22/37/1 20/39/1 19/2/1
f 17/23/26 13/19/26 15/21/26
f 48/83/15 50/111/15 46/80/15
f 44/88/33 45/101/33 40/68/33
f 37/90/14 46/105/14 47/74/14
f 43/77/32 45/85/32 44/97/32
f 33/65/13 53/72/13 31/103/13
f 53/106/14 46/105/14 37/90/14
f 49/110/34 51/164/34 50/111/34
f 44/96/16 39/100/16 47/92/16
f 33/89/18 32/165/18 41/84/18
f 31/115/25 37/87/25 41/102/25
f 62/117/13 74/155/13 68/118/13
f 72/120/15 69/166/15 73/121/15
f 76/123/16 64/138/16 59/124/16
f 58/126/14 55/151/14 67/127/14
f 78/129/18 75/147/18 61/130/18
f 58/126/9 60/167/9 56/150/9
f 64/138/19 66/140/19 60/135/19
f 61/130/20 63/168/20 66/152/20
f 57/119/12 56/133/12 63/137/12
f 76/148/22 78/129/22 65/131/22
f 73/145/26 75/147/26 78/129/26
f 62/117/23 61/136/23 75/154/23
f 70/125/11 72/169/11 77/156/11
f 67/127/10 69/142/10 72/144/10
f 74/155/21 73/170/21 69/157/21
f 59/158/24 58/126/24 71/128/24
f 68/118/17 67/171/17 55/132/17
f 66/159/25 63/172/25 56/160/25
