# Blender v2.77 (sub 0) OBJ File: 'LowPoly_Level_Kit_Rocks.blend'
# www.blender.org
g Rock_Block_m_12
v -0.654500 0.000000 0.346500
v 0.654500 0.000000 0.346500
v 0.654500 0.000000 -0.346500
v 0.654500 0.355462 -0.346500
v 0.570076 0.616000 -0.036886
v 0.639881 0.419590 0.346500
v 0.572868 0.616000 0.242573
v -0.654500 0.428932 0.346500
v -0.362964 0.616000 0.249460
v -0.654500 0.553815 0.258003
v 0.086594 0.616000 0.304240
v 0.050522 0.550163 0.346500
v 0.602251 0.511009 -0.346500
v 0.437704 0.616000 -0.240454
v -0.401584 0.616000 -0.263178
v -0.654500 0.000000 -0.280230
v -0.499617 0.000000 -0.346500
v -0.654500 0.561757 -0.237317
v -0.403761 0.536889 -0.346500
vt 0.4592 0.7042
vt 0.4643 0.6648
vt 0.4678 0.6877
vt 0.4274 0.6329
vt 0.4151 0.6850
vt 0.4127 0.6599
vt 0.4409 0.6309
vt 0.4361 0.6403
vt 0.4245 0.7400
vt 0.4175 0.7400
vt 0.4127 0.7227
vt 0.4409 0.6872
vt 0.4362 0.7012
vt 0.4371 0.6872
vt 0.4409 0.6309
vt 0.4587 0.6318
vt 0.3829 0.6954
vt 0.4127 0.6309
vt 0.4127 0.7041
vt 0.4674 0.6627
vt 0.4678 0.6354
vt 0.4899 0.7014
vt 0.4832 0.7043
vt 0.4909 0.6456
vt 0.4651 0.7040
vt 0.4410 0.7040
vt 0.4154 0.6327
vt 0.4128 0.7070
vt 0.4217 0.7012
vt 0.4920 0.6309
vt 0.4678 0.6403
vt 0.4678 0.6312
vt 0.4071 0.7041
vt 0.3886 0.7391
vt 0.3829 0.7065
vt 0.3858 0.7041
vt 0.3833 0.7342
vt 0.4679 0.7043
vt 0.4393 0.7012
vt 0.3829 0.6309
vt 0.4071 0.7391
vt 0.4149 0.7012
vt 0.4393 0.7400
vn -0.0989 0.5753 0.8119
vn 0.0000 1.0000 0.0000
vn 0.3962 0.8813 -0.2577
vn 0.9479 0.3184 -0.0095
vn -0.2207 0.7102 -0.6685
vn 0.0000 0.0000 1.0000
vn 0.0000 -1.0000 0.0000
vn 0.1094 0.4938 0.8627
vn 0.0000 0.0000 -1.0000
vn 0.0186 0.7248 -0.6887
vn -0.3924 0.0701 -0.9171
vn -1.0000 0.0000 0.0000
vn -0.2081 0.9780 0.0157
vn 0.9992 0.0348 0.0179
vn 1.0000 0.0000 0.0000
s off
f 8/1/1 12/2/1 9/3/1
f 5/4/2 9/5/2 11/6/2
f 5/4/3 13/7/3 14/8/3
f 4/9/4 13/10/4 5/11/4
f 19/12/5 18/13/5 15/14/5
f 12/2/6 2/15/6 6/16/6
f 17/17/7 2/18/7 1/19/7
f 11/20/8 6/16/8 7/21/8
f 13/22/9 4/23/9 19/24/9
f 11/20/1 9/3/1 12/2/1
f 10/25/1 8/1/1 9/3/1
f 8/1/6 1/26/6 12/2/6
f 9/5/2 14/8/2 15/14/2
f 14/8/10 19/12/10 15/14/10
f 11/6/2 7/27/2 5/4/2
f 7/28/4 6/29/4 5/11/4
f 6/29/4 4/9/4 5/11/4
f 18/30/11 17/31/11 16/32/11
f 16/33/12 8/34/12 18/35/12
f 18/13/13 9/5/13 15/14/13
f 16/36/7 17/17/7 1/19/7
f 8/34/12 10/37/12 18/35/12
f 3/38/9 19/24/9 4/23/9
f 2/39/14 4/9/14 6/29/14
f 12/2/6 1/26/6 2/15/6
f 17/17/7 3/40/7 2/18/7
f 11/20/8 12/2/8 6/16/8
f 9/5/2 5/4/2 14/8/2
f 14/8/10 13/7/10 19/12/10
f 18/30/11 19/24/11 17/31/11
f 16/33/12 1/41/12 8/34/12
f 18/13/13 10/42/13 9/5/13
f 3/38/9 17/31/9 19/24/9
f 2/39/15 3/43/15 4/9/15
