# Blender v2.77 (sub 0) OBJ File: 'LowPoly_Level_Kit_Rocks.blend'
# www.blender.org
g Rock_Block_m_02
v -0.502757 0.035690 0.315000
v -0.567000 0.035690 0.279310
v -0.502757 0.000000 0.279310
v -0.502757 0.594310 0.315000
v -0.502757 0.630000 0.279310
v -0.567000 0.594310 0.279310
v -0.502757 0.035690 -0.315000
v -0.502757 0.000000 -0.279310
v -0.567000 0.035690 -0.279310
v -0.502757 0.630000 -0.279310
v -0.502757 0.594310 -0.315000
v -0.567000 0.594310 -0.279310
v 0.502757 0.035690 0.315000
v 0.502757 0.000000 0.279310
v 0.567000 0.035690 0.279310
v 0.502757 0.630000 0.279310
v 0.502757 0.594310 0.315000
v 0.567000 0.594310 0.279310
v 0.567000 0.035690 -0.279310
v 0.502757 0.000000 -0.279310
v 0.502757 0.035690 -0.315000
v 0.502757 0.630000 -0.279310
v 0.567000 0.594310 -0.279310
v 0.502757 0.594310 -0.315000
vt 0.2046 0.7292
vt 0.2319 0.6883
vt 0.2319 0.7292
vt 0.1686 0.6868
vt 0.1959 0.7103
vt 0.1686 0.7103
vt 0.2046 0.6823
vt 0.2319 0.6414
vt 0.2319 0.6823
vt 0.1738 0.6418
vt 0.2011 0.6841
vt 0.1738 0.6841
vt 0.1430 0.6418
vt 0.1703 0.6841
vt 0.1430 0.6841
vt 0.2011 0.6418
vt 0.2011 0.6391
vt 0.2029 0.6418
vt 0.1721 0.6418
vt 0.1738 0.6391
vt 0.1721 0.6841
vt 0.1703 0.6868
vt 0.1413 0.6841
vt 0.1430 0.6868
vt 0.2336 0.6879
vt 0.2319 0.6853
vt 0.2336 0.6827
vt 0.2319 0.6853
vt 0.2046 0.6853
vt 0.2046 0.6883
vt 0.2029 0.6879
vt 0.2046 0.6853
vt 0.2029 0.6827
vt 0.2046 0.6414
vt 0.2319 0.6391
vt 0.2046 0.7315
vt 0.1413 0.6418
vt 0.1703 0.6391
vt 0.1430 0.6391
vt 0.1703 0.6418
vt 0.1721 0.6418
vt 0.1738 0.6868
vt 0.1721 0.6841
vt 0.2029 0.6841
vt 0.1413 0.6868
vt 0.1686 0.7103
vt 0.1413 0.7103
vt 0.1959 0.6868
vt 0.2046 0.6391
vt 0.2319 0.7315
vt 0.2011 0.6868
vt 0.1686 0.6868
vn 0.0000 -1.0000 0.0000
vn 1.0000 0.0000 0.0000
vn 0.0000 1.0000 0.0000
vn 0.0000 0.0000 1.0000
vn 0.0000 0.0000 -1.0000
vn -0.3656 -0.6581 0.6581
vn -0.3656 0.6581 0.6581
vn -0.3656 -0.6581 -0.6581
vn -0.3656 0.6581 -0.6581
vn 0.3656 -0.6581 0.6581
vn 0.3656 0.6581 0.6581
vn 0.3656 -0.6581 -0.6581
vn 0.3656 0.6581 -0.6581
vn -0.4856 0.0000 0.8742
vn -0.4856 0.8742 0.0000
vn -0.4856 0.0000 -0.8742
vn -0.4856 -0.8742 0.0000
vn 0.0000 0.7071 -0.7071
vn 0.4856 0.0000 -0.8742
vn 0.0000 -0.7071 -0.7071
vn 0.4856 0.8742 0.0000
vn 0.4856 0.0000 0.8742
vn 0.4856 -0.8742 0.0000
vn 0.0000 0.7071 0.7071
vn 0.0000 -0.7071 0.7071
vn -1.0000 0.0000 0.0000
s off
f 8/1/1 14/2/1 3/3/1
f 18/4/2 19/5/2 23/6/2
f 22/7/3 5/8/3 16/9/3
f 4/10/4 13/11/4 17/12/4
f 24/13/5 7/14/5 11/15/5
f 1/16/6 2/17/6 3/18/6
f 4/10/7 5/19/7 6/20/7
f 7/14/8 8/21/8 9/22/8
f 10/23/9 11/15/9 12/24/9
f 13/25/10 14/2/10 15/26/10
f 16/9/11 17/27/11 18/28/11
f 19/29/12 20/30/12 21/31/12
f 22/7/13 23/32/13 24/33/13
f 4/10/14 2/17/14 1/16/14
f 10/34/15 6/35/15 5/8/15
f 7/14/16 12/24/16 11/15/16
f 3/3/17 9/36/17 8/1/17
f 22/37/18 11/15/18 10/23/18
f 19/38/19 24/13/19 23/39/19
f 8/21/20 21/40/20 20/41/20
f 16/9/21 23/32/21 22/7/21
f 13/11/22 18/42/22 17/12/22
f 20/30/23 15/26/23 14/2/23
f 5/19/24 17/12/24 16/43/24
f 14/44/25 1/16/25 3/18/25
f 12/45/26 2/46/26 6/47/26
f 8/1/1 20/30/1 14/2/1
f 18/4/2 15/48/2 19/5/2
f 22/7/3 10/34/3 5/8/3
f 4/10/4 1/16/4 13/11/4
f 24/13/5 21/40/5 7/14/5
f 4/10/14 6/20/14 2/17/14
f 10/34/15 12/49/15 6/35/15
f 7/14/16 9/22/16 12/24/16
f 3/3/17 2/50/17 9/36/17
f 22/37/18 24/13/18 11/15/18
f 19/38/19 21/40/19 24/13/19
f 8/21/20 7/14/20 21/40/20
f 16/9/21 18/28/21 23/32/21
f 13/11/22 15/51/22 18/42/22
f 20/30/23 19/29/23 15/26/23
f 5/19/24 4/10/24 17/12/24
f 14/44/25 13/11/25 1/16/25
f 12/45/26 9/52/26 2/46/26
