# Blender v2.77 (sub 0) OBJ File: 'LowPoly_Level_Kit_Rocks.blend'
# www.blender.org
g Rock_Blocks_s_03
v 0.273889 0.026184 0.037186
v 0.314418 0.018448 0.013669
v 0.248294 0.021120 -0.008421
v 0.291221 0.013831 -0.029753
v 0.276876 -0.003121 0.038706
v 0.316099 0.001958 0.014525
v 0.251281 -0.008185 -0.006901
v 0.292902 -0.002659 -0.028897
v 0.092119 0.040241 0.262754
v 0.014828 0.022595 0.194449
v 0.027317 0.040240 0.288720
v -0.031411 0.022595 0.243817
v 0.092119 -0.000109 0.262755
v 0.014828 -0.000109 0.194449
v 0.027317 -0.000109 0.288721
v -0.031411 -0.000109 0.243817
v -0.141758 0.027031 -0.300818
v -0.103743 0.018926 -0.331890
v -0.175825 0.021726 -0.343741
v -0.134966 0.014088 -0.372951
v -0.138415 -0.003674 -0.299743
v -0.101862 0.001648 -0.331285
v -0.172481 -0.008980 -0.342665
v -0.133084 -0.003190 -0.372346
v 0.105734 0.059766 0.039100
v 0.105079 0.042121 -0.064046
v -0.073909 0.040240 0.021837
v -0.071602 0.022595 -0.080402
v 0.105734 -0.000109 0.023223
v 0.105079 -0.000109 -0.079923
v -0.073909 -0.000109 0.021837
v -0.071602 -0.000109 -0.080402
vt 0.6496 0.7386
vt 0.6638 0.7234
vt 0.6638 0.7391
vt 0.6455 0.7417
vt 0.6316 0.7264
vt 0.6455 0.7259
vt 0.7317 0.7380
vt 0.7259 0.7240
vt 0.7348 0.7240
vt 0.7259 0.6971
vt 0.7316 0.6832
vt 0.7348 0.6971
vt 0.7304 0.6726
vt 0.7354 0.6577
vt 0.7354 0.6726
vt 0.6630 0.7074
vt 0.6718 0.7232
vt 0.6630 0.7232
vt 0.9727 0.7146
vt 0.9539 0.6925
vt 0.9727 0.6832
vt 0.9337 0.7131
vt 0.9525 0.6915
vt 0.9525 0.7224
vt 0.9896 0.6577
vt 0.9825 0.6372
vt 0.9946 0.6372
vt 0.9082 0.7234
vt 0.9154 0.6942
vt 0.9203 0.7234
vt 0.9893 0.6578
vt 0.9825 0.6777
vt 0.9825 0.6577
vt 0.9848 0.7304
vt 0.9727 0.7096
vt 0.9848 0.7098
vt 0.6939 0.7311
vt 0.7088 0.7150
vt 0.7088 0.7315
vt 0.6882 0.7389
vt 0.6736 0.7229
vt 0.6882 0.7224
vt 0.6671 0.7234
vt 0.6731 0.7383
vt 0.6638 0.7383
vt 0.7259 0.7240
vt 0.7318 0.7096
vt 0.7352 0.7240
vt 0.6936 0.7378
vt 0.6884 0.7224
vt 0.6936 0.7224
vt 0.6718 0.7073
vt 0.6626 0.6911
vt 0.6718 0.6910
vt 0.6626 0.6409
vt 0.6315 0.6915
vt 0.6313 0.6372
vt 0.6936 0.6372
vt 0.6628 0.6905
vt 0.6626 0.6377
vt 0.7191 0.6834
vt 0.7259 0.7094
vt 0.7138 0.7096
vt 0.6493 0.6987
vt 0.6366 0.7215
vt 0.6313 0.6942
vt 0.7236 0.6372
vt 0.7168 0.6799
vt 0.7113 0.6407
vt 0.7075 0.6832
vt 0.7113 0.6397
vt 0.6493 0.7238
vt 0.6313 0.7412
vt 0.7267 0.7380
vt 0.7266 0.6832
vt 0.7304 0.6577
vt 0.6718 0.7074
vt 0.9525 0.7150
vt 0.9321 0.6910
vt 0.9827 0.6577
vt 0.9085 0.6942
vt 0.9893 0.6778
vt 0.9727 0.7303
vt 0.6936 0.7155
vt 0.6733 0.7384
vt 0.6723 0.7234
vt 0.7266 0.7096
vt 0.6884 0.7378
vt 0.6626 0.7074
vt 0.6626 0.6942
vt 0.6936 0.6910
vt 0.7259 0.6832
vt 0.6493 0.7259
vt 0.7236 0.6796
vt 0.6954 0.6832
vn 0.0937 0.9824 -0.1617
vn 0.1454 -0.9890 0.0282
vn -0.4556 -0.0924 -0.8854
vn 0.5133 0.0966 0.8528
vn 0.8773 0.0648 -0.4756
vn -0.8673 -0.0628 0.4937
vn -0.0699 0.9822 -0.1746
vn 0.0000 -1.0000 0.0000
vn -0.6074 0.0000 0.7944
vn 0.6622 0.0000 -0.7493
vn -0.7299 -0.0000 -0.6836
vn 0.3720 0.0000 0.9283
vn 0.0668 0.9824 -0.1745
vn 0.1481 -0.9890 0.0047
vn -0.5904 -0.0924 -0.8018
vn 0.6422 0.0966 0.7605
vn 0.7906 0.0648 -0.6088
vn -0.7779 -0.0628 0.6252
vn -0.0906 0.9817 -0.1674
vn -0.9997 -0.0000 -0.0226
vn 1.0000 0.0018 -0.0067
vn 0.0477 0.3515 -0.9350
vn -0.0649 -0.2558 0.9646
vn 0.0909 0.9840 -0.1532
vn 0.1457 -0.9889 0.0273
vn -0.1702 0.9724 -0.1595
vn 0.3719 0.0000 0.9283
vn 0.0655 0.9840 -0.1657
vn 0.1482 -0.9889 0.0038
vn -0.0925 0.9809 -0.1714
vn 1.0000 0.0024 -0.0064
vn 0.0027 -0.0000 -1.0000
vn -0.0077 0.0000 1.0000
s off
f 2/1/1 3/2/1 1/3/1
f 7/4/2 6/5/2 5/6/2
f 4/7/3 7/8/3 3/9/3
f 5/10/4 2/11/4 1/12/4
f 6/13/5 4/14/5 2/15/5
f 3/16/6 5/17/6 1/18/6
f 10/19/7 11/20/7 9/21/7
f 15/22/8 14/23/8 13/24/8
f 12/25/9 15/26/9 11/27/9
f 13/28/10 10/29/10 9/30/10
f 14/31/11 12/32/11 10/33/11
f 11/34/12 13/35/12 9/36/12
f 18/37/13 19/38/13 17/39/13
f 23/40/14 22/41/14 21/42/14
f 20/43/15 23/44/15 19/45/15
f 21/46/16 18/47/16 17/48/16
f 18/49/17 24/50/17 20/51/17
f 19/52/18 21/53/18 17/54/18
f 26/55/19 27/56/19 25/57/19
f 29/58/8 32/59/8 30/60/8
f 28/61/20 31/62/20 27/63/20
f 29/64/21 26/65/21 25/66/21
f 30/67/22 28/68/22 26/69/22
f 27/70/23 29/58/23 25/71/23
f 2/1/24 4/72/24 3/2/24
f 7/4/25 8/73/25 6/5/25
f 4/7/3 8/74/3 7/8/3
f 5/10/4 6/75/4 2/11/4
f 6/13/5 8/76/5 4/14/5
f 3/16/6 7/77/6 5/17/6
f 10/19/26 12/78/26 11/20/26
f 15/22/8 16/79/8 14/23/8
f 12/25/9 16/80/9 15/26/9
f 13/28/10 14/81/10 10/29/10
f 14/31/11 16/82/11 12/32/11
f 11/34/27 15/83/27 13/35/27
f 18/37/28 20/84/28 19/38/28
f 23/40/29 24/85/29 22/41/29
f 20/43/15 24/86/15 23/44/15
f 21/46/16 22/87/16 18/47/16
f 18/49/17 22/88/17 24/50/17
f 19/52/18 23/89/18 21/53/18
f 26/55/30 28/90/30 27/56/30
f 29/58/8 31/91/8 32/59/8
f 28/61/20 32/92/20 31/62/20
f 29/64/31 30/93/31 26/65/31
f 30/67/32 32/94/32 28/68/32
f 27/70/33 31/95/33 29/58/33
