# Blender v2.77 (sub 0) OBJ File: 'LowPoly_Level_Kit_Rocks.blend'
# www.blender.org
g Rock_Arch_04_Collider
v 0.378547 7.411087 1.178884
v 0.470941 7.389343 -0.465867
v -2.567357 7.512988 0.458952
v 4.058767 2.579179 -3.831279
v 6.226419 2.137889 -4.449285
v 6.235339 -0.846579 -4.572086
v 0.011007 6.396129 2.331271
v -1.866384 6.560810 2.709956
v -3.566025 3.638752 1.551366
v -3.818780 4.870275 1.919083
v -5.455660 2.631252 1.869882
v 7.470156 6.476337 3.055712
v 7.706825 6.947109 0.542909
v 5.869708 7.652092 2.666948
v -7.620442 1.124505 1.828261
v -8.478568 1.656716 -0.387211
v -10.012975 -0.313006 0.199115
v -2.016643 5.772449 -2.754903
v -3.584870 5.945889 -1.846991
v -1.001463 7.688976 -1.651804
v 1.320166 6.405012 -2.670340
v 0.977143 5.554672 -3.584544
v -0.520568 5.532108 -2.798687
v 1.710170 3.704478 -3.868503
v -0.358081 4.287827 -1.956056
v 2.896060 1.614972 -2.841389
v 3.645666 -0.580857 -3.234879
v 2.940664 -0.400513 -0.117471
v -0.412917 5.182262 2.313504
v -2.677871 4.598475 2.345539
v -5.826110 4.075853 0.845577
v -5.215339 1.792531 2.252620
v -4.906063 -0.061052 1.315748
v -6.745645 2.851400 0.233909
v -4.416423 5.325075 -0.486617
v -7.949562 -0.445701 2.266242
v -6.584543 -0.697335 2.293816
v -2.927705 3.113662 -0.812151
v -0.961186 4.516232 1.045032
v 1.065063 5.481100 3.493304
v -4.991243 -0.447374 -0.401017
v 2.060080 7.043825 0.285348
v -2.947159 3.993264 -2.137190
v -5.194380 3.244246 -2.059386
v -1.354231 4.256573 -1.333196
v -6.008139 3.607218 -1.349499
v -7.597369 1.202846 -1.662673
v -9.044232 -0.448743 -2.024068
v -6.992087 -0.272124 -2.415740
v -5.237318 -0.150108 -1.552869
v 6.089612 7.188651 -2.955605
v 5.241934 6.062294 -3.477335
v 4.341898 8.141212 -2.440506
v 3.715657 5.661211 -3.959309
v 2.944132 7.063898 -2.096503
v 6.150769 8.269503 -1.795941
v 4.450535 8.967545 -1.001751
v 2.917273 7.339084 0.955971
v 3.721842 8.788673 0.773344
v 4.678471 8.694358 1.783840
v 7.965798 6.014554 -2.452548
v 8.065101 4.400335 -3.294234
v 6.175808 3.980830 -4.581349
v 0.685624 2.067621 -1.512324
v 8.892220 5.438772 1.835273
v 9.289021 5.532436 -0.284108
v 7.702278 3.269921 4.046783
v 8.996324 1.138926 2.709059
v 5.978567 3.845238 4.540997
v 3.176987 5.465185 3.731787
v 2.730686 6.114789 3.004198
v 9.892069 3.121077 -0.039339
v 8.092677 -0.667460 3.539606
v 5.951098 1.203828 4.108605
v 9.296730 -0.939426 1.988783
v 10.112967 0.780915 -0.276825
v 2.043243 4.118752 3.758180
v 3.649337 3.307431 3.867841
v 0.357643 3.771277 1.881215
v 3.129387 1.324287 2.109385
v 3.976610 0.566611 2.745047
v 6.196295 -0.859949 4.130258
v 9.552261 2.513356 -2.144639
v 8.627468 -0.750874 -3.243431
v 1.789518 1.376176 -0.286993
v 0.964515 2.060262 -0.074397
v 9.790154 -0.902037 -0.224283
v 3.892324 -0.967543 2.588499
vn 0.0373 0.9992 -0.0111
vn -0.2667 0.0388 -0.9630
vn 0.1994 0.7030 0.6827
vn 0.2762 -0.2225 0.9350
vn 0.5470 0.8120 0.2036
vn -0.0678 0.9111 0.4065
vn -0.6579 0.6336 0.4070
vn -0.3502 0.5997 -0.7195
vn 0.0887 0.7125 -0.6960
vn -0.6657 -0.4761 -0.5747
vn -0.2439 -0.5358 -0.8084
vn -0.9383 -0.2852 -0.1957
vn -0.4635 -0.0479 -0.8848
vn 0.1903 -0.0808 0.9784
vn -0.3555 -0.0265 0.9343
vn -0.3990 -0.3366 0.8529
vn -0.5491 0.3851 0.7417
vn -0.0593 0.4003 0.9145
vn 0.6170 -0.2705 0.7390
vn -0.7440 0.2489 0.6201
vn 0.0677 -0.2092 0.9755
vn -0.6811 0.5738 0.4548
vn -0.4778 0.8339 0.2763
vn -0.2696 0.3348 0.9029
vn -0.2307 0.3060 0.9236
vn 0.5622 -0.2964 0.7720
vn -0.0156 0.0251 0.9996
vn -0.5035 0.7098 0.4926
vn 0.8858 -0.3409 0.3150
vn 0.2368 -0.8986 0.3694
vn -0.6355 0.2111 0.7427
vn 0.3616 -0.7698 0.5260
vn 0.3559 -0.8873 0.2933
vn 0.8666 -0.4943 0.0682
vn 0.0841 0.9859 0.1446
vn -0.7266 0.6733 -0.1369
vn 0.2129 0.9771 -0.0010
vn 0.3823 0.8896 -0.2499
vn 0.0511 0.4777 -0.8770
vn -0.5144 0.7976 -0.3151
vn -0.0748 -0.2919 -0.9535
vn -0.4405 0.3430 -0.8297
vn 0.1201 -0.5459 -0.8292
vn 0.0909 -0.3687 -0.9251
vn -0.4452 0.3306 -0.8321
vn 0.3861 -0.7659 -0.5141
vn -0.5133 0.3668 -0.7759
vn -0.7018 0.7043 -0.1076
vn -0.7887 0.5379 0.2976
vn -0.7073 0.7011 -0.0910
vn -0.7813 0.6205 -0.0677
vn -0.6130 0.6807 0.4010
vn -0.6582 0.3271 0.6780
vn -0.8216 0.5582 -0.1162
vn -0.3508 0.7790 -0.5196
vn -0.4832 0.4195 -0.7684
vn -0.5405 0.6021 -0.5877
vn -0.3887 0.2874 -0.8754
vn -0.7828 0.4992 -0.3716
vn -0.2048 0.3771 -0.9032
vn -0.0813 0.1416 -0.9866
vn 0.4322 -0.3557 -0.8286
vn 0.8027 -0.4913 -0.3380
vn 0.8090 -0.5038 -0.3028
vn 0.1042 -0.9876 0.1171
vn -0.0270 0.4368 -0.8992
vn -0.0176 0.7952 -0.6061
vn -0.4131 0.2569 -0.8737
vn -0.0945 0.7761 -0.6235
vn 0.1178 0.8572 -0.5012
vn 0.1899 0.7132 -0.6748
vn -0.8308 0.5074 -0.2287
vn -0.6203 0.7807 -0.0758
vn -0.2615 0.9611 -0.0889
vn -0.8485 0.4326 -0.3047
vn 0.4732 0.8358 0.2785
vn 0.1540 0.9866 -0.0537
vn 0.5325 0.8380 0.1195
vn 0.5516 0.8075 0.2090
vn 0.3499 0.1639 -0.9223
vn 0.7521 0.6449 -0.1358
vn 0.3208 0.4533 -0.8316
vn 0.3777 0.5604 -0.7371
vn 0.1340 0.5106 -0.8493
vn -0.1184 0.7488 -0.6521
vn -0.1386 0.0963 -0.9856
vn -0.1893 0.8674 -0.4602
vn -0.0043 -0.0420 -0.9991
vn -0.2904 -0.0720 -0.9542
vn -0.6742 -0.4361 -0.5961
vn -0.5004 -0.5938 -0.6301
vn -0.2877 -0.0763 -0.9547
vn 0.5359 0.6033 -0.5906
vn 0.7035 0.6919 0.1623
vn 0.5969 0.7792 -0.1910
vn 0.6823 0.7043 0.1962
vn 0.7291 0.2497 0.6372
vn 0.8111 0.1353 0.5691
vn -0.0038 0.4416 0.8972
vn 0.1080 0.4416 0.8907
vn -0.6342 0.4327 0.6408
vn -0.2390 0.6469 0.7242
vn -0.1651 0.5209 0.8375
vn -0.6685 0.6636 0.3358
vn 0.9480 0.2562 0.1888
vn 0.3540 0.2995 0.8860
vn 0.1644 -0.1100 0.9803
vn 0.7768 -0.1030 0.6212
vn 0.7005 -0.0224 0.7133
vn 0.9371 0.0146 0.3487
vn 0.9233 0.0978 0.3715
vn 0.9374 0.0536 0.3441
vn 0.2224 -0.1598 0.9618
vn -0.0409 0.0540 0.9977
vn -0.1107 0.1125 0.9875
vn -0.5567 0.7344 0.3883
vn -0.0723 0.7216 0.6886
vn -0.0875 0.7425 0.6641
vn 0.3242 0.9168 0.2333
vn -0.0807 0.7606 0.6442
vn -0.4828 -0.4867 0.7281
vn -0.6644 -0.3485 0.6612
vn -0.6471 -0.5233 0.5545
vn -0.3401 -0.5724 0.7461
vn -0.5548 -0.5721 0.6041
vn -0.2413 -0.1543 0.9581
vn -0.4370 -0.3852 0.8128
vn 0.2929 0.0448 0.9551
vn -0.5548 -0.0572 0.8300
vn 0.5564 0.1192 -0.8223
vn 0.9755 0.1113 -0.1896
vn 0.9116 -0.1266 -0.3911
vn -0.7373 -0.3296 0.5897
vn -0.7777 -0.4634 0.4248
vn -0.6162 -0.7791 0.1155
vn -0.6133 -0.0683 -0.7869
vn 0.1782 0.9812 0.0744
vn 0.7980 0.3165 -0.5128
vn -0.7592 -0.4818 0.4375
vn -0.4648 -0.1052 -0.8792
vn -0.3242 -0.9185 -0.2263
vn -0.7599 -0.5285 -0.3786
vn -0.8560 -0.4905 0.1635
vn 0.5859 -0.8104 -0.0083
vn -0.9076 -0.4037 0.1149
vn 0.8345 0.3400 -0.4336
vn 0.9136 -0.1865 -0.3612
vn 0.9521 0.2162 -0.2161
vn 0.5725 -0.0474 -0.8185
vn 0.5690 -0.0432 -0.8212
vn -0.5684 -0.8025 0.1816
vn -0.0469 -0.9911 -0.1247
vn -0.6263 -0.6726 0.3942
vn -0.5627 -0.7711 0.2979
vn -0.2776 -0.0002 0.9607
vn 0.4841 0.0374 -0.8742
vn -0.9421 0.0176 0.3350
vn -0.5536 -0.0544 0.8310
vn 0.9611 -0.1778 0.2113
s off
f 1//1 2//1 3//1
f 4//2 5//2 6//2
f 7//3 1//3 8//3
f 9//4 10//4 11//4
f 12//5 13//5 14//5
f 1//6 3//6 8//6
f 15//7 16//7 17//7
f 18//8 19//8 20//8
f 21//9 22//9 20//9
f 23//10 24//10 25//10
f 26//11 24//11 4//11
f 26//12 27//12 28//12
f 22//13 24//13 23//13
f 29//14 7//14 8//14
f 8//15 10//15 30//15
f 30//16 10//16 9//16
f 11//17 10//17 31//17
f 11//18 32//18 9//18
f 33//19 9//19 32//19
f 11//20 31//20 34//20
f 30//21 29//21 8//21
f 10//22 8//22 3//22
f 31//23 10//23 35//23
f 11//24 36//24 32//24
f 15//25 36//25 11//25
f 32//26 37//26 33//26
f 36//27 37//27 32//27
f 11//28 34//28 15//28
f 33//29 38//29 9//29
f 29//30 30//30 39//30
f 29//31 40//31 7//31
f 9//32 39//32 30//32
f 38//33 39//33 9//33
f 41//34 38//34 33//34
f 2//35 20//35 3//35
f 35//36 3//36 19//36
f 42//37 2//37 1//37
f 2//38 21//38 20//38
f 18//39 20//39 23//39
f 20//40 19//40 3//40
f 23//41 43//41 18//41
f 20//42 22//42 23//42
f 23//43 25//43 43//43
f 44//44 18//44 43//44
f 18//45 44//45 19//45
f 43//46 45//46 38//46
f 19//47 44//47 46//47
f 35//48 19//48 46//48
f 35//49 10//49 3//49
f 31//50 35//50 46//50
f 46//51 34//51 31//51
f 16//52 15//52 34//52
f 15//53 17//53 36//53
f 46//54 47//54 34//54
f 34//55 47//55 16//55
f 46//56 44//56 47//56
f 47//57 48//57 16//57
f 47//58 44//58 49//58
f 16//59 48//59 17//59
f 48//60 47//60 49//60
f 49//61 44//61 43//61
f 49//62 43//62 50//62
f 50//63 43//63 38//63
f 41//64 50//64 38//64
f 45//65 43//65 25//65
f 51//66 52//66 53//66
f 54//67 55//67 52//67
f 55//68 53//68 52//68
f 55//69 54//69 21//69
f 56//70 53//70 57//70
f 56//71 51//71 53//71
f 57//72 53//72 58//72
f 55//73 58//73 53//73
f 58//74 55//74 42//74
f 59//75 57//75 58//75
f 56//76 57//76 59//76
f 59//77 60//77 56//77
f 13//78 56//78 60//78
f 60//79 14//79 13//79
f 61//80 52//80 51//80
f 13//81 61//81 56//81
f 61//82 62//82 52//82
f 52//83 62//83 63//83
f 54//84 52//84 63//84
f 54//85 22//85 21//85
f 24//86 22//86 54//86
f 21//87 2//87 55//87
f 54//88 4//88 24//88
f 63//89 4//89 54//89
f 64//90 25//90 24//90
f 64//91 24//91 26//91
f 4//92 63//92 5//92
f 51//93 56//93 61//93
f 65//94 66//94 13//94
f 13//95 66//95 61//95
f 65//96 13//96 12//96
f 65//97 12//97 67//97
f 65//98 67//98 68//98
f 69//99 14//99 70//99
f 14//100 69//100 12//100
f 59//101 58//101 60//101
f 71//102 70//102 14//102
f 60//103 71//103 14//103
f 58//104 71//104 60//104
f 65//105 72//105 66//105
f 12//106 69//106 67//106
f 73//107 67//107 74//107
f 75//108 68//108 73//108
f 73//109 68//109 67//109
f 68//110 75//110 76//110
f 65//111 68//111 72//111
f 72//112 68//112 76//112
f 67//113 69//113 74//113
f 77//114 78//114 70//114
f 77//115 70//115 40//115
f 71//116 58//116 42//116
f 71//117 40//117 70//117
f 7//118 40//118 71//118
f 42//119 1//119 71//119
f 71//120 1//120 7//120
f 40//121 29//121 79//121
f 79//122 77//122 40//122
f 29//123 39//123 79//123
f 77//124 80//124 78//124
f 79//125 80//125 77//125
f 69//126 78//126 74//126
f 74//127 78//127 81//127
f 73//128 74//128 82//128
f 74//129 81//129 82//129
f 83//130 84//130 5//130
f 83//131 72//131 76//131
f 76//132 84//132 83//132
f 81//133 78//133 80//133
f 80//134 85//134 28//134
f 86//135 64//135 85//135
f 26//136 4//136 27//136
f 42//137 55//137 2//137
f 62//138 61//138 83//138
f 80//139 28//139 81//139
f 27//140 4//140 6//140
f 85//141 64//141 26//141
f 26//142 28//142 85//142
f 79//143 64//143 86//143
f 38//144 45//144 39//144
f 64//145 79//145 25//145
f 83//146 61//146 66//146
f 87//147 84//147 76//147
f 83//148 66//148 72//148
f 83//149 5//149 62//149
f 5//150 63//150 62//150
f 79//151 39//151 45//151
f 25//152 79//152 45//152
f 80//153 79//153 86//153
f 85//154 80//154 86//154
f 70//155 78//155 69//155
f 84//156 6//156 5//156
f 28//157 88//157 81//157
f 82//158 81//158 88//158
f 75//159 87//159 76//159
