# Blender v2.77 (sub 0) OBJ File: 'LowPoly_Level_Kit_Rocks.blend'
# www.blender.org
g Rock_Flat_s_09
v -0.227676 0.000000 0.276298
v -0.230328 0.114307 0.244204
v -0.614084 -0.000000 -0.053041
v -0.250662 0.114307 -0.259436
v -0.261497 0.000000 -0.282743
v -0.511337 0.000000 0.195230
v -0.013060 0.114307 -0.013167
v -0.010514 0.000000 -0.015442
v -0.593610 0.062815 -0.052437
v -0.299542 0.114307 -0.228340
v -0.342988 0.114307 0.212652
v -0.495051 0.085370 0.177590
v -0.318670 0.114307 -0.034187
v 0.359868 0.114307 -0.043242
v 0.243291 0.114307 -0.212406
v 0.285727 0.000000 -0.248190
v 0.469256 -0.000000 -0.047980
v 0.375862 0.114307 -0.067785
v 0.443313 0.083230 -0.016519
v 0.110863 0.114307 0.207208
v 0.142921 0.000000 0.221861
v 0.239102 0.114307 0.142064
v 0.403424 0.078492 0.068283
v 0.406996 -0.000000 0.087712
vt 0.9204 0.4321
vt 0.9147 0.4649
vt 0.9068 0.4437
vt 0.9418 0.4205
vt 0.9320 0.4256
vt 0.9331 0.4228
vt 0.9603 0.4267
vt 0.9659 0.4215
vt 0.9656 0.4278
vt 0.9265 0.4613
vt 0.9320 0.4464
vt 0.9547 0.4237
vt 0.9442 0.4373
vt 0.9524 0.4502
vt 0.9547 0.4428
vt 0.9365 0.4526
vt 0.9606 0.4383
vt 0.9609 0.4383
vt 0.9662 0.4384
vt 0.9659 0.4426
vt 0.9397 0.4056
vt 0.9547 0.4286
vt 0.9603 0.4262
vt 0.9599 0.4294
vt 0.9603 0.4489
vt 0.9662 0.4620
vt 0.9634 0.4633
vt 0.9447 0.4580
vt 0.9436 0.4590
vt 0.9505 0.4096
vt 0.9527 0.4177
vt 0.9574 0.4056
vt 0.9643 0.4482
vt 0.9119 0.4140
vt 0.9221 0.4056
vt 0.9603 0.4513
vt 0.9549 0.4534
vt 0.9463 0.4625
vt 0.9452 0.4642
vt 0.9656 0.4085
vt 0.9610 0.4137
vt 0.9622 0.4056
vt 0.9499 0.4598
vt 0.9277 0.4101
vt 0.9320 0.4256
vt 0.9647 0.4136
vt 0.9353 0.4552
vt 0.9659 0.4379
vt 0.9602 0.4070
vn 0.0000 -1.0000 -0.0000
vn 0.0000 1.0000 0.0000
vn 0.4403 0.2346 0.8667
vn 0.1433 0.1653 0.9758
vn -0.2607 0.2553 0.9310
vn -0.1829 0.9830 -0.0180
vn -0.5239 0.2176 -0.8235
vn -0.8856 0.2851 0.3665
vn -0.5334 0.2122 -0.8188
vn -0.2616 0.2429 0.9341
vn 0.0597 0.3184 -0.9461
vn 0.6632 0.4365 -0.6079
vn 0.9018 0.1247 0.4138
vn 0.2892 0.9385 0.1885
vn 0.1038 0.2711 0.9569
vn -0.8994 0.2462 0.3612
vn -0.5280 0.1801 -0.8299
vn -0.2661 0.2500 0.9310
vn 0.0930 0.1904 -0.9773
vn 0.8920 0.1465 0.4277
s off
f 8/1/1 3/2/1 5/3/1
f 13/4/2 4/5/2 10/6/2
f 21/7/3 22/8/3 20/9/3
f 6/10/1 8/1/1 1/11/1
f 13/4/2 2/12/2 7/13/2
f 22/14/2 7/13/2 20/15/2
f 15/16/2 4/5/2 7/13/2
f 20/9/4 1/17/4 21/7/4
f 1/18/5 2/19/5 11/20/5
f 13/4/6 10/6/6 9/21/6
f 5/22/7 10/23/7 4/24/7
f 6/25/8 9/26/8 3/27/8
f 15/16/2 14/28/2 18/29/2
f 13/4/6 12/30/6 11/31/6
f 3/32/9 10/23/9 5/22/9
f 6/25/10 11/20/10 12/33/10
f 8/1/1 16/34/1 17/35/1
f 8/1/1 5/3/1 16/34/1
f 5/22/11 15/36/11 16/37/11
f 18/29/12 19/38/12 17/39/12
f 19/40/13 24/41/13 17/42/13
f 14/28/14 22/14/14 23/43/14
f 14/28/14 19/38/14 18/29/14
f 8/1/1 24/44/1 21/45/1
f 1/11/1 8/1/1 21/45/1
f 7/13/2 2/12/2 20/15/2
f 22/8/3 24/41/3 23/46/3
f 18/29/12 16/47/12 15/16/12
f 13/4/2 7/13/2 4/5/2
f 6/10/1 3/2/1 8/1/1
f 13/4/2 11/31/2 2/12/2
f 22/14/2 14/28/2 7/13/2
f 20/9/15 2/48/15 1/17/15
f 6/25/16 12/33/16 9/26/16
f 15/16/2 7/13/2 14/28/2
f 13/4/6 9/21/6 12/30/6
f 3/32/17 9/49/17 10/23/17
f 6/25/18 1/18/18 11/20/18
f 5/22/19 4/24/19 15/36/19
f 19/40/20 23/46/20 24/41/20
f 14/28/14 23/43/14 19/38/14
f 8/1/1 17/35/1 24/44/1
f 22/8/3 21/7/3 24/41/3
f 18/29/12 17/39/12 16/47/12
