# Blender v2.77 (sub 0) OBJ File: 'LowPoly_Level_Kit_Rocks.blend'
# www.blender.org
g Rock_Flat_l_01
v -1.103871 0.479728 -0.120211
v -1.401551 0.336965 0.056840
v -1.185673 -0.000001 -0.027214
v -1.393807 0.112207 0.100756
v -1.414266 0.230119 -0.015272
v -0.740742 0.132339 -0.748641
v -0.686800 0.473890 -0.531072
v -0.431670 0.444100 -0.803138
v 1.077008 0.087082 -0.780554
v 1.079625 0.251089 -0.765715
v 0.592774 0.359801 -0.915882
v 0.456476 0.368895 -0.959742
v 0.917461 -0.000001 -0.840228
v 1.081308 -0.000001 0.267555
v 1.185416 0.097179 -0.165745
v 1.181797 0.315461 -0.186270
v 1.145228 0.347938 -0.044764
v 0.958570 0.389316 0.697490
v -0.390336 -0.000001 1.021259
v 0.999907 -0.000001 0.594147
v 0.925732 0.096251 0.876295
v 0.592219 0.115745 1.031286
v -0.843864 -0.000001 0.954869
v -1.274110 0.163974 0.779595
v -0.677743 -0.000001 1.017280
v -0.135286 0.469581 0.547540
v 0.863148 0.398320 0.739936
v 0.501981 0.203820 1.027316
v -1.000784 0.479728 0.464424
v -1.292856 0.336965 0.673283
v -0.654956 0.157833 1.012720
v -1.275907 0.278460 0.769402
v -0.630969 0.033153 -0.767996
v -0.713524 -0.000001 -0.623792
v 0.884276 -0.000001 -0.851096
v 0.511643 0.042896 -0.969470
v -1.161002 0.566173 -0.128308
v -0.719990 0.560000 -0.562753
v -0.450215 0.528500 -0.850436
v 0.633033 0.439362 -0.969651
v 0.488911 0.448978 -1.016029
v 1.217198 0.426818 -0.048530
v 1.019826 0.470571 0.736331
v -0.136819 0.555443 0.577773
v 0.918926 0.480091 0.781213
v -1.051997 0.566173 0.489886
v -1.251727 0.675022 -0.131932
v -0.779033 0.668406 -0.597587
v -0.489878 0.634643 -0.905938
v 0.671191 0.539101 -1.033717
v 0.516715 0.549408 -1.083427
v 1.297323 0.525656 -0.046422
v 1.085772 0.572552 0.794823
v -0.153967 0.663522 0.624875
v 0.977623 0.582757 0.842930
v -1.134892 0.675022 0.530674
v -1.088484 0.786972 -0.130288
v -0.669451 0.781107 -0.543081
v -0.413121 0.751176 -0.816427
v 0.616141 0.666481 -0.929701
v 0.479202 0.675617 -0.973767
v 1.171193 0.654562 -0.054485
v 0.983658 0.696135 0.691260
v -0.115343 0.776777 0.540604
v 0.887786 0.705181 0.733905
v -0.984912 0.786972 0.457098
vt 0.0532 0.4109
vt 0.0558 0.4366
vt 0.0520 0.4435
vt 0.0269 0.4472
vt 0.0247 0.4661
vt 0.0201 0.4554
vt 0.0517 0.4442
vt 0.0367 0.4472
vt 0.0281 0.4435
vt 0.0216 0.4407
vt 0.0140 0.4312
vt 0.0178 0.4115
vt 0.0575 0.4473
vt 0.0631 0.4473
vt 0.0634 0.4491
vt 0.0558 0.4825
vt 0.0560 0.4790
vt 0.0593 0.4786
vt 0.0560 0.4732
vt 0.0602 0.4554
vt 0.0882 0.4740
vt 0.0865 0.4723
vt 0.0905 0.4736
vt 0.0833 0.4600
vt 0.0851 0.4580
vt 0.0881 0.4598
vt 0.0584 0.4535
vt 0.1025 0.4900
vt 0.1002 0.4896
vt 0.0972 0.4842
vt 0.0985 0.4728
vt 0.1051 0.4786
vt 0.0977 0.4771
vt 0.0558 0.4130
vt 0.0269 0.4680
vt 0.0498 0.4472
vt 0.0160 0.4384
vt 0.1007 0.4318
vt 0.1048 0.4423
vt 0.0939 0.4353
vt 0.0708 0.4602
vt 0.0754 0.4598
vt 0.0760 0.4628
vt 0.0260 0.3949
vt 0.0425 0.3993
vt 0.0209 0.4027
vt 0.0707 0.4819
vt 0.0686 0.4760
vt 0.0769 0.4783
vt 0.0687 0.4692
vt 0.0862 0.4451
vt 0.0905 0.4573
vt 0.0283 0.4480
vt 0.0269 0.4693
vt 0.0269 0.4472
vt 0.1020 0.3989
vt 0.1110 0.3948
vt 0.1064 0.4150
vt 0.0611 0.4919
vt 0.0587 0.4918
vt 0.0920 0.4341
vt 0.0924 0.4205
vt 0.0663 0.4697
vt 0.0644 0.4698
vt 0.0185 0.4605
vt 0.0182 0.4730
vt 0.0165 0.4604
vt 0.0998 0.4555
vt 0.0968 0.4734
vt 0.0982 0.4550
vt 0.0172 0.4531
vt 0.0192 0.4537
vt 0.0999 0.4526
vt 0.1066 0.4542
vt 0.1017 0.4423
vt 0.1052 0.4423
vt 0.1072 0.4463
vt 0.1072 0.4456
vt 0.0190 0.4058
vt 0.0777 0.4625
vt 0.0785 0.4789
vt 0.0886 0.4446
vt 0.0896 0.4470
vt 0.1072 0.4764
vt 0.0742 0.4485
vt 0.0147 0.4525
vt 0.0663 0.4884
vt 0.0686 0.4700
vt 0.0686 0.4899
vt 0.0806 0.4446
vt 0.0797 0.4623
vt 0.0649 0.4460
vt 0.0676 0.4466
vt 0.0652 0.4479
vt 0.0157 0.4472
vt 0.0182 0.4482
vt 0.0201 0.4490
vt 0.0644 0.4874
vt 0.0982 0.4520
vt 0.0961 0.4548
vt 0.0934 0.4524
vt 0.0962 0.4515
vt 0.0676 0.4030
vt 0.0779 0.3980
vt 0.0681 0.4052
vt 0.0909 0.4191
vt 0.0897 0.4018
vt 0.0920 0.3991
vt 0.0825 0.4625
vt 0.0920 0.4425
vt 0.0886 0.4421
vt 0.0897 0.4403
vt 0.0887 0.4195
vt 0.0140 0.4603
vt 0.0806 0.4798
vt 0.0558 0.4271
vt 0.0617 0.4096
vt 0.0727 0.4437
vt 0.0563 0.4300
vt 0.0946 0.4744
vt 0.0934 0.4553
vt 0.0787 0.3948
vt 0.0833 0.4781
vt 0.0604 0.4079
vt 0.1110 0.4384
vt 0.0405 0.3948
vt 0.0283 0.4689
vt 0.0201 0.4725
vt 0.0708 0.4482
vt 0.0785 0.4459
vt 0.0672 0.4446
vt 0.0833 0.4468
vt 0.0907 0.4446
vt 0.0157 0.4739
vt 0.0920 0.4727
vn -0.0345 -0.9695 -0.2427
vn 0.2598 0.9537 -0.1517
vn 0.4989 -0.8635 -0.0738
vn 0.1063 -0.9322 0.3460
vn 0.3987 0.4447 0.8021
vn -0.3506 0.0776 0.9333
vn -0.0138 0.0309 0.9994
vn -0.9848 -0.0000 0.1736
vn -0.6071 0.4929 -0.6233
vn 0.0000 -1.0000 -0.0000
vn -0.3972 0.9151 0.0700
vn 0.9696 0.0388 0.2417
vn -0.4019 -0.9049 0.1399
vn -0.6283 -0.5983 -0.4972
vn 0.6582 -0.6209 -0.4259
vn -0.0404 0.8503 0.5247
vn -0.2013 -0.3285 0.9228
vn -0.8315 -0.5358 0.1466
vn -0.1910 -0.5115 -0.8378
vn -0.6227 -0.4701 -0.6255
vn 0.3102 0.0808 -0.9472
vn 0.3102 0.0807 -0.9472
vn -0.1736 -0.0000 -0.9848
vn 0.7260 -0.6519 0.2189
vn 0.9848 0.0000 -0.1736
vn -0.6022 -0.5221 -0.6039
vn -0.0919 -0.4101 0.9074
vn 0.6982 -0.5564 -0.4504
vn 0.2749 -0.6059 0.7465
vn -0.2006 -0.4180 0.8860
vn -0.6472 -0.5289 -0.5490
vn -0.6690 -0.4698 -0.5759
vn 0.2849 -0.5797 0.7634
vn -0.0940 -0.3321 0.9385
vn 0.2035 -0.6168 -0.7603
vn 0.2662 0.6761 -0.6871
vn -0.4854 0.7152 -0.5029
vn -0.0686 0.6105 0.7890
vn 0.6639 0.6238 -0.4125
vn 0.3263 0.7508 0.5743
vn -0.1063 0.6167 0.7800
vn 0.2130 -0.5844 -0.7830
vn -0.1911 -0.5100 -0.8387
vn -0.7634 -0.6318 0.1346
vn 0.7547 -0.6166 0.2242
vn 0.0119 0.9999 -0.0021
vn 0.0780 0.9963 -0.0359
vn -0.0805 0.6400 -0.7641
vn -0.5634 0.8202 0.0994
vn 0.7036 0.6971 0.1381
vn -0.4723 0.7111 -0.5208
vn -0.0919 -0.4100 0.9074
vn -0.1063 0.6166 0.7800
s off
f 34/1/1 36/2/1 35/3/1
f 11/4/2 16/5/2 10/6/2
f 13/7/3 15/8/3 14/9/3
f 20/10/4 22/11/4 19/12/4
f 21/13/5 18/14/5 27/15/5
f 23/16/6 25/17/6 31/18/6
f 31/18/7 19/19/7 28/20/7
f 32/21/8 30/22/8 24/23/8
f 2/24/8 5/25/8 4/26/8
f 22/27/5 27/15/5 28/20/5
f 5/28/9 2/29/9 1/30/9
f 8/31/9 6/32/9 7/33/9
f 34/1/1 33/34/1 36/2/1
f 11/4/2 17/35/2 16/5/2
f 14/9/10 34/1/10 35/3/10
f 13/7/3 9/36/3 15/8/3
f 20/10/4 21/37/4 22/11/4
f 29/38/11 2/39/11 30/40/11
f 15/41/12 16/42/12 17/43/12
f 24/44/13 3/45/13 23/46/13
f 21/47/12 20/48/12 18/49/12
f 14/50/12 15/41/12 17/43/12
f 6/51/14 3/52/14 5/25/14
f 22/27/7 28/20/7 19/19/7
f 31/18/7 25/17/7 19/19/7
f 17/53/15 40/54/15 42/55/15
f 6/32/9 1/30/9 7/33/9
f 28/56/16 27/57/16 26/58/16
f 23/16/6 32/59/6 24/60/6
f 30/40/16 32/61/16 29/38/16
f 31/62/16 28/56/16 26/58/16
f 29/38/16 31/62/16 26/58/16
f 27/15/17 44/63/17 26/64/17
f 1/65/18 46/66/18 37/67/18
f 12/68/19 39/69/19 41/70/19
f 18/49/12 14/50/12 17/43/12
f 1/65/20 38/71/20 7/72/20
f 12/68/21 11/73/21 36/74/21
f 10/75/21 9/76/21 35/77/21
f 13/78/22 35/77/22 9/76/22
f 36/74/23 8/31/23 12/68/23
f 25/79/10 23/46/10 19/12/10
f 3/45/10 34/1/10 19/12/10
f 35/3/10 13/7/10 14/9/10
f 14/9/10 20/10/10 19/12/10
f 19/12/10 23/46/10 3/45/10
f 35/77/21 11/73/21 10/75/21
f 3/52/14 4/26/14 5/25/14
f 18/49/24 42/80/24 43/81/24
f 33/82/14 34/83/14 6/51/14
f 6/32/23 8/31/23 33/84/23
f 4/26/8 30/22/8 2/24/8
f 15/41/25 10/85/25 16/42/25
f 37/67/26 48/86/26 38/71/26
f 46/87/27 54/88/27 56/89/27
f 42/80/28 50/90/28 52/91/28
f 43/92/29 55/93/29 45/94/29
f 45/94/30 54/88/30 44/63/30
f 38/71/31 49/95/31 39/96/31
f 8/97/32 38/71/32 39/96/32
f 18/14/33 45/94/33 27/15/33
f 29/98/34 44/63/34 46/87/34
f 11/73/35 41/70/35 40/99/35
f 51/100/36 60/101/36 50/102/36
f 48/103/37 57/104/37 58/105/37
f 54/106/38 66/107/38 56/108/38
f 50/90/39 62/109/39 52/91/39
f 55/110/40 63/111/40 65/112/40
f 54/106/41 65/112/41 64/113/41
f 40/99/42 51/100/42 50/102/42
f 39/69/43 51/100/43 41/70/43
f 46/66/44 47/114/44 37/67/44
f 43/81/45 52/91/45 53/115/45
f 57/104/46 64/113/46 58/105/46
f 61/116/47 59/117/47 64/113/47
f 58/105/47 64/113/47 59/117/47
f 65/112/47 63/111/47 62/118/47
f 61/116/47 64/113/47 60/119/47
f 62/118/47 64/113/47 65/112/47
f 49/120/48 61/121/48 51/100/48
f 47/122/49 66/107/49 57/104/49
f 52/91/50 63/123/50 53/115/50
f 49/124/51 58/105/51 59/117/51
f 22/27/5 21/13/5 27/15/5
f 14/9/10 19/12/10 34/1/10
f 29/38/11 1/125/11 2/39/11
f 24/44/13 4/126/13 3/45/13
f 6/51/14 34/83/14 3/52/14
f 17/53/15 11/127/15 40/54/15
f 6/32/9 5/28/9 1/30/9
f 23/16/6 31/18/6 32/59/6
f 29/38/16 32/61/16 31/62/16
f 27/15/17 45/94/17 44/63/17
f 1/65/18 29/128/18 46/66/18
f 12/68/19 8/31/19 39/69/19
f 18/49/12 20/48/12 14/50/12
f 1/65/20 37/67/20 38/71/20
f 36/74/23 33/84/23 8/31/23
f 35/77/21 36/74/21 11/73/21
f 18/49/24 17/43/24 42/80/24
f 4/26/8 24/23/8 30/22/8
f 15/41/25 9/129/25 10/85/25
f 37/67/26 47/114/26 48/86/26
f 46/87/52 44/63/52 54/88/52
f 42/80/28 40/130/28 50/90/28
f 43/92/29 53/131/29 55/93/29
f 45/94/30 55/93/30 54/88/30
f 38/71/31 48/86/31 49/95/31
f 8/97/32 7/72/32 38/71/32
f 18/14/33 43/92/33 45/94/33
f 29/98/34 26/64/34 44/63/34
f 11/73/35 12/68/35 41/70/35
f 51/100/36 61/121/36 60/101/36
f 48/103/37 47/122/37 57/104/37
f 54/106/38 64/113/38 66/107/38
f 50/90/39 60/132/39 62/109/39
f 55/110/40 53/133/40 63/111/40
f 54/106/53 55/110/53 65/112/53
f 40/99/42 41/70/42 51/100/42
f 39/69/43 49/120/43 51/100/43
f 46/66/44 56/134/44 47/114/44
f 43/81/45 42/80/45 52/91/45
f 57/104/46 66/107/46 64/113/46
f 62/118/47 60/119/47 64/113/47
f 49/120/48 59/135/48 61/121/48
f 47/122/49 56/108/49 66/107/49
f 52/91/50 62/109/50 63/123/50
f 49/124/51 48/103/51 58/105/51
