# Blender v2.77 (sub 0) OBJ File: 'LowPoly_Level_Kit_Rocks.blend'
# www.blender.org
g Rocks_Flat_s_01
v -0.175396 -0.009649 0.224407
v -0.180751 0.015964 0.221855
v -0.224346 -0.009649 0.161658
v -0.224806 0.015964 0.165381
v -0.287095 -0.009649 0.210607
v -0.281280 0.015964 0.209436
v 0.205777 -0.013207 -0.081410
v 0.212946 0.017309 -0.086852
v 0.324459 -0.013207 -0.103689
v 0.319760 0.017309 -0.106903
v 0.302180 -0.013207 -0.222372
v 0.299709 0.017309 -0.213717
v -0.251435 0.030644 -0.213562
v -0.320341 -0.009233 -0.271468
v -0.202911 -0.009233 -0.243325
v -0.231054 -0.009233 -0.125895
v -0.143171 -0.006276 0.024016
v -0.143075 0.025371 0.023750
v -0.039809 -0.007800 -0.122330
v -0.039713 0.023847 -0.122596
v 0.071607 -0.006018 0.119970
v 0.071703 0.025629 0.119705
v 0.106854 -0.007624 -0.056807
v 0.106950 0.024023 -0.057072
v 0.169941 0.001497 0.009517
v 0.170077 0.016927 0.009536
v 0.239958 0.000754 0.025800
v 0.240094 0.016184 0.025819
v 0.147727 0.001623 0.072073
v 0.147863 0.017053 0.072092
v 0.213392 0.000840 0.094680
v 0.213528 0.016270 0.094699
v 0.088884 0.005088 0.290263
v 0.088933 0.013028 0.290211
v 0.116527 0.004705 0.265682
v 0.116576 0.012645 0.265630
v 0.108569 0.005152 0.318181
v 0.108617 0.013092 0.318129
v 0.137576 0.004750 0.297307
v 0.137624 0.012689 0.297256
vt 0.0648 0.4518
vt 0.0759 0.4518
vt 0.0759 0.4628
vt 0.0561 0.4704
vt 0.0597 0.4604
vt 0.0597 0.4711
vt 0.0919 0.4411
vt 0.0955 0.4514
vt 0.0919 0.4511
vt 0.0945 0.4518
vt 0.0981 0.4666
vt 0.0945 0.4674
vt 0.0508 0.4534
vt 0.0508 0.4634
vt 0.0408 0.4634
vt 0.0309 0.4366
vt 0.0477 0.4366
vt 0.0477 0.4534
vt 0.0902 0.4659
vt 0.0945 0.4518
vt 0.0945 0.4668
vt 0.0902 0.4666
vt 0.0859 0.4518
vt 0.0902 0.4524
vt 0.0561 0.4592
vt 0.0604 0.4366
vt 0.0604 0.4604
vt 0.0800 0.4366
vt 0.0800 0.4518
vt 0.0648 0.4518
vt 0.0880 0.4396
vt 0.0800 0.4395
vt 0.0919 0.4277
vt 0.0800 0.4158
vt 0.0919 0.4039
vt 0.0919 0.4514
vt 0.0604 0.4616
vt 0.0648 0.4366
vt 0.0648 0.4615
vt 0.0973 0.4040
vt 0.0919 0.4235
vt 0.0929 0.4039
vt 0.0963 0.4235
vt 0.0929 0.4402
vt 0.0510 0.4366
vt 0.0554 0.4684
vt 0.0510 0.4684
vt 0.0800 0.4366
vt 0.0554 0.4095
vt 0.0800 0.4039
vt 0.0554 0.4095
vt 0.0309 0.4366
vt 0.0309 0.4039
vt 0.0505 0.4443
vt 0.0488 0.4366
vt 0.0510 0.4367
vt 0.0510 0.4498
vt 0.0483 0.4443
vt 0.0955 0.4499
vt 0.0976 0.4404
vt 0.0976 0.4499
vt 0.0625 0.4703
vt 0.0604 0.4616
vt 0.0625 0.4616
vt 0.0408 0.4627
vt 0.0311 0.4535
vt 0.0408 0.4534
vt 0.0762 0.4620
vt 0.0859 0.4529
vt 0.0859 0.4621
vt 0.0833 0.4672
vt 0.0821 0.4621
vt 0.0833 0.4621
vt 0.0821 0.4674
vt 0.0810 0.4621
vt 0.0821 0.4621
vt 0.0638 0.4616
vt 0.0625 0.4650
vt 0.0627 0.4616
vt 0.0638 0.4684
vt 0.0636 0.4650
vt 0.0699 0.4676
vt 0.0649 0.4629
vt 0.0699 0.4628
vt 0.0760 0.4674
vt 0.0810 0.4627
vt 0.0810 0.4675
vt 0.0561 0.4608
vt 0.0955 0.4404
vt 0.0981 0.4525
vt 0.0859 0.4675
vt 0.0561 0.4378
vt 0.0604 0.4366
vt 0.0973 0.4402
vt 0.0554 0.4367
vt 0.0554 0.4318
vt 0.0554 0.4318
vt 0.0488 0.4497
vt 0.0955 0.4404
vt 0.0604 0.4703
vt 0.0309 0.4638
vt 0.0759 0.4518
vt 0.0821 0.4672
vt 0.0810 0.4674
vt 0.0627 0.4684
vt 0.0648 0.4682
vt 0.0759 0.4621
vn 0.0000 -1.0000 0.0000
vn -0.6118 0.1030 -0.7843
vn 0.7843 0.1030 -0.6118
vn -0.1223 0.0730 0.9898
vn 0.0000 1.0000 0.0000
vn 0.9744 0.1308 -0.1829
vn 0.1829 0.1308 0.9744
vn -0.8219 0.0929 -0.5621
vn 0.1640 0.7104 -0.6844
vn -0.6938 0.5809 0.4256
vn 0.6844 0.7104 0.1640
vn -0.8168 -0.0024 -0.5769
vn 0.4079 -0.0089 -0.9130
vn 0.9807 -0.0013 0.1956
vn -0.4079 0.0089 0.9130
vn -0.0026 -1.0000 0.0086
vn 0.0026 1.0000 -0.0086
vn 0.2265 -0.0008 -0.9740
vn 0.9330 -0.0087 0.3598
vn -0.3255 0.0017 0.9455
vn -0.9423 0.0087 -0.3346
vn -0.0112 -0.9999 -0.0020
vn 0.0112 0.9999 0.0020
vn -0.6645 -0.0008 -0.7473
vn 0.8325 -0.0087 -0.5540
vn 0.5841 0.0017 0.8117
vn -0.8173 0.0087 0.5762
vn -0.0081 -0.9999 0.0080
vn 0.0081 0.9999 -0.0080
vn -0.0100 -0.9999 -0.0026
vn 0.0100 0.9999 0.0026
vn -0.0079 -0.9999 0.0067
vn 0.0079 0.9999 -0.0067
s off
f 5/1/1 3/2/1 1/3/1
f 6/4/2 3/5/2 5/6/2
f 2/7/3 3/8/3 4/9/3
f 1/10/4 6/11/4 5/12/4
f 2/13/5 4/14/5 6/15/5
f 11/16/1 9/17/1 7/18/1
f 12/19/6 9/20/6 11/21/6
f 8/22/7 9/23/7 10/24/7
f 8/25/8 11/26/8 7/27/8
f 8/28/5 10/29/5 12/30/5
f 13/31/9 15/32/9 14/33/9
f 14/33/1 15/34/1 16/35/1
f 16/36/10 13/31/10 14/33/10
f 13/31/11 16/36/11 15/32/11
f 18/37/12 19/38/12 17/39/12
f 20/40/13 23/41/13 19/42/13
f 24/43/14 21/44/14 23/41/14
f 18/45/15 21/46/15 22/47/15
f 17/48/16 23/49/16 21/50/16
f 24/51/17 18/52/17 22/53/17
f 28/54/18 25/55/18 26/56/18
f 32/57/19 27/58/19 28/54/19
f 32/59/20 29/60/20 31/61/20
f 26/62/21 29/63/21 30/64/21
f 25/65/22 31/66/22 29/67/22
f 32/68/23 26/69/23 30/70/23
f 36/71/24 33/72/24 34/73/24
f 40/74/25 35/75/25 36/76/25
f 40/77/26 37/78/26 39/79/26
f 34/80/27 37/78/27 38/81/27
f 33/82/28 39/83/28 37/84/28
f 40/85/29 34/86/29 38/87/29
f 6/4/2 4/88/2 3/5/2
f 2/7/3 1/89/3 3/8/3
f 1/10/4 2/90/4 6/11/4
f 12/19/6 10/24/6 9/20/6
f 8/22/7 7/91/7 9/23/7
f 8/25/8 12/92/8 11/26/8
f 18/37/12 20/93/12 19/38/12
f 20/40/13 24/43/13 23/41/13
f 24/43/14 22/94/14 21/44/14
f 18/45/15 17/95/15 21/46/15
f 17/48/16 19/96/16 23/49/16
f 24/51/17 20/97/17 18/52/17
f 28/54/18 27/58/18 25/55/18
f 32/57/19 31/98/19 27/58/19
f 32/59/20 30/99/20 29/60/20
f 26/62/21 25/100/21 29/63/21
f 25/65/30 27/101/30 31/66/30
f 32/68/31 28/102/31 26/69/31
f 36/71/24 35/103/24 33/72/24
f 40/74/25 39/104/25 35/75/25
f 40/77/26 38/81/26 37/78/26
f 34/80/27 33/105/27 37/78/27
f 33/82/32 35/106/32 39/83/32
f 40/85/33 36/107/33 34/86/33
