# Blender v2.77 (sub 0) OBJ File: 'LowPoly_Level_Kit_Rocks.blend'
# www.blender.org
g Rock_Flat_s_03
v -0.317520 0.000000 0.317520
v -0.280595 0.114307 0.285768
v -0.167287 0.000000 -0.317520
v -0.145385 0.114307 -0.285768
v 0.317520 0.000000 0.317520
v 0.290941 0.114307 0.285768
v 0.317520 0.000000 -0.317520
v 0.290941 0.114307 -0.285768
v -0.280595 0.114307 0.000000
v -0.317520 0.000000 0.000000
v 0.404042 0.114307 0.000000
v 0.443188 0.000000 0.000000
vt 0.3259 0.3900
vt 0.3259 0.4386
vt 0.3064 0.3980
vt 0.3064 0.4386
vt 0.2847 0.3900
vt 0.2630 0.4351
vt 0.2630 0.3900
vt 0.3110 0.4386
vt 0.3147 0.4720
vt 0.3064 0.4728
vt 0.3503 0.3900
vt 0.3537 0.4005
vt 0.3455 0.3995
vt 0.2847 0.4440
vt 0.3064 0.4007
vt 0.3110 0.4824
vt 0.3064 0.4351
vt 0.3455 0.3980
vt 0.3455 0.4290
vt 0.3283 0.4414
vt 0.3188 0.4606
vt 0.3203 0.4386
vt 0.3283 0.4832
vt 0.3203 0.4850
vt 0.3580 0.4408
vt 0.3503 0.4444
vt 0.3188 0.4413
vt 0.3580 0.3919
vt 0.3188 0.4808
vt 0.3270 0.4612
vn 0.0000 1.0000 0.0000
vn 0.0000 -1.0000 0.0000
vn 0.0000 0.2676 -0.9635
vn 0.8860 0.3034 0.3507
vn 0.8860 0.3034 -0.3507
vn -0.9516 0.3074 0.0000
vn -0.8677 0.2803 -0.4105
vn 0.0000 0.2676 0.9635
s off
f 11/1/1 9/2/1 6/3/1
f 6/3/1 9/2/1 2/4/1
f 10/5/2 5/6/2 1/7/2
f 3/8/3 8/9/3 7/10/3
f 12/11/4 6/12/4 5/13/4
f 12/14/2 10/5/2 3/15/2
f 8/9/5 12/16/5 7/10/5
f 3/15/2 7/17/2 12/14/2
f 11/1/1 8/18/1 4/19/1
f 2/20/6 10/21/6 1/22/6
f 10/21/7 4/23/7 3/24/7
f 5/13/8 2/25/8 1/26/8
f 11/1/1 4/19/1 9/2/1
f 3/8/3 4/27/3 8/9/3
f 12/11/4 11/28/4 6/12/4
f 12/14/2 5/6/2 10/5/2
f 8/9/5 11/29/5 12/16/5
f 2/20/6 9/30/6 10/21/6
f 10/21/7 9/30/7 4/23/7
f 5/13/8 6/12/8 2/25/8
