# Blender v2.77 (sub 0) OBJ File: 'LowPoly_Level_Kit_Rocks.blend'
# www.blender.org
g Rocks_Flat_m_03
v 0.498497 -0.000153 0.395745
v 0.498497 0.090378 0.395745
v 0.775797 -0.000153 0.119271
v 0.775797 0.090378 0.119271
v 1.052272 -0.000153 0.539416
v 1.052272 0.090378 0.539416
v 0.869617 0.090378 0.659611
v 0.773268 -0.000153 0.723013
v 0.553540 0.090378 0.696467
v 0.585423 -0.000153 0.744917
v 0.246207 0.590109 -0.316213
v 0.197628 0.695403 -0.276434
v 0.336356 0.613264 0.276858
v -0.137005 0.609448 0.336868
v -0.115918 0.497092 0.370342
v 0.424530 0.635913 -0.073192
v -0.161899 0.603054 -0.080188
v -0.137215 0.491622 -0.078776
v 0.304228 0.669731 0.265598
v -0.074826 0.625419 0.324804
v 0.268901 0.713710 -0.180686
v 0.377538 0.711801 -0.060458
v 0.076505 0.664291 0.102254
v -0.491705 0.518339 -0.236118
v -0.513221 0.512812 0.026361
v -0.544955 0.386888 0.047353
v -0.557215 0.383739 -0.286743
v -0.522077 0.510537 -0.214973
v -0.534440 0.475342 -0.311050
v -0.110728 0.616198 -0.407746
v -0.098670 0.501522 -0.441783
v -0.262382 0.577243 -0.395769
v -0.441052 0.494448 -0.392025
v -0.410965 0.421305 -0.417120
v -0.432154 0.000000 0.612552
v -0.465616 0.175667 0.618681
v -0.746643 0.000000 0.942542
v -0.748656 0.175667 0.915673
v -0.815111 0.000000 0.388660
v -0.810277 0.175667 0.417178
v -1.039003 0.000000 0.771617
v -1.011780 0.175667 0.761840
v -0.566367 0.175667 0.791012
v -0.544100 0.000000 0.804030
v -0.979234 0.175667 0.549634
v -1.002840 0.000000 0.535832
v 0.188936 0.526156 -0.435447
v 0.246842 0.597566 -0.227836
v 0.278272 0.540518 -0.436997
v 0.314568 0.559953 -0.391943
v 0.612566 0.478047 0.370835
v 0.302044 0.598235 0.194846
v 0.237457 0.412555 0.316840
v 0.431328 0.401481 0.378566
v 0.770106 0.412386 0.376897
v 0.132883 0.392868 -0.422460
v 0.348738 0.253505 -0.409379
v 0.221035 0.382607 0.290303
v 0.252995 0.361645 0.287276
v 1.032790 0.126511 0.404057
v 1.101856 0.010663 0.348842
v 0.980000 0.323228 0.355199
v 1.223956 -0.003880 0.091062
v 0.999805 0.224324 0.394661
v 0.437194 0.472600 -0.430719
v 0.894725 0.037687 -0.267822
v 0.526206 0.471926 -0.380560
v 1.230828 -0.003829 -0.086999
v 0.623540 0.138969 -0.398805
v 0.830797 0.352528 -0.234683
v 1.210041 0.203866 -0.053052
v 1.260793 0.071152 -0.053567
v -0.935980 0.000030 -0.281448
v -0.928023 0.194990 -0.417656
v 0.291716 0.158124 -0.233379
v 0.171830 0.109140 -0.387518
v -0.936768 0.385823 -0.267973
v -0.601559 0.384718 -0.536479
v -0.522437 0.384599 -0.565277
v -0.120173 0.385023 -0.462282
v -0.949432 0.386715 -0.051187
v 0.298421 0.255282 -0.152923
v 0.200129 0.386312 -0.149053
v 0.174503 0.386715 -0.051187
v 0.169075 0.165572 0.604248
v -0.965203 0.000030 0.218781
v -0.965151 0.295932 0.217880
v -0.362663 0.000030 0.558792
v -0.281187 0.165572 0.604248
v -0.931218 0.024985 -0.362966
v -0.928023 0.049049 -0.417656
v -0.872755 0.000030 -0.302109
v 0.128569 0.071730 -0.398595
v 0.129383 0.000030 -0.234945
v -0.522437 0.125662 -0.565277
v 0.310544 0.076450 -0.007442
v 0.210967 0.000030 -0.054806
v 0.144592 0.000030 0.558792
v 0.326057 0.102470 0.178712
v 0.243637 0.073924 0.579082
vt 0.9100 0.4175
vt 0.9129 0.4018
vt 0.9129 0.4177
vt 0.9806 0.4518
vt 0.9846 0.4423
vt 0.9836 0.4520
vt 0.9262 0.4500
vt 0.9287 0.4571
vt 0.9256 0.4607
vt 0.9061 0.4499
vt 0.8893 0.4499
vt 0.9061 0.4428
vt 0.9132 0.4472
vt 0.9172 0.4362
vt 0.9189 0.4499
vt 0.8920 0.4374
vt 0.9292 0.4669
vt 0.9300 0.4500
vt 0.9816 0.4606
vt 0.7661 0.4374
vt 0.7531 0.4518
vt 0.7512 0.4367
vt 0.8408 0.3995
vt 0.8272 0.3972
vt 0.8344 0.3919
vt 0.7815 0.4626
vt 0.7856 0.4603
vt 0.7854 0.4636
vt 0.7645 0.4557
vt 0.7730 0.4507
vt 0.8468 0.3875
vt 0.8515 0.4024
vt 0.8517 0.3974
vt 0.8378 0.4111
vt 0.8269 0.3992
vt 0.7814 0.4737
vt 0.7854 0.4739
vt 0.7856 0.4778
vt 0.8286 0.3848
vt 0.8520 0.4854
vt 0.8559 0.4827
vt 0.8559 0.4847
vt 0.8559 0.4636
vt 0.8519 0.4706
vt 0.8531 0.4626
vt 0.8465 0.4101
vt 0.8459 0.4111
vt 0.8394 0.3819
vt 0.8435 0.3853
vt 0.7820 0.4835
vt 0.7850 0.4830
vt 0.7630 0.4238
vt 0.7741 0.4244
vt 0.7816 0.4238
vt 0.7824 0.4354
vt 0.7780 0.4357
vt 0.7841 0.4431
vt 0.7836 0.4464
vt 0.7803 0.4463
vt 0.7833 0.4499
vt 0.8517 0.4082
vt 0.8491 0.4114
vt 0.7780 0.4296
vt 0.7780 0.4398
vt 0.7820 0.4557
vt 0.7847 0.4559
vt 0.8960 0.4499
vt 0.8960 0.4654
vt 0.8893 0.4525
vt 0.8893 0.4654
vt 0.9677 0.4352
vt 0.9603 0.4496
vt 0.9603 0.4352
vt 0.9300 0.4475
vt 0.9375 0.4530
vt 0.9318 0.4536
vt 0.9191 0.4576
vt 0.9256 0.4620
vt 0.9197 0.4623
vt 0.9677 0.4525
vt 0.9750 0.4387
vt 0.9256 0.4509
vt 0.9197 0.4500
vt 0.9750 0.4497
vt 0.9027 0.4525
vt 0.9027 0.4623
vt 0.9375 0.4350
vt 0.9306 0.4397
vt 0.9318 0.4337
vt 0.9359 0.4475
vt 0.9132 0.4500
vt 0.9191 0.4631
vt 0.9132 0.4641
vt 0.3198 0.4498
vt 0.3193 0.4542
vt 0.3139 0.4495
vt 0.3434 0.4138
vt 0.3502 0.4181
vt 0.3426 0.4187
vt 0.2754 0.4313
vt 0.2769 0.4249
vt 0.2778 0.4253
vt 0.3119 0.4610
vt 0.3192 0.4777
vt 0.3117 0.4747
vt 0.3104 0.4639
vt 0.3110 0.4754
vt 0.3017 0.4807
vt 0.3206 0.4515
vt 0.3475 0.4097
vt 0.3011 0.4706
vt 0.3092 0.4609
vt 0.3469 0.4045
vt 0.3052 0.4924
vt 0.3117 0.4896
vt 0.3081 0.4927
vt 0.3117 0.4574
vt 0.3019 0.4419
vt 0.3011 0.4305
vt 0.3032 0.4259
vt 0.3081 0.4953
vt 0.2777 0.4242
vt 0.3011 0.4193
vt 0.3182 0.4786
vt 0.3145 0.4542
vt 0.3192 0.4545
vt 0.3093 0.4542
vt 0.3102 0.4561
vt 0.3054 0.4549
vt 0.3027 0.4622
vt 0.3433 0.3958
vt 0.3466 0.3973
vt 0.3011 0.4351
vt 0.3009 0.4262
vt 0.3406 0.3937
vt 0.2774 0.4526
vt 0.3425 0.3834
vt 0.3386 0.3897
vt 0.3069 0.4202
vt 0.3225 0.4193
vt 0.3225 0.4328
vt 0.3225 0.4436
vt 0.2973 0.4442
vt 0.2863 0.4558
vt 0.3502 0.3851
vt 0.3468 0.3819
vt 0.3807 0.4108
vt 0.3904 0.4217
vt 0.3866 0.4237
vt 0.3942 0.4816
vt 0.3865 0.4770
vt 0.3933 0.4730
vt 0.4557 0.4038
vt 0.4452 0.4166
vt 0.4182 0.4019
vt 0.4171 0.3871
vt 0.3966 0.3862
vt 0.4039 0.3819
vt 0.4922 0.4375
vt 0.4814 0.4454
vt 0.4851 0.4260
vt 0.3912 0.4238
vt 0.3884 0.4237
vt 0.4814 0.4201
vt 0.4701 0.4300
vt 0.4701 0.4193
vt 0.4884 0.4545
vt 0.4837 0.4582
vt 0.4847 0.4527
vt 0.3851 0.3894
vt 0.3908 0.3891
vt 0.4931 0.4520
vt 0.3807 0.4718
vt 0.3942 0.4660
vt 0.3826 0.4557
vt 0.4183 0.4090
vt 0.4290 0.4182
vt 0.4564 0.4070
vt 0.4316 0.4193
vt 0.3978 0.3828
vt 0.4174 0.3838
vt 0.4414 0.3819
vt 0.4564 0.3827
vt 0.4651 0.4302
vt 0.4719 0.4431
vt 0.4672 0.4449
vt 0.4934 0.4256
vt 0.4825 0.4466
vt 0.4181 0.4036
vt 0.4905 0.4193
vt 0.4858 0.4195
vt 0.4079 0.4238
vt 0.4940 0.4243
vt 0.4814 0.4571
vt 0.4940 0.4535
vt 0.4860 0.4626
vt 0.3818 0.4764
vt 0.3812 0.4745
vt 0.4148 0.4412
vt 0.4166 0.4398
vt 0.4166 0.4462
vt 0.4670 0.4276
vt 0.3901 0.3838
vt 0.3853 0.3880
vt 0.9100 0.4016
vt 0.9819 0.4405
vt 0.9292 0.4501
vt 0.9014 0.4336
vt 0.9258 0.4665
vt 0.9300 0.4337
vt 0.9846 0.4608
vt 0.8541 0.4710
vt 0.7853 0.4241
vt 0.7853 0.4486
vt 0.9250 0.4578
vt 0.9365 0.4404
vt 0.9191 0.4504
vt 0.2757 0.4507
vt 0.2922 0.4555
vt 0.3922 0.4570
vt 0.4718 0.4574
vt 0.4181 0.3932
vn 0.8354 0.0000 -0.5497
vn -0.9837 0.0000 0.1800
vn 0.5497 -0.0000 0.8354
vn 0.0000 1.0000 0.0000
vn 0.0000 -1.0000 0.0000
vn 0.1005 0.4967 0.8621
vn -0.7061 0.0000 -0.7082
vn 0.2488 -0.9686 0.0000
vn -0.2488 0.9686 0.0000
vn -0.1440 0.2676 -0.9527
vn 0.2575 0.2997 -0.9186
vn 0.6394 0.5118 -0.5738
vn -0.0992 0.9895 0.1054
vn 0.1062 0.3022 0.9473
vn 0.8424 0.4808 0.2433
vn 0.1192 0.2979 0.9471
vn 0.6474 0.4977 -0.5771
vn -0.6223 0.2788 0.7315
vn -0.9678 0.2494 0.0332
vn -0.6600 -0.0350 -0.7505
vn -0.4098 0.8723 -0.2668
vn -0.5007 0.1253 0.8565
vn -0.6106 0.1432 -0.7789
vn -0.9782 0.1432 -0.1500
vn 0.8541 0.1453 0.4994
vn 0.5596 0.1316 0.8183
vn 0.5007 0.1253 -0.8565
vn -0.1571 0.9465 -0.2818
vn -0.2149 0.5874 0.7803
vn -0.2825 -0.5447 0.7896
vn -0.9111 0.3947 0.1184
vn 0.4832 0.1881 -0.8550
vn 0.0018 0.0962 0.9954
vn 0.3372 0.7347 -0.5886
vn 0.3859 0.9211 -0.0519
vn 0.9225 -0.3845 0.0355
vn -0.2825 -0.5448 0.7896
vn -0.5439 -0.8373 0.0552
vn -0.0018 -0.0962 -0.9954
vn 0.2616 0.4024 0.8773
vn -0.3861 -0.9181 0.0895
vn 0.8609 0.3277 0.3893
vn -0.1229 -0.9924 -0.0022
vn 0.0269 -0.9156 -0.4013
vn -0.5388 0.5045 -0.6747
vn 0.0000 1.0000 -0.0041
vn 0.5884 -0.8061 0.0636
vn 0.2480 0.0000 -0.9688
vn -0.0969 -0.9501 -0.2965
vn 0.7861 0.5837 0.2034
vn 0.9965 -0.0000 -0.0830
vn 0.6130 0.4784 -0.6288
vn -0.9983 0.0000 -0.0583
vn 0.0000 0.9475 0.3197
vn 0.0000 -0.2648 0.9643
vn -0.3420 0.0000 -0.9397
vn -0.4914 0.0027 0.8709
vn 0.9147 0.3828 -0.1297
vn 0.6666 -0.6815 -0.3019
vn -0.9492 -0.2078 0.2363
vn 0.2530 0.4419 -0.8607
vn 0.8191 0.5160 0.2507
vn 0.1194 0.2591 0.9584
vn 0.6469 0.5064 -0.5701
vn -0.6487 0.1029 0.7540
vn -0.6540 -0.0095 -0.7565
vn -0.1200 -0.9928 -0.0049
vn 0.7980 0.4119 0.4399
s off
f 4/1/1 5/2/1 3/3/1
f 1/4/2 9/5/2 2/6/2
f 5/7/3 7/8/3 8/9/3
f 6/10/4 4/11/4 7/12/4
f 10/13/5 1/14/5 8/15/5
f 2/16/4 7/12/4 4/11/4
f 9/17/6 8/9/6 7/8/6
f 1/14/5 5/18/5 8/15/5
f 2/6/7 3/19/7 1/4/7
f 18/20/8 13/21/8 15/22/8
f 17/23/9 20/24/9 23/25/9
f 31/26/10 32/27/10 30/28/10
f 16/29/8 18/20/8 11/30/8
f 23/25/9 12/31/9 17/23/9
f 32/32/9 17/23/9 30/33/9
f 25/34/9 14/35/9 17/23/9
f 30/28/11 11/36/11 31/26/11
f 11/36/12 12/37/12 21/38/12
f 23/25/13 20/24/13 19/39/13
f 15/40/14 20/41/14 14/42/14
f 22/43/15 13/44/15 16/45/15
f 25/34/9 24/46/9 28/47/9
f 23/25/13 22/48/13 21/49/13
f 13/44/16 20/41/16 15/40/16
f 16/50/17 21/38/17 22/51/17
f 18/20/8 26/52/8 27/53/8
f 18/20/8 15/22/8 26/52/8
f 15/54/18 25/55/18 26/56/18
f 28/57/19 29/58/19 27/59/19
f 29/58/20 34/60/20 27/59/20
f 24/46/21 32/32/21 33/61/21
f 24/46/21 29/62/21 28/47/21
f 18/20/8 34/63/8 31/64/8
f 11/30/8 18/20/8 31/64/8
f 17/23/9 12/31/9 30/33/9
f 32/27/10 34/65/10 33/66/10
f 28/57/19 26/56/19 25/55/19
f 45/67/4 43/68/4 40/69/4
f 40/69/4 43/68/4 36/70/4
f 44/71/5 39/72/5 35/73/5
f 37/74/22 42/75/22 41/76/22
f 46/77/23 40/78/23 39/79/23
f 46/80/5 44/71/5 37/81/5
f 42/82/24 46/77/24 41/83/24
f 37/81/5 41/84/5 46/80/5
f 45/67/4 42/85/4 38/86/4
f 36/87/25 44/88/25 35/89/25
f 44/88/26 38/90/26 37/74/26
f 39/91/27 36/92/27 35/93/27
f 50/94/28 47/95/28 48/96/28
f 54/97/29 52/98/29 53/99/29
f 54/100/30 53/101/30 59/102/30
f 48/103/31 58/104/31 52/105/31
f 67/106/32 70/107/32 66/108/32
f 50/94/28 49/109/28 47/95/28
f 54/97/29 51/110/29 52/98/29
f 67/106/32 69/111/32 65/112/32
f 51/110/33 54/97/33 55/113/33
f 68/114/32 71/115/32 72/116/32
f 65/112/34 50/117/34 67/106/34
f 52/118/35 51/119/35 55/120/35
f 72/116/36 63/121/36 68/114/36
f 53/101/37 58/122/37 59/102/37
f 56/123/38 59/102/38 58/122/38
f 53/124/31 52/105/31 58/104/31
f 48/103/31 47/125/31 56/126/31
f 56/126/31 58/104/31 48/103/31
f 47/127/39 49/128/39 56/129/39
f 57/130/39 65/112/39 69/111/39
f 56/129/39 49/128/39 57/130/39
f 55/113/40 64/131/40 62/132/40
f 69/133/41 59/102/41 57/134/41
f 60/135/33 55/113/33 54/97/33
f 61/136/37 54/100/37 59/102/37
f 63/137/42 60/135/42 61/138/42
f 55/120/35 62/139/35 71/140/35
f 55/120/35 71/140/35 70/141/35
f 48/96/35 67/142/35 50/94/35
f 66/143/43 63/144/43 61/136/43
f 64/131/42 71/145/42 62/132/42
f 64/131/42 63/137/42 72/146/42
f 52/118/35 70/141/35 48/96/35
f 66/108/32 71/115/32 68/114/32
f 66/143/41 59/102/41 69/133/41
f 95/147/44 92/148/44 91/149/44
f 78/150/45 74/151/45 77/152/45
f 84/153/46 80/154/46 81/155/46
f 98/156/47 97/157/47 99/158/47
f 80/159/48 93/160/48 95/161/48
f 73/162/49 90/163/49 92/148/49
f 84/164/50 85/165/50 99/166/50
f 82/167/51 96/168/51 75/169/51
f 90/163/44 91/149/44 92/148/44
f 95/147/44 93/170/44 94/171/44
f 94/171/44 92/148/44 95/147/44
f 83/172/52 82/167/52 75/169/52
f 77/152/53 73/173/53 81/174/53
f 86/175/53 81/174/53 73/173/53
f 77/176/46 81/155/46 78/177/46
f 84/153/46 83/178/46 80/154/46
f 80/154/46 79/179/46 78/177/46
f 78/177/46 81/155/46 80/154/46
f 96/180/47 99/158/47 97/157/47
f 100/181/47 98/156/47 99/158/47
f 89/182/54 85/183/54 84/153/54
f 98/184/55 89/185/55 88/186/55
f 95/161/48 79/187/48 80/159/48
f 80/159/48 76/188/48 93/160/48
f 97/157/5 98/156/5 88/189/5
f 74/190/56 95/161/56 91/191/56
f 73/162/5 92/148/5 86/192/5
f 94/171/5 97/157/5 88/189/5
f 78/193/56 79/187/56 95/161/56
f 87/194/57 88/186/57 89/185/57
f 96/168/58 84/195/58 99/196/58
f 74/151/53 91/197/53 90/198/53
f 90/198/53 73/173/53 74/151/53
f 81/155/54 89/182/54 84/153/54
f 83/199/50 84/200/50 82/201/50
f 85/165/50 100/202/50 99/166/50
f 100/202/55 85/165/55 98/184/55
f 97/157/59 75/203/59 96/180/59
f 76/204/59 75/203/59 94/171/59
f 76/188/52 83/172/52 75/169/52
f 94/171/59 93/170/59 76/204/59
f 92/148/5 88/189/5 86/192/5
f 4/1/1 6/205/1 5/2/1
f 1/4/60 10/206/60 9/5/60
f 5/7/3 6/207/3 7/8/3
f 2/16/4 9/208/4 7/12/4
f 9/17/6 10/209/6 8/9/6
f 1/14/5 3/210/5 5/18/5
f 2/6/7 4/211/7 3/19/7
f 17/23/9 14/35/9 20/24/9
f 16/29/8 13/21/8 18/20/8
f 23/25/9 21/49/9 12/31/9
f 32/32/9 24/46/9 17/23/9
f 30/28/61 12/37/61 11/36/61
f 22/43/62 19/212/62 13/44/62
f 25/34/9 17/23/9 24/46/9
f 23/25/13 19/39/13 22/48/13
f 13/44/63 19/212/63 20/41/63
f 16/50/64 11/36/64 21/38/64
f 15/54/65 14/213/65 25/55/65
f 29/58/66 33/214/66 34/60/66
f 24/46/21 33/61/21 29/62/21
f 18/20/8 27/53/8 34/63/8
f 32/27/10 31/26/10 34/65/10
f 28/57/19 27/59/19 26/56/19
f 45/67/4 38/86/4 43/68/4
f 37/74/22 38/90/22 42/75/22
f 46/77/23 45/215/23 40/78/23
f 46/80/5 39/72/5 44/71/5
f 42/82/24 45/215/24 46/77/24
f 36/87/25 43/216/25 44/88/25
f 44/88/26 43/216/26 38/90/26
f 39/91/27 40/217/27 36/92/27
f 67/106/32 66/108/32 69/111/32
f 65/112/34 49/128/34 50/117/34
f 56/123/38 57/134/38 59/102/38
f 57/130/39 49/128/39 65/112/39
f 60/135/33 64/131/33 55/113/33
f 61/136/37 60/218/37 54/100/37
f 48/96/35 70/141/35 67/142/35
f 66/143/67 68/219/67 63/144/67
f 64/131/42 72/146/42 71/145/42
f 64/131/42 60/135/42 63/137/42
f 52/118/35 55/120/35 70/141/35
f 66/108/32 70/107/32 71/115/32
f 66/143/41 61/136/41 59/102/41
f 77/152/53 74/151/53 73/173/53
f 86/175/53 87/220/53 81/174/53
f 98/184/55 85/165/55 89/185/55
f 74/190/56 78/193/56 95/161/56
f 87/194/57 86/221/57 88/186/57
f 96/168/68 82/167/68 84/195/68
f 81/155/54 87/222/54 89/182/54
f 97/157/59 94/171/59 75/203/59
f 76/188/52 80/159/52 83/172/52
f 92/148/5 94/171/5 88/189/5
