# Blender v2.77 (sub 0) OBJ File: 'LowPoly_Level_Kit_Rocks.blend'
# www.blender.org
g Rock_Flat_l_05
v -0.968795 0.000000 -0.584553
v -0.307078 -0.000000 -0.763225
v 0.968795 0.000000 0.584553
v 0.518618 0.000000 0.882744
v 0.968795 1.600000 0.584553
v 1.046731 1.600000 -0.501809
v 0.641089 1.600000 -0.754031
v -0.649933 0.552004 0.805835
v -0.793688 1.066667 0.924542
v -1.086214 1.066667 0.682983
v -0.942460 0.552004 0.564276
v -0.392876 1.066667 -0.860186
v -0.392876 0.533333 -0.860186
v -1.086214 0.533333 -0.655402
v -1.086214 1.066667 -0.655402
v 1.164150 1.066667 -0.572657
v 0.726886 0.533333 -0.850992
v 0.726886 1.066667 -0.850992
v 0.604415 1.066667 0.979705
v 0.575169 0.542375 0.900322
v 1.086214 0.533333 0.655402
v 1.086214 1.066667 0.655402
v 1.185902 1.600000 0.041372
v 1.303321 1.066667 0.041372
v -1.264352 1.066667 0.000000
v -1.264352 0.533333 0.000000
v -0.960936 1.600000 0.618624
v -1.051610 1.223843 -0.634522
v -0.197827 1.600000 -0.762165
v -0.970097 1.594087 0.612920
v -0.316782 1.539679 -0.774191
v -1.209348 1.316503 0.000000
v 1.050413 0.000000 0.380353
v 1.164150 0.678585 -0.572657
v 1.095979 0.533333 -0.616051
v 1.242778 0.533333 0.212601
v 1.303321 0.751574 0.041372
v 0.160820 -0.000000 -0.758688
v 0.663943 0.142068 -0.779859
v 0.905728 0.000000 -0.436364
v 0.919435 0.106773 -0.609961
v -0.723814 1.501015 0.845577
v 0.679837 1.600000 0.775956
v 0.534507 1.501230 0.900701
v -0.852100 1.600000 0.708498
v -0.958873 0.207984 0.594103
v -0.546160 0.000000 0.834855
v -0.696976 0.103957 0.823486
v -1.081112 0.000000 -0.215991
v -1.179871 0.149607 0.000000
vt 0.9253 0.4171
vt 0.9097 0.4360
vt 0.9250 0.4145
vt 0.9590 0.4248
vt 0.9516 0.4294
vt 0.9586 0.4142
vt 0.9253 0.3974
vt 0.9096 0.3863
vt 0.9470 0.4404
vt 0.9578 0.4523
vt 0.9469 0.4635
vt 0.9351 0.4319
vt 0.9253 0.4206
vt 0.9246 0.4760
vt 0.9245 0.4786
vt 0.9138 0.4809
vt 0.9327 0.3906
vt 0.9486 0.3883
vt 0.9271 0.3987
vt 0.9868 0.4507
vt 0.9746 0.4580
vt 0.9739 0.4528
vt 0.8968 0.4298
vt 0.9228 0.4333
vt 0.8969 0.4300
vt 0.9612 0.4583
vt 0.9604 0.4552
vt 0.9553 0.4299
vt 0.8921 0.4696
vt 0.9031 0.4464
vt 0.9033 0.4718
vt 0.9557 0.4369
vt 0.9549 0.4419
vt 0.9361 0.4635
vt 0.9470 0.4782
vt 0.9361 0.4782
vt 0.9246 0.4443
vt 0.9226 0.4472
vt 0.9137 0.4457
vt 0.9597 0.4091
vt 0.9768 0.4090
vt 0.9624 0.4196
vt 0.9590 0.4046
vt 0.9737 0.4048
vt 0.9609 0.3983
vt 0.9737 0.3983
vt 0.8950 0.4275
vt 0.8921 0.3998
vt 0.8945 0.3964
vt 0.9138 0.4746
vt 0.9362 0.4404
vt 0.9255 0.4345
vt 0.9363 0.4319
vt 0.9266 0.4621
vt 0.9253 0.4596
vt 0.9792 0.4195
vt 0.9848 0.4084
vt 0.9828 0.4192
vt 0.9034 0.4781
vt 0.9138 0.4360
vt 0.9030 0.4361
vt 0.9578 0.4759
vt 0.9578 0.4619
vt 0.9731 0.3871
vt 0.9848 0.3975
vt 0.9655 0.4319
vt 0.9586 0.4443
vt 0.9578 0.4332
vt 0.9822 0.4406
vt 0.9721 0.4420
vt 0.9226 0.4732
vt 0.8985 0.3906
vt 0.9205 0.3892
vt 0.9330 0.4775
vt 0.8922 0.4386
vt 0.8921 0.4475
vt 0.9442 0.4319
vt 0.9471 0.4333
vt 0.9617 0.3870
vt 0.9609 0.4063
vt 0.9590 0.4175
vt 0.9254 0.4424
vt 0.9559 0.3908
vt 0.9310 0.4301
vt 0.9246 0.4784
vt 0.9706 0.4342
vt 0.8943 0.4727
vt 0.9277 0.3957
vt 0.9447 0.3863
vt 0.8964 0.4784
vt 0.9868 0.4617
vt 0.8925 0.4253
vt 0.9246 0.4385
vt 0.9828 0.3863
vt 0.9817 0.4335
vn -0.4210 0.8767 -0.2327
vn 0.2160 -0.8392 -0.4991
vn 0.0000 1.0000 -0.0000
vn 0.0081 -0.1788 -0.9838
vn -0.0000 -1.0000 0.0000
vn -0.6188 0.2358 0.7493
vn -0.5585 -0.7792 0.2843
vn -0.9464 0.2084 0.2468
vn -0.9368 0.2401 -0.2546
vn -0.0765 0.0380 0.9963
vn 0.5160 -0.2329 -0.8243
vn -0.2833 0.0000 -0.9590
vn 0.5369 0.2337 0.8106
vn 0.9111 -0.3794 -0.1614
vn 0.9753 0.0000 -0.2210
vn -0.0265 0.7985 0.6014
vn 0.0082 0.0000 -1.0000
vn -0.0383 -0.2347 0.9713
vn 0.5233 0.2244 -0.8221
vn 0.0095 0.1774 -0.9841
vn 0.9001 -0.2459 0.3597
vn -0.5999 -0.3351 0.7265
vn 0.4322 0.0000 0.9018
vn 0.5432 0.2315 0.8070
vn -0.2547 -0.2125 -0.9434
vn 0.9231 0.2032 0.3264
vn -0.9282 -0.2419 -0.2828
vn -0.8686 0.0000 0.4955
vn 0.9428 0.0000 0.3334
vn -0.2783 0.1864 -0.9422
vn 0.5503 -0.0843 0.8307
vn 0.5370 0.0000 -0.8436
vn 0.9474 0.2086 -0.2427
vn 0.0095 0.1803 -0.9836
vn -0.0430 0.1854 0.9817
vn 0.0095 -0.1774 -0.9841
vn 0.0095 -0.1803 -0.9836
vn -0.6188 0.2358 0.7494
vn -0.9360 -0.2061 -0.2852
vn -0.8506 -0.1873 0.4914
vn -0.0449 0.0440 0.9980
vn -0.6337 0.0968 0.7675
vn -0.9650 0.0000 -0.2623
vn -0.9362 0.2402 0.2566
vn -0.9419 0.2074 -0.2644
vn -0.0449 -0.0277 0.9986
vn 0.5228 -0.2281 -0.8214
vn -0.0772 -0.1450 0.9864
vn 0.5135 0.2328 -0.8259
vn 0.9178 -0.2290 0.3245
vn 0.5517 -0.1549 0.8196
vn 0.5379 0.2263 0.8121
vn -0.2783 -0.1864 -0.9422
vn 0.9001 0.2459 0.3597
vn -0.9414 -0.2198 -0.2559
vn -0.9193 -0.3121 0.2398
vn -0.2704 0.2141 -0.9386
vn 0.4196 -0.2097 0.8832
vn 0.9475 0.2371 -0.2147
vn 0.0081 0.1779 -0.9840
vn -0.0388 0.1727 0.9842
vn -0.9370 0.0743 0.3413
s off
f 31/1/1 32/2/1 29/3/1
f 39/4/2 40/5/2 38/6/2
f 7/7/3 29/3/3 23/8/3
f 17/9/4 38/10/4 13/11/4
f 38/6/5 33/12/5 4/13/5
f 45/14/6 30/15/6 10/16/6
f 46/17/7 49/18/7 47/19/7
f 10/20/8 32/21/8 25/22/8
f 27/23/1 29/3/1 32/2/1
f 31/1/1 28/24/1 32/2/1
f 32/2/1 30/25/1 27/23/1
f 25/22/9 28/26/9 15/27/9
f 39/4/2 41/28/2 40/5/2
f 47/29/10 20/30/10 8/31/10
f 17/9/11 41/32/11 39/33/11
f 12/34/12 14/35/12 15/36/12
f 43/37/13 44/38/13 19/39/13
f 35/40/14 36/41/14 40/42/14
f 38/6/5 47/19/5 2/43/5
f 37/44/15 16/45/15 24/46/15
f 45/47/16 44/48/16 43/49/16
f 12/34/17 17/9/17 13/11/17
f 8/31/18 19/39/18 9/50/18
f 18/51/19 6/52/19 16/53/19
f 31/54/20 29/55/20 12/34/20
f 33/56/21 21/57/21 3/58/21
f 11/59/22 9/50/22 10/16/22
f 22/60/23 20/30/23 21/61/23
f 22/60/24 43/37/24 19/39/24
f 1/62/25 13/11/25 2/63/25
f 23/64/26 22/65/26 24/46/26
f 49/66/27 14/67/27 1/68/27
f 11/69/28 25/22/28 26/70/28
f 42/71/6 10/16/6 9/50/6
f 5/72/3 23/8/3 43/49/3
f 6/73/3 7/7/3 23/8/3
f 29/3/3 27/23/3 45/47/3
f 37/44/29 24/46/29 22/65/29
f 28/74/30 12/34/30 15/36/30
f 3/75/31 20/30/31 4/76/31
f 34/77/32 35/78/32 17/9/32
f 24/46/33 6/79/33 23/64/33
f 37/44/14 35/40/14 34/80/14
f 33/56/14 40/42/14 36/41/14
f 41/81/14 35/40/14 40/42/14
f 18/51/34 29/55/34 7/82/34
f 9/50/35 44/38/35 42/71/35
f 2/63/36 13/11/36 38/10/36
f 17/9/37 39/33/37 38/10/37
f 34/77/32 18/51/32 16/53/32
f 49/18/5 1/83/5 2/43/5
f 40/5/5 33/12/5 38/6/5
f 3/84/5 4/13/5 33/12/5
f 49/18/5 2/43/5 47/19/5
f 36/41/29 22/65/29 21/57/29
f 27/85/38 30/15/38 45/14/38
f 50/86/39 26/70/39 49/66/39
f 43/49/3 29/3/3 45/47/3
f 50/86/40 11/69/40 26/70/40
f 8/31/41 48/87/41 47/29/41
f 47/19/7 48/88/7 46/17/7
f 46/17/7 50/89/7 49/18/7
f 46/90/42 8/31/42 11/59/42
f 26/70/43 15/27/43 14/67/43
f 10/20/44 30/91/44 32/21/44
f 25/22/45 32/21/45 28/26/45
f 47/29/46 4/76/46 20/30/46
f 17/9/47 35/78/47 41/32/47
f 12/34/12 13/11/12 14/35/12
f 35/40/14 37/44/14 36/41/14
f 38/6/5 4/13/5 47/19/5
f 37/44/15 34/80/15 16/45/15
f 45/47/16 42/92/16 44/48/16
f 12/34/17 18/51/17 17/9/17
f 8/31/48 20/30/48 19/39/48
f 18/51/49 7/82/49 6/52/49
f 33/56/50 36/41/50 21/57/50
f 11/59/22 8/31/22 9/50/22
f 22/60/51 19/39/51 20/30/51
f 22/60/52 5/93/52 43/37/52
f 1/62/53 14/35/53 13/11/53
f 23/64/54 5/94/54 22/65/54
f 49/66/55 26/70/55 14/67/55
f 11/69/56 10/20/56 25/22/56
f 42/71/6 45/14/6 10/16/6
f 28/74/57 31/54/57 12/34/57
f 3/75/58 21/61/58 20/30/58
f 24/46/59 16/45/59 6/79/59
f 18/51/60 12/34/60 29/55/60
f 9/50/61 19/39/61 44/38/61
f 34/77/32 17/9/32 18/51/32
f 36/41/29 37/44/29 22/65/29
f 43/49/3 23/8/3 29/3/3
f 50/86/62 46/95/62 11/69/62
f 46/90/42 48/87/42 8/31/42
f 26/70/43 25/22/43 15/27/43
