# Blender v2.77 (sub 0) OBJ File: 'LowPoly_Level_Kit_Rocks.blend'
# www.blender.org
g Rocks_Flat_m_01
v 0.843108 0.138960 -0.192567
v 1.014934 0.138960 0.246291
v 0.878083 0.027860 -0.441629
v 1.100141 0.027860 -0.321618
v 0.854182 0.138960 -0.243351
v 1.305105 0.027860 0.091769
v 1.165212 0.138960 0.149821
v 1.265013 0.027860 -0.064785
v 1.166435 0.074188 -0.197722
v 1.098312 0.138960 -0.111411
v 0.926180 0.120108 0.308653
v 0.736689 0.091855 0.257841
v 0.704552 0.027860 0.354133
v 0.809429 0.027860 0.409965
v 0.107381 0.247170 -0.435765
v -0.260133 0.523152 -0.374835
v -0.505850 0.395224 -0.135510
v -0.193916 0.270570 -0.243594
v -0.120425 0.417138 0.290667
v -0.183891 0.269839 0.165659
v 0.471145 0.483939 0.070146
v 0.260410 0.235368 0.181745
v 0.518878 0.362748 0.150539
v 0.463892 0.341914 -0.488557
v 0.469276 0.481553 -0.458589
v 0.458592 0.474878 -0.485431
v 0.572121 0.472535 -0.209048
v 0.643989 0.309276 -0.053606
v 0.598715 0.209078 -0.176027
v -0.258098 0.556729 0.119196
v -0.307393 0.559895 -0.238213
v -0.362346 0.540617 -0.318262
v -0.503607 0.466437 -0.180290
v -0.322547 0.522947 0.181284
v -0.477485 0.385055 0.001496
v -0.314346 0.321843 0.194699
v -0.311857 0.441354 0.291284
v -0.431400 0.476296 0.140870
v -0.379282 0.493514 0.231670
v 0.273160 0.234304 -0.461305
v 0.409433 0.280642 -0.481308
v 0.564110 0.211753 -0.260034
v 0.483589 0.283647 -0.447587
v -0.695439 0.302229 -0.075733
v -0.882977 0.212288 0.035809
v -0.746974 -0.000001 -0.017145
v -0.878099 0.070691 0.063477
v -0.890988 0.144975 -0.009621
v -0.466667 0.083373 -0.471644
v -0.432684 0.298551 -0.334576
v -0.271952 0.279783 -0.505977
v 0.678515 0.054862 -0.491749
v 0.680164 0.158186 -0.482400
v 0.373448 0.226675 -0.577006
v 0.287580 0.232404 -0.604638
v 0.578000 -0.000001 -0.529344
v 0.681224 -0.000001 0.168560
v 0.746812 0.061222 -0.104419
v 0.744532 0.198740 -0.117350
v 0.721493 0.219201 -0.028201
v 0.603899 0.245269 0.439419
v -0.245912 -0.000001 0.643393
v 0.629941 -0.000001 0.374313
v 0.583211 0.060638 0.552066
v 0.373098 0.072920 0.649710
v -0.531635 -0.000001 0.601567
v -0.802689 0.103303 0.491145
v -0.426978 -0.000001 0.640886
v -0.085230 0.295836 0.344950
v 0.543783 0.250941 0.466160
v 0.316248 0.128407 0.647209
v -0.630494 0.302229 0.292587
v -0.814499 0.212288 0.424168
v -0.412622 0.099435 0.638013
v -0.803822 0.175430 0.484723
v -0.397510 0.020886 -0.483838
v -0.449520 -0.000001 -0.392989
v 0.557094 -0.000001 -0.536190
v 0.322335 0.027024 -0.610766
vt 0.3413 0.4316
vt 0.3428 0.4262
vt 0.3428 0.4362
vt 0.2901 0.4658
vt 0.2869 0.4703
vt 0.2839 0.4661
vt 0.2905 0.4423
vt 0.2898 0.4487
vt 0.2798 0.4481
vt 0.3545 0.4504
vt 0.3545 0.4487
vt 0.3581 0.4423
vt 0.2813 0.4513
vt 0.2898 0.4505
vt 0.2775 0.4593
vt 0.2736 0.4566
vt 0.2815 0.4634
vt 0.2905 0.4693
vt 0.2828 0.4447
vt 0.3581 0.4684
vt 0.3560 0.4652
vt 0.2759 0.4518
vt 0.2736 0.4704
vt 0.2658 0.4681
vt 0.2736 0.4434
vt 0.2590 0.4609
vt 0.2566 0.4561
vt 0.2699 0.4423
vt 0.2912 0.4730
vt 0.2941 0.4848
vt 0.2905 0.4804
vt 0.2905 0.4757
vt 0.4039 0.4503
vt 0.4088 0.4423
vt 0.4086 0.4631
vt 0.4414 0.4786
vt 0.4374 0.4795
vt 0.4315 0.4744
vt 0.4506 0.4762
vt 0.4520 0.4694
vt 0.4520 0.4739
vt 0.4520 0.4627
vt 0.4522 0.4530
vt 0.4598 0.4498
vt 0.4286 0.4721
vt 0.4206 0.4773
vt 0.4121 0.4757
vt 0.4136 0.4492
vt 0.4097 0.4516
vt 0.4108 0.4479
vt 0.4315 0.4513
vt 0.4251 0.4483
vt 0.4317 0.4658
vt 0.4443 0.4779
vt 0.3898 0.4859
vt 0.3868 0.4815
vt 0.3952 0.4804
vt 0.3956 0.4705
vt 0.3958 0.4715
vt 0.3914 0.4703
vt 0.4602 0.4735
vt 0.4514 0.4362
vt 0.4545 0.4420
vt 0.4521 0.4408
vt 0.4554 0.4425
vt 0.4576 0.4423
vt 0.4602 0.4465
vt 0.4302 0.4452
vt 0.4267 0.4457
vt 0.4279 0.4435
vt 0.4247 0.4424
vt 0.4494 0.4298
vt 0.4529 0.4262
vt 0.4545 0.4282
vt 0.4344 0.4513
vt 0.4341 0.4469
vt 0.4410 0.4425
vt 0.4037 0.4651
vt 0.4142 0.4423
vt 0.4050 0.4694
vt 0.4474 0.4530
vt 0.4455 0.4423
vt 0.3958 0.4878
vt 0.3918 0.4907
vt 0.4520 0.4638
vt 0.4540 0.4313
vt 0.3895 0.4718
vt 0.3869 0.4785
vt 0.4559 0.4740
vt 0.4542 0.4749
vt 0.4539 0.4725
vt 0.4520 0.4681
vt 0.2940 0.4050
vt 0.2966 0.4314
vt 0.2929 0.4386
vt 0.3349 0.3979
vt 0.3184 0.3884
vt 0.3301 0.3885
vt 0.2926 0.4393
vt 0.2783 0.4423
vt 0.2701 0.4386
vt 0.2639 0.4358
vt 0.2566 0.4258
vt 0.2602 0.4057
vt 0.3450 0.3891
vt 0.3510 0.3884
vt 0.3512 0.3903
vt 0.3451 0.4257
vt 0.3449 0.4222
vt 0.3480 0.4215
vt 0.3445 0.4162
vt 0.3476 0.3975
vt 0.3494 0.4748
vt 0.3485 0.4726
vt 0.3517 0.4752
vt 0.3501 0.4598
vt 0.3524 0.4585
vt 0.3545 0.4612
vt 0.3457 0.3957
vt 0.3470 0.4560
vt 0.3477 0.4423
vt 0.3545 0.4440
vt 0.3471 0.4477
vt 0.2965 0.4072
vt 0.3157 0.3896
vt 0.2909 0.4423
vt 0.2585 0.4333
vt 0.3131 0.4354
vt 0.3224 0.4423
vt 0.3098 0.4422
vt 0.3540 0.4011
vt 0.3584 0.4012
vt 0.3589 0.4037
vt 0.2681 0.3884
vt 0.2838 0.3931
vt 0.2631 0.3966
vt 0.3528 0.4192
vt 0.3512 0.4141
vt 0.3589 0.4167
vt 0.3516 0.4084
vt 0.2966 0.4049
vt 0.2844 0.3884
vt 0.3250 0.4354
vt 0.3084 0.4179
vt 0.3317 0.4254
vt 0.2966 0.4068
vt 0.3011 0.3981
vt 0.3512 0.4347
vt 0.3489 0.4348
vt 0.3078 0.4423
vt 0.3008 0.4305
vt 0.3362 0.4005
vt 0.3362 0.4192
vt 0.3017 0.3960
vt 0.3374 0.4017
vt 0.3375 0.3988
vt 0.3440 0.4003
vt 0.3393 0.3884
vt 0.3426 0.3884
vt 0.3445 0.3924
vt 0.3445 0.3917
vt 0.3362 0.4200
vt 0.2613 0.3998
vt 0.2820 0.3884
vt 0.3426 0.4262
vt 0.3445 0.4239
vt 0.3583 0.3891
vt 0.2941 0.4694
vt 0.4315 0.4729
vt 0.4088 0.4694
vt 0.4112 0.4755
vt 0.3551 0.3884
vn 0.8182 0.2338 -0.5252
vn -0.2531 0.8425 0.4755
vn 0.2440 0.8583 -0.4515
vn -0.9632 0.1676 -0.2100
vn 0.0000 1.0000 -0.0000
vn 0.5768 0.8034 -0.1477
vn -0.1640 0.9844 0.0642
vn -0.9632 0.1677 -0.2100
vn 0.0000 -1.0000 -0.0000
vn 0.5252 0.2338 0.8182
vn 0.1978 -0.1646 0.9663
vn 0.4354 -0.7689 0.4682
vn 0.2324 -0.8707 -0.4335
vn -0.4931 -0.4994 -0.7123
vn 0.0990 0.9951 -0.0048
vn 0.0263 0.9676 -0.2511
vn 0.1195 0.8148 0.5673
vn -0.0774 -0.9970 0.0001
vn 0.9242 0.0458 -0.3792
vn -0.1509 0.0172 -0.9884
vn -0.9636 0.1634 0.2116
vn -0.4897 -0.4530 -0.7449
vn 0.1035 0.8036 0.5860
vn -0.4134 0.9082 0.0651
vn -0.7609 -0.3982 0.5123
vn -0.3689 -0.9295 0.0074
vn -0.0767 -0.6257 0.7762
vn -0.0767 -0.6258 0.7762
vn 0.7777 0.5303 0.3377
vn -0.4832 -0.5001 -0.7186
vn -0.4536 -0.4889 -0.7451
vn 0.3865 -0.4395 -0.8108
vn -0.0345 -0.9695 -0.2427
vn 0.2598 0.9537 -0.1517
vn 0.4989 -0.8635 -0.0738
vn 0.1063 -0.9322 0.3460
vn 0.3987 0.4447 0.8021
vn -0.3506 0.0776 0.9333
vn -0.0138 0.0309 0.9994
vn -0.9848 0.0000 0.1736
vn -0.6071 0.4929 -0.6233
vn -0.3972 0.9151 0.0700
vn 0.9696 0.0388 0.2417
vn -0.4019 -0.9049 0.1399
vn -0.6283 -0.5983 -0.4972
vn 0.0119 0.9999 -0.0021
vn -0.0404 0.8503 0.5247
vn 0.0780 0.9963 -0.0359
vn 0.3102 0.0808 -0.9472
vn 0.3102 0.0807 -0.9472
vn -0.1736 -0.0000 -0.9848
vn 0.9848 0.0000 -0.1736
vn 0.2324 -0.8706 -0.4335
vn 0.2198 0.5979 0.7708
vn 0.7716 0.5827 0.2553
s off
f 9/1/1 8/2/1 4/3/1
f 12/4/2 14/5/2 11/6/2
f 3/7/3 5/8/3 9/9/3
f 1/10/4 5/11/4 3/12/4
f 10/13/5 5/8/5 1/14/5
f 7/15/6 6/16/6 9/9/6
f 1/14/7 11/6/7 2/17/7
f 12/4/2 13/18/2 14/5/2
f 10/13/3 9/9/3 5/8/3
f 4/19/3 3/7/3 9/9/3
f 3/12/8 13/20/8 12/21/8
f 12/21/8 1/10/8 3/12/8
f 8/22/6 9/9/6 6/16/6
f 10/13/6 7/15/6 9/9/6
f 3/23/9 4/24/9 13/25/9
f 8/26/9 6/27/9 14/28/9
f 11/29/10 6/30/10 7/31/10
f 1/14/7 12/4/7 11/6/7
f 10/13/5 2/17/5 7/15/5
f 2/32/10 11/29/10 7/31/10
f 13/25/9 8/26/9 14/28/9
f 22/33/11 23/34/11 19/35/11
f 29/36/12 28/37/12 23/38/12
f 43/39/13 40/40/13 41/41/13
f 15/42/14 18/43/14 16/44/14
f 21/45/15 27/46/15 25/47/15
f 31/48/16 16/49/16 32/50/16
f 19/51/17 21/45/17 30/52/17
f 22/53/12 29/36/12 23/38/12
f 29/36/18 22/53/18 42/54/18
f 28/55/19 29/56/19 27/57/19
f 26/58/19 25/59/19 24/60/19
f 15/42/20 16/44/20 26/61/20
f 35/62/21 33/63/21 17/64/21
f 17/65/22 33/66/22 32/67/22
f 37/68/23 34/69/23 39/70/23
f 34/69/24 38/71/24 39/70/24
f 36/72/25 37/73/25 39/74/25
f 20/75/26 36/76/26 35/77/26
f 22/33/27 19/35/27 20/78/27
f 33/79/24 30/52/24 31/48/24
f 19/35/28 36/80/28 20/78/28
f 18/81/26 35/77/26 17/82/26
f 28/55/29 21/83/29 23/84/29
f 22/53/18 18/81/18 15/85/18
f 35/62/21 38/86/21 33/63/21
f 32/50/24 33/79/24 31/48/24
f 32/67/30 16/44/30 18/43/30
f 18/43/31 17/65/31 32/67/31
f 37/68/23 19/51/23 34/69/23
f 30/52/17 34/69/17 19/51/17
f 34/69/24 33/79/24 38/71/24
f 39/74/25 38/86/25 36/72/25
f 35/62/25 36/72/25 38/86/25
f 25/47/16 16/49/16 31/48/16
f 21/45/15 31/48/15 30/52/15
f 43/87/19 25/59/19 27/57/19
f 42/88/19 27/57/19 29/56/19
f 24/89/32 43/90/32 41/91/32
f 24/89/20 41/91/20 26/61/20
f 26/61/20 40/92/20 15/42/20
f 22/53/18 40/40/18 42/54/18
f 77/93/33 79/94/33 78/95/33
f 54/96/34 59/97/34 53/98/34
f 56/99/35 58/100/35 57/101/35
f 63/102/36 65/103/36 62/104/36
f 64/105/37 61/106/37 70/107/37
f 66/108/38 68/109/38 74/110/38
f 74/110/39 62/111/39 71/112/39
f 75/113/40 73/114/40 67/115/40
f 45/116/40 48/117/40 47/118/40
f 65/119/37 70/107/37 71/112/37
f 48/117/41 45/116/41 44/120/41
f 51/121/41 49/122/41 50/123/41
f 77/93/33 76/124/33 79/94/33
f 54/96/34 60/125/34 59/97/34
f 57/101/9 77/93/9 78/95/9
f 56/99/35 52/126/35 58/100/35
f 63/102/36 64/127/36 65/103/36
f 72/128/42 45/129/42 73/130/42
f 58/131/43 59/132/43 60/133/43
f 67/134/44 46/135/44 66/136/44
f 64/137/43 63/138/43 61/139/43
f 57/140/43 58/131/43 60/133/43
f 49/141/45 46/135/45 48/142/45
f 65/119/39 71/112/39 62/111/39
f 74/110/39 68/109/39 62/111/39
f 44/143/46 69/144/46 50/145/46
f 49/122/41 44/120/41 50/123/41
f 71/146/47 70/147/47 69/144/47
f 66/108/38 75/148/38 67/149/38
f 73/130/47 75/150/47 72/128/47
f 74/151/47 71/146/47 69/144/47
f 72/128/47 74/151/47 69/144/47
f 55/152/48 51/153/48 69/144/48
f 50/145/48 69/144/48 51/153/48
f 70/147/48 61/154/48 60/125/48
f 61/139/43 57/140/43 60/133/43
f 55/152/48 69/144/48 54/96/48
f 55/155/49 54/156/49 79/157/49
f 53/158/49 52/159/49 78/160/49
f 56/161/50 78/160/50 52/159/50
f 79/157/51 51/162/51 55/155/51
f 68/163/9 66/136/9 62/104/9
f 46/135/9 77/93/9 62/104/9
f 78/95/9 56/99/9 57/101/9
f 57/101/9 63/102/9 62/104/9
f 62/104/9 66/136/9 46/135/9
f 78/160/49 54/156/49 53/158/49
f 46/135/45 47/164/45 48/142/45
f 60/125/48 69/144/48 70/147/48
f 76/124/45 77/93/45 49/141/45
f 49/165/51 51/162/51 76/166/51
f 47/118/40 73/114/40 45/116/40
f 58/131/52 53/167/52 59/132/52
f 11/29/10 14/168/10 6/30/10
f 10/13/5 1/14/5 2/17/5
f 13/25/9 4/24/9 8/26/9
f 43/39/53 42/54/53 40/40/53
f 19/51/54 23/169/54 21/45/54
f 33/79/24 34/69/24 30/52/24
f 19/35/27 37/170/27 36/80/27
f 18/81/26 20/75/26 35/77/26
f 28/55/55 27/57/55 21/83/55
f 22/53/18 20/75/18 18/81/18
f 25/47/16 26/171/16 16/49/16
f 21/45/15 25/47/15 31/48/15
f 43/87/19 24/60/19 25/59/19
f 42/88/19 43/87/19 27/57/19
f 26/61/20 41/91/20 40/92/20
f 22/53/18 15/85/18 40/40/18
f 65/119/37 64/105/37 70/107/37
f 57/101/9 62/104/9 77/93/9
f 72/128/42 44/143/42 45/129/42
f 67/134/44 47/164/44 46/135/44
f 49/141/45 77/93/45 46/135/45
f 44/143/46 72/128/46 69/144/46
f 49/122/41 48/117/41 44/120/41
f 66/108/38 74/110/38 75/148/38
f 72/128/47 75/150/47 74/151/47
f 61/139/43 63/138/43 57/140/43
f 79/157/51 76/166/51 51/162/51
f 78/160/49 79/157/49 54/156/49
f 60/125/48 54/96/48 69/144/48
f 47/118/40 67/115/40 73/114/40
f 58/131/52 52/172/52 53/167/52
