# Blender v2.77 (sub 0) OBJ File: 'LowPoly_Level_Kit_Rocks.blend'
# www.blender.org
g Rocks_Flat_s_03
v -0.182371 -0.003445 -0.122214
v -0.185529 0.011655 -0.123718
v -0.211231 -0.003445 -0.159209
v -0.211502 0.011655 -0.157014
v -0.248225 -0.003445 -0.130350
v -0.244797 0.011655 -0.131040
v -0.044390 -0.008494 0.230205
v -0.045271 0.013827 0.223681
v -0.015811 -0.008494 0.146629
v -0.019549 0.013827 0.148462
v -0.099387 -0.008494 0.118050
v -0.094768 0.013827 0.122741
v -0.147672 -0.008159 0.004079
v -0.147547 0.032982 0.003734
v -0.051752 -0.010140 -0.159029
v -0.051626 0.031001 -0.159374
v -0.051667 -0.007824 0.036086
v -0.051542 0.033317 0.035741
v 0.039391 -0.009911 -0.128132
v 0.039516 0.031230 -0.128477
v 0.058073 0.001947 -0.118813
v 0.058251 0.022005 -0.118788
v 0.149095 0.000981 -0.097645
v 0.149273 0.021039 -0.097620
v -0.004732 0.002110 0.039412
v -0.004555 0.022169 0.039437
v 0.080632 0.001092 0.068801
v 0.080810 0.021151 0.068825
v 0.154000 0.006614 -0.265010
v 0.154063 0.016936 -0.265078
v 0.189936 0.006117 -0.296966
v 0.189999 0.016439 -0.297033
v 0.179590 0.006698 -0.228716
v 0.179653 0.017020 -0.228783
v 0.217299 0.006174 -0.255852
v 0.217362 0.016496 -0.255919
vt 0.6113 0.4302
vt 0.6113 0.4392
vt 0.6026 0.4392
vt 0.5954 0.4557
vt 0.5982 0.4475
vt 0.5982 0.4562
vt 0.5705 0.4471
vt 0.5733 0.4554
vt 0.5705 0.4551
vt 0.5733 0.4465
vt 0.5705 0.4346
vt 0.5733 0.4340
vt 0.6082 0.4663
vt 0.6026 0.4606
vt 0.6082 0.4549
vt 0.5487 0.4579
vt 0.5371 0.4459
vt 0.5487 0.4340
vt 0.5591 0.4677
vt 0.5633 0.4533
vt 0.5633 0.4688
vt 0.5913 0.4485
vt 0.5954 0.4637
vt 0.5913 0.4630
vt 0.6026 0.4543
vt 0.6068 0.4392
vt 0.6068 0.4549
vt 0.5591 0.4555
vt 0.5487 0.4447
vt 0.5591 0.4340
vt 0.5913 0.3946
vt 0.5989 0.4304
vt 0.5913 0.4304
vt 0.5989 0.4304
vt 0.5913 0.4475
vt 0.5913 0.4307
vt 0.5989 0.4302
vt 0.6065 0.3945
vt 0.6065 0.4302
vt 0.5591 0.4340
vt 0.5668 0.4533
vt 0.5591 0.4533
vt 0.5565 0.3978
vt 0.5741 0.4304
vt 0.5556 0.4340
vt 0.5556 0.3981
vt 0.5380 0.4307
vt 0.5371 0.3945
vt 0.6065 0.4119
vt 0.6103 0.4273
vt 0.6065 0.4275
vt 0.6026 0.4638
vt 0.5989 0.4302
vt 0.6026 0.4302
vt 0.6103 0.3945
vt 0.6065 0.4117
vt 0.6065 0.3945
vt 0.5668 0.4652
vt 0.5705 0.4340
vt 0.5705 0.4652
vt 0.5913 0.4623
vt 0.5745 0.4305
vt 0.5913 0.4297
vt 0.5745 0.4289
vt 0.5913 0.3972
vt 0.5913 0.4297
vt 0.5705 0.4554
vt 0.5724 0.4645
vt 0.5705 0.4644
vt 0.5652 0.4625
vt 0.5633 0.4533
vt 0.5652 0.4533
vt 0.5973 0.4562
vt 0.5954 0.4646
vt 0.5954 0.4562
vt 0.5460 0.4579
vt 0.5479 0.4644
vt 0.5460 0.4644
vt 0.5460 0.4663
vt 0.5373 0.4579
vt 0.5460 0.4579
vt 0.5505 0.4649
vt 0.5591 0.4565
vt 0.5591 0.4650
vt 0.5954 0.4479
vt 0.5705 0.4459
vt 0.5591 0.4537
vt 0.5954 0.4475
vt 0.6026 0.4402
vt 0.5989 0.3945
vt 0.5989 0.4473
vt 0.5989 0.3945
vt 0.5668 0.4340
vt 0.5741 0.3945
vt 0.5556 0.4340
vt 0.6103 0.4117
vt 0.5989 0.4638
vt 0.6103 0.4117
vt 0.5668 0.4340
vt 0.5741 0.4649
vt 0.5741 0.3945
vt 0.5724 0.4554
vt 0.5633 0.4625
vt 0.5973 0.4646
vt 0.5479 0.4579
vt 0.5371 0.4674
vt 0.5503 0.4555
vn 0.0000 -1.0000 0.0000
vn -0.6118 0.1030 -0.7843
vn 0.7843 0.1030 -0.6118
vn -0.1223 0.0730 0.9898
vn 0.0000 1.0000 0.0000
vn 0.3208 0.1308 -0.9381
vn 0.9381 0.1308 0.3208
vn -0.8940 0.0929 0.4384
vn -0.8620 -0.0016 -0.5069
vn 0.3211 -0.0089 -0.9470
vn 0.8746 0.0014 0.4849
vn -0.3163 0.0089 0.9486
vn -0.0005 -0.9999 0.0119
vn 0.0005 0.9999 -0.0119
vn 0.2265 -0.0008 -0.9740
vn 0.9248 -0.0086 0.3804
vn -0.3255 0.0017 0.9455
vn -0.9294 0.0087 -0.3689
vn -0.0108 -0.9999 -0.0033
vn 0.0108 0.9999 0.0033
vn -0.6645 -0.0008 -0.7473
vn 0.8325 -0.0087 -0.5540
vn 0.5841 0.0017 0.8117
vn -0.8173 0.0087 0.5762
vn -0.0081 -0.9999 0.0080
vn 0.0081 0.9999 -0.0080
vn -0.0015 -0.9999 0.0119
vn 0.0015 0.9999 -0.0119
vn -0.0098 -0.9999 -0.0034
vn 0.0098 0.9999 0.0034
vn -0.0079 -0.9999 0.0067
vn 0.0079 0.9999 -0.0067
s off
f 5/1/1 3/2/1 1/3/1
f 6/4/2 3/5/2 5/6/2
f 2/7/3 3/8/3 4/9/3
f 1/10/4 6/11/4 5/12/4
f 2/13/5 4/14/5 6/15/5
f 11/16/1 9/17/1 7/18/1
f 12/19/6 9/20/6 11/21/6
f 8/22/7 9/23/7 10/24/7
f 8/25/8 11/26/8 7/27/8
f 8/28/5 10/29/5 12/30/5
f 16/31/9 13/32/9 14/33/9
f 16/34/10 19/35/10 15/36/10
f 20/37/11 17/38/11 19/39/11
f 14/40/12 17/41/12 18/42/12
f 15/43/13 17/44/13 13/45/13
f 18/46/14 16/47/14 14/48/14
f 24/49/15 21/50/15 22/51/15
f 28/52/16 23/53/16 24/54/16
f 28/55/17 25/56/17 27/57/17
f 26/58/18 21/59/18 25/60/18
f 21/61/19 27/62/19 25/63/19
f 28/64/20 22/65/20 26/66/20
f 32/67/21 29/68/21 30/69/21
f 36/70/22 31/71/22 32/72/22
f 36/73/23 33/74/23 35/75/23
f 30/76/24 33/77/24 34/78/24
f 29/79/25 35/80/25 33/81/25
f 36/82/26 30/83/26 34/84/26
f 6/4/2 4/85/2 3/5/2
f 2/7/3 1/10/3 3/8/3
f 1/10/4 2/86/4 6/11/4
f 12/19/6 10/87/6 9/20/6
f 8/22/7 7/88/7 9/23/7
f 8/25/8 12/89/8 11/26/8
f 16/31/9 15/90/9 13/32/9
f 16/34/10 20/91/10 19/35/10
f 20/37/11 18/92/11 17/38/11
f 14/40/12 13/93/12 17/41/12
f 15/43/27 19/94/27 17/44/27
f 18/46/28 20/95/28 16/47/28
f 24/49/15 23/96/15 21/50/15
f 28/52/16 27/97/16 23/53/16
f 28/55/17 26/98/17 25/56/17
f 26/58/18 22/99/18 21/59/18
f 21/61/29 23/100/29 27/62/29
f 28/64/30 24/101/30 22/65/30
f 32/67/21 31/102/21 29/68/21
f 36/70/22 35/103/22 31/71/22
f 36/73/23 34/104/23 33/74/23
f 30/76/24 29/105/24 33/77/24
f 29/79/31 31/106/31 35/80/31
f 36/82/32 32/107/32 30/83/32
