# Blender v2.77 (sub 0) OBJ File: 'LowPoly_Level_Kit_Rocks.blend'
# www.blender.org
g Rock_Flat_m_11
v -0.358565 0.077259 0.600000
v -0.600000 0.077259 0.358565
v -0.358565 0.000000 0.358565
v -0.358565 0.306741 0.600000
v -0.358565 0.384000 0.358565
v -0.600000 0.306741 0.358565
v -0.358565 0.000000 -0.358565
v 0.358565 0.000000 0.358565
v 0.600000 0.077259 -0.358565
v 0.358565 0.000000 -0.358565
v 0.600000 0.127451 -0.358565
v 0.358565 0.104410 -0.600000
v 0.358565 0.384000 -0.216453
v 0.600000 0.306741 -0.112612
v -0.358565 0.384000 -0.170960
v -0.600000 0.306741 -0.132102
v -0.600000 0.113668 -0.358565
v -0.229435 0.077259 -0.600000
v -0.008743 0.384000 -0.358565
v 0.136980 0.244790 -0.600000
v 0.122378 0.347977 -0.471136
v 0.358565 0.384000 0.305696
v 0.600000 0.077259 0.322243
v 0.285037 0.384000 0.358565
v 0.015868 0.306741 0.600000
v 0.213710 0.077259 0.600000
v 0.600000 0.306741 0.179988
vt 0.1821 0.3921
vt 0.1916 0.4017
vt 0.1820 0.4016
vt 0.1918 0.4302
vt 0.2015 0.4300
vt 0.2014 0.4397
vt 0.1820 0.4299
vt 0.1916 0.4300
vt 0.1769 0.4395
vt 0.1594 0.3921
vt 0.1537 0.4016
vt 0.1441 0.4031
vt 0.1441 0.4300
vt 0.1536 0.4299
vt 0.1537 0.4395
vt 0.2239 0.4016
vt 0.2297 0.4160
vt 0.2012 0.4046
vt 0.1744 0.4395
vt 0.1744 0.4664
vt 0.1724 0.4664
vt 0.1441 0.4774
vt 0.1532 0.4869
vt 0.1441 0.4869
vt 0.1441 0.4548
vt 0.1532 0.4395
vt 0.1532 0.4626
vt 0.1532 0.4774
vt 0.2208 0.4395
vt 0.2224 0.4299
vt 0.2389 0.4103
vt 0.2340 0.4109
vt 0.1563 0.4485
vt 0.1653 0.4679
vt 0.1563 0.4679
vt 0.1563 0.4491
vt 0.1563 0.4520
vt 0.2387 0.4250
vt 0.1804 0.4628
vt 0.1744 0.4480
vt 0.1804 0.4395
vt 0.2386 0.4018
vt 0.2290 0.3923
vt 0.2196 0.3921
vt 0.1824 0.4491
vt 0.1804 0.4398
vt 0.1824 0.4395
vt 0.2033 0.4017
vt 0.1653 0.4567
vt 0.1653 0.4452
vt 0.2080 0.3922
vt 0.1916 0.4154
vt 0.1441 0.4395
vt 0.1639 0.4395
vt 0.2294 0.4397
vn -0.2915 -0.9111 0.2915
vn -0.2915 0.9111 0.2915
vn -0.3783 -0.8036 -0.4595
vn 0.3326 -0.8219 0.4625
vn 0.2818 -0.8807 -0.3808
vn 0.0000 1.0000 0.0000
vn 1.0000 0.0000 0.0000
vn -0.7071 0.0000 0.7071
vn 0.5215 0.4496 0.7252
vn -0.4255 -0.9038 -0.0459
vn 0.3048 -0.9524 0.0000
vn 0.0000 0.0000 1.0000
vn -0.3286 0.7187 -0.6127
vn -1.0000 0.0000 0.0000
vn 0.0000 0.0000 -1.0000
vn 0.0831 0.9731 -0.2147
vn 0.4557 0.7193 -0.5243
vn 0.0000 -0.9524 -0.3048
vn 0.7071 0.0000 -0.7071
vn 0.0000 -0.9524 0.3048
vn 0.3048 0.9524 0.0000
vn 0.0000 0.9524 0.3048
vn -0.3048 0.9524 0.0000
vn 0.0000 -1.0000 0.0000
vn -0.3048 -0.9524 0.0000
vn 0.0423 -0.9170 -0.3966
s off
f 1/1/1 2/2/1 3/3/1
f 4/4/2 5/5/2 6/6/2
f 7/7/3 17/8/3 18/9/3
f 26/10/4 8/11/4 23/12/4
f 9/13/5 10/14/5 12/15/5
f 13/16/6 19/17/6 24/18/6
f 23/19/7 9/20/7 11/21/7
f 1/22/8 6/23/8 2/24/8
f 26/25/9 27/26/9 25/27/9
f 7/7/10 2/2/10 17/8/10
f 23/12/11 10/14/11 9/13/11
f 1/22/12 25/27/12 4/28/12
f 16/29/13 15/30/13 20/31/13
f 19/17/13 21/32/13 20/31/13
f 15/30/13 19/17/13 20/31/13
f 16/33/14 2/34/14 6/35/14
f 22/36/9 24/37/9 27/26/9
f 27/26/9 24/37/9 25/27/9
f 18/38/13 16/29/13 20/31/13
f 18/39/15 20/40/15 12/41/15
f 21/32/16 19/17/16 13/16/16
f 24/18/6 15/30/6 5/5/6
f 12/42/17 20/31/17 11/43/17
f 21/32/17 13/16/17 14/44/17
f 18/9/18 10/14/18 7/7/18
f 12/45/19 11/46/19 9/47/19
f 24/18/6 22/48/6 13/16/6
f 23/19/7 14/49/7 27/50/7
f 26/10/20 3/3/20 8/11/20
f 27/51/21 13/16/21 22/48/21
f 25/52/22 5/5/22 4/4/22
f 16/29/23 5/5/23 15/30/23
f 21/32/17 11/43/17 20/31/17
f 3/3/24 10/14/24 8/11/24
f 1/22/8 4/28/8 6/23/8
f 26/25/9 23/53/9 27/26/9
f 7/7/25 3/3/25 2/2/25
f 23/12/11 8/11/11 10/14/11
f 1/22/12 26/25/12 25/27/12
f 16/33/14 17/54/14 2/34/14
f 18/38/13 17/55/13 16/29/13
f 24/18/6 19/17/6 15/30/6
f 18/9/26 12/15/26 10/14/26
f 23/19/7 11/21/7 14/49/7
f 26/10/20 1/1/20 3/3/20
f 27/51/21 14/44/21 13/16/21
f 25/52/22 24/18/22 5/5/22
f 16/29/23 6/6/23 5/5/23
f 21/32/17 14/44/17 11/43/17
f 3/3/24 7/7/24 10/14/24
