# Blender v2.77 (sub 0) OBJ File: 'LowPoly_Level_Kit_Rocks.blend'
# www.blender.org
g Rock_Flat_m_03
v 0.040824 0.365151 -0.430394
v 0.217167 -0.000001 -0.420092
v 0.303608 0.026462 -0.415043
v 0.118452 0.359783 -0.425859
v 0.303608 0.123726 -0.415042
v -0.287533 0.363249 -0.182226
v -0.294766 -0.000001 -0.449999
v -0.316070 -0.000001 -0.435636
v -0.272421 0.367106 -0.448694
v -0.395966 0.290961 -0.368801
v -0.316070 -0.000001 0.397027
v -0.395966 0.290961 0.323019
v -0.355876 0.317687 0.360155
v 0.355838 -0.000001 0.004259
v 0.397292 0.029449 -0.157647
v 0.389711 0.315073 -0.128037
v 0.397292 0.273314 -0.157647
v -0.312206 0.311179 0.400607
v -0.312206 -0.000001 0.400607
v 0.304984 -0.000001 0.202877
v -0.090886 -0.000001 0.382164
v 0.347738 0.302662 0.035895
v 0.027857 0.292102 0.372269
v 0.186661 0.100330 0.359035
v 0.284482 0.069244 0.282953
vt 0.3517 0.4561
vt 0.3564 0.4448
vt 0.3547 0.4576
vt 0.3053 0.4106
vt 0.3123 0.4004
vt 0.3123 0.4397
vt 0.2831 0.3964
vt 0.3043 0.3955
vt 0.2759 0.4440
vt 0.2842 0.4481
vt 0.2599 0.4520
vt 0.3246 0.4422
vt 0.3123 0.4272
vt 0.3153 0.4180
vt 0.3261 0.3979
vt 0.3187 0.4067
vt 0.3197 0.4022
vt 0.3432 0.4883
vt 0.3548 0.4673
vt 0.3564 0.4904
vt 0.3338 0.4858
vt 0.3270 0.4965
vt 0.3140 0.4904
vt 0.3338 0.4447
vt 0.3141 0.4708
vt 0.3141 0.4439
vt 0.2622 0.4232
vt 0.3128 0.4773
vt 0.3123 0.4739
vt 0.3605 0.4431
vt 0.3591 0.4439
vt 0.2596 0.4556
vt 0.2842 0.4714
vt 0.2594 0.4698
vt 0.3403 0.4439
vt 0.3097 0.4417
vt 0.3353 0.4572
vt 0.3338 0.4444
vt 0.2824 0.4442
vt 0.2643 0.4783
vt 0.3186 0.4419
vt 0.3453 0.3965
vt 0.3602 0.3955
vt 0.3605 0.3957
vt 0.3405 0.4829
vt 0.2594 0.4138
vt 0.2779 0.3967
vt 0.2837 0.4424
vt 0.3067 0.4440
vt 0.3354 0.4785
vt 0.3342 0.4669
vt 0.3338 0.4770
vt 0.3338 0.4773
vt 0.2841 0.4729
vn 0.6747 0.5045 -0.5388
vn -0.5547 0.8321 0.0000
vn 0.0054 0.9999 0.0148
vn 0.0583 -0.0000 -0.9983
vn 0.2965 -0.9501 -0.0969
vn 0.3019 -0.6815 0.6666
vn 0.6288 0.4784 0.6130
vn 0.0830 -0.0000 0.9965
vn -0.9643 -0.2648 0.0000
vn 0.0634 0.9938 0.0915
vn -0.6796 -0.0000 0.7336
vn 0.0000 -1.0000 0.0000
vn -0.5330 0.8459 -0.0180
vn 0.9397 0.0000 -0.3420
vn -0.5586 0.0369 -0.8286
vn 0.9688 -0.0000 0.2480
s off
f 17/1/1 4/2/1 16/3/1
f 6/4/2 10/5/2 12/6/2
f 6/4/3 1/7/3 9/8/3
f 5/9/4 2/10/4 4/11/4
f 2/12/5 15/13/5 14/14/5
f 24/15/6 20/16/6 25/17/6
f 24/18/7 22/19/7 23/20/7
f 21/21/8 24/22/8 23/23/8
f 8/24/9 12/25/9 10/26/9
f 6/4/10 22/27/10 1/7/10
f 18/28/11 13/29/11 12/25/11
f 14/14/12 8/30/12 7/31/12
f 1/32/4 7/33/4 9/34/4
f 17/1/1 5/35/1 4/2/1
f 12/6/2 13/36/2 6/4/2
f 6/4/13 9/8/13 10/5/13
f 5/35/14 15/37/14 3/38/14
f 1/32/4 4/11/4 2/10/4
f 5/9/4 3/39/4 2/10/4
f 7/33/15 10/40/15 9/34/15
f 2/12/5 3/41/5 15/13/5
f 24/15/6 21/42/6 20/16/6
f 19/43/12 11/44/12 21/42/12
f 2/12/12 14/14/12 7/31/12
f 20/16/12 21/42/12 14/14/12
f 11/44/12 8/30/12 21/42/12
f 24/18/7 25/45/7 22/19/7
f 22/27/10 16/46/10 4/47/10
f 4/47/10 1/7/10 22/27/10
f 6/4/10 13/36/10 23/48/10
f 18/49/10 23/48/10 13/36/10
f 18/28/8 21/21/8 23/23/8
f 17/1/16 16/3/16 22/19/16
f 22/19/16 25/45/16 20/50/16
f 20/50/16 14/51/16 22/19/16
f 18/28/11 11/52/11 19/53/11
f 14/51/16 17/1/16 22/19/16
f 8/24/9 11/52/9 12/25/9
f 6/4/10 23/48/10 22/27/10
f 14/14/12 21/42/12 8/30/12
f 1/32/4 2/10/4 7/33/4
f 5/35/14 17/1/14 15/37/14
f 7/33/15 8/54/15 10/40/15
f 18/28/8 19/53/8 21/21/8
f 18/28/11 12/25/11 11/52/11
f 14/51/16 15/37/16 17/1/16
