# Blender v2.77 (sub 0) OBJ File: 'LowPoly_Level_Kit_Rocks.blend'
# www.blender.org
g Rocks_Flat_s_02
v 0.111567 -0.009649 -0.242320
v 0.107302 0.015964 -0.238197
v 0.035651 -0.009649 -0.218441
v 0.038977 0.015964 -0.216706
v 0.059530 -0.009649 -0.142524
v 0.060469 0.015964 -0.148381
v -0.129112 0.016409 0.346920
v -0.129218 0.002197 0.346850
v 0.055541 0.015608 0.386474
v 0.055435 0.001397 0.386404
v -0.079628 0.016293 0.269376
v -0.079734 0.002082 0.269305
v -0.047187 0.055883 -0.013570
v -0.174242 -0.017646 -0.120341
v 0.042286 -0.017646 -0.068448
v -0.009606 -0.017646 0.148080
v -0.315436 0.003864 -0.207445
v -0.315481 0.014356 -0.207527
v -0.329284 0.003359 -0.265206
v -0.329329 0.013851 -0.265288
v -0.244552 0.003950 -0.239961
v -0.244597 0.014442 -0.240043
v -0.280880 0.003418 -0.287410
v -0.280925 0.013909 -0.287492
v -0.228300 0.002082 -0.055709
v -0.228255 0.016293 -0.055591
v -0.210178 0.001397 0.007970
v -0.210132 0.015608 0.008088
v -0.288615 0.002197 -0.045694
v -0.288570 0.016409 -0.045576
v -0.277530 0.001476 0.017301
v -0.277484 0.015688 0.017419
v 0.142074 0.005088 0.137786
v 0.142122 0.013028 0.137734
v 0.169717 0.004705 0.113205
v 0.169765 0.012645 0.113153
v 0.161758 0.005152 0.165704
v 0.161806 0.013092 0.165653
v 0.190765 0.004750 0.144831
v 0.190813 0.012689 0.144779
v -0.000194 0.001476 0.467446
v -0.000088 0.015688 0.467516
vt 0.1967 0.4457
vt 0.1967 0.4550
vt 0.1877 0.4550
vt 0.2080 0.4539
vt 0.2051 0.4625
vt 0.2051 0.4533
vt 0.2080 0.4539
vt 0.2109 0.4623
vt 0.2080 0.4620
vt 0.1752 0.4562
vt 0.1780 0.4457
vt 0.1780 0.4569
vt 0.1967 0.4449
vt 0.2047 0.4449
vt 0.2047 0.4532
vt 0.2161 0.4093
vt 0.2177 0.4273
vt 0.2161 0.4273
vt 0.1811 0.4457
vt 0.1795 0.4658
vt 0.1795 0.4457
vt 0.1735 0.4632
vt 0.1719 0.4537
vt 0.1735 0.4537
vt 0.2161 0.4300
vt 0.2059 0.4108
vt 0.2161 0.4092
vt 0.2125 0.4533
vt 0.2109 0.4636
vt 0.2109 0.4533
vt 0.4466 0.4275
vt 0.4348 0.4275
vt 0.4525 0.4092
vt 0.4348 0.4457
vt 0.4170 0.4275
vt 0.4348 0.4092
vt 0.4610 0.4449
vt 0.4525 0.4258
vt 0.4610 0.4092
vt 0.4525 0.4457
vt 0.1865 0.4616
vt 0.1877 0.4548
vt 0.1877 0.4616
vt 0.1853 0.4609
vt 0.1865 0.4548
vt 0.1865 0.4609
vt 0.1792 0.4547
vt 0.1780 0.4616
vt 0.1780 0.4547
vt 0.1792 0.4547
vt 0.1780 0.4457
vt 0.1792 0.4457
vt 0.1877 0.4548
vt 0.1811 0.4473
vt 0.1877 0.4457
vt 0.1677 0.4473
vt 0.1612 0.4548
vt 0.1612 0.4457
vt 0.1669 0.4621
vt 0.1653 0.4548
vt 0.1669 0.4548
vt 0.1811 0.4548
vt 0.1827 0.4620
vt 0.1811 0.4620
vt 0.1751 0.4537
vt 0.1735 0.4610
vt 0.1735 0.4537
vt 0.1843 0.4614
vt 0.1827 0.4548
vt 0.1843 0.4548
vt 0.2041 0.4603
vt 0.1969 0.4532
vt 0.2041 0.4532
vt 0.1680 0.4536
vt 0.1752 0.4466
vt 0.1752 0.4537
vt 0.4402 0.4548
vt 0.4411 0.4590
vt 0.4402 0.4590
vt 0.4599 0.4532
vt 0.4608 0.4576
vt 0.4599 0.4576
vt 0.4436 0.4591
vt 0.4445 0.4550
vt 0.4445 0.4591
vt 0.4445 0.4550
vt 0.4453 0.4588
vt 0.4445 0.4588
vt 0.4212 0.4587
vt 0.4172 0.4548
vt 0.4212 0.4548
vt 0.4237 0.4581
vt 0.4277 0.4542
vt 0.4277 0.4581
vt 0.2059 0.4517
vt 0.2161 0.4325
vt 0.2161 0.4533
vt 0.2080 0.4622
vt 0.2109 0.4533
vt 0.1752 0.4462
vt 0.2177 0.4092
vt 0.1811 0.4658
vt 0.1719 0.4632
vt 0.2051 0.4312
vt 0.2125 0.4636
vt 0.1865 0.4548
vt 0.1853 0.4548
vt 0.1792 0.4616
vt 0.1780 0.4547
vt 0.1811 0.4534
vt 0.1677 0.4534
vt 0.1653 0.4621
vt 0.1827 0.4548
vt 0.1751 0.4610
vt 0.1827 0.4614
vt 0.1967 0.4611
vt 0.1677 0.4457
vt 0.4411 0.4548
vt 0.4608 0.4532
vt 0.4436 0.4550
vt 0.4453 0.4550
vt 0.4170 0.4592
vt 0.4236 0.4537
vt 0.2051 0.4312
vn 0.0000 -1.0000 -0.0000
vn -0.9488 0.1030 0.2985
vn -0.2985 0.1030 -0.9488
vn 0.8843 0.0730 0.4611
vn 0.0000 1.0000 -0.0000
vn -0.6828 0.0015 0.7306
vn 0.6548 -0.0011 -0.7558
vn -0.8429 0.0089 -0.5379
vn -0.0041 -1.0000 -0.0011
vn 0.8244 -0.0089 0.5659
vn 0.1640 0.7104 -0.6844
vn -0.6938 0.5809 0.4256
vn 0.6844 0.7104 0.1640
vn -0.9724 -0.0023 0.2332
vn -0.4169 -0.0089 -0.9089
vn 0.7940 -0.0013 -0.6079
vn 0.4169 0.0089 0.9089
vn 0.0047 -1.0000 0.0076
vn -0.0047 1.0000 -0.0076
vn 0.9618 -0.0008 -0.2737
vn 0.1372 -0.0087 0.9905
vn -0.9849 0.0017 0.1733
vn -0.1638 0.0087 -0.9865
vn -0.0037 -0.9999 -0.0108
vn 0.0037 0.9999 0.0108
vn -0.6645 -0.0008 -0.7473
vn 0.8325 -0.0087 -0.5540
vn 0.5841 0.0017 0.8117
vn -0.8173 0.0087 0.5762
vn -0.0081 -0.9999 0.0080
vn 0.0081 0.9999 -0.0080
vn 0.0041 1.0000 0.0011
vn -0.6828 0.0014 0.7306
vn -0.0040 -1.0000 -0.0017
vn -0.9724 -0.0024 0.2332
vn 0.7940 -0.0014 -0.6079
vn -0.0026 -0.9999 -0.0100
vn 0.0026 0.9999 0.0100
vn -0.0079 -0.9999 0.0067
vn 0.0079 0.9999 -0.0067
vn 0.0040 1.0000 0.0017
s off
f 5/1/1 3/2/1 1/3/1
f 6/4/2 3/5/2 5/6/2
f 2/7/3 3/8/3 4/9/3
f 2/10/4 5/11/4 1/12/4
f 2/13/5 4/14/5 6/15/5
f 7/16/6 41/17/6 42/18/6
f 11/19/7 10/20/7 12/21/7
f 11/22/8 8/23/8 7/24/8
f 10/25/9 8/26/9 12/27/9
f 9/28/10 41/29/10 10/30/10
f 13/31/11 15/32/11 14/33/11
f 14/34/1 15/35/1 16/36/1
f 16/37/12 13/38/12 14/39/12
f 13/31/13 16/40/13 15/32/13
f 18/41/14 19/42/14 17/43/14
f 20/44/15 23/45/15 19/46/15
f 24/47/16 21/48/16 23/49/16
f 18/50/17 21/51/17 22/52/17
f 17/53/18 23/54/18 21/55/18
f 24/56/19 18/57/19 22/58/19
f 28/59/20 25/60/20 26/61/20
f 32/62/21 27/63/21 28/64/21
f 32/65/22 29/66/22 31/67/22
f 26/68/23 29/69/23 30/70/23
f 25/71/24 31/72/24 29/73/24
f 32/74/25 26/75/25 30/76/25
f 36/77/26 33/78/26 34/79/26
f 40/80/27 35/81/27 36/82/27
f 40/83/28 37/84/28 39/85/28
f 34/86/29 37/87/29 38/88/29
f 33/89/30 39/90/30 37/91/30
f 40/92/31 34/93/31 38/94/31
f 7/95/32 9/96/32 11/97/32
f 6/4/2 4/98/2 3/5/2
f 2/7/3 1/99/3 3/8/3
f 2/10/4 6/100/4 5/11/4
f 7/16/33 8/101/33 41/17/33
f 11/19/7 9/102/7 10/20/7
f 11/22/8 12/103/8 8/23/8
f 10/25/34 41/104/34 8/26/34
f 9/28/10 42/105/10 41/29/10
f 18/41/35 20/106/35 19/42/35
f 20/44/15 24/107/15 23/45/15
f 24/47/36 22/108/36 21/48/36
f 18/50/17 17/109/17 21/51/17
f 17/53/18 19/110/18 23/54/18
f 24/56/19 20/111/19 18/57/19
f 28/59/20 27/112/20 25/60/20
f 32/62/21 31/113/21 27/63/21
f 32/65/22 30/114/22 29/66/22
f 26/68/23 25/115/23 29/69/23
f 25/71/37 27/116/37 31/72/37
f 32/74/38 28/117/38 26/75/38
f 36/77/26 35/118/26 33/78/26
f 40/80/27 39/119/27 35/81/27
f 40/83/28 38/120/28 37/84/28
f 34/86/29 33/121/29 37/87/29
f 33/89/39 35/122/39 39/90/39
f 40/92/40 36/123/40 34/93/40
f 7/95/41 42/124/41 9/96/41
