# Blender v2.77 (sub 0) OBJ File: 'LowPoly_Level_Kit_Rocks.blend'
# www.blender.org
g Rocks_Flat_s_04
v 0.219008 -0.009649 -0.275663
v 0.214743 0.015964 -0.271541
v 0.143092 -0.009649 -0.251784
v 0.146418 0.015964 -0.250050
v 0.166971 -0.009649 -0.175868
v 0.167909 0.015964 -0.181725
v -0.076031 0.014065 -0.444367
v -0.076031 0.004286 -0.444454
v -0.005955 0.013514 -0.342076
v -0.005955 0.003735 -0.342163
v -0.012745 0.013985 -0.445639
v -0.012745 0.004206 -0.445727
v -0.373214 0.026223 -0.321072
v -0.413326 -0.007759 -0.255698
v -0.404417 -0.007759 -0.358214
v -0.301900 -0.007759 -0.349305
v -0.328331 0.002082 0.051731
v -0.328286 0.016293 0.051850
v -0.310209 0.001397 0.115411
v -0.310163 0.015608 0.115529
v -0.388646 0.002197 0.061747
v -0.388601 0.016409 0.061865
v -0.377561 0.001476 0.124741
v -0.377515 0.015688 0.124859
v 0.094923 0.013569 0.536485
v 0.094852 0.003790 0.536408
v 0.122639 0.004206 0.417224
v 0.122679 0.013985 0.417301
v 0.198867 0.003735 0.505638
v 0.198937 0.013514 0.505715
v 0.067267 0.004286 0.447894
v 0.067308 0.014065 0.447971
v -0.073588 0.003790 -0.343073
v -0.073588 0.013569 -0.342986
vt 0.5487 0.4437
vt 0.5397 0.4347
vt 0.5487 0.4256
vt 0.5707 0.4542
vt 0.5748 0.4423
vt 0.5748 0.4551
vt 0.5704 0.4264
vt 0.5745 0.4384
vt 0.5704 0.4379
vt 0.5786 0.4378
vt 0.5745 0.4264
vt 0.5786 0.4256
vt 0.5602 0.4423
vt 0.5602 0.4539
vt 0.5487 0.4539
vt 0.3403 0.4022
vt 0.3418 0.4183
vt 0.3403 0.4183
vt 0.3418 0.4182
vt 0.3434 0.4022
vt 0.3434 0.4182
vt 0.3438 0.4378
vt 0.3422 0.4279
vt 0.3438 0.4279
vt 0.3131 0.4423
vt 0.3232 0.4260
vt 0.3232 0.4423
vt 0.3079 0.4545
vt 0.3095 0.4437
vt 0.3095 0.4545
vt 0.5673 0.4139
vt 0.5595 0.4139
vt 0.5712 0.4022
vt 0.5369 0.4431
vt 0.5252 0.4313
vt 0.5369 0.4196
vt 0.5766 0.4220
vt 0.5712 0.4100
vt 0.5766 0.4022
vt 0.5712 0.4256
vt 0.3101 0.4437
vt 0.3124 0.4543
vt 0.3101 0.4543
vt 0.3408 0.4533
vt 0.3385 0.4423
vt 0.3408 0.4423
vt 0.3034 0.4540
vt 0.3056 0.4437
vt 0.3056 0.4540
vt 0.3079 0.4535
vt 0.3079 0.4437
vt 0.2994 0.4529
vt 0.2892 0.4432
vt 0.2994 0.4431
vt 0.3241 0.4533
vt 0.3344 0.4435
vt 0.3344 0.4534
vt 0.3021 0.4545
vt 0.3006 0.4372
vt 0.3021 0.4372
vt 0.3021 0.4196
vt 0.3006 0.4196
vt 0.3408 0.4423
vt 0.3423 0.4572
vt 0.3408 0.4572
vt 0.2892 0.4196
vt 0.3061 0.4097
vt 0.3040 0.4196
vt 0.3061 0.4097
vt 0.3230 0.4196
vt 0.3081 0.4196
vt 0.3423 0.4423
vt 0.3439 0.4522
vt 0.3423 0.4522
vt 0.3340 0.4419
vt 0.3239 0.4256
vt 0.3340 0.4256
vt 0.5707 0.4427
vt 0.5745 0.4256
vt 0.5745 0.4374
vt 0.3418 0.4022
vt 0.3418 0.4022
vt 0.3422 0.4378
vt 0.3124 0.4256
vt 0.3079 0.4437
vt 0.3124 0.4437
vt 0.3385 0.4533
vt 0.3034 0.4437
vt 0.3056 0.4535
vt 0.2889 0.4541
vt 0.3239 0.4423
vt 0.3006 0.4545
vt 0.3423 0.4423
vt 0.2889 0.4022
vt 0.3232 0.4022
vt 0.3439 0.4423
vt 0.3232 0.4423
vn 0.0000 -1.0000 0.0000
vn -0.9488 0.1030 0.2985
vn -0.2985 0.1030 -0.9488
vn 0.8843 0.0730 0.4611
vn 0.0000 1.0000 -0.0000
vn -0.9997 -0.0002 0.0241
vn 0.9979 0.0006 -0.0654
vn -0.0201 0.0089 -0.9998
vn -0.0014 -1.0000 -0.0049
vn -0.0135 -0.0089 0.9999
vn -0.7012 0.7104 -0.0609
vn 0.5236 0.5809 0.6232
vn 0.0609 0.7104 -0.7012
vn 0.9618 -0.0008 -0.2737
vn 0.1372 -0.0087 0.9905
vn -0.9849 0.0017 0.1733
vn -0.1638 0.0087 -0.9865
vn -0.0037 -0.9999 -0.0108
vn 0.0037 0.9999 0.0108
vn 0.2837 -0.0096 0.9589
vn 0.7574 0.0020 -0.6530
vn -0.9546 0.0045 0.2978
vn 0.0039 1.0000 0.0044
vn -0.0039 -1.0000 -0.0044
vn -0.4845 0.0089 -0.8747
vn 0.0014 1.0000 0.0049
vn -0.0007 -1.0000 -0.0045
vn -0.0026 -0.9999 -0.0100
vn 0.0026 0.9999 0.0100
vn 0.7572 -0.0003 -0.6531
vn -0.9547 0.0016 0.2975
vn 0.0017 1.0000 0.0039
vn -0.0017 -1.0000 -0.0039
vn 0.0007 1.0000 0.0045
s off
f 5/1/1 3/2/1 1/3/1
f 6/4/2 3/5/2 5/6/2
f 2/7/3 3/8/3 4/9/3
f 1/10/4 6/11/4 5/12/4
f 2/13/5 4/14/5 6/15/5
f 7/16/6 33/17/6 34/18/6
f 11/19/7 10/20/7 12/21/7
f 11/22/8 8/23/8 7/24/8
f 12/25/9 33/26/9 8/27/9
f 9/28/10 33/29/10 10/30/10
f 13/31/11 15/32/11 14/33/11
f 14/34/1 15/35/1 16/36/1
f 16/37/12 13/38/12 14/39/12
f 13/31/13 16/40/13 15/32/13
f 20/41/14 17/42/14 18/43/14
f 24/44/15 19/45/15 20/46/15
f 24/47/16 21/48/16 23/49/16
f 18/50/17 21/48/17 22/51/17
f 17/52/18 23/53/18 21/54/18
f 24/55/19 18/56/19 22/57/19
f 25/58/20 29/59/20 30/60/20
f 28/61/21 29/59/21 27/62/21
f 32/63/22 26/64/22 25/65/22
f 25/66/23 28/67/23 32/68/23
f 27/69/24 26/70/24 31/71/24
f 28/72/25 31/73/25 32/74/25
f 34/75/26 11/76/26 7/77/26
f 6/4/2 4/78/2 3/5/2
f 2/7/3 1/79/3 3/8/3
f 1/10/4 2/80/4 6/11/4
f 7/16/6 8/81/6 33/17/6
f 11/19/7 9/82/7 10/20/7
f 11/22/8 12/83/8 8/23/8
f 12/25/27 10/84/27 33/26/27
f 9/28/10 34/85/10 33/29/10
f 20/41/14 19/86/14 17/42/14
f 24/44/15 23/87/15 19/45/15
f 24/47/16 22/88/16 21/48/16
f 18/50/17 17/89/17 21/48/17
f 17/52/28 19/90/28 23/53/28
f 24/55/29 20/91/29 18/56/29
f 25/58/20 26/92/20 29/59/20
f 28/61/30 30/60/30 29/59/30
f 32/63/31 31/93/31 26/64/31
f 25/66/32 30/94/32 28/67/32
f 27/69/33 29/95/33 26/70/33
f 28/72/25 27/96/25 31/73/25
f 34/75/34 9/97/34 11/76/34
