# Blender v2.77 (sub 0) OBJ File: 'LowPoly_Level_Kit_Rocks.blend'
# www.blender.org
g Rock_Flat_m_02
v -0.043553 0.370182 -0.658325
v -0.177867 0.260019 -0.814243
v -0.106410 -0.000001 -0.696595
v -0.202765 0.086585 -0.805180
v -0.136983 0.177571 -0.829123
v 0.361634 0.102119 -0.510682
v 0.239891 0.365677 -0.456670
v 0.425412 0.342689 -0.335453
v 0.567857 0.067197 0.549669
v 0.559444 0.193752 0.552731
v 0.597082 0.277640 0.252360
v 0.608683 0.284657 0.168081
v 0.586313 -0.000001 0.450154
v -0.044992 -0.000001 0.660324
v 0.219292 0.074988 0.676536
v 0.230928 0.243425 0.672301
v 0.144354 0.268486 0.665503
v -0.309229 0.300415 0.632865
v -0.637855 -0.000001 -0.123032
v -0.244494 -0.000001 0.646390
v -0.417244 0.074272 0.632098
v -0.542346 0.089315 0.452937
v -0.645801 -0.000001 -0.395261
v -0.587632 0.126530 -0.665100
v -0.665181 -0.000001 -0.291617
v -0.334347 0.362351 -0.022668
v -0.343911 0.307363 0.581408
v -0.549334 0.157277 0.399726
v -0.375012 0.370182 -0.537683
v -0.527359 0.260019 -0.687038
v -0.660161 0.121792 -0.278754
v -0.581853 0.214873 -0.667203
v 0.384286 0.025582 -0.448446
v 0.291389 -0.000001 -0.481874
v 0.589249 -0.000001 0.429614
v 0.620067 0.033100 0.199358
vt 0.1412 0.4291
vt 0.1385 0.4019
vt 0.1423 0.3945
vt 0.1830 0.4361
vt 0.2007 0.4461
vt 0.1878 0.4461
vt 0.1427 0.3938
vt 0.1582 0.3907
vt 0.1670 0.3944
vt 0.1737 0.3973
vt 0.1816 0.4076
vt 0.1776 0.4282
vt 0.2248 0.4420
vt 0.2332 0.4412
vt 0.2336 0.4431
vt 0.2248 0.4794
vt 0.2245 0.4757
vt 0.2289 0.4749
vt 0.2241 0.4696
vt 0.2284 0.4503
vt 0.1981 0.4770
vt 0.1960 0.4754
vt 0.2013 0.4763
vt 0.1924 0.4624
vt 0.1949 0.4601
vt 0.1988 0.4617
vt 0.2257 0.4485
vt 0.2283 0.3907
vt 0.2314 0.3908
vt 0.2360 0.3959
vt 0.2360 0.4080
vt 0.2265 0.4029
vt 0.2365 0.4034
vt 0.1385 0.4268
vt 0.2036 0.4448
vt 0.1446 0.3907
vt 0.1795 0.4000
vt 0.2070 0.3974
vt 0.1966 0.3907
vt 0.2102 0.3909
vt 0.1855 0.4587
vt 0.1917 0.4588
vt 0.1924 0.4620
vt 0.1693 0.4462
vt 0.1522 0.4412
vt 0.1745 0.4376
vt 0.1839 0.4817
vt 0.1816 0.4753
vt 0.1924 0.4784
vt 0.1821 0.4681
vt 0.1941 0.4468
vt 0.2013 0.4590
vt 0.1941 0.3972
vt 0.2119 0.4154
vt 0.1868 0.4075
vt 0.2241 0.4278
vt 0.2195 0.4360
vt 0.2336 0.4886
vt 0.2303 0.4887
vt 0.2123 0.3910
vt 0.2195 0.4036
vt 0.1816 0.4333
vt 0.1819 0.4139
vt 0.2189 0.4382
vt 0.2363 0.4265
vt 0.2365 0.4295
vt 0.2274 0.4289
vt 0.2351 0.4407
vt 0.2305 0.4412
vt 0.2274 0.4373
vt 0.2275 0.4380
vt 0.1765 0.4343
vt 0.1968 0.4461
vt 0.1984 0.4485
vt 0.2241 0.4056
vt 0.1909 0.4467
vt 0.1543 0.4462
vt 0.1863 0.4461
vn 0.2965 -0.9501 -0.0969
vn 0.2452 0.9254 0.2892
vn 0.1909 -0.7967 0.5734
vn -0.4009 -0.8929 0.2049
vn -0.7515 0.3571 0.5547
vn -0.9812 0.0598 -0.1835
vn -0.9868 0.0238 0.1600
vn -0.3420 -0.0000 -0.9397
vn 0.5356 0.3998 -0.7438
vn 0.0000 -1.0000 0.0000
vn -0.1699 0.8679 -0.4668
vn -0.0696 0.0299 0.9971
vn -0.2542 -0.8535 -0.4550
vn 0.4118 -0.4985 -0.7629
vn 0.0054 0.9999 0.0148
vn -0.6235 0.7794 0.0611
vn 0.0634 0.9938 0.0915
vn 0.9880 0.0623 0.1412
vn 0.9397 0.0000 -0.3420
vn 0.3420 0.0000 0.9397
s off
f 34/1/1 36/2/1 35/3/1
f 11/4/2 16/5/2 10/6/2
f 13/7/3 15/8/3 14/9/3
f 20/10/4 22/11/4 19/12/4
f 21/13/5 18/14/5 27/15/5
f 23/16/6 25/17/6 31/18/6
f 31/18/7 19/19/7 28/20/7
f 32/21/8 30/22/8 24/23/8
f 2/24/8 5/25/8 4/26/8
f 22/27/5 27/15/5 28/20/5
f 5/28/9 2/29/9 1/30/9
f 8/31/9 6/32/9 7/33/9
f 34/1/1 33/34/1 36/2/1
f 11/4/2 17/35/2 16/5/2
f 14/9/10 34/1/10 35/3/10
f 13/7/3 9/36/3 15/8/3
f 20/10/4 21/37/4 22/11/4
f 29/38/11 2/39/11 30/40/11
f 15/41/12 16/42/12 17/43/12
f 24/44/13 3/45/13 23/46/13
f 21/47/12 20/48/12 18/49/12
f 14/50/12 15/41/12 17/43/12
f 6/51/14 3/52/14 5/25/14
f 22/27/7 28/20/7 19/19/7
f 31/18/7 25/17/7 19/19/7
f 1/53/15 26/54/15 7/55/15
f 6/32/9 1/30/9 7/33/9
f 28/56/16 27/57/16 26/54/16
f 23/16/6 32/58/6 24/59/6
f 30/40/16 32/60/16 29/38/16
f 31/61/16 28/56/16 26/54/16
f 29/38/16 31/61/16 26/54/16
f 12/62/17 8/63/17 26/54/17
f 7/55/17 26/54/17 8/63/17
f 27/57/17 18/64/17 17/35/17
f 18/49/12 14/50/12 17/43/12
f 12/62/17 26/54/17 11/4/17
f 12/65/18 11/66/18 36/67/18
f 10/68/18 9/69/18 35/70/18
f 13/71/18 35/70/18 9/69/18
f 36/67/19 8/31/19 12/65/19
f 25/72/10 23/46/10 19/12/10
f 3/45/10 34/1/10 19/12/10
f 35/3/10 13/7/10 14/9/10
f 14/9/10 20/10/10 19/12/10
f 19/12/10 23/46/10 3/45/10
f 35/70/18 11/66/18 10/68/18
f 3/52/14 4/26/14 5/25/14
f 17/35/17 26/54/17 27/57/17
f 33/73/14 34/74/14 6/51/14
f 6/32/19 8/31/19 33/75/19
f 4/26/8 30/22/8 2/24/8
f 15/41/20 10/76/20 16/42/20
f 22/27/5 21/13/5 27/15/5
f 14/9/10 19/12/10 34/1/10
f 29/38/11 1/53/11 2/39/11
f 24/44/13 4/77/13 3/45/13
f 6/51/14 34/74/14 3/52/14
f 1/53/15 29/38/15 26/54/15
f 6/32/9 5/28/9 1/30/9
f 23/16/6 31/18/6 32/58/6
f 29/38/16 32/60/16 31/61/16
f 18/49/12 20/48/12 14/50/12
f 36/67/19 33/75/19 8/31/19
f 35/70/18 36/67/18 11/66/18
f 17/35/17 11/4/17 26/54/17
f 4/26/8 24/23/8 30/22/8
f 15/41/20 9/78/20 10/76/20
