# Blender v2.77 (sub 0) OBJ File: 'LowPoly_Level_Kit_Rocks.blend'
# www.blender.org
g Rock_Flat_crk_m_04
v 0.742740 -0.113765 0.875583
v 0.594668 0.117956 0.876185
v 0.515426 0.039199 0.754978
v 0.549007 -0.014473 0.925767
v 0.008180 -0.028647 1.020793
v -0.259657 -0.009074 0.682471
v 0.358345 -0.019750 0.795452
v 0.453625 -0.028502 0.950443
v -0.033617 0.187874 0.920380
v -0.071522 0.203148 0.869711
v 0.396546 0.065927 0.863680
v 0.428186 0.052490 0.914429
v -0.089875 0.469811 -0.824966
v -0.587974 0.355433 -0.985747
v -0.199880 0.575927 0.243754
v -0.682599 0.343176 -0.936682
v -1.000296 -0.020512 -0.703299
v -1.025635 0.387239 -0.014987
v -1.106017 0.260974 -0.008449
v -1.134755 0.015911 -0.312656
v -0.027802 0.145197 -0.786345
v 0.181223 0.365428 -0.328204
v 0.024128 0.325090 0.187170
v -0.228422 0.269525 0.322985
v 0.087828 0.546857 -0.463001
v 0.158554 0.483973 -0.342308
v -0.011573 0.511793 0.164957
v -0.138537 0.583873 0.211946
v -0.524649 0.024275 -0.946347
v -0.168106 0.000000 -0.475579
v -0.486826 0.000000 -0.044936
v -0.486826 0.182138 -0.044936
v -0.434845 0.000000 0.303097
v -0.143060 0.113691 0.680793
v -0.102399 0.000000 0.700066
v -0.425603 0.197414 0.364974
v 0.211621 0.000000 -0.532293
v 0.361774 0.172017 -0.554720
v 0.792416 0.294698 -0.235999
v 0.871557 0.224833 0.293880
v 0.698328 0.201974 0.527941
v 0.286767 0.000000 0.638597
v 0.827622 0.101836 -0.000282
v 0.679467 0.000000 -0.048312
v -0.168106 0.165309 -0.475579
vt 0.0807 0.4294
vt 0.0857 0.4225
vt 0.0857 0.4315
vt 0.0264 0.4733
vt 0.0305 0.4675
vt 0.0319 0.4733
vt 0.0897 0.4225
vt 0.0897 0.4315
vt 0.0857 0.4287
vt 0.0361 0.4675
vt 0.0361 0.4729
vt 0.0319 0.4690
vt 0.0124 0.4819
vt 0.0190 0.4676
vt 0.0190 0.4845
vt 0.0264 0.4815
vt 0.0190 0.4756
vt 0.0264 0.4675
vt 0.1021 0.4856
vt 0.0927 0.4757
vt 0.1021 0.4656
vt 0.0416 0.4545
vt 0.0390 0.4502
vt 0.0416 0.4486
vt 0.0404 0.4338
vt 0.0387 0.4476
vt 0.0387 0.4327
vt 0.0094 0.4822
vt 0.0124 0.4682
vt 0.0124 0.4828
vt 0.0911 0.3938
vt 0.0909 0.3961
vt 0.0807 0.3986
vt 0.0909 0.4573
vt 0.0798 0.4612
vt 0.0799 0.4436
vt 0.1022 0.4027
vt 0.0992 0.4068
vt 0.0952 0.4068
vt 0.0911 0.4196
vt 0.0874 0.4225
vt 0.0671 0.4318
vt 0.0797 0.4442
vt 0.0533 0.4319
vt 0.0798 0.4618
vt 0.0673 0.4743
vt 0.0425 0.4676
vt 0.0494 0.4743
vt 0.0437 0.4376
vt 0.0927 0.4484
vt 0.0984 0.4408
vt 0.1014 0.4444
vt 0.0362 0.4321
vt 0.0265 0.4327
vt 0.0403 0.4186
vt 0.0935 0.4318
vt 0.1074 0.4472
vt 0.1016 0.4593
vt 0.1020 0.4472
vt 0.0681 0.4318
vt 0.0543 0.4318
vt 0.0807 0.4195
vt 0.0433 0.3963
vt 0.0501 0.3895
vt 0.0680 0.3893
vt 0.0806 0.4019
vt 0.1021 0.4800
vt 0.1075 0.4935
vt 0.1035 0.4927
vt 0.0425 0.4245
vt 0.0927 0.4347
vt 0.0910 0.4608
vt 0.0074 0.3992
vt 0.0144 0.4236
vt 0.0812 0.4344
vt 0.0888 0.4318
vt 0.0387 0.4551
vt 0.0353 0.4349
vt 0.0387 0.4376
vt 0.1014 0.4318
vt 0.1074 0.4319
vt 0.1087 0.4001
vt 0.1050 0.4155
vt 0.1022 0.4020
vt 0.0353 0.4582
vt 0.0258 0.4675
vt 0.0056 0.4648
vt 0.0081 0.4673
vt 0.1027 0.3893
vt 0.0337 0.4332
vt 0.0963 0.4641
vt 0.1014 0.4656
vt 0.0911 0.3893
vt 0.1022 0.3893
vt 0.0884 0.3896
vt 0.0821 0.3893
vt 0.0329 0.3893
vt 0.0425 0.3972
vt 0.0045 0.4327
vt 0.0045 0.4155
vt 0.0151 0.3907
vt 0.0425 0.4239
vt 0.1072 0.4641
vt 0.0995 0.4192
vt 0.1075 0.4656
vt 0.0817 0.4741
vt 0.0927 0.4737
vt 0.0163 0.4675
vt 0.0194 0.4776
vt 0.0976 0.4893
vt 0.0387 0.4521
vt 0.0404 0.4486
vt 0.0045 0.4675
vt 0.1088 0.4167
vt 0.1088 0.3893
vt 0.0932 0.4192
vn 0.6252 0.4012 -0.6694
vn -0.4845 -0.8573 -0.1742
vn 0.3490 0.2207 0.9108
vn -0.8625 0.4090 0.2981
vn 0.1571 0.5714 -0.8055
vn -0.7726 0.1382 0.6196
vn -0.0078 -0.9986 -0.0516
vn 0.8523 0.0356 -0.5219
vn 0.2814 0.9564 0.0778
vn 0.1400 0.4387 0.8877
vn 0.4329 0.1877 0.8817
vn -0.4329 -0.1877 -0.8817
vn 0.8819 0.1142 -0.4573
vn -0.3429 0.2650 0.9012
vn 0.1677 -0.9746 0.1486
vn 0.4922 -0.8507 0.1844
vn 0.2081 -0.9780 -0.0131
vn -0.2283 -0.7475 0.6238
vn 0.5840 -0.5833 -0.5645
vn 0.4822 -0.8316 0.2757
vn 0.9890 0.0000 -0.1477
vn -0.1477 0.0000 -0.9890
vn 0.0020 0.9993 -0.0375
vn 0.0381 0.9914 0.1250
vn -0.3239 0.9432 0.0746
vn 0.1523 0.2179 0.9640
vn -0.0466 0.9544 0.2947
vn -0.8057 0.4962 -0.3236
vn 0.0000 -1.0000 0.0000
vn 0.5255 0.8408 0.1301
vn -0.8038 0.0000 -0.5949
vn -0.7564 -0.1631 0.6334
vn -0.1866 0.9756 -0.1161
vn -0.9890 -0.0000 0.1477
vn 0.9297 0.2135 0.3001
vn 0.1832 -0.9694 0.1636
vn -0.0192 0.9988 -0.0440
vn 0.3175 -0.0519 -0.9468
vn 0.1740 -0.9746 0.1407
vn -0.0000 0.9996 -0.0276
s off
f 2/1/1 1/2/1 3/3/1
f 3/4/2 1/5/2 4/6/2
f 1/7/3 2/8/3 4/9/3
f 2/10/4 3/11/4 4/12/4
f 10/13/5 7/14/5 6/15/5
f 5/16/6 10/17/6 6/18/6
f 7/19/7 5/20/7 6/21/7
f 7/22/8 12/23/8 8/24/8
f 9/25/9 11/26/9 10/27/9
f 12/28/10 5/29/10 8/30/10
f 28/31/11 15/32/11 24/33/11
f 16/34/12 29/35/12 17/36/12
f 25/37/13 26/38/13 22/39/13
f 24/33/14 18/40/14 19/41/14
f 17/42/15 29/43/15 20/44/15
f 21/45/16 22/46/16 24/47/16
f 23/48/17 24/47/17 22/46/17
f 19/49/18 20/44/18 24/47/18
f 39/50/19 43/51/19 44/52/19
f 40/53/20 41/54/20 44/55/20
f 43/51/21 39/50/21 40/56/21
f 45/57/22 37/58/22 30/59/22
f 32/60/23 36/61/23 45/62/23
f 41/63/24 40/64/24 39/65/24
f 39/65/25 38/66/25 41/63/25
f 42/67/26 34/68/26 35/69/26
f 36/61/27 34/70/27 41/63/27
f 17/36/28 18/71/28 16/34/28
f 16/34/12 14/72/12 29/35/12
f 33/73/29 44/55/29 42/74/29
f 20/75/28 19/76/28 18/71/28
f 26/77/30 28/78/30 27/79/30
f 45/57/31 31/80/31 32/81/31
f 33/82/32 34/83/32 36/84/32
f 25/85/33 13/86/33 16/87/33
f 14/88/33 16/87/33 13/86/33
f 32/89/34 33/82/34 36/84/34
f 28/78/33 25/85/33 15/90/33
f 24/33/14 15/32/14 18/40/14
f 38/91/19 44/52/19 37/92/19
f 25/37/13 21/93/13 13/94/13
f 27/95/11 24/33/11 23/96/11
f 30/97/29 37/98/29 44/55/29
f 18/99/33 25/85/33 16/87/33
f 35/100/29 33/73/29 42/74/29
f 31/101/29 30/97/29 33/73/29
f 42/74/20 44/55/20 41/54/20
f 43/102/20 40/53/20 44/55/20
f 45/57/22 38/103/22 37/58/22
f 27/104/35 22/39/35 26/38/35
f 21/45/36 20/44/36 29/43/36
f 42/67/26 41/105/26 34/68/26
f 36/61/37 38/66/37 45/62/37
f 21/106/38 14/72/38 13/107/38
f 10/13/5 11/108/5 7/14/5
f 5/16/6 9/109/6 10/17/6
f 7/19/7 8/110/7 5/20/7
f 7/22/8 11/111/8 12/23/8
f 9/25/9 12/112/9 11/26/9
f 12/28/10 9/113/10 5/29/10
f 17/36/28 20/75/28 18/71/28
f 33/73/29 30/97/29 44/55/29
f 26/77/30 25/85/30 28/78/30
f 45/57/31 30/59/31 31/80/31
f 33/82/32 35/114/32 34/83/32
f 32/89/34 31/115/34 33/82/34
f 38/91/19 39/50/19 44/52/19
f 25/37/13 22/39/13 21/93/13
f 27/95/11 28/31/11 24/33/11
f 18/99/33 15/90/33 25/85/33
f 27/104/35 23/116/35 22/39/35
f 21/45/39 24/47/39 20/44/39
f 36/61/40 41/63/40 38/66/40
f 21/106/38 29/35/38 14/72/38
