# Blender v2.77 (sub 0) OBJ File: 'LowPoly_Level_Kit_Rocks.blend'
# www.blender.org
g Rock_Flat_crk_s_02
v -0.279554 0.105029 -0.282244
v 0.205253 0.105029 0.352796
v -0.008253 0.105029 0.180381
v -0.029109 0.105028 -0.032346
v -0.279554 0.000000 -0.282244
v 0.205253 0.000000 0.352796
v -0.008253 0.000000 0.180381
v -0.029109 -0.000000 -0.032346
v -0.328610 0.105029 -0.178563
v -0.403458 0.000000 -0.020370
v -0.093253 0.105029 0.352796
v -0.238170 0.000000 0.352796
v -0.239101 0.114307 -0.324701
v 0.371374 0.114307 -0.007181
v 0.011344 0.114307 -0.074803
v -0.239101 0.000000 -0.324701
v 0.371374 0.000000 -0.007181
v 0.011344 -0.000000 -0.074803
v -0.127683 0.114307 -0.324701
v 0.318778 0.114307 -0.140073
v 0.151100 0.000000 -0.324701
v 0.264221 0.000000 -0.277922
v 0.259367 0.122737 0.344779
v 0.385035 0.122737 0.027259
v 0.045860 0.122737 0.172364
v 0.025004 0.122737 -0.040363
v 0.385035 0.000000 0.027259
v 0.259367 0.000000 0.344779
v 0.045860 0.000000 0.172364
v 0.025004 -0.000000 -0.040363
vt 0.1003 0.4115
vt 0.1059 0.3921
vt 0.1059 0.4115
vt 0.1059 0.4360
vt 0.1003 0.4212
vt 0.1059 0.4212
vt 0.0553 0.4437
vt 0.0609 0.4601
vt 0.0553 0.4601
vt 0.0374 0.4006
vt 0.0461 0.4063
vt 0.0414 0.4323
vt 0.0336 0.4270
vt 0.0308 0.4048
vt 0.0769 0.4485
vt 0.0713 0.4545
vt 0.0713 0.4485
vt 0.0892 0.4484
vt 0.0953 0.4283
vt 0.0953 0.4484
vt 0.0953 0.4634
vt 0.0830 0.4523
vt 0.0769 0.4485
vt 0.0830 0.4485
vt 0.0871 0.4007
vt 0.1003 0.3921
vt 0.1003 0.4123
vt 0.0609 0.4510
vt 0.0670 0.4436
vt 0.0670 0.4510
vt 0.0858 0.4082
vt 0.0793 0.4241
vt 0.0740 0.3981
vt 0.0713 0.4132
vt 0.0726 0.4198
vt 0.0892 0.4283
vt 0.0782 0.4452
vt 0.0713 0.4319
vt 0.0487 0.4559
vt 0.0377 0.4391
vt 0.0487 0.4358
vt 0.0553 0.4603
vt 0.0487 0.4512
vt 0.0553 0.4512
vt 0.0553 0.4358
vt 0.0675 0.4510
vt 0.0609 0.4636
vt 0.0609 0.4510
vt 0.0373 0.4559
vt 0.0308 0.4673
vt 0.0308 0.4559
vt 0.0668 0.3921
vt 0.0713 0.4110
vt 0.0539 0.4009
vt 0.0663 0.4216
vt 0.0713 0.4358
vt 0.0510 0.4231
vt 0.0465 0.4358
vt 0.0510 0.4169
vt 0.0510 0.3921
vt 0.0897 0.4283
vt 0.0858 0.4072
vt 0.0751 0.3921
vt 0.0858 0.4283
vt 0.1003 0.3921
vt 0.1003 0.4360
vt 0.0609 0.4358
vt 0.0769 0.4638
vt 0.0892 0.4283
vt 0.0892 0.4634
vt 0.0769 0.4621
vt 0.0609 0.4358
vt 0.0892 0.4485
vt 0.0308 0.4524
vt 0.0487 0.4603
vt 0.0675 0.4636
vt 0.0373 0.4673
vn 0.7063 -0.0000 -0.7079
vn 0.6283 -0.0000 -0.7780
vn 0.9952 -0.0000 -0.0976
vn 0.0000 0.0000 1.0000
vn 0.0000 1.0000 0.0000
vn -0.5680 0.7837 0.2516
vn -0.9039 0.0000 -0.4277
vn -0.1846 -0.0000 0.9828
vn -0.7063 -0.0000 0.7079
vn 0.0000 0.0000 -1.0000
vn 0.0000 -1.0000 -0.0000
vn 0.9298 0.0000 -0.3680
vn 0.2796 0.6818 -0.6760
vn 0.9298 0.0000 0.3680
vn 0.1846 -0.0000 -0.9828
vn -0.6283 0.0000 0.7780
vn -0.9952 -0.0000 0.0976
s off
f 8/1/1 1/2/1 4/3/1
f 2/4/2 7/5/2 3/6/2
f 7/5/3 4/3/3 3/6/3
f 11/7/4 6/8/4 2/9/4
f 11/10/5 3/11/5 9/12/5
f 11/10/6 10/13/6 12/14/6
f 5/15/7 9/16/7 1/17/7
f 18/18/8 14/19/8 15/20/8
f 13/21/9 18/18/9 15/20/9
f 19/22/10 16/23/10 13/24/10
f 22/25/11 17/26/11 18/27/11
f 17/28/12 20/29/12 14/30/12
f 15/31/5 20/32/5 19/33/5
f 21/34/13 20/32/13 22/35/13
f 24/36/5 25/37/5 23/38/5
f 27/39/11 29/40/11 30/41/11
f 23/42/14 27/43/14 24/44/14
f 24/44/15 30/41/15 26/45/15
f 29/46/16 23/47/16 25/48/16
f 30/49/17 25/50/17 26/51/17
f 5/52/11 8/53/11 10/54/11
f 7/55/11 6/56/11 12/57/11
f 1/58/5 9/12/5 4/59/5
f 11/10/5 2/60/5 3/11/5
f 3/11/5 4/59/5 9/12/5
f 18/27/11 16/61/11 21/62/11
f 21/62/11 22/25/11 18/27/11
f 19/33/5 13/63/5 15/31/5
f 15/31/5 14/64/5 20/32/5
f 7/55/11 10/54/11 8/53/11
f 8/1/1 5/65/1 1/2/1
f 2/4/2 6/66/2 7/5/2
f 7/5/3 8/1/3 4/3/3
f 11/7/4 12/67/4 6/8/4
f 11/10/6 9/12/6 10/13/6
f 5/15/7 10/68/7 9/16/7
f 18/18/8 17/69/8 14/19/8
f 13/21/9 16/70/9 18/18/9
f 19/22/10 21/71/10 16/23/10
f 17/28/12 22/72/12 20/29/12
f 21/34/13 19/33/13 20/32/13
f 24/36/5 26/73/5 25/37/5
f 27/39/11 28/74/11 29/40/11
f 23/42/14 28/75/14 27/43/14
f 24/44/15 27/43/15 30/41/15
f 29/46/16 28/76/16 23/47/16
f 30/49/17 29/77/17 25/50/17
f 7/55/11 12/57/11 10/54/11
