# Blender v2.77 (sub 0) OBJ File: 'LowPoly_Level_Kit_Rocks.blend'
# www.blender.org
g Rock_Flat_l_03
v 1.916702 0.000000 -0.502242
v 1.986999 0.354163 -0.502242
v 2.009350 -0.000000 0.492829
v 2.155139 0.354163 0.550650
v -1.851427 0.000000 -0.521924
v -1.781130 0.354163 -0.521925
v -1.741424 -0.000000 0.591310
v -1.671127 0.354163 0.591310
v 2.123357 0.229663 -0.625891
v 2.186522 0.239237 0.681560
v -1.962156 0.258376 0.658247
v -2.072159 0.210543 -0.588861
v 1.478081 0.354163 0.782119
v -1.052774 0.354163 0.738753
v -1.123071 0.000000 0.738753
v 1.407784 -0.000000 0.782119
v -1.033362 0.354163 -0.669368
v 1.173956 0.354163 -0.669368
v 1.103659 0.000000 -0.669368
v -1.103659 0.000000 -0.669368
v 1.214025 0.239224 -0.736305
v -1.214025 0.177082 -0.736305
v -1.233437 0.200992 0.805690
v 1.518150 0.239568 0.849056
v 2.277615 0.354163 -0.223123
v 2.355263 0.354163 0.223122
v 2.284967 0.000000 0.223122
v 2.207318 0.000000 -0.223123
v -2.137021 0.354163 0.223123
v -2.014076 0.354163 -0.231796
v -2.084374 -0.000000 -0.231796
v -2.207318 0.000000 0.223123
v -2.305105 0.234558 -0.254108
v -2.428050 0.292034 0.245435
v 2.422793 0.220255 0.245435
v 2.345145 0.177082 -0.245435
v -1.003684 0.564326 0.720670
v 2.069174 0.564326 0.598931
v 2.260873 0.564326 0.285193
v 1.103659 0.000000 0.091254
v -1.103659 0.000000 0.075845
v 2.386416 0.458962 0.225787
v 2.183511 0.458962 0.557865
v -1.068975 0.458962 0.690137
v -1.695921 0.458962 0.599091
v -2.043635 0.458962 -0.235452
v -1.807452 0.458962 -0.580767
v 1.188694 0.458962 -0.679105
v 2.013035 0.458962 -0.509656
v 1.497045 0.458962 0.792550
v -1.049294 0.458962 -0.730259
v 2.307688 0.458962 -0.226659
v -2.168288 0.458962 0.225788
v -1.379623 0.667525 0.819879
v 1.878089 0.667525 0.628856
v 2.081320 0.667525 0.296244
v -1.596004 0.564326 0.637880
v -1.924515 0.564326 -0.150572
v -1.701375 0.564326 -0.479641
v 1.129299 0.564326 -0.569723
v 1.908113 0.564326 -0.409633
v 1.420621 0.564326 0.820655
v -0.985089 0.564326 -0.620878
v 2.186493 0.564326 -0.142265
v -2.042283 0.564326 0.285194
v -1.569076 0.774899 0.848215
v 1.817133 0.774899 0.649657
v 2.028380 0.774899 0.303925
v -2.007576 0.667525 0.670147
v -2.355849 0.667525 -0.165736
v -2.119286 0.667525 -0.460369
v 0.881674 0.667525 -0.680521
v 1.707338 0.667525 -0.440381
v 1.190520 0.667525 0.863918
v -1.359910 0.667525 -0.610101
v 2.002466 0.667525 -0.156929
v -2.480702 0.667525 0.296245
v -1.529685 0.837343 0.824317
v 1.748152 0.837343 0.632113
v 1.952639 0.837343 0.297447
v -2.221797 0.774899 0.692577
v -2.583808 0.774899 -0.176277
v -2.337913 0.774899 -0.482531
v 0.781416 0.774899 -0.708589
v 1.639647 0.774899 -0.461755
v 1.102444 0.774899 0.893991
v -1.548585 0.774899 -0.638169
v 1.946416 0.774899 -0.167122
v -2.713585 0.774899 0.303926
v -1.610488 0.926483 0.807580
v 1.889653 0.926483 0.602340
v 2.108009 0.926483 0.244977
v -2.161516 0.837343 0.673660
v -2.511941 0.837343 -0.167387
v -2.273916 0.837343 -0.463840
v 0.745582 0.837343 -0.614497
v 1.576347 0.837343 -0.443729
v 1.056336 0.837343 0.868628
v -1.509849 0.837343 -0.614497
v 1.873298 0.837343 -0.158525
v -2.637565 0.837343 0.297448
v -1.610488 1.002530 0.807580
v 1.889653 1.002530 0.602340
v 2.108009 1.002530 0.244977
v -2.285171 0.926483 0.646705
v -2.659362 0.926483 -0.251382
v -2.405194 0.926483 -0.567941
v 0.819088 0.926483 -0.645503
v 1.706196 0.926483 -0.546466
v 1.150918 0.926483 0.854895
v -1.589308 0.926483 -0.728816
v 1.894409 0.926483 -0.241920
v -2.793506 0.926483 0.244977
v -1.528387 1.146194 0.715431
v 1.745880 1.146194 0.534694
v 1.950145 1.146194 0.219996
v -2.285171 1.002530 0.646705
v -2.659362 1.002530 -0.251382
v -2.405194 1.002530 -0.567941
v 0.819088 1.002530 -0.645503
v 1.706196 1.002530 -0.546466
v 1.150918 1.002530 0.854895
v -1.589308 1.002530 -0.728816
v 1.894409 1.002530 -0.241920
v -2.793506 1.002530 0.244977
v -2.159531 1.146194 0.573762
v -2.509574 1.146194 -0.217104
v -2.271808 1.146194 -0.495869
v 0.744402 1.146194 -0.554225
v 1.574262 1.146194 -0.476958
v 1.054818 1.146194 0.757097
v -1.508574 1.146194 -0.637538
v 1.742012 1.146194 -0.208771
v -2.635061 1.146194 0.219996
v -1.508573 1.146194 0.005613
v 0.744402 1.146194 0.063946
vt 0.4069 0.4072
vt 0.4025 0.4059
vt 0.4026 0.4049
vt 0.4244 0.4413
vt 0.4224 0.4461
vt 0.4224 0.4401
vt 0.4579 0.4664
vt 0.4607 0.4692
vt 0.4583 0.4704
vt 0.3932 0.4169
vt 0.3955 0.4096
vt 0.3940 0.4176
vt 0.4017 0.4392
vt 0.4068 0.4454
vt 0.4033 0.4501
vt 0.4260 0.4498
vt 0.4270 0.4457
vt 0.4270 0.4501
vt 0.4551 0.4494
vt 0.4512 0.4424
vt 0.4518 0.4419
vt 0.4492 0.4099
vt 0.4456 0.4101
vt 0.4483 0.4071
vt 0.4259 0.4455
vt 0.4259 0.4394
vt 0.3974 0.4680
vt 0.3956 0.4665
vt 0.3970 0.4659
vt 0.4259 0.4074
vt 0.4248 0.4140
vt 0.4248 0.4072
vt 0.4471 0.4204
vt 0.4460 0.4188
vt 0.4469 0.4128
vt 0.4593 0.4501
vt 0.4603 0.4609
vt 0.4584 0.4611
vt 0.4260 0.4052
vt 0.4270 0.4071
vt 0.4008 0.4626
vt 0.4033 0.4527
vt 0.4019 0.4629
vt 0.4018 0.4676
vt 0.4013 0.4715
vt 0.4006 0.4674
vt 0.4052 0.4086
vt 0.4014 0.4175
vt 0.3943 0.4393
vt 0.4602 0.4656
vt 0.4225 0.4088
vt 0.4082 0.4394
vt 0.4082 0.4145
vt 0.4259 0.4143
vt 0.4269 0.4395
vt 0.3982 0.4067
vt 0.3976 0.4616
vt 0.3980 0.4660
vt 0.4603 0.4159
vt 0.4579 0.4374
vt 0.4593 0.4151
vt 0.3966 0.4616
vt 0.3976 0.4578
vt 0.3952 0.4574
vt 0.3966 0.4578
vt 0.3948 0.4617
vt 0.4533 0.4078
vt 0.4579 0.4085
vt 0.4579 0.4115
vt 0.4529 0.4049
vt 0.4269 0.4141
vt 0.3959 0.4466
vt 0.3988 0.4489
vt 0.4074 0.4480
vt 0.4617 0.4737
vt 0.4588 0.4754
vt 0.3932 0.4614
vt 0.3932 0.4577
vt 0.3935 0.4658
vt 0.4280 0.4083
vt 0.4280 0.4149
vt 0.4657 0.4501
vt 0.4623 0.4478
vt 0.4664 0.4489
vt 0.4599 0.4448
vt 0.4588 0.4457
vt 0.4613 0.4489
vt 0.4650 0.4057
vt 0.4623 0.4089
vt 0.4614 0.4078
vt 0.4071 0.4735
vt 0.4061 0.4553
vt 0.4072 0.4527
vt 0.4280 0.4447
vt 0.4691 0.4483
vt 0.4696 0.4473
vt 0.3980 0.4527
vt 0.4033 0.4757
vt 0.4023 0.4712
vt 0.4536 0.4617
vt 0.4496 0.4656
vt 0.4492 0.4612
vt 0.4638 0.4505
vt 0.4617 0.4732
vt 0.4636 0.4501
vt 0.4572 0.4610
vt 0.4543 0.4661
vt 0.4290 0.4102
vt 0.4290 0.4172
vt 0.4667 0.4472
vt 0.4392 0.4558
vt 0.4399 0.4594
vt 0.4388 0.4606
vt 0.4623 0.4460
vt 0.4464 0.4637
vt 0.4456 0.4595
vt 0.4280 0.4389
vt 0.4563 0.4569
vt 0.4577 0.4547
vt 0.4280 0.4489
vt 0.4300 0.4181
vt 0.4290 0.4427
vt 0.4696 0.4049
vt 0.4657 0.4070
vt 0.4301 0.4085
vt 0.4301 0.4108
vt 0.4044 0.4537
vt 0.4056 0.4577
vt 0.4044 0.4585
vt 0.4498 0.4680
vt 0.4577 0.4632
vt 0.4547 0.4686
vt 0.4399 0.4632
vt 0.4413 0.4674
vt 0.4402 0.4676
vt 0.4403 0.4537
vt 0.4410 0.4589
vt 0.4410 0.4629
vt 0.4033 0.4560
vt 0.4033 0.4606
vt 0.4701 0.4454
vt 0.4382 0.4647
vt 0.4362 0.4617
vt 0.4388 0.4644
vt 0.4306 0.4186
vt 0.4300 0.4446
vt 0.4307 0.4504
vt 0.4301 0.4510
vt 0.4446 0.4612
vt 0.4438 0.4575
vt 0.4453 0.4611
vt 0.4061 0.4527
vt 0.4061 0.4575
vt 0.4046 0.4690
vt 0.4035 0.4695
vt 0.4355 0.4619
vt 0.4345 0.4572
vt 0.4382 0.4529
vt 0.4337 0.4573
vt 0.4347 0.4418
vt 0.4341 0.4187
vt 0.4358 0.4408
vt 0.4290 0.4489
vt 0.4465 0.4660
vt 0.4378 0.4073
vt 0.4415 0.4049
vt 0.4422 0.4062
vt 0.4352 0.4104
vt 0.4337 0.4181
vt 0.4340 0.4094
vt 0.4369 0.4073
vt 0.4410 0.4503
vt 0.4369 0.4497
vt 0.4379 0.4482
vt 0.4315 0.4450
vt 0.4307 0.4442
vt 0.4316 0.4516
vt 0.4452 0.4068
vt 0.4456 0.4080
vt 0.4006 0.4527
vt 0.3984 0.4640
vt 0.3999 0.4527
vt 0.4417 0.4626
vt 0.4638 0.4812
vt 0.4636 0.4818
vt 0.4446 0.4529
vt 0.4431 0.4574
vt 0.4307 0.4115
vt 0.4324 0.4564
vt 0.4316 0.4564
vt 0.4316 0.4101
vt 0.4323 0.4176
vt 0.4315 0.4176
vt 0.3981 0.4723
vt 0.3991 0.4775
vt 0.3984 0.4776
vt 0.3987 0.4687
vt 0.3980 0.4687
vt 0.3989 0.4722
vt 0.4426 0.4620
vt 0.4417 0.4581
vt 0.4424 0.4580
vt 0.4337 0.4185
vt 0.4323 0.4450
vt 0.4323 0.4516
vt 0.4316 0.4077
vt 0.4323 0.4101
vt 0.4307 0.4548
vt 0.4452 0.4529
vt 0.4402 0.4520
vt 0.4215 0.4411
vt 0.4224 0.4180
vt 0.4224 0.4420
vt 0.4173 0.4525
vt 0.4127 0.4520
vt 0.4170 0.4509
vt 0.4086 0.4485
vt 0.4124 0.4536
vt 0.4337 0.4115
vt 0.4006 0.4765
vt 0.4210 0.4104
vt 0.4217 0.4091
vt 0.4004 0.4718
vt 0.4205 0.4501
vt 0.4199 0.4487
vt 0.4154 0.4185
vt 0.4082 0.4409
vt 0.4087 0.4151
vt 0.4431 0.4670
vt 0.4418 0.4620
vt 0.4424 0.4530
vt 0.4431 0.4529
vt 0.4111 0.4083
vt 0.4142 0.4064
vt 0.4094 0.4472
vt 0.4152 0.4409
vt 0.4215 0.4187
vt 0.4184 0.4086
vt 0.4105 0.4069
vt 0.4337 0.4503
vt 0.4250 0.4484
vt 0.3941 0.4079
vt 0.4542 0.4510
vt 0.3963 0.4693
vt 0.4617 0.4507
vt 0.4270 0.4049
vt 0.4023 0.4527
vt 0.4224 0.4150
vt 0.4590 0.4369
vt 0.4034 0.4527
vt 0.4072 0.4773
vt 0.3970 0.4528
vt 0.4023 0.4760
vt 0.4626 0.4729
vt 0.4598 0.4428
vt 0.4562 0.4510
vt 0.4701 0.4062
vt 0.4291 0.4080
vt 0.4056 0.4527
vt 0.4414 0.4529
vt 0.4388 0.4531
vt 0.3992 0.4639
vt 0.4417 0.4587
vt 0.4453 0.4531
vt 0.4337 0.4441
vt 0.4324 0.4077
vt 0.4456 0.4512
vt 0.4003 0.4687
vt 0.4424 0.4670
vt 0.4141 0.4049
vn 0.7466 -0.5104 0.4267
vn -0.2114 -0.4114 0.8866
vn -0.6468 -0.6471 -0.4037
vn 0.1890 -0.3445 -0.9196
vn -0.0000 -1.0000 -0.0000
vn -0.6074 -0.2008 0.7686
vn 0.1695 0.5394 -0.8248
vn -0.3425 0.8896 -0.3021
vn -0.1901 0.5727 0.7974
vn 0.7579 0.4594 0.4631
vn 0.1582 0.7605 0.6297
vn -0.0093 0.3618 -0.9322
vn -0.1129 0.5985 -0.7931
vn 0.0089 -0.3487 -0.9372
vn 0.8245 -0.2579 0.5038
vn -0.0000 -0.5024 -0.8646
vn -0.7310 -0.4643 -0.5000
vn -0.1680 -0.4543 -0.8749
vn -0.0104 -0.3211 0.9470
vn 0.1764 -0.6868 0.7051
vn -0.0156 0.4188 0.9079
vn 0.9466 -0.2772 -0.1647
vn 0.0160 0.7154 -0.6985
vn 0.6761 -0.2178 -0.7039
vn 0.3887 0.8277 -0.4047
vn 0.9156 0.3692 -0.1593
vn -0.2358 0.9249 0.2984
vn -0.2180 0.9620 -0.1643
vn 0.3198 -0.1510 0.9354
vn -0.5001 -0.5912 0.6328
vn -0.7959 -0.5918 -0.1278
vn 0.4870 -0.7112 -0.5070
vn 0.7737 -0.6191 -0.1346
vn 0.3234 -0.0178 0.9461
vn 0.6093 0.7858 -0.1060
vn 0.1334 0.7490 -0.6490
vn 0.4075 0.8086 -0.4243
vn -0.4860 0.8083 -0.3324
vn 0.0170 -0.7124 -0.7015
vn -0.1401 -0.2223 0.9649
vn 0.6916 0.5858 0.4226
vn -0.1278 0.7507 -0.6481
vn 0.1999 -0.1185 -0.9726
vn -0.9293 -0.2709 -0.2511
vn -0.1659 -0.5142 -0.8415
vn -0.1429 -0.1069 0.9840
vn -0.2302 -0.9712 -0.0622
vn -0.0281 0.3695 -0.9288
vn -0.2141 -0.9385 0.2709
vn 0.3077 0.3087 0.9000
vn 0.4925 0.8661 -0.0857
vn 0.2003 0.0994 -0.9747
vn 0.4584 0.7497 -0.4773
vn -0.2436 -0.9557 -0.1652
vn -0.0398 -0.2553 0.9661
vn -0.1464 -0.7757 0.6139
vn -0.5940 0.2866 0.7517
vn -0.0164 -0.2821 0.9592
vn -0.5881 0.7930 -0.1589
vn 0.7968 0.3580 0.4868
vn -0.1661 -0.5122 -0.8426
vn -0.0120 -0.7153 0.6987
vn -0.4191 -0.9009 -0.1133
vn -0.3602 -0.8139 0.4558
vn 0.3235 0.0003 0.9462
vn 0.8819 0.4458 -0.1535
vn 0.2792 -0.0151 -0.9601
vn 0.6647 0.2813 -0.6921
vn -0.1659 -0.5146 -0.8412
vn 0.4893 0.8193 0.2990
vn -0.5551 0.7023 -0.4457
vn -0.0159 0.3661 0.9304
vn -0.2059 0.4604 0.8635
vn 0.5771 0.7366 0.3526
vn -0.1736 0.4414 -0.8804
vn -0.0302 -0.2790 -0.9598
vn -0.6340 0.7541 -0.1713
vn -0.4756 0.6415 0.6019
vn -0.0000 -0.7886 -0.6149
vn -0.1931 -0.5543 0.8096
vn -0.3924 -0.8641 -0.3151
vn 0.4748 -0.8762 -0.0826
vn 0.0674 -0.7942 -0.6039
vn 0.5307 -0.6427 -0.5526
vn -0.3663 -0.8828 -0.2941
vn -0.0169 0.1697 0.9853
vn -0.2319 -0.0276 0.9724
vn 0.5516 -0.7630 0.3370
vn -0.1108 -0.8196 -0.5621
vn 0.0346 0.0000 -0.9994
vn 0.5122 0.6732 -0.5333
vn 0.2414 0.4870 -0.8394
vn 0.6378 0.7621 -0.1110
vn 0.2745 0.5289 0.8031
vn -0.6200 0.0000 0.7846
vn 0.3235 0.0000 0.9462
vn 0.9158 0.0000 -0.4017
vn 0.1110 0.0000 -0.9938
vn 0.8507 0.0000 -0.5257
vn -0.7798 0.0000 -0.6261
vn -0.0142 0.5561 0.8310
vn -0.2319 0.0000 0.9727
vn 0.8533 0.0000 0.5214
vn 0.3174 -0.1937 0.9283
vn -0.5263 -0.5287 0.6660
vn -0.4605 -0.8789 -0.1245
vn 0.0294 0.5242 -0.8511
vn -0.6570 0.7300 -0.1886
vn -0.4794 0.6342 0.6066
vn 0.2331 0.6489 0.7243
vn 0.6684 0.6835 -0.2932
vn 0.0959 0.5035 -0.8587
vn 0.5944 0.7153 -0.3674
vn -0.5295 0.7181 -0.4516
vn -0.0171 0.0000 0.9999
vn 0.0000 1.0000 -0.0000
vn -0.9654 0.0000 -0.2609
vn -0.1935 0.0000 -0.9811
vn -0.1476 0.5882 -0.7952
vn 0.5654 0.7387 0.3670
vn -0.1903 0.5717 0.7981
vn -0.0148 0.5004 0.8656
vn 0.4748 -0.7343 0.4852
vn -0.2118 -0.4107 0.8868
vn -0.5468 -0.7129 -0.4391
vn 0.0961 -0.5375 -0.8378
vn 0.0877 0.7487 -0.6571
vn -0.3674 0.8820 -0.2950
vn -0.0813 0.7250 0.6840
vn 0.7117 0.6036 0.3593
vn 0.2693 0.5542 0.7876
vn -0.0000 0.5032 -0.8641
vn -0.1682 0.4940 -0.8530
vn -0.0000 -0.2695 -0.9630
vn 0.0227 -0.0957 -0.9952
vn -0.7579 -0.2350 -0.6085
vn -0.1736 -0.4410 -0.8805
vn -0.0165 -0.2620 0.9649
vn 0.3950 -0.4115 0.8214
vn -0.0397 -0.0919 0.9950
vn 0.0167 0.7246 -0.6890
vn 0.8244 0.3685 -0.4296
vn 0.8903 0.4193 -0.1777
vn -0.1799 0.9430 0.2799
vn -0.3716 0.9229 -0.1004
vn -0.5950 -0.4979 0.6309
vn -0.7058 -0.6823 -0.1907
vn 0.6674 -0.5785 -0.4690
vn 0.8484 -0.5219 -0.0883
vn -0.4838 0.8113 -0.3281
vn -0.0314 -0.0097 -0.9995
vn -0.1357 -0.1973 0.9709
vn -0.2142 0.3836 0.8983
vn -0.0000 0.8332 -0.5530
vn 0.2627 -0.3394 -0.9032
vn -0.2230 -0.9582 -0.1790
vn -0.0382 -0.2833 0.9583
vn -0.0784 -0.8244 0.5606
vn -0.5881 0.7930 -0.1590
vn -0.0367 -0.4548 0.8898
vn 0.2764 0.0069 -0.9610
vn -0.0288 -0.2999 -0.9535
vn 0.0324 -0.3521 -0.9354
vn 0.7878 -0.5099 -0.3456
vn 0.1796 -0.4520 -0.8737
vn 0.4053 -0.8792 -0.2505
vn 0.1071 0.8467 -0.5211
vn -0.0135 0.5453 0.8381
vn 0.0309 0.5474 -0.8363
vn -0.6761 0.7138 -0.1827
vn -0.4372 0.6808 0.5877
vn 0.2564 0.6097 0.7500
vn 0.6189 0.7258 -0.3004
vn 0.0766 0.5628 -0.8231
vn 0.5890 0.7192 -0.3684
vn -0.5618 0.6934 -0.4511
vn -0.1606 0.5576 -0.8144
vn 0.5949 0.7169 0.3635
vn -0.1751 0.6005 0.7802
vn -0.0202 0.4203 0.9072
s off
f 10/1/1 27/2/1 35/3/1
f 23/4/2 7/5/2 15/6/2
f 12/7/3 31/8/3 33/9/3
f 21/10/4 1/11/4 19/12/4
f 41/13/5 7/14/5 32/15/5
f 29/16/6 45/17/6 53/18/6
f 2/19/7 21/20/7 18/21/7
f 30/22/8 12/23/8 33/24/8
f 8/25/9 23/4/9 14/26/9
f 4/27/10 35/28/10 26/29/10
f 4/30/11 24/31/11 10/32/11
f 17/33/12 21/20/12 22/34/12
f 6/35/13 22/34/13 12/23/13
f 21/36/14 20/37/14 22/38/14
f 26/39/15 43/40/15 4/30/15
f 51/41/16 18/42/16 17/43/16
f 6/44/17 46/45/17 47/46/17
f 3/47/5 40/48/5 27/2/5
f 19/12/5 41/13/5 20/49/5
f 22/38/18 5/50/18 12/7/18
f 15/6/19 24/31/19 23/4/19
f 24/31/20 3/51/20 10/32/20
f 15/52/5 40/48/5 16/53/5
f 13/54/21 44/55/21 14/26/21
f 1/11/5 40/48/5 19/12/5
f 28/56/5 27/2/5 40/48/5
f 26/29/22 52/57/22 42/58/22
f 63/59/23 48/60/23 51/61/23
f 25/62/24 49/63/24 52/57/24
f 25/62/25 9/64/25 2/65/25
f 26/29/26 36/66/26 25/62/26
f 29/67/27 11/68/27 8/69/27
f 29/67/28 33/24/28 34/70/28
f 4/30/29 50/71/29 13/54/29
f 41/13/5 5/72/5 20/49/5
f 41/13/5 32/15/5 31/73/5
f 11/74/30 32/15/30 7/14/30
f 33/9/31 32/75/31 34/76/31
f 9/64/32 28/77/32 1/78/32
f 36/66/33 27/79/33 28/77/33
f 50/71/34 38/80/34 62/81/34
f 42/82/35 64/83/35 39/84/35
f 48/60/36 61/85/36 49/86/36
f 49/86/37 64/83/37 52/87/37
f 46/88/38 59/89/38 47/90/38
f 63/91/39 72/92/39 60/93/39
f 44/55/40 57/94/40 45/17/40
f 43/95/41 39/84/41 38/96/41
f 51/61/42 59/89/42 63/59/42
f 2/65/43 48/97/43 49/63/43
f 29/98/44 46/45/44 30/99/44
f 6/44/45 51/41/45 17/43/45
f 8/25/46 44/55/46 45/17/46
f 65/100/47 70/101/47 58/102/47
f 99/103/48 84/104/48 87/105/48
f 65/100/49 69/106/49 77/107/49
f 62/81/50 55/108/50 74/109/50
f 64/83/51 56/110/51 39/84/51
f 60/111/52 73/112/52 61/113/52
f 61/85/53 76/114/53 64/83/53
f 58/102/54 71/115/54 59/116/54
f 44/55/55 62/81/55 37/117/55
f 57/118/56 54/119/56 69/106/56
f 45/17/57 65/120/57 53/18/57
f 86/121/58 54/122/58 74/109/58
f 53/123/59 58/124/59 46/88/59
f 55/108/60 68/125/60 67/126/60
f 71/127/61 87/128/61 75/129/61
f 37/117/62 74/109/62 54/122/62
f 77/107/63 82/130/63 70/101/63
f 77/107/64 81/131/64 89/132/64
f 74/109/65 67/126/65 86/121/65
f 76/133/66 68/134/66 56/135/66
f 72/136/67 85/137/67 73/112/67
f 73/112/68 88/138/68 76/133/68
f 59/139/69 75/129/69 63/140/69
f 38/96/70 56/110/70 55/141/70
f 83/142/71 94/143/71 95/144/71
f 98/145/72 66/146/72 86/121/72
f 66/146/73 93/147/73 81/148/73
f 67/149/74 80/150/74 79/151/74
f 87/128/75 95/152/75 99/153/75
f 75/129/76 84/154/76 72/155/76
f 82/156/77 101/157/77 94/143/77
f 81/158/78 101/157/78 89/159/78
f 111/160/79 96/161/79 99/162/79
f 69/163/80 66/146/80 81/148/80
f 70/101/81 83/164/81 71/115/81
f 100/165/82 92/166/82 80/167/82
f 97/168/83 108/169/83 109/170/83
f 97/168/84 112/171/84 100/165/84
f 94/172/85 107/173/85 95/174/85
f 98/145/86 90/175/86 78/176/86
f 93/147/87 90/175/87 105/177/87
f 80/167/88 91/178/88 79/179/88
f 95/174/89 111/160/89 99/162/89
f 123/180/90 108/181/90 111/182/90
f 85/137/91 100/183/91 88/138/91
f 84/104/92 97/184/92 85/185/92
f 88/186/93 80/150/93 68/187/93
f 86/121/94 79/188/94 98/145/94
f 105/177/95 125/189/95 113/190/95
f 91/191/96 122/192/96 110/193/96
f 112/194/97 104/195/97 92/196/97
f 108/181/98 121/197/98 109/198/98
f 109/198/99 124/199/99 112/194/99
f 106/200/100 119/201/100 107/202/100
f 131/203/101 102/204/101 122/192/101
f 90/175/102 117/205/102 105/177/102
f 92/206/103 103/207/103 91/191/103
f 79/188/104 110/193/104 98/145/104
f 101/208/105 105/177/105 113/190/105
f 94/172/106 113/209/106 106/210/106
f 132/211/107 120/212/107 123/213/107
f 118/214/108 134/215/108 127/216/108
f 117/217/109 134/215/109 125/218/109
f 122/192/110 115/219/110 131/203/110
f 124/199/111 116/220/111 104/195/111
f 120/212/112 130/221/112 121/222/112
f 121/197/113 133/223/113 124/199/113
f 119/224/114 127/216/114 128/225/114
f 110/193/115 102/204/115 90/175/115
f 136/226/116 114/227/116 131/228/116
f 113/229/117 118/230/117 106/200/117
f 107/202/118 123/231/118 111/232/118
f 136/226/116 115/233/116 116/234/116
f 126/235/116 135/236/116 134/215/116
f 135/236/116 129/237/116 132/211/116
f 128/225/116 135/236/116 132/211/116
f 127/216/116 134/215/116 135/236/116
f 136/226/116 130/221/116 129/237/116
f 136/226/116 116/234/116 133/238/116
f 123/213/119 128/225/119 132/211/119
f 103/239/120 116/234/120 115/233/120
f 102/204/121 126/240/121 117/205/121
f 14/26/122 24/31/122 13/54/122
f 10/1/123 3/47/123 27/2/123
f 23/4/124 11/241/124 7/5/124
f 12/7/125 5/50/125 31/8/125
f 21/10/126 9/242/126 1/11/126
f 41/13/5 15/52/5 7/14/5
f 29/16/6 8/25/6 45/17/6
f 2/19/127 9/243/127 21/20/127
f 30/22/128 6/35/128 12/23/128
f 8/25/129 11/241/129 23/4/129
f 4/27/130 10/244/130 35/28/130
f 4/30/131 13/54/131 24/31/131
f 17/33/132 18/21/132 21/20/132
f 6/35/133 17/33/133 22/34/133
f 21/36/134 19/245/134 20/37/134
f 26/39/15 42/246/15 43/40/15
f 51/41/135 48/247/135 18/42/135
f 6/44/136 30/99/136 46/45/136
f 3/47/5 16/53/5 40/48/5
f 19/12/5 40/48/5 41/13/5
f 22/38/137 20/37/137 5/50/137
f 15/6/138 16/248/138 24/31/138
f 24/31/139 16/248/139 3/51/139
f 15/52/5 41/13/5 40/48/5
f 13/54/140 50/71/140 44/55/140
f 1/11/5 28/56/5 40/48/5
f 26/29/22 25/62/22 52/57/22
f 63/59/141 60/249/141 48/60/141
f 25/62/24 2/65/24 49/63/24
f 25/62/142 36/66/142 9/64/142
f 26/29/143 35/28/143 36/66/143
f 29/67/144 34/70/144 11/68/144
f 29/67/145 30/22/145 33/24/145
f 4/30/29 43/40/29 50/71/29
f 41/13/5 31/73/5 5/72/5
f 11/74/146 34/250/146 32/15/146
f 33/9/147 31/8/147 32/75/147
f 9/64/148 36/66/148 28/77/148
f 36/66/149 35/28/149 27/79/149
f 50/71/34 43/40/34 38/80/34
f 42/82/35 52/87/35 64/83/35
f 48/60/36 60/249/36 61/85/36
f 49/86/37 61/85/37 64/83/37
f 46/88/150 58/124/150 59/89/150
f 63/91/151 75/251/151 72/92/151
f 44/55/152 37/117/152 57/94/152
f 43/95/41 42/82/41 39/84/41
f 51/61/42 47/90/42 59/89/42
f 2/65/43 18/252/43 48/97/43
f 29/98/44 53/253/44 46/45/44
f 6/44/45 47/46/45 51/41/45
f 8/25/153 14/26/153 44/55/153
f 65/100/47 77/107/47 70/101/47
f 99/103/154 96/254/154 84/104/154
f 65/100/49 57/118/49 69/106/49
f 62/81/50 38/80/50 55/108/50
f 64/83/51 76/114/51 56/110/51
f 60/111/155 72/136/155 73/112/155
f 61/85/53 73/255/53 76/114/53
f 58/102/156 70/101/156 71/115/156
f 44/55/157 50/71/157 62/81/157
f 57/118/158 37/256/158 54/119/158
f 45/17/57 57/94/57 65/120/57
f 86/121/58 66/146/58 54/122/58
f 53/123/159 65/257/159 58/124/159
f 55/108/60 56/258/60 68/125/60
f 71/127/61 83/259/61 87/128/61
f 37/117/160 62/81/160 74/109/160
f 77/107/63 89/132/63 82/130/63
f 77/107/64 69/106/64 81/131/64
f 74/109/65 55/108/65 67/126/65
f 76/133/66 88/138/66 68/134/66
f 72/136/161 84/260/161 85/137/161
f 73/112/68 85/137/68 88/138/68
f 59/139/69 71/127/69 75/129/69
f 38/96/70 39/84/70 56/110/70
f 83/142/71 82/156/71 94/143/71
f 98/145/72 78/176/72 66/146/72
f 66/146/73 78/176/73 93/147/73
f 67/149/74 68/187/74 80/150/74
f 87/128/75 83/259/75 95/152/75
f 75/129/162 87/128/162 84/154/162
f 82/156/77 89/159/77 101/157/77
f 81/158/78 93/261/78 101/157/78
f 111/160/163 108/169/163 96/161/163
f 69/163/80 54/122/80 66/146/80
f 70/101/81 82/130/81 83/164/81
f 100/165/164 112/171/164 92/166/164
f 97/168/165 96/161/165 108/169/165
f 97/168/166 109/170/166 112/171/166
f 94/172/85 106/210/85 107/173/85
f 98/145/86 110/193/86 90/175/86
f 93/147/87 78/176/87 90/175/87
f 80/167/88 92/166/88 91/178/88
f 95/174/89 107/173/89 111/160/89
f 123/180/90 120/262/90 108/181/90
f 85/137/91 97/263/91 100/183/91
f 84/104/167 96/254/167 97/184/167
f 88/186/93 100/264/93 80/150/93
f 86/121/94 67/126/94 79/188/94
f 105/177/95 117/205/95 125/189/95
f 91/191/96 103/207/96 122/192/96
f 112/194/97 124/199/97 104/195/97
f 108/181/98 120/262/98 121/197/98
f 109/198/99 121/197/99 124/199/99
f 106/200/100 118/230/100 119/201/100
f 131/203/168 114/265/168 102/204/168
f 90/175/102 102/204/102 117/205/102
f 92/206/103 104/266/103 103/207/103
f 79/188/104 91/191/104 110/193/104
f 101/208/105 93/147/105 105/177/105
f 94/172/106 101/267/106 113/209/106
f 132/211/169 129/237/169 120/212/169
f 118/214/170 125/218/170 134/215/170
f 117/217/171 126/235/171 134/215/171
f 122/192/172 103/207/172 115/219/172
f 124/199/173 133/223/173 116/220/173
f 120/212/174 129/237/174 130/221/174
f 121/197/175 130/268/175 133/223/175
f 119/224/176 118/214/176 127/216/176
f 110/193/115 122/192/115 102/204/115
f 136/226/116 135/236/116 114/227/116
f 113/229/117 125/269/117 118/230/117
f 107/202/118 119/201/118 123/231/118
f 136/226/116 131/228/116 115/233/116
f 126/235/116 114/227/116 135/236/116
f 135/236/116 136/226/116 129/237/116
f 128/225/116 127/216/116 135/236/116
f 136/226/116 133/238/116 130/221/116
f 123/213/177 119/224/177 128/225/177
f 103/239/178 104/270/178 116/234/178
f 102/204/179 114/265/179 126/240/179
f 14/26/180 23/4/180 24/31/180
