# Blender v2.77 (sub 0) OBJ File: 'LowPoly_Level_Kit_Rocks.blend'
# www.blender.org
g Rock_Flat_m_07
v 0.080384 -0.000533 -0.289625
v -0.301719 0.301308 -0.314062
v -0.559830 0.122322 -0.139289
v -0.237254 -0.000309 -0.173336
v -0.294599 0.185223 0.329865
v -0.310142 -0.000257 0.205815
v 0.284143 0.322190 0.243100
v 0.098129 -0.000546 0.310293
v 0.326211 0.178971 0.329865
v 0.406589 0.148416 -0.269511
v 0.388869 0.319107 -0.244445
v 0.385257 0.309968 -0.271141
v 0.434144 0.317774 0.006289
v 0.488288 0.125551 0.168126
v 0.483293 -0.000818 0.048871
v -0.403042 0.342422 0.140726
v -0.376862 0.341651 -0.198559
v -0.408881 0.312995 -0.282803
v -0.557268 0.209323 -0.181955
v -0.470577 0.295198 0.185942
v -0.560116 0.112591 -0.007106
v -0.441787 0.050872 0.205164
v -0.473138 0.196759 0.291562
v -0.556715 0.228120 0.128165
v -0.529208 0.253998 0.221804
v 0.239053 -0.000645 -0.279708
v 0.362500 0.068627 -0.272119
v 0.468111 -0.000807 -0.035525
v 0.423367 0.079252 -0.226308
vt 0.8585 0.4317
vt 0.8476 0.4450
vt 0.8503 0.4048
vt 0.8628 0.4549
vt 0.8535 0.4549
vt 0.8215 0.4586
vt 0.8265 0.4484
vt 0.8248 0.4555
vt 0.8303 0.4356
vt 0.8290 0.4143
vt 0.8473 0.4104
vt 0.7919 0.4479
vt 0.7786 0.4577
vt 0.7645 0.4547
vt 0.7672 0.4046
vt 0.7603 0.4095
vt 0.7622 0.4025
vt 0.7955 0.4102
vt 0.7863 0.4029
vt 0.8052 0.4591
vt 0.7955 0.4309
vt 0.8101 0.4593
vt 0.8359 0.4866
vt 0.8290 0.4784
vt 0.8475 0.4763
vt 0.8480 0.4579
vt 0.8484 0.4597
vt 0.8387 0.4576
vt 0.8476 0.4550
vt 0.7650 0.4778
vt 0.7716 0.4885
vt 0.7664 0.4863
vt 0.8354 0.3929
vt 0.8407 0.3932
vt 0.8476 0.4032
vt 0.7934 0.3985
vt 0.7884 0.3985
vt 0.7900 0.3948
vt 0.7845 0.3930
vt 0.7603 0.4644
vt 0.7680 0.4577
vt 0.7716 0.4619
vt 0.8063 0.4066
vt 0.8082 0.3979
vt 0.8216 0.3929
vt 0.8628 0.4047
vt 0.7669 0.3929
vt 0.8608 0.3957
vt 0.8265 0.4168
vt 0.8290 0.3948
vt 0.8484 0.4899
vt 0.8398 0.4954
vt 0.8290 0.4386
vt 0.7707 0.4681
vt 0.8293 0.4728
vt 0.8386 0.4566
vt 0.8343 0.4576
vt 0.8341 0.4539
vt 0.8303 0.4459
vt 0.7955 0.4509
vt 0.8514 0.3929
vt 0.7629 0.4545
vt 0.8345 0.4603
vn -0.0011 -0.1070 0.9943
vn 0.4375 -0.6262 0.6453
vn 0.4612 -0.7744 -0.4331
vn -0.3063 -0.4555 -0.8359
vn 0.0294 0.9996 0.0000
vn 0.0084 0.9457 -0.3249
vn -0.0768 0.7447 0.6630
vn -0.0007 -1.0000 -0.0000
vn 0.9762 0.1271 -0.1756
vn 0.0624 -0.0018 -0.9981
vn -0.9996 0.0294 0.0000
vn -0.2962 -0.4135 -0.8610
vn -0.0982 0.7292 0.6772
vn -0.5936 0.8033 -0.0476
vn -0.8468 -0.3937 0.3576
vn -0.3609 -0.9300 -0.0692
vn -0.2104 -0.5312 0.8207
vn 0.6848 0.5141 0.5165
vn -0.2947 -0.4550 -0.8403
vn -0.2586 -0.4418 -0.8590
vn 0.6056 -0.3107 -0.7326
vn 0.0052 0.5193 0.8546
vn 0.7025 0.5637 0.4345
s off
f 8/1/1 9/2/1 5/3/1
f 15/4/2 14/5/2 9/2/2
f 29/6/3 26/7/3 27/8/3
f 1/9/4 4/10/4 2/11/4
f 7/12/5 13/13/5 11/14/5
f 17/15/6 2/16/6 18/17/6
f 5/18/7 7/12/7 16/19/7
f 8/1/2 15/4/2 9/2/2
f 15/20/8 8/21/8 28/22/8
f 14/23/9 15/24/9 13/25/9
f 12/26/9 11/27/9 10/28/9
f 1/9/10 2/11/10 12/29/10
f 21/30/11 19/31/11 3/32/11
f 3/33/12 19/34/12 18/35/12
f 23/36/13 20/37/13 25/38/13
f 20/37/14 24/39/14 25/38/14
f 22/40/15 23/41/15 25/42/15
f 6/43/16 22/44/16 21/45/16
f 8/1/17 5/3/17 6/46/17
f 19/47/14 16/19/14 17/15/14
f 5/3/17 22/48/17 6/46/17
f 4/49/16 21/45/16 3/50/16
f 14/23/18 7/51/18 9/52/18
f 8/21/8 4/49/8 1/53/8
f 21/30/11 24/54/11 19/31/11
f 18/17/14 19/47/14 17/15/14
f 18/35/19 2/11/19 4/10/19
f 4/10/20 3/33/20 18/35/20
f 23/36/13 5/18/13 20/37/13
f 16/19/7 20/37/7 5/18/7
f 20/37/14 19/47/14 24/39/14
f 25/42/15 24/54/15 22/40/15
f 21/30/15 22/40/15 24/54/15
f 11/14/6 2/16/6 17/15/6
f 7/12/5 17/15/5 16/19/5
f 13/25/9 10/28/9 11/27/9
f 28/55/9 13/25/9 15/24/9
f 10/56/21 29/57/21 27/58/21
f 10/56/10 27/58/10 12/29/10
f 12/29/10 26/59/10 1/9/10
f 8/21/8 26/7/8 28/22/8
f 29/6/3 28/22/3 26/7/3
f 5/18/22 9/60/22 7/12/22
f 19/47/14 20/37/14 16/19/14
f 5/3/17 23/61/17 22/48/17
f 4/49/16 6/43/16 21/45/16
f 14/23/23 13/25/23 7/51/23
f 8/21/8 6/43/8 4/49/8
f 11/14/6 12/62/6 2/16/6
f 7/12/5 11/14/5 17/15/5
f 13/25/9 29/63/9 10/28/9
f 28/55/9 29/63/9 13/25/9
f 12/29/10 27/58/10 26/59/10
f 8/21/8 1/53/8 26/7/8
