# Blender v2.77 (sub 0) OBJ File: 'LowPoly_Level_Kit_Rocks.blend'
# www.blender.org
g Rocks_Flat_m_02
v -0.309198 0.555284 0.463086
v -0.301531 0.719101 0.471371
v -0.309231 0.601382 -0.448304
v -0.301565 0.765199 -0.440019
v 0.449821 0.565953 -0.450125
v 0.457487 0.729770 -0.441839
v 0.457502 0.709729 -0.045619
v 0.449844 0.535341 0.155099
v 0.241765 0.693742 0.470069
v 0.321630 0.525840 0.461573
v -0.024304 0.328520 -0.592540
v -0.668423 0.000000 0.375365
v -0.790937 0.256288 -0.135865
v -0.594899 0.328520 0.043874
v 0.208339 0.328520 -0.648292
v 0.536142 0.000000 -0.726848
v 1.020822 0.000000 -0.088531
v 0.567503 0.328520 -0.175277
v -0.688005 0.000000 -0.433487
v -0.200363 0.300567 -0.550348
v -0.804197 0.243575 -0.191194
v -0.838495 0.000000 -0.334313
v -0.577915 0.000000 0.502481
v -0.251716 0.328520 0.525860
v -0.033021 0.328520 0.609724
v 0.308625 0.000000 0.842446
v -0.202700 0.329442 -0.823477
v 0.249494 0.329442 0.977541
v 0.249494 0.407195 0.977541
v 0.537981 0.329442 -0.137359
v 0.665488 0.329442 0.528465
v 0.605064 0.439985 0.593694
v -0.202700 0.449951 -0.823477
v -0.628574 0.329442 -0.363736
v -0.155165 0.329442 0.602692
v 0.092389 0.499748 0.832009
v -0.520197 0.538119 -0.480731
v 0.517282 0.522842 0.420695
v 0.353506 0.559503 -0.308244
v -0.004191 0.588544 -0.639591
v -0.434280 0.597717 -0.401938
v 0.079128 0.528308 0.758646
vt 0.8496 0.4720
vt 0.8463 0.4569
vt 0.8496 0.4569
vt 0.8413 0.4675
vt 0.8463 0.4586
vt 0.8446 0.4677
vt 0.8466 0.4047
vt 0.8493 0.4111
vt 0.8459 0.4150
vt 0.7764 0.4579
vt 0.7918 0.4579
vt 0.7764 0.4658
vt 0.7892 0.4578
vt 0.7764 0.4579
vt 0.7918 0.4517
vt 0.7918 0.4762
vt 0.8498 0.4222
vt 0.7764 0.4396
vt 0.7918 0.4395
vt 0.8430 0.4775
vt 0.5498 0.4678
vt 0.5548 0.4647
vt 0.5548 0.4680
vt 0.5408 0.4611
vt 0.5465 0.4696
vt 0.5419 0.4716
vt 0.5689 0.4065
vt 0.5835 0.4054
vt 0.5827 0.4107
vt 0.5362 0.4056
vt 0.5391 0.4044
vt 0.5551 0.4331
vt 0.5835 0.4226
vt 0.5656 0.4081
vt 0.5487 0.4547
vt 0.5253 0.4213
vt 0.5403 0.4395
vt 0.5551 0.4130
vt 0.5617 0.4221
vt 0.5557 0.4291
vt 0.5467 0.4688
vt 0.5830 0.4044
vt 0.5482 0.4511
vt 0.5482 0.4463
vt 0.5613 0.4101
vt 0.5407 0.4582
vt 0.5482 0.4480
vt 0.5479 0.4526
vt 0.5811 0.4267
vt 0.5482 0.4636
vt 0.5548 0.4395
vt 0.5539 0.4044
vt 0.5551 0.4078
vt 0.5788 0.4345
vt 0.6933 0.4543
vt 0.6978 0.4470
vt 0.6974 0.4569
vt 0.6949 0.4176
vt 0.6955 0.4281
vt 0.6923 0.4164
vt 0.6918 0.4065
vt 0.6970 0.4044
vt 0.6978 0.4345
vt 0.6953 0.4470
vt 0.6880 0.4292
vt 0.6912 0.4337
vt 0.6896 0.4336
vt 0.6874 0.4281
vt 0.6872 0.4046
vt 0.6916 0.4403
vt 0.6838 0.4345
vt 0.6925 0.4381
vt 0.6967 0.4152
vt 0.6811 0.4671
vt 0.6921 0.4657
vt 0.6925 0.4671
vt 0.6574 0.4657
vt 0.6574 0.4455
vt 0.6701 0.4657
vt 0.6656 0.4345
vt 0.6780 0.4345
vt 0.6780 0.4456
vt 0.6925 0.4436
vt 0.6931 0.4375
vt 0.6858 0.4068
vt 0.6817 0.4396
vt 0.6780 0.4486
vt 0.6909 0.4711
vt 0.6918 0.4228
vt 0.8463 0.4720
vt 0.8433 0.4569
vt 0.8498 0.4044
vt 0.7808 0.4761
vt 0.8462 0.4215
vt 0.8463 0.4778
vt 0.5418 0.4395
vt 0.6970 0.4277
vt 0.6812 0.4633
vt 0.6918 0.4044
vn -0.0000 0.0505 -0.9987
vn 0.0000 -0.0505 0.9987
vn 0.9989 -0.0466 -0.0024
vn 0.0467 0.9976 0.0505
vn -0.0467 -0.9976 -0.0505
vn 0.8473 0.3845 0.3664
vn -0.9989 0.0466 0.0024
vn -0.4784 0.4940 -0.7260
vn -0.9725 -0.0000 0.2330
vn -0.1952 0.9650 -0.1750
vn 0.0000 -1.0000 0.0000
vn 0.0000 1.0000 0.0000
vn 0.5805 0.6846 -0.4408
vn -0.2330 0.0000 -0.9725
vn -0.3440 0.2777 0.8970
vn -0.6462 0.6089 0.4601
vn 0.4946 0.7824 0.3784
vn -0.7336 -0.0000 -0.6796
vn 0.7336 0.0000 0.6796
vn 0.8243 0.5437 -0.1579
vn 0.6796 0.0000 -0.7336
vn -0.6796 0.0000 0.7336
vn -0.7312 0.5806 0.3582
vn -0.2172 0.8778 -0.4270
vn 0.2515 0.9164 0.3113
vn 0.0436 0.9982 0.0404
s off
f 3/1/1 6/2/1 5/3/1
f 1/4/2 9/5/2 2/6/2
f 5/7/3 7/8/3 8/9/3
f 6/10/4 4/11/4 7/12/4
f 10/13/5 1/14/5 8/15/5
f 2/16/4 7/12/4 4/11/4
f 9/17/6 8/9/6 7/8/6
f 8/15/5 3/18/5 5/19/5
f 2/6/7 3/20/7 1/4/7
f 21/21/8 19/22/8 22/23/8
f 12/24/9 21/25/9 22/26/9
f 20/27/10 13/28/10 14/29/10
f 23/30/11 12/31/11 16/32/11
f 24/33/12 11/34/12 14/29/12
f 21/21/8 20/35/8 19/22/8
f 26/36/11 16/32/11 17/37/11
f 16/38/13 18/39/13 17/40/13
f 12/24/9 13/41/9 21/25/9
f 14/29/10 11/34/10 20/27/10
f 20/27/10 21/42/10 13/28/10
f 20/35/14 11/43/14 15/44/14
f 18/39/12 15/45/12 11/34/12
f 23/46/15 25/47/15 24/48/15
f 24/33/12 25/49/12 18/39/12
f 24/48/16 14/50/16 13/41/16
f 16/51/14 20/35/14 15/44/14
f 24/48/16 12/24/16 23/46/16
f 12/31/11 22/52/11 19/53/11
f 19/53/11 16/32/11 12/31/11
f 18/39/17 26/54/17 17/40/17
f 37/55/18 27/56/18 34/57/18
f 32/58/19 28/59/19 31/60/19
f 32/58/20 30/61/20 39/62/20
f 30/63/21 27/56/21 33/64/21
f 36/65/22 28/66/22 29/67/22
f 42/68/23 37/69/23 36/65/23
f 41/70/24 33/71/24 37/72/24
f 39/62/20 38/73/20 32/58/20
f 32/58/20 31/60/20 30/61/20
f 32/74/25 42/75/25 36/76/25
f 27/77/11 30/78/11 34/79/11
f 31/80/11 28/81/11 35/82/11
f 33/64/21 40/83/21 39/84/21
f 39/84/21 30/63/21 33/64/21
f 30/78/11 35/82/11 34/79/11
f 42/68/23 41/85/23 37/69/23
f 40/86/26 41/70/26 39/87/26
f 29/88/25 32/74/25 36/76/25
f 42/75/26 39/87/26 41/70/26
f 37/69/23 35/89/23 36/65/23
f 3/1/1 4/90/1 6/2/1
f 1/4/2 10/91/2 9/5/2
f 5/7/3 6/92/3 7/8/3
f 2/16/4 9/93/4 7/12/4
f 9/17/6 10/94/6 8/9/6
f 8/15/5 1/14/5 3/18/5
f 2/6/7 4/95/7 3/20/7
f 24/33/12 18/39/12 11/34/12
f 26/36/11 23/30/11 16/32/11
f 16/38/13 15/45/13 18/39/13
f 23/46/15 26/96/15 25/47/15
f 16/51/14 19/22/14 20/35/14
f 24/48/16 13/41/16 12/24/16
f 18/39/17 25/49/17 26/54/17
f 37/55/18 33/64/18 27/56/18
f 32/58/19 29/97/19 28/59/19
f 36/65/22 35/89/22 28/66/22
f 41/70/24 40/86/24 33/71/24
f 32/74/25 38/98/25 42/75/25
f 30/78/11 31/80/11 35/82/11
f 42/75/26 38/98/26 39/87/26
f 37/69/23 34/99/23 35/89/23
