# Blender v2.77 (sub 0) OBJ File: ''
# www.blender.org
g Rock_Square_crk_m_05_Collider
v -0.263674 0.000000 -0.263674
v -0.261834 0.650778 0.263468
v -0.258078 0.638147 -0.251841
v 0.261628 0.608506 -0.266375
v 0.263674 0.615822 0.263674
v -0.166174 0.927439 0.263674
v -0.154212 0.657332 -0.263394
v -0.166174 0.681784 0.263674
v 0.263674 -0.000000 0.263674
v 0.263674 0.000000 -0.263674
v -0.263674 -0.000000 0.263674
v 0.350263 0.592399 0.263660
v 0.361174 0.612551 -0.263674
v 0.361105 0.927392 0.263494
v 0.361174 0.948420 -0.263674
v -0.166484 0.948414 -0.263775
vn -0.9999 0.0089 -0.0075
vn 0.0664 0.9977 -0.0140
vn -0.9997 0.0000 -0.0227
vn 1.0000 0.0034 0.0000
vn 0.0000 -1.0000 -0.0000
vn -0.0865 -0.9955 -0.0398
vn 0.0000 -0.0000 1.0000
vn -0.0004 0.0003 1.0000
vn 1.0000 -0.0000 0.0001
vn -0.1704 -0.9845 0.0418
vn -0.0269 0.0188 -0.9995
vn 0.0001 0.9992 0.0397
vn 0.0002 -0.0013 -1.0000
vn 0.0563 0.9981 -0.0241
vn -1.0000 0.0028 0.0000
vn 0.0000 -0.0044 -1.0000
vn -0.9991 -0.0421 -0.0011
vn 1.0000 0.0000 -0.0039
vn 0.0003 0.0005 1.0000
vn 0.9993 -0.0323 0.0194
vn -0.0000 0.9992 0.0399
vn -0.0005 0.0000 -1.0000
s off
f 1//1 2//1 3//1
f 4//2 2//2 5//2
f 6//3 7//3 8//3
f 4//4 9//4 10//4
f 1//5 9//5 11//5
f 12//6 7//6 13//6
f 12//7 6//7 8//7
f 11//8 5//8 2//8
f 14//9 13//9 15//9
f 7//10 12//10 8//10
f 1//11 3//11 4//11
f 14//12 16//12 6//12
f 15//13 7//13 16//13
f 2//14 4//14 3//14
f 1//15 11//15 2//15
f 4//16 10//16 1//16
f 6//17 16//17 7//17
f 4//18 5//18 9//18
f 1//5 10//5 9//5
f 12//19 14//19 6//19
f 11//7 9//7 5//7
f 14//20 12//20 13//20
f 14//21 15//21 16//21
f 15//22 13//22 7//22
