# Blender v2.77 (sub 0) OBJ File: ''
# www.blender.org
g Rocks_Square_m_03_Collider
v 0.197288 0.695659 -0.206504
v 0.197641 0.716243 0.170654
v 0.197614 0.000000 -0.206591
v -0.629923 0.977599 -0.224270
v -0.629895 0.823610 0.128041
v -0.505065 0.968330 0.127134
v -0.197607 0.476520 0.155267
v -0.629600 0.000225 0.206751
v -0.197616 -0.000014 0.207278
v -0.197680 0.952932 -0.224295
v 0.197616 0.918461 -0.224354
v 0.197602 0.000000 -0.224389
v 0.197607 0.000019 0.207609
v -0.197195 0.695297 0.170438
v -0.197614 0.000000 -0.206591
v -0.197614 -0.000000 0.170722
v 0.602011 0.856432 0.207607
v 0.602014 0.876713 -0.224389
v 0.602014 0.000000 -0.224389
v 0.197614 -0.000000 0.170722
v 0.602014 -0.000000 0.207611
v -0.197607 0.000000 -0.224390
v -0.629607 0.000000 -0.224389
v -0.197607 0.953040 0.127134
v -0.197122 0.688215 -0.206588
v 0.197602 0.898559 0.207611
vn 1.0000 0.0005 -0.0010
vn -0.7272 0.6290 0.2750
vn -0.0342 0.0358 0.9988
vn -0.0012 0.0952 0.9955
vn 0.0570 0.9984 0.0061
vn -1.0000 0.0000 0.0000
vn -1.0000 0.0006 0.0000
vn 0.1026 0.9936 0.0466
vn 0.0000 0.0000 -1.0000
vn 1.0000 -0.0000 -0.0000
vn 0.0000 0.0004 1.0000
vn -0.0000 -1.0000 -0.0000
vn -0.0001 0.0001 -1.0000
vn 1.0000 0.0001 -0.0001
vn -0.0000 0.0001 -1.0000
vn -1.0000 -0.0004 -0.0001
vn 0.0029 0.0589 0.9983
vn -0.0188 0.9983 -0.0545
vn -0.0006 -1.0000 0.0005
vn 0.0000 -0.0000 1.0000
vn 0.0497 0.9988 -0.0003
vn -1.0000 0.0007 -0.0002
vn -0.0001 0.0000 -1.0000
vn 0.0245 0.1085 0.9938
vn -0.0006 0.0001 1.0000
vn 1.0000 -0.0000 -0.0002
vn -1.0000 -0.0003 0.0000
vn -0.0530 0.9984 -0.0188
vn 0.1035 0.9936 0.0458
vn 0.0002 0.0001 -1.0000
s off
f 1//1 2//1 3//1
f 4//2 5//2 6//2
f 6//3 5//3 7//3
f 5//4 8//4 9//4
f 6//5 10//5 4//5
f 11//6 12//6 13//6
f 14//7 15//7 16//7
f 17//8 18//8 11//8
f 11//9 19//9 12//9
f 2//10 20//10 3//10
f 20//11 14//11 16//11
f 13//12 19//12 21//12
f 4//13 10//13 22//13
f 10//14 7//14 22//14
f 22//15 23//15 4//15
f 19//10 17//10 21//10
f 4//16 8//16 5//16
f 24//17 6//17 7//17
f 25//18 2//18 1//18
f 8//19 23//19 9//19
f 11//6 13//6 26//6
f 13//20 17//20 26//20
f 25//9 3//9 15//9
f 3//12 16//12 15//12
f 6//21 24//21 10//21
f 14//22 25//22 15//22
f 11//23 18//23 19//23
f 7//24 5//24 9//24
f 20//25 2//25 14//25
f 13//12 12//12 19//12
f 10//26 24//26 7//26
f 19//10 18//10 17//10
f 4//27 23//27 8//27
f 7//10 9//10 22//10
f 25//28 14//28 2//28
f 9//12 23//12 22//12
f 26//29 17//29 11//29
f 13//20 21//20 17//20
f 25//30 1//30 3//30
f 3//12 20//12 16//12
