# Blender v2.77 (sub 0) OBJ File: ''
# www.blender.org
g Rock_Square_crk_m_03_Collider
v -0.010666 0.194763 -0.981494
v -0.447024 0.219347 -0.978709
v -0.409577 0.540538 -0.675021
v 0.014714 0.440869 -0.622413
v -0.449930 0.382922 -0.574327
v -0.118388 -0.183182 -0.759211
v -0.507258 0.071796 -0.730590
v -0.495883 0.053928 -0.882583
v -0.033443 0.277828 -0.527670
v 0.237412 -0.002868 0.895983
v 0.186410 0.288680 0.703882
v 0.153472 -0.002868 0.579820
v 0.652971 -0.002868 0.777687
v 0.516181 -0.002868 0.262464
v 0.569839 0.472107 0.464663
v -0.198552 -0.007053 0.202836
v -0.221938 0.498567 0.206844
v -0.221160 -0.007632 -0.226689
v 0.210840 0.286047 0.205311
v 0.210840 -0.007632 0.205311
v 0.209798 0.479378 -0.227881
v 0.210840 -0.007632 -0.226689
v -0.221160 0.628064 -0.086237
v -0.221160 0.532314 -0.226689
vn 0.0339 0.6845 -0.7282
vn 0.2547 0.7892 -0.5589
vn -0.9770 0.1952 -0.0860
vn -0.5444 -0.8368 0.0576
vn 0.9682 -0.2330 0.0912
vn -0.9685 0.2283 -0.0993
vn 0.0279 0.4960 0.8678
vn -0.2029 -0.4094 0.8895
vn -0.9665 0.0000 0.2566
vn 0.0000 -1.0000 -0.0000
vn -0.6125 0.3672 -0.7000
vn 0.2262 0.5633 0.7947
vn 0.9665 0.0001 -0.2566
vn -0.9975 -0.0466 0.0526
vn -0.0060 -0.0000 1.0000
vn 0.0000 -0.0024 -1.0000
vn -1.0000 0.0024 -0.0016
vn -1.0000 -0.0000 -0.0018
vn 0.0000 -1.0000 0.0013
vn 1.0000 0.0000 0.0000
vn 0.0994 0.8222 -0.5605
vn 0.4093 0.8342 0.3697
vn 0.4104 0.8331 0.3708
vn -0.0313 -0.5001 -0.8654
vn -0.0334 -0.4948 -0.8684
vn 0.9705 -0.2239 0.0897
vn 0.0208 0.5345 0.8449
vn -0.6124 0.3671 -0.7001
vn 0.2264 0.5632 0.7947
vn -0.0004 -0.0079 1.0000
vn -0.0028 0.0000 -1.0000
vn -0.0014 -1.0000 -0.0000
vn 1.0000 0.0021 -0.0015
s off
f 1//1 2//1 3//1
f 1//2 3//2 4//2
f 2//3 5//3 3//3
f 6//4 7//4 8//4
f 9//5 1//5 4//5
f 2//6 8//6 7//6
f 4//7 5//7 9//7
f 7//8 6//8 9//8
f 10//9 11//9 12//9
f 13//10 12//10 14//10
f 12//11 15//11 14//11
f 15//12 10//12 13//12
f 14//13 15//13 13//13
f 16//14 17//14 18//14
f 19//15 16//15 20//15
f 18//16 21//16 22//16
f 17//17 23//17 24//17
f 17//18 24//18 18//18
f 22//19 16//19 18//19
f 22//20 19//20 20//20
f 24//21 23//21 21//21
f 23//22 17//22 21//22
f 17//23 19//23 21//23
f 2//6 7//6 5//6
f 1//24 6//24 8//24
f 8//25 2//25 1//25
f 9//26 6//26 1//26
f 4//27 3//27 5//27
f 7//8 9//8 5//8
f 13//10 10//10 12//10
f 12//28 11//28 15//28
f 15//29 11//29 10//29
f 19//30 17//30 16//30
f 18//31 24//31 21//31
f 22//32 20//32 16//32
f 22//33 21//33 19//33
