# Blender v2.77 (sub 0) OBJ File: ''
# www.blender.org
g Rock_Square_s_07_Collider
v -0.236133 0.171883 0.247516
v 0.248879 0.000178 0.218158
v 0.066715 0.243940 0.230800
v 0.110466 0.252351 -0.040201
v 0.241356 0.123954 -0.233836
v -0.176518 0.193911 -0.064228
v -0.245006 0.055831 -0.234065
v -0.241356 0.180707 0.041505
v -0.241356 -0.000000 0.250178
v -0.241356 0.000000 -0.234162
v 0.241356 0.000000 -0.234162
vn 0.0572 -0.0090 0.9983
vn 0.7953 0.5879 0.1478
vn -0.6451 0.6992 -0.3083
vn -1.0000 0.0000 0.0000
vn 0.0001 0.0026 -1.0000
vn -0.1107 0.7925 -0.5997
vn 0.7960 0.5872 0.1467
vn -0.2287 0.9723 0.0474
vn -0.1995 0.9799 0.0000
vn -0.9992 0.0308 0.0267
vn -0.9970 -0.0653 0.0428
vn -0.2000 0.9798 -0.0019
vn 0.0004 -1.0000 -0.0000
vn 0.0000 0.0017 -1.0000
vn 0.9999 0.0000 -0.0166
vn 0.0652 0.0135 0.9978
vn -0.1110 0.7921 -0.6003
vn 0.0000 -1.0000 0.0004
s off
f 1//1 2//1 3//1
f 4//2 2//2 5//2
f 6//3 7//3 8//3
f 9//4 8//4 10//4
f 11//5 7//5 5//5
f 6//6 5//6 7//6
f 4//7 3//7 2//7
f 1//8 3//8 8//8
f 6//9 8//9 4//9
f 9//10 1//10 8//10
f 7//11 10//11 8//11
f 3//12 4//12 8//12
f 10//13 2//13 9//13
f 11//14 10//14 7//14
f 11//15 5//15 2//15
f 2//16 1//16 9//16
f 6//17 4//17 5//17
f 10//18 11//18 2//18
