# Blender v2.77 (sub 0) OBJ File: ''
# www.blender.org
g Rock_Square_crk_s_03_Collider
v -0.236215 0.320864 -0.192319
v -0.236098 0.010670 0.192459
v -0.236198 0.327071 0.195611
v -0.236115 0.004463 -0.195471
v -0.025141 0.008217 0.018544
v -0.025240 0.325336 0.021704
v -0.092368 0.163133 -0.193912
v 0.202687 0.297500 0.214125
v 0.010715 0.302067 0.034450
v -0.199600 0.297250 0.209019
v 0.202272 -0.020302 0.205680
v -0.200011 -0.019125 0.200612
v 0.010302 -0.015027 0.026024
v 0.247039 -0.014874 -0.191295
v 0.035818 -0.013132 0.025561
v -0.031314 -0.016661 -0.188448
v 0.242924 0.298450 -0.179604
v 0.035719 0.303987 0.028721
v 0.227027 0.307882 0.209261
v -0.031413 0.300228 -0.185290
v 0.227126 -0.009945 0.206095
vn -1.0000 -0.0003 0.0000
vn 0.0016 -0.9999 0.0160
vn -0.0050 0.9999 -0.0160
vn 0.6360 -0.0075 0.7716
vn 0.9541 0.0033 -0.2995
vn -0.0010 0.9997 0.0264
vn -0.0026 -0.9996 -0.0266
vn -0.0127 -0.0265 0.9996
vn -0.6388 0.0213 -0.7691
vn 0.6835 0.0185 -0.7298
vn 0.0066 -0.9999 0.0144
vn 0.0024 0.9997 -0.0241
vn -0.9541 -0.0033 0.2994
vn -0.6862 -0.0075 0.7273
vn 0.9987 0.0113 0.0499
vn 0.9992 -0.0001 0.0408
vn 0.0208 0.0100 -0.9997
vn -0.0002 0.0100 -1.0000
vn 0.6036 -0.5411 -0.5855
vn 0.5913 0.5452 -0.5942
vn 0.0047 -0.9999 0.0126
vn 0.0069 0.9998 -0.0197
vn -0.0105 0.0371 -0.9993
s off
f 1//1 2//1 3//1
f 4//2 5//2 2//2
f 6//3 1//3 3//3
f 2//4 6//4 3//4
f 5//5 7//5 6//5
f 8//6 9//6 10//6
f 11//7 12//7 13//7
f 10//8 11//8 8//8
f 10//9 13//9 12//9
f 11//10 9//10 8//10
f 14//11 15//11 16//11
f 17//12 18//12 19//12
f 15//13 20//13 16//13
f 21//14 18//14 15//14
f 21//15 14//15 17//15
f 19//16 21//16 17//16
f 17//17 16//17 20//17
f 7//18 4//18 1//18
f 1//1 4//1 2//1
f 4//19 7//19 5//19
f 6//20 7//20 1//20
f 2//4 5//4 6//4
f 10//8 12//8 11//8
f 10//9 9//9 13//9
f 11//10 13//10 9//10
f 14//21 21//21 15//21
f 15//13 18//13 20//13
f 21//14 19//14 18//14
f 17//22 20//22 18//22
f 17//23 14//23 16//23
