# Blender v2.77 (sub 0) OBJ File: ''
# www.blender.org
g Rock_Square_l_02_Collider
v -0.610603 3.262257 0.592054
v -0.688791 0.000001 0.725276
v 0.586316 3.444132 0.630114
v 0.603430 3.435310 -0.629466
v 0.685227 -0.000001 0.725632
v -0.606086 3.434963 -0.624671
v -0.688821 -0.000001 -0.725305
v 0.685242 0.000000 -0.725650
vn -0.0381 0.0417 0.9984
vn 0.9995 0.0291 0.0134
vn -0.0003 0.0277 0.9996
vn -0.1531 0.9785 0.1383
vn -0.9997 0.0241 -0.0003
vn -0.0040 0.0294 -0.9996
vn 0.9997 0.0238 0.0000
vn -0.0003 1.0000 -0.0070
vn -0.9997 0.0240 0.0000
vn -0.0003 0.0280 -0.9996
s off
f 1//1 2//1 3//1
f 4//2 3//2 5//2
f 3//3 2//3 5//3
f 3//4 6//4 1//4
f 7//5 1//5 6//5
f 4//6 7//6 6//6
f 8//7 4//7 5//7
f 3//8 4//8 6//8
f 7//9 2//9 1//9
f 4//10 8//10 7//10
