# Blender v2.77 (sub 0) OBJ File: ''
# www.blender.org
g Rock_Square_crk_s_04_Collider
v -0.163044 -0.000001 0.091854
v 0.162331 -0.000000 0.244548
v -0.216277 -0.000000 0.192657
v -0.209753 0.275160 0.193753
v 0.162331 0.214395 0.244548
v -0.097115 0.266806 0.082410
v -0.192938 0.201829 0.022371
v 0.187323 0.214395 0.062203
v 0.187323 -0.000000 0.062203
v -0.191074 0.165751 -0.165791
v -0.163387 -0.000000 0.072224
v -0.136158 0.262606 0.056439
v 0.191074 0.214395 -0.006086
v -0.021502 0.254319 -0.176594
v 0.191074 0.000000 -0.190135
v 0.191074 0.000000 -0.006086
v -0.191074 0.000000 -0.165791
v 0.191074 0.214395 -0.190135
vn -0.0000 -1.0000 0.0000
vn -0.1353 -0.0000 0.9908
vn -0.3305 0.8556 -0.3985
vn 0.9907 0.0000 0.1358
vn 0.1503 0.9856 0.0781
vn -0.9939 0.0240 -0.1078
vn -0.0843 0.0000 -0.9964
vn -0.9749 0.1126 0.1918
vn 0.1532 0.9874 0.0402
vn 1.0000 -0.0000 0.0000
vn -0.0636 -0.0000 -0.9980
vn -0.4602 0.8499 -0.2567
vn 0.2157 -0.0000 0.9765
vn -0.1358 -0.0007 0.9907
vn 0.1829 0.9828 0.0251
vn -0.8489 -0.2801 -0.4483
vn -0.0740 -0.0170 -0.9971
vn 0.6060 -0.1772 -0.7755
vn -0.9933 -0.0000 0.1155
vn 0.1846 0.9828 0.0000
vn 0.1931 0.0389 0.9804
s off
f 1//1 2//1 3//1
f 4//2 2//2 5//2
f 4//3 6//3 7//3
f 2//4 8//4 5//4
f 5//5 6//5 4//5
f 7//6 3//6 4//6
f 1//7 8//7 9//7
f 10//8 11//8 12//8
f 13//9 14//9 12//9
f 15//10 13//10 16//10
f 14//11 15//11 17//11
f 12//12 14//12 10//12
f 10//11 14//11 17//11
f 15//1 11//1 17//1
f 13//13 11//13 16//13
f 1//1 9//1 2//1
f 4//14 3//14 2//14
f 2//4 9//4 8//4
f 5//15 8//15 6//15
f 7//16 1//16 3//16
f 1//17 6//17 8//17
f 7//18 6//18 1//18
f 10//19 17//19 11//19
f 13//20 18//20 14//20
f 15//10 18//10 13//10
f 14//11 18//11 15//11
f 15//1 16//1 11//1
f 13//21 12//21 11//21
