# Blender v2.77 (sub 0) OBJ File: ''
# www.blender.org
g Rock_Square_l_01_Collider
v -0.606350 3.434020 0.625053
v 0.685212 0.000001 0.725747
v 0.603406 3.436359 0.630509
v -0.606432 3.433999 -0.625050
v -0.688842 -0.000000 0.725325
v 0.685250 0.000001 -0.725746
v 0.603338 3.435847 -0.630519
v -0.688805 -0.000001 -0.725324
vn -0.0046 0.0276 0.9996
vn -0.9997 0.0240 0.0001
vn 0.9997 0.0238 -0.0001
vn -0.0015 1.0000 -0.0004
vn -0.0003 0.0292 -0.9996
vn -0.0019 1.0000 -0.0000
vn -0.0003 0.0292 0.9996
vn -0.9997 0.0240 -0.0000
vn 0.9997 0.0238 0.0000
vn -0.0046 0.0276 -0.9996
s off
f 1//1 2//1 3//1
f 4//2 5//2 1//2
f 3//3 6//3 7//3
f 3//4 7//4 4//4
f 4//5 6//5 8//5
f 1//6 3//6 4//6
f 1//7 5//7 2//7
f 4//8 8//8 5//8
f 3//9 2//9 6//9
f 4//10 7//10 6//10
