# Blender v2.77 (sub 0) OBJ File: ''
# www.blender.org
g Rock_Square_m_19_Collider
v -0.089774 0.878422 0.216000
v 0.216064 0.849468 -0.215958
v -0.215301 0.876727 -0.215948
v 0.215926 0.599012 0.215917
v 0.216000 0.000000 -0.216000
v -0.215956 0.000122 0.215971
v -0.216644 0.743145 0.215822
v 0.216000 -0.000000 0.216000
v 0.216000 0.853710 0.216000
v -0.216000 0.000000 -0.216000
vn 0.0631 0.9978 -0.0222
vn 1.0000 -0.0001 0.0003
vn -1.0000 -0.0009 -0.0034
vn -0.0003 -1.0000 -0.0000
vn -0.0000 -0.0003 1.0000
vn -0.0001 0.0001 1.0000
vn -0.0002 0.0002 1.0000
vn 0.0000 0.0000 -1.0000
vn 0.0806 0.9967 -0.0098
vn 1.0000 0.0001 0.0000
vn 1.0000 -0.0003 0.0002
vn -1.0000 0.0008 0.0001
vn 0.0000 -1.0000 0.0003
vn -0.0005 -0.0008 1.0000
vn -0.7141 0.6694 0.2049
vn -0.0000 0.0001 -1.0000
s off
f 1//1 2//1 3//1
f 4//2 5//2 2//2
f 3//3 6//3 7//3
f 6//4 5//4 8//4
f 1//5 4//5 9//5
f 6//6 8//6 4//6
f 6//7 4//7 7//7
f 10//8 2//8 5//8
f 1//9 9//9 2//9
f 4//10 8//10 5//10
f 9//11 4//11 2//11
f 3//12 10//12 6//12
f 6//13 10//13 5//13
f 1//14 7//14 4//14
f 7//15 1//15 3//15
f 10//16 3//16 2//16
