# Blender v2.77 (sub 0) OBJ File: ''
# www.blender.org
g Rock_Square_l_05_Collider
v 0.695369 -0.000000 0.880225
v 2.375931 2.929841 0.709100
v 1.345606 3.373807 0.604175
v 2.301120 2.802041 -0.718227
v -0.945929 0.138220 -0.808715
v 1.256717 3.258720 -0.700564
v 0.695546 0.000958 -0.879149
v -1.065578 -0.000000 0.599289
v -0.092961 -0.000000 0.872239
vn -0.0611 0.0931 0.9938
vn 0.4024 0.9097 -0.1025
vn -0.0377 0.0612 -0.9974
vn -0.8135 0.5814 -0.0121
vn -0.0101 0.0835 0.9965
vn 0.3968 0.9116 -0.1074
vn 0.0066 0.0536 -0.9985
vn -0.2654 0.1883 0.9456
vn 0.8674 -0.4976 -0.0002
vn -0.8170 0.5766 0.0048
vn 0.8676 -0.4973 -0.0010
s off
f 1//1 2//1 3//1
f 2//2 4//2 3//2
f 5//3 6//3 7//3
f 3//4 5//4 8//4
f 9//5 1//5 3//5
f 6//6 3//6 4//6
f 4//7 7//7 6//7
f 8//8 9//8 3//8
f 7//9 2//9 1//9
f 3//10 6//10 5//10
f 7//11 4//11 2//11
