# Blender v2.77 (sub 0) OBJ File: ''
# www.blender.org
g Rock_Square_m_17_Collider
v 0.215987 0.990054 0.215562
v -0.216000 0.997675 0.216000
v -0.215918 0.498052 0.215918
v -0.215864 1.019394 -0.215454
v 0.215569 0.948134 -0.215719
v -0.215863 0.510420 -0.215865
v -0.216000 0.000000 -0.216000
v 0.216000 0.000000 -0.216000
v 0.216000 -0.000000 0.216000
v -0.216000 -0.000000 0.216000
vn 0.0010 -0.0002 1.0000
vn -0.0005 0.0008 -1.0000
vn 0.0000 0.0003 -1.0000
vn 1.0000 0.0005 -0.0010
vn 0.0000 0.0002 1.0000
vn 0.0177 0.9986 0.0503
vn -1.0000 0.0003 -0.0001
vn -1.0000 -0.0002 -0.0003
vn 0.1622 0.9821 -0.0956
vn 0.0000 -1.0000 -0.0000
vn 0.0001 0.0003 -1.0000
vn 1.0000 0.0000 0.0000
vn 0.0003 0.0004 1.0000
vn -1.0000 0.0002 0.0000
vn -1.0000 -0.0000 -0.0001
s off
f 1//1 2//1 3//1
f 4//2 5//2 6//2
f 7//3 5//3 8//3
f 1//4 8//4 5//4
f 9//5 3//5 10//5
f 1//6 4//6 2//6
f 7//7 3//7 6//7
f 4//8 3//8 2//8
f 1//9 5//9 4//9
f 8//10 10//10 7//10
f 7//11 6//11 5//11
f 1//12 9//12 8//12
f 9//13 1//13 3//13
f 7//14 10//14 3//14
f 4//15 6//15 3//15
f 8//10 9//10 10//10
