# Blender v2.77 (sub 0) OBJ File: ''
# www.blender.org
g Rock_Square_m_20_Collider
v -0.133422 1.059122 0.216182
v -0.216508 0.539599 0.215898
v 0.215156 0.494614 0.215911
v -0.216000 0.000000 -0.216000
v -0.216806 0.550650 -0.215866
v 0.216000 0.000000 -0.216000
v 0.214822 0.504921 -0.215889
v -0.216000 -0.000000 0.216000
v -0.182798 1.001845 -0.216000
v 0.253676 1.061009 -0.217172
v 0.255928 1.022142 0.216000
v 0.216000 -0.000000 0.216000
vn -0.0001 -0.0005 1.0000
vn -1.0000 -0.0015 0.0007
vn 1.0000 0.0023 -0.0007
vn -0.0000 0.0002 1.0000
vn -0.0000 0.0002 -1.0000
vn -0.0027 -0.0001 -1.0000
vn 0.0004 -0.0002 1.0000
vn 0.9976 -0.0697 -0.0024
vn -0.9833 0.1572 0.0915
vn 0.0000 -1.0000 -0.0000
vn -1.0000 -0.0009 -0.0000
vn 1.0000 0.0017 0.0000
vn 0.0942 0.9916 0.0885
vn -0.9972 0.0752 0.0026
vn -0.1337 0.9843 -0.1152
vn -0.0003 -0.0023 -1.0000
vn 0.9970 -0.0771 -0.0121
s off
f 1//1 2//1 3//1
f 4//2 2//2 5//2
f 3//3 6//3 7//3
f 8//4 3//4 2//4
f 7//5 4//5 5//5
f 9//6 10//6 5//6
f 11//7 1//7 3//7
f 10//8 3//8 7//8
f 2//9 1//9 9//9
f 6//10 8//10 4//10
f 4//11 8//11 2//11
f 3//12 12//12 6//12
f 1//13 11//13 10//13
f 8//4 12//4 3//4
f 7//5 6//5 4//5
f 2//14 9//14 5//14
f 10//15 9//15 1//15
f 10//16 7//16 5//16
f 10//17 11//17 3//17
f 6//10 12//10 8//10
