# Blender v2.77 (sub 0) OBJ File: ''
# www.blender.org
g Rock_Square_m_16_Collider
v 0.216000 -0.000000 0.216000
v -0.216000 0.000000 -0.216000
v 0.216000 0.000000 -0.216000
v -0.215970 0.969736 -0.215868
v 0.215910 0.948430 0.215986
v 0.215970 0.965065 -0.215918
v -0.215911 0.943640 0.215979
v -0.216000 -0.000000 0.216000
vn 0.0000 -1.0000 -0.0000
vn 0.0108 0.9992 0.0385
vn -1.0000 0.0001 0.0000
vn 0.0000 0.0001 -1.0000
vn 1.0000 0.0001 0.0000
vn 0.0000 0.0000 1.0000
vn -0.0111 0.9981 0.0603
vn -1.0000 0.0000 0.0001
vn -0.0001 0.0001 -1.0000
vn 1.0000 0.0000 0.0001
s off
f 1//1 2//1 3//1
f 4//2 5//2 6//2
f 7//3 2//3 8//3
f 4//4 3//4 2//4
f 3//5 5//5 1//5
f 5//6 8//6 1//6
f 1//1 8//1 2//1
f 4//7 7//7 5//7
f 7//8 4//8 2//8
f 4//9 6//9 3//9
f 3//10 6//10 5//10
f 5//6 7//6 8//6
