# Blender v2.77 (sub 0) OBJ File: ''
# www.blender.org
g Rock_Square_l_14_Collider
v 0.227412 -0.001036 -0.725686
v 0.780686 1.619483 -0.702653
v 0.781304 0.008001 -0.602366
v 0.776665 2.970718 -0.664435
v -0.515520 2.477644 -0.676333
v -0.463446 3.055178 -0.657588
v -0.592825 -0.000000 0.522526
v -0.592825 0.000000 -0.726150
v -0.164232 3.102881 0.658544
v -0.514022 2.490943 0.675249
v 0.777515 3.035854 0.668009
v -0.450332 -0.000000 0.726183
v -0.486857 3.115161 0.427159
v 0.782746 -0.000000 0.726455
vn 0.2179 -0.0605 -0.9741
vn -0.0033 0.0327 -0.9995
vn -0.0089 0.0172 -0.9998
vn -0.9995 0.0312 0.0000
vn -0.0078 0.0317 0.9995
vn -0.8193 -0.0092 0.5733
vn -0.9955 0.0906 -0.0265
vn -0.9990 0.0437 0.0007
vn 1.0000 0.0003 -0.0011
vn 0.0714 0.9963 -0.0487
vn 0.0676 0.9963 -0.0536
vn -0.5417 0.3307 0.7728
vn 0.0006 0.0201 -0.9998
vn -0.0016 0.0283 -0.9996
vn 1.0000 0.0030 -0.0008
vn -0.0002 0.0192 0.9998
vn 0.0724 0.9962 -0.0480
vn -0.9995 0.0316 0.0008
vn 1.0000 0.0017 0.0005
vn -0.0030 0.0204 0.9998
s off
f 1//1 2//1 3//1
f 4//2 5//2 6//2
f 2//3 1//3 5//3
f 7//4 5//4 8//4
f 9//5 10//5 11//5
f 12//6 10//6 7//6
f 13//7 6//7 5//7
f 5//8 10//8 13//8
f 2//9 14//9 3//9
f 11//10 4//10 9//10
f 4//11 6//11 13//11
f 13//12 10//12 9//12
f 8//13 5//13 1//13
f 4//14 2//14 5//14
f 2//15 4//15 11//15
f 11//16 12//16 14//16
f 13//17 9//17 4//17
f 7//18 10//18 5//18
f 2//19 11//19 14//19
f 11//20 10//20 12//20
