# Blender v2.77 (sub 0) OBJ File: ''
# www.blender.org
g Rock_Square_l_09_Collider
v 0.803062 -0.000000 0.663679
v 1.227949 2.214112 0.768812
v 0.438436 -0.000000 0.901030
v 1.307047 2.821897 -0.121365
v 1.024966 2.596060 -0.759595
v 0.432451 3.021388 -0.673096
v 0.535917 0.000000 -0.910053
v -0.014470 2.674239 0.656104
v 0.658594 2.777545 0.712095
v -0.071853 2.908367 0.418959
v 0.803062 0.000000 -0.189296
v -0.097686 2.844742 -0.635913
v -1.219793 0.000000 -0.747515
v -1.216889 -0.000130 0.745914
vn 0.5399 -0.1430 0.8295
vn 0.4679 0.7476 -0.4713
vn -0.0913 0.0748 -0.9930
vn -0.0941 0.0750 0.9927
vn -0.1640 0.6819 0.7129
vn 0.1235 0.9796 0.1584
vn 0.9227 -0.1563 -0.3525
vn -0.0945 0.0746 -0.9927
vn -0.0919 0.0752 -0.9929
vn -0.0930 0.0752 0.9928
vn -0.0299 0.0702 0.9971
vn -0.9305 0.3664 0.0007
vn 0.9821 -0.1885 0.0000
vn 0.5875 0.6431 0.4913
vn -0.3188 0.9465 -0.0493
vn 0.1181 0.9825 0.1442
vn 0.9841 -0.1750 -0.0320
vn 0.9264 -0.1546 -0.3434
vn -0.9303 0.3669 0.0018
vn -0.7609 0.3602 0.5397
s off
f 1//1 2//1 3//1
f 4//2 5//2 6//2
f 5//3 7//3 6//3
f 8//4 3//4 9//4
f 10//5 8//5 9//5
f 10//6 4//6 6//6
f 11//7 5//7 4//7
f 12//8 6//8 7//8
f 7//9 13//9 12//9
f 8//10 14//10 3//10
f 3//11 2//11 9//11
f 12//12 14//12 10//12
f 11//13 2//13 1//13
f 4//14 9//14 2//14
f 6//15 12//15 10//15
f 9//16 4//16 10//16
f 11//17 4//17 2//17
f 11//18 7//18 5//18
f 12//19 13//19 14//19
f 14//20 8//20 10//20
