# Blender v2.77 (sub 0) OBJ File: ''
# www.blender.org
g Rock_Square_l_06_Collider
v 0.764461 1.351169 -0.613922
v 0.617193 0.000000 -0.426106
v 0.109106 0.000000 -0.675656
v -0.063734 2.622435 -0.564162
v 1.047858 2.707503 -0.568744
v -0.054811 2.621194 0.560512
v -0.356983 1.584182 0.585643
v -0.259327 -0.000000 0.671508
v -0.356983 1.584182 -0.599848
v -0.608964 -0.000000 0.228621
v 0.970287 2.711219 0.560305
v -0.608964 0.000000 -0.667569
v 0.617193 -0.000000 0.681379
vn 0.4344 -0.1703 -0.8845
vn -0.0068 0.0347 -0.9994
vn -0.0845 0.0487 0.9952
vn -0.9600 0.2799 0.0079
vn -0.0028 0.0470 -0.9989
vn -0.0051 0.0358 -0.9993
vn -0.7848 -0.0148 0.6196
vn 0.9762 -0.2062 0.0677
vn -0.9624 0.2718 0.0000
vn -0.9876 0.1571 0.0000
vn 0.9916 -0.1291 0.0000
vn -0.0113 0.0445 -0.9989
vn -0.0112 0.0461 0.9989
vn -0.0763 0.9970 -0.0085
vn 0.9926 -0.1140 -0.0419
vn -0.0035 0.0426 0.9991
vn -0.0875 0.9962 0.0018
s off
f 1//1 2//1 3//1
f 1//2 4//2 5//2
f 6//3 7//3 8//3
f 7//4 6//4 4//4
f 1//5 3//5 9//5
f 1//6 9//6 4//6
f 7//7 10//7 8//7
f 11//8 1//8 5//8
f 9//9 7//9 4//9
f 10//10 9//10 12//10
f 2//11 11//11 13//11
f 12//12 9//12 3//12
f 11//13 8//13 13//13
f 4//14 11//14 5//14
f 10//10 7//10 9//10
f 2//15 1//15 11//15
f 11//16 6//16 8//16
f 4//17 6//17 11//17
