# Blender v2.77 (sub 0) OBJ File: ''
# www.blender.org
g Rock_Square_m_03_Collider
v 0.217469 1.037251 0.193667
v 0.217376 0.000000 -0.194003
v 0.217376 1.069887 -0.194003
v -0.215714 1.113416 -0.193196
v -0.217474 1.019352 0.193797
v -0.217376 -0.000000 0.194003
v -0.217376 0.000000 -0.194003
v 0.217376 -0.000000 0.194003
vn 1.0000 -0.0000 -0.0002
vn -0.0399 0.9710 0.2358
vn 0.0003 0.0002 1.0000
vn -0.0019 0.0000 -1.0000
vn -1.0000 0.0015 -0.0042
vn 0.0000 -1.0000 -0.0000
vn 1.0000 -0.0001 0.0000
vn 0.0000 0.0003 1.0000
vn 0.0998 0.9915 0.0834
vn 0.0000 0.0007 -1.0000
vn -1.0000 -0.0001 0.0000
s off
f 1//1 2//1 3//1
f 1//2 4//2 5//2
f 6//3 1//3 5//3
f 2//4 4//4 3//4
f 7//5 5//5 4//5
f 6//6 2//6 8//6
f 1//7 8//7 2//7
f 6//8 8//8 1//8
f 4//9 1//9 3//9
f 2//10 7//10 4//10
f 7//11 6//11 5//11
f 6//6 7//6 2//6
