# Blender v2.77 (sub 0) OBJ File: ''
# www.blender.org
g Rock_Square_m_15_Collider
v -0.202192 0.918461 -0.215965
v -0.202206 0.000000 -0.216000
v -0.202201 0.000019 0.215998
v 0.202206 0.000000 -0.216000
v 0.202206 -0.000000 0.216000
v 0.202203 0.856432 0.215996
v 0.202206 0.876713 -0.216000
v -0.202206 0.898559 0.216000
vn -1.0000 0.0000 0.0000
vn -0.0000 -1.0000 -0.0000
vn 0.1026 0.9936 0.0466
vn 0.0000 0.0000 -1.0000
vn 0.0000 -0.0000 1.0000
vn 1.0000 0.0000 0.0000
vn 0.1035 0.9936 0.0458
vn -0.0001 0.0000 -1.0000
s off
f 1//1 2//1 3//1
f 3//2 4//2 5//2
f 6//3 7//3 1//3
f 1//4 4//4 2//4
f 3//5 6//5 8//5
f 1//1 3//1 8//1
f 4//6 6//6 5//6
f 8//7 6//7 1//7
f 3//2 2//2 4//2
f 1//8 7//8 4//8
f 3//5 5//5 6//5
f 4//6 7//6 6//6
