# Blender v2.77 (sub 0) OBJ File: ''
# www.blender.org
g Rock_Square_m_07_Collider
v -0.217775 0.789398 0.004101
v -0.184299 0.000342 0.199065
v -0.183758 0.805233 0.196706
v -0.007650 0.777618 -0.172170
v -0.192747 0.738790 -0.211308
v 0.178196 0.664817 -0.211969
v -0.136374 0.000000 -0.211789
v 0.177984 0.453857 0.205151
v 0.005800 0.555412 0.216047
v 0.177537 -0.000000 0.231513
v 0.178325 0.000000 -0.211789
vn -0.9848 0.0012 0.1738
vn -0.1498 0.9585 -0.2426
vn 0.0902 0.4602 -0.8832
vn -0.9924 -0.0757 -0.0975
vn -0.0112 0.9967 -0.0800
vn 0.5380 0.7521 0.3806
vn -0.0976 0.0030 0.9952
vn 0.0969 0.0576 0.9936
vn -0.0893 0.0001 0.9960
vn 1.0000 -0.0009 0.0018
vn 0.0000 -0.0003 -1.0000
vn 0.4800 0.7684 0.4232
vn 0.0000 -1.0000 -0.0000
vn 1.0000 0.0002 0.0006
vn -0.9908 -0.0706 -0.1155
vn -0.0017 0.0005 -1.0000
vn 0.7452 0.5896 0.3116
vn -0.0010 -1.0000 0.0007
s off
f 1//1 2//1 3//1
f 4//2 5//2 1//2
f 4//3 6//3 5//3
f 5//4 7//4 1//4
f 3//5 4//5 1//5
f 6//6 4//6 8//6
f 9//7 3//7 2//7
f 8//8 9//8 10//8
f 2//9 10//9 9//9
f 11//10 8//10 10//10
f 7//11 6//11 11//11
f 4//12 9//12 8//12
f 10//13 7//13 11//13
f 11//14 6//14 8//14
f 2//15 1//15 7//15
f 7//16 5//16 6//16
f 4//17 3//17 9//17
f 10//18 2//18 7//18
