# Blender v2.77 (sub 0) OBJ File: ''
# www.blender.org
g Rock_Square_crk_m_06_Collider
v 0.617955 0.383351 0.282591
v 0.591569 -0.023872 0.282078
v 0.632124 -0.023896 -0.141505
v -0.558336 0.000000 -0.244798
v -0.109092 0.609303 -0.228045
v -0.094593 0.000000 -0.244901
v 0.657137 0.383040 -0.136831
v 0.326750 0.409879 0.263567
v -0.093748 0.001104 0.245381
v -0.110834 0.683229 0.096962
v -0.190497 0.740914 0.224169
v 0.270790 0.418628 -0.185490
v -0.558330 -0.000000 0.244779
v -0.537600 0.861554 0.219517
v 0.145528 -0.005021 0.251985
v 0.085955 -0.000655 -0.208927
v -0.538416 0.766664 -0.222221
vn 0.9934 -0.0645 0.0951
vn -0.0002 0.0276 -0.9996
vn 0.0902 0.9959 0.0077
vn 0.9937 -0.0621 0.0929
vn 0.8656 0.1271 0.4844
vn 0.1253 0.0037 -0.9921
vn -0.0032 0.0294 0.9996
vn -0.9109 0.3945 0.1212
vn -0.0672 0.0015 0.9977
vn 0.9997 0.0250 -0.0003
vn 0.1226 0.0014 -0.9925
vn -0.9997 0.0261 -0.0038
vn -0.0014 0.0285 0.9996
vn -0.0420 -0.9991 -0.0040
vn 0.3241 0.9248 -0.1993
vn -0.9107 0.3947 0.1215
vn -0.0649 0.0029 0.9979
vn -0.0027 0.0295 -0.9996
vn 0.0907 0.9958 0.0081
vn 0.9997 0.0238 -0.0018
vn -0.9997 0.0241 0.0000
vn 0.3342 0.9194 -0.2073
vn 0.3343 0.9193 -0.2075
s off
f 1//1 2//1 3//1
f 4//2 5//2 6//2
f 7//3 8//3 1//3
f 3//4 7//4 1//4
f 9//5 10//5 11//5
f 3//6 12//6 7//6
f 13//7 11//7 14//7
f 15//8 8//8 12//8
f 8//9 15//9 2//9
f 9//10 5//10 10//10
f 3//11 16//11 12//11
f 17//12 4//12 14//12
f 9//13 11//13 13//13
f 15//14 3//14 2//14
f 11//15 17//15 14//15
f 12//16 16//16 15//16
f 2//17 1//17 8//17
f 4//18 17//18 5//18
f 7//19 12//19 8//19
f 9//20 6//20 5//20
f 14//21 4//21 13//21
f 10//22 5//22 17//22
f 15//14 16//14 3//14
f 11//23 10//23 17//23
