# Blender v2.77 (sub 0) OBJ File: ''
# www.blender.org
g Rock_Square_s_04_Collider
v 0.191074 0.138412 0.165791
v 0.191074 0.000000 -0.177963
v 0.191074 0.198668 -0.177963
v -0.191074 0.179033 -0.177963
v 0.021502 0.212372 0.176594
v 0.124371 0.228506 -0.177963
v -0.191074 -0.000000 0.190135
v -0.191074 0.000000 -0.177963
v 0.191074 -0.000000 0.165791
v -0.191074 0.179033 0.190135
vn 1.0000 0.0000 0.0000
vn -0.1549 0.9879 0.0000
vn -1.0000 0.0000 0.0000
vn 0.0636 -0.0000 0.9980
vn 0.0000 -1.0000 -0.0000
vn 0.0000 0.0000 -1.0000
vn 0.4032 0.9014 0.1580
s off
f 1//1 2//1 3//1
f 4//2 5//2 6//2
f 7//3 4//3 8//3
f 5//4 7//4 9//4
f 9//5 8//5 2//5
f 6//6 3//6 2//6
f 6//7 1//7 3//7
f 1//4 5//4 9//4
f 6//6 8//6 4//6
f 1//1 9//1 2//1
f 4//2 10//2 5//2
f 7//3 10//3 4//3
f 5//4 10//4 7//4
f 9//5 7//5 8//5
f 6//7 5//7 1//7
f 6//6 2//6 8//6
