# Blender v2.77 (sub 0) OBJ File: ''
# www.blender.org
g Rock_Square_l_11_Collider
v -0.482730 1.317362 -0.579020
v -0.534473 -0.002611 -0.650898
v -0.482744 1.317594 0.578698
v 0.638131 1.369823 0.561150
v 0.703929 0.000111 0.649579
v 0.654329 1.270086 0.452320
v 0.201142 3.358558 0.412906
v 0.652414 1.318353 -0.566505
v 0.201400 3.356149 -0.415347
v -0.597087 3.131085 0.414069
v 0.703767 0.000000 -0.653156
v -0.595786 3.110209 -0.414768
v -0.486990 0.009715 0.650998
vn -0.9992 0.0392 -0.0000
vn 0.9937 0.0541 0.0983
vn 0.9764 0.2161 -0.0003
vn -0.2741 0.9617 -0.0029
vn -0.0020 0.0655 -0.9979
vn -0.2947 0.9553 -0.0245
vn 0.9880 0.1545 0.0055
vn 0.9992 0.0389 -0.0000
vn -0.0239 0.0889 0.9958
vn 0.0126 0.0650 0.9978
vn -0.9980 -0.0629 0.0000
vn -0.9993 0.0053 0.0364
vn -0.0220 0.0691 -0.9974
vn 0.9767 0.2148 0.0026
vn 0.0110 0.0539 -0.9985
vn 0.9992 0.0390 -0.0001
vn 0.0120 0.0770 0.9970
vn 0.0016 0.0552 0.9985
vn 0.0109 0.0919 -0.9957
s off
f 1//1 2//1 3//1
f 4//2 5//2 6//2
f 7//3 8//3 9//3
f 10//4 7//4 9//4
f 2//5 8//5 11//5
f 12//6 10//6 9//6
f 8//7 4//7 6//7
f 6//8 11//8 8//8
f 3//9 7//9 10//9
f 3//10 5//10 4//10
f 1//11 10//11 12//11
f 13//12 3//12 2//12
f 8//13 12//13 9//13
f 7//14 4//14 8//14
f 2//15 1//15 8//15
f 6//16 5//16 11//16
f 3//17 4//17 7//17
f 3//18 13//18 5//18
f 1//11 3//11 10//11
f 8//19 1//19 12//19
