# Blender v2.77 (sub 0) OBJ File: ''
# www.blender.org
g Rock_Square_m_01_Collider
v 0.216000 0.000000 -0.216000
v 0.216000 0.953040 0.216000
v 0.216000 -0.000000 0.216000
v -0.216000 0.000000 -0.216000
v -0.216000 0.953040 0.216000
v -0.216000 -0.000000 0.216000
v -0.216000 0.974524 -0.216000
v 0.216000 0.974524 -0.216000
vn 1.0000 -0.0000 0.0000
vn 0.0000 -1.0000 -0.0000
vn -1.0000 -0.0000 0.0000
vn 0.0000 -0.0000 1.0000
vn 0.0000 0.0000 -1.0000
vn 0.0000 0.9988 0.0497
s off
f 1//1 2//1 3//1
f 3//2 4//2 1//2
f 5//3 4//3 6//3
f 2//4 6//4 3//4
f 7//5 1//5 4//5
f 7//6 2//6 8//6
f 1//1 8//1 2//1
f 3//2 6//2 4//2
f 5//3 7//3 4//3
f 2//4 5//4 6//4
f 7//5 8//5 1//5
f 7//6 5//6 2//6
