# Blender v2.77 (sub 0) OBJ File: ''
# www.blender.org
g Rock_Square_s_03_Collider
v -0.201130 0.188456 -0.187330
v 0.201130 0.000000 -0.187330
v -0.201130 0.000000 -0.187330
v 0.201130 0.251544 0.174517
v 0.201130 0.251544 -0.187330
v -0.201130 -0.000000 0.200143
v -0.201130 0.188456 0.200143
v 0.201130 -0.000000 0.174517
vn 0.0000 0.0000 -1.0000
vn 1.0000 0.0000 0.0000
vn -0.1549 0.9879 0.0000
vn -1.0000 -0.0000 0.0000
vn 0.0636 -0.0000 0.9980
vn 0.0000 -1.0000 -0.0000
s off
f 1//1 2//1 3//1
f 4//2 2//2 5//2
f 1//3 4//3 5//3
f 6//4 1//4 3//4
f 7//5 8//5 4//5
f 8//6 3//6 2//6
f 1//1 5//1 2//1
f 4//2 8//2 2//2
f 1//3 7//3 4//3
f 6//4 7//4 1//4
f 7//5 6//5 8//5
f 8//6 6//6 3//6
