# Blender v2.77 (sub 0) OBJ File: ''
# www.blender.org
g Rock_Square_m_05_Collider
v -0.206953 -0.000000 0.240000
v 0.206953 -0.000000 0.240000
v -0.206781 0.743452 0.240153
v 0.104485 0.872956 -0.240123
v -0.206953 0.563971 -0.240000
v -0.206953 0.675687 -0.130224
v 0.206953 0.000000 -0.240000
v 0.206964 0.899827 0.239648
v 0.058315 0.911152 0.176850
v 0.206953 0.867723 -0.240000
v -0.206953 0.000000 -0.240000
vn 0.0000 -0.0002 1.0000
vn -0.5711 0.5754 -0.5855
vn 0.0000 -1.0000 -0.0000
vn -0.2488 0.6607 0.7082
vn 0.0510 0.9965 -0.0667
vn 1.0000 -0.0000 -0.0000
vn -0.5641 0.8142 -0.1370
vn -1.0000 -0.0000 0.0000
vn 0.0011 0.0004 1.0000
vn -0.0004 0.0000 -1.0000
vn 0.0012 0.0000 -1.0000
vn 0.0000 -0.0001 -1.0000
vn 0.1088 0.9909 -0.0787
vn -0.5539 0.8191 -0.1496
vn -1.0000 0.0002 0.0004
s off
f 1//1 2//1 3//1
f 4//2 5//2 6//2
f 1//3 7//3 2//3
f 8//4 9//4 3//4
f 4//5 8//5 10//5
f 8//6 2//6 7//6
f 9//7 4//7 6//7
f 6//8 11//8 1//8
f 8//9 3//9 2//9
f 1//3 11//3 7//3
f 5//10 4//10 11//10
f 4//11 10//11 7//11
f 7//12 11//12 4//12
f 4//13 9//13 8//13
f 7//6 10//6 8//6
f 3//14 9//14 6//14
f 1//15 3//15 6//15
f 6//8 5//8 11//8
