# Blender v2.77 (sub 0) OBJ File: ''
# www.blender.org
g Rock_Square_crk_s_05_Collider
v -0.170817 -0.008610 0.199345
v -0.431556 -0.008531 -0.188066
v -0.170033 -0.008618 -0.187330
v -0.071795 0.000457 -0.187330
v 0.201130 -0.000000 0.200589
v -0.109418 0.000774 0.200245
v -0.368953 0.189564 -0.186487
v -0.171433 0.082492 0.197462
v -0.170033 0.119984 -0.187330
v -0.426607 0.170472 0.198913
v -0.431168 -0.008619 0.200142
v 0.017034 0.255933 -0.187330
v 0.199992 0.250577 0.198743
v 0.201130 0.251544 -0.187330
v 0.201130 0.000000 -0.187330
v -0.020925 0.256838 0.200343
vn -0.0003 -1.0000 0.0000
vn -0.0025 -1.0000 0.0006
vn 0.3291 0.9397 0.0928
vn 0.0031 0.0068 1.0000
vn -0.0013 0.0084 -1.0000
vn -0.9997 0.0255 0.0010
vn -0.9456 0.2998 -0.1266
vn 1.0000 -0.0000 0.0020
vn 0.0238 0.9997 0.0026
vn 1.0000 0.0000 0.0029
vn -0.0000 0.0000 -1.0000
vn 0.0072 -0.0029 1.0000
vn -0.9412 0.3253 -0.0916
vn 0.0000 -1.0000 -0.0002
vn 0.0028 0.0000 -1.0000
vn -0.0017 -1.0000 -0.0000
vn 0.3250 0.9409 0.0952
vn 0.0128 0.0207 0.9997
vn 1.0000 0.0069 0.0043
vn 0.0283 0.9996 0.0004
vn 1.0000 0.0045 0.0000
vn -0.0011 0.0074 1.0000
vn -0.9405 0.3270 -0.0928
s off
f 1//1 2//1 3//1
f 4//2 5//2 6//2
f 7//3 8//3 9//3
f 1//4 10//4 11//4
f 2//5 7//5 9//5
f 10//6 2//6 11//6
f 2//7 10//7 7//7
f 9//8 1//8 3//8
f 12//9 13//9 14//9
f 13//10 15//10 14//10
f 15//11 12//11 14//11
f 6//12 13//12 16//12
f 16//13 4//13 6//13
f 1//14 11//14 2//14
f 2//15 9//15 3//15
f 4//16 15//16 5//16
f 7//17 10//17 8//17
f 1//18 8//18 10//18
f 9//19 8//19 1//19
f 12//20 16//20 13//20
f 13//21 5//21 15//21
f 15//11 4//11 12//11
f 6//22 5//22 13//22
f 16//23 12//23 4//23
