# Blender v2.77 (sub 0) OBJ File: ''
# www.blender.org
g Rocks_Square_m_04_Collider
v 0.216906 1.100236 0.213956
v 0.216000 0.853487 -0.216000
v 0.139090 1.052486 -0.216000
v -0.216000 0.981438 -0.231055
v -0.215991 1.082740 0.200869
v -0.216170 0.000611 0.200635
v -0.647861 0.001173 0.200630
v -0.216000 0.000000 -0.231055
v 0.216503 0.413619 -0.185865
v 0.610723 0.356615 -0.176284
v 0.611229 0.000000 -0.185777
v 0.216001 -0.000000 0.191537
v 0.216001 0.000000 -0.185777
v -0.648000 0.000000 -0.231055
v -0.647976 1.163812 -0.230437
v -0.216000 0.833815 0.216000
v 0.216000 -0.000000 0.216000
v -0.215797 1.049880 -0.216018
v 0.611229 -0.000000 0.191537
v -0.216000 0.000000 -0.216000
v -0.198453 1.090970 0.135444
v -0.216000 -0.000000 0.216000
v -0.353178 1.137755 -0.225397
v -0.345556 1.133832 0.200922
v -0.648000 1.048580 0.200945
v 0.216000 0.000000 -0.216000
v 0.216001 0.343001 0.191537
v 0.611817 0.372650 0.190821
vn 0.9131 0.3529 -0.2044
vn 1.0000 -0.0002 0.0000
vn -0.0013 -1.0000 0.0014
vn 0.0281 0.0266 -0.9992
vn 0.0000 -1.0000 -0.0000
vn -0.0012 0.0005 -1.0000
vn 0.0036 0.0019 1.0000
vn 0.0001 0.0000 -1.0000
vn 1.0000 0.0014 0.0000
vn 0.0000 -0.0000 -1.0000
vn -0.9960 0.0804 0.0397
vn -1.0000 -0.0000 0.0000
vn 1.0000 0.0000 0.0004
vn 0.3668 0.9303 0.0020
vn -0.0073 0.9933 -0.1158
vn 0.0003 -0.0002 1.0000
vn -0.1834 0.3052 0.9344
vn 0.0000 -1.0000 0.0027
vn 0.7399 0.6549 -0.1536
vn -1.0000 -0.0001 -0.0001
vn 0.0220 0.0554 -0.9982
vn 1.0000 0.0000 0.0000
vn 0.0001 -0.0002 1.0000
vn -1.0000 0.0000 -0.0013
vn 0.0000 -0.0002 -1.0000
vn 0.0017 0.0019 1.0000
vn 0.0000 -0.0000 1.0000
vn -0.2627 0.9322 0.2490
vn 1.0000 -0.0016 -0.0029
vn 0.0879 0.9961 0.0076
vn -1.0000 0.0002 -0.0004
vn 0.1440 0.9886 -0.0436
vn -0.0014 0.9939 -0.1101
vn -1.0000 0.0000 0.0003
vn 1.0000 -0.0008 -0.0016
vn -0.0000 -0.0003 1.0000
vn -0.0731 0.9803 0.1833
vn -1.0000 0.0012 0.0000
s off
f 1//1 2//1 3//1
f 4//2 5//2 6//2
f 6//3 7//3 8//3
f 9//4 10//4 11//4
f 11//5 12//5 13//5
f 4//6 14//6 15//6
f 16//7 17//7 1//7
f 3//8 2//8 18//8
f 10//9 19//9 11//9
f 2//10 20//10 18//10
f 16//11 21//11 18//11
f 16//12 20//12 22//12
f 8//13 4//13 6//13
f 23//14 24//14 5//14
f 21//15 3//15 18//15
f 5//16 24//16 6//16
f 1//17 21//17 16//17
f 14//18 8//18 7//18
f 5//19 4//19 23//19
f 15//20 7//20 25//20
f 15//21 23//21 4//21
f 2//22 17//22 26//22
f 25//23 6//23 24//23
f 9//24 12//24 27//24
f 13//25 9//25 11//25
f 27//26 19//26 28//26
f 26//5 22//5 20//5
f 11//5 19//5 12//5
f 4//10 8//10 14//10
f 16//27 22//27 17//27
f 25//28 24//28 15//28
f 10//29 28//29 19//29
f 2//10 26//10 20//10
f 15//30 24//30 23//30
f 16//31 18//31 20//31
f 10//32 9//32 28//32
f 21//33 1//33 3//33
f 15//34 14//34 7//34
f 2//35 1//35 17//35
f 25//36 7//36 6//36
f 9//37 27//37 28//37
f 9//38 13//38 12//38
f 27//27 12//27 19//27
f 26//5 17//5 22//5
