# Blender v2.77 (sub 0) OBJ File: ''
# www.blender.org
g Rock_Square_s_08_Collider
v 0.119783 -0.000000 0.179699
v -0.201130 0.000000 -0.187330
v 0.201130 -0.000000 0.109234
v 0.201130 0.102876 -0.187330
v -0.159107 0.195047 -0.187330
v -0.201130 0.188456 0.200143
v -0.201130 -0.000000 0.200143
v 0.201130 0.000000 -0.187330
v -0.201130 0.188456 -0.187330
v 0.201130 0.168199 0.109234
v 0.057861 0.226301 0.187667
vn 0.0000 -1.0000 -0.0000
vn -0.0000 0.0000 -1.0000
vn 0.0636 -0.0000 0.9980
vn -0.1549 0.9879 0.0000
vn 1.0000 0.0000 0.0000
vn 0.2568 0.9395 -0.2269
vn 0.5112 0.1099 0.8524
vn -1.0000 0.0000 0.0000
vn 0.0512 -0.0211 0.9985
vn -0.1445 0.9895 0.0012
vn 0.2424 0.9475 -0.2087
vn 0.6547 -0.0000 0.7559
s off
f 1//1 2//1 3//1
f 4//2 2//2 5//2
f 1//3 6//3 7//3
f 8//1 3//1 2//1
f 1//1 7//1 2//1
f 6//4 5//4 9//4
f 3//5 4//5 10//5
f 10//6 5//6 11//6
f 2//2 9//2 5//2
f 1//7 10//7 11//7
f 2//8 6//8 9//8
f 4//2 8//2 2//2
f 1//9 11//9 6//9
f 6//10 11//10 5//10
f 3//5 8//5 4//5
f 10//11 4//11 5//11
f 1//12 3//12 10//12
f 2//8 7//8 6//8
