# Blender v2.77 (sub 0) OBJ File: ''
# www.blender.org
g Rock_Square_m_04_Collider
v 0.213654 0.000676 0.192928
v -0.217376 0.862428 0.194003
v -0.217376 -0.000000 0.194003
v 0.219500 0.982270 0.194298
v 0.217247 0.978424 -0.191703
v -0.217298 0.859487 -0.194142
v 0.217376 0.000000 -0.194003
v -0.217376 0.000000 -0.194003
vn 0.0025 -0.0000 1.0000
vn -0.2645 0.9643 -0.0081
vn 0.0050 0.0024 -1.0000
vn 0.0000 -1.0000 0.0017
vn 1.0000 -0.0059 -0.0058
vn -0.2639 0.9645 -0.0074
vn -1.0000 0.0001 0.0000
vn -0.0003 -0.0014 1.0000
vn 1.0000 0.0001 0.0096
vn 0.0000 -0.0002 -1.0000
vn 0.0016 -1.0000 -0.0000
vn -1.0000 0.0000 -0.0002
s off
f 1//1 2//1 3//1
f 4//2 5//2 2//2
f 6//3 5//3 7//3
f 1//4 8//4 7//4
f 4//5 1//5 5//5
f 6//6 2//6 5//6
f 3//7 6//7 8//7
f 1//8 4//8 2//8
f 5//9 1//9 7//9
f 7//10 8//10 6//10
f 1//11 3//11 8//11
f 3//12 2//12 6//12
