# Blender v2.77 (sub 0) OBJ File: ''
# www.blender.org
g Rock_Square_s_02_Collider
v 0.196102 0.000000 -0.228567
v 0.196102 0.209531 0.212934
v 0.196102 -0.000000 0.212934
v -0.196102 0.000000 -0.228567
v -0.196102 0.256994 0.244200
v -0.195146 0.386676 -0.227907
v 0.196102 0.338882 -0.228567
v -0.196102 -0.000000 0.244200
vn 1.0000 0.0000 0.0000
vn -1.0000 0.0025 -0.0013
vn -0.0017 0.0000 -1.0000
vn 0.0795 -0.0000 0.9968
vn 0.1169 0.9531 0.2792
vn -0.0000 -1.0000 -0.0000
vn -1.0000 -0.0000 0.0000
vn 0.0000 0.0017 -1.0000
vn 0.1365 0.9552 0.2627
s off
f 1//1 2//1 3//1
f 4//2 5//2 6//2
f 1//3 6//3 7//3
f 8//4 2//4 5//4
f 6//5 2//5 7//5
f 4//6 3//6 8//6
f 1//1 7//1 2//1
f 4//7 8//7 5//7
f 1//8 4//8 6//8
f 8//4 3//4 2//4
f 6//9 5//9 2//9
f 4//6 1//6 3//6
