# Blender v2.77 (sub 0) OBJ File: 'LowPoly_Level_Kit_Rocks.blend'
# www.blender.org
g Concrete_Block_03_Collider
v -0.322986 0.240000 -0.120000
v 0.322984 0.000000 -0.120000
v -0.322986 0.000000 -0.120000
v -0.322986 0.240000 0.120000
v 0.322984 -0.000000 0.120000
v 0.322984 0.240000 0.120000
v 0.322984 0.240000 -0.120000
v -0.322986 -0.000000 0.120000
vt 0.0406 0.6819
vt 0.0903 0.7073
vt 0.0654 0.6819
vt 0.0406 0.7073
vt 0.0903 0.6819
vt 0.0654 0.6819
vt 0.0654 0.7073
vt 0.0654 0.7073
vn 0.0000 0.0000 -1.0000
vn 0.0000 -0.0000 1.0000
vn 0.0000 1.0000 0.0000
vn 0.0000 -1.0000 -0.0000
vn 1.0000 0.0000 0.0000
vn -1.0000 -0.0000 0.0000
s 1
f 1/1/1 2/2/1 3/3/1
f 4/4/2 5/5/2 6/6/2
f 6/6/3 1/1/3 4/4/3
f 5/5/4 3/3/4 2/2/4
f 6/6/5 2/2/5 7/7/5
f 1/1/6 8/8/6 4/4/6
f 1/1/1 7/7/1 2/2/1
f 4/4/2 8/8/2 5/5/2
f 6/6/3 7/7/3 1/1/3
f 5/5/4 8/8/4 3/3/4
f 6/6/5 5/5/5 2/2/5
f 1/1/6 3/3/6 8/8/6
