# Blender v2.77 (sub 0) OBJ File: 'LowPoly_Level_Kit_Rocks.blend'
# www.blender.org
g Rock_Block_m_05_Collider
v 0.612477 0.268160 0.338983
v 0.612715 0.000040 0.339294
v 0.609750 0.000000 -0.338342
v -0.612516 0.428090 -0.319765
v 0.386633 0.579595 -0.341746
v -0.614256 0.000022 -0.339444
v -0.268742 0.623186 0.329335
v -0.324926 0.602406 -0.059719
v -0.615863 0.519095 0.187245
v -0.608411 0.000029 0.340202
v 0.615600 0.521197 -0.268629
v 0.612728 0.598383 -0.068997
vn 1.0000 0.0009 -0.0044
vn -0.0289 0.0460 -0.9985
vn 0.0103 0.9984 -0.0548
vn -0.3981 0.9024 -0.1646
vn 0.0000 -1.0000 0.0000
vn -1.0000 0.0044 -0.0074
vn -0.4300 0.2495 0.8677
vn 0.9997 -0.0139 0.0197
vn 1.0000 -0.0039 -0.0025
vn -0.0032 0.0192 0.9998
vn -0.1443 0.8883 -0.4359
vn 0.3299 0.1215 -0.9361
vn -0.0022 0.9978 -0.0669
vn 0.2928 0.7431 0.6017
vn -0.2833 0.9590 -0.0103
vn -0.0000 -1.0000 0.0001
vn -0.9999 -0.0118 0.0086
vn 0.0007 0.0012 1.0000
vn 0.0009 -0.0055 -1.0000
vn 0.3321 0.8814 -0.3360
s 1
f 1//1 2//1 3//1
f 4//2 5//2 6//2
f 7//3 5//3 8//3
f 9//4 8//4 4//4
f 6//5 2//5 10//5
f 6//6 9//6 4//6
f 10//7 7//7 9//7
f 3//8 11//8 12//8
f 12//9 1//9 3//9
f 1//10 7//10 10//10
f 4//11 8//11 5//11
f 11//12 3//12 5//12
f 7//13 12//13 5//13
f 12//14 7//14 1//14
f 9//15 7//15 8//15
f 6//5 3//16 2//5
f 6//17 10//17 9//17
f 2//18 1//18 10//18
f 3//19 6//19 5//19
f 11//20 5//20 12//20
