# Blender v2.77 (sub 0) OBJ File: 'LowPoly_Level_Kit_Rocks.blend'
# www.blender.org
g Rock_Block_m_09_Collider
v -0.649087 0.260661 0.076248
v -0.508118 0.002661 0.311619
v -0.293014 0.625598 0.314816
v 0.382435 0.008669 0.310545
v -0.456350 0.001168 -0.305112
v 0.461573 0.015259 -0.311070
v -0.068563 0.628919 -0.314026
v -0.466063 0.308417 -0.315000
v 0.459390 0.625463 0.309977
v 0.458232 0.620410 -0.307227
vn -0.6966 0.2371 0.6771
vn 0.0153 -0.9998 -0.0087
vn 0.0037 -0.0016 -1.0000
vn -0.9030 -0.0423 -0.4276
vn -0.6154 0.7638 -0.1946
vn -0.0060 -0.0324 -0.9995
vn 0.0067 -1.0000 0.0030
vn -0.8472 -0.5266 -0.0698
vn 1.0000 0.0055 -0.0019
vn 0.0002 1.0000 0.0054
vn 0.0012 -0.0056 1.0000
vn 0.0064 0.0001 1.0000
vn 0.0130 0.0064 -0.9999
vn 0.9847 -0.1227 0.1241
vn -0.6232 0.7509 -0.2185
vn 0.0163 0.9998 -0.0082
s off
f 1//1 2//1 3//1
f 4//2 5//2 6//2
f 7//3 6//3 8//3
f 5//4 1//4 8//4
f 7//5 8//5 1//5
f 6//6 5//6 8//6
f 5//7 4//7 2//7
f 1//8 5//8 2//8
f 9//9 6//9 10//9
f 9//10 7//10 3//10
f 2//11 4//11 3//11
f 4//12 9//12 3//12
f 7//13 10//13 6//13
f 9//14 4//14 6//14
f 3//15 7//15 1//15
f 9//16 10//16 7//16
