# Blender v2.77 (sub 0) OBJ File: 'LowPoly_Level_Kit_Rocks.blend'
# www.blender.org
g Rock_Block_crk_m_04_Collider
v -0.484343 -0.036771 -0.232002
v -0.582997 0.045367 0.423050
v -0.632585 0.065020 -0.315951
v -0.455142 0.379872 0.522322
v -0.444868 -0.030519 0.504401
v 0.049375 0.074018 0.491113
v -0.491754 0.654802 0.143316
v -0.277154 0.635654 -0.248043
v -0.307458 0.506075 -0.356764
v -0.618403 0.554681 0.300609
v 0.045108 0.597038 0.470421
v -0.242514 -0.025815 -0.247415
v -0.241258 0.060837 -0.355650
v 0.083178 -0.009983 0.381568
v 0.649974 0.116731 -0.318909
v 0.497393 0.004420 -0.409491
v 0.335115 0.604084 -0.429376
v 0.184201 0.627513 0.420653
v 0.579386 0.026789 0.420870
v 0.405988 0.590005 0.430412
v -0.089155 0.654259 -0.426632
v 0.625319 0.250230 0.323851
v 0.229153 0.001266 0.410551
v -0.065310 0.008369 -0.424986
vn -0.5723 -0.8198 0.0166
vn -0.5272 -0.0502 0.8483
vn 0.0359 -0.0427 0.9984
vn -0.7324 0.5300 -0.4275
vn -0.9964 -0.0535 0.0654
vn 0.1025 0.9947 0.0075
vn -0.8096 0.4686 -0.3536
vn -0.2722 0.7662 0.5821
vn -0.0716 -0.7782 -0.6239
vn 0.0456 -0.9989 0.0060
vn 0.7755 -0.4972 -0.3891
vn 0.9121 0.1298 -0.3889
vn 0.9594 0.0190 0.2815
vn 0.9022 0.1331 -0.4102
vn 0.4561 0.0941 -0.8849
vn -0.0494 -0.0321 0.9983
vn 0.1174 0.9931 -0.0065
vn 0.9827 -0.1703 0.0731
vn -0.0069 -1.0000 -0.0061
vn 0.8453 0.5286 -0.0774
vn 0.6484 0.1871 0.7379
vn -0.0068 -0.0028 -1.0000
vn -0.0281 -0.0181 0.9994
vn -0.9515 -0.0343 0.3059
vn -0.4965 -0.8674 0.0340
vn -0.1011 -0.0175 -0.9947
vn 0.1765 -0.7540 0.6327
vn -0.7614 0.1010 0.6403
vn 0.0859 0.0401 0.9955
vn -0.7463 0.5106 -0.4269
vn 0.0799 0.8105 0.5802
vn -0.0187 -0.6523 -0.7578
vn 0.0399 -0.9992 0.0045
vn 0.9086 0.1157 -0.4013
vn 0.1666 0.9860 0.0024
vn 0.0721 -0.9972 0.0197
vn 0.8301 0.5545 -0.0593
vn 0.6071 -0.7937 -0.0386
vn 0.0273 -0.0257 -0.9993
vn -0.9408 -0.0729 0.3310
s off
f 1//1 2//1 3//1
f 4//2 2//2 5//2
f 6//3 4//3 5//3
f 7//4 8//4 9//4
f 3//5 2//5 10//5
f 8//6 7//6 11//6
f 7//7 3//7 10//7
f 7//8 4//8 11//8
f 12//9 3//9 13//9
f 12//10 5//10 1//10
f 14//11 12//11 13//11
f 8//12 14//12 13//12
f 14//13 11//13 6//13
f 13//14 9//14 8//14
f 15//15 16//15 17//15
f 18//16 19//16 20//16
f 18//17 17//17 21//17
f 19//18 15//18 22//18
f 16//19 23//19 24//19
f 22//20 15//20 17//20
f 22//21 20//21 19//21
f 17//22 24//22 21//22
f 18//23 23//23 19//23
f 24//24 18//24 21//24
f 1//25 5//25 2//25
f 13//26 3//26 9//26
f 5//27 14//27 6//27
f 4//28 10//28 2//28
f 6//29 11//29 4//29
f 7//30 9//30 3//30
f 7//31 10//31 4//31
f 12//32 1//32 3//32
f 12//33 14//33 5//33
f 8//34 11//34 14//34
f 18//35 20//35 17//35
f 16//36 19//36 23//36
f 17//37 20//37 22//37
f 19//38 16//38 15//38
f 17//39 16//39 24//39
f 24//40 23//40 18//40
