# Blender v2.77 (sub 0) OBJ File: 'LowPoly_Level_Kit_Rocks.blend'
# www.blender.org
g Rock_Blocks_m_05_Collider
v 0.548776 0.993576 0.178095
v 0.263425 0.792746 0.232047
v 0.953485 0.903263 0.238133
v 0.883280 -0.033505 0.232308
v 0.354558 0.662685 -0.381795
v 0.904985 -0.074367 -0.388553
v 1.089799 0.724914 -0.390709
v 0.506447 0.877164 -0.388907
v 1.403805 0.296804 0.233089
v 1.396630 0.296616 -0.383910
v -0.405198 0.628361 -0.312853
v -0.405176 0.001523 0.314294
v -0.404440 0.629072 0.313618
v 0.137441 0.630126 -0.314317
v -0.404424 0.000736 -0.314144
v 0.252374 0.000222 0.314611
v 0.453540 -0.005440 -0.308951
v 0.592749 0.137344 0.209450
v 0.286607 0.625022 0.315002
v 0.455047 0.575575 -0.004837
v 0.187223 0.000952 -0.457720
v -0.405553 0.700000 -0.351420
v -0.405553 0.000000 -0.351420
v -0.983765 0.000680 -0.112310
v -1.234058 0.691689 -0.730070
v -1.247283 0.000976 -0.797696
v -0.023383 0.693237 -1.063043
v 0.157614 0.697238 -0.459451
v -0.959009 0.690789 -0.127092
v -0.033772 0.000000 -1.088951
v -0.678579 0.518761 -0.995979
vn -0.0629 0.3414 0.9378
vn -0.8011 -0.5984 0.0114
vn -0.0036 -0.0019 -1.0000
vn -0.7967 0.5564 -0.2362
vn -0.0291 -0.0126 -0.9995
vn -0.7999 -0.6001 0.0084
vn 0.6024 -0.7982 -0.0068
vn 0.2427 0.9465 -0.2125
vn 0.8029 0.5961 0.0050
vn -0.0079 -0.0056 1.0000
vn 0.0026 -0.0064 1.0000
vn -1.0000 0.0012 0.0012
vn -0.0027 0.0021 -1.0000
vn 0.4068 -0.9028 0.1394
vn -0.0020 -1.0000 0.0012
vn 0.2082 0.9772 -0.0414
vn 0.3014 -0.0171 0.9533
vn 0.6863 0.3359 -0.6451
vn 0.8220 0.4369 0.3653
vn 0.0058 1.0000 0.0067
vn -0.0020 0.0011 1.0000
vn 0.1765 -0.0000 0.9843
vn -0.9333 -0.0173 0.3588
vn 0.9570 0.0400 -0.2872
vn 0.3756 -0.0000 0.9268
vn -0.0008 1.0000 0.0018
vn -0.1120 0.0388 -0.9930
vn -0.0009 -1.0000 -0.0005
vn -0.5865 0.8009 -0.1207
vn 0.0139 -0.0059 -0.9999
vn 0.5342 -0.8421 0.0741
vn 0.2460 0.9452 -0.2147
vn 0.8130 0.5822 -0.0096
vn -1.0000 -0.0012 -0.0012
vn 0.0060 -0.0055 -1.0000
vn -0.0072 -1.0000 0.0067
vn 0.9433 0.1521 -0.2952
vn -0.0033 1.0000 -0.0011
vn -0.0005 -0.0006 1.0000
vn 0.0034 1.0000 -0.0077
vn -0.4051 0.0968 -0.9091
vn 0.1884 0.0105 0.9820
vn -0.2252 0.5319 -0.8163
vn -0.9090 0.0415 0.4147
vn 0.9438 -0.0018 -0.3304
vn 0.3821 0.0061 0.9241
vn -0.0262 0.9994 -0.0236
vn -0.2319 -0.1152 -0.9659
vn 0.0018 -1.0000 0.0009
vn -0.0012 -1.0000 0.0000
s off
f 1//1 2//1 3//1
f 4//2 5//2 6//2
f 7//3 6//3 8//3
f 2//4 8//4 5//4
f 6//5 5//5 8//5
f 5//6 4//6 2//6
f 9//7 6//7 10//7
f 3//8 8//8 1//8
f 9//9 7//9 3//9
f 2//10 4//10 3//10
f 4//11 9//11 3//11
f 11//12 12//12 13//12
f 14//13 15//13 11//13
f 16//14 17//14 18//14
f 15//15 16//15 12//15
f 14//16 19//16 20//16
f 18//17 19//17 16//17
f 20//18 17//18 14//18
f 20//19 19//19 18//19
f 14//20 13//20 19//20
f 12//21 19//21 13//21
f 21//22 22//22 23//22
f 24//23 25//23 26//23
f 21//24 27//24 28//24
f 29//25 23//25 22//25
f 29//26 27//26 25//26
f 30//27 31//27 27//27
f 30//28 23//28 26//28
f 2//29 1//29 8//29
f 7//30 10//30 6//30
f 9//31 4//31 6//31
f 3//32 7//32 8//32
f 9//33 10//33 7//33
f 11//34 15//34 12//34
f 14//35 17//35 15//35
f 15//36 17//36 16//36
f 18//37 17//37 20//37
f 14//38 11//38 13//38
f 12//39 16//39 19//39
f 22//40 28//40 27//40
f 26//41 25//41 31//41
f 21//42 28//42 22//42
f 25//43 27//43 31//43
f 24//44 29//44 25//44
f 21//45 30//45 27//45
f 29//46 24//46 23//46
f 29//47 22//47 27//47
f 30//48 26//48 31//48
f 30//49 21//49 23//49
f 26//50 23//50 24//50
