# Blender v2.77 (sub 0) OBJ File: 'LowPoly_Level_Kit_Rocks.blend'
# www.blender.org
g Rock_Block_crk_m_01_Collider
v 0.205531 -0.004343 -0.369374
v 0.666404 0.179845 -0.424446
v 0.768112 -0.042361 0.150776
v 0.518384 -0.008068 0.227115
v 0.524935 0.588837 -0.404425
v 0.288432 0.619767 0.205106
v 0.719430 0.578550 0.134997
v 0.090860 0.408772 -0.350615
v 0.110311 -0.000312 -0.078156
v -0.733658 0.001691 0.307227
v -0.642971 0.594743 0.299008
v -0.679131 0.534975 -0.234673
v -0.728019 0.000000 -0.334396
v 0.022659 0.000000 -0.334396
v -0.119446 0.000000 -0.062925
v -0.103367 0.407148 -0.334211
v 0.088123 0.587831 0.304592
v -0.125941 0.604906 -0.099115
v 0.232635 -0.000000 0.305604
vn 0.3013 -0.8704 -0.3895
vn -0.1189 -0.9913 0.0562
vn -0.1213 0.0066 -0.9926
vn 0.0929 0.9956 -0.0145
vn 0.1640 0.0379 0.9857
vn 0.3074 0.1456 0.9404
vn 0.8919 0.3240 -0.3154
vn -0.1270 0.0098 -0.9919
vn -0.0236 -0.9997 0.0061
vn -0.5905 -0.1888 0.7846
vn -0.9231 -0.2427 -0.2985
vn -0.3965 0.8962 -0.1993
vn -0.9872 0.1516 0.0499
vn 0.0000 -1.0000 -0.0000
vn 0.0000 0.0005 -1.0000
vn -0.9957 0.0927 -0.0090
vn 0.0092 0.9993 0.0374
vn 0.0597 0.7667 -0.6392
vn -0.0996 0.9896 -0.1041
vn 0.0017 0.0021 1.0000
vn -0.0017 -1.0000 0.0017
vn 0.8545 0.2643 0.4473
vn 0.7120 0.1739 -0.6803
vn 0.8830 -0.0186 -0.4690
vn 0.9865 0.0736 -0.1460
vn -0.9484 0.1433 0.2828
vn -0.0075 0.0150 0.9999
vn -0.1254 0.1929 -0.9732
vn -0.0012 -1.0000 0.0026
vn 0.9965 0.0156 0.0825
s off
f 1//1 2//1 3//1
f 1//2 3//2 4//2
f 5//3 2//3 1//3
f 6//4 7//4 5//4
f 6//5 3//5 7//5
f 4//6 3//6 6//6
f 5//7 7//7 2//7
f 5//8 1//8 8//8
f 4//9 9//9 1//9
f 9//10 4//10 6//10
f 8//11 1//11 9//11
f 5//12 8//12 6//12
f 10//13 11//13 12//13
f 13//14 14//14 15//14
f 13//15 16//15 14//15
f 10//16 12//16 13//16
f 17//17 18//17 11//17
f 16//18 12//18 18//18
f 18//19 12//19 11//19
f 17//20 10//20 19//20
f 10//21 15//21 19//21
f 14//22 16//22 15//22
f 17//23 19//23 15//23
f 15//24 18//24 17//24
f 2//25 7//25 3//25
f 6//26 8//26 9//26
f 11//27 10//27 17//27
f 13//28 12//28 16//28
f 10//29 13//29 15//29
f 15//30 16//30 18//30
