# Blender v2.77 (sub 0) OBJ File: 'LowPoly_Level_Kit_Rocks.blend'
# www.blender.org
g Rock_Block_m_15_Collider
v -0.534485 0.000000 -0.306121
v -0.535881 0.450405 -0.327693
v 0.534731 0.575691 -0.314988
v -0.536047 0.582608 -0.161220
v -0.510371 0.581836 0.271446
v -0.535881 -0.000000 0.249051
v 0.535454 0.581203 0.263649
v 0.534284 0.000261 0.284341
v 0.535881 0.000000 -0.325135
vn 0.0174 -0.0478 -0.9987
vn -1.0000 -0.0030 0.0014
vn -0.9974 0.0414 0.0593
vn 0.0067 1.0000 0.0014
vn 1.0000 -0.0021 -0.0012
vn 1.0000 0.0020 0.0026
vn -0.0840 0.7803 -0.6197
vn 0.0002 -1.0000 0.0000
vn -1.0000 -0.0021 -0.0025
vn -0.0329 -0.0370 0.9988
vn -0.0178 0.0176 -0.9997
vn 0.0075 0.0356 0.9993
vn 0.0005 1.0000 -0.0095
vn 0.0000 -1.0000 0.0004
s off
f 1//1 2//1 3//1
f 1//2 4//2 2//2
f 5//3 4//3 6//3
f 5//4 3//4 4//4
f 7//5 8//5 3//5
f 8//6 9//6 3//6
f 4//7 3//7 2//7
f 1//8 8//8 6//8
f 1//9 6//9 4//9
f 5//10 6//10 8//10
f 9//11 1//11 3//11
f 8//12 7//12 5//12
f 5//13 7//13 3//13
f 8//14 1//14 9//14
