# Blender v2.77 (sub 0) OBJ File: 'LowPoly_Level_Kit_Rocks.blend'
# www.blender.org
g Rock_Blocks_m_01_Collider
v 0.006498 0.000000 0.629590
v 0.006498 0.600000 0.629590
v 0.006498 0.000000 -0.003998
v 0.006498 0.600000 -0.003998
v 2.346820 0.000000 0.629590
v 2.346820 0.000000 -0.003998
v 0.548174 0.600000 -0.003998
v 1.679355 0.600000 -0.003998
v 1.679355 0.000000 -0.003998
v 0.548174 0.000000 -0.003998
v 1.679355 0.600000 0.629590
v 0.548174 0.600000 0.629590
v 0.548174 0.000000 0.629590
v 1.679355 0.000000 0.629590
v 0.548174 1.227820 -0.003998
v 1.679355 1.227820 -0.003998
v 1.679355 1.227820 0.629590
v 0.548174 1.227820 0.629590
v 2.346820 0.453507 0.629590
v 2.282642 0.600000 0.629590
v 2.249795 0.600000 0.106968
v 2.122531 0.600000 -0.003998
v 2.346820 0.057877 -0.003998
v 2.346820 0.366989 0.106933
vn -1.0000 0.0000 0.0000
vn -0.0000 0.0000 1.0000
vn 0.0000 -1.0000 0.0000
vn 0.0000 1.0000 0.0000
vn 0.9213 0.3836 -0.0635
vn 0.0000 0.0000 -1.0000
vn 1.0000 0.0000 0.0000
vn 0.6324 0.2616 -0.7291
vn 0.9144 0.4006 -0.0575
vn 0.6339 0.2640 -0.7270
s off
f 4//1 1//1 2//1
f 11//2 14//2 19//2
f 2//2 13//2 12//2
f 14//3 6//3 5//3
f 7//4 2//4 12//4
f 12//1 15//1 7//1
f 3//3 13//3 1//3
f 10//3 14//3 13//3
f 21//5 19//5 24//5
f 11//2 13//2 14//2
f 4//6 10//6 3//6
f 7//6 9//6 10//6
f 11//2 18//2 12//2
f 7//6 16//6 8//6
f 8//7 17//7 11//7
f 18//4 16//4 15//4
f 22//4 8//4 11//4
f 24//7 5//7 23//7
f 22//8 24//8 23//8
f 23//6 6//6 9//6
f 4//1 3//1 1//1
f 5//2 19//2 14//2
f 20//2 11//2 19//2
f 2//2 1//2 13//2
f 14//3 9//3 6//3
f 7//4 4//4 2//4
f 12//1 18//1 15//1
f 3//3 10//3 13//3
f 10//3 9//3 14//3
f 21//9 20//9 19//9
f 11//2 12//2 13//2
f 4//6 7//6 10//6
f 7//6 8//6 9//6
f 11//2 17//2 18//2
f 7//6 15//6 16//6
f 8//7 16//7 17//7
f 18//4 17//4 16//4
f 11//4 20//4 21//4
f 21//4 22//4 11//4
f 6//7 23//7 5//7
f 24//7 19//7 5//7
f 22//10 21//10 24//10
f 9//6 8//6 22//6
f 22//6 23//6 9//6
