# Blender v2.77 (sub 0) OBJ File: 'LowPoly_Level_Kit_Rocks.blend'
# www.blender.org
g Rock_Block_m_08_Collider
v 0.438598 0.000000 -0.257073
v -0.579591 0.075231 -0.337921
v 0.585200 0.086699 -0.343317
v 0.580740 0.096629 0.351813
v 0.582354 0.585202 -0.069097
v 0.581544 0.543697 0.160077
v -0.585066 0.373405 -0.257073
v -0.584548 0.530509 0.204557
v -0.075644 0.622408 -0.257599
v -0.581071 0.073398 0.330754
v -0.438598 0.225207 0.342922
v -0.438598 0.000000 -0.257073
v -0.438598 -0.000000 0.257073
v 0.438598 -0.000000 0.257073
v -0.242457 0.511382 -0.346223
vn 0.0037 -0.7084 -0.7058
vn 1.0000 -0.0003 0.0035
vn -0.4203 0.8592 -0.2919
vn 0.0046 0.9840 0.1782
vn -0.0168 -0.0642 0.9978
vn -0.4692 -0.8831 -0.0035
vn 0.0000 -1.0000 -0.0000
vn 0.0417 0.3937 0.9183
vn 0.5551 -0.8317 0.0154
vn -0.9998 -0.0206 0.0081
vn -0.0045 -0.0156 -0.9999
vn 0.2082 0.3997 -0.8927
vn -0.4211 0.8608 -0.2859
vn -0.3414 0.2477 0.9067
vn 0.0013 -0.7072 0.7070
vn 0.0000 -0.7321 -0.6812
vn 1.0000 0.0022 0.0064
vn -0.0038 0.9816 0.1910
vn -0.4580 -0.8890 -0.0000
vn -0.3341 0.2409 -0.9112
vn 0.5090 -0.8607 -0.0000
vn -1.0000 -0.0082 -0.0022
vn 0.0297 0.4244 0.9050
vn 0.2680 0.4655 -0.8435
vn 0.0000 -0.7001 0.7141
s off
f 1//1 2//1 3//1
f 4//2 5//2 6//2
f 7//3 8//3 9//3
f 9//4 6//4 5//4
f 10//5 4//5 11//5
f 12//6 10//6 2//6
f 13//7 1//7 14//7
f 11//8 4//8 6//8
f 14//9 3//9 4//9
f 2//10 8//10 7//10
f 3//11 2//11 15//11
f 9//12 3//12 15//12
f 9//13 15//13 7//13
f 11//14 8//14 10//14
f 13//15 4//15 10//15
f 1//16 12//16 2//16
f 4//17 3//17 5//17
f 9//18 8//18 6//18
f 12//19 13//19 10//19
f 13//7 12//7 1//7
f 7//20 15//20 2//20
f 14//21 1//21 3//21
f 2//22 10//22 8//22
f 6//23 8//23 11//23
f 9//24 5//24 3//24
f 13//25 14//25 4//25
