# Blender v2.77 (sub 0) OBJ File: 'LowPoly_Level_Kit_Rocks.blend'
# www.blender.org
g Rock_Blocks_m_03_Collider
v 0.006498 0.000000 0.629590
v 0.006498 0.600000 0.629590
v 0.006498 0.000000 -0.003998
v 0.006498 0.600000 -0.003998
v 0.548174 0.600000 -0.003998
v 2.243011 0.600000 -0.003998
v 2.243011 0.000000 -0.003998
v 0.548174 0.000000 -0.003998
v 2.243011 0.600000 0.629590
v 0.548174 0.600000 0.629590
v 0.548174 0.000000 0.629590
v 2.243011 0.000000 0.629590
v 0.548174 1.227820 -0.003998
v 2.243011 1.227820 -0.003998
v 2.243011 1.227820 0.629590
v 0.548174 1.227820 0.629590
v 2.785663 0.600000 -0.003998
v 2.785663 0.600000 0.629590
v 2.785663 1.227820 -0.003998
v 2.785663 1.227820 0.629590
vn -1.0000 0.0000 0.0000
vn 0.0000 0.0000 1.0000
vn 0.0000 1.0000 0.0000
vn 0.0000 -1.0000 0.0000
vn 0.0000 0.0000 -1.0000
vn 1.0000 0.0000 -0.0000
s off
f 4//1 1//1 2//1
f 2//2 11//2 10//2
f 5//3 2//3 10//3
f 10//1 13//1 5//1
f 3//4 11//4 1//4
f 11//4 7//4 12//4
f 10//2 12//2 9//2
f 4//5 8//5 3//5
f 5//5 7//5 8//5
f 9//2 16//2 10//2
f 5//5 14//5 6//5
f 13//3 15//3 14//3
f 14//5 17//5 6//5
f 7//6 9//6 12//6
f 6//4 18//4 9//4
f 9//2 20//2 15//2
f 14//3 20//3 19//3
f 18//6 19//6 20//6
f 4//1 3//1 1//1
f 2//2 1//2 11//2
f 5//3 4//3 2//3
f 10//1 16//1 13//1
f 3//4 8//4 11//4
f 11//4 8//4 7//4
f 10//2 11//2 12//2
f 4//5 5//5 8//5
f 5//5 6//5 7//5
f 9//2 15//2 16//2
f 5//5 13//5 14//5
f 13//3 16//3 15//3
f 14//5 19//5 17//5
f 7//6 6//6 9//6
f 6//4 17//4 18//4
f 9//2 18//2 20//2
f 14//3 15//3 20//3
f 18//6 17//6 19//6
