# Blender v2.77 (sub 0) OBJ File: 'LowPoly_Level_Kit_Rocks.blend'
# www.blender.org
g Rock_Block_m_12_Collider
v 0.564766 0.615602 -0.232608
v -0.649156 0.596754 0.341599
v 0.617381 0.594891 0.314334
v 0.654500 -0.000000 0.346500
v -0.649834 -0.000103 -0.341285
v -0.654500 -0.000000 0.346500
v -0.410182 0.608392 -0.343693
v 0.645124 0.481909 -0.347957
v -0.654500 0.561757 -0.237317
v 0.654500 0.000000 -0.346500
vn 0.0023 0.9993 0.0376
vn 0.0216 0.0553 0.9982
vn 0.0000 -1.0000 0.0001
vn -0.0090 0.9999 0.0139
vn 0.8322 0.5513 -0.0592
vn -0.9999 -0.0101 0.0098
vn -0.2111 0.9758 -0.0570
vn -0.0044 -0.0031 -1.0000
vn 0.9975 0.0639 0.0309
vn 0.0000 0.0082 1.0000
vn 0.0001 -1.0000 -0.0000
vn 0.0783 0.6778 -0.7311
vn -0.4197 0.1618 -0.8931
vn -0.9999 0.0089 -0.0068
vn -0.0040 -0.0024 -1.0000
vn 0.9998 0.0195 0.0000
s off
f 1//1 2//1 3//1
f 2//2 4//2 3//2
f 5//3 4//3 6//3
f 2//4 1//4 7//4
f 3//5 8//5 1//5
f 5//6 2//6 9//6
f 9//7 2//7 7//7
f 10//8 7//8 8//8
f 4//9 8//9 3//9
f 2//10 6//10 4//10
f 5//11 10//11 4//11
f 1//12 8//12 7//12
f 9//13 7//13 5//13
f 5//14 6//14 2//14
f 10//15 5//15 7//15
f 4//16 10//16 8//16
