# Blender v2.77 (sub 0) OBJ File: 'LowPoly_Level_Kit_Rocks.blend'
# www.blender.org
g Rock_Block_crk_m_05_Collider
v 0.637031 0.247418 -0.191918
v 0.024102 0.013577 -0.265487
v 0.628052 0.032415 0.451340
v 0.789314 -0.002584 -0.258333
v -0.551759 0.610477 -0.353661
v -0.685844 0.638736 -0.243375
v -0.474741 0.690569 0.344133
v 0.014156 0.000376 0.346339
v 0.006338 0.477182 0.346339
v -0.683315 0.000257 -0.349651
v -0.685844 0.000376 0.346339
v -0.685907 0.599884 0.338257
v 0.014156 0.404310 -0.353661
v 0.014156 0.000376 -0.353661
vn -0.3713 0.8822 0.2897
vn 0.0146 0.2650 -0.9641
vn 0.8609 0.4787 0.1720
vn 0.1052 0.9866 -0.1249
vn -0.0046 -0.0001 1.0000
vn 0.0000 -1.0000 0.0002
vn -0.0336 0.0135 0.9993
vn -1.0000 -0.0039 -0.0004
vn -0.3953 0.9165 0.0612
vn -0.0022 -0.0061 -1.0000
vn 0.9998 0.0164 0.0095
vn 0.4042 0.9102 -0.0902
vn -0.0215 -0.9988 0.0444
vn 0.0000 0.0032 1.0000
vn 0.0002 -1.0000 -0.0000
vn -0.6139 0.1272 -0.7790
vn -1.0000 -0.0002 -0.0036
vn -0.0057 0.0000 -1.0000
vn 1.0000 0.0000 0.0000
vn 0.3387 0.9298 -0.1441
s off
f 1//1 2//1 3//1
f 1//2 4//2 2//2
f 3//3 4//3 1//3
f 5//4 6//4 7//4
f 7//5 8//5 9//5
f 10//6 8//6 11//6
f 12//7 11//7 7//7
f 10//8 12//8 6//8
f 12//9 7//9 6//9
f 13//10 10//10 5//10
f 8//11 13//11 9//11
f 13//12 7//12 9//12
f 3//13 2//13 4//13
f 7//14 11//14 8//14
f 10//15 14//15 8//15
f 10//16 6//16 5//16
f 10//17 11//17 12//17
f 13//18 14//18 10//18
f 8//19 14//19 13//19
f 13//20 5//20 7//20
