# Blender v2.77 (sub 0) OBJ File: 'LowPoly_Level_Kit_Rocks.blend'
# www.blender.org
g Rock_Block_crk_m_03_Collider
v -1.066715 0.002409 0.074756
v -1.337685 0.145279 0.280632
v -0.704615 0.112979 0.014745
v -0.834759 0.278438 0.283702
v -0.642622 -0.011953 0.656828
v 0.612477 0.331061 0.338983
v 0.609311 -0.000000 0.338444
v 0.609750 0.000000 -0.338342
v -0.616078 0.527524 -0.317646
v 0.386633 0.715549 -0.341746
v -0.610768 0.000000 -0.339019
v -0.158067 0.778685 0.248432
v -0.324926 0.743711 -0.059719
v -0.616482 0.000612 0.342023
v -0.615600 0.312683 0.268629
v 0.615600 0.643453 -0.268629
v 0.612728 0.738744 -0.068997
v -0.066544 0.643453 0.341172
vn -0.2981 0.5544 -0.7770
vn 0.8123 0.5822 0.0349
vn -0.2047 0.7864 -0.5828
vn 0.2539 -0.9445 -0.2083
vn -0.3239 -0.9217 0.2133
vn 1.0000 -0.0096 0.0006
vn -0.0315 0.0401 -0.9987
vn -0.0044 0.9939 -0.1104
vn -0.0005 -1.0000 0.0009
vn -0.9999 -0.0100 -0.0028
vn 0.9997 -0.0112 0.0197
vn 1.0000 -0.0031 -0.0025
vn 0.0028 -0.0010 1.0000
vn 0.3116 0.6718 0.6721
vn -0.1701 0.8413 -0.5131
vn 0.3308 0.0987 -0.9385
vn -0.3849 0.3305 0.8618
vn -0.6767 0.6769 0.2896
vn -0.7080 0.6629 0.2435
vn -0.1954 0.7227 0.6630
vn 0.0125 0.9954 -0.0950
vn 0.3114 0.6721 0.6718
vn -0.0000 -1.0000 -0.0000
vn -1.0000 0.0009 -0.0084
vn 0.0029 -0.0017 1.0000
vn 0.0006 -0.0046 -1.0000
vn 0.3879 0.8339 -0.3925
vn -0.1874 0.2254 0.9561
s off
f 1//1 2//1 3//1
f 3//2 4//2 5//2
f 4//3 3//3 2//3
f 1//4 3//4 5//4
f 1//5 5//5 2//5
f 6//6 7//6 8//6
f 9//7 10//7 11//7
f 12//8 10//8 13//8
f 11//9 7//9 14//9
f 11//10 15//10 9//10
f 8//11 16//11 17//11
f 17//12 6//12 8//12
f 6//13 18//13 14//13
f 18//14 17//14 12//14
f 9//15 13//15 10//15
f 16//16 8//16 10//16
f 12//17 14//17 18//17
f 12//18 13//18 15//18
f 9//19 15//19 13//19
f 4//20 2//20 5//20
f 12//21 17//21 10//21
f 17//22 18//22 6//22
f 11//23 8//23 7//23
f 11//24 14//24 15//24
f 7//25 6//25 14//25
f 8//26 11//26 10//26
f 16//27 10//27 17//27
f 12//28 15//28 14//28
