# Blender v2.77 (sub 0) OBJ File: 'LowPoly_Level_Kit_Rocks.blend'
# www.blender.org
g Rock_Block_m_10_Collider
v -0.626919 0.001641 -0.349154
v 0.000000 0.518761 -0.350000
v 0.000000 0.000000 -0.350000
v 0.583133 0.000871 0.483019
v 0.000000 0.700000 0.350000
v 0.000000 -0.000000 0.350000
v -0.625679 0.000680 0.344648
v -0.612809 0.652528 -0.343022
v 0.628398 0.693850 -0.157814
v 0.565475 0.696704 0.470181
v -0.601113 0.687600 0.339720
v 0.630000 0.000000 -0.184109
vn -0.0013 0.0000 -1.0000
vn -0.2224 -0.0000 0.9750
vn -0.9998 0.0217 0.0018
vn 0.9947 0.0271 0.0995
vn -0.0171 -0.0000 0.9999
vn -0.0257 0.9984 -0.0508
vn 0.2828 0.0370 -0.9585
vn -0.0000 -1.0000 -0.0000
vn -0.0026 -1.0000 -0.0014
vn 0.0067 1.0000 -0.0039
vn -0.0093 0.0096 -0.9999
vn -0.2078 0.0128 0.9781
vn 0.1072 0.5350 -0.8380
vn -0.9992 0.0358 0.0153
vn 0.9975 -0.0004 0.0701
vn -0.0085 0.0075 0.9999
vn -0.0200 0.9991 -0.0368
vn 0.2546 0.0000 -0.9670
vn 0.0012 -1.0000 0.0014
vn -0.0011 -1.0000 -0.0000
s off
f 1//1 2//1 3//1
f 4//2 5//2 6//2
f 7//3 8//3 1//3
f 4//4 9//4 10//4
f 11//5 6//5 5//5
f 11//6 9//6 8//6
f 12//7 2//7 9//7
f 12//8 6//8 3//8
f 3//9 7//9 1//9
f 5//10 10//10 9//10
f 1//11 8//11 2//11
f 4//12 10//12 5//12
f 8//13 9//13 2//13
f 7//14 11//14 8//14
f 4//15 12//15 9//15
f 11//16 7//16 6//16
f 11//17 5//17 9//17
f 12//18 3//18 2//18
f 12//19 4//19 6//19
f 3//20 6//20 7//20
