# Blender v2.77 (sub 0) OBJ File: 'LowPoly_Level_Kit_Rocks.blend'
# www.blender.org
g Rock_Round_crk_m_05
v 0.053050 0.000000 -0.683781
v 0.053050 0.019463 -0.683781
v 0.019220 0.000000 -0.657007
v 0.019220 0.019463 -0.657007
v 0.021888 0.000000 -0.723155
v 0.021888 0.019463 -0.723155
v -0.011942 0.000000 -0.696381
v -0.011942 0.019463 -0.696381
v -0.109162 0.000000 -0.572455
v -0.109162 0.019463 -0.572455
v -0.124461 0.000000 -0.601368
v -0.124461 0.019463 -0.601368
v -0.072470 0.000000 -0.591871
v -0.072470 0.019463 -0.591871
v -0.087770 0.000000 -0.620784
v -0.087770 0.019463 -0.620784
v -0.149558 -0.039526 -0.071412
v -0.170167 -0.018073 -0.067637
v -0.065253 0.042988 -0.080081
v -0.085863 0.064441 -0.076306
v -0.137221 -0.042988 0.015617
v -0.157830 -0.021535 0.019392
v -0.052916 0.039526 0.006948
v -0.073525 0.060980 0.010723
v -0.146175 0.015145 0.150921
v -0.036122 0.110016 0.122017
v -0.104702 -0.091155 0.032138
v -0.102496 -0.010576 0.307637
v -0.176468 -0.021525 0.647326
v -0.171848 0.021526 0.652341
v -0.151117 -0.021525 0.735230
v -0.149032 0.021526 0.731455
v -0.063213 -0.021525 0.709879
v -0.069918 0.021526 0.708639
v -0.280869 0.000000 0.909359
v -0.280869 0.029987 0.909359
v -0.232312 0.000000 0.862641
v -0.232312 0.029987 0.862641
v -0.222562 0.000000 0.969963
v -0.222562 0.029987 0.969963
v -0.174004 0.000000 0.923245
v -0.174004 0.029987 0.923245
v -0.312193 0.045181 0.715115
v -0.237201 -0.009954 0.778287
v -0.281014 -0.012568 0.608650
v -0.411611 0.009004 0.781818
v -0.038233 -0.034618 -0.510601
v -0.028073 0.036432 -0.516772
v 0.112893 -0.035186 -0.515306
v 0.107940 0.035921 -0.521007
v 0.108181 -0.036914 -0.666422
v 0.103700 0.034367 -0.657012
v -0.247987 0.000000 0.595289
v -0.247987 0.029987 0.595289
v -0.271560 0.000000 0.550741
v -0.271560 0.029987 0.550741
v -0.191455 0.000000 0.565375
v -0.191455 0.029987 0.565375
v -0.215027 0.000000 0.520827
v -0.215027 0.029987 0.520827
v -0.469518 -0.030686 0.403976
v -0.639347 -0.048490 0.064011
v -0.440014 -0.040545 -0.282926
v -0.367558 0.248836 -0.493129
v -0.288726 0.597830 -0.275018
v -0.291946 0.317214 -0.495638
v -0.307287 -0.017742 0.494699
v -0.612169 0.176907 -0.283235
v -0.707847 0.100359 -0.019450
v -0.569853 0.389936 -0.228857
v -0.109648 -0.020106 -0.439140
v -0.103418 0.064653 -0.494192
v -0.361134 0.122605 0.552586
v -0.094439 0.646546 -0.207698
v -0.661480 -0.002705 0.114577
v -0.482685 -0.018285 0.404796
v -0.718533 0.203969 0.117084
v -0.470567 0.083884 0.473143
v -0.452556 0.611841 -0.009935
v -0.594790 0.408783 0.070504
v -0.219697 -0.024025 -0.220671
v -0.194925 -0.013880 0.263591
v -0.235276 0.633782 0.119289
v -0.269826 0.485658 0.332528
v -0.243662 0.398673 0.433174
v -0.235249 0.368993 0.467786
v -0.172968 0.639797 0.078408
v -0.169281 0.403728 0.387167
v -0.191624 0.589712 0.154199
v -0.112197 0.309462 -0.498503
v -0.076129 0.079480 -0.494918
v -0.049790 0.039981 -0.459325
v -0.109475 0.292102 -0.498232
v -0.057457 0.568648 -0.336916
v -0.079245 0.540102 -0.382076
v -0.068203 0.236197 -0.440924
v -0.063685 0.452269 -0.377608
v -0.027911 0.097232 -0.406639
v 0.512857 -0.023805 0.398656
v 0.575511 -0.021550 -0.046075
v 0.598512 0.107336 -0.360543
v 0.669524 0.165779 -0.146644
v 0.257894 -0.011950 0.563009
v -0.135213 0.010415 0.496761
v 0.236790 0.134333 0.629361
v 0.462170 0.591759 -0.004854
v 0.602508 0.003479 0.291624
v 0.421186 0.563745 0.276324
v 0.543531 0.506354 0.157126
v 0.344731 0.502929 0.411924
v 0.693170 0.186114 0.169392
v 0.489951 0.140965 0.456182
v 0.462775 -0.011831 -0.323604
v 0.056486 0.011875 -0.438317
v 0.469190 0.457607 -0.341882
v 0.178102 0.326782 -0.490025
v 0.253625 0.167662 -0.494070
v -0.170927 0.154541 0.559211
v 0.155529 0.664138 -0.187387
v 0.333329 0.633880 -0.154855
v 0.349596 0.636022 0.148465
v 0.410145 0.623965 0.005995
v 0.073700 0.519158 0.435473
v 0.059881 0.657194 0.166095
v 0.195454 0.546442 -0.386389
v -0.052233 0.015024 -0.219171
v -0.024261 0.007305 0.264961
vt 0.5755 0.9767
vt 0.5767 0.9755
vt 0.5766 0.9767
vt 0.5893 0.9745
vt 0.5881 0.9761
vt 0.5883 0.9745
vt 0.5893 0.9773
vt 0.5891 0.9760
vt 0.5756 0.9784
vt 0.5767 0.9784
vt 0.5823 0.9272
vt 0.5810 0.9260
vt 0.5823 0.9254
vt 0.5823 0.9254
vt 0.5836 0.9279
vt 0.5823 0.9272
vt 0.5931 0.9269
vt 0.5921 0.9258
vt 0.5931 0.9257
vt 0.5931 0.9270
vt 0.5921 0.9280
vt 0.5921 0.9270
vt 0.5755 0.9756
vt 0.5745 0.9767
vt 0.5745 0.9755
vt 0.5386 0.9305
vt 0.5395 0.9291
vt 0.5395 0.9302
vt 0.5897 0.9261
vt 0.5909 0.9270
vt 0.5897 0.9275
vt 0.5921 0.9275
vt 0.5909 0.9257
vt 0.5921 0.9261
vt 0.5893 0.9694
vt 0.5883 0.9737
vt 0.5883 0.9687
vt 0.5083 0.9725
vt 0.5045 0.9732
vt 0.5047 0.9722
vt 0.5978 0.9256
vt 0.5987 0.9199
vt 0.5987 0.9249
vt 0.5740 0.9763
vt 0.5707 0.9776
vt 0.5704 0.9766
vt 0.5083 0.9783
vt 0.5047 0.9779
vt 0.5743 0.9714
vt 0.5594 0.9714
vt 0.5594 0.9831
vt 0.5498 0.9795
vt 0.5395 0.9824
vt 0.5442 0.9790
vt 0.5498 0.9824
vt 0.5437 0.9714
vt 0.5767 0.9755
vt 0.5743 0.9745
vt 0.5767 0.9714
vt 0.5752 0.9281
vt 0.5774 0.9254
vt 0.5774 0.9278
vt 0.5296 0.9725
vt 0.5319 0.9758
vt 0.5296 0.9758
vt 0.5386 0.9756
vt 0.5364 0.9722
vt 0.5386 0.9725
vt 0.5358 0.9722
vt 0.5358 0.9756
vt 0.5336 0.9750
vt 0.5293 0.9746
vt 0.5281 0.9768
vt 0.5278 0.9746
vt 0.5320 0.9768
vt 0.5335 0.9743
vt 0.5336 0.9768
vt 0.5319 0.9742
vt 0.5336 0.9722
vt 0.5281 0.9722
vt 0.5296 0.9722
vt 0.5235 0.9763
vt 0.5257 0.9722
vt 0.5257 0.9752
vt 0.5278 0.9732
vt 0.5257 0.9752
vt 0.5257 0.9722
vt 0.5985 0.9125
vt 0.5985 0.9199
vt 0.5940 0.9193
vt 0.5235 0.9769
vt 0.5204 0.9746
vt 0.5235 0.9722
vt 0.5140 0.9800
vt 0.5114 0.9770
vt 0.5140 0.9722
vt 0.5167 0.9794
vt 0.5140 0.9747
vt 0.5167 0.9722
vt 0.5667 0.9792
vt 0.5634 0.9737
vt 0.5667 0.9714
vt 0.5667 0.9774
vt 0.5704 0.9714
vt 0.5704 0.9779
vt 0.5167 0.9727
vt 0.5204 0.9762
vt 0.5167 0.9763
vt 0.5978 0.9205
vt 0.5940 0.9271
vt 0.5940 0.9199
vt 0.5114 0.9792
vt 0.5083 0.9771
vt 0.5114 0.9722
vt 0.5836 0.9255
vt 0.5852 0.9272
vt 0.5836 0.9273
vt 0.5882 0.9274
vt 0.5897 0.9259
vt 0.5897 0.9275
vt 0.5867 0.9254
vt 0.5852 0.9272
vt 0.5852 0.9254
vt 0.5867 0.9275
vt 0.5882 0.9254
vt 0.5882 0.9270
vt 0.5774 0.9261
vt 0.5792 0.9274
vt 0.5774 0.9281
vt 0.5810 0.9261
vt 0.5792 0.9274
vt 0.5792 0.9254
vt 0.5768 0.9508
vt 0.5810 0.9355
vt 0.5825 0.9651
vt 0.5871 0.9687
vt 0.5893 0.9585
vt 0.5935 0.9623
vt 0.6028 0.9578
vt 0.6024 0.9619
vt 0.5606 0.9776
vt 0.5594 0.9734
vt 0.5634 0.9714
vt 0.5691 0.9478
vt 0.5522 0.9410
vt 0.5631 0.9370
vt 0.5646 0.9545
vt 0.5763 0.9643
vt 0.5713 0.9680
vt 0.5530 0.9539
vt 0.5528 0.9284
vt 0.5568 0.9282
vt 0.5683 0.9244
vt 0.5693 0.9282
vt 0.5610 0.9258
vt 0.5749 0.9525
vt 0.5768 0.9641
vt 0.5535 0.9684
vt 0.5395 0.9401
vt 0.5961 0.9484
vt 0.5893 0.9510
vt 0.5733 0.9349
vt 0.5768 0.9500
vt 0.5596 0.9727
vt 0.5634 0.9780
vt 0.5412 0.9518
vt 0.5893 0.9282
vt 0.5871 0.9378
vt 0.5849 0.9756
vt 0.5879 0.9687
vt 0.5879 0.9857
vt 0.5546 0.8864
vt 0.5746 0.8954
vt 0.5526 0.8899
vt 0.5679 0.8827
vt 0.5752 0.8853
vt 0.5497 0.9230
vt 0.5752 0.9162
vt 0.5395 0.9155
vt 0.5435 0.9212
vt 0.5428 0.8999
vt 0.5401 0.9031
vt 0.6063 0.9791
vt 0.6069 0.9827
vt 0.6051 0.9817
vt 0.5552 0.9696
vt 0.5486 0.9649
vt 0.5768 0.9732
vt 0.5849 0.9707
vt 0.5791 0.9852
vt 0.5845 0.9889
vt 0.5835 0.9907
vt 0.5747 0.9258
vt 0.6041 0.9588
vt 0.6030 0.9458
vt 0.5982 0.9446
vt 0.6041 0.9317
vt 0.6030 0.9448
vt 0.6041 0.9712
vt 0.6069 0.9666
vt 0.6048 0.9655
vt 0.6050 0.9636
vt 0.5849 0.9832
vt 0.5451 0.9231
vt 0.5573 0.9282
vt 0.5582 0.9282
vt 0.5940 0.9157
vt 0.5770 0.9095
vt 0.5918 0.8950
vt 0.5773 0.8903
vt 0.5835 0.8827
vt 0.5299 0.9369
vt 0.5370 0.9441
vt 0.5272 0.9495
vt 0.5319 0.9722
vt 0.5139 0.9713
vt 0.5285 0.9631
vt 0.5752 0.8950
vt 0.5386 0.9319
vt 0.5309 0.9291
vt 0.5386 0.9585
vt 0.6058 0.9512
vt 0.6133 0.9636
vt 0.6041 0.9566
vt 0.5940 0.8848
vt 0.5107 0.9500
vt 0.5808 0.9212
vt 0.5918 0.9254
vt 0.5386 0.9393
vt 0.5080 0.9447
vt 0.5113 0.9388
vt 0.6103 0.8849
vt 0.6000 0.9046
vt 0.6035 0.8827
vt 0.5940 0.8994
vt 0.5984 0.9712
vt 0.5950 0.9888
vt 0.5893 0.9709
vt 0.5045 0.9502
vt 0.6044 0.9450
vt 0.6112 0.9369
vt 0.6133 0.9522
vt 0.5921 0.9641
vt 0.5066 0.9569
vt 0.5048 0.9632
vt 0.5386 0.9703
vt 0.6063 0.9624
vt 0.6072 0.9125
vt 0.6103 0.9067
vt 0.6014 0.9792
vt 0.6026 0.9916
vt 0.6110 0.9282
vt 0.6066 0.9381
vt 0.6041 0.9298
vt 0.5395 0.9263
vt 0.5321 0.9291
vt 0.5393 0.9161
vt 0.5119 0.9230
vt 0.5050 0.9115
vt 0.5045 0.8961
vt 0.5106 0.8875
vt 0.5395 0.8955
vt 0.5223 0.8831
vt 0.5302 0.8827
vt 0.5393 0.8857
vt 0.5756 0.9755
vt 0.5883 0.9773
vt 0.5810 0.9279
vt 0.5836 0.9260
vt 0.5921 0.9270
vt 0.5931 0.9280
vt 0.5755 0.9768
vt 0.5386 0.9294
vt 0.5909 0.9257
vt 0.5909 0.9270
vt 0.5893 0.9745
vt 0.5081 0.9736
vt 0.5978 0.9206
vt 0.5743 0.9773
vt 0.5707 0.9717
vt 0.5752 0.9258
vt 0.5319 0.9722
vt 0.5364 0.9749
vt 0.5296 0.9767
vt 0.5320 0.9722
vt 0.5235 0.9732
vt 0.5278 0.9763
vt 0.5667 0.9716
vt 0.5204 0.9722
vt 0.5978 0.9269
vt 0.5852 0.9254
vt 0.5882 0.9258
vt 0.5867 0.9273
vt 0.5867 0.9258
vt 0.5792 0.9254
vt 0.5810 0.9281
vt 0.5713 0.9267
vt 0.5691 0.9714
vt 0.5396 0.9570
vt 0.5836 0.9687
vt 0.6035 0.9570
vt 0.5986 0.9282
vt 0.6026 0.9623
vt 0.5050 0.9564
vt 0.5971 0.9106
vn 0.6206 -0.0000 0.7841
vn -0.7841 0.0000 0.6206
vn -0.6206 -0.0000 -0.7841
vn 0.7841 0.0000 -0.6206
vn 0.0000 -1.0000 -0.0000
vn 0.0000 1.0000 -0.0000
vn -0.8839 0.0000 0.4677
vn -0.4677 0.0000 -0.8839
vn 0.8839 0.0000 -0.4677
vn 0.4677 -0.0000 0.8839
vn -0.1402 0.0394 -0.9893
vn 0.7127 0.6976 -0.0733
vn 0.1402 -0.0394 0.9893
vn -0.7127 -0.6976 0.0733
vn 0.6873 -0.7154 -0.1259
vn -0.6873 0.7154 0.1259
vn 0.9278 -0.3600 0.0979
vn -0.5811 0.7615 0.2870
vn -0.8499 -0.5039 0.1542
vn -0.5899 0.4884 -0.6430
vn 0.2764 0.0707 0.9584
vn -0.9584 0.0707 0.2764
vn 0.4829 0.0500 -0.8743
vn -0.6933 0.0000 -0.7206
vn 0.7206 -0.0000 -0.6933
vn 0.6933 -0.0000 0.7206
vn -0.7206 0.0000 0.6933
vn -0.1071 -0.9933 0.0430
vn 0.0994 0.8051 0.5847
vn -0.5760 0.6359 -0.5136
vn 0.6790 0.7101 -0.1863
vn -0.0034 -0.9999 0.0115
vn 0.9973 0.0669 -0.0319
vn 0.0313 0.0821 0.9961
vn -0.7277 0.0446 -0.6844
vn 0.0034 0.9999 -0.0115
vn 0.0699 -0.9974 0.0173
vn -0.3468 -0.4928 -0.7980
vn -0.3999 -0.4764 0.7830
vn -0.9308 0.2524 -0.2644
vn -0.8330 -0.2360 0.5005
vn -0.8277 0.4139 -0.3789
vn -0.5073 0.5362 -0.6746
vn 0.8595 0.1271 -0.4950
vn -0.6303 -0.6924 0.3511
vn -0.6110 0.5166 0.5998
vn -0.5201 -0.4129 -0.7477
vn -0.7108 -0.5633 -0.4213
vn -0.6702 0.3058 -0.6763
vn -0.9056 -0.4239 -0.0126
vn -0.5865 0.7044 -0.3997
vn 0.5318 0.3450 0.7734
vn 0.7992 -0.2152 0.5613
vn 0.8865 0.1612 0.4337
vn 0.8874 -0.1466 0.4371
vn 0.9126 -0.1776 0.3682
vn 0.9928 -0.0265 -0.1164
vn 0.9493 -0.1823 0.2563
vn 0.3048 0.7584 0.5762
vn -0.6148 0.5186 0.5942
vn -0.5774 0.6165 0.5353
vn -0.0692 0.9930 -0.0953
vn -0.0324 0.8518 -0.5228
vn 0.7196 -0.5987 0.3517
vn 0.2712 -0.5382 -0.7980
vn -0.0167 -0.0182 -0.9997
vn 0.0052 0.4500 -0.8930
vn -0.0547 -0.9984 -0.0128
vn 0.8173 -0.0203 0.5759
vn 0.8616 0.3383 -0.3785
vn 0.3372 -0.9404 0.0427
vn 0.5471 -0.2790 0.7892
vn 0.8852 -0.4638 -0.0364
vn 0.0923 0.8881 0.4503
vn 0.7319 0.3641 0.5760
vn 0.7756 -0.1093 0.6218
vn 0.1044 0.4824 0.8697
vn 0.5313 0.3096 0.7886
vn 0.3832 0.1896 -0.9040
vn 0.5436 0.8237 0.1613
vn 0.1175 0.9917 0.0513
vn 0.2290 -0.5166 -0.8250
vn 0.9033 0.4185 -0.0945
vn 0.0695 0.9961 -0.0548
vn 0.8597 0.4782 -0.1796
vn 0.5847 0.7578 -0.2895
vn 0.6578 -0.7531 -0.0126
vn -0.1738 -0.4275 0.8872
vn 0.2705 0.3932 -0.8788
vn 0.3397 0.7950 -0.5025
vn -0.9016 -0.0366 -0.4311
vn -0.9813 0.1461 0.1252
vn -0.8850 0.3007 -0.3554
vn -0.5740 -0.2526 -0.7789
vn -0.6411 0.6939 -0.3280
vn -0.7687 0.3297 -0.5481
vn -0.8642 0.2689 -0.4253
vn -0.9203 0.3065 -0.2430
vn -0.2299 0.9724 -0.0402
vn -0.6085 0.5153 0.6035
vn 0.9986 -0.0147 -0.0508
vn 0.0313 0.0820 0.9961
vn -0.9244 0.3681 -0.1002
vn -0.3469 -0.4928 -0.7980
vn -0.9558 -0.2654 0.1266
vn -0.8335 0.5428 -0.1036
vn -0.3704 0.7899 0.4887
vn -0.0984 0.9951 -0.0035
vn -0.2245 0.6039 -0.7648
vn 0.5220 -0.2156 0.8253
vn -0.1362 0.3991 0.9067
vn 0.3718 0.1995 -0.9066
vn 0.1715 0.9850 -0.0212
vn 0.1986 -0.5433 -0.8157
vn 0.8620 0.4768 -0.1718
vn 0.4900 0.8526 -0.1814
vn 0.7614 -0.5587 -0.3289
vn 0.2302 0.8572 -0.4608
vn -0.9888 0.1370 0.0593
vn -0.6119 0.5076 0.6066
vn 0.9791 -0.1368 0.1506
s off
f 2/1/1 3/2/1 1/3/1
f 4/4/2 7/5/2 3/6/2
f 6/7/3 7/5/3 8/8/3
f 6/9/4 1/3/4 5/10/4
f 1/11/5 7/12/5 5/13/5
f 6/14/6 4/15/6 2/16/6
f 12/17/7 9/18/7 10/19/7
f 16/20/8 11/21/8 12/22/8
f 16/23/9 13/24/9 15/25/9
f 14/26/10 9/27/10 13/28/10
f 11/29/5 13/30/5 9/31/5
f 16/32/6 10/33/6 14/34/6
f 18/35/11 19/36/11 17/37/11
f 24/38/12 19/39/12 20/40/12
f 24/41/13 21/42/13 23/43/13
f 18/44/14 21/45/14 22/46/14
f 19/39/15 21/47/15 17/48/15
f 22/46/16 20/49/16 18/44/16
f 27/50/17 26/51/17 28/52/17
f 26/53/18 25/54/18 28/55/18
f 28/55/19 25/54/19 27/56/19
f 27/56/20 25/54/20 26/53/20
f 33/57/5 31/58/5 29/59/5
f 34/60/21 31/61/21 33/62/21
f 30/63/22 31/64/22 32/65/22
f 29/66/23 34/67/23 33/68/23
f 30/69/6 32/70/6 34/71/6
f 36/72/24 37/73/24 35/74/24
f 38/75/25 41/76/25 37/77/25
f 42/78/26 39/79/26 41/76/26
f 36/72/27 39/80/27 40/81/27
f 37/82/5 39/83/5 35/84/5
f 42/85/6 36/86/6 40/87/6
f 45/88/28 44/89/28 46/90/28
f 44/91/29 43/92/29 46/93/29
f 46/94/30 43/95/30 45/96/30
f 45/97/31 43/98/31 44/99/31
f 51/100/32 49/101/32 47/102/32
f 52/103/33 49/104/33 51/105/33
f 48/106/34 49/107/34 50/108/34
f 48/109/35 51/110/35 47/111/35
f 48/112/36 50/113/36 52/114/36
f 56/115/7 53/116/7 54/117/7
f 60/118/8 55/119/8 56/120/8
f 60/121/9 57/122/9 59/123/9
f 58/124/10 53/125/10 57/126/10
f 55/127/5 57/128/5 53/129/5
f 58/130/6 56/131/6 54/132/6
f 62/133/37 63/134/37 61/135/37
f 67/136/37 61/135/37 82/137/37
f 63/138/38 72/139/38 71/140/38
f 78/141/39 76/142/39 67/143/39
f 69/144/40 70/145/40 68/146/40
f 77/147/41 76/148/41 78/149/41
f 69/144/42 77/147/42 80/150/42
f 70/145/43 66/151/43 64/152/43
f 98/153/44 91/154/44 96/155/44
f 75/156/45 61/157/45 76/148/45
f 85/158/46 77/147/46 78/149/46
f 70/145/43 65/159/43 66/151/43
f 64/160/47 63/138/47 68/161/47
f 69/144/48 63/162/48 62/163/48
f 61/164/39 67/143/39 76/142/39
f 73/165/39 78/141/39 67/143/39
f 68/146/49 70/145/49 64/152/49
f 75/156/50 69/144/50 62/163/50
f 70/145/51 79/166/51 65/159/51
f 63/134/37 82/137/37 61/135/37
f 63/134/37 71/167/37 81/168/37
f 98/169/52 96/170/52 81/171/52
f 86/172/53 82/173/53 88/174/53
f 73/175/54 67/176/54 82/173/54
f 96/155/55 97/177/55 81/178/55
f 74/179/56 97/177/56 94/180/56
f 82/173/57 89/181/57 88/174/57
f 81/178/58 74/179/58 87/182/58
f 89/183/59 87/184/59 83/185/59
f 78/149/60 86/186/60 85/158/60
f 84/187/61 79/166/61 80/150/61
f 79/188/62 87/189/62 65/190/62
f 94/191/63 95/192/63 65/190/63
f 71/193/64 98/153/64 81/178/64
f 72/139/65 92/194/65 71/140/65
f 93/195/66 72/139/66 64/160/66
f 66/196/67 95/197/67 90/198/67
f 66/196/66 93/195/66 64/160/66
f 89/183/59 84/199/59 88/200/59
f 88/200/59 84/199/59 85/201/59
f 86/202/59 88/200/59 85/201/59
f 74/203/63 94/191/63 65/190/63
f 94/180/44 97/177/44 95/204/44
f 97/177/44 90/205/44 95/204/44
f 90/205/44 96/155/44 93/206/44
f 93/206/44 96/155/44 91/154/44
f 126/207/68 100/208/68 127/209/68
f 100/208/68 99/210/68 103/211/68
f 112/212/69 107/213/69 111/214/69
f 101/215/70 115/216/70 102/217/70
f 107/218/71 99/210/71 100/208/71
f 103/219/72 112/212/72 105/220/72
f 107/213/73 100/221/73 111/214/73
f 121/222/74 123/223/74 108/224/74
f 100/208/68 103/211/68 104/225/68
f 100/221/73 102/217/73 111/214/73
f 109/226/75 112/212/75 111/214/75
f 113/227/68 126/207/68 114/228/68
f 99/229/76 107/213/76 112/212/76
f 108/230/75 110/231/75 109/226/75
f 123/232/77 105/233/77 110/234/77
f 110/234/78 105/233/78 112/235/78
f 117/236/79 115/237/79 101/238/79
f 108/230/80 109/226/80 121/239/80
f 122/240/81 119/241/81 124/242/81
f 113/243/82 117/236/82 101/238/82
f 111/214/83 102/217/83 109/226/83
f 121/222/84 122/240/84 124/242/84
f 106/244/80 121/239/80 109/226/80
f 102/217/85 106/244/85 109/226/85
f 120/245/86 106/244/86 115/216/86
f 102/217/87 113/246/87 101/215/87
f 110/247/74 108/224/74 123/223/74
f 104/248/88 105/233/88 118/249/88
f 116/250/89 125/251/89 115/237/89
f 125/252/90 120/253/90 115/254/90
f 100/208/68 104/225/68 127/209/68
f 104/255/91 118/256/91 127/257/91
f 123/258/92 124/259/92 127/257/92
f 119/260/93 125/261/93 126/262/93
f 116/263/94 117/264/94 126/262/94
f 114/265/95 126/262/95 117/264/95
f 127/257/96 118/256/96 123/258/96
f 116/263/97 126/262/97 125/261/97
f 126/262/98 124/259/98 119/260/98
f 74/203/99 65/190/99 87/189/99
f 80/150/100 85/158/100 84/187/100
f 81/178/101 89/181/101 82/173/101
f 2/1/1 4/266/1 3/2/1
f 4/4/2 8/8/2 7/5/2
f 6/7/3 5/267/3 7/5/3
f 6/9/4 2/1/4 1/3/4
f 1/11/5 3/268/5 7/12/5
f 6/14/6 8/269/6 4/15/6
f 12/17/7 11/270/7 9/18/7
f 16/20/8 15/271/8 11/21/8
f 16/23/9 14/272/9 13/24/9
f 14/26/10 10/273/10 9/27/10
f 11/29/5 15/274/5 13/30/5
f 16/32/6 12/275/6 10/33/6
f 18/35/11 20/276/11 19/36/11
f 24/38/12 23/277/12 19/39/12
f 24/41/13 22/278/13 21/42/13
f 18/44/14 17/279/14 21/45/14
f 19/39/15 23/277/15 21/47/15
f 22/46/16 24/280/16 20/49/16
f 34/60/21 32/281/21 31/61/21
f 30/63/22 29/282/22 31/64/22
f 29/66/23 30/283/23 34/67/23
f 36/72/24 38/284/24 37/73/24
f 38/75/25 42/78/25 41/76/25
f 42/78/26 40/285/26 39/79/26
f 36/72/27 35/74/27 39/80/27
f 37/82/5 41/286/5 39/83/5
f 42/85/6 38/287/6 36/86/6
f 52/103/33 50/288/33 49/104/33
f 48/106/102 47/289/102 49/107/102
f 48/109/35 52/290/35 51/110/35
f 56/115/7 55/291/7 53/116/7
f 60/118/8 59/292/8 55/119/8
f 60/121/9 58/293/9 57/122/9
f 58/124/10 54/294/10 53/125/10
f 55/127/5 59/295/5 57/128/5
f 58/130/6 60/296/6 56/131/6
f 69/144/103 80/150/103 70/145/103
f 77/147/41 75/156/41 76/148/41
f 98/153/44 92/297/44 91/154/44
f 75/156/45 62/163/45 61/157/45
f 64/160/104 72/139/104 63/138/104
f 69/144/48 68/146/48 63/162/48
f 75/156/105 77/147/105 69/144/105
f 70/145/106 80/150/106 79/166/106
f 63/134/37 81/168/37 82/137/37
f 86/172/53 73/175/53 82/173/53
f 74/179/56 81/178/56 97/177/56
f 78/149/60 73/298/60 86/186/60
f 84/187/107 83/299/107 79/166/107
f 79/188/108 83/300/108 87/189/108
f 71/193/64 92/297/64 98/153/64
f 72/139/65 91/301/65 92/194/65
f 93/195/66 91/301/66 72/139/66
f 66/196/109 65/302/109 95/197/109
f 66/196/66 90/198/66 93/195/66
f 89/183/59 83/185/59 84/199/59
f 97/177/44 96/155/44 90/205/44
f 103/219/110 99/229/110 112/212/110
f 121/222/74 124/242/74 123/223/74
f 109/226/75 110/231/75 112/212/75
f 113/227/68 100/208/68 126/207/68
f 123/232/111 118/249/111 105/233/111
f 117/236/112 116/250/112 115/237/112
f 122/240/113 120/253/113 119/241/113
f 113/243/114 114/303/114 117/236/114
f 106/244/80 122/304/80 121/239/80
f 102/217/115 115/216/115 106/244/115
f 120/245/116 122/304/116 106/244/116
f 102/217/117 100/221/117 113/246/117
f 104/248/88 103/305/88 105/233/88
f 125/252/118 119/241/118 120/253/118
f 126/262/119 127/257/119 124/259/119
f 80/150/120 77/147/120 85/158/120
f 81/178/121 87/182/121 89/181/121
