# Blender v2.77 (sub 0) OBJ File: 'LowPoly_Level_Kit_Rocks.blend'
# www.blender.org
g Rock_Round_l_01
v -0.306426 -0.000002 -1.501422
v 0.657246 0.000000 0.920033
v -1.783479 0.000000 0.284371
v 0.868702 0.096599 -1.400263
v -1.660489 0.200618 0.254280
v 0.825790 0.297216 -1.349392
v 0.439853 1.134588 -1.107385
v -1.453407 0.407498 -0.483374
v -1.431530 0.312772 0.186519
v 0.743053 0.409370 -1.234836
v -0.628031 0.948788 -1.120609
v -0.039577 0.949403 -1.217376
v -0.932836 0.948788 -0.518412
v 0.742190 1.045386 -1.151905
v 0.810848 0.200618 1.131162
v 1.034169 0.200618 0.942142
v 0.890505 0.174130 1.073116
v 0.180207 1.168814 -1.042350
v -0.561902 1.039098 -1.050933
v -0.022604 1.040881 -1.152996
v -0.580506 1.171083 -0.691384
v -1.591469 0.000000 0.690236
v -1.402661 0.200618 0.793835
v -1.385782 0.312772 0.799562
v -1.043486 0.000000 1.148514
v -0.711901 1.242584 0.004004
v 0.640259 0.444176 1.189339
v -0.007508 0.000000 1.278080
v 0.460434 0.200618 1.236952
v -0.578791 0.000000 1.282946
v 0.633925 0.444563 1.190311
v -0.608741 0.628566 1.166830
v -0.635459 0.718319 -1.391358
v -0.906398 0.692184 -1.283549
v -0.811263 0.776977 -1.296842
v -0.314738 -0.000002 -1.501495
v -0.449012 0.423682 -1.513754
v -1.236073 0.366790 -1.204111
v -1.093762 0.496186 -1.271640
v -0.636578 0.529395 -1.451627
v 1.158098 0.062060 -1.158176
v -0.268533 0.423682 -1.541607
v 1.156882 0.249917 -1.025901
v -0.088306 0.388326 -1.434950
v -0.248784 0.266859 -1.532069
v -0.150450 0.718318 -1.467583
v 1.149331 0.395149 -0.901009
v -0.125639 0.709812 -1.453216
v -0.136820 0.727230 -1.459290
v 1.634519 0.000004 -0.085314
v 1.636307 0.200621 0.083533
v 1.498849 0.557346 0.089509
v 1.433809 0.000004 -0.505265
v 1.309220 0.562387 0.366273
v 0.983768 0.466399 0.890724
v 1.058956 1.071489 -0.538408
v 0.730985 0.475961 1.101297
v 0.642246 1.230402 -0.400091
v 1.459800 0.630552 0.068054
v -0.683692 1.193164 -0.191846
v -0.522185 1.206673 -0.604770
v -0.075549 1.288827 -0.485322
v 0.111353 1.268442 -0.266254
v -1.358475 0.360898 0.813387
v -1.239208 0.805947 0.712040
v -1.040572 0.045144 1.158087
v -0.686598 0.577292 1.176986
v -0.657473 0.060024 1.272504
v -1.034258 0.486568 1.086084
v -1.104813 0.329870 1.090798
v 1.123732 0.608866 -0.702097
v 1.064843 0.987015 -0.757857
v 1.242450 0.475282 -0.576684
v 1.063525 1.067103 -0.541558
v 1.231698 0.853499 -0.237921
v 1.064375 1.066417 -0.533386
v -1.638865 0.000000 -0.158103
v -1.491477 0.200618 -0.394399
v -1.513088 0.338496 -0.518218
v -1.500124 0.248956 -0.767111
v -1.496331 0.053199 -1.075982
v -1.483267 -0.000000 -1.073269
v -0.978599 1.021744 0.362111
v -0.255567 0.942397 0.463966
v 0.687269 0.847631 0.361649
vt 0.6976 0.9085
vt 0.6998 0.9030
vt 0.7020 0.9031
vt 0.6621 0.9650
vt 0.6697 0.9701
vt 0.6723 0.9796
vt 0.6567 0.9496
vt 0.6676 0.9631
vt 0.6924 0.9582
vt 0.6812 0.9542
vt 0.6894 0.9524
vt 0.6896 0.9505
vt 0.6834 0.9453
vt 0.7082 0.9501
vt 0.7028 0.9579
vt 0.7022 0.9557
vt 0.7060 0.9047
vt 0.7017 0.8934
vt 0.7039 0.9512
vt 0.6955 0.9450
vt 0.7059 0.9383
vt 0.7132 0.9489
vt 0.6620 0.9099
vt 0.6779 0.8974
vt 0.6707 0.9193
vt 0.7019 0.9238
vt 0.7158 0.9305
vt 0.7137 0.9375
vt 0.7137 0.9376
vt 0.7136 0.9376
vt 0.6624 0.9242
vt 0.6688 0.9196
vt 0.6913 0.9019
vt 0.6919 0.9605
vt 0.6888 0.9670
vt 0.6729 0.9779
vt 0.6817 0.9728
vt 0.6944 0.9704
vt 0.6939 0.9667
vt 0.7028 0.9650
vt 0.7075 0.9708
vt 0.7246 0.9575
vt 0.7289 0.9600
vt 0.6985 0.9726
vt 0.7039 0.9749
vt 0.7045 0.9831
vt 0.6655 0.9339
vt 0.6737 0.9381
vt 0.7156 0.9411
vt 0.7189 0.9213
vt 0.7178 0.9226
vt 0.7134 0.9178
vt 0.7248 0.9160
vt 0.6558 0.9321
vt 0.6528 0.9164
vt 0.6627 0.9071
vt 0.7267 0.9349
vt 0.7410 0.9269
vt 0.7299 0.9436
vt 0.6852 0.9705
vt 0.6492 0.9498
vt 0.6518 0.9643
vt 0.6418 0.9515
vt 0.6817 0.9420
vt 0.6845 0.9295
vt 0.6967 0.9401
vt 0.6954 0.9072
vt 0.6668 0.9651
vt 0.6544 0.9325
vt 0.7025 0.9716
vt 0.7034 0.9648
vt 0.7238 0.9394
vt 0.6586 0.9232
vt 0.6511 0.9321
vt 0.6953 0.9073
vt 0.6425 0.9359
vt 0.6906 0.9656
vt 0.7030 0.9647
vt 0.7039 0.9102
vt 0.7047 0.9830
vt 0.7318 0.9144
vt 0.6540 0.9170
vt 0.7343 0.9637
vt 0.7344 0.9470
vt 0.7410 0.9516
vn 0.6237 0.2608 0.7369
vn -0.9965 -0.0827 0.0124
vn -0.9767 0.2060 0.0610
vn -0.6101 0.7331 -0.3007
vn -0.5504 0.8133 -0.1887
vn -0.0372 0.5797 -0.8140
vn 0.4336 -0.8482 0.3041
vn 0.0863 0.9813 -0.1718
vn 0.2501 0.9474 -0.1999
vn 0.0084 0.1820 0.9833
vn 0.4184 0.8213 0.3879
vn 0.6885 0.7251 -0.0107
vn -0.3465 0.6585 0.6681
vn 0.1824 -0.7756 0.6043
vn -0.5561 0.7820 -0.2815
vn -0.7876 0.5161 -0.3367
vn -0.1480 0.3014 -0.9419
vn 0.1353 0.7551 -0.6415
vn -0.1497 -0.0760 -0.9858
vn -0.7899 0.5642 -0.2404
vn 0.3769 0.9098 -0.1738
vn 0.7098 0.5184 0.4769
vn 0.7860 0.2799 0.5512
vn -0.1717 0.9845 -0.0350
vn -0.6792 0.3312 0.6549
vn -0.9566 0.2769 0.0902
vn -0.2726 -0.1934 0.9425
vn 0.8912 0.3089 -0.3322
vn -0.7107 0.6574 -0.2503
vn -0.8377 0.4725 -0.2738
vn 0.0175 0.8452 0.5342
vn 0.1728 0.8842 0.4341
vn 0.3824 0.8400 0.3851
vn -0.9884 -0.1520 0.0032
vn -0.9640 -0.2299 0.1339
vn -0.8722 0.4661 -0.1483
vn -0.1150 0.9591 -0.2586
vn -0.7501 0.3729 0.5462
vn -0.4320 0.9013 0.0322
vn -0.7883 0.5601 -0.2549
vn 0.8701 0.2905 -0.3982
vn 0.5108 0.0105 -0.8596
vn -0.6303 0.7077 -0.3191
vn -0.5305 0.8477 0.0089
vn -0.0779 0.7199 -0.6897
vn 0.0139 0.4838 -0.8751
vn 0.9087 0.2430 -0.3394
vn 0.1217 0.8821 0.4550
vn -0.2882 0.1582 0.9444
vn -0.8965 0.1130 0.4284
vn 0.4335 0.8295 0.3523
vn 0.4348 0.8241 0.3631
vn 0.0670 0.1291 -0.9894
vn -0.3402 0.6149 0.7114
vn 0.3480 -0.6793 0.6461
vn -0.7646 0.5309 0.3654
vn -0.6675 0.7440 -0.0313
vn 0.5074 0.0254 -0.8613
vn 0.7754 0.0277 -0.6308
vn 0.5110 0.0121 -0.8595
vn -0.0933 0.8770 0.4714
vn -0.3780 0.2860 -0.8805
vn -0.1457 0.2956 -0.9441
vn -0.1460 0.2958 -0.9440
vn 0.7651 0.2908 -0.5746
vn -0.8199 0.5719 -0.0258
vn -0.0928 0.7594 -0.6439
vn -0.1015 0.7565 -0.6461
vn 0.1270 0.8838 0.4502
vn 0.6218 -0.2206 -0.7515
vn 0.2346 -0.0280 -0.9717
vn 0.0088 -0.1159 -0.9932
vn -0.1520 -0.0791 -0.9852
vn -0.7080 0.6618 -0.2464
vn 0.9880 0.1467 -0.0483
vn 0.9831 0.1603 -0.0888
vn 0.5534 0.7822 -0.2863
vn 0.7351 -0.4404 0.5155
vn 0.2328 0.9097 -0.3439
vn 0.7995 0.2567 0.5431
vn 0.7906 0.2956 0.5363
vn 0.1981 0.9771 -0.0781
vn -0.0687 0.9354 -0.3469
vn -0.0849 0.9404 -0.3292
vn -0.3538 -0.1389 -0.9249
vn 0.2889 -0.0262 0.9570
vn -0.0738 0.9330 -0.3523
vn -0.6793 0.3257 0.6576
vn -0.2749 -0.1824 0.9440
vn -0.7098 0.2096 0.6725
vn 0.3655 0.8402 0.4006
vn 0.0747 0.1274 -0.9890
vn 0.8544 0.3599 -0.3747
vn 0.8633 0.3389 -0.3740
vn -0.6281 0.2033 0.7511
vn 0.8594 0.3489 -0.3737
vn 0.8913 0.3214 -0.3198
vn 0.8387 0.4215 -0.3449
vn 0.8990 0.2560 -0.3553
vn 0.5123 0.6172 -0.5972
vn 0.6602 0.4353 -0.6121
vn -0.3592 -0.0898 -0.9289
vn -0.7115 0.6921 0.1211
vn -0.3130 -0.1249 -0.9415
vn -0.3589 -0.0908 -0.9289
vn -0.7140 0.6518 -0.2557
vn -0.6478 0.7055 -0.2875
vn -0.7199 0.0731 0.6902
vn 0.3738 0.8598 0.3478
vn 0.4974 0.7717 -0.3963
vn 0.3815 0.8380 0.3901
vn 0.1228 0.8863 0.4465
vn -0.3683 0.2986 -0.8805
vn -0.1523 0.5876 -0.7947
vn -0.1012 0.7589 -0.6433
vn 0.0346 0.9890 -0.1439
vn -0.0784 0.9843 0.1584
vn -0.8758 0.4782 0.0654
vn 0.8503 0.3345 -0.4064
vn 0.5048 0.0145 -0.8631
vn 0.8389 0.3762 -0.3934
vn 0.1381 0.8767 0.4608
vn 0.3810 0.5755 -0.7237
vn -0.7688 0.5259 0.3637
vn 0.7968 0.0792 -0.5990
vn 0.0396 0.9048 0.4239
vn -0.4960 0.7703 -0.4008
vn 0.1220 0.8820 0.4551
vn -0.7063 0.6632 -0.2476
vn 0.4121 -0.8184 0.4006
vn -0.3423 -0.1025 -0.9340
vn 0.1559 0.0774 0.9847
vn -0.3557 0.8666 -0.3500
vn 0.1369 0.8883 0.4383
vn 0.1162 0.2674 -0.9566
vn -0.7263 -0.0974 0.6804
vn 0.6308 0.3148 -0.7092
vn -0.7448 0.6635 0.0717
vn -0.7076 0.0073 0.7065
vn 0.5348 0.5668 -0.6267
vn -0.3780 0.2834 -0.8813
vn -0.1224 0.6609 -0.7404
vn -0.1075 0.7534 -0.6487
s off
f 57/1/1 15/2/1 17/3/1
f 78/4/2 80/5/2 82/6/2
f 9/7/3 8/8/3 78/4/3
f 19/9/4 13/10/4 21/11/4
f 61/12/5 13/10/5 60/13/5
f 7/14/6 12/15/6 20/16/6
f 16/17/7 17/3/7 2/18/7
f 7/14/8 18/19/8 62/20/8
f 7/14/9 58/21/9 14/22/9
f 68/23/10 28/24/10 32/25/10
f 58/21/11 85/26/11 75/27/11
f 76/28/12 74/29/12 56/30/12
f 32/25/13 69/31/13 67/32/13
f 15/2/14 29/33/14 2/18/14
f 11/34/15 34/35/15 13/10/15
f 81/36/16 80/5/16 38/37/16
f 40/38/17 33/39/17 46/40/17
f 44/41/18 10/42/18 6/43/18
f 37/44/19 45/45/19 36/46/19
f 9/7/20 65/47/20 83/48/20
f 14/22/21 58/21/21 72/49/21
f 52/50/22 59/51/22 54/52/22
f 51/53/23 54/52/23 16/17/23
f 62/20/24 61/12/24 60/13/24
f 64/54/25 69/31/25 65/47/25
f 9/7/26 64/54/26 65/47/26
f 68/23/27 25/55/27 30/56/27
f 73/57/28 53/58/28 47/59/28
f 80/5/29 8/8/29 39/60/29
f 5/61/30 77/62/30 3/63/30
f 26/64/20 9/7/20 83/48/20
f 84/65/31 26/64/31 83/48/31
f 63/66/32 85/26/32 58/21/32
f 85/26/33 54/52/33 59/51/33
f 57/1/1 27/67/1 15/2/1
f 78/4/34 79/68/34 80/5/34
f 80/5/35 81/36/35 82/6/35
f 82/6/36 77/62/36 78/4/36
f 63/66/37 60/13/37 26/64/37
f 79/68/38 78/4/38 8/8/38
f 24/69/39 9/7/39 5/61/39
f 26/64/40 60/13/40 9/7/40
f 51/53/41 53/58/41 73/57/41
f 42/70/42 48/71/42 44/41/42
f 19/9/43 11/34/43 13/10/43
f 61/12/44 21/11/44 13/10/44
f 20/16/45 18/19/45 7/14/45
f 7/14/46 14/22/46 12/15/46
f 75/27/47 71/72/47 76/28/47
f 84/65/48 63/66/48 26/64/48
f 67/32/49 69/31/49 70/73/49
f 5/61/50 23/74/50 24/69/50
f 32/25/10 67/32/10 68/23/10
f 68/23/10 30/56/10 28/24/10
f 28/24/10 29/33/10 32/25/10
f 31/75/10 32/25/10 29/33/10
f 75/27/51 76/28/51 58/21/51
f 56/30/52 58/21/52 76/28/52
f 10/42/53 12/15/53 14/22/53
f 32/25/54 65/47/54 69/31/54
f 28/24/55 2/18/55 29/33/55
f 17/3/14 15/2/14 2/18/14
f 5/61/56 22/76/56 23/74/56
f 11/34/57 35/77/57 34/35/57
f 46/40/58 49/78/58 48/71/58
f 71/72/59 14/22/59 72/49/59
f 45/45/60 42/70/60 44/41/60
f 32/25/61 83/48/61 65/47/61
f 34/35/62 35/77/62 33/39/62
f 46/40/63 42/70/63 37/44/63
f 37/44/64 40/38/64 46/40/64
f 49/78/65 12/15/65 48/71/65
f 77/62/66 9/7/66 78/4/66
f 35/77/67 11/34/67 33/39/67
f 17/3/1 55/79/1 57/1/1
f 46/40/68 33/39/68 49/78/68
f 84/65/69 31/75/69 57/1/69
f 45/45/70 44/41/70 1/80/70
f 44/41/71 48/71/71 10/42/71
f 1/80/72 36/46/72 45/45/72
f 37/44/73 42/70/73 45/45/73
f 39/60/74 13/10/74 34/35/74
f 71/72/75 72/49/75 74/29/75
f 74/29/76 76/28/76 71/72/76
f 70/73/49 68/23/49 67/32/49
f 74/29/77 72/49/77 56/30/77
f 16/17/78 50/81/78 51/53/78
f 58/21/79 56/30/79 72/49/79
f 55/79/80 16/17/80 54/52/80
f 51/53/81 52/50/81 54/52/81
f 7/14/82 62/20/82 63/66/82
f 19/9/83 21/11/83 20/16/83
f 61/12/84 62/20/84 21/11/84
f 36/46/85 38/37/85 37/44/85
f 27/67/86 29/33/86 15/2/86
f 62/20/87 20/16/87 21/11/87
f 64/54/88 70/73/88 69/31/88
f 68/23/89 66/82/89 25/55/89
f 70/73/90 64/54/90 24/69/90
f 85/26/91 57/1/91 55/79/91
f 44/41/92 4/83/92 1/80/92
f 75/27/93 59/51/93 73/57/93
f 52/50/94 51/53/94 73/57/94
f 25/55/95 23/74/95 22/76/95
f 73/57/96 59/51/96 52/50/96
f 43/84/97 47/59/97 53/58/97
f 71/72/98 73/57/98 47/59/98
f 53/58/99 41/85/99 43/84/99
f 10/42/100 71/72/100 47/59/100
f 41/85/101 6/43/101 43/84/101
f 39/60/102 40/38/102 38/37/102
f 9/7/103 13/10/103 8/8/103
f 82/6/104 81/36/104 38/37/104
f 38/37/105 40/38/105 37/44/105
f 39/60/106 38/37/106 80/5/106
f 80/5/107 79/68/107 8/8/107
f 23/74/108 70/73/108 24/69/108
f 59/51/109 75/27/109 85/26/109
f 10/42/110 43/84/110 6/43/110
f 55/79/111 54/52/111 85/26/111
f 31/75/112 27/67/112 57/1/112
f 34/35/113 40/38/113 39/60/113
f 12/15/114 19/9/114 20/16/114
f 11/34/115 49/78/115 33/39/115
f 7/14/116 63/66/116 58/21/116
f 63/66/117 62/20/117 60/13/117
f 24/69/118 64/54/118 9/7/118
f 51/53/119 50/81/119 53/58/119
f 42/70/120 46/40/120 48/71/120
f 75/27/121 73/57/121 71/72/121
f 84/65/122 85/26/122 63/66/122
f 10/42/123 48/71/123 12/15/123
f 5/61/124 3/63/124 22/76/124
f 71/72/125 10/42/125 14/22/125
f 32/25/126 84/65/126 83/48/126
f 77/62/127 5/61/127 9/7/127
f 17/3/1 16/17/1 55/79/1
f 84/65/128 32/25/128 31/75/128
f 39/60/129 8/8/129 13/10/129
f 70/73/49 66/82/49 68/23/49
f 16/17/130 2/18/130 50/81/130
f 36/46/131 82/6/131 38/37/131
f 27/67/132 31/75/132 29/33/132
f 62/20/133 18/19/133 20/16/133
f 85/26/134 84/65/134 57/1/134
f 44/41/135 6/43/135 4/83/135
f 25/55/136 66/82/136 23/74/136
f 41/85/137 4/83/137 6/43/137
f 9/7/138 60/13/138 13/10/138
f 23/74/139 66/82/139 70/73/139
f 10/42/140 47/59/140 43/84/140
f 34/35/141 33/39/141 40/38/141
f 12/15/142 11/34/142 19/9/142
f 11/34/143 12/15/143 49/78/143
