# Blender v2.77 (sub 0) OBJ File: 'LowPoly_Level_Kit_Rocks.blend'
# www.blender.org
g Rock_Round_m_03
v 0.490553 0.121610 0.234435
v 0.243932 0.529758 -0.249857
v 0.410576 0.497149 -0.177631
v 0.530391 0.457744 -0.140475
v 0.630573 0.243613 -0.277125
v 0.192610 -0.001094 -0.407139
v 0.236678 0.158232 -0.501535
v 0.357885 0.223342 -0.463469
v 0.554081 0.052237 0.097246
v 0.528467 -0.001585 -0.157317
v 0.628732 0.057544 -0.130031
v -0.270304 0.079801 -0.482153
v 0.114433 0.189845 -0.527576
v 0.092853 0.345684 -0.513094
v -0.797316 0.238307 0.080420
v -0.529917 0.048723 -0.245572
v -0.217208 0.271481 -0.475420
v 0.049615 0.538294 -0.286222
v -0.350767 0.545638 0.002824
v -0.023452 0.451519 -0.436489
v -0.354913 0.416748 -0.291318
v -0.532620 0.443719 -0.108397
v 0.432421 0.245570 0.313948
v 0.432539 0.402781 0.193967
v -0.783230 0.144685 0.218702
v 0.177712 0.216803 0.391615
v -0.248089 0.278690 0.437536
v -0.444168 0.182531 0.395961
v 0.018513 0.528347 0.109946
v 0.099957 0.485159 0.203863
v -0.507727 0.403271 0.241160
v -0.267294 0.345799 0.390532
v 0.482050 -0.001782 0.003841
v 0.501436 0.022792 0.093155
v 0.361596 -0.001782 0.044080
v 0.192929 0.051437 0.307881
v 0.171604 -0.001782 0.107549
v 0.296262 0.050703 0.270501
v -0.319089 0.006291 0.302941
v -0.378035 -0.000970 -0.308040
v -0.041968 -0.000970 -0.420307
v -0.726610 0.064201 0.215519
v -0.605824 -0.001295 0.008064
v -0.485031 0.014716 0.312941
v -0.473316 -0.001656 0.229843
vt 0.3104 0.9340
vt 0.3075 0.9148
vt 0.3186 0.9320
vt 0.3212 0.9442
vt 0.3223 0.9387
vt 0.3247 0.9430
vt 0.2885 0.9030
vt 0.3018 0.9086
vt 0.2897 0.9109
vt 0.2790 0.9068
vt 0.3084 0.8993
vt 0.3095 0.9087
vt 0.3060 0.9087
vt 0.3627 0.9127
vt 0.3571 0.9108
vt 0.3542 0.9062
vt 0.3316 0.9438
vt 0.3310 0.9478
vt 0.3581 0.8966
vt 0.3607 0.9004
vt 0.3519 0.8962
vt 0.3397 0.9299
vt 0.3321 0.9092
vt 0.3388 0.9211
vt 0.3406 0.9044
vt 0.3420 0.9000
vt 0.2894 0.9426
vt 0.2995 0.9473
vt 0.2825 0.9490
vt 0.3599 0.9300
vt 0.3560 0.9154
vt 0.3627 0.9215
vt 0.3397 0.9124
vt 0.3495 0.9161
vt 0.3445 0.9205
vt 0.3397 0.9179
vt 0.2878 0.9631
vt 0.2995 0.9606
vt 0.2936 0.9658
vt 0.2684 0.9626
vt 0.2684 0.9531
vt 0.2741 0.9560
vt 0.3445 0.9332
vt 0.3521 0.9279
vt 0.3213 0.9463
vt 0.2740 0.9793
vt 0.2817 0.9796
vt 0.2825 0.9833
vt 0.3126 0.9376
vt 0.3285 0.9040
vt 0.2817 0.9541
vt 0.2825 0.9603
vt 0.2717 0.9353
vt 0.2861 0.9410
vt 0.2716 0.9400
vt 0.2701 0.9635
vt 0.2747 0.9886
vt 0.2808 0.9905
vt 0.3151 0.9448
vt 0.3178 0.9025
vt 0.2780 0.9426
vt 0.2885 0.9253
vt 0.2713 0.9284
vt 0.2812 0.9447
vt 0.3060 0.8985
vt 0.3005 0.8962
vt 0.3042 0.9190
vt 0.2839 0.9580
vt 0.2727 0.9211
vt 0.2684 0.9165
vt 0.2911 0.9295
vt 0.3131 0.8962
vt 0.3077 0.8973
vt 0.2914 0.9426
vt 0.2982 0.9347
vt 0.3060 0.9203
vt 0.3417 0.9401
vt 0.3589 0.9401
vt 0.3483 0.9504
vt 0.3399 0.9106
vn 0.0827 -0.9653 0.2476
vn -0.5458 0.8270 0.1346
vn -0.2612 0.8855 -0.3843
vn -0.2568 -0.9545 0.1519
vn 0.5021 -0.5394 -0.6760
vn 0.4756 -0.8691 0.1359
vn -0.0005 -1.0000 -0.0014
vn 0.4111 0.6192 -0.6690
vn 0.9219 0.2346 0.3083
vn 0.0476 -0.5189 -0.8535
vn -0.1663 -0.8512 -0.4978
vn 0.3026 0.7543 -0.5827
vn -0.3910 0.4503 0.8027
vn -0.6925 0.2160 -0.6884
vn 0.3082 -0.4070 0.8599
vn -0.4600 -0.6620 -0.5917
vn 0.0310 -0.4493 0.8929
vn 0.2405 0.9441 0.2255
vn 0.3745 -0.7460 0.5507
vn -0.4570 0.4187 0.7847
vn -0.2068 0.4143 -0.8863
vn 0.1501 0.9838 0.0979
vn 0.2370 0.1224 -0.9638
vn -0.3797 0.5667 -0.7312
vn -0.4101 -0.3222 0.8532
vn -0.6201 0.6188 0.4821
vn -0.0823 0.8785 0.4706
vn -0.1374 0.0728 -0.9878
vn -0.0884 0.8737 0.4784
vn -0.7824 -0.5234 -0.3374
vn -0.4037 -0.8671 -0.2918
vn -0.7886 -0.5434 -0.2876
vn 0.1713 0.5976 0.7832
vn -0.6792 0.2366 -0.6947
vn -0.0385 -0.9814 0.1879
vn 0.0158 -0.9998 0.0104
vn 0.0727 -0.9963 -0.0450
vn 0.0386 0.9989 0.0281
vn -0.6703 0.2311 -0.7052
vn -0.0960 0.8762 0.4723
vn -0.0113 -0.9999 0.0130
vn 0.1503 0.7676 -0.6230
s off
f 36/1/1 39/2/1 37/3/1
f 34/4/1 35/5/1 33/6/1
f 22/7/2 31/8/2 19/9/2
f 21/10/3 22/7/3 19/9/3
f 42/11/4 45/12/4 44/13/4
f 6/14/5 7/15/5 8/16/5
f 33/6/6 10/17/6 11/18/6
f 11/19/5 10/20/5 5/21/5
f 6/22/7 40/23/7 41/24/7
f 5/21/8 3/25/8 4/26/8
f 5/27/9 4/28/9 11/29/9
f 12/30/10 13/31/10 41/32/10
f 41/24/11 40/23/11 12/33/11
f 14/34/12 20/35/12 18/36/12
f 1/37/9 24/38/9 23/39/9
f 32/40/13 31/41/13 28/42/13
f 12/30/14 21/43/14 17/44/14
f 33/6/6 9/45/6 34/4/6
f 26/46/15 36/47/15 38/48/15
f 37/3/1 38/49/1 36/1/1
f 10/17/7 37/3/7 6/22/7
f 10/17/7 33/6/7 35/5/7
f 12/33/16 40/23/16 16/50/16
f 28/42/17 44/51/17 39/52/17
f 3/53/18 24/54/18 4/55/18
f 28/42/17 39/52/17 27/56/17
f 34/4/1 38/49/1 35/5/1
f 8/16/5 10/20/5 6/14/5
f 23/57/15 38/48/15 1/58/15
f 34/4/19 1/59/19 38/49/19
f 42/11/4 43/60/4 45/12/4
f 31/41/20 25/61/20 28/42/20
f 20/35/21 14/34/21 17/44/21
f 29/62/22 3/53/22 2/63/22
f 14/34/23 7/15/23 13/31/23
f 20/35/24 17/44/24 21/43/24
f 42/64/25 28/42/25 25/61/25
f 25/65/26 31/8/26 15/66/26
f 32/67/27 19/9/27 31/8/27
f 4/28/9 9/68/9 11/29/9
f 17/44/28 13/31/28 12/30/28
f 1/37/9 9/68/9 24/38/9
f 21/10/3 18/69/3 20/70/3
f 30/71/29 29/62/29 32/67/29
f 15/72/30 16/50/30 43/60/30
f 40/23/31 43/60/31 16/50/31
f 15/72/32 42/11/32 25/73/32
f 27/56/13 32/40/13 28/42/13
f 23/74/33 24/54/33 26/75/33
f 32/67/33 27/76/33 26/75/33
f 22/77/34 16/78/34 15/79/34
f 37/3/7 40/23/7 6/22/7
f 30/71/33 26/75/33 24/54/33
f 33/6/6 11/18/6 9/45/6
f 13/31/10 6/14/10 41/32/10
f 10/17/7 35/5/7 37/3/7
f 36/47/17 27/56/17 39/52/17
f 39/2/35 44/13/35 45/12/35
f 43/60/36 40/23/36 39/2/36
f 8/16/8 3/25/8 5/21/8
f 39/2/37 45/12/37 43/60/37
f 14/34/8 2/80/8 8/16/8
f 29/62/38 18/69/38 19/9/38
f 22/7/2 15/66/2 31/8/2
f 12/30/39 16/78/39 21/43/39
f 37/3/1 35/5/1 38/49/1
f 3/53/18 30/71/18 24/54/18
f 8/16/5 5/21/5 10/20/5
f 23/57/15 26/46/15 38/48/15
f 34/4/19 9/45/19 1/59/19
f 29/62/18 30/71/18 3/53/18
f 14/34/23 8/16/23 7/15/23
f 42/64/25 44/51/25 28/42/25
f 32/67/40 29/62/40 19/9/40
f 4/28/9 24/38/9 9/68/9
f 17/44/28 14/34/28 13/31/28
f 21/10/3 19/9/3 18/69/3
f 15/72/32 43/60/32 42/11/32
f 22/77/34 21/43/34 16/78/34
f 37/3/41 39/2/41 40/23/41
f 30/71/33 32/67/33 26/75/33
f 13/31/10 7/15/10 6/14/10
f 36/47/17 26/46/17 27/56/17
f 8/16/8 2/80/8 3/25/8
f 14/34/42 18/36/42 2/80/42
f 29/62/38 2/63/38 18/69/38
