# Blender v2.77 (sub 0) OBJ File: 'LowPoly_Level_Kit_Rocks.blend'
# www.blender.org
g Rock_Round_l_05
v -0.636670 0.000000 0.469393
v -0.616301 0.416565 0.454520
v -0.474519 0.880966 -0.349051
v -0.474519 0.880966 0.350994
v 0.484211 0.880966 0.350994
v 0.484211 0.880966 -0.349051
v 0.054128 0.909890 -0.418659
v -0.319961 0.909890 -0.187325
v -0.319961 0.909890 0.275341
v 0.054128 0.909890 0.506674
v 0.428217 0.909890 0.275341
v 0.428217 0.909890 -0.187325
v 0.310644 1.810669 0.175814
v 0.310644 1.810669 -0.140139
v 0.160145 1.810669 0.268881
v 0.055180 1.739370 0.347205
v -0.215754 1.607382 0.204496
v -0.211703 1.660621 -0.133090
v -0.480486 0.000000 -0.581493
v -0.636670 0.000000 -0.191239
v -0.531953 0.416565 -0.514166
v -0.616301 0.416565 -0.303409
v -0.576101 0.548239 -0.423224
v -0.086151 0.880966 -0.632630
v 0.086258 0.880966 -0.639628
v 0.016339 0.887712 -0.633677
v 0.189961 1.810669 -0.214768
v 0.054863 1.539586 -0.334392
v -0.059126 1.761316 -0.227434
v 0.033039 1.810669 -0.208399
v -0.301571 0.000000 -0.712133
v 0.305177 0.000000 -0.716576
v 0.158672 0.416565 -0.793805
v -0.152097 0.416565 -0.791529
v 0.078710 0.509607 -0.810709
v -0.077533 0.501604 -0.808060
v 0.646361 0.000000 -0.143598
v 0.503991 0.000000 -0.571406
v 0.625992 0.416565 -0.153429
v 0.494482 0.416565 -0.548603
v 0.536188 0.710717 -0.387004
v -0.261563 0.000000 0.743289
v -0.280825 0.416565 0.699478
v -0.127415 0.880966 0.604443
v 0.287027 0.880966 0.494974
v 0.041270 0.902344 0.557378
v 0.646361 0.000000 0.151352
v 0.625992 0.416565 0.160498
v 0.527143 0.740342 0.382343
v 0.497970 0.581667 0.474389
v 0.494749 0.000000 0.543518
vt 0.7920 0.9265
vt 0.7920 0.9283
vt 0.7774 0.9326
vt 0.8585 0.8863
vt 0.8628 0.8955
vt 0.8517 0.8880
vt 0.7920 0.8918
vt 0.7903 0.9083
vt 0.7770 0.9080
vt 0.7920 0.9661
vt 0.7942 0.9481
vt 0.7942 0.9635
vt 0.7805 0.9366
vt 0.7840 0.9460
vt 0.7784 0.9385
vt 0.8086 0.9712
vt 0.7996 0.9709
vt 0.8289 0.9661
vt 0.8230 0.9481
vt 0.8289 0.9428
vt 0.7561 0.9803
vt 0.7562 0.9698
vt 0.7609 0.9674
vt 0.8531 0.9942
vt 0.8464 0.9942
vt 0.8414 0.9918
vt 0.7715 0.9417
vt 0.8545 0.9554
vt 0.8496 0.9639
vt 0.8462 0.9634
vt 0.7764 0.9289
vt 0.7913 0.9241
vt 0.8342 0.9639
vt 0.8466 0.9331
vt 0.8640 0.8876
vt 0.8086 0.9404
vt 0.7920 0.9428
vt 0.8073 0.9331
vt 0.8117 0.9228
vt 0.8005 0.9176
vt 0.8117 0.9093
vt 0.8299 0.9203
vt 0.8437 0.9140
vt 0.8457 0.9208
vt 0.7721 0.9044
vt 0.7719 0.9114
vt 0.8548 0.9639
vt 0.8380 0.9639
vt 0.8100 0.9333
vt 0.8140 0.9334
vt 0.7565 0.9219
vt 0.7729 0.9268
vt 0.7850 0.9363
vt 0.8091 0.9729
vt 0.8230 0.9635
vt 0.7564 0.9018
vt 0.7740 0.8866
vt 0.7592 0.9363
vt 0.7561 0.9147
vt 0.7669 0.9677
vt 0.7658 0.9862
vt 0.7618 0.9835
vt 0.8156 0.9745
vt 0.7685 0.9668
vt 0.7850 0.9671
vt 0.8631 0.9038
vt 0.8619 0.9095
vt 0.8269 0.9287
vt 0.8104 0.9322
vt 0.8640 0.9165
vt 0.7979 0.8922
vt 0.8112 0.8989
vt 0.8256 0.8863
vt 0.8271 0.8987
vt 0.8571 0.9345
vt 0.8343 0.9892
vt 0.8293 0.8872
vt 0.8277 0.9128
vt 0.8064 0.9331
vt 0.7920 0.9278
vt 0.7936 0.9167
vt 0.7622 0.9420
vt 0.7561 0.9649
vt 0.7743 0.9342
vt 0.7705 0.9671
vt 0.7764 0.9818
vt 0.8036 0.8892
vt 0.8277 0.9084
vt 0.8289 0.9338
vt 0.7580 0.8863
vt 0.8277 0.9231
vt 0.8289 0.9664
vt 0.7924 0.8936
vt 0.7764 0.9705
vn -0.0368 0.4188 -0.9074
vn 0.5548 0.3388 0.7599
vn -0.9564 0.2920 0.0000
vn 0.4589 0.8885 0.0000
vn 0.1309 0.9685 0.2117
vn -0.1839 0.9829 0.0000
vn 0.0000 1.0000 0.0000
vn 0.5193 0.1580 0.8398
vn -0.5703 0.1001 -0.8153
vn 0.5226 0.1125 -0.8451
vn 0.9916 0.1294 0.0000
vn 0.0855 0.9894 -0.1171
vn 0.9481 0.0389 -0.3155
vn -0.5887 0.0576 0.8063
vn -0.9270 -0.0546 -0.3710
vn 0.5191 0.1607 0.8395
vn -0.0663 0.9937 -0.0908
vn -0.5887 0.0576 -0.8063
vn 0.1301 0.9754 0.1781
vn 0.1732 0.9559 0.2372
vn -0.9988 0.0488 0.0000
vn -0.0072 -0.1847 -0.9828
vn -0.4888 0.8626 0.1302
vn -0.0763 0.9916 -0.1045
vn -0.1101 0.9824 0.1507
vn -0.5225 0.1137 -0.8450
vn 0.2538 0.1128 0.9607
vn 0.5887 0.0576 -0.8063
vn -0.5548 0.3388 0.7599
vn 0.9564 0.2920 0.0000
vn 0.9321 0.0377 0.3603
vn -0.5205 0.1618 0.8384
vn 0.2537 0.1128 0.9607
vn 0.5548 0.3388 -0.7599
vn -0.5548 0.3388 -0.7599
vn -0.9890 0.1478 0.0000
vn -0.0906 0.9881 0.1241
vn 0.9988 0.0488 0.0000
vn 0.0898 0.9853 -0.1451
vn 0.5186 0.1605 0.8398
vn -0.0591 0.9937 -0.0956
vn -0.0841 0.9871 0.1359
vn -0.5557 0.1393 -0.8196
vn -0.5189 0.1628 0.8392
vn -0.9898 0.1420 0.0105
s off
f 26/1/1 25/2/1 35/3/1
f 49/4/2 45/5/2 50/6/2
f 4/7/3 3/8/3 23/9/3
f 5/10/4 12/11/4 11/12/4
f 30/13/1 28/14/1 29/15/1
f 11/12/5 10/16/5 45/17/5
f 4/18/6 8/19/6 3/20/6
f 13/21/7 14/22/7 27/23/7
f 13/24/8 15/25/8 16/26/8
f 18/27/9 29/15/9 28/14/9
f 28/28/10 27/29/10 14/30/10
f 26/1/1 36/31/1 24/32/1
f 13/33/11 12/34/11 14/30/11
f 49/4/2 5/35/2 45/5/2
f 7/36/12 6/37/12 25/38/12
f 40/39/13 41/40/13 39/41/13
f 1/42/14 43/43/14 2/44/14
f 22/45/15 23/9/15 21/46/15
f 11/47/16 16/26/16 10/48/16
f 5/10/4 6/37/4 12/11/4
f 26/49/17 24/50/17 7/36/17
f 31/51/18 21/46/18 34/52/18
f 30/13/1 27/53/1 28/14/1
f 46/54/19 45/17/19 10/16/19
f 5/10/20 11/12/20 45/17/20
f 4/18/6 9/55/6 8/19/6
f 20/56/21 2/57/21 22/45/21
f 34/52/22 32/58/22 31/51/22
f 19/59/15 22/45/15 21/46/15
f 30/60/23 16/61/23 15/62/23
f 8/19/24 24/50/24 3/20/24
f 44/63/25 9/55/25 4/18/25
f 8/64/26 28/14/26 7/65/26
f 43/43/27 46/66/27 44/67/27
f 40/39/28 32/68/28 33/69/28
f 4/70/29 43/43/29 44/67/29
f 39/41/30 49/71/30 48/72/30
f 48/72/31 51/73/31 47/74/31
f 4/7/3 22/45/3 2/57/3
f 14/30/10 12/34/10 28/28/10
f 7/75/10 28/28/10 12/34/10
f 17/76/32 10/48/32 16/26/32
f 25/38/12 26/49/12 7/36/12
f 51/77/33 43/43/33 42/78/33
f 33/69/34 35/79/34 40/39/34
f 25/80/34 6/81/34 41/40/34
f 13/21/7 30/60/7 15/62/7
f 23/9/35 34/52/35 21/46/35
f 17/82/36 8/64/36 9/83/36
f 6/81/30 49/71/30 41/40/30
f 44/63/37 46/54/37 10/16/37
f 25/80/34 40/39/34 35/79/34
f 33/84/22 36/31/22 35/3/22
f 24/32/35 23/9/35 3/8/35
f 45/5/27 46/66/27 50/6/27
f 29/85/23 17/86/23 16/61/23
f 48/72/31 49/71/31 50/87/31
f 37/88/13 40/39/13 39/41/13
f 48/72/38 37/88/38 39/41/38
f 26/1/1 35/3/1 36/31/1
f 13/33/11 11/89/11 12/34/11
f 7/36/39 12/11/39 6/37/39
f 1/42/14 42/78/14 43/43/14
f 11/47/40 13/24/40 16/26/40
f 31/51/18 19/59/18 21/46/18
f 20/56/21 1/90/21 2/57/21
f 34/52/22 33/84/22 32/58/22
f 19/59/15 20/56/15 22/45/15
f 30/60/23 29/85/23 16/61/23
f 8/19/41 7/36/41 24/50/41
f 44/63/42 10/16/42 9/55/42
f 8/64/43 18/27/43 28/14/43
f 43/43/33 50/6/33 46/66/33
f 40/39/28 38/91/28 32/68/28
f 4/70/29 2/44/29 43/43/29
f 39/41/30 41/40/30 49/71/30
f 48/72/31 50/87/31 51/73/31
f 4/7/3 23/9/3 22/45/3
f 17/76/44 9/92/44 10/48/44
f 51/77/27 50/6/27 43/43/27
f 13/21/7 27/23/7 30/60/7
f 23/9/35 36/31/35 34/52/35
f 17/82/45 18/27/45 8/64/45
f 6/81/30 5/93/30 49/71/30
f 25/80/34 41/40/34 40/39/34
f 33/84/22 34/52/22 36/31/22
f 24/32/35 36/31/35 23/9/35
f 29/85/23 18/94/23 17/86/23
f 37/88/13 38/91/13 40/39/13
f 48/72/38 47/74/38 37/88/38
