# Blender v2.77 (sub 0) OBJ File: 'LowPoly_Level_Kit_Rocks.blend'
# www.blender.org
g Rock_Round_l_07
v -0.200992 -0.000001 -1.316198
v -0.830537 0.000000 -1.200828
v -1.123430 0.000000 -0.493721
v -0.830537 0.000000 0.945896
v -0.123430 0.000000 1.238789
v 0.583677 0.000000 0.945896
v 1.182094 0.000004 -0.224859
v 0.889201 0.000004 -0.589481
v -0.732639 0.000000 0.226087
v 0.281470 0.000002 -0.695342
v -0.193274 0.159499 -1.232381
v -0.778841 0.159500 -1.125071
v -1.051273 0.159500 -0.467361
v -0.778841 0.159500 0.871688
v -0.121131 0.159500 1.144120
v 0.536579 0.159500 0.871688
v 1.093193 0.159503 -0.217280
v 0.820761 0.159503 -0.556431
v -0.687781 0.159500 0.202164
v 0.255484 0.159502 -0.654897
v -0.237816 0.951125 -0.796807
v -0.552709 0.951126 -0.739100
v -0.721938 0.891797 -0.413567
v -0.583871 0.605808 0.659452
v -0.205241 0.605808 0.952581
v 0.380434 0.820672 0.565605
v 0.738224 0.817144 -0.183407
v 0.595362 0.826992 -0.361255
v -0.492923 0.811712 0.008262
v 0.052234 0.811714 -0.506578
v -0.662428 0.248668 -0.954476
v -0.175895 0.248667 -1.043638
v -0.888786 0.248668 -0.408001
v -0.586769 0.248668 0.148291
v -0.115952 0.248668 0.930941
v -0.662428 0.248668 0.704583
v 0.430523 0.248668 0.704583
v 0.893000 0.248671 -0.200215
v 0.666643 0.248671 -0.482008
v 0.196968 0.248670 -0.563820
v -0.450720 1.104288 0.629130
v -0.148744 1.107786 0.754212
v 0.170454 1.168738 0.621996
v -0.404660 1.104288 0.290472
v -0.386028 1.191514 0.568401
v -0.164676 1.191514 0.660088
v 0.069299 1.191514 0.609169
v -0.352266 1.191514 0.366158
v -0.611078 0.754329 -0.890933
v -0.205820 0.754328 -0.965200
v -0.809392 0.754329 -0.412160
v -0.412824 0.785382 0.122308
v 0.176476 0.872060 -0.434221
v -0.305740 1.318997 -0.775874
v -0.480669 1.318998 -0.743453
v -0.574678 1.318998 -0.461415
v -0.447456 1.318998 -0.224420
v -0.144612 1.318999 -0.513672
v 0.807957 0.754332 -0.191501
v 0.406753 0.754329 0.648398
v 0.627654 0.754332 -0.415960
v 0.157327 0.754330 -0.497886
v -0.512500 0.754329 0.134692
v 0.347435 1.091967 0.303353
v 0.566161 1.140963 -0.134740
v 0.478826 1.140963 -0.243463
v 0.023198 1.140961 0.052152
v 0.222750 1.140962 -0.288069
v 0.334038 1.655577 0.106902
v -0.099401 0.754329 0.365544
v -0.047489 0.801635 0.326468
v 0.137902 1.077811 0.199492
v 0.225679 1.655577 0.115272
v -0.118482 1.191514 0.400312
v -0.120846 1.136094 0.353467
v 0.479350 1.655578 -0.091799
v 0.238955 1.584822 -0.236889
v 0.434965 1.618023 -0.199129
v 0.497002 1.650425 -0.115178
v 0.134314 1.652510 0.023838
v 0.142267 1.655577 0.031028
vt 0.8984 0.9161
vt 0.8969 0.9262
vt 0.8937 0.9275
vt 0.8887 0.9454
vt 0.8995 0.9448
vt 0.8878 0.9484
vt 0.9610 0.9231
vt 0.9525 0.9346
vt 0.9485 0.9348
vt 0.9033 0.9042
vt 0.9008 0.9168
vt 0.9187 0.9731
vt 0.9168 0.9664
vt 0.9175 0.9643
vt 0.9249 0.9489
vt 0.9266 0.9370
vt 0.9266 0.9511
vt 0.9136 0.9186
vt 0.9140 0.9080
vt 0.9186 0.9108
vt 0.9150 0.9618
vt 0.9168 0.9796
vt 0.9150 0.9784
vt 0.9830 0.9079
vt 0.9844 0.8888
vt 0.9844 0.9098
vt 0.9650 0.9762
vt 0.9543 0.9691
vt 0.9629 0.9694
vt 0.9482 0.9223
vt 0.9405 0.9089
vt 0.9468 0.9035
vt 0.9034 0.9660
vt 0.9034 0.9753
vt 0.9633 0.9138
vt 0.9677 0.9146
vt 0.9614 0.9158
vt 0.9744 0.9066
vt 0.9130 0.9373
vt 0.9156 0.9371
vt 0.9158 0.9372
vt 0.9282 0.9095
vt 0.9213 0.9058
vt 0.9814 0.9654
vt 0.9756 0.9529
vt 0.9795 0.9522
vt 0.9629 0.9596
vt 0.9568 0.9576
vt 0.9756 0.9683
vt 0.9795 0.9845
vt 0.9756 0.9844
vt 0.9673 0.9631
vt 0.9713 0.9596
vt 0.9725 0.9658
vt 0.9376 0.8945
vt 0.9485 0.9020
vt 0.9382 0.9008
vt 0.9563 0.8894
vt 0.9482 0.8888
vt 0.9814 0.9245
vt 0.9367 0.9615
vt 0.9282 0.9495
vt 0.9324 0.9488
vt 0.8948 0.9150
vt 0.9009 0.9530
vt 0.8910 0.9594
vt 0.9171 0.9317
vt 0.9139 0.9221
vt 0.9192 0.9266
vt 0.9028 0.9411
vt 0.9500 0.9231
vt 0.9628 0.9249
vt 0.9014 0.9010
vt 0.9659 0.9684
vt 0.9699 0.9705
vt 0.9168 0.9775
vt 0.9189 0.9794
vt 0.9065 0.9357
vt 0.8954 0.9338
vt 0.9116 0.9202
vt 0.9178 0.9489
vt 0.9157 0.9579
vt 0.9138 0.9507
vt 0.9176 0.9016
vt 0.9076 0.8965
vt 0.9395 0.9850
vt 0.9282 0.9721
vt 0.9395 0.9719
vt 0.8896 0.9693
vt 0.8974 0.9785
vt 0.8878 0.9817
vt 0.9613 0.9138
vt 0.9736 0.9024
vt 0.9744 0.9138
vt 0.9659 0.9616
vt 0.9095 0.9303
vt 0.9077 0.9297
vt 0.9403 0.9201
vt 0.9282 0.9139
vt 0.9717 0.9254
vt 0.9637 0.9376
vt 0.9646 0.9254
vt 0.9269 0.9725
vt 0.8981 0.8987
vt 0.9065 0.8917
vt 0.9651 0.8888
vt 0.9710 0.8974
vt 0.9629 0.8989
vt 0.8918 0.9366
vt 0.8898 0.9273
vt 0.9084 0.9350
vt 0.8990 0.9817
vt 0.9725 0.9591
vt 0.9742 0.9576
vt 0.9742 0.9710
vt 0.9168 0.9593
vt 0.9533 0.9480
vt 0.8882 0.9417
vt 0.9029 0.9684
vt 0.8990 0.9844
vt 0.8990 0.9686
vt 0.9282 0.9304
vt 0.9161 0.9593
vt 0.9049 0.9575
vt 0.9405 0.9273
vt 0.9476 0.9231
vt 0.9485 0.9268
vt 0.9621 0.9024
vt 0.9660 0.9231
vt 0.9485 0.9791
vt 0.9659 0.9791
vt 0.8962 0.9666
vt 0.9034 0.9644
vt 0.9025 0.9671
vt 0.8982 0.9684
vt 0.9674 0.9212
vt 0.9650 0.9223
vt 0.9629 0.9212
vt 0.9613 0.9151
vt 0.9677 0.9211
vt 0.9273 0.9346
vt 0.9165 0.9346
vt 0.9476 0.9719
vt 0.9334 0.9649
vt 0.9269 0.9833
vt 0.9719 0.9472
vt 0.9632 0.9513
vt 0.9628 0.9452
vt 0.9610 0.9576
vt 0.9495 0.9509
vt 0.9756 0.9452
vt 0.9743 0.9369
vt 0.9087 0.9504
vt 0.9257 0.9184
vt 0.9267 0.9123
vt 0.9249 0.9583
vt 0.9380 0.9236
vt 0.9832 0.9829
vt 0.9795 0.9672
vt 0.9832 0.9671
vt 0.9595 0.9001
vt 0.9291 0.9201
vt 0.9289 0.9194
vt 0.9682 0.9556
vt 0.9719 0.9542
vt 0.9173 0.9725
vt 0.9776 0.9671
vt 0.9795 0.9671
vt 0.9776 0.9231
vt 0.9282 0.9850
vt 0.8950 0.9684
vt 0.9725 0.9576
vt 0.9269 0.9593
vt 0.9036 0.8888
vt 0.9717 0.8890
vt 0.8878 0.9370
vt 0.9034 0.9370
vt 0.9029 0.9854
vt 0.9034 0.9593
vt 0.9712 0.9231
vt 0.9276 0.9370
vt 0.9485 0.9674
vt 0.9628 0.9536
vt 0.9628 0.9452
vt 0.9112 0.9370
vt 0.9795 0.9842
vt 0.9613 0.9231
vn 0.1144 0.7456 -0.6565
vn -0.6864 0.7212 -0.0934
vn -0.5400 0.7889 0.2932
vn 0.5194 0.7532 -0.4036
vn 0.2487 0.8917 -0.3782
vn -0.5228 0.8038 0.2839
vn 0.7168 0.5170 -0.4680
vn 0.4053 0.8072 0.4291
vn -0.3180 0.8863 -0.3367
vn -0.7943 0.3899 -0.4659
vn 0.7999 0.4645 0.3799
vn 0.6654 0.2680 0.6967
vn -0.1054 0.9514 -0.2893
vn -0.2259 0.8863 0.4042
vn -0.6977 0.1898 0.6908
vn -0.1802 0.0237 -0.9833
vn 0.3363 0.4771 0.8120
vn -0.8978 0.1726 -0.4051
vn -0.8325 0.4336 -0.3448
vn 0.0000 1.0000 0.0000
vn 0.3303 0.2464 0.9111
vn 0.4339 0.0540 0.8993
vn 0.8044 0.4288 0.4112
vn 0.1592 0.9094 0.3842
vn 0.1653 0.2676 -0.9492
vn -0.9854 0.1422 -0.0938
vn 0.1531 0.4514 -0.8791
vn 0.6721 0.6673 0.3210
vn 0.1045 0.6152 -0.7814
vn 0.7719 0.1405 -0.6200
vn 0.7818 0.1405 -0.6075
vn -0.4764 0.6106 0.6326
vn -0.1399 0.6305 -0.7635
vn -0.1785 0.1405 -0.9739
vn -0.8701 0.1405 0.4724
vn -0.8128 0.3015 0.4985
vn -0.9147 0.1405 -0.3789
vn 0.1403 0.7515 0.6447
vn 0.1328 0.6331 -0.7626
vn 0.8720 0.1795 0.4554
vn -0.3581 0.3777 0.8539
vn 0.6768 0.0147 -0.7360
vn -0.1596 0.4653 -0.8707
vn -0.8760 0.2562 -0.4087
vn 0.7071 0.4211 -0.5680
vn 0.5663 0.6873 -0.4549
vn -0.7341 0.4720 0.4882
vn 0.4693 0.8042 -0.3647
vn -0.4236 0.8887 -0.1755
vn -0.9594 0.2502 -0.1305
vn -0.7274 0.2059 0.6546
vn -0.3348 0.4845 0.8082
vn 0.1706 0.1067 -0.9795
vn -0.3263 0.7886 0.5212
vn 0.3676 0.8819 -0.2953
vn -0.8029 0.4947 -0.3326
vn -0.2830 0.6924 0.6638
vn -0.6498 0.4406 -0.6194
vn -0.5869 0.6160 -0.5255
vn -0.9598 0.2484 -0.1305
vn 0.8156 0.3660 0.4481
vn -0.7946 0.5924 -0.1327
vn 0.7731 0.1288 -0.6210
vn -0.1565 0.9125 0.3779
vn 0.4745 0.2318 -0.8492
vn -0.0770 0.9042 -0.4201
vn 0.6905 0.4644 -0.5546
vn -0.5960 0.2284 0.7698
vn -0.4461 0.1951 0.8734
vn 0.8375 0.1839 -0.5146
vn 0.4127 0.8861 0.2109
vn -0.4075 0.6086 0.6808
vn -0.8373 0.3037 0.4546
vn 0.8987 0.0899 0.4293
vn 0.7595 0.2734 -0.5902
vn -0.1980 0.9695 -0.1448
vn 0.8042 0.0866 0.5881
vn 0.1699 0.1405 -0.9754
vn 0.6561 0.4707 -0.5899
vn 0.6625 0.2624 0.7016
vn -0.1822 0.0223 -0.9830
vn -0.8591 0.0895 -0.5039
vn 0.3629 0.3069 0.8799
vn 0.3799 0.1198 0.9172
vn -0.9715 0.1970 -0.1321
vn 0.1991 0.4082 -0.8909
vn 0.6559 0.6882 0.3101
vn 0.1112 0.6388 -0.7613
vn -0.4019 0.6248 0.6694
vn -0.8299 0.3360 0.4455
vn 0.1007 0.7886 0.6066
vn 0.1999 0.4407 -0.8751
vn -0.5989 0.2070 0.7736
vn 0.4762 0.2172 -0.8521
vn -0.9333 0.1791 -0.3111
vn 0.6234 0.6279 -0.4660
vn -0.3633 0.6673 0.6502
vn -0.7998 0.5055 -0.3237
vn -0.2806 0.6799 0.6775
vn -0.9495 0.3109 -0.0411
vn -0.8342 0.5397 -0.1135
vn 0.2186 -0.0186 -0.9756
vn 0.7058 0.4565 -0.5417
vn -0.3784 -0.1499 0.9134
vn 0.0727 0.3298 0.9412
vn 0.7429 0.2798 -0.6081
vn -0.3908 0.5879 0.7082
vn 0.8816 0.1405 0.4506
vn 0.0887 0.9705 -0.2243
s off
f 20/1/1 39/2/1 18/3/1
f 19/4/2 36/5/2 34/6/2
f 19/7/3 33/8/3 13/9/3
f 20/1/4 32/10/4 40/11/4
f 75/12/5 47/13/5 43/14/5
f 29/15/6 51/16/6 63/17/6
f 30/18/7 50/19/7 21/20/7
f 29/21/8 62/22/8 30/23/8
f 52/24/9 62/25/9 63/26/9
f 53/27/10 67/28/10 68/29/10
f 27/30/11 64/31/11 26/32/11
f 57/33/12 30/23/12 58/34/12
f 78/35/13 77/36/13 76/37/13
f 70/38/14 52/24/14 63/26/14
f 73/39/15 81/40/15 80/41/15
f 55/42/16 21/20/16 22/43/16
f 15/44/17 6/45/17 16/46/17
f 77/47/18 67/28/18 80/48/18
f 12/49/19 3/50/19 13/51/19
f 46/52/20 47/53/20 74/54/20
f 42/55/21 60/56/21 43/57/21
f 35/58/22 60/56/22 25/59/22
f 6/45/23 17/60/23 16/46/23
f 35/61/24 16/62/24 37/63/24
f 18/3/25 10/64/25 20/1/25
f 20/1/1 40/11/1 39/2/1
f 34/6/26 24/65/26 63/66/26
f 66/67/27 53/68/27 68/69/27
f 19/4/2 14/70/2 36/5/2
f 59/71/28 26/32/28 60/56/28
f 19/7/3 34/72/3 33/8/3
f 20/1/4 11/73/4 32/10/4
f 45/74/20 74/54/20 48/75/20
f 48/76/29 75/12/29 44/77/29
f 39/2/30 59/78/30 38/79/30
f 40/11/31 50/19/31 62/80/31
f 67/81/32 71/82/32 72/83/32
f 49/84/33 21/20/33 50/19/33
f 31/85/34 50/19/34 32/10/34
f 34/86/35 51/87/35 33/88/35
f 57/89/36 23/90/36 29/91/36
f 33/92/37 49/93/37 31/94/37
f 42/95/38 47/53/38 46/52/38
f 62/80/39 28/96/39 61/97/39
f 65/98/40 69/99/40 64/31/40
f 41/100/41 25/101/41 42/102/41
f 43/14/42 70/103/42 75/12/42
f 1/104/43 12/105/43 11/73/43
f 56/106/44 22/107/44 23/108/44
f 17/109/45 8/110/45 18/3/45
f 61/97/46 27/111/46 59/78/46
f 29/91/47 23/90/47 51/112/47
f 30/113/48 62/114/48 50/115/48
f 29/21/8 63/116/8 62/22/8
f 31/117/49 13/9/49 33/8/49
f 9/118/50 14/70/50 19/4/50
f 73/39/51 67/81/51 72/83/51
f 4/119/52 15/120/52 14/121/52
f 77/122/53 66/67/53 68/69/53
f 70/123/54 26/124/54 71/82/54
f 38/125/55 18/126/55 39/127/55
f 51/128/56 22/107/56 49/93/56
f 46/129/57 41/100/57 42/102/57
f 52/130/58 53/27/58 62/131/58
f 53/27/59 52/130/59 67/28/59
f 44/132/60 24/65/60 41/133/60
f 27/30/61 65/98/61 64/31/61
f 44/132/62 45/134/62 48/135/62
f 81/136/20 73/137/20 69/138/20
f 79/139/13 78/35/13 76/37/13
f 77/36/13 80/140/13 81/136/13
f 78/141/63 65/142/63 66/67/63
f 35/61/64 14/143/64 15/144/64
f 44/77/65 70/103/65 63/145/65
f 58/146/20 56/147/20 57/148/20
f 31/117/66 11/149/66 12/150/66
f 65/142/67 28/96/67 66/67/67
f 36/151/68 25/101/68 24/152/68
f 64/153/69 73/39/69 72/83/69
f 58/154/70 21/20/70 54/155/70
f 70/123/54 71/82/54 52/156/54
f 38/125/71 16/62/71 17/157/71
f 64/153/72 71/82/72 26/124/72
f 13/158/73 9/159/73 19/160/73
f 37/161/74 59/71/74 60/56/74
f 10/64/75 11/73/75 20/1/75
f 77/36/76 69/138/76 76/37/76
f 65/98/77 79/162/77 76/163/77
f 40/11/78 61/97/78 39/2/78
f 55/164/20 58/146/20 54/165/20
f 75/12/79 74/166/79 47/13/79
f 57/33/80 29/21/80 30/23/80
f 55/42/81 54/155/81 21/20/81
f 15/44/17 5/167/17 6/45/17
f 77/47/82 68/29/82 67/28/82
f 12/49/19 2/168/19 3/50/19
f 42/55/83 25/59/83 60/56/83
f 35/58/84 37/161/84 60/56/84
f 6/45/23 7/169/23 17/60/23
f 35/61/24 15/144/24 16/62/24
f 18/3/25 8/110/25 10/64/25
f 34/6/85 36/5/85 24/65/85
f 66/67/86 28/96/86 53/68/86
f 59/71/87 27/30/87 26/32/87
f 45/74/20 46/52/20 74/54/20
f 48/76/88 74/166/88 75/12/88
f 39/2/30 61/97/30 59/78/30
f 40/11/31 32/10/31 50/19/31
f 67/81/89 52/156/89 71/82/89
f 49/84/33 22/43/33 21/20/33
f 31/85/34 49/84/34 50/19/34
f 34/86/35 63/170/35 51/87/35
f 57/89/90 56/171/90 23/90/90
f 33/92/37 51/128/37 49/93/37
f 42/95/91 43/172/91 47/53/91
f 62/80/92 53/68/92 28/96/92
f 65/98/77 76/163/77 69/99/77
f 41/100/93 24/152/93 25/101/93
f 43/14/94 60/173/94 70/103/94
f 1/104/43 2/174/43 12/105/43
f 56/106/95 55/175/95 22/107/95
f 17/109/45 7/176/45 8/110/45
f 61/97/96 28/96/96 27/111/96
f 31/117/49 12/150/49 13/9/49
f 9/118/50 4/177/50 14/70/50
f 73/39/15 80/41/15 67/81/15
f 4/119/52 5/178/52 15/120/52
f 77/122/53 78/141/53 66/67/53
f 70/123/97 60/179/97 26/124/97
f 38/125/55 17/157/55 18/126/55
f 51/128/98 23/108/98 22/107/98
f 46/129/99 45/180/99 41/100/99
f 44/132/100 63/66/100 24/65/100
f 44/132/101 41/133/101 45/134/101
f 78/141/63 79/181/63 65/142/63
f 35/61/64 36/182/64 14/143/64
f 44/77/102 75/12/102 70/103/102
f 31/117/66 32/183/66 11/149/66
f 65/142/103 27/111/103 28/96/103
f 36/151/104 35/184/104 25/101/104
f 64/153/105 69/185/105 73/39/105
f 58/154/106 30/18/106 21/20/106
f 38/125/71 37/63/71 16/62/71
f 64/153/107 72/83/107 71/82/107
f 13/158/73 3/186/73 9/159/73
f 37/161/108 38/187/108 59/71/108
f 10/64/75 1/104/75 11/73/75
f 77/36/109 81/136/109 69/138/109
f 40/11/78 62/80/78 61/97/78
f 55/164/20 56/147/20 58/146/20
