# Blender v2.77 (sub 0) OBJ File: 'LowPoly_Level_Kit_Rocks.blend'
# www.blender.org
g Rock_Round_crk_m_03
v 0.359835 0.040241 -0.598789
v 0.413880 0.022595 -0.548996
v 0.405210 0.040241 -0.671300
v 0.467516 0.022595 -0.590206
v 0.359835 -0.000109 -0.598789
v 0.413880 -0.000109 -0.548996
v 0.405210 -0.000109 -0.671300
v 0.467516 -0.000109 -0.590206
v 0.602607 0.032710 -0.433691
v 0.660408 0.022128 -0.405980
v 0.634459 0.025783 -0.497752
v 0.691635 0.015812 -0.465647
v 0.603189 -0.007378 -0.429143
v 0.660735 -0.000429 -0.403421
v 0.635041 -0.014305 -0.493204
v 0.691963 -0.006745 -0.463088
v 0.427642 0.038292 -0.385334
v 0.523118 0.017458 -0.469805
v 0.380861 0.038292 -0.496649
v 0.492176 0.017458 -0.543431
v 0.427642 -0.009349 -0.385334
v 0.523118 -0.009349 -0.469805
v 0.380861 -0.009349 -0.496649
v 0.492176 -0.009349 -0.543431
v 0.494515 0.027875 -0.399931
v 0.436519 0.027875 -0.520040
v 0.494515 -0.009349 -0.399931
v 0.436519 -0.009349 -0.520040
v 0.621878 0.033847 -0.633938
v 0.676478 0.023304 -0.681751
v 0.634608 0.017756 -0.732714
v 0.625607 -0.005473 -0.632722
v 0.678576 0.001179 -0.681066
v 0.636707 -0.004369 -0.732030
v 0.551385 0.108246 0.361223
v 0.420695 0.520607 -0.163014
v 0.568161 0.483447 -0.058500
v 0.676690 0.440685 0.002177
v 0.795856 0.222787 -0.111321
v 0.386019 -0.009430 -0.327435
v 0.566100 0.209574 -0.349084
v 0.639235 0.036138 0.239764
v 0.664099 -0.018473 -0.014705
v 0.758524 0.037779 0.032344
v 0.482184 0.234393 0.427298
v 0.511448 0.390778 0.309833
v 0.500047 0.329851 0.355597
v 0.216259 0.213792 0.451707
v -0.207904 0.288754 0.410341
v 0.127101 0.528225 0.143611
v 0.186455 0.483191 0.252090
v -0.215112 0.356116 0.360419
v 0.586002 -0.016269 0.133694
v 0.587631 0.008266 0.225085
v 0.459950 -0.012392 0.148675
v 0.243039 0.047524 0.372798
v 0.261131 -0.006277 0.172304
v 0.351731 0.043447 0.357146
v -0.181872 0.104192 0.322059
v -0.179319 0.007270 0.224649
v -0.535339 -0.001065 -0.185654
v 0.243932 0.529758 -0.249857
v 0.192610 -0.001094 -0.407139
v 0.236678 0.158232 -0.501535
v 0.357885 0.223342 -0.463469
v 0.023954 0.402183 -0.499346
v -0.270304 0.079801 -0.482153
v 0.114433 0.189845 -0.527576
v 0.092853 0.345684 -0.513094
v -0.797316 0.238307 0.080420
v -0.529917 0.048723 -0.245572
v -0.217208 0.271481 -0.475420
v 0.049615 0.538294 -0.286222
v -0.350767 0.545638 0.002824
v -0.023452 0.451519 -0.436489
v -0.354913 0.416748 -0.291318
v -0.532620 0.443719 -0.108397
v -0.783230 0.144685 0.218702
v -0.818284 0.204816 0.201204
v -0.248089 0.278690 0.437536
v -0.444168 0.182531 0.395961
v 0.018513 0.528347 0.109946
v -0.140504 0.535699 0.067146
v -0.507727 0.403271 0.241160
v -0.267294 0.345799 0.390532
v -0.319089 0.006291 0.302941
v -0.249287 -0.001782 0.248154
v -0.378035 -0.000970 -0.308040
v -0.253890 0.053034 -0.464965
v -0.041968 -0.000970 -0.420307
v -0.726610 0.064201 0.215519
v -0.605824 -0.001295 0.008064
v -0.485031 0.014716 0.312941
v -0.473316 -0.001656 0.229843
vt 0.2822 0.9539
vt 0.2857 0.9507
vt 0.2857 0.9551
vt 0.2856 0.9594
vt 0.2841 0.9551
vt 0.2856 0.9563
vt 0.2832 0.9553
vt 0.2837 0.9592
vt 0.2822 0.9595
vt 0.3352 0.9346
vt 0.3367 0.9318
vt 0.3368 0.9346
vt 0.2874 0.9475
vt 0.2864 0.9504
vt 0.2864 0.9475
vt 0.2789 0.9579
vt 0.2771 0.9616
vt 0.2771 0.9579
vt 0.2790 0.9612
vt 0.2818 0.9581
vt 0.2818 0.9613
vt 0.2820 0.9509
vt 0.2806 0.9532
vt 0.2805 0.9504
vt 0.3343 0.9318
vt 0.3352 0.9347
vt 0.3336 0.9347
vt 0.2797 0.9533
vt 0.2789 0.9507
vt 0.2864 0.9475
vt 0.2874 0.9446
vt 0.2874 0.9475
vt 0.2807 0.9644
vt 0.2789 0.9613
vt 0.2807 0.9613
vt 0.2822 0.9469
vt 0.2795 0.9504
vt 0.2798 0.9446
vt 0.2847 0.9494
vt 0.2831 0.9454
vt 0.2845 0.9446
vt 0.2773 0.9525
vt 0.2789 0.9546
vt 0.2768 0.9546
vt 0.2873 0.9507
vt 0.2861 0.9539
vt 0.2857 0.9507
vt 0.2822 0.9486
vt 0.2822 0.9458
vt 0.2768 0.9579
vt 0.2864 0.9598
vt 0.2849 0.9623
vt 0.2845 0.9595
vt 0.2777 0.9504
vt 0.2789 0.9525
vt 0.2864 0.9464
vt 0.2768 0.9451
vt 0.2768 0.9504
vt 0.2864 0.9551
vt 0.2873 0.9592
vt 0.2856 0.9592
vt 0.2825 0.9602
vt 0.2845 0.9595
vt 0.2845 0.9620
vt 0.2789 0.9557
vt 0.2810 0.9537
vt 0.2810 0.9581
vt 0.2771 0.9647
vt 0.2783 0.9616
vt 0.2789 0.9647
vt 0.2841 0.9627
vt 0.2822 0.9610
vt 0.2676 0.9608
vt 0.2623 0.9798
vt 0.2621 0.9611
vt 0.2645 0.9467
vt 0.2620 0.9526
vt 0.2619 0.9472
vt 0.3309 0.9768
vt 0.3351 0.9708
vt 0.3376 0.9716
vt 0.3108 0.9660
vt 0.3132 0.9616
vt 0.3178 0.9736
vt 0.3190 0.8867
vt 0.3239 0.8970
vt 0.3188 0.8950
vt 0.3477 0.9714
vt 0.3514 0.9828
vt 0.3302 0.9873
vt 0.3374 0.9938
vt 0.3323 0.9938
vt 0.3314 0.9800
vt 0.3299 0.9800
vt 0.2756 0.9624
vt 0.2675 0.9562
vt 0.3193 0.9484
vt 0.3291 0.9548
vt 0.3115 0.9585
vt 0.3145 0.9546
vt 0.2679 0.9798
vt 0.3137 0.9091
vt 0.3407 0.9938
vt 0.3299 0.9672
vt 0.2768 0.9512
vt 0.2707 0.9480
vt 0.3304 0.9174
vt 0.3317 0.8989
vt 0.3251 0.9184
vt 0.3336 0.9339
vt 0.3108 0.9127
vt 0.3126 0.9105
vt 0.3179 0.9218
vt 0.3318 0.9347
vt 0.2768 0.9814
vt 0.3336 0.8870
vt 0.3299 0.9347
vt 0.3105 0.9723
vt 0.2953 0.9786
vt 0.2875 0.9631
vt 0.3008 0.9343
vt 0.3105 0.9388
vt 0.2874 0.9450
vt 0.3064 0.9761
vt 0.2984 0.9803
vt 0.2862 0.9276
vt 0.2737 0.9363
vt 0.2773 0.9252
vt 0.2874 0.9164
vt 0.3623 0.9379
vt 0.3672 0.9483
vt 0.3652 0.9488
vt 0.3494 0.9472
vt 0.3463 0.9394
vt 0.3503 0.9347
vt 0.3325 0.9617
vt 0.3411 0.9525
vt 0.3321 0.9551
vt 0.3411 0.9409
vt 0.2692 0.9198
vt 0.2758 0.9036
vt 0.2823 0.8948
vt 0.2830 0.9014
vt 0.3528 0.9609
vt 0.3503 0.9495
vt 0.3577 0.9525
vt 0.3371 0.9247
vt 0.3519 0.9156
vt 0.3454 0.9256
vt 0.3336 0.9156
vt 0.3359 0.9100
vt 0.3673 0.9556
vt 0.3691 0.9579
vt 0.3551 0.9618
vt 0.3691 0.9403
vt 0.3302 0.9669
vt 0.3585 0.9360
vt 0.3308 0.9543
vt 0.3356 0.9358
vt 0.3384 0.9361
vt 0.3299 0.9464
vt 0.3532 0.9284
vt 0.2839 0.9446
vt 0.2874 0.9407
vt 0.2619 0.9321
vt 0.2838 0.8978
vt 0.3402 0.8867
vt 0.3429 0.8867
vt 0.3444 0.8917
vt 0.3337 0.8986
vt 0.3337 0.9075
vt 0.3367 0.8881
vt 0.3532 0.9048
vt 0.3503 0.9653
vt 0.3359 0.9244
vt 0.3325 0.9708
vt 0.3423 0.9703
vt 0.2691 0.8981
vt 0.2733 0.8867
vt 0.2633 0.9157
vt 0.2984 0.8867
vt 0.3108 0.8933
vt 0.2955 0.8878
vt 0.3009 0.9343
vt 0.2874 0.9238
vt 0.3108 0.9280
vt 0.2875 0.9052
vt 0.3104 0.8896
vt 0.2827 0.9507
vt 0.3358 0.9318
vt 0.2874 0.9504
vt 0.2789 0.9616
vt 0.2789 0.9582
vt 0.2820 0.9537
vt 0.3352 0.9318
vt 0.2864 0.9446
vt 0.2789 0.9644
vt 0.2822 0.9504
vt 0.2831 0.9482
vt 0.2873 0.9539
vt 0.2789 0.9579
vt 0.2864 0.9626
vt 0.2789 0.9504
vt 0.2864 0.9507
vt 0.2873 0.9551
vt 0.2773 0.9616
vt 0.2660 0.9446
vt 0.3560 0.9347
vt 0.3510 0.9318
vn 0.1535 0.9835 0.0961
vn -0.0000 -1.0000 -0.0000
vn 0.7930 0.0000 -0.6093
vn -0.6776 0.0000 0.7354
vn 0.6093 0.0000 0.7930
vn -0.8477 0.0000 -0.5305
vn 0.1864 0.9824 -0.0136
vn 0.0586 -0.9890 0.1361
vn 0.4752 -0.0924 -0.8750
vn -0.4159 0.0966 0.9043
vn 0.8869 0.0648 0.4573
vn -0.8963 -0.0628 -0.4389
vn 0.1643 0.9832 -0.0793
vn -0.3874 -0.0000 -0.9219
vn 0.9255 0.0000 0.3788
vn 0.9219 0.0000 -0.3874
vn -0.9219 0.0000 0.3874
vn 0.2133 0.0000 0.9770
vn 0.1568 0.9854 -0.0659
vn -0.9890 -0.0973 -0.1116
vn 0.1275 -0.9918 0.0032
vn 0.0561 0.9866 -0.1535
vn 0.6657 0.0861 0.7412
vn 0.7687 0.0532 -0.6374
vn 0.0011 -0.9658 0.2593
vn 0.4112 -0.8822 0.2295
vn 0.6118 -0.5585 -0.5602
vn 0.5570 0.6024 -0.5717
vn 0.8471 0.2086 0.4888
vn 0.1148 -0.4108 0.9045
vn -0.0309 -0.9995 -0.0014
vn -0.1760 -0.7001 0.6920
vn 0.2188 0.9378 0.2696
vn 0.2320 -0.7535 0.6151
vn 0.1573 0.9794 0.1263
vn -0.1566 0.8789 0.4505
vn 0.0273 0.5971 0.8017
vn -0.1644 -0.4444 0.8806
vn -0.6018 0.2353 -0.7632
vn -0.4549 0.2909 -0.8417
vn -0.9815 -0.1480 0.1215
vn -0.6954 0.2540 -0.6722
vn -0.9916 -0.1266 -0.0277
vn -0.5458 0.8270 0.1346
vn -0.2612 0.8855 -0.3843
vn -0.2568 -0.9545 0.1519
vn 0.5021 -0.5394 -0.6760
vn -0.0005 -1.0000 -0.0014
vn 0.0476 -0.5189 -0.8535
vn -0.1401 -0.8969 -0.4195
vn 0.0386 0.9989 0.0281
vn 0.3026 0.7543 -0.5827
vn -0.3910 0.4503 0.8027
vn -0.6925 0.2160 -0.6884
vn -0.4600 -0.6620 -0.5917
vn -0.0113 -0.9912 0.1316
vn 0.0310 -0.4493 0.8929
vn -0.4570 0.4187 0.7847
vn -0.1374 0.0728 -0.9878
vn 0.2370 0.1224 -0.9638
vn -0.3797 0.5667 -0.7312
vn -0.4101 -0.3222 0.8532
vn -0.0884 0.8737 0.4784
vn 0.6083 0.7789 -0.1526
vn -0.0994 0.8817 0.4612
vn -0.7886 -0.5434 -0.2876
vn -0.7824 -0.5234 -0.3374
vn -0.8976 -0.2957 -0.3269
vn -0.6792 0.2366 -0.6947
vn -0.0385 -0.9814 0.1879
vn 0.4111 0.6192 -0.6690
vn 0.9696 0.1341 -0.2047
vn 0.6247 -0.2767 0.7302
vn 0.7509 -0.2167 0.6239
vn 0.5047 -0.4846 0.7144
vn 0.8246 -0.2325 0.5157
vn 0.1442 0.9716 0.1877
vn 0.1778 0.9840 -0.0111
vn 0.0595 -0.9889 0.1358
vn 0.1567 0.9854 -0.0659
vn 0.1392 0.9880 -0.0672
vn -0.9890 -0.0972 -0.1116
vn -0.6656 0.2841 -0.6901
vn -0.6703 0.2311 -0.7052
vn -0.2208 0.1516 0.9635
vn 0.1503 0.7676 -0.6230
vn 0.7999 -0.2635 0.5391
s off
f 1/1/1 4/2/1 3/3/1
f 5/4/2 8/5/2 6/6/2
f 4/7/3 7/8/3 3/9/3
f 5/10/4 2/11/4 1/12/4
f 6/13/5 4/14/5 2/15/5
f 7/16/6 1/17/6 3/18/6
f 10/19/7 11/20/7 9/21/7
f 15/22/8 14/23/8 13/24/8
f 12/25/9 15/26/9 11/27/9
f 13/24/10 10/28/10 9/29/10
f 14/30/11 12/31/11 10/32/11
f 11/33/12 13/34/12 9/35/12
f 18/36/13 26/37/13 25/38/13
f 28/39/2 22/40/2 27/41/2
f 26/42/14 23/43/14 19/44/14
f 27/45/15 18/46/15 25/47/15
f 22/40/16 20/48/16 18/49/16
f 23/43/17 17/50/17 19/44/17
f 21/51/18 25/52/18 17/53/18
f 20/54/14 28/55/14 26/42/14
f 21/56/2 28/39/2 27/41/2
f 17/57/19 26/37/19 19/58/19
f 31/59/20 32/60/20 29/61/20
f 33/62/21 32/63/21 34/64/21
f 30/65/22 31/66/22 29/67/22
f 32/68/23 30/69/23 29/70/23
f 33/62/24 31/71/24 30/72/24
f 56/73/25 60/74/25 57/75/25
f 54/76/25 55/77/25 53/78/25
f 53/79/26 43/80/26 44/81/26
f 44/82/27 43/83/27 39/84/27
f 39/85/28 37/86/28 38/87/28
f 39/88/29 38/89/29 44/81/29
f 35/90/29 47/91/29 45/92/29
f 53/79/26 42/93/26 54/94/26
f 48/95/30 56/73/30 58/96/30
f 57/75/25 58/96/25 56/73/25
f 43/83/31 57/97/31 40/98/31
f 43/83/31 53/99/31 55/100/31
f 56/73/32 59/101/32 60/74/32
f 37/86/33 46/102/33 38/87/33
f 54/76/25 58/96/25 55/77/25
f 46/103/29 47/91/29 42/93/29
f 41/104/27 43/83/27 40/98/27
f 45/105/30 58/96/30 35/106/30
f 54/76/34 35/106/34 58/96/34
f 50/107/35 37/86/35 36/108/35
f 38/89/29 42/93/29 44/81/29
f 35/90/29 42/93/29 47/91/29
f 51/109/36 50/107/36 52/110/36
f 45/111/37 47/112/37 48/113/37
f 46/102/37 51/109/37 47/112/37
f 52/110/37 49/114/37 48/113/37
f 51/109/37 48/113/37 47/112/37
f 53/79/26 44/81/26 42/93/26
f 43/83/31 55/100/31 57/97/31
f 59/101/38 48/95/38 49/115/38
f 41/116/28 37/86/28 39/85/28
f 57/97/31 60/117/31 40/98/31
f 60/118/39 52/119/39 50/120/39
f 41/121/40 40/122/40 36/123/40
f 52/119/41 60/118/41 59/124/41
f 40/122/42 50/120/42 36/123/42
f 49/125/43 52/119/43 59/124/43
f 77/126/44 84/127/44 74/128/44
f 76/129/45 77/126/45 74/128/45
f 91/130/46 94/131/46 93/132/46
f 63/133/47 64/134/47 65/135/47
f 63/133/48 88/136/48 90/137/48
f 89/138/49 68/139/49 90/137/49
f 90/137/50 88/136/50 89/138/50
f 83/140/51 73/141/51 74/128/51
f 69/142/52 75/143/52 73/141/52
f 85/144/53 84/145/53 81/146/53
f 67/147/54 76/148/54 72/149/54
f 67/147/55 88/150/55 71/151/55
f 86/152/56 94/131/56 87/153/56
f 81/146/57 93/132/57 86/152/57
f 81/146/57 86/152/57 80/154/57
f 91/130/46 92/155/46 94/131/46
f 63/133/48 61/156/48 88/136/48
f 84/145/58 78/157/58 81/146/58
f 89/138/49 67/158/49 68/139/49
f 66/159/59 69/160/59 72/161/59
f 69/160/60 64/134/60 68/139/60
f 75/162/61 72/149/61 76/148/61
f 91/130/62 81/146/62 78/157/62
f 79/163/44 84/127/44 70/164/44
f 85/165/63 83/140/63 84/127/63
f 72/161/59 68/139/59 67/158/59
f 66/166/64 75/143/64 69/142/64
f 83/140/65 74/128/65 84/127/65
f 76/129/45 73/141/45 75/143/45
f 78/167/66 79/168/66 70/169/66
f 70/169/67 71/151/67 92/170/67
f 61/171/68 92/170/68 71/151/68
f 70/169/66 91/172/66 78/167/66
f 80/154/53 85/144/53 81/146/53
f 77/173/69 71/151/69 70/169/69
f 87/174/48 61/156/48 63/133/48
f 68/139/49 63/133/49 90/137/49
f 61/171/55 71/151/55 88/150/55
f 67/147/55 89/175/55 88/150/55
f 86/152/70 93/132/70 94/131/70
f 92/176/48 61/156/48 87/174/48
f 87/174/48 94/177/48 92/176/48
f 69/142/71 62/178/71 65/179/71
f 82/180/51 73/141/51 83/140/51
f 80/181/72 87/182/72 85/183/72
f 65/184/73 62/185/73 63/186/73
f 82/187/74 85/183/74 87/182/74
f 80/181/75 86/188/75 87/182/75
f 82/187/76 63/186/76 62/185/76
f 1/1/77 2/189/77 4/2/77
f 5/4/2 7/8/2 8/5/2
f 4/7/3 8/5/3 7/8/3
f 5/10/4 6/190/4 2/11/4
f 6/13/5 8/191/5 4/14/5
f 7/16/6 5/192/6 1/17/6
f 10/19/78 12/193/78 11/20/78
f 15/22/79 16/194/79 14/23/79
f 12/25/9 16/195/9 15/26/9
f 13/24/10 14/23/10 10/28/10
f 14/30/11 16/196/11 12/31/11
f 11/33/12 15/197/12 13/34/12
f 18/36/80 20/198/80 26/37/80
f 28/39/2 24/199/2 22/40/2
f 26/42/14 28/55/14 23/43/14
f 27/45/15 22/200/15 18/46/15
f 22/40/16 24/199/16 20/48/16
f 23/43/17 21/201/17 17/50/17
f 21/51/18 27/202/18 25/52/18
f 20/54/14 24/203/14 28/55/14
f 21/56/2 23/204/2 28/39/2
f 17/57/81 25/38/81 26/37/81
f 31/59/82 34/205/82 32/60/82
f 32/68/23 33/206/23 30/69/23
f 33/62/24 34/64/24 31/71/24
f 57/75/25 55/77/25 58/96/25
f 37/86/33 51/109/33 46/102/33
f 41/104/27 39/84/27 43/83/27
f 45/105/30 48/95/30 58/96/30
f 54/76/34 42/207/34 35/106/34
f 50/107/33 51/109/33 37/86/33
f 38/89/29 46/103/29 42/93/29
f 51/109/37 52/110/37 48/113/37
f 59/101/38 56/73/38 48/95/38
f 41/116/28 36/108/28 37/86/28
f 40/122/83 60/118/83 50/120/83
f 77/126/44 70/164/44 84/127/44
f 67/147/84 71/151/84 76/148/84
f 84/145/85 79/208/85 78/157/85
f 69/160/60 65/135/60 64/134/60
f 75/162/61 66/209/61 72/149/61
f 91/130/62 93/132/62 81/146/62
f 85/165/63 82/180/63 83/140/63
f 72/161/59 69/160/59 68/139/59
f 76/129/45 74/128/45 73/141/45
f 70/169/66 92/170/66 91/172/66
f 77/173/69 76/148/69 71/151/69
f 68/139/49 64/134/49 63/133/49
f 69/142/86 73/141/86 62/178/86
f 82/180/51 62/178/51 73/141/51
f 82/187/87 87/182/87 63/186/87
