# Blender v2.77 (sub 0) OBJ File: 'LowPoly_Level_Kit_Rocks.blend'
# www.blender.org
g Rock_Round_l_06
v -0.026179 0.004614 -0.418604
v -0.271689 0.004614 0.402535
v 0.219331 0.004614 0.402534
v 0.525478 0.004614 0.109474
v 0.416216 0.004614 -0.255967
v -0.009668 1.264287 -0.357876
v 0.356826 1.224638 -0.222256
v -0.009668 1.370697 -0.278996
v -0.295903 1.401664 -0.173075
v -0.168516 1.281471 0.255791
v 0.276568 1.233320 -0.173075
v -0.009668 1.587021 -0.276270
v -0.296669 1.581510 -0.168687
v -0.253181 1.851485 -0.076999
v -0.373936 0.004614 -0.290758
v -0.497681 0.004614 0.186203
v -0.332176 1.299177 -0.238532
v -0.341800 1.300218 -0.201200
v -0.146472 1.279087 0.326860
v -0.240448 0.727586 0.369352
v -0.357399 1.301906 0.033959
v -0.224882 1.291768 0.164082
v -0.182073 1.282938 0.277422
v -0.337738 1.601733 -0.031740
v -0.168662 1.413259 0.255460
v -0.268604 1.856798 -0.016599
v -0.390551 1.305492 -0.012076
v -0.488408 0.131100 0.179668
v 0.005603 1.589244 -0.270832
v 0.276838 1.372778 -0.173424
v -0.145481 1.883125 -0.125860
v -0.015186 1.617053 -0.265402
v 0.417398 1.218085 -0.018332
v 0.215618 0.811023 0.360829
v 0.485147 0.890863 0.088926
v 0.173469 1.254955 0.255791
v 0.340825 1.226369 0.043257
v -0.011772 1.264514 0.326860
v -0.155122 1.924155 0.116459
v -0.126378 1.602129 0.254597
v -0.071040 1.941004 0.035710
v 0.315724 1.441995 -0.044210
vt 0.3896 0.9693
vt 0.3858 0.9825
vt 0.3822 0.9831
vt 0.4004 0.9857
vt 0.3964 0.9830
vt 0.3973 0.9827
vt 0.4742 0.9472
vt 0.4772 0.9474
vt 0.4772 0.9527
vt 0.4368 0.9064
vt 0.4362 0.9065
vt 0.4361 0.9052
vt 0.4757 0.8940
vt 0.4830 0.8900
vt 0.4835 0.8944
vt 0.4146 0.9693
vt 0.4226 0.9635
vt 0.4230 0.9686
vt 0.4517 0.9114
vt 0.4772 0.9600
vt 0.4818 0.9584
vt 0.4818 0.9829
vt 0.3960 0.9759
vt 0.3948 0.9812
vt 0.3969 0.9184
vt 0.4105 0.9120
vt 0.4104 0.9173
vt 0.4506 0.9215
vt 0.4601 0.9328
vt 0.4526 0.9703
vt 0.3954 0.9366
vt 0.3822 0.9683
vt 0.3839 0.9325
vt 0.4339 0.9703
vt 0.4350 0.9199
vt 0.4659 0.9407
vt 0.4680 0.9583
vt 0.4621 0.9504
vt 0.4707 0.9464
vt 0.3864 0.9190
vt 0.3896 0.9188
vt 0.4044 0.9182
vt 0.4096 0.8909
vt 0.4088 0.9043
vt 0.4061 0.8900
vt 0.3904 0.9099
vt 0.4362 0.9151
vt 0.4484 0.9206
vt 0.4850 0.8945
vt 0.4850 0.9464
vt 0.4654 0.9457
vt 0.4230 0.9684
vt 0.4249 0.9168
vt 0.4540 0.9194
vt 0.4483 0.9150
vt 0.4135 0.9400
vt 0.4098 0.9176
vt 0.4067 0.9706
vt 0.4085 0.9693
vt 0.4085 0.9781
vt 0.4678 0.9690
vt 0.4767 0.9605
vt 0.4717 0.9728
vt 0.4272 0.9052
vt 0.4385 0.8900
vt 0.4334 0.8933
vt 0.4653 0.9688
vt 0.3857 0.9909
vt 0.4067 0.9707
vt 0.4004 0.9761
vt 0.4023 0.9693
vt 0.4743 0.8937
vt 0.4621 0.9146
vt 0.3948 0.9928
vt 0.3896 0.9708
vt 0.3911 0.9704
vt 0.4791 0.9464
vt 0.3948 0.9693
vt 0.4067 0.9780
vt 0.4020 0.9781
vt 0.4301 0.8939
vt 0.4004 0.9693
vt 0.3952 0.9693
vt 0.4621 0.9679
vt 0.4559 0.9204
vt 0.4272 0.9123
vt 0.4623 0.9576
vt 0.3896 0.9908
vn 0.1076 0.9942 -0.0000
vn 0.1435 0.9894 0.0229
vn -0.8519 0.0004 0.5237
vn 0.2632 0.3707 -0.8907
vn -0.8597 0.4539 -0.2343
vn -0.6888 0.0877 0.7196
vn 0.6422 0.5783 -0.5031
vn -0.6636 0.2719 0.6970
vn 0.0002 0.0025 1.0000
vn 0.9425 0.0550 -0.3297
vn 0.7022 0.0484 0.7103
vn 0.3506 0.0405 -0.9356
vn -0.9673 0.0397 -0.2505
vn -0.9587 0.0005 -0.2845
vn 0.6084 0.3581 0.7082
vn 0.3582 0.2470 0.9004
vn 0.5037 0.5144 -0.6940
vn -0.9672 0.0413 -0.2505
vn -0.9663 0.0579 -0.2507
vn -0.3420 0.0489 -0.9384
vn -0.2268 0.5800 -0.7824
vn 0.9582 -0.0045 -0.2860
vn 0.0082 0.0754 0.9971
vn -0.3496 0.8804 0.3204
vn -0.7915 0.1799 0.5840
vn -0.6974 0.0629 0.7139
vn -0.3431 0.2633 -0.9017
vn -0.9279 0.2670 -0.2604
vn 0.3339 0.0119 -0.9425
vn 0.3458 -0.0030 -0.9383
vn -0.8584 0.0115 0.5129
vn -0.3480 0.9220 -0.1700
vn -0.8123 0.1593 0.5610
vn -0.6788 0.1994 0.7068
vn -0.9199 0.1562 0.3596
vn -0.3480 0.9220 -0.1699
vn -0.4704 0.3508 -0.8097
vn 0.0771 0.9948 0.0672
vn 0.0010 0.0043 1.0000
vn 0.0092 0.0517 0.9986
vn 0.6558 0.2322 0.7183
vn 0.7655 0.3164 0.5602
vn 0.9574 0.0369 -0.2863
vn 0.9542 0.1058 -0.2800
vn -0.3513 0.0213 -0.9360
vn 0.6909 0.0405 0.7218
vn 0.3447 0.0427 -0.9377
vn -0.9682 0.0411 -0.2466
vn -0.9577 0.0029 -0.2877
vn -0.3446 0.0497 -0.9374
vn 0.9586 -0.0026 -0.2848
vn 0.0046 0.0770 0.9970
vn -0.9156 0.2535 -0.3120
vn 0.3457 0.0109 -0.9383
vn -0.3436 0.2987 -0.8903
vn 0.0000 0.0458 0.9989
vn 0.7471 0.3942 0.5352
vn 0.5996 0.5199 0.6085
vn -0.3459 0.0118 -0.9382
s off
f 6/1/1 11/2/1 7/3/1
f 22/4/2 23/5/2 10/6/2
f 22/7/3 10/8/3 25/9/3
f 29/10/4 12/11/4 32/12/4
f 27/13/5 9/14/5 18/15/5
f 2/16/6 28/17/6 16/18/6
f 42/19/7 29/10/7 32/12/7
f 22/20/8 21/21/8 20/22/8
f 38/23/1 10/6/1 19/24/1
f 36/25/9 25/26/9 10/27/9
f 7/28/10 35/29/10 5/30/10
f 34/31/11 4/32/11 35/33/11
f 7/28/12 1/34/12 6/35/12
f 18/15/13 28/36/13 27/13/13
f 24/37/14 9/38/14 21/39/14
f 35/33/15 33/40/15 37/41/15
f 36/25/16 38/42/16 34/31/16
f 39/43/15 40/44/15 41/45/15
f 42/46/15 41/45/15 40/44/15
f 6/35/17 8/47/17 11/48/17
f 18/15/18 17/49/18 15/50/18
f 15/50/19 16/51/19 28/36/19
f 6/35/20 15/52/20 17/53/20
f 17/53/21 8/47/21 6/35/21
f 37/54/22 30/55/22 42/19/22
f 17/49/5 18/15/5 9/14/5
f 20/56/23 38/42/23 19/57/23
f 27/58/24 21/59/24 9/60/24
f 26/61/25 40/62/25 39/63/25
f 2/16/26 20/56/26 28/17/26
f 32/12/27 12/11/27 13/64/27
f 41/65/7 32/12/7 31/66/7
f 14/67/28 24/37/28 26/61/28
f 11/2/1 33/68/1 7/3/1
f 8/47/29 12/11/29 29/10/29
f 8/47/30 30/55/30 11/48/30
f 30/55/7 29/10/7 42/19/7
f 22/7/31 25/9/31 24/37/31
f 41/69/32 26/70/32 39/71/32
f 21/72/25 27/13/25 20/73/25
f 28/36/33 20/73/33 27/13/33
f 20/74/25 19/75/25 23/76/25
f 24/77/34 21/21/34 22/20/34
f 25/9/25 40/62/25 24/37/25
f 20/74/35 23/76/35 22/78/35
f 31/79/36 14/80/36 26/70/36
f 31/66/37 13/64/37 14/81/37
f 23/5/1 19/24/1 10/6/1
f 38/23/38 36/82/38 10/6/38
f 36/25/39 40/44/39 25/26/39
f 20/56/40 3/83/40 34/31/40
f 35/33/41 36/25/41 34/31/41
f 42/46/42 36/25/42 37/41/42
f 4/84/43 5/30/43 35/29/43
f 7/28/44 33/85/44 35/29/44
f 12/11/45 9/86/45 13/64/45
f 34/31/46 3/83/46 4/32/46
f 7/28/47 5/30/47 1/34/47
f 18/15/48 15/50/48 28/36/48
f 24/37/49 13/87/49 9/38/49
f 6/35/50 1/34/50 15/52/50
f 17/53/21 9/86/21 8/47/21
f 37/54/51 11/48/51 30/55/51
f 20/56/52 34/31/52 38/42/52
f 26/61/25 24/37/25 40/62/25
f 41/65/7 42/19/7 32/12/7
f 14/67/53 13/87/53 24/37/53
f 11/2/1 37/88/1 33/68/1
f 8/47/54 29/10/54 30/55/54
f 41/69/32 31/79/32 26/70/32
f 31/66/55 32/12/55 13/64/55
f 20/56/56 2/16/56 3/83/56
f 35/33/57 37/41/57 36/25/57
f 42/46/58 40/44/58 36/25/58
f 12/11/59 8/47/59 9/86/59
