# Blender v2.77 (sub 0) OBJ File: 'LowPoly_Level_Kit_Rocks.blend'
# www.blender.org
g Rock_Round_l_04
v 0.000000 0.000000 -0.962461
v -0.690306 0.000000 -0.680563
v -0.796730 0.000000 0.000000
v -0.690306 0.000000 0.680563
v 0.000000 0.000000 0.962461
v 0.428735 0.000000 0.680563
v 0.714669 0.000000 -0.000000
v 0.428735 0.000000 -0.680563
v -0.625592 0.613048 -0.602414
v -0.701087 0.613048 0.000000
v -0.625592 0.613048 0.602414
v 0.001264 0.613048 0.851942
v 0.359777 0.613048 0.602414
v 0.619429 0.613048 -0.000000
v 0.359777 0.613048 -0.602414
v 0.001264 0.613048 -0.645541
v -0.348989 0.657239 -0.456466
v -0.551542 0.638342 0.000000
v -0.473723 0.613048 0.416443
v 0.001264 0.686377 0.718965
v 0.288131 0.660682 0.606985
v 0.435188 0.696200 -0.000000
v 0.288131 0.685075 -0.533561
v -0.003144 1.177955 -0.519373
v -0.284942 1.177955 -0.367252
v -0.250409 1.300300 0.009577
v -0.318581 1.177955 0.333451
v -0.002938 1.177955 0.459097
v 0.180327 1.177955 0.387558
v 0.271718 1.300300 0.009577
v 0.227656 1.177955 -0.429279
v -0.385297 1.177955 0.440677
v -0.374799 1.177955 0.000000
v -0.003144 1.177955 0.592798
v 0.227656 1.177955 0.502703
v 0.345972 1.177955 -0.000000
v 0.122377 1.629357 0.350926
v -0.002594 1.314337 -0.405519
v -0.159157 1.314337 -0.321002
v 0.125637 1.314337 -0.355463
v -0.164785 1.314337 -0.038677
v 0.191372 1.314337 -0.038677
v -0.002521 1.487305 -0.390479
v 0.112532 1.482530 -0.345982
v 0.161136 1.570417 -0.118940
v 0.059936 1.629357 0.375300
v -0.008092 1.567796 0.409936
v -0.252880 1.532869 0.316715
v 0.185686 1.629357 0.121226
v -0.199937 1.558887 0.091157
v 0.188080 1.628438 0.113100
v -0.141062 1.502706 -0.314348
v -0.142721 1.536077 -0.108177
v 0.118262 1.578290 -0.121408
v -0.052184 1.510091 -0.361683
v -0.017530 1.629357 0.332894
v -0.232752 1.582471 0.269822
v -0.170932 0.613048 -0.783397
v 0.098250 0.613048 -0.784439
v 0.000605 0.293503 -0.909549
v 0.001264 0.613048 -0.730080
vt 0.6006 0.8932
vt 0.5978 0.9008
vt 0.5991 0.8912
vt 0.5426 0.9293
vt 0.5511 0.9174
vt 0.5465 0.9356
vt 0.5999 0.9479
vt 0.6102 0.9424
vt 0.6105 0.9474
vt 0.5790 0.9877
vt 0.5892 0.9897
vt 0.5757 0.9897
vt 0.6124 0.9046
vt 0.6006 0.9046
vt 0.6011 0.9006
vt 0.5214 0.9879
vt 0.5252 0.9697
vt 0.5252 0.9917
vt 0.5508 0.9627
vt 0.5464 0.9472
vt 0.5508 0.9408
vt 0.5713 0.9462
vt 0.5907 0.9279
vt 0.5903 0.9462
vt 0.5257 0.9850
vt 0.5257 0.9832
vt 0.5276 0.9811
vt 0.5416 0.9806
vt 0.5418 0.9762
vt 0.5491 0.9756
vt 0.6102 0.9506
vt 0.5923 0.9256
vt 0.5322 0.8950
vt 0.5325 0.8924
vt 0.5380 0.8915
vt 0.5713 0.9652
vt 0.5511 0.9468
vt 0.5701 0.9468
vt 0.5907 0.9649
vt 0.6010 0.9775
vt 0.6102 0.9608
vt 0.6102 0.9773
vt 0.5802 0.8904
vt 0.5678 0.9838
vt 0.5516 0.9902
vt 0.5522 0.9836
vt 0.5188 0.9323
vt 0.5271 0.9369
vt 0.5265 0.9408
vt 0.5466 0.9169
vt 0.5298 0.8904
vt 0.5590 0.9108
vt 0.5635 0.9227
vt 0.5589 0.9206
vt 0.5422 0.9022
vt 0.5511 0.8987
vt 0.5380 0.9697
vt 0.5256 0.9525
vt 0.5370 0.9533
vt 0.6071 0.9821
vt 0.5537 0.9204
vt 0.5511 0.9134
vt 0.5272 0.9731
vt 0.5395 0.9798
vt 0.5713 0.9280
vt 0.5742 0.9707
vt 0.5754 0.9779
vt 0.5713 0.9778
vt 0.5788 0.9091
vt 0.5788 0.9256
vt 0.5395 0.9850
vt 0.5907 0.9636
vt 0.5986 0.9598
vt 0.5983 0.9830
vt 0.6019 0.9822
vt 0.5166 0.9318
vt 0.5166 0.9132
vt 0.5407 0.9756
vt 0.5506 0.9712
vt 0.5508 0.9756
vt 0.5409 0.9644
vt 0.5252 0.9807
vt 0.5777 0.9723
vt 0.5897 0.9675
vt 0.5214 0.9719
vt 0.5464 0.9580
vt 0.5511 0.9712
vt 0.6091 0.9127
vt 0.6021 0.9128
vt 0.6015 0.9077
vt 0.5231 0.8975
vt 0.5480 0.9874
vt 0.5132 0.9865
vt 0.5819 0.9244
vt 0.6006 0.9211
vt 0.5279 0.9474
vt 0.5493 0.9756
vt 0.5629 0.8939
vt 0.5638 0.9094
vt 0.5110 0.9686
vt 0.5122 0.9510
vt 0.5407 0.9780
vt 0.5393 0.9478
vt 0.6006 0.9093
vt 0.5110 0.9124
vt 0.5307 0.9408
vt 0.5365 0.9484
vt 0.5382 0.9570
vt 0.5380 0.9557
vt 0.6042 0.9882
vt 0.6071 0.9879
vt 0.6025 0.9875
vt 0.5479 0.9631
vt 0.5423 0.9627
vt 0.6052 0.8904
vt 0.6113 0.9579
vt 0.6049 0.8904
vt 0.5923 0.9598
vt 0.5907 0.9479
vt 0.6092 0.9046
vt 0.6028 0.9049
vt 0.6113 0.9277
vt 0.5992 0.9881
vt 0.5719 0.9256
vt 0.5524 0.9676
vt 0.5719 0.9675
vt 0.5788 0.9020
vt 0.5678 0.9919
vt 0.5234 0.9697
vt 0.5376 0.9697
vt 0.5524 0.9256
vt 0.5945 0.9788
vt 0.5255 0.9737
vt 0.5678 0.9676
vt 0.6092 0.9140
vt 0.5211 0.8950
vt 0.5424 0.9874
vt 0.5110 0.9747
vt 0.5788 0.8904
vt 0.5369 0.9426
vt 0.6122 0.8906
vn 0.4503 0.6153 0.6470
vn 0.0000 1.0000 0.0000
vn 0.2607 0.4723 -0.8420
vn 0.8134 0.4664 0.3476
vn -0.0000 0.0780 -0.9970
vn 0.0000 0.2728 0.9621
vn -0.9806 0.1530 0.1229
vn 0.3609 0.1214 0.9247
vn -0.4389 0.4407 -0.7830
vn -0.3716 0.1615 -0.9142
vn 0.9091 0.1412 0.3919
vn -0.9806 0.1530 -0.1229
vn -0.4650 0.2048 -0.8613
vn 0.5633 0.1665 0.8093
vn 0.3534 0.2355 0.9053
vn 0.2579 0.8461 0.4666
vn -0.1661 0.9819 0.0907
vn -0.1007 0.9915 -0.0822
vn 0.7488 0.6443 -0.1554
vn -0.0675 0.9832 -0.1697
vn -0.9591 0.1582 -0.2347
vn -0.3825 0.5930 -0.7085
vn 0.9732 0.0442 -0.2255
vn -0.3675 0.1116 0.9233
vn 0.9091 0.1412 -0.3919
vn 0.9487 0.1725 -0.2651
vn 0.3094 0.2096 -0.9275
vn 0.2873 0.6132 -0.7359
vn 0.5525 0.8135 0.1815
vn -0.7009 0.7034 0.1182
vn -0.9748 0.1739 -0.1395
vn -0.3355 0.7155 0.6128
vn -0.3600 0.2289 0.9044
vn 0.1880 0.9017 -0.3893
vn -0.1918 0.9722 -0.1339
vn -0.1655 0.9733 -0.1589
vn -0.0000 0.3009 -0.9537
vn -0.3653 0.1556 0.9178
vn -0.5571 0.8192 -0.1363
vn 0.9580 0.1774 0.2255
vn -0.9875 0.1556 -0.0235
vn 0.0000 0.2991 0.9542
vn 0.4078 0.9036 -0.1312
vn -0.9955 0.0928 -0.0198
vn -0.4736 0.0765 -0.8774
vn -0.1455 0.9891 -0.0236
vn -0.9591 0.1980 -0.2023
vn 0.9480 0.1533 0.2788
vn 0.5652 0.1452 -0.8121
vn 0.9517 0.1598 0.2623
vn 0.5434 0.1479 -0.8264
vn -0.3729 0.1654 -0.9130
vn -0.3653 0.1556 -0.9178
vn 0.3625 0.0806 -0.9285
vn -0.9805 0.1230 0.1533
vn 0.9113 0.1513 0.3829
vn -0.9805 0.1230 -0.1533
vn -0.4474 0.1916 -0.8736
vn 0.5434 0.1479 0.8264
vn 0.3717 0.2250 0.9007
vn -0.1888 0.8599 0.4742
vn 0.6758 0.7132 -0.1862
vn 0.0748 0.9928 -0.0935
vn -0.8797 0.2881 -0.3784
vn 0.9754 0.0874 -0.2024
vn 0.9113 0.1513 -0.3829
vn 0.9490 0.1758 -0.2616
vn 0.3535 0.2349 -0.9055
vn 0.4051 0.8975 0.1746
vn -0.9494 0.2466 -0.1944
vn -0.5419 0.0488 0.8390
vn 0.3396 0.8042 -0.4879
vn -0.3729 0.1654 0.9130
vn -0.7325 0.6806 -0.0146
vn 0.9571 0.1605 0.2413
vn -0.9325 0.3054 0.1928
vn 0.5621 0.7908 -0.2423
vn -0.9951 0.0964 -0.0236
vn -0.1667 0.9858 -0.0209
vn 0.9540 0.1438 0.2629
vn 0.5513 0.1662 -0.8176
s off
f 21/1/1 12/2/1 13/3/1
f 19/4/2 10/5/2 11/6/2
f 60/7/3 58/8/3 61/9/3
f 27/10/2 33/11/2 32/12/2
f 29/13/4 36/14/4 30/15/4
f 26/16/5 36/17/5 33/18/5
f 36/19/6 41/20/6 33/21/6
f 3/22/7 11/23/7 10/24/7
f 37/25/8 46/26/8 47/27/8
f 56/28/2 37/29/2 49/30/2
f 59/31/9 60/7/9 61/9/9
f 58/8/10 60/7/10 2/32/10
f 16/33/2 61/34/2 58/35/2
f 13/36/11 7/37/11 14/38/11
f 9/39/12 3/22/12 10/24/12
f 24/40/13 17/41/13 25/42/13
f 12/2/14 6/43/14 13/3/14
f 20/44/15 35/45/15 34/46/15
f 21/47/16 20/48/16 12/49/16
f 19/4/17 18/50/17 10/5/17
f 59/51/2 61/34/2 16/33/2
f 11/6/18 20/48/18 19/4/18
f 42/52/19 31/53/19 40/54/19
f 17/55/20 58/35/20 9/56/20
f 17/57/21 33/58/21 25/59/21
f 39/60/22 24/40/22 25/42/22
f 42/52/23 44/61/23 45/62/23
f 48/63/24 28/64/24 47/27/24
f 7/37/25 15/65/25 14/38/25
f 35/66/2 28/67/2 34/68/2
f 31/53/26 22/69/26 23/70/26
f 29/71/8 47/27/8 28/64/8
f 24/40/27 23/72/27 16/73/27
f 40/74/28 24/40/28 38/75/28
f 13/76/29 22/77/29 21/47/29
f 27/78/30 26/79/30 33/80/30
f 48/81/31 26/79/31 27/78/31
f 56/82/32 48/63/32 47/27/32
f 29/83/2 35/66/2 36/84/2
f 26/16/5 30/85/5 36/17/5
f 36/19/6 42/86/6 41/20/6
f 32/87/33 20/44/33 34/46/33
f 54/88/34 44/89/34 55/90/34
f 23/91/35 59/51/35 16/33/35
f 50/92/36 56/28/36 49/30/36
f 50/93/37 30/85/37 26/16/37
f 4/94/38 12/2/38 11/95/38
f 41/96/39 25/59/39 33/58/39
f 51/97/36 50/92/36 49/30/36
f 35/98/40 22/69/40 36/99/40
f 33/58/41 19/100/41 32/101/41
f 56/28/2 46/102/2 37/29/2
f 42/86/42 53/103/42 41/20/42
f 46/26/32 56/82/32 47/27/32
f 44/89/34 43/104/34 55/90/34
f 14/105/43 23/91/43 22/77/43
f 53/106/44 39/107/44 41/96/44
f 42/86/42 45/108/42 54/109/42
f 55/110/45 39/60/45 52/111/45
f 43/112/45 38/75/45 55/110/45
f 9/56/46 18/50/46 17/55/46
f 32/12/2 28/67/2 27/10/2
f 50/113/47 48/81/47 57/114/47
f 49/115/48 29/13/48 30/15/48
f 15/116/49 60/7/49 59/31/49
f 30/15/50 51/117/50 49/115/50
f 8/118/51 1/119/51 60/7/51
f 53/120/36 55/90/36 52/121/36
f 1/119/52 2/32/52 60/7/52
f 9/122/53 58/8/53 2/32/53
f 44/123/54 38/75/54 43/112/54
f 3/22/55 4/124/55 11/23/55
f 13/36/56 6/125/56 7/37/56
f 9/39/57 2/126/57 3/22/57
f 24/40/58 16/73/58 17/41/58
f 12/2/59 5/127/59 6/43/59
f 20/44/60 21/128/60 35/45/60
f 11/6/61 12/49/61 20/48/61
f 42/52/62 36/99/62 31/53/62
f 17/55/63 16/33/63 58/35/63
f 17/57/64 18/129/64 33/58/64
f 39/60/22 38/75/22 24/40/22
f 42/52/65 40/54/65 44/61/65
f 48/63/24 27/130/24 28/64/24
f 7/37/66 8/131/66 15/65/66
f 35/66/2 29/83/2 28/67/2
f 31/53/67 36/99/67 22/69/67
f 29/71/8 37/25/8 47/27/8
f 24/40/68 31/132/68 23/72/68
f 40/74/28 31/132/28 24/40/28
f 13/76/69 14/105/69 22/77/69
f 48/81/70 50/113/70 26/79/70
f 56/82/32 57/133/32 48/63/32
f 32/87/71 19/134/71 20/44/71
f 54/88/34 45/135/34 44/89/34
f 23/91/72 15/136/72 59/51/72
f 50/92/36 57/137/36 56/28/36
f 50/93/37 51/138/37 30/85/37
f 4/94/73 5/127/73 12/2/73
f 41/96/74 39/107/74 25/59/74
f 35/98/75 21/139/75 22/69/75
f 33/58/76 18/129/76 19/100/76
f 42/86/42 54/109/42 53/103/42
f 14/105/77 15/136/77 23/91/77
f 53/106/78 52/140/78 39/107/78
f 55/110/45 38/75/45 39/60/45
f 9/56/79 10/5/79 18/50/79
f 32/12/2 34/68/2 28/67/2
f 49/115/80 37/141/80 29/13/80
f 15/116/81 8/118/81 60/7/81
f 53/120/36 54/88/36 55/90/36
f 44/123/54 40/74/54 38/75/54
