# Blender v2.77 (sub 0) OBJ File: 'LowPoly_Level_Kit_Rocks.blend'
# www.blender.org
g Rocks_Round_s_05.001
v -0.197820 0.020812 -0.131901
v -0.204998 0.020812 -0.109809
v -0.228228 0.020812 -0.109809
v -0.235406 0.020812 -0.131901
v -0.216613 0.020812 -0.145555
v -0.168772 -0.000862 -0.141339
v -0.187045 -0.000862 -0.085099
v -0.246181 -0.000862 -0.085099
v -0.264454 -0.000862 -0.141339
v -0.216613 -0.000862 -0.176098
v -0.176669 0.000283 0.100516
v -0.202128 0.000283 0.117493
v -0.191308 0.000283 0.145862
v -0.161853 0.000283 0.145862
v -0.152751 0.000283 0.117848
v -0.176581 0.011078 0.115748
v -0.186009 0.011078 0.122535
v -0.182366 0.011078 0.133553
v -0.170795 0.011078 0.133553
v -0.167220 0.011078 0.122549
v -0.016264 0.044264 0.039158
v -0.022390 0.044264 -0.061578
v 0.038783 0.044264 -0.035359
v 0.106080 -0.001233 -0.005733
v -0.050321 -0.001233 -0.095799
v 0.023050 -0.003679 -0.116494
v -0.073817 0.044264 0.010297
v -0.081426 -0.001233 0.075599
v -0.100671 -0.001233 -0.023248
v 0.048117 -0.001233 0.079025
v -0.030887 -0.001233 0.103488
v 0.084223 -0.003679 -0.090275
v 0.172069 -0.000665 0.056812
v 0.118138 -0.000665 0.092775
v 0.141058 -0.000665 0.152872
v 0.203456 -0.000665 0.152872
v 0.222739 -0.000665 0.093527
v 0.172257 0.022206 0.089079
v 0.152284 0.022206 0.103457
v 0.160001 0.022206 0.126798
v 0.184513 0.022206 0.126798
v 0.192087 0.022206 0.103487
vt 0.6659 0.9184
vt 0.6657 0.9391
vt 0.6512 0.9387
vt 0.6708 0.9453
vt 0.6659 0.9588
vt 0.6896 0.9261
vt 0.6699 0.9323
vt 0.6782 0.9421
vt 0.6896 0.9510
vt 0.8070 0.9413
vt 0.8165 0.9443
vt 0.8045 0.9481
vt 0.8106 0.9358
vt 0.8046 0.9283
vt 0.8165 0.9318
vt 0.8044 0.9381
vt 0.7967 0.9380
vt 0.9181 0.9354
vt 0.9459 0.9543
vt 0.9178 0.9563
vt 0.8885 0.9517
vt 0.9494 0.9318
vt 0.9137 0.9016
vt 0.9561 0.9000
vt 0.9783 0.9536
vt 0.9555 0.9760
vt 0.9812 0.9259
vt 0.8885 0.9268
vt 0.9192 0.9799
vt 0.5682 0.9411
vt 0.5884 0.9475
vt 0.5630 0.9555
vt 0.5758 0.9295
vt 0.5630 0.9135
vt 0.5884 0.9209
vt 0.5627 0.9343
vt 0.5465 0.9342
vt 0.6777 0.9341
vt 0.5679 0.9277
vt 0.8068 0.9350
vt 0.8108 0.9398
vt 0.5763 0.9379
vn -0.6271 0.7518 0.2038
vn -0.3876 0.7518 -0.5335
vn 0.0000 0.7518 0.6594
vn 0.6271 0.7518 0.2038
vn 0.3876 0.7518 -0.5335
vn 0.3874 0.7511 -0.5346
vn -0.3522 0.7726 -0.5282
vn -0.5898 0.7756 0.2249
vn 0.0000 1.0000 0.0000
vn -0.2658 0.8052 0.5301
vn 0.4398 0.8463 0.3007
vn -0.1834 0.6603 -0.7282
vn 0.6038 0.7769 -0.1786
vn 0.2262 0.8188 -0.5277
vn 0.1843 0.7822 0.5951
vn -0.8990 0.4016 0.1750
vn -0.6006 0.6823 -0.4168
vn -0.3834 0.7546 -0.5326
vn -0.6248 0.7530 0.2066
vn -0.2817 0.8124 0.5105
vn 0.4153 0.8564 0.3068
vn -0.6018 0.6727 -0.4306
s off
f 8/1/1 4/2/1 9/3/1
f 9/3/2 5/4/2 10/5/2
f 7/6/3 3/7/3 8/1/3
f 1/8/4 7/6/4 6/9/4
f 5/4/5 6/9/5 10/5/5
f 16/10/6 15/11/6 11/12/6
f 19/13/3 13/14/3 14/15/3
f 17/16/7 11/12/7 12/17/7
f 15/11/4 19/13/4 14/15/4
f 13/14/8 17/16/8 12/17/8
f 21/18/9 22/19/9 27/20/9
f 28/21/10 21/18/10 27/20/10
f 23/22/11 30/23/11 24/24/11
f 22/19/12 26/25/12 25/26/12
f 24/24/13 32/27/13 23/22/13
f 23/22/14 26/25/14 22/19/14
f 30/23/15 21/18/15 31/28/15
f 28/21/16 27/20/16 29/29/16
f 29/29/17 22/19/17 25/26/17
f 38/30/6 37/31/6 33/32/6
f 41/33/3 35/34/3 36/35/3
f 39/36/7 33/32/7 34/37/7
f 37/31/4 41/33/4 36/35/4
f 35/34/8 39/36/8 34/37/8
f 3/7/9 2/38/9 1/8/9
f 40/39/9 38/30/9 39/36/9
f 18/40/9 19/13/9 20/41/9
f 3/7/9 5/4/9 4/2/9
f 40/39/9 41/33/9 42/42/9
f 18/40/9 16/10/9 17/16/9
f 8/1/1 3/7/1 4/2/1
f 9/3/2 4/2/2 5/4/2
f 7/6/3 2/38/3 3/7/3
f 1/8/4 2/38/4 7/6/4
f 5/4/5 1/8/5 6/9/5
f 16/10/5 20/41/5 15/11/5
f 19/13/3 18/40/3 13/14/3
f 17/16/18 16/10/18 11/12/18
f 15/11/4 20/41/4 19/13/4
f 13/14/19 18/40/19 17/16/19
f 21/18/9 23/22/9 22/19/9
f 28/21/20 31/28/20 21/18/20
f 23/22/21 21/18/21 30/23/21
f 23/22/14 32/27/14 26/25/14
f 29/29/22 27/20/22 22/19/22
f 38/30/5 42/42/5 37/31/5
f 41/33/3 40/39/3 35/34/3
f 39/36/18 38/30/18 33/32/18
f 37/31/4 42/42/4 41/33/4
f 35/34/19 40/39/19 39/36/19
f 40/39/9 42/42/9 38/30/9
f 3/7/9 1/8/9 5/4/9
f 18/40/9 20/41/9 16/10/9
