# Blender v2.77 (sub 0) OBJ File: 'LowPoly_Level_Kit_Rocks.blend'
# www.blender.org
g Rocks_Round_m_01
v 0.136633 -0.000031 0.334055
v -0.096579 0.337104 0.136637
v -0.146325 0.173692 -0.045135
v -0.096040 -0.000192 -0.062624
v -0.593065 -0.000033 -0.127861
v -1.076330 -0.000009 0.418141
v -1.050309 0.177687 0.436379
v -0.976902 0.221679 0.684274
v -0.978818 -0.000262 0.772652
v 0.104410 -0.000007 0.611451
v -0.423103 -0.000909 0.945121
v -0.873138 0.323120 0.675764
v -0.041552 0.186473 0.648372
v -0.403497 0.176380 0.880126
v -0.541583 0.279820 0.795867
v -0.513161 0.456855 0.471560
v -0.140482 0.390417 0.165908
v -0.185793 0.420849 0.357048
v -0.398537 0.286677 -0.062597
v -0.576130 0.164835 -0.102795
v -0.929050 0.306353 0.333874
v -0.363869 0.394136 0.057913
v -0.833191 0.370288 0.598280
v -0.597404 0.446206 0.290888
v -0.861848 0.367560 0.369418
v -0.135383 -0.005530 0.070063
v 0.227530 -0.005530 -0.675490
v 0.311554 -0.005530 -0.116793
v 0.534098 0.306374 -0.498544
v 0.354536 -0.005530 -0.618788
v 0.405447 0.714470 -0.503540
v 0.530526 0.465796 -0.479653
v 0.148941 0.100772 0.123826
v 0.452278 0.232822 -0.065842
v 0.356083 0.085889 0.013054
v 0.330798 0.714470 -0.085275
v 0.461328 0.473268 -0.113707
v -0.299037 -0.005530 0.039117
v -0.514130 -0.005530 -0.466381
v 0.122123 0.714470 0.028994
v 0.031811 0.584296 0.101678
v -0.392220 0.439908 0.021497
v -0.547704 0.561760 -0.288827
v -0.506109 0.595719 -0.175722
v -0.310583 0.714470 -0.185852
v -0.059880 0.714470 -0.711284
v -0.098198 0.646833 -0.737083
v -0.493944 0.573168 -0.573132
v -0.259060 0.714470 -0.603231
v -0.470044 -0.005530 -0.699528
v -0.116171 -0.005530 -0.740481
v -0.456985 0.318500 -0.768587
v -0.367030 0.361287 -0.787917
v 0.131220 0.010459 0.194546
v 0.458227 0.038452 -0.175879
v 0.662854 0.277589 -0.048715
v 0.232069 0.214575 0.432543
v 0.485412 0.267361 -0.049529
v 0.085134 -0.019149 0.635958
v 0.293607 -0.028336 0.809779
v 0.696040 0.263155 0.158319
v 0.703731 0.245872 0.382689
v 0.838055 0.211699 -0.183002
v 0.719515 0.047049 -0.263019
v 0.813732 0.029349 0.021015
v 0.856197 0.155038 -0.330827
v 0.893069 0.102597 -0.056276
v 0.897800 0.122217 0.064924
v 0.525675 -0.022517 0.759939
v 0.709799 0.187194 0.551859
v 0.881497 0.117618 0.167015
v 0.620735 0.003418 0.742660
v 0.720334 -0.004620 0.520717
v 0.709653 0.186892 0.552173
v 0.026147 0.132745 0.610051
v 0.096901 -0.015982 0.749994
v 0.214440 0.197166 0.639925
v 0.427157 0.015346 0.948887
v 0.569265 0.162505 0.721916
v 0.308932 0.028310 0.923435
v 0.130041 0.047927 0.884923
v 0.069834 0.142416 0.732869
v 0.123334 0.026237 0.181600
v 0.036518 0.129020 0.431954
v 0.630617 0.127843 -0.404568
v 0.524385 0.108089 -0.335890
v 0.505342 0.224931 -0.152394
v 0.373579 0.208592 -0.055603
v 0.420056 0.112184 -0.235032
v 0.280290 0.167935 -0.028438
v 0.312321 0.116414 -0.130880
vt 0.3875 0.9462
vt 0.3901 0.9390
vt 0.3978 0.9393
vt 0.3990 0.9664
vt 0.3881 0.9680
vt 0.3933 0.9560
vt 0.3990 0.9514
vt 0.4067 0.9383
vt 0.4803 0.9893
vt 0.4896 0.9792
vt 0.4899 0.9927
vt 0.3809 0.9788
vt 0.3938 0.9699
vt 0.3889 0.9831
vt 0.4899 0.9552
vt 0.4765 0.9752
vt 0.4828 0.9562
vt 0.4820 0.9798
vt 0.3787 0.9541
vt 0.4256 0.9978
vt 0.4210 0.9929
vt 0.4337 0.9980
vt 0.4190 0.9819
vt 0.4236 0.9789
vt 0.4337 0.9798
vt 0.4593 0.9542
vt 0.4682 0.9426
vt 0.4670 0.9552
vt 0.3986 0.9699
vt 0.3832 0.9686
vt 0.4042 0.9591
vt 0.3873 0.9883
vt 0.3799 0.9890
vt 0.3787 0.9867
vt 0.4682 0.9316
vt 0.4596 0.9289
vt 0.4527 0.9480
vt 0.4502 0.9464
vt 0.4488 0.9387
vt 0.4661 0.9132
vt 0.4585 0.9161
vt 0.3938 0.9772
vt 0.4067 0.9593
vt 0.4012 0.9361
vt 0.4760 0.9885
vt 0.4740 0.9852
vt 0.4739 0.9763
vt 0.5369 0.9929
vt 0.5419 0.9829
vt 0.5433 0.9879
vt 0.5704 0.9468
vt 0.5721 0.9273
vt 0.5772 0.9271
vt 0.5282 0.9915
vt 0.5361 0.9496
vt 0.5401 0.9557
vt 0.5359 0.9594
vt 0.5289 0.9594
vt 0.5167 0.9713
vt 0.5190 0.9465
vt 0.5167 0.9592
vt 0.5270 0.8950
vt 0.5373 0.9238
vt 0.5167 0.9091
vt 0.5340 0.9391
vt 0.5206 0.9271
vt 0.5359 0.9268
vt 0.5465 0.9542
vt 0.5455 0.9111
vt 0.5477 0.8952
vt 0.5479 0.9093
vt 0.5838 0.9524
vt 0.5862 0.9587
vt 0.5718 0.9604
vt 0.5409 0.9271
vt 0.5479 0.9187
vt 0.5493 0.9145
vt 0.5549 0.9259
vt 0.5465 0.9325
vt 0.5680 0.9709
vt 0.5716 0.9735
vt 0.5687 0.9794
vt 0.5596 0.8950
vt 0.5736 0.8976
vt 0.5737 0.9070
vt 0.5427 0.9271
vt 0.5362 0.9280
vt 0.5229 0.8951
vt 0.5487 0.9030
vt 0.5167 0.9161
vt 0.5716 0.9945
vt 0.5650 0.9992
vt 0.5487 0.9964
vt 0.5465 0.9805
vt 0.5528 0.9760
vt 0.5198 0.9280
vt 0.5196 0.9395
vt 0.5569 0.9692
vt 0.5475 0.9210
vt 0.5376 0.8950
vt 0.5394 0.9610
vt 0.5433 0.9629
vt 0.5862 0.9313
vt 0.5232 0.9907
vt 0.5181 0.9620
vt 0.9691 0.9212
vt 0.9757 0.9222
vt 0.9753 0.9292
vt 0.9738 0.9528
vt 0.9698 0.9389
vt 0.9705 0.9394
vt 0.9399 0.9522
vt 0.9324 0.9551
vt 0.9356 0.9457
vt 0.9330 0.8902
vt 0.9399 0.8965
vt 0.9383 0.9002
vt 0.9146 0.8969
vt 0.9183 0.8952
vt 0.9170 0.9023
vt 0.9693 0.9168
vt 0.9762 0.9176
vt 0.9364 0.8863
vt 0.9292 0.8857
vt 0.9148 0.8860
vt 0.9058 0.8913
vt 0.9075 0.8857
vt 0.9288 0.9548
vt 0.9327 0.9592
vt 0.9297 0.9750
vt 0.9120 0.9302
vt 0.9012 0.9285
vt 0.9018 0.9140
vt 0.9168 0.8901
vt 0.9136 0.9009
vt 0.9050 0.9057
vt 0.9087 0.8985
vt 0.9262 0.8961
vt 0.9300 0.9357
vt 0.9224 0.9311
vt 0.9199 0.9136
vt 0.9363 0.9315
vt 0.9389 0.9299
vt 0.9351 0.9398
vt 0.9399 0.9204
vt 0.9237 0.9354
vt 0.9178 0.9318
vt 0.9149 0.9358
vt 0.8995 0.9203
vt 0.9259 0.9403
vt 0.9314 0.9400
vt 0.9143 0.9223
vt 0.9314 0.9844
vt 0.9384 0.9832
vt 0.9337 0.9942
vt 0.9399 0.9599
vt 0.9399 0.9684
vt 0.9199 0.9005
vt 0.9734 0.9574
vt 0.9702 0.9552
vt 0.9762 0.9487
vt 0.9199 0.9251
vt 0.9380 0.9752
vt 0.9380 0.9751
vt 0.9312 0.9506
vt 0.9326 0.9403
vt 0.9060 0.9398
vt 0.9114 0.9408
vt 0.9024 0.9392
vt 0.9193 0.9046
vt 0.9267 0.8893
vt 0.3788 0.9713
vt 0.5658 0.9551
vt 0.5742 0.9259
vt 0.9722 0.9117
vt 0.9730 0.9619
vn 0.0829 0.9870 -0.1375
vn -0.0495 0.8785 0.4752
vn -0.3839 0.7413 -0.5505
vn -0.9580 0.1132 0.2636
vn 0.1290 0.1361 -0.9823
vn -0.7373 0.1749 -0.6526
vn 0.2953 0.8275 0.4776
vn -0.2764 0.3576 0.8920
vn 0.8261 0.2876 -0.4846
vn -0.0657 0.8670 0.4939
vn 0.2998 0.8103 0.5035
vn -0.2660 0.9616 0.0673
vn 0.3389 0.6517 -0.6786
vn 0.0763 0.9926 -0.0941
vn 0.7929 0.6024 0.0921
vn 0.5182 0.2433 0.8199
vn -0.6936 0.7161 0.0783
vn 0.2141 -0.8318 0.5122
vn -0.1858 -0.0000 0.9826
vn 0.8519 -0.5186 0.0729
vn 0.0000 -1.0000 0.0000
vn 0.4049 0.1165 -0.9069
vn 0.9826 -0.0000 0.1858
vn 0.4745 0.1546 0.8666
vn -0.1126 -0.2028 -0.9727
vn -0.3458 0.6288 0.6965
vn -0.4079 0.5179 -0.7519
vn -0.9061 -0.1743 0.3855
vn -0.5205 0.8515 -0.0642
vn -0.9826 -0.0000 -0.1858
vn -0.0000 1.0000 0.0000
vn 0.8763 0.4558 0.1564
vn 0.1858 -0.0000 -0.9826
vn -0.9285 -0.3685 -0.0464
vn -0.5223 -0.6816 -0.5125
vn 0.4732 0.8589 0.1960
vn 0.5318 -0.8158 -0.2272
vn -0.4641 0.7245 -0.5095
vn -0.9320 -0.1224 0.3412
vn 0.2872 -0.7431 -0.6045
vn 0.0043 0.9339 -0.3574
vn 0.7158 -0.6929 0.0867
vn 0.0362 0.9670 0.2520
vn -0.0577 0.9952 0.0786
vn 0.0109 -0.9978 -0.0658
vn 0.3044 -0.8909 0.3372
vn -0.0733 -0.9967 0.0352
vn -0.3295 0.9432 0.0429
vn 0.2163 0.9248 0.3130
vn -0.0055 0.8949 -0.4462
vn -0.8806 -0.4578 -0.1226
vn -0.1938 -0.8673 0.4584
vn -0.4544 0.8793 -0.1425
vn -0.0512 0.9197 -0.3893
vn 0.7019 0.3107 0.6409
vn -0.4056 0.8146 -0.4146
vn 0.6157 0.7870 0.0395
vn -0.8499 0.3137 -0.4235
vn -0.4006 0.9153 0.0428
vn 0.7095 0.3124 0.6317
vn 0.2872 -0.9439 0.1630
vn 0.9120 -0.0165 0.4099
vn 0.9120 -0.0165 0.4098
vn 0.7229 0.6604 0.2031
vn 0.9119 0.4081 -0.0445
vn -0.0369 0.8531 0.5204
vn 0.0141 0.8518 0.5237
vn -0.0223 0.8452 0.5340
vn -0.3969 0.9081 -0.1334
vn -0.1162 -0.8923 -0.4363
vn 0.7188 -0.6902 0.0837
vn 0.2706 0.8111 0.5186
vn -0.2536 0.9671 0.0202
vn -0.9329 -0.3442 0.1058
vn 0.5622 0.8264 -0.0325
vn -0.9469 -0.1300 0.2941
vn -0.8589 -0.5039 -0.0910
vn 0.7096 0.3120 0.6317
vn 0.6081 0.7828 0.1324
vn -0.3180 0.9473 -0.0383
vn 0.0744 -0.9696 0.2331
vn 0.9287 0.3587 -0.0943
vn -0.0171 0.8565 0.5158
vn -0.4287 0.8933 -0.1352
s off
f 18/1/1 17/2/1 22/3/1
f 23/4/2 15/5/2 16/6/2
f 24/7/3 22/3/3 20/8/3
f 8/9/4 6/10/4 9/11/4
f 3/12/5 5/13/5 19/14/5
f 5/15/6 21/16/6 20/17/6
f 7/18/6 21/16/6 6/10/6
f 13/19/7 16/6/7 15/5/7
f 14/20/8 15/21/8 11/22/8
f 12/23/8 8/24/8 9/25/8
f 3/26/9 1/27/9 4/28/9
f 23/4/10 12/29/10 15/5/10
f 9/25/8 15/21/8 12/23/8
f 15/5/11 14/30/11 13/19/11
f 25/31/12 16/6/12 24/7/12
f 22/32/13 17/33/13 2/34/13
f 18/1/14 24/7/14 16/6/14
f 10/35/15 1/27/15 13/36/15
f 2/37/15 17/38/15 18/39/15
f 11/40/16 13/36/16 14/41/16
f 20/42/5 19/14/5 5/13/5
f 20/8/3 21/43/3 24/7/3
f 25/31/3 24/7/3 21/43/3
f 22/3/3 19/44/3 20/8/3
f 1/27/15 18/39/15 13/36/15
f 8/9/17 12/45/17 23/46/17
f 23/46/17 25/47/17 21/16/17
f 22/32/13 3/12/13 19/14/13
f 7/18/17 23/46/17 21/16/17
f 33/48/18 28/49/18 35/50/18
f 42/51/19 38/52/19 26/53/19
f 33/48/18 26/54/18 28/49/18
f 34/55/20 35/56/20 28/57/20
f 51/58/21 26/54/21 39/59/21
f 29/60/20 28/57/20 30/61/20
f 27/62/22 47/63/22 29/64/22
f 29/60/23 37/65/23 34/55/23
f 31/66/22 47/63/22 46/67/22
f 35/56/24 34/55/24 33/68/24
f 53/69/25 50/70/25 52/71/25
f 41/72/26 40/73/26 45/74/26
f 53/69/27 49/75/27 47/63/27
f 44/76/28 43/77/28 42/78/28
f 34/55/24 41/79/24 33/68/24
f 43/80/29 44/81/29 45/82/29
f 45/74/26 42/51/26 41/72/26
f 52/83/30 50/84/30 39/85/30
f 40/86/24 37/65/24 36/87/24
f 29/64/22 30/88/22 27/62/22
f 39/85/28 42/78/28 43/77/28
f 48/89/30 39/85/30 43/77/30
f 32/90/22 29/64/22 47/63/22
f 40/91/31 36/92/31 45/82/31
f 31/93/31 46/94/31 49/95/31
f 31/96/32 37/65/32 32/97/32
f 48/98/29 45/82/29 49/95/29
f 46/67/27 47/63/27 49/75/27
f 53/69/27 52/71/27 48/99/27
f 27/62/33 51/100/33 53/69/33
f 27/101/21 30/102/21 28/49/21
f 41/72/19 26/53/19 33/103/19
f 38/104/21 39/59/21 26/54/21
f 50/105/21 51/58/21 39/59/21
f 27/101/21 28/49/21 51/58/21
f 31/93/31 45/82/31 36/92/31
f 59/106/34 75/107/34 84/108/34
f 91/109/35 54/110/35 83/111/35
f 56/112/36 68/113/36 63/114/36
f 64/115/37 67/116/37 65/117/37
f 87/118/38 89/119/38 88/120/38
f 76/121/39 82/122/39 75/107/39
f 66/123/40 64/115/40 85/124/40
f 85/125/41 63/126/41 66/127/41
f 65/128/42 71/129/42 73/130/42
f 77/131/43 79/132/43 62/133/43
f 86/134/38 87/118/38 85/125/38
f 58/135/44 61/136/44 56/137/44
f 64/115/45 65/117/45 55/138/45
f 60/139/45 59/140/45 54/141/45
f 69/142/46 72/143/46 78/144/46
f 73/145/45 60/139/45 65/117/45
f 76/146/47 59/140/47 60/139/47
f 77/131/48 75/147/48 82/148/48
f 60/139/45 54/141/45 55/138/45
f 70/149/49 62/133/49 79/132/49
f 87/118/50 56/137/50 63/126/50
f 84/108/51 54/110/51 59/106/51
f 81/150/52 60/139/52 80/151/52
f 58/135/53 88/120/53 57/152/53
f 58/135/54 56/137/54 87/118/54
f 72/153/55 79/154/55 78/155/55
f 88/120/56 58/135/56 87/118/56
f 71/129/57 61/156/57 62/157/57
f 91/158/38 88/120/38 89/119/38
f 89/159/35 55/160/35 91/109/35
f 83/111/58 90/161/58 91/109/58
f 69/142/45 60/139/45 73/145/45
f 84/162/59 77/131/59 57/152/59
f 60/139/52 78/144/52 80/151/52
f 74/163/60 70/164/60 79/154/60
f 69/142/61 73/145/61 72/143/61
f 73/130/62 71/129/62 74/163/62
f 70/164/63 74/163/63 71/129/63
f 72/153/62 73/130/62 74/163/62
f 70/164/64 71/129/64 62/157/64
f 63/114/65 67/165/65 66/166/65
f 77/131/66 80/167/66 79/132/66
f 82/148/67 81/168/67 77/131/67
f 78/169/68 79/132/68 80/167/68
f 57/152/69 90/170/69 84/162/69
f 64/115/70 86/171/70 85/124/70
f 62/133/44 57/152/44 77/131/44
f 65/117/45 60/139/45 55/138/45
f 68/113/71 65/128/71 67/165/71
f 8/9/4 7/18/4 6/10/4
f 3/12/5 4/172/5 5/13/5
f 5/15/6 6/10/6 21/16/6
f 13/19/72 18/1/72 16/6/72
f 3/26/9 2/37/9 1/27/9
f 9/25/8 11/22/8 15/21/8
f 25/31/73 23/4/73 16/6/73
f 18/1/1 22/3/1 24/7/1
f 11/40/16 10/35/16 13/36/16
f 1/27/15 2/37/15 18/39/15
f 22/32/13 2/34/13 3/12/13
f 7/18/17 8/9/17 23/46/17
f 51/58/21 28/49/21 26/54/21
f 29/60/20 34/55/20 28/57/20
f 27/62/33 53/69/33 47/63/33
f 29/60/23 32/97/23 37/65/23
f 31/66/22 32/90/22 47/63/22
f 53/69/25 51/100/25 50/70/25
f 53/69/27 48/99/27 49/75/27
f 34/55/24 37/65/24 41/79/24
f 45/74/26 44/173/26 42/51/26
f 40/86/24 41/79/24 37/65/24
f 39/85/28 38/174/28 42/78/28
f 48/89/30 52/83/30 39/85/30
f 31/96/32 36/87/32 37/65/32
f 48/98/29 43/80/29 45/82/29
f 41/72/19 42/51/19 26/53/19
f 31/93/31 49/95/31 45/82/31
f 59/106/74 76/121/74 75/107/74
f 91/109/35 55/160/35 54/110/35
f 56/112/75 61/156/75 68/113/75
f 64/115/37 66/123/37 67/116/37
f 87/118/38 86/134/38 89/119/38
f 76/121/76 81/175/76 82/122/76
f 85/125/41 87/118/41 63/126/41
f 58/135/44 57/152/44 61/136/44
f 84/108/77 83/111/77 54/110/77
f 81/150/52 76/146/52 60/139/52
f 72/153/78 74/163/78 79/154/78
f 71/129/79 68/113/79 61/156/79
f 91/158/38 90/170/38 88/120/38
f 89/159/35 86/176/35 55/160/35
f 83/111/58 84/108/58 90/161/58
f 84/162/80 75/147/80 77/131/80
f 60/139/81 69/142/81 78/144/81
f 63/114/82 68/113/82 67/165/82
f 77/131/83 81/168/83 80/167/83
f 57/152/84 88/120/84 90/170/84
f 64/115/70 55/138/70 86/171/70
f 62/133/44 61/136/44 57/152/44
f 68/113/71 71/129/71 65/128/71
