# Blender v2.77 (sub 0) OBJ File: 'LowPoly_Level_Kit_Rocks.blend'
# www.blender.org
g Rocks_Square_m_02
v 0.396826 0.000000 0.213757
v -0.035174 0.000000 0.213757
v 0.396826 0.000000 -0.218243
v -0.035174 0.000000 -0.218243
v -0.035174 0.982788 0.213757
v 0.396826 1.004943 -0.218243
v -0.035174 0.974514 -0.218243
v 0.070493 1.004943 -0.218243
v -0.035174 1.002240 -0.165534
v 0.396826 0.874629 0.213757
v 0.286029 0.982788 0.213757
v 0.396826 0.989379 0.085242
v 0.828846 0.000000 0.173308
v 0.396846 0.000000 0.173308
v 0.828846 0.000000 -0.258692
v 0.396846 0.000000 -0.258692
v 0.396846 0.939627 0.173308
v 0.396846 0.935579 -0.258692
v 0.828846 0.856600 0.173308
v 0.789388 0.927743 0.173308
v 0.828846 0.925410 0.051827
v 0.828846 0.788473 -0.258692
v 0.674941 0.927160 -0.258692
v 0.828846 0.923549 -0.146834
v -0.035327 0.000000 0.196549
v -0.467327 0.000000 0.196549
v -0.035327 0.000000 -0.201035
v -0.467327 0.000000 -0.201035
v -0.035327 0.923585 0.196549
v -0.467327 0.933394 0.196549
v -0.467327 0.927188 -0.201035
v -0.035327 0.917379 -0.201035
v -0.467322 0.000000 0.213757
v -0.899322 0.000000 0.213757
v -0.467322 0.000000 -0.218243
v -0.899322 0.000000 -0.218243
v -0.899322 0.974524 -0.218243
v -0.467322 0.974524 -0.218243
v -0.899322 0.906751 0.213757
v -0.899322 0.960452 0.064704
v -0.827909 0.953040 0.213757
v -0.467322 0.837802 0.213757
v -0.517835 0.953040 0.213757
v -0.467322 0.960147 0.070840
vt 0.7063 0.8548
vt 0.7007 0.8548
vt 0.7007 0.8519
vt 0.6673 0.7655
vt 0.6670 0.7721
vt 0.6601 0.7657
vt 0.6439 0.7648
vt 0.8313 0.7624
vt 0.8313 0.7698
vt 0.8231 0.7622
vt 0.7832 0.7620
vt 0.7831 0.7661
vt 0.7767 0.7623
vt 0.7604 0.7698
vt 0.8961 0.8222
vt 0.8962 0.8136
vt 0.9001 0.8137
vt 0.9918 0.7572
vt 0.9917 0.7641
vt 0.9838 0.7570
vt 0.9043 0.7581
vt 0.9199 0.7572
vt 0.9199 0.8136
vt 0.9679 0.7562
vt 0.8540 0.8088
vt 0.8313 0.7853
vt 0.8540 0.7853
vt 0.5604 0.8089
vt 0.5372 0.8606
vt 0.5372 0.8084
vt 0.6904 0.7659
vt 0.7107 0.7648
vt 0.7135 0.7663
vt 0.7832 0.8133
vt 0.7605 0.8132
vt 0.6673 0.7665
vt 0.6730 0.7648
vt 0.6673 0.8211
vt 0.7237 0.8380
vt 0.7237 0.8548
vt 0.8554 0.8173
vt 0.8326 0.8324
vt 0.8326 0.8173
vt 0.7007 0.8309
vt 0.7178 0.8309
vt 0.9681 0.8123
vt 0.9918 0.8124
vt 0.6442 0.8209
vt 0.6673 0.8209
vt 0.7135 0.7708
vt 0.7194 0.7648
vt 0.7365 0.7648
vt 0.9441 0.8137
vt 0.9679 0.7573
vt 0.9679 0.8137
vt 0.9199 0.8383
vt 0.8961 0.8383
vt 0.8385 0.8408
vt 0.8490 0.8408
vt 0.9199 0.8218
vt 0.8554 0.8387
vt 0.7365 0.8199
vt 0.7135 0.8199
vt 0.7857 0.7663
vt 0.7878 0.7624
vt 0.8085 0.7617
vt 0.8961 0.7612
vt 0.8961 0.8136
vt 0.8085 0.7617
vt 0.9441 0.8059
vt 0.9203 0.7575
vt 0.9441 0.7575
vt 0.7662 0.7623
vt 0.5352 0.8105
vt 0.5139 0.8627
vt 0.5139 0.8102
vt 0.9679 0.8630
vt 0.9441 0.8383
vt 0.9679 0.8383
vt 0.6904 0.8209
vt 0.6904 0.8211
vt 0.5835 0.8080
vt 0.5604 0.7561
vt 0.5835 0.7555
vt 0.7858 0.8678
vt 0.8086 0.8161
vt 0.8086 0.8680
vt 0.6048 0.8035
vt 0.5835 0.7795
vt 0.6048 0.7795
vt 0.6049 0.7795
vt 0.5835 0.7555
vt 0.6049 0.7555
vt 0.5934 0.8700
vt 0.5721 0.8184
vt 0.5934 0.8185
vt 0.8085 0.8134
vt 0.8085 0.8137
vt 0.7857 0.8137
vt 0.9413 0.8126
vt 0.9242 0.8126
vt 0.9203 0.8099
vt 0.6678 0.8314
vt 0.6909 0.8552
vt 0.6678 0.8552
vt 0.8313 0.8088
vt 0.5604 0.8606
vt 0.9441 0.7573
vt 0.9172 0.8137
vt 0.5352 0.8627
vt 0.9441 0.8630
vt 0.7135 0.8209
vt 0.6904 0.7648
vt 0.5604 0.8080
vt 0.7858 0.8161
vt 0.5835 0.8035
vt 0.5835 0.7795
vt 0.5721 0.8702
vt 0.8313 0.8134
vt 0.6909 0.8314
vn -0.2470 0.8576 -0.4511
vn 0.5886 0.6030 0.5384
vn 1.0000 -0.0000 -0.0000
vn 0.4983 0.5530 -0.6678
vn 0.8433 0.4677 0.2649
vn -0.5206 0.8032 0.2894
vn 0.8661 0.3797 0.3250
vn -1.0000 0.0000 0.0000
vn 0.0000 -1.0000 0.0000
vn -0.0000 0.0000 -1.0000
vn 0.0000 0.9987 0.0512
vn 0.0303 0.9995 -0.0094
vn 0.0000 -0.0000 1.0000
vn 0.0000 0.9988 0.0497
vn 0.0227 0.9996 -0.0156
s off
f 8/1/1 7/2/1 9/3/1
f 11/4/2 10/5/2 12/6/2
f 6/7/3 12/6/3 10/5/3
f 24/8/4 22/9/4 23/10/4
f 20/11/5 19/12/5 21/13/5
f 22/14/3 21/13/3 19/12/3
f 40/15/6 39/16/6 41/17/6
f 43/18/7 42/19/7 44/20/7
f 40/21/8 37/22/8 36/23/8
f 38/24/3 44/20/3 42/19/3
f 15/25/9 14/26/9 16/27/9
f 32/28/10 28/29/10 31/30/10
f 5/31/8 9/32/8 7/33/8
f 22/14/3 13/34/3 15/35/3
f 7/36/10 8/37/10 4/38/10
f 12/39/11 6/40/11 8/1/11
f 17/41/12 23/42/12 18/43/12
f 5/44/11 11/45/11 9/3/11
f 35/46/3 42/19/3 33/47/3
f 3/48/3 10/5/3 1/49/3
f 10/50/13 11/51/13 5/52/13
f 36/53/10 38/54/10 35/55/10
f 40/15/14 38/56/14 37/57/14
f 24/58/12 23/42/12 21/59/12
f 41/17/14 44/60/14 40/15/14
f 20/61/12 21/59/12 17/41/12
f 10/50/13 2/62/13 1/63/13
f 19/64/13 20/65/13 17/66/13
f 39/67/8 36/23/8 34/68/8
f 18/69/10 23/10/10 22/9/10
f 42/70/13 34/71/13 33/72/13
f 24/73/3 21/13/3 22/14/3
f 31/74/8 26/75/8 30/76/8
f 34/77/9 35/78/9 33/79/9
f 7/33/8 2/80/8 5/31/8
f 8/37/10 3/81/10 4/38/10
f 26/82/13 29/83/13 30/84/13
f 18/85/8 14/86/8 17/87/8
f 29/88/15 31/89/15 30/90/15
f 26/91/9 27/92/9 25/93/9
f 11/45/11 8/1/11 9/3/11
f 32/94/3 25/95/3 27/96/3
f 22/9/10 16/97/10 18/69/10
f 19/64/13 14/98/13 13/99/13
f 42/70/13 43/100/13 41/101/13
f 41/101/13 39/102/13 42/70/13
f 3/103/9 2/104/9 4/105/9
f 15/25/9 13/106/9 14/26/9
f 32/28/10 27/107/10 28/29/10
f 22/14/3 19/12/3 13/34/3
f 17/41/12 21/59/12 23/42/12
f 35/46/3 38/24/3 42/19/3
f 3/48/3 6/7/3 10/5/3
f 36/53/10 37/108/10 38/54/10
f 40/15/14 44/60/14 38/56/14
f 41/17/14 43/109/14 44/60/14
f 10/50/13 5/52/13 2/62/13
f 39/67/8 40/21/8 36/23/8
f 42/70/13 39/102/13 34/71/13
f 31/74/8 28/110/8 26/75/8
f 34/77/9 36/111/9 35/78/9
f 7/33/8 4/112/8 2/80/8
f 8/37/10 6/113/10 3/81/10
f 26/82/13 25/114/13 29/83/13
f 18/85/8 16/115/8 14/86/8
f 29/88/15 32/116/15 31/89/15
f 26/91/9 28/117/9 27/92/9
f 11/45/11 12/39/11 8/1/11
f 32/94/3 29/118/3 25/95/3
f 22/9/10 15/119/10 16/97/10
f 19/64/13 17/66/13 14/98/13
f 3/103/9 1/120/9 2/104/9
