# Blender v2.77 (sub 0) OBJ File: 'LowPoly_Level_Kit_Rocks.blend'
# www.blender.org
g Rocks_Square_s_05
v 0.213692 -0.001712 -0.290203
v 0.213939 0.062772 -0.296581
v 0.186401 0.004176 -0.231726
v 0.186648 0.068661 -0.238104
v 0.157738 -0.003657 -0.314024
v 0.157936 0.048256 -0.319159
v 0.130447 0.002231 -0.255547
v 0.130646 0.054144 -0.260682
v 0.060963 0.000000 0.030649
v 0.060963 0.047151 0.030649
v -0.037663 0.000000 0.079721
v -0.037663 0.047151 0.079721
v 0.011891 0.000000 -0.067977
v 0.011891 0.047151 -0.067977
v -0.086736 0.000000 -0.018905
v -0.086736 0.047151 -0.018905
v -0.317927 -0.000000 -0.125482
v -0.317927 0.064800 -0.125482
v -0.273867 -0.000000 -0.172997
v -0.273867 0.064800 -0.172997
v -0.255108 -0.000000 -0.081422
v -0.255108 0.052167 -0.081422
v -0.211048 -0.000000 -0.128937
v -0.211048 0.052167 -0.128937
v -0.231489 0.000000 0.321891
v -0.231489 0.027736 0.321891
v -0.264524 0.000000 0.266143
v -0.264524 0.027736 0.266143
v -0.175742 0.000000 0.288857
v -0.175742 0.027736 0.288857
v -0.208776 0.000000 0.233109
v -0.208776 0.027736 0.233109
v 0.292357 -0.016877 0.187799
v 0.292357 0.053204 0.187799
v 0.236963 -0.016877 0.087300
v 0.236963 0.030867 0.087300
v 0.392856 -0.016877 0.132405
v 0.392856 0.053204 0.132405
v 0.337462 -0.016877 0.031905
v 0.337462 0.030867 0.031905
v 0.150418 -0.001712 0.456221
v 0.156387 0.062772 0.453960
v 0.085928 0.004176 0.453911
v 0.091896 0.068661 0.451649
v 0.150519 -0.003657 0.395407
v 0.155324 0.048256 0.393587
v 0.086028 0.002231 0.393097
v 0.090833 0.054144 0.391276
vt 0.3434 0.8229
vt 0.3292 0.8320
vt 0.3284 0.8229
vt 0.3408 0.8435
vt 0.3442 0.8320
vt 0.3552 0.8229
vt 0.3673 0.8379
vt 0.3552 0.8379
vt 0.2975 0.8664
vt 0.2864 0.8540
vt 0.2975 0.8543
vt 0.3584 0.8628
vt 0.3442 0.8483
vt 0.3584 0.8478
vt 0.3262 0.8450
vt 0.3121 0.8595
vt 0.3121 0.8445
vt 0.2233 0.8160
vt 0.2343 0.8407
vt 0.2233 0.8408
vt 0.2184 0.7965
vt 0.2078 0.7798
vt 0.2188 0.7798
vt 0.2188 0.8159
vt 0.2075 0.7965
vt 0.1539 0.8058
vt 0.1649 0.8314
vt 0.1539 0.8314
vt 0.1655 0.8054
vt 0.1912 0.7798
vt 0.1912 0.8054
vt 0.1388 0.7802
vt 0.1644 0.8058
vt 0.1388 0.8057
vt 0.3940 0.8678
vt 0.4081 0.8527
vt 0.4081 0.8677
vt 0.4125 0.8373
vt 0.4248 0.8532
vt 0.4097 0.8532
vt 0.3859 0.8241
vt 0.3974 0.8369
vt 0.3853 0.8365
vt 0.3981 0.8125
vt 0.3981 0.8245
vt 0.4353 0.8416
vt 0.4502 0.8258
vt 0.4502 0.8437
vt 0.4629 0.7882
vt 0.4778 0.8036
vt 0.4629 0.8058
vt 0.1883 0.8143
vt 0.1820 0.8054
vt 0.1885 0.8054
vt 0.1885 0.8264
vt 0.1818 0.8144
vt 0.1818 0.8265
vt 0.1883 0.8415
vt 0.1818 0.8415
vt 0.1388 0.8307
vt 0.1453 0.8450
vt 0.1388 0.8450
vt 0.1649 0.8465
vt 0.1498 0.8314
vt 0.1649 0.8314
vt 0.2338 0.7997
vt 0.2188 0.8147
vt 0.2188 0.7996
vt 0.3173 0.8079
vt 0.3284 0.8242
vt 0.3121 0.8246
vt 0.3165 0.7870
vt 0.3284 0.8076
vt 0.3183 0.7867
vt 0.3294 0.7601
vt 0.3294 0.7867
vt 0.3027 0.8379
vt 0.2864 0.8125
vt 0.3027 0.8123
vt 0.3131 0.7867
vt 0.2864 0.7601
vt 0.3131 0.7601
vt 0.2864 0.7871
vt 0.2597 0.7601
vt 0.2864 0.7602
vt 0.4662 0.8578
vt 0.4516 0.8428
vt 0.4662 0.8427
vt 0.4910 0.8084
vt 0.4780 0.8209
vt 0.4780 0.8058
vt 0.4556 0.7718
vt 0.4664 0.7798
vt 0.4543 0.7794
vt 0.4677 0.7599
vt 0.4677 0.7723
vt 0.4778 0.7864
vt 0.4920 0.8010
vt 0.4778 0.8014
vt 0.4820 0.7600
vt 0.4677 0.7743
vt 0.4677 0.7593
vt 0.3287 0.8435
vt 0.3673 0.8229
vt 0.2864 0.8690
vt 0.3442 0.8633
vt 0.3262 0.8600
vt 0.2343 0.8159
vt 0.2078 0.8159
vt 0.1649 0.8058
vt 0.1655 0.7798
vt 0.1644 0.7802
vt 0.3940 0.8528
vt 0.4246 0.8373
vt 0.3830 0.8120
vt 0.4353 0.8238
vt 0.4778 0.7860
vt 0.1820 0.8265
vt 0.1883 0.8265
vt 0.1453 0.8307
vt 0.1498 0.8465
vt 0.2338 0.8147
vt 0.3276 0.7867
vt 0.3131 0.7601
vt 0.2864 0.8381
vt 0.2864 0.7867
vt 0.2597 0.7870
vt 0.4516 0.8578
vt 0.4910 0.8206
vt 0.4527 0.7593
vt 0.4920 0.7860
vt 0.4820 0.7749
vn 0.9070 0.0380 0.4194
vn -0.3928 0.0920 0.9150
vn -0.9070 -0.0380 -0.4194
vn 0.3928 -0.0920 -0.9150
vn -0.0067 -0.9953 0.0971
vn -0.1780 0.9673 -0.1805
vn 0.4455 0.0000 0.8953
vn -0.8953 0.0000 0.4455
vn -0.4455 0.0000 -0.8953
vn 0.8953 0.0000 -0.4455
vn 0.0000 -1.0000 0.0000
vn 0.0000 1.0000 -0.0000
vn -0.7333 0.0000 -0.6799
vn 0.5742 0.0000 -0.8187
vn 0.7333 0.0000 0.6799
vn -0.5742 0.0000 0.8187
vn 0.1202 0.9865 0.1115
vn -0.8603 0.0000 0.5098
vn -0.5098 0.0000 -0.8603
vn 0.8603 0.0000 -0.5098
vn 0.5098 0.0000 0.8603
vn -0.8758 0.0000 0.4827
vn -0.4827 0.0000 -0.8758
vn 0.8758 0.0000 -0.4827
vn 0.4827 0.0000 0.8758
vn -0.0922 0.9816 -0.1673
vn -0.0323 0.0380 0.9988
vn -0.9957 0.0920 -0.0046
vn 0.0323 -0.0380 -0.9988
vn 0.9957 -0.0920 0.0046
vn -0.0920 -0.9953 0.0317
vn 0.0967 0.9673 -0.2343
s off
f 2/1/1 3/2/1 1/3/1
f 8/4/2 3/2/2 4/5/2
f 6/6/3 7/7/3 8/8/3
f 6/9/4 1/10/4 5/11/4
f 3/12/5 5/13/5 1/14/5
f 6/15/6 4/16/6 2/17/6
f 12/18/7 9/19/7 10/20/7
f 16/21/8 11/22/8 12/23/8
f 14/24/9 15/25/9 16/21/9
f 10/26/10 13/27/10 14/28/10
f 11/29/11 13/30/11 9/31/11
f 16/32/12 10/33/12 14/34/12
f 20/35/13 17/36/13 18/37/13
f 24/38/14 19/39/14 20/40/14
f 22/41/15 23/42/15 24/43/15
f 22/41/16 17/44/16 21/45/16
f 19/46/11 21/47/11 17/48/11
f 22/49/17 20/50/17 18/51/17
f 28/52/18 25/53/18 26/54/18
f 32/55/19 27/56/19 28/52/19
f 30/57/20 31/58/20 32/59/20
f 26/60/21 29/61/21 30/62/21
f 27/63/11 29/64/11 25/65/11
f 32/66/12 26/67/12 30/68/12
f 36/69/22 33/70/22 34/71/22
f 40/72/23 35/73/23 36/69/23
f 40/74/24 37/75/24 39/76/24
f 34/77/25 37/78/25 38/79/25
f 35/80/11 37/81/11 33/82/11
f 40/83/26 34/84/26 38/85/26
f 42/86/27 43/87/27 41/88/27
f 48/89/28 43/90/28 44/91/28
f 46/92/29 47/93/29 48/94/29
f 46/92/30 41/95/30 45/96/30
f 43/97/31 45/98/31 41/99/31
f 46/100/32 44/101/32 42/102/32
f 2/1/1 4/5/1 3/2/1
f 8/4/2 7/103/2 3/2/2
f 6/6/3 5/104/3 7/7/3
f 6/9/4 2/105/4 1/10/4
f 3/12/5 7/106/5 5/13/5
f 6/15/6 8/107/6 4/16/6
f 12/18/7 11/108/7 9/19/7
f 16/21/8 15/25/8 11/22/8
f 14/24/9 13/109/9 15/25/9
f 10/26/10 9/110/10 13/27/10
f 11/29/11 15/111/11 13/30/11
f 16/32/12 12/112/12 10/33/12
f 20/35/13 19/113/13 17/36/13
f 24/38/14 23/114/14 19/39/14
f 22/41/15 21/45/15 23/42/15
f 22/41/16 18/115/16 17/44/16
f 19/46/11 23/116/11 21/47/11
f 22/49/17 24/117/17 20/50/17
f 28/52/18 27/56/18 25/53/18
f 32/55/19 31/118/19 27/56/19
f 30/57/20 29/119/20 31/58/20
f 26/60/21 25/120/21 29/61/21
f 27/63/11 31/121/11 29/64/11
f 32/66/12 28/122/12 26/67/12
f 36/69/22 35/73/22 33/70/22
f 40/72/23 39/123/23 35/73/23
f 40/74/24 38/124/24 37/75/24
f 34/77/25 33/125/25 37/78/25
f 35/80/11 39/126/11 37/81/11
f 40/83/26 36/127/26 34/84/26
f 42/86/27 44/128/27 43/87/27
f 48/89/28 47/129/28 43/90/28
f 46/92/29 45/96/29 47/93/29
f 46/92/30 42/130/30 41/95/30
f 43/97/31 47/131/31 45/98/31
f 46/100/32 48/132/32 44/101/32
