# Blender v2.77 (sub 0) OBJ File: 'LowPoly_Level_Kit_Rocks.blend'
# www.blender.org
g Rock_Square_l_07
v 0.476532 0.000000 0.787777
v 0.476532 0.000000 -0.787776
v 0.606832 2.399084 0.117147
v 0.798300 2.295736 0.718161
v 0.537721 2.316993 0.713197
v 1.178328 2.090609 0.304819
v 1.073084 1.777093 0.740479
v 1.036134 2.167361 0.726906
v 0.606832 2.399084 -0.519779
v 0.439739 2.200609 -0.716140
v 1.020041 1.619080 -0.744684
v 1.178328 2.090609 -0.400162
v -0.822370 0.000000 0.776802
v 0.236074 1.958693 0.722261
v -0.904810 0.000000 -0.776104
v -0.487112 1.099685 -0.743991
v -1.079731 0.000000 0.294838
v -0.940278 0.561410 -0.027777
v -0.991396 0.500691 -0.528036
v -1.138568 0.000000 -0.578934
vt 0.1857 0.8218
vt 0.1863 0.8280
vt 0.1677 0.8242
vt 0.2132 0.7693
vt 0.2159 0.7689
vt 0.2110 0.7816
vt 0.1870 0.7748
vt 0.1620 0.7755
vt 0.1720 0.7687
vt 0.2110 0.8186
vt 0.1970 0.8257
vt 0.2106 0.8132
vt 0.2338 0.8336
vt 0.2110 0.8403
vt 0.2319 0.8242
vt 0.1453 0.7676
vt 0.1870 0.8039
vt 0.2110 0.7837
vt 0.1397 0.7733
vt 0.1468 0.7741
vt 0.1406 0.7901
vt 0.1858 0.8123
vt 0.2433 0.7676
vt 0.2183 0.8120
vt 0.2110 0.8020
vt 0.2433 0.8133
vt 0.2008 0.8323
vt 0.1745 0.8362
vt 0.2272 0.8181
vt 0.2338 0.8711
vt 0.2174 0.8149
vt 0.2218 0.8133
vt 0.2049 0.7676
vt 0.1483 0.8244
vt 0.1422 0.8192
vt 0.1531 0.8365
vt 0.1870 0.8330
vn 0.0777 0.9864 0.1449
vn 0.9483 0.1003 0.3012
vn -0.7922 0.4399 0.4230
vn 0.4074 0.4457 -0.7971
vn -0.0084 0.0324 0.9994
vn -0.9592 0.2754 0.0646
vn -0.0084 0.0324 -0.9994
vn -0.6229 0.2582 -0.7385
vn 0.9480 -0.3182 0.0000
vn 0.4750 0.8800 0.0000
vn -0.0164 0.0326 0.9993
vn -0.0190 0.0330 0.9993
vn -0.0168 0.0322 -0.9993
vn -0.7650 0.6440 0.0000
s off
f 5/1/1 4/2/1 3/3/1
f 8/4/2 7/5/2 6/6/2
f 13/7/3 18/8/3 17/9/3
f 9/10/4 11/11/4 10/12/4
f 14/13/5 1/14/5 5/15/5
f 18/8/6 20/16/6 17/9/6
f 2/17/7 16/18/7 10/12/7
f 15/19/8 19/20/8 16/21/8
f 13/7/3 14/22/3 18/8/3
f 6/6/9 7/5/9 1/23/9
f 11/24/9 12/25/9 2/26/9
f 9/10/4 12/27/4 11/11/4
f 2/26/9 6/6/9 1/23/9
f 4/2/10 6/28/10 3/3/10
f 4/29/11 5/15/11 1/14/11
f 14/13/5 13/30/5 1/14/5
f 1/14/12 7/31/12 4/29/12
f 8/32/12 4/29/12 7/31/12
f 18/8/6 19/20/6 20/16/6
f 10/12/13 11/11/13 2/17/13
f 2/17/7 15/33/7 16/18/7
f 15/19/8 20/16/8 19/20/8
f 9/34/14 10/35/14 3/3/14
f 16/21/14 19/20/14 18/8/14
f 3/3/10 12/36/10 9/34/10
f 5/1/14 3/3/14 14/22/14
f 10/35/14 16/21/14 3/3/14
f 14/22/14 16/21/14 18/8/14
f 2/26/9 12/25/9 6/6/9
f 4/2/10 8/37/10 6/28/10
f 3/3/10 6/28/10 12/36/10
f 14/22/14 3/3/14 16/21/14
