# Blender v2.77 (sub 0) OBJ File: 'LowPoly_Level_Kit_Rocks.blend'
# www.blender.org
g Rock_Square_crk_s_05
v -0.431168 -0.008619 0.200142
v -0.431168 -0.008619 -0.187330
v -0.170033 -0.008618 -0.187330
v -0.170033 0.119984 -0.187330
v 0.201130 -0.000000 0.200589
v 0.201130 -0.000000 -0.187330
v 0.201130 0.251544 -0.187330
v 0.017034 0.255933 -0.187330
v -0.020925 0.256838 0.200343
v 0.201130 0.144494 0.200589
v 0.201130 0.251544 0.107754
v 0.139083 0.253023 0.200520
v -0.429041 0.080565 -0.187330
v -0.363141 0.187561 -0.187330
v -0.428084 0.120707 0.200286
v -0.368840 0.151281 0.200320
v -0.406436 0.196597 -0.125405
v -0.426531 0.185874 -0.108309
v -0.399967 0.167607 0.145287
v -0.427235 0.156343 0.140504
v -0.101359 0.026963 0.200253
v -0.082107 -0.000000 0.200275
v -0.043837 -0.000000 -0.187330
v -0.063092 0.026963 -0.187330
v -0.202059 -0.008619 0.200142
v -0.170033 -0.008619 0.144691
v -0.195099 0.090489 0.200253
v -0.170033 0.086056 0.156308
vt 0.5634 0.8357
vt 0.5365 0.7996
vt 0.5634 0.7996
vt 0.5634 0.7996
vt 0.5744 0.8005
vt 0.5634 0.8105
vt 0.5636 0.7567
vt 0.5800 0.7568
vt 0.5863 0.7669
vt 0.5985 0.7569
vt 0.5863 0.7636
vt 0.5868 0.7567
vt 0.5985 0.8327
vt 0.5893 0.8609
vt 0.5893 0.8325
vt 0.5112 0.7567
vt 0.5365 0.7990
vt 0.5073 0.7989
vt 0.5101 0.8416
vt 0.5336 0.8503
vt 0.5073 0.8437
vt 0.5616 0.7634
vt 0.5365 0.7949
vt 0.5365 0.7573
vt 0.5073 0.7990
vt 0.5100 0.8412
vt 0.5074 0.8413
vt 0.5609 0.7930
vt 0.5633 0.7993
vt 0.5576 0.7991
vt 0.5370 0.8423
vt 0.5531 0.8608
vt 0.5365 0.8672
vt 0.5893 0.8005
vt 0.6209 0.7567
vt 0.6111 0.7619
vt 0.6107 0.7568
vt 0.6095 0.8399
vt 0.6025 0.8609
vt 0.5391 0.7996
vt 0.5907 0.7926
vt 0.6076 0.7569
vt 0.6076 0.7990
vt 0.5877 0.7655
vt 0.5636 0.7653
vt 0.5943 0.7991
vt 0.6076 0.7990
vt 0.6208 0.7632
vt 0.6209 0.7990
vt 0.6009 0.8325
vt 0.5897 0.8258
vt 0.5893 0.8083
vt 0.6130 0.7996
vt 0.6157 0.8017
vt 0.5675 0.7989
vt 0.5863 0.7990
vt 0.5893 0.8424
vt 0.5634 0.8423
vt 0.5570 0.7567
vt 0.5073 0.8703
vt 0.5332 0.8703
vt 0.5601 0.8418
vt 0.5365 0.8418
vt 0.5498 0.8672
vt 0.5342 0.7993
vt 0.5099 0.7990
vt 0.5365 0.7567
vt 0.5636 0.7925
vt 0.5472 0.8418
vt 0.6157 0.8325
vt 0.5342 0.8416
vn 0.0000 -1.0000 -0.0000
vn 0.7532 0.4309 0.4969
vn 0.0238 0.9997 -0.0000
vn -0.7068 0.4353 -0.5577
vn 0.0000 0.0000 -1.0000
vn 0.3289 0.9398 0.0928
vn -0.8112 -0.5793 -0.0801
vn -0.4066 0.7873 0.4635
vn 0.0000 -0.0011 1.0000
vn 1.0000 0.0000 0.0000
vn 0.8643 -0.0613 0.4992
vn -0.9997 0.0238 -0.0000
vn -0.3956 0.9121 0.1071
vn -0.0011 -0.0000 1.0000
vn -0.9398 0.3289 -0.0928
vn 0.8643 -0.0612 0.4992
s off
f 26/1/1 2/2/1 3/3/1
f 12/4/2 10/5/2 11/6/2
f 9/7/3 12/8/3 11/9/3
f 13/10/4 17/11/4 14/12/4
f 13/13/5 3/14/5 2/15/5
f 23/16/1 5/17/1 22/18/1
f 24/19/5 8/20/5 23/21/5
f 17/22/6 28/23/6 4/24/6
f 22/25/7 24/26/7 23/27/7
f 19/28/8 15/29/8 16/30/8
f 25/31/9 16/32/9 1/33/9
f 11/6/10 10/5/10 5/34/10
f 25/35/11 28/36/11 27/37/11
f 13/13/5 14/38/5 4/39/5
f 28/23/6 16/30/6 27/40/6
f 20/41/12 2/42/12 1/43/12
f 18/44/12 13/10/12 2/42/12
f 18/45/13 19/28/13 17/22/13
f 15/46/12 20/41/12 1/43/12
f 13/10/4 18/44/4 17/11/4
f 4/47/10 26/48/10 3/49/10
f 10/50/14 12/51/14 9/52/14
f 9/52/14 21/53/14 22/54/14
f 8/55/3 11/9/3 7/56/3
f 11/6/10 6/57/10 7/58/10
f 14/59/6 17/22/6 4/24/6
f 6/60/5 8/20/5 7/61/5
f 26/1/1 25/62/1 1/63/1
f 16/32/9 15/64/9 1/33/9
f 22/54/14 10/50/14 9/52/14
f 9/65/15 24/26/15 21/66/15
f 26/1/1 1/63/1 2/2/1
f 13/13/5 4/39/5 3/14/5
f 23/16/1 6/67/1 5/17/1
f 17/22/6 19/28/6 28/23/6
f 22/25/7 21/66/7 24/26/7
f 19/28/8 20/68/8 15/29/8
f 25/31/9 27/69/9 16/32/9
f 25/35/16 26/48/16 28/36/16
f 28/23/6 19/28/6 16/30/6
f 20/41/12 18/44/12 2/42/12
f 18/45/13 20/68/13 19/28/13
f 4/47/10 28/36/10 26/48/10
f 8/55/3 9/7/3 11/9/3
f 11/6/10 5/34/10 6/57/10
f 6/60/5 23/21/5 8/20/5
f 22/54/14 5/70/14 10/50/14
f 9/65/15 8/71/15 24/26/15
