# Blender v2.77 (sub 0) OBJ File: 'LowPoly_Level_Kit_Rocks.blend'
# www.blender.org
g Rock_Square_m_19
v 0.216000 0.000000 0.216000
v 0.216000 0.000000 -0.216000
v -0.216000 0.000000 -0.216000
v -0.197685 0.599912 0.197685
v -0.197685 0.609282 -0.197685
v 0.197685 0.609282 -0.197685
v 0.197685 0.599912 0.197685
v -0.216000 0.586102 -0.216000
v -0.216000 0.633329 -0.216000
v 0.216000 0.586102 -0.216000
v 0.216000 0.633329 -0.216000
v 0.216000 0.622571 0.216000
v 0.216000 0.576385 0.216000
v -0.216000 0.576385 0.216000
v 0.216000 0.853710 -0.216000
v 0.216000 0.853710 0.216000
v -0.089774 0.878422 0.216000
v -0.216000 0.805779 -0.216000
v -0.110428 0.880091 -0.216000
v -0.157717 0.883913 -0.157661
v -0.216000 0.843273 -0.157056
v -0.147819 0.000000 0.216000
v -0.216000 0.000000 0.109903
v -0.216000 0.044856 0.216000
v -0.193694 0.622571 0.216000
v -0.216000 0.623126 0.193694
v -0.204380 0.608195 0.204380
v -0.180520 0.817543 0.199964
v -0.208056 0.732780 0.201638
v -0.216000 0.721140 0.193694
v -0.216000 0.801173 0.141061
vt 0.4784 0.8589
vt 0.4784 0.8540
vt 0.4735 0.8589
vt 0.4810 0.8485
vt 0.4810 0.8437
vt 0.4787 0.8485
vt 0.4783 0.8539
vt 0.4734 0.8588
vt 0.4734 0.8539
vt 0.4836 0.8602
vt 0.4735 0.8602
vt 0.4836 0.8592
vt 0.4797 0.8488
vt 0.4797 0.8498
vt 0.4787 0.8498
vt 0.4732 0.8592
vt 0.4732 0.8640
vt 0.4632 0.8640
vt 0.4731 0.8591
vt 0.4631 0.8591
vt 0.4631 0.8639
vt 0.4628 0.8692
vt 0.4217 0.8669
vt 0.4217 0.8692
vt 0.4887 0.7607
vt 0.4864 0.8019
vt 0.4887 0.8019
vt 0.4214 0.8669
vt 0.3802 0.8692
vt 0.4214 0.8692
vt 0.4861 0.8021
vt 0.4838 0.8433
vt 0.4861 0.8433
vt 0.4217 0.8666
vt 0.4628 0.8643
vt 0.4217 0.8643
vt 0.4218 0.8019
vt 0.4421 0.8019
vt 0.4421 0.7608
vt 0.4421 0.8021
vt 0.4217 0.8433
vt 0.4421 0.8433
vt 0.4214 0.7607
vt 0.3802 0.8019
vt 0.4214 0.8019
vt 0.4628 0.8640
vt 0.4217 0.8436
vt 0.4217 0.8640
vt 0.4628 0.8019
vt 0.4424 0.7607
vt 0.4424 0.8019
vt 0.4732 0.8589
vt 0.4631 0.8539
vt 0.4631 0.8589
vt 0.4786 0.8487
vt 0.4786 0.8497
vt 0.4796 0.8487
vt 0.4887 0.8021
vt 0.4864 0.8433
vt 0.4887 0.8433
vt 0.4214 0.8640
vt 0.3802 0.8436
vt 0.3802 0.8640
vt 0.4836 0.8330
vt 0.4836 0.8230
vt 0.4632 0.8330
vt 0.4836 0.7814
vt 0.4631 0.8019
vt 0.4836 0.8019
vt 0.4836 0.8433
vt 0.4735 0.8433
vt 0.4836 0.8333
vt 0.4786 0.8484
vt 0.4786 0.8436
vt 0.4809 0.8436
vt 0.4424 0.8229
vt 0.4628 0.8433
vt 0.4628 0.8229
vt 0.4834 0.8229
vt 0.4631 0.8229
vt 0.4631 0.8329
vt 0.4420 0.7607
vt 0.4217 0.7607
vt 0.4217 0.8018
vt 0.4861 0.7607
vt 0.4838 0.8019
vt 0.4861 0.8019
vt 0.4834 0.8591
vt 0.4734 0.8591
vt 0.4734 0.8601
vt 0.3802 0.8666
vt 0.4214 0.8643
vt 0.3802 0.8643
vt 0.4732 0.8332
vt 0.4631 0.8537
vt 0.4732 0.8537
vt 0.4784 0.8537
vt 0.4735 0.8537
vt 0.4784 0.8437
vt 0.4834 0.8332
vt 0.4734 0.8332
vt 0.4734 0.8432
vt 0.4836 0.8226
vt 0.4424 0.8021
vt 0.4424 0.8226
vt 0.4836 0.7607
vt 0.4631 0.7812
vt 0.4836 0.7812
vt 0.4734 0.8436
vt 0.4783 0.8436
vt 0.4734 0.8536
vt 0.3802 0.8021
vt 0.4214 0.8433
vt 0.4214 0.8021
vt 0.4628 0.8669
vt 0.4864 0.7607
vt 0.3802 0.8669
vt 0.4838 0.8021
vt 0.4628 0.8666
vt 0.4217 0.8021
vt 0.3802 0.7607
vt 0.4628 0.8436
vt 0.4628 0.7607
vt 0.4732 0.8539
vt 0.4864 0.8021
vt 0.4214 0.8436
vt 0.4631 0.7814
vt 0.4424 0.8433
vt 0.4838 0.7607
vt 0.4214 0.8666
vt 0.4631 0.8332
vt 0.4836 0.8021
vt 0.4631 0.7607
vt 0.3802 0.8433
vn -0.5182 -0.7877 0.3330
vn -0.8539 0.2860 0.4349
vn -0.7069 -0.0450 0.7058
vn -0.7071 -0.0000 0.7071
vn -0.0000 -0.6286 0.7777
vn -0.5674 0.8154 0.1151
vn -0.2350 0.0954 0.9673
vn 0.0000 0.6143 0.7891
vn 0.7901 0.6128 0.0145
vn -0.0000 0.6200 -0.7846
vn 0.7898 -0.6132 -0.0153
vn -0.7901 0.6128 0.0145
vn -1.0000 0.0000 0.0000
vn 0.0806 0.9968 0.0000
vn 1.0000 0.0000 -0.0000
vn -0.5106 0.7255 -0.4615
vn -0.7837 -0.6210 -0.0155
vn -0.0000 -0.6059 -0.7955
vn 0.0000 -1.0000 0.0000
vn 0.0000 0.0000 -1.0000
vn 0.0000 0.0000 1.0000
vn -0.7838 -0.6209 -0.0147
vn 0.7837 0.6210 0.0140
vn 0.7834 -0.6213 -0.0147
vn -0.7837 0.6210 0.0140
vn -0.5107 0.7255 -0.4615
vn -0.7898 -0.6132 -0.0153
s off
f 24/1/1 23/2/1 22/3/1
f 29/4/2 31/5/2 30/6/2
f 25/7/3 26/8/3 27/9/3
f 30/10/4 25/11/4 29/12/4
f 25/13/5 27/14/5 4/15/5
f 31/16/6 28/17/6 17/18/6
f 17/19/7 29/20/7 25/21/7
f 13/22/8 4/23/8 14/24/8
f 7/25/9 10/26/9 6/27/9
f 10/28/10 5/29/10 6/30/10
f 12/31/11 6/32/11 11/33/11
f 8/34/12 4/35/12 5/36/12
f 23/37/13 24/38/13 14/39/13
f 17/40/14 15/41/14 20/42/14
f 13/43/15 2/44/15 10/45/15
f 16/46/15 11/47/15 15/48/15
f 8/49/13 23/50/13 14/51/13
f 18/52/16 20/53/16 19/54/16
f 27/55/17 26/56/17 4/57/17
f 5/58/18 11/59/18 6/60/18
f 23/61/19 2/62/19 1/63/19
f 19/64/14 20/65/14 15/66/14
f 31/67/13 9/68/13 26/69/13
f 18/70/20 19/71/20 9/72/20
f 29/73/2 28/74/2 31/75/2
f 17/76/21 12/77/21 16/78/21
f 1/79/19 22/80/19 23/81/19
f 22/82/21 1/83/21 13/84/21
f 25/85/5 7/86/5 12/87/5
f 30/88/4 26/89/4 25/90/4
f 26/91/22 5/92/22 4/93/22
f 31/94/6 20/95/6 21/96/6
f 30/97/13 31/98/13 26/99/13
f 21/100/13 18/101/13 9/102/13
f 24/103/21 13/104/21 14/105/21
f 19/106/20 11/107/20 9/108/20
f 28/109/7 29/110/7 17/111/7
f 3/112/20 10/113/20 2/114/20
f 13/22/8 7/115/8 4/23/8
f 7/25/23 13/116/23 10/26/23
f 10/28/10 8/117/10 5/29/10
f 12/31/24 7/118/24 6/32/24
f 8/34/25 14/119/25 4/35/25
f 17/40/14 16/120/14 15/41/14
f 13/43/15 1/121/15 2/44/15
f 16/46/15 12/122/15 11/47/15
f 8/49/13 3/123/13 23/50/13
f 18/52/26 21/124/26 20/53/26
f 5/58/18 9/125/18 11/59/18
f 23/61/19 3/126/19 2/62/19
f 31/67/13 21/127/13 9/68/13
f 17/76/21 25/128/21 12/77/21
f 25/85/5 4/129/5 7/86/5
f 26/91/27 9/130/27 5/92/27
f 31/94/6 17/131/6 20/95/6
f 24/103/21 22/132/21 13/104/21
f 19/106/20 15/133/20 11/107/20
f 3/112/20 8/134/20 10/113/20
