# Blender v2.77 (sub 0) OBJ File: 'LowPoly_Level_Kit_Rocks.blend'
# www.blender.org
g Rock_Square_l_03
v -0.688894 -0.000000 -0.687122
v -0.650494 -0.000000 -0.725433
v 0.647287 0.000000 -0.725720
v 0.685302 0.000000 -0.687190
v -0.604841 3.115756 0.588013
v -0.566521 3.118246 0.626494
v -0.566789 3.164657 0.547042
v -0.528472 3.167147 0.585525
v -0.642965 0.279607 0.716562
v -0.681234 0.283935 0.678091
v -0.448925 -0.000000 0.725479
v -0.688894 -0.000000 0.464639
v 0.653170 1.274341 0.649773
v 0.615412 1.264424 0.688499
v 0.685302 0.000000 0.588007
v 0.551819 0.000000 0.725700
v 0.608033 3.064477 0.597210
v 0.492082 3.187026 0.631411
v 0.604758 3.194346 0.333334
v 0.470863 3.232091 0.590237
v 0.562822 3.238067 0.346964
v 0.569317 3.092967 0.634671
v 0.607726 3.076639 -0.596852
v 0.570354 3.051838 -0.635880
v 0.562822 3.238067 -0.321559
v 0.604758 3.194347 -0.398314
v -0.571283 2.941425 -0.632103
v -0.609959 2.926034 -0.594047
v -0.604841 3.115756 -0.202224
v -0.566789 3.164657 -0.168279
v -0.454453 3.171958 -0.357900
v -0.494565 3.008432 -0.630456
vt 0.3320 0.7637
vt 0.3618 0.7619
vt 0.3612 0.7634
vt 0.3331 0.8097
vt 0.3297 0.8083
vt 0.3343 0.7994
vt 0.3356 0.8268
vt 0.3305 0.8195
vt 0.3356 0.8134
vt 0.3640 0.7979
vt 0.3651 0.7731
vt 0.3652 0.8008
vt 0.2951 0.8018
vt 0.2739 0.8138
vt 0.2951 0.7741
vt 0.3642 0.8098
vt 0.3309 0.7652
vt 0.3298 0.7935
vt 0.3298 0.7636
vt 0.3309 0.7622
vt 0.2610 0.8627
vt 0.2602 0.8598
vt 0.2936 0.8657
vt 0.2738 0.8152
vt 0.2937 0.8118
vt 0.2941 0.8132
vt 0.2610 0.8642
vt 0.2935 0.8672
vt 0.2936 0.8166
vt 0.2598 0.8195
vt 0.3640 0.7617
vt 0.3651 0.7631
vt 0.3310 0.7923
vt 0.3308 0.8098
vt 0.3306 0.8216
vt 0.3165 0.8624
vt 0.2959 0.8177
vt 0.3305 0.8222
vt 0.3639 0.7726
vt 0.3274 0.8148
vt 0.3305 0.8600
vt 0.2962 0.8607
vt 0.2951 0.8578
vt 0.2598 0.8114
vt 0.2938 0.7666
vt 0.2598 0.7632
vt 0.3652 0.8083
vt 0.2936 0.7651
vt 0.2598 0.7617
vt 0.2951 0.7698
vt 0.3297 0.7950
vt 0.2951 0.8134
vt 0.2983 0.7617
vt 0.3297 0.7651
vt 0.3276 0.8098
vt 0.3272 0.8134
vt 0.2958 0.8163
vt 0.2600 0.8166
vn -0.0465 0.6618 0.7483
vn -0.6152 0.7127 -0.3370
vn -0.6611 -0.4394 0.6082
vn 0.7217 0.6922 0.0000
vn 0.9997 0.0252 0.0000
vn -0.0376 0.8593 -0.5100
vn -0.7892 0.6141 0.0000
vn -0.0465 0.6625 0.7476
vn -0.0064 0.0319 -0.9995
vn 0.7094 0.0386 0.7038
vn -0.7057 0.0415 -0.7073
vn -0.4913 0.7514 0.4406
vn -0.0063 0.0293 -0.9996
vn 0.7340 0.6129 0.2925
vn -0.0028 0.0316 0.9995
vn -0.0649 0.9979 0.0000
vn -0.0002 0.0317 0.9995
vn -0.0002 0.0294 0.9996
vn -0.0065 0.0293 0.9996
vn 0.7179 -0.0156 0.6960
vn 0.7113 0.0386 -0.7018
vn -0.0648 0.9979 0.0000
vn -0.9996 0.0270 0.0000
vn -0.7093 0.0415 0.7037
vn 0.7105 0.0385 0.7026
vn -0.7091 0.0414 -0.7039
vn -0.0002 0.0316 -0.9995
vn 0.7094 0.0386 -0.7038
vn -0.7060 0.0414 0.7070
s off
f 8/1/1 18/2/1 20/3/1
f 32/4/2 28/5/2 31/6/2
f 11/7/3 10/8/3 12/9/3
f 25/10/4 19/11/4 26/12/4
f 19/13/5 13/14/5 26/15/5
f 24/16/6 25/10/6 26/12/6
f 7/17/7 29/18/7 5/19/7
f 8/1/8 6/20/8 18/2/8
f 27/21/9 32/22/9 2/23/9
f 14/24/10 17/25/10 22/26/10
f 28/27/11 2/23/11 1/28/11
f 6/20/12 7/17/12 5/19/12
f 31/6/6 24/16/6 32/4/6
f 3/29/13 32/22/13 24/30/13
f 20/3/14 18/2/14 22/31/14
f 22/31/14 17/32/14 20/3/14
f 30/33/2 31/6/2 29/18/2
f 32/4/2 27/34/2 28/5/2
f 28/5/2 29/18/2 31/6/2
f 11/7/3 9/35/3 10/8/3
f 14/36/15 6/37/15 11/38/15
f 25/10/4 21/39/4 19/11/4
f 8/1/16 21/39/16 30/33/16
f 9/40/17 11/38/17 6/37/17
f 16/41/18 14/36/18 11/38/18
f 22/42/19 18/43/19 14/36/19
f 14/24/20 15/44/20 13/14/20
f 23/45/5 26/15/5 4/46/5
f 19/13/5 17/25/5 13/14/5
f 21/39/14 17/32/14 19/11/14
f 26/12/6 23/47/6 24/16/6
f 24/48/21 4/46/21 3/49/21
f 7/17/22 8/1/22 30/33/22
f 12/50/23 29/51/23 1/52/23
f 4/46/5 13/14/5 15/44/5
f 7/17/7 30/33/7 29/18/7
f 10/53/23 5/54/23 12/50/23
f 29/51/23 28/55/23 1/52/23
f 31/6/22 21/39/22 25/10/22
f 10/56/24 6/37/24 5/57/24
f 14/24/25 13/14/25 17/25/25
f 28/27/26 27/21/26 2/23/26
f 6/20/12 8/1/12 7/17/12
f 31/6/6 25/10/6 24/16/6
f 3/29/27 2/23/27 32/22/27
f 14/36/19 18/43/19 6/37/19
f 8/1/16 20/3/16 21/39/16
f 14/24/20 16/58/20 15/44/20
f 21/39/14 20/3/14 17/32/14
f 24/48/28 23/45/28 4/46/28
f 12/50/23 5/54/23 29/51/23
f 4/46/5 26/15/5 13/14/5
f 31/6/16 30/33/16 21/39/16
f 10/56/29 9/40/29 6/37/29
