# Blender v2.77 (sub 0) OBJ File: 'LowPoly_Level_Kit_Rocks.blend'
# www.blender.org
g Rock_Square_l_01
v -0.650494 -0.000000 0.725434
v -0.688894 -0.000000 0.687123
v -0.688894 -0.000000 -0.687122
v -0.650494 -0.000000 -0.725433
v 0.685302 0.000000 0.687191
v 0.647287 0.000000 0.725721
v 0.647287 0.000000 -0.725720
v 0.685302 0.000000 -0.687190
v -0.607585 3.388498 0.588013
v -0.569185 3.388554 0.626494
v -0.566511 3.434889 0.547042
v -0.528113 3.434945 0.585525
v -0.528113 3.434945 -0.585524
v -0.566511 3.434889 -0.547041
v -0.569185 3.388554 -0.626493
v -0.607585 3.388498 -0.588012
v 0.527465 3.436498 0.590491
v 0.565482 3.436554 0.552132
v 0.566548 3.390208 0.631759
v 0.604563 3.390263 0.593397
v 0.565482 3.436553 -0.552131
v 0.527465 3.436497 -0.590490
v 0.604563 3.390263 -0.593396
v 0.566548 3.390208 -0.631757
v -0.002832 3.435718 -0.039080
v -0.040416 3.435663 0.000000
v 0.034735 3.435773 0.000000
v -0.002832 3.435718 0.039081
vt 0.0157 0.8557
vt 0.0410 0.8573
vt 0.0147 0.8571
vt 0.0148 0.8545
vt 0.0138 0.8170
vt 0.0148 0.8184
vt 0.0735 0.7717
vt 0.1034 0.8118
vt 0.0735 0.8091
vt 0.0735 0.8098
vt 0.0437 0.7677
vt 0.0735 0.7710
vt 0.0139 0.7721
vt 0.0437 0.8143
vt 0.0139 0.8112
vt 0.0157 0.8171
vt 0.0410 0.8156
vt 0.0401 0.8170
vt 0.0410 0.8546
vt 0.0419 0.8169
vt 0.0419 0.8560
vt 0.0278 0.8377
vt 0.0401 0.8559
vt 0.0438 0.8532
vt 0.0736 0.8131
vt 0.0736 0.8558
vt 0.0147 0.8158
vt 0.0410 0.8182
vt 0.1033 0.7677
vt 0.1034 0.7690
vt 0.0735 0.8571
vt 0.0437 0.8544
vt 0.0437 0.7690
vt 0.0138 0.7708
vt 0.0436 0.7677
vt 0.0138 0.8125
vt 0.0270 0.8364
vt 0.0287 0.8364
vt 0.0278 0.8351
vt 0.0138 0.8558
vt 0.0437 0.8131
vt 0.0437 0.8157
vt 0.0735 0.7704
vt 0.0436 0.8156
vn -0.0044 0.6641 -0.7476
vn -0.7487 0.6629 0.0000
vn -0.0047 0.0276 0.9996
vn -0.9997 0.0240 0.0000
vn 0.9997 0.0238 0.0000
vn -0.0045 0.6633 0.7483
vn 0.7641 0.6451 0.0000
vn -0.0015 1.0000 -0.0000
vn -0.0002 0.0292 -0.9996
vn -0.4426 0.7810 0.4406
vn -0.4427 0.7810 -0.4406
vn 0.4481 0.7752 -0.4452
vn 0.4481 0.7752 0.4452
vn -0.7058 0.0376 0.7074
vn -0.7074 0.0376 -0.7058
vn 0.7114 0.0364 0.7019
vn 0.7098 0.0364 -0.7034
vn -0.0045 0.6633 -0.7483
vn -0.0002 0.0292 0.9996
vn -0.0044 0.6641 0.7476
vn -0.0047 0.0276 -0.9996
vn -0.4427 0.7810 0.4406
vn -0.4426 0.7810 -0.4406
vn -0.7074 0.0376 0.7058
vn -0.7058 0.0376 -0.7074
vn 0.7098 0.0364 0.7034
vn 0.7114 0.0364 -0.7019
s off
f 13/1/1 24/2/1 15/3/1
f 14/4/2 9/5/2 11/6/2
f 10/7/3 6/8/3 19/9/3
f 16/10/4 2/11/4 9/12/4
f 20/13/5 8/14/5 23/15/5
f 12/16/6 19/17/6 17/18/6
f 21/19/7 20/20/7 23/21/7
f 25/22/8 22/23/8 13/1/8
f 15/24/9 7/25/9 4/26/9
f 10/27/10 11/6/10 9/5/10
f 15/3/11 14/4/11 13/1/11
f 23/21/12 22/23/12 21/19/12
f 17/18/13 20/20/13 18/28/13
f 10/7/14 2/29/14 1/30/14
f 15/24/15 3/31/15 16/32/15
f 5/33/16 19/34/16 6/35/16
f 8/14/17 24/36/17 23/15/17
f 25/22/8 14/4/8 26/37/8
f 11/6/8 26/37/8 14/4/8
f 27/38/8 26/37/8 28/39/8
f 21/19/8 25/22/8 27/38/8
f 12/16/8 17/18/8 28/39/8
f 18/28/8 28/39/8 17/18/8
f 18/28/8 21/19/8 27/38/8
f 11/6/8 28/39/8 26/37/8
f 13/1/18 22/23/18 24/2/18
f 14/4/2 16/40/2 9/5/2
f 10/7/19 1/30/19 6/8/19
f 16/10/4 3/41/4 2/11/4
f 20/13/5 5/33/5 8/14/5
f 12/16/20 10/27/20 19/17/20
f 21/19/7 18/28/7 20/20/7
f 15/24/21 24/42/21 7/25/21
f 10/27/22 12/16/22 11/6/22
f 15/3/23 16/40/23 14/4/23
f 23/21/12 24/2/12 22/23/12
f 17/18/13 19/17/13 20/20/13
f 10/7/24 9/43/24 2/29/24
f 15/24/25 4/26/25 3/31/25
f 5/33/26 20/13/26 19/34/26
f 8/14/27 7/44/27 24/36/27
f 25/22/8 13/1/8 14/4/8
f 27/38/8 25/22/8 26/37/8
f 21/19/8 22/23/8 25/22/8
f 18/28/8 27/38/8 28/39/8
f 11/6/8 12/16/8 28/39/8
