# Blender v2.77 (sub 0) OBJ File: 'LowPoly_Level_Kit_Rocks.blend'
# www.blender.org
g Rock_Square_m_09
v 0.197614 0.000000 0.170722
v -0.197614 0.000000 0.170722
v 0.197614 0.000000 -0.206591
v -0.197614 0.000000 -0.206591
v 0.197614 0.715660 0.170722
v -0.197614 0.669931 -0.206591
v -0.064561 0.699484 -0.206591
v -0.197614 0.623516 0.170722
v -0.008486 0.711633 0.170722
v -0.072912 0.708642 0.111581
v -0.197614 0.678803 0.049734
v 0.197614 0.668755 -0.206591
v 0.197614 0.709713 -0.032304
v 0.121513 0.703120 -0.206591
vt 0.0131 0.8645
vt 0.0572 0.8645
vt 0.0572 0.8537
vt 0.1016 0.8534
vt 0.1016 0.8426
vt 0.0908 0.8534
vt 0.0794 0.8312
vt 0.0352 0.8092
vt 0.0352 0.8312
vt 0.0794 0.7649
vt 0.0574 0.8090
vt 0.0794 0.8090
vt 0.0350 0.8534
vt 0.0131 0.8534
vt 0.0350 0.8093
vt 0.0907 0.8092
vt 0.1127 0.8312
vt 0.1127 0.8092
vt 0.0130 0.8536
vt 0.0130 0.8644
vt 0.0571 0.8536
vt 0.1127 0.8423
vt 0.0907 0.8314
vt 0.0907 0.8423
vt 0.0907 0.8533
vt 0.0907 0.8425
vt 0.1015 0.8425
vt 0.1016 0.7649
vt 0.0796 0.8090
vt 0.1016 0.8090
vt 0.0349 0.8092
vt 0.0130 0.8092
vt 0.0130 0.8533
vt 0.0352 0.8534
vt 0.0794 0.8314
vt 0.0352 0.8314
vt 0.0794 0.8537
vt 0.0794 0.8645
vt 0.0575 0.8645
vt 0.0574 0.8536
vt 0.0574 0.8644
vt 0.0793 0.8536
vt 0.0905 0.8534
vt 0.0797 0.8534
vt 0.0905 0.8093
vt 0.0904 0.8092
vt 0.0796 0.8092
vt 0.0796 0.8533
vt 0.0130 0.7649
vt 0.0572 0.8090
vt 0.0572 0.7649
vt 0.0794 0.8092
vt 0.0574 0.7649
vt 0.0907 0.8312
vt 0.1127 0.8314
vt 0.0796 0.7649
vt 0.0794 0.8534
vt 0.0130 0.8090
vn 0.4024 0.8912 -0.2094
vn -0.3902 0.8374 0.3827
vn 1.0000 0.0000 -0.0000
vn -1.0000 0.0000 0.0000
vn -0.0195 0.9994 -0.0293
vn -0.2167 0.9757 -0.0338
vn 0.0000 0.0000 -1.0000
vn 0.0000 0.0000 1.0000
vn 0.0000 -1.0000 0.0000
s off
f 13/1/1 12/2/1 14/3/1
f 10/4/2 8/5/2 9/6/2
f 1/7/3 13/8/3 5/9/3
f 4/10/4 11/11/4 6/12/4
f 12/13/3 13/14/3 3/15/3
f 13/16/5 7/17/5 10/18/5
f 8/19/4 11/20/4 2/21/4
f 7/22/6 11/23/6 10/24/6
f 10/25/2 11/26/2 8/27/2
f 3/28/7 7/29/7 14/30/7
f 9/31/8 8/32/8 2/33/8
f 9/34/8 1/35/8 5/36/8
f 10/37/5 9/38/5 13/39/5
f 5/40/5 13/41/5 9/42/5
f 6/43/7 7/44/7 4/45/7
f 14/46/7 12/47/7 3/48/7
f 1/49/9 4/50/9 3/51/9
f 1/7/3 3/52/3 13/8/3
f 4/10/4 2/53/4 11/11/4
f 13/16/5 14/54/5 7/17/5
f 7/22/6 6/55/6 11/23/6
f 3/28/7 4/56/7 7/29/7
f 9/34/8 2/57/8 1/35/8
f 1/49/9 2/58/9 4/50/9
