# Blender v2.77 (sub 0) OBJ File: 'LowPoly_Level_Kit_Rocks.blend'
# www.blender.org
g Rock_Square_m_05
v 0.206953 0.000000 0.240000
v -0.206953 0.000000 0.240000
v 0.206953 0.000000 -0.240000
v -0.206953 0.000000 -0.240000
v -0.206953 0.740379 0.240000
v 0.206953 0.867723 -0.240000
v 0.112985 0.875782 -0.240000
v 0.206953 0.855239 0.240000
v -0.087902 0.821973 0.240000
v 0.058315 0.911152 0.176850
v 0.206953 0.900178 0.200954
v -0.206953 0.563971 -0.240000
v -0.052348 0.762467 -0.240000
v -0.206953 0.675687 -0.130224
vt 0.5802 0.8220
vt 0.5486 0.8220
vt 0.5711 0.7694
vt 0.6168 0.7637
vt 0.6168 0.7764
vt 0.6084 0.7693
vt 0.5120 0.8520
vt 0.5436 0.8213
vt 0.5436 0.8520
vt 0.5486 0.7673
vt 0.5600 0.7637
vt 0.6046 0.8125
vt 0.6118 0.8685
vt 0.5920 0.8197
vt 0.5718 0.8524
vt 0.5790 0.8241
vt 0.5790 0.8524
vt 0.5457 0.7637
vt 0.5486 0.8213
vt 0.5120 0.8213
vt 0.5677 0.8256
vt 0.5600 0.8529
vt 0.5489 0.8463
vt 0.6168 0.8125
vt 0.5802 0.8125
vt 0.5802 0.7746
vt 0.5120 0.8213
vt 0.5486 0.7644
vt 0.5802 0.8324
vt 0.5802 0.8685
vt 0.6118 0.8130
vt 0.5120 0.7658
vt 0.5486 0.7666
vt 0.5486 0.8224
vt 0.5572 0.8220
vt 0.5802 0.7651
vn 0.0000 0.0000 1.0000
vn -0.6689 0.5210 -0.5302
vn 0.0000 -1.0000 0.0000
vn -0.0738 0.6541 0.7528
vn 0.0000 0.0000 -1.0000
vn 0.0852 0.9937 -0.0731
vn 1.0000 0.0000 -0.0000
vn -0.5596 0.8164 -0.1427
vn -1.0000 0.0000 0.0000
s off
f 2/1/1 1/2/1 9/3/1
f 13/4/2 12/5/2 14/6/2
f 2/7/3 3/8/3 1/9/3
f 8/10/4 10/11/4 9/3/4
f 7/12/5 3/13/5 13/14/5
f 7/15/6 11/16/6 6/17/6
f 11/18/7 1/19/7 3/20/7
f 10/21/8 13/22/8 14/23/8
f 14/6/9 4/24/9 2/25/9
f 8/10/1 9/3/1 1/2/1
f 5/26/1 2/1/1 9/3/1
f 2/7/3 4/27/3 3/8/3
f 8/10/4 11/28/4 10/11/4
f 12/29/5 13/14/5 4/30/5
f 7/12/5 6/31/5 3/13/5
f 3/13/5 4/30/5 13/14/5
f 7/15/6 10/21/6 11/16/6
f 3/20/7 6/32/7 11/18/7
f 11/18/7 8/33/7 1/19/7
f 14/23/8 5/34/8 9/35/8
f 9/35/8 10/21/8 14/23/8
f 7/15/8 13/22/8 10/21/8
f 2/25/9 5/36/9 14/6/9
f 14/6/9 12/5/9 4/24/9
