# Blender v2.77 (sub 0) OBJ File: 'LowPoly_Level_Kit_Rocks.blend'
# www.blender.org
g Rock_Square_crk_m_05
v -0.589260 0.105129 -0.341184
v -0.356485 -0.007093 -0.259422
v -0.722196 -0.005724 -0.114867
v -0.590270 -0.026155 -0.406081
v -0.166174 0.927439 0.263674
v -0.166174 0.948420 -0.263674
v 0.361174 0.948420 -0.263674
v -0.166174 0.681784 0.263674
v 0.361174 0.612551 -0.263674
v 0.097500 0.619020 -0.263674
v 0.097500 0.619020 0.263674
v -0.166174 0.855325 -0.263674
v -0.166174 0.681784 -0.196185
v -0.110195 0.668459 -0.263674
v 0.361174 0.883708 0.263674
v 0.361174 0.930351 0.190475
v 0.260167 0.927439 0.263674
v 0.361174 0.612551 0.231998
v 0.320447 0.613550 0.263674
v 0.361174 0.663824 0.263674
v 0.263674 0.000000 0.263674
v -0.263674 0.000000 0.263674
v 0.263674 0.000000 -0.263674
v -0.263674 0.000000 -0.263674
v 0.263674 0.615822 0.263674
v 0.000000 0.000000 0.263674
v -0.000000 0.000000 -0.263674
v -0.000000 0.622291 -0.263674
v 0.000000 0.622291 0.263674
v -0.263674 0.567998 0.263674
v -0.194706 0.668638 0.263674
v -0.263674 0.685054 0.021246
v 0.263674 0.539974 -0.263674
v 0.221313 0.616861 -0.263674
v 0.263674 0.615822 -0.202782
v -0.263674 0.538602 -0.263674
v -0.393391 0.063175 0.453730
v -0.411490 0.016191 0.299518
v -0.244552 -0.019693 0.461509
v -0.436173 -0.013020 0.460613
v 0.540991 0.051991 0.228306
v 0.526545 -0.008630 -0.088179
v 0.636215 -0.001618 0.249061
v 0.512524 0.004911 0.247406
vt 0.6067 0.8332
vt 0.5990 0.8241
vt 0.6067 0.8152
vt 0.6082 0.8516
vt 0.6094 0.8624
vt 0.6018 0.8624
vt 0.6093 0.8380
vt 0.6093 0.8516
vt 0.6018 0.8410
vt 0.5990 0.8299
vt 0.5865 0.8282
vt 0.5990 0.8152
vt 0.5138 0.7665
vt 0.5380 0.7988
vt 0.5269 0.8054
vt 0.5380 0.8346
vt 0.5380 0.8296
vt 0.5414 0.8299
vt 0.5191 0.8541
vt 0.5327 0.8419
vt 0.5299 0.8515
vt 0.5966 0.8624
vt 0.5865 0.8624
vt 0.5868 0.8592
vt 0.5834 0.8380
vt 0.5865 0.8406
vt 0.5865 0.8504
vt 0.5865 0.7927
vt 0.5865 0.7908
vt 0.5894 0.7908
vt 0.5637 0.8626
vt 0.5623 0.8607
vt 0.5623 0.8504
vt 0.5379 0.8051
vt 0.5837 0.8379
vt 0.5865 0.8335
vt 0.5865 0.8380
vt 0.5138 0.7970
vt 0.5623 0.8379
vt 0.5380 0.8172
vt 0.5492 0.8296
vt 0.5381 0.8264
vt 0.5622 0.8287
vt 0.5623 0.8171
vt 0.6045 0.7955
vt 0.6020 0.7908
vt 0.5138 0.8541
vt 0.5380 0.7992
vt 0.5501 0.7665
vt 0.5501 0.8023
vt 0.5865 0.7712
vt 0.5744 0.8024
vt 0.5744 0.7665
vt 0.6009 0.8380
vt 0.6018 0.8624
vt 0.5623 0.8300
vt 0.5595 0.8050
vt 0.5380 0.8050
vt 0.5895 0.7908
vt 0.5865 0.7893
vt 0.5865 0.7665
vt 0.5871 0.8380
vt 0.6048 0.7874
vt 0.6021 0.7908
vt 0.5868 0.8030
vt 0.5623 0.8024
vt 0.5865 0.8024
vt 0.5259 0.8054
vt 0.5380 0.8297
vt 0.5259 0.8297
vt 0.5865 0.8626
vt 0.6045 0.8152
vt 0.5904 0.8152
vt 0.5623 0.8020
vt 0.6058 0.7665
vt 0.5412 0.8050
vt 0.5623 0.8070
vt 0.5623 0.8380
vt 0.5623 0.7713
vt 0.5846 0.7668
vt 0.5623 0.8542
vt 0.5380 0.8541
vt 0.5138 0.8297
vt 0.5138 0.8297
vt 0.5138 0.8054
vt 0.5378 0.8569
vt 0.5331 0.8517
vt 0.5378 0.8461
vt 0.5910 0.8299
vt 0.5910 0.8376
vt 0.5865 0.8361
vt 0.6045 0.8138
vt 0.6093 0.8063
vt 0.6093 0.8147
vt 0.5212 0.8629
vt 0.5138 0.8619
vt 0.5212 0.8541
vt 0.5372 0.8461
vt 0.5331 0.8321
vt 0.5372 0.8297
vt 0.6088 0.7665
vt 0.6088 0.7820
vt 0.6058 0.7812
vt 0.5910 0.8348
vt 0.5940 0.8299
vt 0.5940 0.8353
vt 0.6102 0.7908
vt 0.6102 0.8063
vt 0.6045 0.7910
vt 0.5380 0.7666
vt 0.5380 0.7665
vt 0.5380 0.8054
vt 0.5623 0.7665
vt 0.5623 0.8024
vt 0.5331 0.8297
vn 0.2115 0.8229 0.5273
vn 0.4666 0.3891 -0.7943
vn -0.8845 0.2122 -0.4156
vn 0.0291 -0.9961 0.0831
vn -1.0000 -0.0000 0.0000
vn 0.3430 0.7922 0.5048
vn -0.0000 0.0000 -1.0000
vn -0.7708 -0.2309 -0.5938
vn -0.2316 -0.9728 0.0000
vn 0.5443 -0.4409 0.7137
vn -0.0245 -0.9997 0.0000
vn -0.7958 0.5453 0.2633
vn 0.7507 0.4136 -0.5152
vn 1.0000 -0.0000 -0.0000
vn 0.2316 0.9728 0.0000
vn -0.2717 0.8559 -0.4400
vn 0.0000 0.0000 1.0000
vn -0.0000 0.9992 0.0398
vn 0.0245 0.9997 -0.0000
vn 0.0000 -1.0000 0.0000
vn 0.4752 0.8246 -0.3070
vn -0.8728 0.4859 -0.0456
vn -0.0015 0.0908 0.9959
vn -0.0334 -0.9825 -0.1833
vn 0.5124 0.8388 -0.1841
vn -0.8643 0.4998 -0.0563
vn 0.0072 0.3722 0.9281
vn -0.0532 -0.9979 0.0380
s off
f 2/1/1 1/2/1 3/3/1
f 2/4/2 4/5/2 1/6/2
f 4/7/3 3/8/3 1/9/3
f 4/10/4 2/11/4 3/12/4
f 24/13/5 30/14/5 32/15/5
f 17/16/6 15/17/6 16/18/6
f 12/19/7 10/20/7 14/21/7
f 12/22/8 14/23/8 13/24/8
f 13/25/9 14/26/9 10/27/9
f 19/28/10 18/29/10 20/30/10
f 18/31/11 19/32/11 11/33/11
f 32/15/12 30/14/12 31/34/12
f 35/35/13 33/36/13 34/37/13
f 24/13/5 32/15/5 36/38/5
f 33/36/14 35/35/14 25/39/14
f 29/40/15 32/41/15 31/42/15
f 36/43/16 32/41/16 28/44/16
f 17/45/17 20/30/17 15/46/17
f 12/19/7 6/47/7 10/20/7
f 30/48/17 26/49/17 29/50/17
f 33/51/7 27/52/7 28/53/7
f 5/54/5 6/55/5 12/22/5
f 16/18/18 7/56/18 17/16/18
f 35/57/19 29/40/19 25/58/19
f 20/59/14 18/60/14 9/61/14
f 5/54/5 13/24/5 8/62/5
f 16/63/14 15/64/14 20/59/14
f 19/28/17 20/30/17 11/65/17
f 33/36/14 21/66/14 23/67/14
f 27/68/20 21/69/20 26/70/20
f 18/31/11 10/27/11 9/71/11
f 11/65/17 5/72/17 8/73/17
f 26/49/17 25/74/17 29/50/17
f 16/63/14 9/61/14 7/75/14
f 29/50/17 31/76/17 30/48/17
f 34/77/19 28/44/19 35/57/19
f 13/25/9 11/33/9 8/78/9
f 27/52/7 36/79/7 28/53/7
f 28/53/7 34/80/7 33/51/7
f 17/16/18 6/81/18 5/82/18
f 7/83/7 10/20/7 6/47/7
f 29/40/15 28/44/15 32/41/15
f 27/68/20 22/84/20 24/85/20
f 38/86/21 37/87/21 39/88/21
f 38/89/22 40/90/22 37/91/22
f 40/92/23 39/93/23 37/94/23
f 40/95/24 38/96/24 39/97/24
f 42/98/25 41/99/25 43/100/25
f 42/101/26 44/102/26 41/103/26
f 44/104/27 43/105/27 41/106/27
f 44/107/28 42/108/28 43/109/28
f 24/13/5 22/110/5 30/14/5
f 17/45/17 11/65/17 20/30/17
f 30/48/17 22/111/17 26/49/17
f 33/51/7 23/67/7 27/52/7
f 35/57/19 28/44/19 29/40/19
f 5/54/5 12/22/5 13/24/5
f 33/36/14 25/39/14 21/66/14
f 27/68/20 23/112/20 21/69/20
f 18/31/11 11/33/11 10/27/11
f 11/65/17 17/45/17 5/72/17
f 26/49/17 21/113/17 25/74/17
f 16/63/14 20/59/14 9/61/14
f 13/25/9 10/27/9 11/33/9
f 27/52/7 24/114/7 36/79/7
f 17/16/18 7/56/18 6/81/18
f 7/83/7 9/115/7 10/20/7
f 27/68/20 26/70/20 22/84/20
