# Blender v2.77 (sub 0) OBJ File: 'LowPoly_Level_Kit_Rocks.blend'
# www.blender.org
g Rock_Square_crk_m_04
v 0.709708 -0.007840 0.225349
v 0.739231 -0.025174 0.311271
v 0.798096 0.023409 0.199744
v 0.738334 0.037181 0.257681
v -0.255925 0.023458 0.326174
v -0.354474 0.007294 0.311165
v -0.221758 0.032901 0.268750
v -0.306257 0.016737 0.221627
v -0.249018 -0.013600 0.325986
v -0.347567 -0.029764 0.310977
v -0.214851 -0.004157 0.268562
v -0.299349 -0.020321 0.221438
v -0.286441 -0.010024 -0.229261
v -0.231891 -0.019615 -0.234715
v -0.280875 0.041750 -0.255871
v -0.261847 0.015465 -0.216829
v -0.453587 -0.028940 -0.276258
v -0.481020 0.027232 -0.238191
v -0.401048 0.017069 -0.308460
v -0.467087 0.012214 -0.299948
v -0.216502 -0.012417 -0.216000
v -0.216502 0.126660 -0.216000
v 0.736538 0.295760 0.216000
v -0.582339 -0.050354 -0.209060
v -0.626488 0.907495 0.209849
v -0.289820 -0.035376 -0.212478
v -0.502835 0.913827 0.208404
v 0.616490 -0.012417 0.216000
v 0.736538 0.058446 0.216000
v 0.743664 -0.012417 0.072702
v -0.216502 -0.012417 0.164093
v -0.216502 0.093668 0.099921
v -0.135325 0.099792 0.216000
v -0.181325 -0.012417 0.216000
v 0.718141 -0.012417 -0.216000
v 0.746713 -0.012417 0.011403
v 0.758022 0.030634 -0.216000
v 0.758022 0.215659 -0.216000
v 0.752129 0.332005 -0.097514
v 0.587668 0.307413 -0.216000
v -0.630940 0.895875 -0.222006
v -0.631960 0.921846 -0.195532
v -0.549412 0.924484 -0.152481
v -0.537603 0.851609 -0.222398
v -0.580284 0.007929 0.222157
v -0.579401 -0.046534 0.059069
v -0.481631 -0.039287 0.221749
v -0.336949 -0.031879 0.220058
v -0.260137 -0.030332 0.044730
v -0.274901 0.097895 0.217530
vt 0.4034 0.8273
vt 0.4072 0.8236
vt 0.4072 0.8307
vt 0.4095 0.8302
vt 0.4072 0.8276
vt 0.4095 0.8236
vt 0.4064 0.8307
vt 0.4064 0.8353
vt 0.4034 0.8346
vt 0.4531 0.8406
vt 0.4508 0.8392
vt 0.4531 0.8353
vt 0.4090 0.8122
vt 0.4036 0.8160
vt 0.4034 0.8122
vt 0.4089 0.8236
vt 0.4036 0.8198
vt 0.4089 0.8179
vt 0.4042 0.8403
vt 0.4064 0.8353
vt 0.4064 0.8402
vt 0.4553 0.8353
vt 0.4531 0.8409
vt 0.4531 0.8353
vt 0.4319 0.8433
vt 0.4297 0.8402
vt 0.4319 0.8401
vt 0.4574 0.8405
vt 0.4574 0.8354
vt 0.4252 0.8386
vt 0.4273 0.8364
vt 0.4273 0.8409
vt 0.4338 0.8162
vt 0.4322 0.8140
vt 0.4338 0.8122
vt 0.4339 0.8401
vt 0.4339 0.8427
vt 0.4319 0.8424
vt 0.4334 0.8195
vt 0.4322 0.8186
vt 0.4334 0.8162
vt 0.4064 0.8331
vt 0.4094 0.8307
vt 0.4094 0.8352
vt 0.4085 0.8410
vt 0.4064 0.8380
vt 0.4085 0.8352
vt 0.4297 0.8403
vt 0.4273 0.8376
vt 0.4297 0.8364
vt 0.4297 0.8369
vt 0.4323 0.8364
vt 0.4323 0.8401
vt 0.4342 0.7565
vt 0.4471 0.7572
vt 0.4342 0.7588
vt 0.4588 0.7577
vt 0.4588 0.7645
vt 0.4506 0.7573
vt 0.4028 0.7565
vt 0.4094 0.7573
vt 0.4096 0.7658
vt 0.4032 0.8371
vt 0.4031 0.8463
vt 0.3976 0.8371
vt 0.4096 0.7636
vt 0.4096 0.7571
vt 0.4195 0.7565
vt 0.4342 0.8639
vt 0.4395 0.8138
vt 0.4508 0.8639
vt 0.4274 0.8161
vt 0.4322 0.8122
vt 0.4320 0.8136
vt 0.3849 0.8470
vt 0.3894 0.8372
vt 0.4526 0.8288
vt 0.4588 0.8112
vt 0.4586 0.8324
vt 0.4096 0.8225
vt 0.4120 0.8151
vt 0.4252 0.8122
vt 0.4525 0.8352
vt 0.4588 0.8353
vt 0.4588 0.8091
vt 0.4558 0.8111
vt 0.4342 0.8111
vt 0.4342 0.8081
vt 0.4096 0.8109
vt 0.4834 0.8099
vt 0.4603 0.8110
vt 0.4588 0.8096
vt 0.4588 0.7565
vt 0.4740 0.7565
vt 0.4344 0.8111
vt 0.3915 0.8122
vt 0.3849 0.8077
vt 0.4096 0.8119
vt 0.3849 0.7577
vt 0.4034 0.8358
vt 0.3853 0.8296
vt 0.4034 0.8182
vt 0.3849 0.8261
vt 0.3859 0.8133
vt 0.3962 0.8122
vt 0.4322 0.8363
vt 0.4588 0.8205
vt 0.4640 0.8110
vt 0.4769 0.8133
vt 0.4744 0.8110
vt 0.4808 0.8642
vt 0.4769 0.8572
vt 0.4890 0.8642
vt 0.4834 0.7594
vt 0.4945 0.8613
vt 0.4301 0.8122
vt 0.4769 0.8656
vt 0.4690 0.8656
vt 0.4342 0.7567
vt 0.4945 0.8110
vt 0.4874 0.8110
vt 0.4252 0.8622
vt 0.4195 0.8661
vt 0.3865 0.8614
vt 0.4090 0.8179
vt 0.4034 0.8236
vt 0.4042 0.8354
vt 0.4553 0.8409
vt 0.4297 0.8434
vt 0.4553 0.8404
vt 0.4274 0.8123
vt 0.4508 0.8111
vt 0.3902 0.8371
vt 0.4252 0.8364
vt 0.4032 0.8613
vn 0.2494 -0.9291 -0.2731
vn 0.6611 0.4945 0.5643
vn -0.8820 0.2997 0.3635
vn -0.4156 0.6899 -0.5927
vn -0.2077 0.9775 0.0372
vn 0.1642 -0.9863 -0.0156
vn 0.4715 0.0923 -0.8770
vn -0.1453 -0.0321 0.9889
vn 0.8379 0.1535 0.5238
vn -0.8623 -0.1583 -0.4810
vn -0.1652 -0.4367 -0.8843
vn 0.7720 0.6336 0.0503
vn 0.0109 -0.4468 0.8946
vn -0.7015 0.3840 0.6004
vn 0.6326 -0.1984 0.7486
vn -0.1038 0.9608 -0.2571
vn -0.9215 -0.3701 -0.1179
vn -0.0722 -0.5153 -0.8540
vn 0.7305 -0.6767 -0.0918
vn 0.4634 -0.7850 0.4112
vn 0.3629 0.6738 -0.6436
vn -0.4126 -0.8647 0.2865
vn 0.8425 -0.3957 0.3656
vn 0.0000 -1.0000 -0.0000
vn -0.0110 -0.0142 -0.9998
vn 0.3208 0.6823 -0.6569
vn 0.0513 -0.9986 0.0137
vn -1.0000 0.0000 0.0000
vn -0.0000 -0.0000 1.0000
vn -0.7839 0.3214 0.5312
vn 0.9570 0.2660 -0.1157
vn -0.9986 -0.0511 0.0117
vn -0.2182 0.9706 0.1014
vn 0.9988 0.0000 0.0497
vn -0.0507 0.9981 0.0360
vn -0.0000 0.0000 -1.0000
vn 0.0110 0.0142 0.9998
vn -0.1642 0.9863 0.0156
vn 0.2077 -0.9775 -0.0372
s off
f 1/1/1 3/2/1 2/3/1
f 3/4/2 4/5/2 2/6/2
f 2/7/3 4/8/3 1/9/3
f 1/10/4 4/11/4 3/12/4
f 8/13/5 5/14/5 7/15/5
f 12/16/6 9/17/6 10/18/6
f 11/19/7 8/20/7 7/21/7
f 10/22/8 5/23/8 6/24/8
f 5/25/9 11/26/9 7/27/9
f 8/28/10 10/22/10 6/29/10
f 13/30/11 15/31/11 14/32/11
f 15/33/12 16/34/12 14/35/12
f 14/36/13 16/37/13 13/38/13
f 13/39/14 16/40/14 15/41/14
f 17/42/15 19/43/15 18/44/15
f 19/45/16 20/46/16 18/47/16
f 18/48/17 20/49/17 17/50/17
f 17/51/18 20/52/18 19/53/18
f 37/54/19 36/55/19 35/56/19
f 29/57/20 28/58/20 30/59/20
f 39/60/21 38/61/21 40/62/21
f 45/63/22 46/64/22 47/65/22
f 50/66/23 48/67/23 49/68/23
f 35/56/24 36/55/24 28/58/24
f 24/69/25 44/70/25 26/71/25
f 43/72/26 41/73/26 42/74/26
f 47/65/27 49/75/27 48/76/27
f 32/77/28 21/78/28 31/79/28
f 28/80/29 29/81/29 23/82/29
f 33/83/30 31/79/30 34/84/30
f 34/85/24 31/86/24 21/87/24
f 50/66/31 44/88/31 27/89/31
f 36/55/24 30/59/24 28/58/24
f 28/58/24 21/87/24 35/56/24
f 25/90/32 42/91/32 41/92/32
f 41/92/32 24/93/32 46/94/32
f 24/69/25 41/95/25 44/70/25
f 32/96/33 33/97/33 22/98/33
f 23/99/33 39/60/33 40/62/33
f 23/100/34 30/101/34 39/102/34
f 36/103/34 37/104/34 38/105/34
f 38/105/34 39/102/34 36/103/34
f 25/106/35 43/72/35 42/74/35
f 30/101/34 36/103/34 39/102/34
f 40/62/33 33/97/33 23/99/33
f 40/107/36 38/108/36 35/109/36
f 37/110/36 35/109/36 38/108/36
f 48/111/37 50/112/37 47/113/37
f 41/92/32 45/114/32 25/90/32
f 45/115/37 47/113/37 50/112/37
f 44/88/31 43/116/31 27/89/31
f 40/107/36 21/117/36 22/118/36
f 49/68/31 26/119/31 50/66/31
f 25/120/37 50/112/37 27/121/37
f 28/80/29 33/122/29 34/123/29
f 46/64/27 26/124/27 49/75/27
f 8/13/38 6/125/38 5/14/38
f 12/16/39 11/126/39 9/17/39
f 11/19/7 12/127/7 8/20/7
f 10/22/8 9/128/8 5/23/8
f 5/25/9 9/129/9 11/26/9
f 8/28/10 12/130/10 10/22/10
f 43/72/26 44/131/26 41/73/26
f 47/65/27 46/64/27 49/75/27
f 32/77/28 22/132/28 21/78/28
f 33/83/30 32/77/30 31/79/30
f 50/66/31 26/119/31 44/88/31
f 28/58/24 34/85/24 21/87/24
f 23/100/34 29/133/34 30/101/34
f 25/106/35 27/134/35 43/72/35
f 40/62/33 22/98/33 33/97/33
f 41/92/32 46/94/32 45/114/32
f 40/107/36 35/109/36 21/117/36
f 25/120/37 45/115/37 50/112/37
f 28/80/29 23/82/29 33/122/29
f 46/64/27 24/135/27 26/124/27
