# Blender v2.77 (sub 0) OBJ File: 'LowPoly_Level_Kit_Rocks.blend'
# www.blender.org
g Rock_Square_m_07
v 0.177537 0.000000 0.231513
v 0.178325 0.000000 -0.211789
v -0.211654 0.716142 0.196465
v -0.211654 0.414552 0.196465
v -0.185793 0.000000 0.198794
v -0.136374 0.000000 -0.211789
v -0.189630 0.697330 -0.211789
v -0.212442 0.795271 0.072100
v -0.212442 0.783719 -0.045086
v -0.199956 0.772843 -0.158176
v 0.178325 0.662212 -0.211789
v 0.085537 0.729326 -0.211789
v -0.007650 0.777618 -0.172170
v -0.133599 0.800124 0.103854
v -0.146753 0.730743 0.202309
v 0.177537 0.295890 0.231513
v 0.005800 0.555412 0.216047
v 0.178325 0.487076 0.151314
vt 0.8451 0.8479
vt 0.8549 0.8281
vt 0.8549 0.8479
vt 0.8250 0.8580
vt 0.8448 0.8482
vt 0.8448 0.8580
vt 0.7646 0.8680
vt 0.7844 0.8482
vt 0.7844 0.8680
vt 0.8649 0.7878
vt 0.8649 0.8076
vt 0.8552 0.8076
vt 0.8249 0.8481
vt 0.8249 0.8579
vt 0.8447 0.8481
vt 0.8551 0.7877
vt 0.8648 0.7877
vt 0.8551 0.8075
vt 0.8549 0.8482
vt 0.8549 0.8580
vt 0.8451 0.8580
vt 0.8247 0.8580
vt 0.7847 0.8580
vt 0.8247 0.8482
vt 0.8450 0.8579
vt 0.8450 0.8481
vt 0.8547 0.8481
vt 0.7843 0.8481
vt 0.7645 0.8679
vt 0.7645 0.8481
vt 0.7846 0.8579
vt 0.7846 0.8481
vt 0.8246 0.8481
vt 0.8045 0.8680
vt 0.7847 0.8680
vt 0.8045 0.8583
vt 0.8549 0.7878
vt 0.8549 0.8278
vt 0.8451 0.8278
vt 0.8450 0.7877
vt 0.8547 0.7877
vt 0.8450 0.8277
vt 0.8649 0.7875
vt 0.8451 0.7875
vt 0.8649 0.7677
vt 0.7846 0.8582
vt 0.8044 0.8582
vt 0.7846 0.8679
vt 0.8450 0.7676
vt 0.8450 0.7874
vt 0.8648 0.7676
vt 0.8547 0.8280
vt 0.8450 0.8280
vt 0.8450 0.8478
vt 0.8249 0.8078
vt 0.8448 0.8479
vt 0.8448 0.8078
vt 0.8045 0.7676
vt 0.7645 0.8076
vt 0.8045 0.8076
vt 0.8649 0.8078
vt 0.8551 0.8177
vt 0.8649 0.8177
vt 0.8045 0.8078
vt 0.7645 0.8479
vt 0.8045 0.8479
vt 0.8047 0.8076
vt 0.8448 0.7877
vt 0.8047 0.7877
vt 0.8247 0.8078
vt 0.8047 0.8479
vt 0.8247 0.8479
vt 0.8448 0.7875
vt 0.8047 0.7676
vt 0.8047 0.7875
vt 0.8249 0.8479
vt 0.7645 0.7676
vt 0.8551 0.8078
vt 0.7645 0.8078
vt 0.8448 0.8076
vt 0.8047 0.8078
vt 0.8448 0.7676
vn -1.0000 0.0000 0.0063
vn -0.0737 0.5706 -0.8179
vn 0.4464 0.3446 0.8258
vn -0.0319 0.9946 -0.0992
vn -1.0000 -0.0020 0.0002
vn -0.0646 0.5555 -0.8290
vn -0.9927 -0.0622 -0.1036
vn -0.9924 -0.0758 -0.0965
vn -0.0217 0.9949 -0.0981
vn -0.0289 0.9951 -0.0943
vn 0.0000 0.0000 -1.0000
vn 0.6333 0.5902 0.5005
vn 0.5459 0.7547 0.3640
vn -0.0897 0.0000 0.9960
vn 1.0000 0.0000 0.0098
vn 1.0000 -0.0013 0.0018
vn -0.2307 0.8096 0.5397
vn -0.9909 -0.0625 -0.1193
vn 0.4669 0.7743 0.4270
vn 0.0000 -1.0000 0.0000
vn 1.0000 0.0000 -0.0000
vn -0.2594 0.8141 0.5196
vn -0.9914 -0.0731 -0.1085
vn 0.7625 0.5725 0.3013
s off
f 8/1/1 4/2/1 3/3/1
f 13/4/2 7/5/2 10/6/2
f 17/7/3 16/8/3 18/9/3
f 13/10/4 10/11/4 9/12/4
f 8/13/5 9/14/5 4/15/5
f 13/16/6 12/17/6 7/18/6
f 9/19/7 10/20/7 7/21/7
f 7/22/8 6/23/8 9/24/8
f 9/25/9 8/26/9 14/27/9
f 14/28/10 13/29/10 9/30/10
f 12/31/11 11/32/11 2/33/11
f 15/34/12 17/35/12 14/36/12
f 18/37/13 11/38/13 12/39/13
f 12/40/13 13/41/13 18/42/13
f 17/43/14 15/44/14 4/45/14
f 3/46/14 4/47/14 15/48/14
f 16/49/14 17/50/14 1/51/14
f 18/52/15 16/53/15 1/54/15
f 4/55/14 1/56/14 17/57/14
f 2/58/16 18/59/16 1/60/16
f 14/61/17 3/62/17 15/63/17
f 4/64/18 6/65/18 5/66/18
f 6/67/11 12/68/11 2/69/11
f 13/70/19 17/71/19 18/72/19
f 1/73/20 6/74/20 2/75/20
f 4/55/14 5/76/14 1/56/14
f 2/58/21 11/77/21 18/59/21
f 14/61/22 8/78/22 3/62/22
f 4/64/23 9/79/23 6/65/23
f 6/67/11 7/80/11 12/68/11
f 13/70/24 14/81/24 17/71/24
f 1/73/20 5/82/20 6/74/20
