# Blender v2.77 (sub 0) OBJ File: 'LowPoly_Level_Kit_Rocks.blend'
# www.blender.org
g Rock_Square_l_14
v -0.592825 -0.000000 -0.726150
v 0.782746 0.000000 0.726455
v -0.477701 2.478343 0.637169
v -0.477701 2.478343 -0.637168
v 0.741599 2.479182 -0.639997
v 0.741599 2.479182 0.639998
v 0.778773 2.418126 0.680559
v 0.778473 2.543254 0.677097
v 0.778773 2.418126 -0.680558
v 0.778474 2.543254 -0.677096
v -0.517503 2.417267 -0.677653
v -0.511821 2.542330 -0.673995
v 0.777294 3.035685 0.663474
v -0.494133 2.931700 -0.662606
v -0.345493 3.051396 -0.659534
v -0.486758 3.094049 0.005801
v 0.777557 2.925930 -0.666509
v 0.777426 2.980836 -0.457957
v 0.590448 2.984135 -0.664316
v -0.497641 2.515737 0.658690
v -0.511821 2.542330 0.640793
v -0.456837 2.542369 0.674128
v -0.159547 3.102540 0.658619
v -0.485980 3.111183 0.357316
v -0.328238 3.109498 0.553873
v -0.491135 2.997702 0.494155
v -0.592825 -0.000000 0.522526
v -0.450332 -0.000000 0.726183
v -0.493535 2.454046 0.653274
v -0.476582 2.417294 0.677746
v -0.517503 2.417267 0.619260
v 0.151132 0.000000 -0.726315
v 0.780686 1.619483 -0.702653
v 0.782746 0.000000 -0.208478
v 0.782283 0.193290 -0.628273
v 0.482244 0.000000 -0.663618
vt 0.0502 0.7648
vt 0.0156 0.7637
vt 0.0513 0.7638
vt 0.0166 0.7647
vt 0.0156 0.7977
vt 0.0541 0.8294
vt 0.0848 0.8284
vt 0.0853 0.8294
vt 0.0848 0.7980
vt 0.0554 0.7980
vt 0.0550 0.7971
vt 0.0563 0.7970
vt 0.0521 0.7971
vt 0.0524 0.7804
vt 0.0513 0.8059
vt 0.0516 0.8293
vt 0.0514 0.8563
vt 0.0683 0.8637
vt 0.0534 0.8638
vt 0.1157 0.7971
vt 0.1157 0.8310
vt 0.1112 0.8255
vt 0.0872 0.7919
vt 0.0872 0.7971
vt 0.0820 0.7971
vt 0.0415 0.8147
vt 0.0473 0.8306
vt 0.0414 0.8235
vt 0.1007 0.7684
vt 0.1053 0.7959
vt 0.1000 0.7918
vt 0.0524 0.7716
vt 0.0522 0.7682
vt 0.0567 0.7667
vt 0.0513 0.7962
vt 0.0502 0.7966
vt 0.0513 0.8480
vt 0.0766 0.8313
vt 0.0819 0.8294
vt 0.0819 0.8415
vt 0.0766 0.8355
vt 0.0410 0.7987
vt 0.0414 0.7993
vt 0.0409 0.8001
vt 0.0166 0.7967
vt 0.0542 0.7985
vt 0.0547 0.7975
vt 0.1060 0.7646
vt 0.1053 0.7637
vt 0.0553 0.8284
vt 0.0853 0.7971
vt 0.0156 0.8028
vt 0.0414 0.8325
vt 0.0160 0.8340
vt 0.1117 0.8307
vt 0.1106 0.7975
vt 0.0160 0.7977
vt 0.0426 0.8269
vt 0.0432 0.7980
vt 0.0473 0.7977
vt 0.1012 0.7955
vt 0.1013 0.7637
vt 0.0517 0.7641
vt 0.0528 0.7637
vt 0.0513 0.7645
vt 0.0613 0.7641
vt 0.1022 0.7971
vt 0.0853 0.8328
vt 0.0853 0.8095
vt 0.0871 0.7639
vt 0.0506 0.7970
vt 0.0502 0.7977
vt 0.0513 0.8294
vt 0.0766 0.8637
vt 0.1106 0.7977
vt 0.1106 0.8317
vt 0.0873 0.7990
vt 0.1000 0.7638
vt 0.0872 0.7945
vt 0.0872 0.7637
vt 0.1060 0.7950
vt 0.1000 0.7952
vn -0.0022 0.5535 -0.8328
vn 0.8541 0.5200 0.0000
vn 0.8667 -0.4988 0.0000
vn -0.8824 -0.4705 0.0000
vn -0.6147 0.7680 -0.1798
vn -0.0032 0.0276 0.9996
vn 0.1494 -0.0513 -0.9874
vn 1.0000 0.0024 0.0000
vn 0.2855 0.9269 -0.2438
vn -0.9990 0.0454 0.0000
vn -0.0030 0.0294 -0.9996
vn -0.6079 0.6223 0.4932
vn -0.8378 0.5460 0.0000
vn -0.0083 0.0178 -0.9998
vn 0.5357 -0.7668 -0.3537
vn -0.8194 0.0038 0.5733
vn 0.0713 0.9963 -0.0487
vn -0.0023 0.5524 -0.8336
vn -0.0017 -0.4995 0.8663
vn -0.0017 -0.5003 -0.8658
vn -0.9995 0.0311 0.0000
vn -0.0024 0.0290 0.9996
vn 0.1857 -0.0579 -0.9809
vn -0.8194 0.0026 0.5733
vn -0.0031 0.0276 -0.9996
vn -0.0024 0.0279 -0.9996
vn -0.4969 0.2864 0.8192
vn 1.0000 0.0013 0.0000
vn -0.0022 0.5535 0.8328
vn -0.0002 0.0201 -0.9998
vn -0.0023 0.0276 -0.9996
vn -0.0023 0.5535 0.8328
vn 1.0000 0.0011 -0.0006
vn -0.0002 0.0190 0.9998
vn -0.0017 -0.4995 -0.8663
vn 1.0000 0.0017 0.0004
vn -0.0017 -0.5004 0.8658
vn -0.0022 0.5524 0.8336
vn -0.0023 0.0200 0.9998
s off
f 4/1/1 9/2/1 11/3/1
f 5/4/2 7/5/2 9/2/2
f 8/6/3 5/7/3 10/8/3
f 4/9/4 3/10/4 21/11/4
f 15/12/5 14/13/5 16/14/5
f 23/15/6 8/6/6 13/16/6
f 36/17/7 33/18/7 35/19/7
f 8/20/8 10/21/8 18/22/8
f 18/23/9 17/24/9 19/25/9
f 16/26/10 21/27/10 24/28/10
f 19/29/11 12/30/11 15/31/11
f 24/32/12 26/33/12 25/34/12
f 4/1/13 31/35/13 3/36/13
f 33/18/14 32/37/14 11/38/14
f 34/39/15 36/40/15 35/41/15
f 30/42/16 29/43/16 31/44/16
f 16/14/17 18/23/17 19/25/17
f 4/1/18 5/4/18 9/2/18
f 5/4/2 6/45/2 7/5/2
f 22/46/19 20/47/19 3/10/19
f 5/48/20 12/30/20 10/49/20
f 8/6/3 6/50/3 5/7/3
f 20/47/4 21/11/4 3/10/4
f 12/51/4 4/9/4 21/11/4
f 27/52/21 11/53/21 1/54/21
f 23/15/22 22/46/22 8/6/22
f 36/17/23 32/37/23 33/18/23
f 17/55/8 18/22/8 10/21/8
f 13/56/8 8/20/8 18/22/8
f 28/57/24 31/44/24 27/52/24
f 26/58/10 24/28/10 21/27/10
f 16/26/10 14/59/10 12/60/10
f 12/60/10 21/27/10 16/26/10
f 14/61/11 15/31/11 12/30/11
f 19/29/25 17/62/25 10/49/25
f 10/49/26 12/30/26 19/29/26
f 20/63/27 22/64/27 21/65/27
f 23/66/27 25/34/27 22/64/27
f 33/67/28 2/68/28 34/69/28
f 25/34/17 23/66/17 16/14/17
f 13/70/17 18/23/17 23/66/17
f 19/25/17 15/12/17 16/14/17
f 16/14/17 24/32/17 25/34/17
f 26/33/27 22/64/27 25/34/27
f 29/71/13 3/36/13 31/35/13
f 4/1/13 11/3/13 31/35/13
f 6/50/19 22/46/19 3/10/19
f 29/71/29 30/72/29 3/36/29
f 1/73/30 11/38/30 32/37/30
f 9/74/31 33/18/31 11/38/31
f 33/67/8 9/75/8 7/76/8
f 30/72/32 6/45/32 3/36/32
f 34/69/33 35/77/33 33/67/33
f 7/78/34 28/79/34 2/80/34
f 16/14/17 23/66/17 18/23/17
f 5/48/35 4/81/35 12/30/35
f 27/52/21 31/44/21 11/53/21
f 28/57/24 30/42/24 31/44/24
f 33/67/36 7/76/36 2/68/36
f 26/33/27 21/65/27 22/64/27
f 6/50/37 8/6/37 22/46/37
f 30/72/38 7/5/38 6/45/38
f 7/78/39 30/82/39 28/79/39
