# Blender v2.77 (sub 0) OBJ File: 'LowPoly_Level_Kit_Rocks.blend'
# www.blender.org
g Rock_Square_l_06
v -0.608964 0.000000 -0.667569
v -0.061885 2.626970 -0.564315
v 0.617193 0.000000 0.681379
v -0.356983 1.584182 -0.599848
v 0.788351 1.512090 -0.604971
v 0.788351 1.512090 0.604972
v 0.961717 2.739110 0.579531
v 1.015909 2.549046 0.584883
v 0.552204 2.694246 -0.573443
v 1.002838 2.489485 -0.586036
v 1.054307 2.724020 -0.223416
v -0.061885 2.626970 -0.095153
v 0.055364 2.639815 0.566059
v -0.115232 2.438457 0.570740
v -0.608964 0.000000 0.228621
v -0.259327 0.000000 0.671508
v -0.345715 1.583472 0.599899
v -0.356983 1.584182 0.585643
v -0.347329 1.618295 0.598686
v 0.751092 1.182930 -0.621604
v 0.109106 0.000000 -0.675656
v 0.617193 0.000000 -0.426106
vt 0.0718 0.7727
vt 0.0595 0.7770
vt 0.0508 0.7668
vt 0.0199 0.8614
vt 0.0303 0.8332
vt 0.0303 0.8537
vt 0.0322 0.8041
vt 0.0081 0.8060
vt 0.0082 0.8002
vt 0.0941 0.8055
vt 0.0941 0.8049
vt 0.1077 0.8092
vt 0.0076 0.7682
vt 0.0369 0.7668
vt 0.0077 0.7699
vt 0.0747 0.7738
vt 0.0857 0.7766
vt 0.0857 0.7889
vt 0.0496 0.7836
vt 0.0501 0.7686
vt 0.0077 0.8144
vt 0.0966 0.8291
vt 0.0857 0.8129
vt 0.0072 0.8384
vt 0.0215 0.8231
vt 0.0281 0.8688
vt 0.0938 0.8054
vt 0.1078 0.7903
vt 0.0778 0.8150
vt 0.0658 0.8134
vt 0.0493 0.8041
vt 0.0508 0.8144
vt 0.0072 0.8141
vt 0.0872 0.8095
vt 0.0881 0.8333
vt 0.0864 0.8320
vt 0.0959 0.7738
vt 0.1092 0.7668
vt 0.0514 0.8133
vt 0.0079 0.8144
vt 0.0170 0.8601
vt 0.1092 0.8276
vn 0.4324 -0.1945 -0.8804
vn -0.0174 0.0232 -0.9996
vn -0.7559 0.6433 0.1215
vn -0.7848 -0.0148 0.6196
vn 0.9556 0.2754 0.1050
vn 0.9768 -0.2143 -0.0000
vn 0.3342 0.7691 -0.5448
vn -0.0827 0.9960 0.0339
vn -0.9622 0.2723 -0.0000
vn -0.0024 0.0329 0.9995
vn -0.0015 0.0474 -0.9989
vn -0.0023 0.0347 -0.9994
vn -0.1089 0.9941 0.0000
vn -0.0188 0.0391 0.9991
vn -0.0023 0.0347 0.9994
vn -0.0174 0.0232 0.9996
vn -0.9876 0.1571 0.0000
vn 0.9937 -0.1125 0.0000
vn -0.0113 0.0445 -0.9989
vn -0.0112 0.0517 -0.9986
vn -0.0112 0.0517 0.9986
vn -0.0899 0.9955 -0.0291
vn -0.0016 0.0451 0.9990
s off
f 20/1/1 22/2/1 21/3/1
f 5/4/2 2/5/2 9/6/2
f 12/7/3 14/8/3 13/9/3
f 17/10/4 18/11/4 16/12/4
f 8/13/5 11/14/5 7/15/5
f 5/16/6 10/17/6 11/18/6
f 9/19/7 11/14/7 10/20/7
f 9/19/8 12/7/8 11/14/8
f 18/21/9 14/8/9 12/7/9
f 17/10/10 6/22/10 13/23/10
f 5/4/11 21/24/11 4/25/11
f 9/6/2 10/26/2 5/4/2
f 5/4/12 4/25/12 2/5/12
f 17/10/4 19/27/4 18/11/4
f 18/11/4 15/28/4 16/12/4
f 11/18/6 8/29/6 6/30/6
f 6/30/6 5/16/6 11/18/6
f 9/19/13 2/31/13 12/7/13
f 12/7/9 2/31/9 4/32/9
f 4/32/9 18/21/9 12/7/9
f 19/33/9 14/8/9 18/21/9
f 13/23/14 14/34/14 17/10/14
f 19/27/15 17/10/15 14/34/15
f 6/22/16 8/35/16 7/36/16
f 7/36/16 13/23/16 6/22/16
f 15/28/17 4/37/17 1/38/17
f 22/2/18 6/30/18 3/39/18
f 1/40/19 4/25/19 21/24/19
f 5/4/20 20/41/20 21/24/20
f 20/1/18 5/16/18 22/2/18
f 6/22/21 16/12/21 3/42/21
f 12/7/22 7/15/22 11/14/22
f 15/28/17 18/11/17 4/37/17
f 22/2/18 5/16/18 6/30/18
f 6/22/23 17/10/23 16/12/23
f 12/7/13 13/9/13 7/15/13
