# Blender v2.77 (sub 0) OBJ File: 'LowPoly_Level_Kit_Rocks.blend'
# www.blender.org
g Rocks_Square_m_03
v 0.602014 0.000000 0.207611
v 0.602014 0.000000 -0.224389
v 0.197602 0.000000 -0.224389
v 0.197602 0.898559 0.207611
v 0.602014 0.876713 -0.224389
v 0.197602 0.881203 -0.224389
v 0.358324 0.902083 -0.224389
v 0.197602 0.915547 -0.154689
v 0.602014 0.805622 0.207611
v 0.552385 0.861624 0.207611
v 0.602014 0.858739 0.158951
v 0.197602 0.041136 0.207611
v 0.228943 0.000000 0.207611
v 0.197602 0.000000 0.117032
v 0.197614 0.000000 0.170722
v -0.197614 0.000000 0.170722
v 0.197614 0.000000 -0.206591
v -0.197614 0.000000 -0.206591
v 0.197614 0.715660 0.170722
v -0.197614 0.669931 -0.206591
v -0.064561 0.699484 -0.206591
v -0.197614 0.623516 0.170722
v -0.008486 0.711633 0.170722
v -0.072912 0.708642 0.111581
v -0.197614 0.678803 0.049734
v 0.197614 0.668755 -0.206591
v 0.197614 0.709713 -0.032304
v 0.121513 0.703120 -0.206591
v -0.197607 0.000000 -0.224390
v -0.197607 0.000000 0.207611
v -0.629607 0.000000 -0.224389
v -0.197607 0.953040 0.127134
v -0.629607 0.974524 -0.224389
v -0.197607 0.476520 0.155267
v -0.629607 0.487262 0.155267
v -0.629607 0.487262 -0.224389
v -0.197607 0.476520 -0.224390
v -0.629607 0.974524 -0.149959
v -0.505065 0.968330 0.127134
v -0.629607 0.839227 0.134946
v -0.629607 0.066770 0.200438
v -0.451530 0.000000 0.207611
v -0.629607 0.000000 0.190141
v -0.197607 0.852118 -0.224390
v -0.197607 0.953040 -0.183711
v -0.272480 0.956763 -0.224389
vt 0.2405 0.7706
vt 0.2351 0.7681
vt 0.2405 0.7681
vt 0.2244 0.8480
vt 0.2150 0.8481
vt 0.2149 0.8439
vt 0.1641 0.8203
vt 0.1641 0.8169
vt 0.1669 0.8201
vt 0.2360 0.8225
vt 0.2389 0.8254
vt 0.1897 0.8212
vt 0.3281 0.8481
vt 0.3358 0.8480
vt 0.3357 0.8514
vt 0.3218 0.8599
vt 0.3194 0.8652
vt 0.3192 0.8571
vt 0.3027 0.8204
vt 0.3103 0.8186
vt 0.3027 0.8497
vt 0.3192 0.8208
vt 0.3245 0.8184
vt 0.3192 0.8480
vt 0.3246 0.8653
vt 0.3117 0.7565
vt 0.3200 0.7603
vt 0.3200 0.7876
vt 0.3192 0.8481
vt 0.3200 0.8169
vt 0.3142 0.8182
vt 0.3200 0.7876
vt 0.3060 0.8184
vt 0.3027 0.8169
vt 0.3027 0.7876
vt 0.0597 0.8274
vt 0.0492 0.8274
vt 0.0597 0.8234
vt 0.0803 0.7702
vt 0.0635 0.7782
vt 0.0640 0.7706
vt 0.0523 0.7702
vt 0.0597 0.7778
vt 0.0342 0.7992
vt 0.0847 0.7702
vt 0.0847 0.7989
vt 0.0342 0.7715
vt 0.0342 0.7774
vt 0.0298 0.7713
vt 0.0597 0.7986
vt 0.0087 0.7702
vt 0.0303 0.8457
vt 0.0096 0.8595
vt 0.0140 0.8384
vt 0.2405 0.8214
vt 0.2190 0.8225
vt 0.2149 0.8204
vt 0.2149 0.7681
vt 0.3357 0.8480
vt 0.1384 0.7707
vt 0.1480 0.7694
vt 0.1384 0.8229
vt 0.2389 0.8480
vt 0.3357 0.8596
vt 0.3358 0.8653
vt 0.1624 0.8229
vt 0.3192 0.8497
vt 0.2137 0.8483
vt 0.1915 0.8483
vt 0.1897 0.8430
vt 0.1915 0.7694
vt 0.2137 0.7694
vt 0.1897 0.7719
vt 0.2137 0.8172
vt 0.2107 0.8205
vt 0.1897 0.8227
vt 0.0342 0.8274
vt 0.3027 0.7876
vt 0.2137 0.8227
vt 0.0623 0.7989
vt 0.0087 0.7989
vt 0.0342 0.7996
vt 0.1102 0.8204
vt 0.0878 0.7983
vt 0.1102 0.7983
vt 0.0087 0.8277
vt 0.0603 0.8277
vt 0.0597 0.8237
vt 0.0847 0.8277
vt 0.1897 0.7692
vt 0.1641 0.7692
vt 0.1102 0.7702
vt 0.0342 0.7711
vt 0.0606 0.8376
vt 0.0606 0.8621
vt 0.0501 0.8366
vt 0.0351 0.8621
vt 0.0351 0.8366
vt 0.0096 0.8384
vt 0.2149 0.8225
vt 0.0303 0.8639
vt 0.0120 0.8639
vt 0.1078 0.8264
vt 0.0894 0.8264
vt 0.3200 0.7563
vt 0.3365 0.7736
vt 0.3200 0.7736
vt 0.3357 0.8187
vt 0.1624 0.7709
vt 0.3192 0.8184
vt 0.3027 0.7563
vt 0.1897 0.8227
vt 0.0342 0.8277
vt 0.0847 0.7702
vt 0.3365 0.7563
vn -0.7669 -0.5843 0.2654
vn -0.1158 0.8910 -0.4390
vn 0.6062 0.5372 0.5864
vn 0.1034 0.9935 0.0466
vn 1.0000 -0.0000 0.0000
vn 0.4024 0.8912 -0.2094
vn -0.3902 0.8374 0.3827
vn -1.0000 0.0000 0.0000
vn 0.0000 0.0000 1.0000
vn -0.0195 0.9994 -0.0293
vn 0.0000 0.0000 -1.0000
vn -0.0965 -0.1517 0.9837
vn -0.6728 0.6683 0.3173
vn 0.0021 0.0584 0.9983
vn 0.4631 0.3313 -0.8220
vn 0.0000 0.1068 0.9943
vn 0.0497 0.9988 0.0000
vn -0.2167 0.9757 -0.0338
vn 0.0000 -1.0000 0.0000
vn 0.0000 0.1092 0.9940
vn 0.0014 0.0576 0.9983
vn 0.0029 0.0589 0.9983
vn 0.0027 0.1078 0.9942
s off
f 12/1/1 14/2/1 13/3/1
f 7/4/2 6/5/2 8/6/2
f 10/7/3 9/8/3 11/9/3
f 7/4/4 10/10/4 11/11/4
f 5/12/5 11/9/5 9/8/5
f 27/13/6 26/14/6 28/15/6
f 24/16/7 22/17/7 23/18/7
f 26/19/5 27/20/5 17/21/5
f 22/22/8 25/23/8 16/24/8
f 24/16/7 25/25/7 22/17/7
f 23/26/9 22/27/9 16/28/9
f 24/16/10 23/18/10 27/13/10
f 19/29/10 27/13/10 23/18/10
f 20/30/11 21/31/11 18/32/11
f 28/33/11 26/34/11 17/35/11
f 43/36/12 42/37/12 41/38/12
f 38/39/13 40/40/13 39/41/13
f 39/42/14 40/43/14 34/44/14
f 38/39/8 33/45/8 36/46/8
f 45/47/15 44/48/15 46/49/15
f 35/50/16 41/38/16 42/37/16
f 33/51/11 46/49/11 44/48/11
f 39/52/17 46/53/17 38/54/17
f 4/55/8 8/56/8 6/57/8
f 6/57/8 3/58/8 14/2/8
f 25/23/8 18/59/8 16/24/8
f 6/60/11 7/61/11 3/62/11
f 11/11/4 5/63/4 7/4/4
f 25/25/18 21/64/18 20/65/18
f 7/61/11 2/66/11 3/62/11
f 27/20/5 15/67/5 17/21/5
f 1/68/19 13/69/19 14/70/19
f 13/71/9 1/72/9 12/73/9
f 9/74/9 10/75/9 4/76/9
f 34/44/20 42/37/20 30/77/20
f 15/78/9 23/26/9 16/28/9
f 14/70/19 2/79/19 1/68/19
f 40/40/8 36/46/8 35/80/8
f 36/81/11 44/48/11 37/82/11
f 44/83/5 34/84/5 37/85/5
f 37/82/11 31/86/11 36/81/11
f 43/87/8 41/88/8 31/89/8
f 2/90/5 9/8/5 1/91/5
f 36/46/8 41/88/8 35/80/8
f 34/84/5 29/92/5 37/85/5
f 35/50/21 34/44/21 40/43/21
f 32/93/22 39/42/22 34/44/22
f 21/64/10 27/13/10 28/15/10
f 43/94/19 31/95/19 42/96/19
f 6/57/8 12/1/8 4/55/8
f 42/96/19 29/97/19 30/98/19
f 46/53/17 33/99/17 38/54/17
f 4/100/4 7/4/4 8/6/4
f 32/101/17 45/102/17 46/53/17
f 12/73/9 9/74/9 4/76/9
f 21/31/11 17/35/11 18/32/11
f 44/83/5 45/103/5 32/104/5
f 17/105/19 16/106/19 18/107/19
f 39/52/17 32/101/17 46/53/17
f 25/23/8 20/108/8 18/59/8
f 25/25/18 24/16/18 21/64/18
f 7/61/11 5/109/11 2/66/11
f 27/20/5 19/110/5 15/67/5
f 34/44/23 35/50/23 42/37/23
f 15/78/9 19/111/9 23/26/9
f 14/70/19 3/112/19 2/79/19
f 40/40/8 38/39/8 36/46/8
f 36/81/11 33/51/11 44/48/11
f 44/83/5 32/104/5 34/84/5
f 37/82/11 29/113/11 31/86/11
f 2/90/5 5/12/5 9/8/5
f 36/46/8 31/89/8 41/88/8
f 34/84/5 30/114/5 29/92/5
f 21/64/10 24/16/10 27/13/10
f 6/57/8 14/2/8 12/1/8
f 42/96/19 31/95/19 29/97/19
f 4/100/4 10/10/4 7/4/4
f 12/73/9 1/72/9 9/74/9
f 21/31/11 28/33/11 17/35/11
f 17/105/19 15/115/19 16/106/19
