# Blender v2.77 (sub 0) OBJ File: 'LowPoly_Level_Kit_Rocks.blend'
# www.blender.org
g Rock_Square_crk_m_02
v -0.420654 -0.005477 0.297759
v -0.411934 0.012344 0.199802
v -0.520175 -0.006833 0.288653
v -0.452242 0.044022 0.269960
v 0.257650 -0.037939 -0.107308
v 0.210459 -0.001805 -0.054876
v 0.313299 0.017185 -0.095211
v 0.246617 0.012180 -0.111843
v -0.027607 0.007794 0.033698
v -0.020672 0.014196 0.067660
v 0.021187 -0.005965 0.019660
v -0.003496 0.028030 0.036714
v -0.202956 -0.008545 0.236307
v -0.252892 0.095518 0.270325
v -0.302629 -0.034558 0.162994
v -0.278194 -0.008360 0.266746
v -0.332744 0.059198 0.103441
v -0.378229 -0.032223 0.101332
v -0.313541 0.051952 0.003391
v -0.359025 -0.039469 0.001282
v -0.299745 0.042607 0.110976
v -0.345229 -0.048815 0.108867
v -0.280541 0.035361 0.010927
v -0.326026 -0.056061 0.008817
v 0.338438 0.024877 0.080796
v 0.236490 0.024699 0.074651
v 0.344576 0.015992 -0.020764
v 0.242628 0.015814 -0.026909
v 0.338307 -0.012676 0.084074
v 0.236359 -0.012855 0.077929
v 0.344444 -0.021562 -0.017487
v 0.242496 -0.021740 -0.023632
v -0.380777 0.408434 -0.721519
v 0.040703 -0.023940 -0.816999
v -0.254630 0.423057 -0.084785
v -0.234982 -0.006774 0.014390
v 0.182072 -0.007552 -0.103432
v 0.292941 0.000000 0.120618
v -0.139059 0.000000 0.120618
v -0.139059 0.212369 0.120618
v 0.292941 0.246904 0.120618
v -0.285828 -0.023940 -0.752308
v -0.382316 0.116898 -0.729290
v -0.364214 -0.021755 -0.637918
v 0.071447 0.411733 -0.661817
v -0.050973 0.408434 -0.786859
v 0.042729 0.359585 -0.806776
v 0.164478 0.377354 -0.192242
v 0.086219 0.422422 -0.181079
v 0.292941 0.301679 0.552618
v 0.292941 0.310784 0.422556
v 0.222146 0.332641 0.552618
v 0.150679 0.420918 -0.261890
v 0.209100 0.000000 0.552618
v 0.292941 0.000000 0.469239
v 0.292941 0.013845 0.552618
v -0.047124 0.000000 0.552618
v -0.139059 0.000000 0.522401
v -0.139059 0.242143 0.522401
v -0.139059 0.281255 0.446219
v -0.032660 0.312271 0.552618
v -0.098134 0.253056 0.552618
vt 0.2164 0.8504
vt 0.2209 0.8461
vt 0.2209 0.8543
vt 0.2415 0.8069
vt 0.2390 0.8025
vt 0.2415 0.8003
vt 0.2428 0.8516
vt 0.2401 0.8479
vt 0.2428 0.8457
vt 0.2198 0.8602
vt 0.2164 0.8584
vt 0.2198 0.8543
vt 0.2401 0.8435
vt 0.2426 0.8395
vt 0.2426 0.8457
vt 0.2427 0.8395
vt 0.2401 0.8362
vt 0.2427 0.8331
vt 0.2279 0.8011
vt 0.2250 0.7988
vt 0.2279 0.7976
vt 0.2217 0.7980
vt 0.2250 0.7976
vt 0.2250 0.8015
vt 0.2323 0.7997
vt 0.2341 0.7971
vt 0.2341 0.8009
vt 0.2377 0.8000
vt 0.2361 0.7985
vt 0.2377 0.7971
vt 0.2212 0.8564
vt 0.2198 0.8548
vt 0.2212 0.8543
vt 0.2341 0.7972
vt 0.2361 0.7971
vt 0.2361 0.7996
vt 0.2282 0.7976
vt 0.2217 0.7966
vt 0.2282 0.7907
vt 0.2323 0.8009
vt 0.2282 0.7957
vt 0.2323 0.7907
vt 0.2144 0.8522
vt 0.2144 0.8585
vt 0.2098 0.8572
vt 0.2390 0.8076
vt 0.2345 0.8051
vt 0.2390 0.8003
vt 0.2283 0.8017
vt 0.2345 0.8071
vt 0.2283 0.8076
vt 0.2323 0.7965
vt 0.2383 0.7912
vt 0.2383 0.7971
vt 0.2444 0.8318
vt 0.2420 0.8257
vt 0.2444 0.8257
vt 0.2445 0.8197
vt 0.2420 0.8257
vt 0.2420 0.8197
vt 0.2445 0.7907
vt 0.2422 0.7967
vt 0.2422 0.7907
vt 0.2425 0.8576
vt 0.2447 0.8516
vt 0.2447 0.8576
vt 0.2098 0.8461
vt 0.2164 0.8522
vt 0.2098 0.8522
vt 0.2283 0.8076
vt 0.2217 0.8016
vt 0.2283 0.8016
vt 0.2420 0.8136
vt 0.2445 0.8197
vt 0.2420 0.8196
vt 0.2401 0.8576
vt 0.2425 0.8516
vt 0.2425 0.8576
vt 0.2415 0.8063
vt 0.2440 0.8003
vt 0.2440 0.8063
vt 0.2420 0.8136
vt 0.2445 0.8076
vt 0.2445 0.8136
vt 0.1471 0.8091
vt 0.1387 0.8105
vt 0.1381 0.8039
vt 0.1941 0.8165
vt 0.1938 0.8076
vt 0.2003 0.8079
vt 0.1657 0.8452
vt 0.1442 0.8624
vt 0.1593 0.8368
vt 0.1890 0.8101
vt 0.1937 0.8103
vt 0.1936 0.8179
vt 0.1992 0.8446
vt 0.1938 0.8447
vt 0.1941 0.8406
vt 0.1658 0.8616
vt 0.1658 0.8566
vt 0.1712 0.8616
vt 0.2422 0.7977
vt 0.2383 0.7922
vt 0.2422 0.7907
vt 0.1659 0.8165
vt 0.1727 0.8101
vt 0.2230 0.7714
vt 0.2431 0.7857
vt 0.2217 0.7865
vt 0.2220 0.8524
vt 0.2400 0.8331
vt 0.2401 0.8569
vt 0.1658 0.8415
vt 0.1678 0.8361
vt 0.1937 0.8360
vt 0.2237 0.7907
vt 0.2422 0.7906
vt 0.1659 0.8080
vt 0.1659 0.7700
vt 0.2220 0.8461
vt 0.2220 0.8078
vt 0.1659 0.7708
vt 0.1723 0.7650
vt 0.1938 0.7650
vt 0.2431 0.7705
vt 0.2273 0.7651
vt 0.2429 0.7650
vt 0.1657 0.8624
vt 0.1938 0.7737
vt 0.1967 0.7696
vt 0.2217 0.7650
vt 0.1970 0.8063
vt 0.1938 0.7975
vt 0.2217 0.8076
vt 0.1381 0.8368
vt 0.1937 0.8616
vt 0.2226 0.8076
vt 0.2420 0.8125
vt 0.2220 0.8153
vt 0.2260 0.8331
vt 0.2420 0.8331
vt 0.1381 0.8136
vt 0.1430 0.8108
vt 0.1381 0.8368
vt 0.1938 0.8081
vt 0.1659 0.8101
vt 0.2245 0.8569
vt 0.2268 0.7675
vt 0.1649 0.8364
vt 0.2164 0.8588
vt 0.2148 0.8548
vt 0.2164 0.8522
vt 0.2098 0.8462
vt 0.1961 0.8717
vt 0.1938 0.8461
vt 0.1659 0.8360
vt 0.1936 0.8360
vt 0.2345 0.8012
vt 0.2323 0.7907
vt 0.2420 0.8317
vt 0.2445 0.8257
vt 0.2445 0.7967
vt 0.2425 0.8516
vt 0.2164 0.8461
vt 0.2217 0.8076
vt 0.2445 0.8137
vt 0.2401 0.8516
vt 0.2415 0.8003
vt 0.2420 0.8076
vt 0.2263 0.8331
vt 0.1381 0.8595
vt 0.2412 0.8076
vt 0.1381 0.7650
vt 0.1649 0.8105
vt 0.2098 0.8717
vn 0.0295 -0.9839 -0.1764
vn -0.5822 0.5615 -0.5880
vn 0.7810 0.5986 0.1784
vn -0.0876 0.4447 0.8914
vn 0.3905 -0.5554 0.7342
vn -0.1152 0.9792 0.1673
vn -0.7964 -0.2261 -0.5610
vn 0.2443 -0.0339 -0.9691
vn -0.2051 -0.9533 0.2216
vn 0.7785 0.2846 0.5594
vn -0.6418 0.7667 -0.0135
vn -0.1700 0.3405 -0.9248
vn 0.4433 0.4635 -0.7672
vn -0.9590 0.2278 0.1683
vn 0.3720 -0.1223 0.9202
vn 0.0883 -0.9705 0.2243
vn -0.8754 0.4401 -0.1999
vn 0.8754 -0.4401 0.1999
vn 0.1880 -0.0709 -0.9796
vn -0.1880 0.0709 0.9796
vn 0.4453 0.8951 0.0207
vn -0.4453 -0.8951 -0.0207
vn 0.0035 0.9962 -0.0869
vn -0.0035 -0.9962 0.0869
vn 0.0601 -0.0870 -0.9944
vn -0.0601 0.0870 0.9944
vn 0.9982 0.0017 0.0602
vn -0.9982 -0.0017 -0.0602
vn -0.7484 -0.4303 -0.5047
vn 0.3634 0.8514 -0.3783
vn -0.1943 0.0272 -0.9806
vn 0.3999 0.9143 0.0640
vn 0.5012 0.7748 0.3854
vn 0.1608 -0.9737 0.1617
vn -0.6106 0.6752 0.4138
vn -0.0780 0.9754 -0.2064
vn 0.0000 -0.0000 1.0000
vn -1.0000 0.0000 0.0000
vn 0.0000 -1.0000 0.0000
vn -0.9809 0.0000 0.1943
vn -0.0044 0.9997 -0.0221
vn 0.0044 -0.9997 0.0221
vn -0.3122 0.0000 0.9500
vn 0.9809 -0.0000 -0.1943
vn 1.0000 0.0000 -0.0000
vn 0.2651 0.2283 0.9368
vn -0.4981 0.7714 0.3960
vn 0.0000 0.0000 -1.0000
vn 0.4453 0.8951 0.0206
vn -0.4453 -0.8951 -0.0206
vn -0.5700 -0.1149 0.8135
s off
f 1/1/1 3/2/1 2/3/1
f 3/4/2 4/5/2 2/6/2
f 2/7/3 4/8/3 1/9/3
f 1/10/4 4/11/4 3/12/4
f 5/13/5 7/14/5 6/15/5
f 7/16/6 8/17/6 6/18/6
f 6/19/7 8/20/7 5/21/7
f 5/22/8 8/23/8 7/24/8
f 9/25/9 11/26/9 10/27/9
f 11/28/10 12/29/10 10/30/10
f 10/31/11 12/32/11 9/33/11
f 9/34/12 12/35/12 11/36/12
f 13/37/13 15/38/13 14/39/13
f 15/40/14 16/41/14 14/42/14
f 14/43/15 16/44/15 13/45/15
f 13/46/16 16/47/16 15/48/16
f 18/49/17 19/50/17 20/51/17
f 23/52/18 22/53/18 24/54/18
f 19/55/19 24/56/19 20/57/19
f 22/58/20 17/59/20 18/60/20
f 21/61/21 19/62/21 17/63/21
f 24/64/22 18/65/22 20/66/22
f 26/67/23 27/68/23 28/69/23
f 31/70/24 30/71/24 32/72/24
f 27/73/25 32/74/25 28/75/25
f 30/76/26 25/77/26 26/78/26
f 29/79/27 27/80/27 25/81/27
f 32/82/28 26/83/28 28/84/28
f 43/85/29 42/86/29 44/87/29
f 45/88/30 47/89/30 46/90/30
f 43/91/31 46/92/31 42/93/31
f 52/94/32 50/95/32 51/96/32
f 49/97/33 48/98/33 53/99/33
f 56/100/34 54/101/34 55/102/34
f 60/103/35 62/104/35 61/105/35
f 60/106/36 61/107/36 51/96/36
f 61/108/37 54/109/37 52/110/37
f 60/111/38 39/112/38 58/113/38
f 55/102/39 54/101/39 57/114/39
f 57/114/39 58/115/39 39/116/39
f 50/117/37 54/109/37 56/118/37
f 33/119/40 43/85/40 35/120/40
f 35/121/41 45/88/41 33/122/41
f 44/123/42 42/124/42 34/125/42
f 57/126/43 59/127/43 58/128/43
f 33/129/31 46/92/31 43/91/31
f 53/130/44 48/131/44 37/132/44
f 47/133/44 45/134/44 34/135/44
f 49/97/41 53/99/41 45/88/41
f 45/88/41 46/90/41 33/122/41
f 46/92/31 34/136/31 42/93/31
f 55/102/39 39/116/39 38/137/39
f 50/138/45 55/139/45 51/140/45
f 44/87/40 35/120/40 43/85/40
f 41/141/45 55/139/45 38/142/45
f 48/143/46 49/144/46 37/145/46
f 44/123/42 37/146/42 36/147/42
f 59/148/38 60/111/38 58/113/38
f 45/134/44 37/132/44 34/135/44
f 61/108/37 62/149/37 57/126/37
f 49/144/46 36/150/46 37/145/46
f 60/151/47 59/152/47 62/153/47
f 38/154/48 40/155/48 41/156/48
f 61/107/36 52/94/36 51/96/36
f 40/157/36 51/96/36 41/158/36
f 18/49/17 17/159/17 19/50/17
f 23/52/18 21/160/18 22/53/18
f 19/55/19 23/161/19 24/56/19
f 22/58/20 21/162/20 17/59/20
f 21/61/49 23/163/49 19/62/49
f 24/64/50 22/164/50 18/65/50
f 26/67/23 25/165/23 27/68/23
f 31/70/24 29/166/24 30/71/24
f 27/73/25 31/167/25 32/74/25
f 30/76/26 29/168/26 25/77/26
f 29/79/27 31/169/27 27/80/27
f 32/82/28 30/170/28 26/83/28
f 61/108/37 57/126/37 54/109/37
f 60/111/38 40/171/38 39/112/38
f 50/117/37 52/110/37 54/109/37
f 35/121/41 49/97/41 45/88/41
f 57/126/51 62/149/51 59/127/51
f 46/92/31 47/172/31 34/136/31
f 55/102/39 57/114/39 39/116/39
f 50/138/45 56/173/45 55/139/45
f 44/87/40 36/174/40 35/120/40
f 41/141/45 51/140/45 55/139/45
f 44/123/42 34/125/42 37/146/42
f 45/134/44 53/130/44 37/132/44
f 49/144/46 35/175/46 36/150/46
f 38/154/48 39/176/48 40/155/48
f 40/157/36 60/106/36 51/96/36
