# Blender v2.77 (sub 0) OBJ File: 'LowPoly_Level_Kit_Rocks.blend'
# www.blender.org
g Rock_Square_m_12
v 0.190141 -0.020041 0.175138
v -0.198659 -0.020041 0.175138
v 0.190141 -0.020041 -0.186901
v -0.198659 -0.020041 -0.186901
v 0.190141 0.663389 0.175138
v 0.190141 0.389440 -0.186901
v 0.139992 0.632040 -0.186901
v 0.190141 0.646187 -0.023522
v -0.198659 0.513085 -0.186901
v -0.037253 0.632040 -0.186901
v -0.198659 0.647696 -0.006093
v -0.198659 0.232953 0.175138
v -0.198659 0.659942 0.135331
v -0.141488 0.663389 0.175138
vt 0.4523 0.8362
vt 0.4625 0.8349
vt 0.4625 0.8507
vt 0.4137 0.8349
vt 0.4137 0.7925
vt 0.4173 0.8353
vt 0.4003 0.7691
vt 0.3893 0.7946
vt 0.3891 0.7703
vt 0.4137 0.7674
vt 0.4381 0.8353
vt 0.4381 0.7674
vt 0.4381 0.8098
vt 0.4625 0.7820
vt 0.4625 0.8349
vt 0.4589 0.8651
vt 0.4381 0.8493
vt 0.4135 0.8352
vt 0.3892 0.8352
vt 0.4625 0.7792
vt 0.4726 0.7674
vt 0.4869 0.7915
vt 0.4837 0.7674
vt 0.4412 0.8362
vt 0.4625 0.8619
vt 0.4625 0.8322
vt 0.4137 0.7674
vt 0.4381 0.8349
vt 0.4408 0.7674
vt 0.4503 0.7686
vt 0.3891 0.8640
vt 0.4135 0.8640
vt 0.4381 0.8651
vt 0.4869 0.8322
vt 0.3891 0.8352
vn -0.5089 0.6905 -0.5141
vn -0.5728 0.0761 0.8161
vn 0.9332 0.1929 -0.3032
vn 1.0000 0.0000 -0.0000
vn -0.0000 0.0000 1.0000
vn -1.0000 0.0000 0.0000
vn 0.0000 0.9963 -0.0863
vn -0.0000 0.0000 -1.0000
vn 0.0000 -1.0000 0.0000
s off
f 10/1/1 9/2/1 11/3/1
f 13/4/2 12/5/2 14/6/2
f 8/7/3 6/8/3 7/9/3
f 6/8/4 8/7/4 5/10/4
f 5/11/5 12/5/5 1/12/5
f 12/13/6 9/14/6 4/15/6
f 14/16/7 8/17/7 11/3/7
f 5/10/4 1/18/4 6/8/4
f 3/19/4 6/8/4 1/18/4
f 9/20/8 10/21/8 6/22/8
f 7/23/8 6/22/8 10/21/8
f 8/17/7 7/24/7 10/1/7
f 10/1/7 11/3/7 8/17/7
f 13/25/7 14/16/7 11/3/7
f 6/22/8 4/26/8 9/20/8
f 2/27/5 1/12/5 12/5/5
f 5/11/5 14/6/5 12/5/5
f 4/15/6 2/28/6 12/13/6
f 12/13/6 13/29/6 11/30/6
f 11/30/6 9/14/6 12/13/6
f 4/31/9 1/18/9 2/32/9
f 14/16/7 5/33/7 8/17/7
f 6/22/8 3/34/8 4/26/8
f 4/31/9 3/35/9 1/18/9
