# Blender v2.77 (sub 0) OBJ File: 'LowPoly_Level_Kit_Rocks.blend'
# www.blender.org
g Rock_Square_crk_s_02
v -0.281457 0.176627 0.207840
v -0.251923 -0.075401 0.195848
v -0.150150 -0.052392 0.183854
v -0.131503 0.244257 0.191278
v -0.300408 0.199375 -0.098513
v -0.264971 -0.059737 -0.015096
v 0.201130 -0.000000 0.174517
v 0.201130 0.341316 0.174517
v 0.201130 -0.000000 -0.187330
v 0.201130 0.341316 -0.187330
v -0.201130 0.255712 -0.187330
v -0.201130 -0.000000 -0.187330
v -0.097470 -0.000000 0.193539
v -0.044472 0.289050 0.190163
v -0.201130 0.255712 -0.107254
v -0.201130 -0.000000 -0.011519
vt 0.1373 0.8623
vt 0.1498 0.8351
vt 0.1514 0.8623
vt 0.2290 0.8411
vt 0.2125 0.8594
vt 0.2125 0.8323
vt 0.1654 0.8373
vt 0.1561 0.8540
vt 0.1514 0.8351
vt 0.1682 0.8243
vt 0.1597 0.8207
vt 0.1682 0.8039
vt 0.2140 0.8095
vt 0.2318 0.8323
vt 0.2125 0.8291
vt 0.1766 0.8391
vt 0.1934 0.8035
vt 0.1934 0.8391
vt 0.1373 0.8041
vt 0.1597 0.8349
vt 0.1373 0.8351
vt 0.2123 0.8035
vt 0.1956 0.8106
vt 0.1955 0.8036
vt 0.1387 0.7678
vt 0.1639 0.8039
vt 0.1373 0.7898
vt 0.2084 0.7725
vt 0.2274 0.7943
vt 0.2049 0.7944
vt 0.1727 0.8035
vt 0.1893 0.7678
vt 0.2049 0.7678
vt 0.2125 0.8188
vt 0.1934 0.8389
vt 0.1709 0.7678
vt 0.2049 0.8035
vt 0.2290 0.8598
vt 0.1654 0.8540
vt 0.2318 0.8035
vt 0.1710 0.8035
vt 0.1597 0.8039
vt 0.2274 0.7678
vt 0.1710 0.7770
vt 0.2125 0.8383
vt 0.1710 0.8039
vn -0.4009 0.9115 0.0925
vn -0.9915 -0.1187 0.0525
vn 0.1242 -0.0326 0.9917
vn 0.2101 -0.9739 -0.0853
vn 0.8660 -0.0420 -0.4983
vn 0.0000 0.0000 -1.0000
vn 1.0000 -0.0000 0.0000
vn -1.0000 0.0000 -0.0000
vn -0.2081 0.9781 0.0000
vn 0.0636 -0.0000 0.9980
vn 0.0000 -1.0000 0.0000
vn -0.8800 0.1665 0.4448
s off
f 4/1/1 5/2/1 1/3/1
f 6/4/2 1/5/2 5/6/2
f 1/7/3 3/8/3 4/9/3
f 3/10/4 2/11/4 6/12/4
f 6/13/5 4/14/5 3/15/5
f 11/16/6 9/17/6 12/18/6
f 8/19/7 9/20/7 10/21/7
f 12/22/8 15/23/8 11/24/8
f 8/25/9 15/26/9 14/27/9
f 14/28/10 7/29/10 8/30/10
f 7/31/11 16/32/11 12/33/11
f 16/34/12 14/35/12 15/23/12
f 10/36/9 15/26/9 8/25/9
f 9/37/11 7/31/11 12/33/11
f 6/4/2 2/38/2 1/5/2
f 1/7/3 2/39/3 3/8/3
f 6/13/5 5/40/5 4/14/5
f 11/16/6 10/41/6 9/17/6
f 8/19/7 7/42/7 9/20/7
f 12/22/8 16/34/8 15/23/8
f 14/28/10 13/43/10 7/29/10
f 7/31/11 13/44/11 16/32/11
f 16/34/12 13/45/12 14/35/12
f 10/36/9 11/46/9 15/26/9
