# Blender v2.77 (sub 0) OBJ File: 'LowPoly_Level_Kit_Rocks.blend'
# www.blender.org
g Rock_Square_l_12
v -0.545802 -0.000000 0.668552
v -0.545802 -0.000000 -0.668551
v 0.720658 0.000000 0.668832
v 0.720658 0.000000 -0.668831
v 0.713074 3.167181 -0.581208
v -0.434771 1.582797 0.581362
v -0.434771 1.582797 -0.581361
v 0.677736 1.583563 -0.583943
v 0.677736 1.583563 0.583944
v -0.471351 1.638896 0.620616
v -0.476450 1.526645 0.623900
v 0.717001 1.527049 0.626585
v 0.716730 1.640132 0.623457
v 0.717001 1.527049 -0.626584
v 0.716730 1.640132 -0.623456
v -0.476450 1.526645 -0.623899
v -0.471351 1.638896 -0.620615
v 0.713074 3.167181 -0.222221
v 0.308802 3.166586 0.579307
v 0.714421 2.604605 0.596774
v -0.408863 3.014463 -0.580381
v -0.145699 3.165918 -0.577168
v -0.334100 3.165641 -0.441694
v -0.383047 3.062833 -0.579079
v -0.408703 3.017972 0.580280
v -0.179586 3.165868 0.577010
v -0.404595 3.108406 0.464864
v -0.371904 3.165585 0.416987
vt 0.5560 0.8054
vt 0.5550 0.7779
vt 0.5560 0.7788
vt 0.5842 0.8066
vt 0.5550 0.8065
vt 0.5760 0.8069
vt 0.5818 0.8067
vt 0.5806 0.8100
vt 0.5832 0.7789
vt 0.5832 0.8056
vt 0.5842 0.7780
vt 0.5260 0.8088
vt 0.5540 0.8083
vt 0.5550 0.8089
vt 0.5550 0.7835
vt 0.5540 0.7845
vt 0.5260 0.7835
vt 0.5269 0.7846
vt 0.5269 0.8083
vt 0.5649 0.8333
vt 0.5551 0.8329
vt 0.5550 0.8149
vt 0.5824 0.8066
vt 0.5823 0.8307
vt 0.5768 0.8333
vt 0.5815 0.8297
vt 0.5745 0.8333
vt 0.5688 0.8611
vt 0.5687 0.8334
vt 0.5558 0.8612
vt 0.5550 0.8585
vt 0.5687 0.8621
vt 0.5339 0.7780
vt 0.5549 0.7779
vt 0.5402 0.8389
vt 0.5543 0.8089
vt 0.5543 0.8399
vt 0.5260 0.8389
vt 0.5402 0.8089
vt 0.5402 0.8399
vt 0.5966 0.8360
vt 0.5824 0.8083
vt 0.5966 0.8066
vt 0.5559 0.8343
vt 0.5687 0.8333
vt 0.5281 0.7784
vt 0.5275 0.7786
vt 0.5842 0.7847
vt 0.5855 0.7794
vt 0.5983 0.7779
vt 0.5894 0.8054
vt 0.5842 0.7960
vt 0.5983 0.8055
vt 0.6108 0.8356
vt 0.5966 0.8346
vt 0.5966 0.8263
vt 0.5824 0.8332
vt 0.6018 0.8073
vt 0.6108 0.8066
vt 0.5550 0.8067
vt 0.5745 0.8627
vt 0.5402 0.8099
vt 0.5260 0.8099
vt 0.5824 0.8359
vn -0.8030 0.5960 0.0000
vn -0.0020 0.6048 -0.7964
vn -0.3463 0.8061 -0.4799
vn 0.8212 0.5706 0.0000
vn -0.0023 0.6013 0.7990
vn -0.0014 -0.5720 0.8203
vn 0.8233 -0.5675 0.0000
vn -0.0015 -0.5740 -0.8189
vn -0.8377 -0.5462 -0.0000
vn 0.7456 0.5499 0.3765
vn -0.8811 0.4713 -0.0388
vn -0.4508 0.7103 0.5405
vn -0.0023 0.6013 -0.7990
vn -0.0023 0.0276 -0.9996
vn -0.0020 0.6048 0.7964
vn -0.0015 -0.5740 0.8189
vn -0.0014 -0.5720 -0.8203
vn -0.9990 0.0454 -0.0000
vn -0.0047 0.0276 -0.9996
vn 1.0000 0.0024 0.0000
vn -0.0002 0.0292 0.9996
vn -0.0047 0.0295 -0.9996
vn -0.0015 1.0000 0.0000
vn -0.0047 0.0295 0.9996
vn -0.0047 0.0276 0.9996
vn -0.0024 0.0283 0.9996
vn -0.0002 0.0292 -0.9996
vn -0.0024 0.0290 -0.9996
vn -0.0023 0.0276 0.9996
s off
f 7/1/1 11/2/1 6/3/1
f 7/1/2 14/4/2 16/5/2
f 22/6/3 24/7/3 23/8/3
f 9/9/4 14/4/4 8/10/4
f 6/3/5 12/11/5 9/9/5
f 10/12/6 9/13/6 13/14/6
f 15/15/7 9/13/7 8/16/7
f 17/17/8 8/16/8 7/18/8
f 17/17/9 6/19/9 10/12/9
f 19/20/10 20/21/10 18/22/10
f 23/8/11 24/7/11 21/23/11
f 27/24/12 26/25/12 28/26/12
f 7/1/1 16/5/1 11/2/1
f 7/1/13 8/10/13 14/4/13
f 4/27/14 16/28/14 14/29/14
f 9/9/4 12/11/4 14/4/4
f 6/3/15 11/2/15 12/11/15
f 10/12/16 6/19/16 9/13/16
f 15/15/7 13/14/7 9/13/7
f 17/17/17 15/15/17 8/16/17
f 17/17/9 7/18/9 6/19/9
f 25/30/18 27/31/18 10/32/18
f 15/15/19 22/33/19 5/34/19
f 14/35/20 3/36/20 4/37/20
f 11/38/18 2/39/18 1/40/18
f 3/41/21 11/42/21 1/43/21
f 10/32/18 21/44/18 17/45/18
f 24/46/22 22/33/22 21/47/22
f 19/20/23 22/6/23 23/8/23
f 17/17/22 21/47/22 22/33/22
f 26/48/24 25/49/24 10/50/24
f 20/51/25 19/52/25 13/53/25
f 15/54/20 5/55/20 18/56/20
f 19/52/26 10/50/26 13/53/26
f 21/23/11 27/24/11 23/8/11
f 28/26/11 23/8/11 27/24/11
f 27/24/12 25/57/12 26/25/12
f 15/54/20 20/58/20 13/59/20
f 5/60/23 22/6/23 18/22/23
f 23/8/23 28/26/23 19/20/23
f 26/25/23 19/20/23 28/26/23
f 4/27/27 2/61/27 16/28/27
f 15/15/28 17/17/28 22/33/28
f 14/35/20 12/62/20 3/36/20
f 11/38/18 16/63/18 2/39/18
f 3/41/29 12/64/29 11/42/29
f 10/32/18 27/31/18 21/44/18
f 19/20/23 18/22/23 22/6/23
f 19/52/24 26/48/24 10/50/24
f 15/54/20 18/56/20 20/58/20
