# Blender v2.77 (sub 0) OBJ File: 'LowPoly_Level_Kit_Rocks.blend'
# www.blender.org
g Rock_Square_crk_m_06
v -0.636382 -0.012123 0.382630
v -0.637518 -0.000292 0.378689
v -0.642241 -0.007413 0.311209
v -0.640504 0.019504 0.315248
v -0.713899 0.002770 0.317758
v -0.707283 0.013112 0.320305
v 0.749778 -0.000000 -0.044111
v 0.749778 0.018486 -0.044111
v 0.703981 -0.000000 -0.154632
v 0.703981 0.018486 -0.154632
v 0.787192 -0.000000 -0.096699
v 0.787192 0.018486 -0.096699
v 0.760142 -0.000000 -0.162850
v 0.760142 0.018486 -0.162850
v -0.053745 -0.008292 0.278061
v -0.002943 0.027436 0.393675
v -0.026370 -0.008292 0.458875
v 0.071286 -0.008292 0.444090
v -0.005197 -0.000000 -0.073130
v -0.005197 0.018486 -0.073130
v -0.029713 -0.000000 -0.154632
v -0.029713 0.018486 -0.154632
v 0.053498 -0.000000 -0.096699
v 0.053498 0.018486 -0.096699
v 0.014840 -0.000000 -0.172523
v 0.014840 0.018486 -0.172523
v 0.105244 -0.008292 0.233114
v 0.106737 0.008292 0.239816
v 0.082939 -0.008292 0.322503
v 0.086662 0.031373 0.320267
v 0.172328 -0.008292 0.344809
v 0.167113 0.008292 0.340342
v 0.603886 0.384958 0.268873
v 0.601821 0.372025 0.281722
v 0.619841 0.370092 0.256504
v 0.617776 0.357160 0.269354
v 0.594741 0.001644 0.268841
v 0.595146 -0.011160 0.255874
v 0.577034 -0.010487 0.281143
v 0.577439 -0.023290 0.268176
v 0.630530 -0.011160 -0.115131
v 0.632583 0.001644 -0.127940
v 0.615468 -0.023290 -0.130557
v 0.617521 -0.010487 -0.143367
v 0.626407 0.180247 0.058417
v 0.625969 0.192905 0.071624
v 0.624340 0.167595 0.071469
v 0.623902 0.180247 0.084676
v 0.321295 0.397387 0.263241
v 0.325133 0.410159 0.250523
v 0.087641 -0.000838 -0.195681
v 0.091473 0.011889 -0.208299
v 0.549072 0.393367 -0.137813
v 0.628257 0.384958 0.013341
v 0.640303 0.345933 -0.139531
v 0.645651 0.370092 -0.014112
v 0.654329 0.341975 -0.124254
v 0.653342 0.345174 -0.111725
v 0.651699 0.350497 -0.090875
v 0.574427 0.378165 -0.147696
v -0.545394 -0.000000 0.244834
v -0.558354 -0.000000 0.231904
v -0.558354 -0.000000 -0.231904
v -0.545394 -0.000000 -0.244834
v -0.094563 0.000000 0.231927
v -0.107393 0.000000 0.244931
v -0.107393 0.000000 -0.244931
v -0.094563 0.000000 -0.231927
v -0.109144 0.612266 -0.214988
v -0.122016 0.614037 -0.227912
v 0.324361 0.400900 -0.178962
v 0.224049 0.312800 -0.191556
v 0.276558 0.417862 -0.139025
v 0.320399 0.414157 -0.166416
v -0.530205 0.633006 -0.226351
v -0.542605 0.656324 -0.212707
v -0.446306 0.733048 -0.223631
v -0.498825 0.759158 -0.192624
v -0.541137 0.717495 -0.190755
v -0.538436 0.830092 0.207625
v -0.525395 0.833468 0.220498
v -0.469579 0.841657 0.220419
v -0.533525 0.799175 -0.071184
v -0.539171 0.799443 -0.061516
v -0.119965 0.527881 0.230300
v -0.106614 0.506012 0.217928
v -0.110834 0.683229 0.096962
v -0.190497 0.740914 0.224169
v 0.181946 -0.006556 0.241475
v 0.179934 0.006315 0.254354
v 0.131143 -0.004018 0.141093
v 0.162092 0.032972 0.253108
vt 0.8604 0.8453
vt 0.8604 0.8491
vt 0.8566 0.8491
vt 0.8584 0.8450
vt 0.8575 0.8410
vt 0.8575 0.8450
vt 0.8573 0.8410
vt 0.8565 0.8450
vt 0.8573 0.8450
vt 0.8192 0.8645
vt 0.8112 0.8637
vt 0.8112 0.8645
vt 0.8607 0.8614
vt 0.8645 0.8614
vt 0.8645 0.8576
vt 0.8656 0.8493
vt 0.8647 0.8573
vt 0.8656 0.8573
vt 0.8604 0.8410
vt 0.8596 0.8450
vt 0.8604 0.8450
vt 0.8594 0.8410
vt 0.8586 0.8450
vt 0.8594 0.8450
vt 0.8542 0.8410
vt 0.8534 0.8450
vt 0.8542 0.8450
vt 0.8604 0.8532
vt 0.8524 0.8493
vt 0.8524 0.8532
vt 0.8645 0.8491
vt 0.8606 0.8410
vt 0.8606 0.8491
vt 0.8028 0.8494
vt 0.8028 0.8573
vt 0.7866 0.8573
vt 0.8604 0.8573
vt 0.8604 0.8535
vt 0.8525 0.8573
vt 0.8275 0.8655
vt 0.8195 0.8655
vt 0.8275 0.8617
vt 0.8604 0.8329
vt 0.8604 0.8408
vt 0.8525 0.8408
vt 0.8028 0.8645
vt 0.7947 0.8637
vt 0.7947 0.8645
vt 0.8532 0.8410
vt 0.8524 0.8450
vt 0.8532 0.8450
vt 0.8676 0.7999
vt 0.8668 0.8079
vt 0.8676 0.8079
vt 0.8563 0.8410
vt 0.8555 0.8450
vt 0.8563 0.8450
vt 0.8604 0.8614
vt 0.8524 0.8575
vt 0.8524 0.8614
vt 0.8645 0.8493
vt 0.8606 0.8573
vt 0.8645 0.8573
vt 0.8607 0.8408
vt 0.8645 0.8408
vt 0.8645 0.8329
vt 0.7865 0.8645
vt 0.7945 0.8637
vt 0.7865 0.8637
vt 0.8676 0.8081
vt 0.8668 0.8161
vt 0.8676 0.8161
vt 0.8110 0.8645
vt 0.8030 0.8637
vt 0.8030 0.8645
vt 0.8525 0.8491
vt 0.8563 0.8491
vt 0.8563 0.8453
vt 0.8617 0.8079
vt 0.8656 0.8079
vt 0.8656 0.8000
vt 0.8656 0.8625
vt 0.8648 0.8625
vt 0.8656 0.8617
vt 0.8656 0.8329
vt 0.8656 0.8491
vt 0.8648 0.8491
vt 0.8192 0.8573
vt 0.8192 0.8494
vt 0.8031 0.8573
vt 0.8666 0.8161
vt 0.8666 0.8000
vt 0.8659 0.8161
vt 0.8522 0.8329
vt 0.8360 0.8491
vt 0.8522 0.8491
vt 0.8666 0.8164
vt 0.8666 0.8326
vt 0.8659 0.8326
vt 0.8192 0.7999
vt 0.8030 0.8326
vt 0.8192 0.8326
vt 0.8645 0.8617
vt 0.8607 0.8635
vt 0.8645 0.8635
vt 0.8524 0.8490
vt 0.8562 0.8452
vt 0.8524 0.8452
vt 0.8028 0.7669
vt 0.7700 0.7997
vt 0.8028 0.7997
vt 0.8645 0.8326
vt 0.8645 0.8164
vt 0.8638 0.8326
vt 0.8030 0.8572
vt 0.8030 0.8493
vt 0.8191 0.8493
vt 0.8604 0.8326
vt 0.8525 0.8326
vt 0.8604 0.8164
vt 0.8658 0.7999
vt 0.8658 0.8160
vt 0.8665 0.7999
vt 0.7865 0.8493
vt 0.8027 0.8493
vt 0.7865 0.8572
vt 0.8360 0.8573
vt 0.8522 0.8494
vt 0.8522 0.8573
vt 0.8357 0.8494
vt 0.8195 0.8573
vt 0.8357 0.8573
vt 0.8360 0.8614
vt 0.8522 0.8614
vt 0.8522 0.8597
vt 0.8553 0.8411
vt 0.8545 0.8450
vt 0.8553 0.8450
vt 0.8606 0.8328
vt 0.8606 0.8407
vt 0.8644 0.8328
vt 0.8521 0.8493
vt 0.8359 0.8572
vt 0.8359 0.8493
vt 0.8357 0.8326
vt 0.8195 0.8326
vt 0.8357 0.8000
vt 0.8194 0.7999
vt 0.8356 0.7999
vt 0.8194 0.8325
vt 0.8656 0.8614
vt 0.8656 0.8597
vt 0.8648 0.8614
vt 0.8635 0.8161
vt 0.8617 0.8161
vt 0.8635 0.8082
vt 0.8357 0.8597
vt 0.8357 0.8614
vt 0.8195 0.8614
vt 0.8655 0.8596
vt 0.8647 0.8596
vt 0.8647 0.8613
vt 0.8565 0.8452
vt 0.8565 0.8490
vt 0.8603 0.8452
vt 0.8194 0.8594
vt 0.8522 0.8575
vt 0.8194 0.8575
vt 0.8658 0.8575
vt 0.8666 0.8594
vt 0.8666 0.8575
vt 0.8656 0.8575
vt 0.8647 0.8594
vt 0.8656 0.8594
vt 0.8656 0.8081
vt 0.8637 0.8161
vt 0.8656 0.8161
vt 0.7865 0.8625
vt 0.8192 0.8616
vt 0.7865 0.8616
vt 0.8647 0.8616
vt 0.8647 0.8624
vt 0.8655 0.8616
vt 0.8192 0.8635
vt 0.8192 0.8628
vt 0.8031 0.8635
vt 0.8191 0.8627
vt 0.8030 0.8634
vt 0.8030 0.8627
vt 0.8658 0.8163
vt 0.8665 0.8163
vt 0.8658 0.8325
vt 0.8656 0.8163
vt 0.8647 0.8326
vt 0.8656 0.8326
vt 0.8524 0.8572
vt 0.8603 0.8534
vt 0.8524 0.8534
vt 0.8634 0.8081
vt 0.8616 0.8160
vt 0.8616 0.8081
vt 0.8356 0.8596
vt 0.8194 0.8613
vt 0.8194 0.8596
vt 0.8666 0.8494
vt 0.8666 0.8573
vt 0.8659 0.8573
vt 0.8524 0.8407
vt 0.8603 0.8328
vt 0.8524 0.8328
vt 0.7866 0.8614
vt 0.8028 0.8576
vt 0.8028 0.8614
vt 0.8604 0.8161
vt 0.8525 0.8161
vt 0.8604 0.8000
vt 0.8604 0.8635
vt 0.8441 0.8627
vt 0.8441 0.8635
vt 0.8635 0.8163
vt 0.8616 0.8244
vt 0.8635 0.8244
vt 0.8441 0.8625
vt 0.8604 0.8616
vt 0.8441 0.8616
vt 0.8617 0.8326
vt 0.8635 0.8326
vt 0.8635 0.8247
vt 0.8524 0.8160
vt 0.8524 0.7999
vt 0.8603 0.7999
vt 0.8544 0.8410
vt 0.8544 0.8449
vt 0.8552 0.8410
vt 0.8359 0.7999
vt 0.8522 0.8326
vt 0.8522 0.7999
vt 0.7701 0.8655
vt 0.7863 0.8655
vt 0.7863 0.8494
vt 0.7865 0.8575
vt 0.7865 0.8613
vt 0.8027 0.8575
vt 0.8655 0.7999
vt 0.8616 0.7999
vt 0.8616 0.8078
vt 0.8686 0.7670
vt 0.8525 0.7997
vt 0.8686 0.7997
vt 0.8357 0.8329
vt 0.8357 0.8408
vt 0.8031 0.8408
vt 0.8359 0.8596
vt 0.8359 0.8613
vt 0.8521 0.8596
vt 0.8192 0.8614
vt 0.8030 0.8575
vt 0.8030 0.8614
vt 0.8616 0.8325
vt 0.8616 0.8246
vt 0.8634 0.8246
vt 0.8359 0.8328
vt 0.8359 0.8490
vt 0.8521 0.8328
vt 0.8606 0.8634
vt 0.8606 0.8616
vt 0.8644 0.8616
vt 0.8606 0.8575
vt 0.8644 0.8575
vt 0.8606 0.8613
vt 0.8658 0.8572
vt 0.8665 0.8493
vt 0.8658 0.8493
vt 0.8614 0.8326
vt 0.8606 0.7999
vt 0.8606 0.8326
vt 0.8439 0.8635
vt 0.8439 0.8617
vt 0.8278 0.8635
vt 0.8194 0.8654
vt 0.8194 0.8616
vt 0.8274 0.8616
vt 0.8666 0.8614
vt 0.8658 0.8596
vt 0.8658 0.8614
vt 0.8357 0.7669
vt 0.8030 0.7997
vt 0.8357 0.7997
vt 0.8028 0.8491
vt 0.7700 0.8328
vt 0.7700 0.8491
vt 0.8603 0.8163
vt 0.8524 0.8163
vt 0.8524 0.8325
vt 0.8277 0.8634
vt 0.8277 0.8616
vt 0.8438 0.8616
vt 0.8524 0.7996
vt 0.8524 0.7669
vt 0.8685 0.7669
vt 0.8357 0.8411
vt 0.8357 0.8491
vt 0.8031 0.8491
vt 0.7700 0.7999
vt 0.8028 0.8326
vt 0.8028 0.7999
vt 0.8030 0.8328
vt 0.8030 0.8407
vt 0.8356 0.8328
vt 0.8637 0.8163
vt 0.8644 0.8163
vt 0.8637 0.8325
vt 0.8522 0.7669
vt 0.8359 0.7997
vt 0.8522 0.7997
vt 0.7862 0.8493
vt 0.7700 0.8493
vt 0.7700 0.8654
vt 0.8194 0.8572
vt 0.8194 0.8493
vt 0.8356 0.8493
vt 0.8647 0.8490
vt 0.8655 0.8328
vt 0.8647 0.8328
vt 0.7865 0.8635
vt 0.8028 0.8627
vt 0.7865 0.8627
vt 0.8356 0.8410
vt 0.8030 0.8410
vt 0.8030 0.8490
vt 0.8666 0.8491
vt 0.8658 0.8328
vt 0.8658 0.8491
vt 0.8584 0.8410
vt 0.8565 0.8410
vt 0.8192 0.8637
vt 0.8647 0.8493
vt 0.8596 0.8410
vt 0.8586 0.8410
vt 0.8534 0.8410
vt 0.8604 0.8493
vt 0.8645 0.8410
vt 0.8028 0.8637
vt 0.8524 0.8410
vt 0.8668 0.7999
vt 0.8555 0.8410
vt 0.8604 0.8575
vt 0.8606 0.8493
vt 0.7945 0.8645
vt 0.8668 0.8081
vt 0.8110 0.8637
vt 0.8030 0.7999
vt 0.7700 0.7669
vt 0.8522 0.8594
vt 0.8658 0.8594
vt 0.8647 0.8575
vt 0.8637 0.8081
vt 0.8192 0.8625
vt 0.8647 0.8163
vt 0.8604 0.8627
vt 0.8616 0.8163
vt 0.8604 0.8625
vt 0.8359 0.8326
vt 0.8192 0.8575
vt 0.8614 0.7999
vt 0.8666 0.8596
vt 0.8030 0.7669
vt 0.8028 0.8328
vt 0.7700 0.8326
vt 0.8359 0.7669
vt 0.8028 0.8635
vt 0.8666 0.8328
vn -0.1453 -0.9880 -0.0532
vn -0.0497 0.2687 -0.9619
vn 0.9964 -0.0547 -0.0640
vn -0.6064 0.1983 0.7701
vn -0.0683 0.9515 0.3001
vn -0.9238 0.0000 0.3828
vn -0.1448 0.0000 -0.9895
vn 0.9256 0.0000 -0.3785
vn 0.8148 0.0000 0.5797
vn -0.0000 -1.0000 0.0000
vn 0.0000 1.0000 0.0000
vn 0.0757 0.8627 0.5000
vn -0.7271 0.6777 0.1101
vn 0.6205 0.6298 -0.4673
vn -0.9576 0.0000 0.2881
vn -0.3726 0.0000 -0.9280
vn 0.8909 0.0000 -0.4542
vn 0.3726 0.0000 0.9280
vn -0.2381 0.1821 0.9540
vn -0.9622 0.0756 -0.2618
vn 0.8500 0.1298 -0.5105
vn 0.3140 0.9305 -0.1886
vn 0.4504 0.8730 -0.1874
vn 0.9934 -0.0645 0.0947
vn -0.0002 0.0277 -0.9996
vn -0.4034 0.5625 -0.7217
vn -0.7767 -0.5021 0.3804
vn 0.0895 0.9960 0.0085
vn 0.9934 -0.0645 0.0948
vn 0.7076 0.7034 0.0675
vn 0.8640 0.2977 0.4061
vn -0.1444 0.9832 -0.1116
vn 0.1243 0.0027 -0.9922
vn 0.1508 0.7032 -0.6948
vn -0.3569 0.3231 -0.8765
vn -0.6523 0.6446 -0.3988
vn -0.0029 0.0293 0.9996
vn -0.9108 0.3945 0.1214
vn -0.0672 0.0016 0.9977
vn 0.5906 -0.8050 0.0563
vn 0.7630 0.3902 0.5153
vn 0.7829 -0.4983 -0.3725
vn 0.7303 -0.0393 -0.6820
vn 0.0562 -0.7114 -0.7005
vn 0.0168 0.7034 0.7106
vn -0.0025 0.0292 -0.9996
vn 0.7107 0.0364 0.7026
vn 0.5890 -0.0394 0.8072
vn -0.7069 0.0376 0.7063
vn 0.9997 0.0238 0.0000
vn 0.1226 0.0012 -0.9925
vn 0.1230 0.0018 -0.9924
vn 0.1509 0.7029 -0.6951
vn -0.9997 0.0240 0.0000
vn -0.3568 0.3231 -0.8765
vn -0.0773 -0.7107 0.6993
vn 0.3346 0.9193 -0.2073
vn 0.6984 -0.4983 0.5138
vn -0.0002 0.0277 0.9996
vn -0.0011 0.0284 0.9996
vn -0.0420 -0.9991 -0.0040
vn -0.0655 0.0027 0.9978
vn -0.7058 0.0376 -0.7074
vn 0.7114 0.0364 -0.7019
vn -0.0892 0.1534 -0.9841
vn 0.9946 0.0698 -0.0770
vn -0.2210 0.0756 0.9724
vn -0.9540 0.1821 -0.2381
vn 0.7829 -0.4983 -0.3726
vn 0.7309 -0.0393 -0.6813
vn 0.0563 -0.7107 -0.7013
vn 0.0167 0.7030 0.7110
vn 0.7114 0.0364 0.7019
vn 0.5881 -0.0393 0.8078
vn -0.7058 0.0376 0.7074
vn -0.0772 -0.7112 0.6987
vn 0.6983 -0.4983 0.5139
vn -0.7067 0.0376 -0.7065
vn 0.7105 0.0364 -0.7027
s off
f 5/1/1 3/2/1 1/3/1
f 6/4/2 3/5/2 5/6/2
f 2/7/3 3/8/3 4/9/3
f 1/10/4 6/11/4 5/12/4
f 2/13/5 4/14/5 6/15/5
f 10/16/6 7/17/6 8/18/6
f 14/19/7 9/20/7 10/21/7
f 12/22/8 13/23/8 14/24/8
f 8/25/9 11/26/9 12/27/9
f 9/28/10 11/29/10 7/30/10
f 12/31/11 10/32/11 8/33/11
f 18/34/10 17/35/10 15/36/10
f 16/37/12 17/38/12 18/39/12
f 16/40/13 15/41/13 17/42/13
f 15/43/14 16/44/14 18/45/14
f 22/46/15 19/47/15 20/48/15
f 26/49/16 21/50/16 22/51/16
f 24/52/17 25/53/17 26/54/17
f 20/55/18 23/56/18 24/57/18
f 21/58/10 23/59/10 19/60/10
f 26/61/11 20/62/11 24/63/11
f 31/64/10 29/65/10 27/66/10
f 32/67/19 29/68/19 31/69/19
f 28/70/20 29/71/20 30/72/20
f 27/73/21 32/74/21 31/75/21
f 28/76/22 30/77/22 32/78/22
f 56/79/23 59/80/23 53/81/23
f 47/82/24 46/83/24 48/84/24
f 41/85/24 45/86/24 47/87/24
f 36/88/24 37/89/24 48/90/24
f 38/91/24 48/92/24 37/93/24
f 38/94/24 41/95/24 47/96/24
f 35/97/24 48/98/24 46/99/24
f 64/100/25 70/101/25 67/102/25
f 71/103/26 73/104/26 74/105/26
f 92/106/27 89/107/27 90/108/27
f 54/109/28 50/110/28 33/111/28
f 45/112/29 59/113/29 46/114/29
f 42/115/24 58/116/24 45/117/24
f 46/118/24 56/119/24 35/120/24
f 35/121/30 54/122/30 33/123/30
f 85/124/31 87/125/31 88/126/31
f 82/127/32 83/128/32 84/129/32
f 44/130/33 71/131/33 60/132/33
f 71/133/34 53/134/34 60/135/34
f 78/136/35 75/137/35 76/138/35
f 79/139/36 83/140/36 78/141/36
f 61/142/37 88/143/37 82/144/37
f 91/145/38 50/146/38 73/147/38
f 49/148/39 90/149/39 39/150/39
f 57/151/23 55/152/23 58/153/23
f 60/154/23 53/155/23 59/156/23
f 54/157/23 56/158/23 53/159/23
f 59/160/23 58/161/23 55/162/23
f 55/163/23 60/164/23 59/165/23
f 40/166/40 41/167/40 38/168/40
f 34/169/41 35/170/41 33/171/41
f 42/172/42 43/173/42 44/174/42
f 55/175/43 42/176/43 44/177/43
f 52/178/44 43/179/44 51/180/44
f 47/181/29 45/182/29 46/183/29
f 41/184/24 42/185/24 45/186/24
f 38/187/24 47/188/24 48/189/24
f 35/190/24 36/191/24 48/192/24
f 50/193/45 34/194/45 33/195/45
f 71/196/26 72/197/26 73/198/26
f 92/199/27 91/200/27 89/201/27
f 45/202/29 58/203/29 59/204/29
f 42/205/24 57/206/24 58/207/24
f 46/208/24 59/209/24 56/210/24
f 35/211/30 56/212/30 54/213/30
f 75/214/46 77/215/46 64/216/46
f 66/217/47 86/218/47 85/219/47
f 39/220/48 36/221/48 34/222/48
f 80/223/49 61/224/49 81/225/49
f 85/226/31 86/227/31 87/228/31
f 84/229/32 80/230/32 82/231/32
f 81/232/32 82/233/32 80/234/32
f 65/235/50 69/236/50 87/237/50
f 54/238/28 53/239/28 73/240/28
f 74/241/28 73/242/28 53/243/28
f 60/244/33 55/245/33 44/246/33
f 44/247/51 52/248/51 72/249/51
f 72/250/52 71/251/52 44/252/52
f 71/253/53 74/254/53 53/255/53
f 49/256/38 91/257/38 92/258/38
f 84/259/54 79/260/54 76/261/54
f 76/262/54 63/263/54 84/264/54
f 76/265/55 79/266/55 78/267/55
f 78/268/55 77/269/55 75/270/55
f 79/271/36 84/272/36 83/273/36
f 39/274/56 89/275/56 40/276/56
f 69/277/57 70/278/57 87/279/57
f 77/280/57 78/281/57 83/282/57
f 40/283/58 37/284/58 39/285/58
f 84/286/54 62/287/54 80/288/54
f 87/289/57 77/290/57 83/291/57
f 87/292/50 86/293/50 65/294/50
f 82/295/37 81/296/37 61/297/37
f 61/298/59 66/299/59 85/300/59
f 85/301/60 88/302/60 61/303/60
f 91/304/61 43/305/61 40/306/61
f 73/307/38 72/308/38 91/309/38
f 52/310/38 51/311/38 72/312/38
f 88/313/57 83/314/57 82/315/57
f 72/316/38 51/317/38 91/318/38
f 39/319/62 34/320/62 49/321/62
f 49/322/39 92/323/39 90/324/39
f 63/325/63 75/326/63 64/327/63
f 40/328/61 89/329/61 91/330/61
f 67/331/64 69/332/64 68/333/64
f 6/4/65 4/334/65 3/5/65
f 2/7/66 1/335/66 3/8/66
f 1/10/4 2/336/4 6/11/4
f 10/16/6 9/337/6 7/17/6
f 14/19/7 13/338/7 9/20/7
f 12/22/8 11/339/8 13/23/8
f 8/25/9 7/340/9 11/26/9
f 9/28/10 13/341/10 11/29/10
f 12/31/11 14/342/11 10/32/11
f 22/46/15 21/343/15 19/47/15
f 26/49/16 25/344/16 21/50/16
f 24/52/17 23/345/17 25/53/17
f 20/55/18 19/346/18 23/56/18
f 21/58/10 25/347/10 23/59/10
f 26/61/11 22/348/11 20/62/11
f 32/67/67 30/349/67 29/68/67
f 28/70/68 27/350/68 29/71/68
f 27/73/21 28/351/21 32/74/21
f 64/100/46 77/352/46 70/101/46
f 54/109/28 73/353/28 50/110/28
f 40/166/40 43/354/40 41/167/40
f 34/169/41 36/355/41 35/170/41
f 42/172/69 41/356/69 43/173/69
f 55/175/70 57/357/70 42/176/70
f 52/178/71 44/358/71 43/179/71
f 50/193/72 49/359/72 34/194/72
f 66/217/73 65/360/73 86/218/73
f 39/220/74 37/361/74 36/221/74
f 80/223/75 62/362/75 61/224/75
f 65/235/50 68/363/50 69/236/50
f 49/256/38 50/364/38 91/257/38
f 39/274/76 90/365/76 89/275/76
f 40/283/77 38/366/77 37/284/77
f 84/286/54 63/367/54 62/287/54
f 87/289/57 70/368/57 77/290/57
f 91/304/61 51/369/61 43/305/61
f 88/313/57 87/370/57 83/314/57
f 63/325/78 76/371/78 75/326/78
f 67/331/79 70/372/79 69/332/79
