# Blender v2.77 (sub 0) OBJ File: 'LowPoly_Level_Kit_Rocks.blend'
# www.blender.org
g Rock_Square_m_18
v 0.216000 0.000000 -0.216000
v -0.216000 0.000000 -0.216000
v -0.216000 0.000000 0.216000
v 0.197685 0.377764 0.197685
v -0.197685 0.385551 0.197685
v -0.197685 0.385551 -0.197685
v 0.197685 0.377764 -0.197685
v -0.216000 0.405534 0.216000
v -0.216000 0.366289 -0.216000
v -0.216000 0.405534 -0.216000
v 0.216000 0.396594 -0.216000
v 0.216000 0.358214 -0.216000
v 0.216000 0.358214 0.216000
v 0.216000 0.396594 0.216000
v -0.216000 0.725375 -0.216000
v 0.216000 0.707852 0.216000
v -0.216000 0.702424 0.216000
v -0.216000 0.741144 0.063192
v -0.082392 0.736808 0.216000
v 0.216000 0.000000 0.053715
v -0.055459 0.000000 0.216000
v 0.216000 0.040481 0.216000
v -0.201729 0.381298 0.201729
v -0.216000 0.334563 0.216000
v -0.185743 0.365723 0.216000
v -0.216000 0.366289 0.201868
v 0.216000 0.642851 -0.216000
v 0.216000 0.684866 -0.190984
v 0.176895 0.687248 -0.216000
vt 0.3516 0.8632
vt 0.3522 0.8632
vt 0.3522 0.8615
vt 0.3192 0.8612
vt 0.2875 0.8612
vt 0.3192 0.8538
vt 0.3593 0.8612
vt 0.3593 0.8538
vt 0.3516 0.8612
vt 0.3515 0.8611
vt 0.3515 0.8537
vt 0.3591 0.8537
vt 0.3516 0.8226
vt 0.3593 0.8226
vt 0.3593 0.7920
vt 0.3195 0.8612
vt 0.3512 0.8612
vt 0.3512 0.8538
vt 0.3526 0.8632
vt 0.3532 0.8632
vt 0.3532 0.8615
vt 0.3191 0.8537
vt 0.2874 0.8611
vt 0.2874 0.8537
vt 0.2874 0.8670
vt 0.3192 0.8653
vt 0.2874 0.8653
vt 0.3633 0.7919
vt 0.3615 0.8226
vt 0.3633 0.8226
vt 0.3194 0.8651
vt 0.3512 0.8634
vt 0.3194 0.8634
vt 0.3515 0.8630
vt 0.3515 0.8614
vt 0.3521 0.8614
vt 0.3613 0.8535
vt 0.3595 0.8228
vt 0.3595 0.8535
vt 0.3192 0.8651
vt 0.2874 0.8634
vt 0.2874 0.8651
vt 0.3525 0.8630
vt 0.3525 0.8614
vt 0.3531 0.8614
vt 0.3613 0.7919
vt 0.3595 0.8226
vt 0.3613 0.8226
vt 0.3512 0.7919
vt 0.3194 0.8226
vt 0.3512 0.8226
vt 0.3192 0.8228
vt 0.2874 0.8535
vt 0.3192 0.8535
vt 0.3515 0.7919
vt 0.3591 0.7919
vt 0.3515 0.8225
vt 0.2872 0.8228
vt 0.2553 0.8535
vt 0.2872 0.8535
vt 0.3194 0.8537
vt 0.3511 0.8537
vt 0.3194 0.8611
vt 0.3192 0.8632
vt 0.2874 0.8614
vt 0.2874 0.8632
vt 0.3192 0.7610
vt 0.2874 0.7917
vt 0.3192 0.7917
vt 0.3515 0.7610
vt 0.3593 0.7917
vt 0.3593 0.7610
vt 0.3633 0.7611
vt 0.3633 0.7917
vt 0.3596 0.7917
vt 0.3593 0.8229
vt 0.3593 0.8535
vt 0.3516 0.8535
vt 0.2872 0.7610
vt 0.2553 0.7917
vt 0.2872 0.7917
vt 0.3591 0.8228
vt 0.3515 0.8228
vt 0.3515 0.8534
vt 0.3512 0.8632
vt 0.3194 0.8614
vt 0.3194 0.8632
vt 0.3512 0.8228
vt 0.3194 0.8535
vt 0.3512 0.8535
vt 0.2872 0.8689
vt 0.2554 0.8689
vt 0.2872 0.8538
vt 0.2870 0.8537
vt 0.2553 0.8537
vt 0.2553 0.8688
vt 0.2553 0.7919
vt 0.2872 0.8226
vt 0.2872 0.7919
vt 0.3631 0.7610
vt 0.3595 0.7610
vt 0.3595 0.7916
vt 0.3195 0.7917
vt 0.3512 0.7917
vt 0.3512 0.7611
vt 0.3194 0.7916
vt 0.3194 0.7610
vt 0.3511 0.7610
vt 0.3192 0.7919
vt 0.2874 0.8226
vt 0.3192 0.8226
vt 0.3192 0.8670
vt 0.3615 0.7919
vt 0.3512 0.8651
vt 0.3613 0.8228
vt 0.3192 0.8634
vt 0.3595 0.7919
vt 0.3194 0.7919
vt 0.2874 0.8228
vt 0.2553 0.8228
vt 0.3192 0.8614
vt 0.2874 0.7610
vt 0.3515 0.7917
vt 0.2553 0.7610
vt 0.3512 0.8614
vt 0.3194 0.8228
vt 0.2553 0.8226
vt 0.2874 0.7919
vn -0.3865 0.3753 0.8425
vn 0.1432 -0.9603 0.2395
vn 0.5023 0.4424 -0.7430
vn -0.2420 0.9405 0.2383
vn 0.0000 0.0000 1.0000
vn 1.0000 0.0000 0.0000
vn 0.0128 0.6826 0.7307
vn 0.0000 0.0000 -1.0000
vn -0.0141 -0.6826 0.7307
vn 0.7168 -0.6972 0.0000
vn 0.7298 0.6837 0.0000
vn -0.7247 0.6891 0.0000
vn 0.0129 0.6900 0.7237
vn 0.0134 0.6823 -0.7310
vn -0.0141 -0.6826 -0.7307
vn -1.0000 0.0000 0.0000
vn 0.0000 -1.0000 0.0000
vn 0.0964 0.9938 -0.0561
vn -0.7372 -0.6757 0.0000
vn -0.0136 -0.6904 0.7233
vn 0.0134 0.6828 0.7305
vn 0.0129 0.6900 -0.7237
vn -0.0136 -0.6904 -0.7233
s off
f 25/1/1 26/2/1 24/3/1
f 22/4/2 21/5/2 20/6/2
f 28/7/3 27/8/3 29/9/3
f 18/10/4 17/11/4 19/12/4
f 19/13/5 17/14/5 8/15/5
f 13/16/6 22/17/6 20/18/6
f 5/19/7 23/20/7 25/21/7
f 10/22/8 29/23/8 27/24/8
f 5/25/9 14/26/9 8/27/9
f 7/28/10 14/29/10 4/30/10
f 13/31/11 7/32/11 4/33/11
f 26/34/12 23/35/12 5/36/12
f 4/37/13 25/38/13 13/39/13
f 7/40/14 9/41/14 6/42/14
f 25/43/1 23/44/1 26/45/1
f 11/46/15 6/47/15 10/48/15
f 24/49/16 2/50/16 3/51/16
f 13/52/5 21/53/5 22/54/5
f 17/55/16 18/56/16 8/57/16
f 12/58/6 20/59/6 1/60/6
f 3/61/17 2/62/17 21/63/17
f 6/64/12 26/65/12 5/66/12
f 18/67/16 10/68/16 8/69/16
f 29/70/18 19/71/18 28/72/18
f 13/73/5 25/74/5 24/75/5
f 24/76/5 3/77/5 21/78/5
f 27/79/6 14/80/6 11/81/6
f 24/82/16 26/83/16 9/84/16
f 5/85/19 10/86/19 6/87/19
f 20/88/17 2/89/17 1/90/17
f 16/91/18 28/92/18 19/93/18
f 29/94/18 15/95/18 18/96/18
f 19/97/5 14/98/5 16/99/5
f 27/100/6 28/101/6 16/102/6
f 27/103/8 11/104/8 10/105/8
f 10/106/8 15/107/8 29/108/8
f 12/109/8 2/110/8 9/111/8
f 5/25/20 4/112/20 14/26/20
f 7/28/10 11/113/10 14/29/10
f 13/31/11 12/114/11 7/32/11
f 4/37/21 5/115/21 25/38/21
f 7/40/22 12/116/22 9/41/22
f 11/46/23 7/117/23 6/47/23
f 24/49/16 9/118/16 2/50/16
f 13/52/5 24/119/5 21/53/5
f 12/58/6 13/120/6 20/59/6
f 6/64/12 9/121/12 26/65/12
f 18/67/16 15/122/16 10/68/16
f 29/70/18 18/123/18 19/71/18
f 27/79/6 16/124/6 14/80/6
f 5/85/19 8/125/19 10/86/19
f 20/88/17 21/126/17 2/89/17
f 19/97/5 8/127/5 14/98/5
f 12/109/8 1/128/8 2/110/8
