# Blender v2.77 (sub 0) OBJ File: 'LowPoly_Level_Kit_Rocks.blend'
# www.blender.org
g Rock_Square_m_16
v 0.216000 0.000000 0.216000
v -0.216000 0.000000 0.216000
v 0.216000 0.000000 -0.216000
v -0.216000 0.000000 -0.216000
v 0.216000 0.953040 0.216000
v -0.216000 0.953040 0.216000
v -0.216000 0.974524 -0.216000
v 0.216000 0.974524 -0.216000
v -0.197685 0.476975 0.197685
v -0.197685 0.486806 -0.197685
v 0.197685 0.486806 -0.197685
v 0.197685 0.476975 0.197685
v -0.216000 0.462486 -0.216000
v -0.216000 0.512038 -0.216000
v 0.216000 0.462486 -0.216000
v 0.216000 0.512038 -0.216000
v 0.216000 0.500750 0.216000
v 0.216000 0.452290 0.216000
v -0.216000 0.452290 0.216000
v -0.216000 0.500750 0.216000
vt 0.1089 0.7622
vt 0.1019 0.7872
vt 0.1089 0.7872
vt 0.0083 0.7874
vt 0.0369 0.8124
vt 0.0369 0.7874
vt 0.0657 0.8441
vt 0.0371 0.8502
vt 0.0657 0.8502
vt 0.0947 0.7874
vt 0.1017 0.8124
vt 0.1017 0.7874
vt 0.0945 0.8378
vt 0.0659 0.8439
vt 0.0945 0.8439
vt 0.0659 0.7622
vt 0.0945 0.7872
vt 0.0945 0.7622
vt 0.0947 0.7622
vt 0.1017 0.7872
vt 0.1017 0.7622
vt 0.0657 0.8439
vt 0.0371 0.8378
vt 0.0371 0.8439
vt 0.0947 0.8126
vt 0.1017 0.8376
vt 0.1017 0.8126
vt 0.0945 0.8502
vt 0.0659 0.8441
vt 0.0659 0.8502
vt 0.0083 0.8378
vt 0.0369 0.8628
vt 0.0369 0.8378
vt 0.0371 0.8126
vt 0.0657 0.8376
vt 0.0657 0.8126
vt 0.0659 0.7874
vt 0.0945 0.8124
vt 0.0945 0.7874
vt 0.0083 0.8126
vt 0.0369 0.8376
vt 0.0369 0.8126
vt 0.0371 0.7874
vt 0.0657 0.8124
vt 0.0657 0.7874
vt 0.0371 0.7622
vt 0.0657 0.7872
vt 0.0657 0.7622
vt 0.0659 0.8126
vt 0.0945 0.8376
vt 0.0945 0.8126
vt 0.0083 0.7622
vt 0.0369 0.7872
vt 0.0369 0.7622
vt 0.1019 0.7622
vt 0.0083 0.8124
vt 0.0371 0.8441
vt 0.0947 0.8124
vt 0.0659 0.8378
vt 0.0659 0.7872
vt 0.0947 0.7872
vt 0.0657 0.8378
vt 0.0947 0.8376
vt 0.0945 0.8441
vt 0.0083 0.8628
vt 0.0371 0.8376
vt 0.0659 0.8124
vt 0.0083 0.8376
vt 0.0371 0.8124
vt 0.0371 0.7872
vt 0.0659 0.8376
vt 0.0083 0.7872
vn 0.7977 -0.6029 -0.0150
vn 0.0000 -1.0000 0.0000
vn -0.7977 -0.6029 -0.0150
vn 0.0000 -0.6103 0.7922
vn -0.0000 -0.5874 -0.8093
vn 0.0000 0.9988 0.0497
vn -0.0000 0.6016 -0.7988
vn 0.0000 0.5958 0.8031
vn -0.7979 0.6026 0.0142
vn 0.7979 0.6026 0.0142
vn -1.0000 0.0000 0.0000
vn -0.0000 0.0000 -1.0000
vn 1.0000 0.0000 -0.0000
vn 0.0000 0.0000 1.0000
vn 0.8038 -0.5947 -0.0155
vn -0.8038 -0.5947 -0.0155
vn -0.8041 0.5944 0.0148
vn 0.8041 0.5944 0.0148
s off
f 11/1/1 17/2/1 12/3/1
f 1/4/2 4/5/2 3/6/2
f 20/7/3 10/8/3 9/9/3
f 17/10/4 9/11/4 12/12/4
f 14/13/5 11/14/5 10/15/5
f 7/16/6 5/17/6 8/18/6
f 10/19/7 15/20/7 13/21/7
f 18/22/8 9/23/8 19/24/8
f 9/25/9 13/26/9 19/27/9
f 15/28/10 12/29/10 18/30/10
f 19/31/11 4/32/11 2/33/11
f 7/34/12 16/35/12 14/36/12
f 13/37/12 3/38/12 4/39/12
f 16/40/13 5/41/13 17/42/13
f 5/43/14 20/44/14 17/45/14
f 3/46/13 18/47/13 1/48/13
f 18/49/14 2/50/14 1/51/14
f 6/52/11 14/53/11 20/54/11
f 11/1/15 16/55/15 17/2/15
f 1/4/2 2/56/2 4/5/2
f 20/7/16 14/57/16 10/8/16
f 17/10/4 20/58/4 9/11/4
f 14/13/5 16/59/5 11/14/5
f 7/16/6 6/60/6 5/17/6
f 10/19/7 11/61/7 15/20/7
f 18/22/8 12/62/8 9/23/8
f 9/25/17 10/63/17 13/26/17
f 15/28/18 11/64/18 12/29/18
f 19/31/11 13/65/11 4/32/11
f 7/34/12 8/66/12 16/35/12
f 13/37/12 15/67/12 3/38/12
f 16/40/13 8/68/13 5/41/13
f 5/43/14 6/69/14 20/44/14
f 3/46/13 15/70/13 18/47/13
f 18/49/14 19/71/14 2/50/14
f 6/52/11 7/72/11 14/53/11
