# Blender v2.77 (sub 0) OBJ File: 'LowPoly_Level_Kit_Rocks.blend'
# www.blender.org
g Rock_Square_m_14
v 0.216000 0.000000 0.216000
v -0.216000 0.000000 0.216000
v 0.216000 0.000000 -0.216000
v -0.135523 0.953040 0.216000
v 0.216000 0.974524 -0.216000
v -0.163657 0.476520 0.216000
v -0.163657 0.487262 -0.216000
v 0.216000 0.487262 -0.216000
v 0.216000 0.476520 0.216000
v 0.141570 0.974524 -0.216000
v -0.135523 0.968330 -0.091458
v -0.143335 0.839227 -0.216000
v -0.208827 0.066770 -0.216000
v -0.216000 0.000000 -0.037924
v -0.198530 0.000000 -0.216000
v 0.216000 0.852118 0.216000
v 0.175322 0.953040 0.216000
v 0.216000 0.956763 0.141127
vt 0.5608 0.8303
vt 0.5499 0.8304
vt 0.5608 0.8254
vt 0.5821 0.7583
vt 0.5647 0.7683
vt 0.5652 0.7587
vt 0.6128 0.7583
vt 0.5898 0.7937
vt 0.5866 0.7583
vt 0.5345 0.7583
vt 0.5083 0.7937
vt 0.5083 0.7583
vt 0.5532 0.7583
vt 0.5608 0.7679
vt 0.5345 0.7949
vt 0.5866 0.7583
vt 0.5866 0.7945
vt 0.5083 0.8291
vt 0.5083 0.8216
vt 0.5128 0.8294
vt 0.5608 0.7941
vt 0.5345 0.8307
vt 0.5614 0.8307
vt 0.5608 0.8257
vt 0.5866 0.8307
vt 0.6128 0.8216
vt 0.6128 0.7937
vt 0.5345 0.7594
vt 0.5345 0.8612
vt 0.5345 0.8304
vt 0.5453 0.8625
vt 0.5296 0.8399
vt 0.5083 0.8572
vt 0.5128 0.8307
vt 0.5608 0.8304
vt 0.5608 0.8625
vt 0.5083 0.8307
vt 0.5635 0.7945
vt 0.5296 0.8628
vt 0.5108 0.8628
vt 0.5345 0.8304
vt 0.5345 0.7945
vt 0.6103 0.8291
vt 0.5915 0.8291
vn -0.9837 -0.1517 -0.0965
vn -0.3173 0.6683 -0.6728
vn 0.0000 -0.0000 1.0000
vn 1.0000 0.0000 -0.0000
vn -0.9983 0.0584 0.0021
vn 0.0000 0.0000 -1.0000
vn 0.8220 0.3313 0.4631
vn -0.9943 0.1068 0.0000
vn -0.9983 0.0576 0.0014
vn -0.9983 0.0589 0.0029
vn 0.0000 -1.0000 0.0000
vn 0.0000 0.9988 0.0497
vn -0.9940 0.1092 0.0000
vn -0.9942 0.1078 0.0027
s off
f 15/1/1 14/2/1 13/3/1
f 10/4/2 12/5/2 11/6/2
f 1/7/3 6/8/3 2/9/3
f 3/10/4 9/11/4 1/12/4
f 11/13/5 12/14/5 6/15/5
f 10/4/6 5/16/6 8/17/6
f 17/18/7 16/19/7 18/20/7
f 7/21/8 13/3/8 14/2/8
f 5/22/4 18/20/4 16/19/4
f 15/23/6 13/24/6 3/25/6
f 16/26/3 6/8/3 9/27/3
f 7/21/9 6/15/9 12/14/9
f 4/28/10 11/13/10 6/15/10
f 15/29/11 3/30/11 14/31/11
f 11/32/12 18/33/12 10/34/12
f 14/31/11 1/35/11 2/36/11
f 18/33/12 5/37/12 10/34/12
f 12/5/6 8/17/6 7/38/6
f 4/39/12 17/40/12 18/33/12
f 6/15/13 14/2/13 2/41/13
f 8/42/4 16/19/4 9/11/4
f 16/26/3 17/43/3 4/44/3
f 8/17/6 13/24/6 7/38/6
f 1/7/3 9/27/3 6/8/3
f 3/10/4 8/42/4 9/11/4
f 16/26/3 4/44/3 6/8/3
f 11/32/12 4/39/12 18/33/12
f 14/31/11 3/30/11 1/35/11
f 12/5/6 10/4/6 8/17/6
f 6/15/14 7/21/14 14/2/14
f 8/42/4 5/22/4 16/19/4
f 8/17/6 3/25/6 13/24/6
