# Blender v2.77 (sub 0) OBJ File: 'LowPoly_Level_Kit_Rocks.blend'
# www.blender.org
g Rock_Square_m_08
v 0.197614 0.000000 0.197614
v -0.197614 0.000000 0.197614
v 0.197614 0.000000 -0.197614
v -0.197614 0.000000 -0.197614
v -0.197614 0.849487 0.197614
v -0.197614 0.810521 -0.197614
v 0.197614 0.810521 -0.197614
v 0.197614 0.687395 0.197614
v 0.036701 0.849487 0.197614
v 0.143990 0.772079 0.149411
v 0.197614 0.828882 -0.011382
v 0.146397 0.839801 0.099374
v 0.197614 0.817396 0.070932
vt 0.9169 0.8503
vt 0.9439 0.8503
vt 0.9439 0.8387
vt 0.9577 0.8324
vt 0.9643 0.8324
vt 0.9643 0.8268
vt 0.9577 0.8265
vt 0.9711 0.8265
vt 0.9711 0.8149
vt 0.9168 0.8502
vt 0.9168 0.8386
vt 0.9438 0.8386
vt 0.9577 0.8148
vt 0.9577 0.8264
vt 0.9710 0.8148
vt 0.9847 0.8146
vt 0.9713 0.8146
vt 0.9847 0.7673
vt 0.9167 0.8622
vt 0.8896 0.8148
vt 0.8896 0.8622
vt 0.9439 0.7908
vt 0.8896 0.7672
vt 0.8896 0.7908
vt 0.9168 0.8148
vt 0.9439 0.8384
vt 0.9439 0.8148
vt 0.9711 0.8146
vt 0.9441 0.7672
vt 0.9441 0.8146
vt 0.9642 0.8267
vt 0.9577 0.8267
vt 0.9577 0.8324
vt 0.9575 0.8384
vt 0.9575 0.8149
vt 0.9441 0.8384
vt 0.9441 0.8148
vt 0.9574 0.8148
vt 0.9441 0.8383
vt 0.9711 0.8506
vt 0.9711 0.8562
vt 0.9169 0.8562
vt 0.9168 0.8562
vt 0.9168 0.8505
vt 0.9710 0.8505
vt 0.9713 0.7672
vt 0.9713 0.8145
vt 0.9846 0.7672
vt 0.9439 0.8146
vt 0.8896 0.7910
vt 0.8896 0.8146
vt 0.9167 0.8148
vt 0.9439 0.7672
vt 0.9168 0.8384
vt 0.9711 0.7672
vt 0.9439 0.7910
vn 0.6164 0.4536 0.6436
vn 0.4543 0.8823 0.1231
vn 0.4167 0.6344 0.6511
vn 0.0000 0.9952 -0.0981
vn 0.6476 0.6429 0.4090
vn 0.0000 0.0000 1.0000
vn 1.0000 0.0000 -0.0000
vn 0.0000 -1.0000 0.0000
vn -1.0000 0.0000 0.0000
vn 0.5768 0.4721 0.6667
vn 0.0000 0.0000 -1.0000
s off
f 9/1/1 10/2/1 12/3/1
f 12/4/2 13/5/2 11/6/2
f 13/7/3 10/8/3 8/9/3
f 9/10/4 12/11/4 6/12/4
f 10/13/5 9/14/5 8/15/5
f 8/16/6 9/17/6 1/18/6
f 11/19/7 3/20/7 7/21/7
f 2/22/6 9/23/6 5/24/6
f 1/25/8 4/26/8 3/27/8
f 2/28/9 6/29/9 4/30/9
f 13/31/10 12/32/10 10/33/10
f 7/34/4 6/35/4 11/36/4
f 5/37/4 9/38/4 6/39/4
f 12/40/4 11/41/4 6/42/4
f 11/43/7 13/44/7 1/45/7
f 8/46/7 1/47/7 13/48/7
f 6/49/11 3/50/11 4/51/11
f 11/19/7 1/52/7 3/20/7
f 2/22/6 1/53/6 9/23/6
f 1/25/8 2/54/8 4/26/8
f 2/28/9 5/55/9 6/29/9
f 6/49/11 7/56/11 3/50/11
