# Blender v2.77 (sub 0) OBJ File: 'LowPoly_Level_Kit_Rocks.blend'
# www.blender.org
g Rock_Square_l_13
v 0.711183 0.000000 0.740849
v -0.254405 1.726284 -0.522823
v 0.927671 1.794155 0.643786
v 0.909806 1.667575 0.647123
v -0.228061 1.809454 -0.519652
v 1.109411 3.021494 -0.617044
v 0.925392 3.560802 -0.565148
v 0.919916 3.556213 -0.569405
v 0.324153 3.557617 -0.488835
v 0.338281 3.564170 -0.490171
v 0.607985 3.760623 -0.312183
v 1.140728 3.576168 -0.444149
v 1.169493 3.552311 -0.435270
v 0.471815 3.900838 0.478847
v 0.661731 3.868992 -0.079321
v 0.481539 3.923441 0.331333
v -0.190442 1.822244 0.494642
v -0.214302 1.766782 -0.496374
v 0.884964 1.680150 -0.614805
v 0.891086 1.734238 0.613653
v -0.229384 1.784038 0.520824
v 0.904265 1.610299 -0.649435
v -0.202871 1.866141 0.517868
v 0.920549 1.739946 -0.643265
v 1.017870 2.340745 0.647077
v 1.155723 3.430653 0.213633
v 0.962546 3.505178 0.574600
v -0.766308 -0.000000 -0.035637
v -0.639456 -0.000000 -0.605173
v -0.460225 1.078304 -0.561027
v -0.766308 -0.000000 0.278572
v -0.446932 -0.000000 0.624513
v -0.495839 0.936868 0.565148
v 0.711183 0.000000 -0.546325
v 0.825772 0.861934 -0.704371
v 0.186178 -0.000000 -0.688110
vt 0.1810 0.8514
vt 0.1812 0.8290
vt 0.1857 0.8285
vt 0.1393 0.8170
vt 0.1445 0.7867
vt 0.1404 0.8166
vt 0.2052 0.8249
vt 0.2106 0.8329
vt 0.1981 0.8234
vt 0.1746 0.8170
vt 0.1740 0.8498
vt 0.1741 0.8177
vt 0.1785 0.8170
vt 0.1744 0.7872
vt 0.1752 0.7861
vt 0.1809 0.7696
vt 0.1796 0.8007
vt 0.1787 0.8018
vt 0.2130 0.8166
vt 0.2107 0.8325
vt 0.2167 0.7994
vt 0.2122 0.7680
vt 0.2175 0.8005
vt 0.2296 0.8078
vt 0.2296 0.8086
vt 0.2250 0.8073
vt 0.1446 0.8284
vt 0.1490 0.8170
vt 0.1504 0.8302
vt 0.2175 0.8015
vt 0.2296 0.7848
vt 0.2286 0.8018
vt 0.1424 0.7786
vt 0.1407 0.7716
vt 0.1580 0.7681
vt 0.1613 0.8376
vt 0.1546 0.8567
vt 0.1504 0.8509
vt 0.2296 0.7722
vt 0.2357 0.7680
vt 0.2357 0.7826
vt 0.2154 0.8481
vt 0.2211 0.8456
vt 0.2343 0.8543
vt 0.2108 0.8099
vt 0.1912 0.8099
vt 0.1613 0.8335
vt 0.1740 0.8170
vt 0.1740 0.8466
vt 0.2115 0.7684
vt 0.1437 0.7855
vt 0.1746 0.8508
vt 0.1775 0.8166
vt 0.1817 0.7699
vt 0.2129 0.8164
vt 0.2092 0.8106
vt 0.1894 0.8110
vt 0.2089 0.8099
vt 0.2286 0.8019
vt 0.2197 0.7680
vt 0.2296 0.7844
vt 0.1511 0.8170
vt 0.1559 0.8191
vt 0.1613 0.8618
vt 0.1504 0.8604
vt 0.1393 0.8346
vt 0.1785 0.8164
vt 0.2123 0.8514
vt 0.1675 0.7680
vt 0.1764 0.7772
vt 0.1785 0.8050
vt 0.2164 0.8074
vt 0.2130 0.8453
vt 0.1707 0.8491
vt 0.1636 0.8469
vt 0.2262 0.8099
vt 0.2343 0.8105
vt 0.1400 0.8644
vn -0.9492 0.3145 -0.0144
vn -0.0632 0.4292 -0.9010
vn -0.4246 0.8544 -0.2996
vn 0.9647 0.2627 -0.0164
vn -0.0299 0.5856 0.8100
vn -0.1263 -0.3831 0.9150
vn -0.0826 0.7290 -0.6795
vn -0.1215 -0.3667 -0.9224
vn 0.4625 0.2399 -0.8535
vn -0.7347 0.0046 0.6783
vn -0.1343 0.0402 -0.9901
vn -0.9621 0.1687 -0.2143
vn -0.0639 0.0789 -0.9948
vn 0.8855 0.0707 0.4593
vn 0.2551 -0.2071 -0.9445
vn 0.9908 -0.1356 -0.0044
vn -0.1071 0.0546 0.9928
vn -0.9570 -0.2873 0.0389
vn 0.8629 -0.5050 0.0179
vn -0.0328 0.5691 -0.8216
vn 0.9617 0.2738 -0.0162
vn -0.0636 0.4334 0.8989
vn -0.1347 -0.4929 0.8596
vn -0.1317 -0.5071 -0.8518
vn 0.6006 0.7835 0.1596
vn -0.1354 0.0402 -0.9900
vn -0.1039 0.0503 -0.9933
vn -0.1154 0.0464 -0.9922
vn -0.1015 0.0691 -0.9924
vn -0.1428 0.0873 -0.9859
vn -0.0998 0.0573 -0.9934
vn -0.0997 0.0698 0.9926
vn -0.9536 0.3011 0.0067
vn -0.7030 0.7108 -0.0225
vn -0.9524 0.2990 0.0589
vn -0.9527 0.2961 -0.0687
vn 0.9824 -0.1616 -0.0938
vn 0.9904 -0.1379 0.0003
vn 0.9836 -0.1471 0.1044
vn -0.0300 0.0616 0.9976
vn -0.9582 0.2861 0.0071
vn 0.1906 0.8724 -0.4500
vn 0.9879 -0.1115 0.1079
vn -0.3055 0.0447 0.9511
vn -0.1577 0.0431 0.9865
vn 0.9930 -0.1183 0.0000
vn -0.9558 -0.2914 0.0393
vn 0.8494 -0.5274 0.0175
vn -0.1031 0.0681 0.9923
vn -0.9470 0.3186 0.0396
vn -0.7078 0.7061 -0.0225
vn -0.9576 0.2882 0.0000
vn 0.9929 -0.1190 0.0010
s off
f 23/1/1 14/2/1 16/3/1
f 22/4/2 18/5/2 19/6/2
f 11/7/3 9/8/3 15/9/3
f 4/10/4 19/11/4 20/12/4
f 4/13/5 17/14/5 21/15/5
f 23/16/6 20/17/6 3/18/6
f 11/7/7 8/19/7 10/20/7
f 19/21/8 5/22/8 24/23/8
f 12/24/9 13/25/9 6/26/9
f 33/27/10 31/28/10 32/29/10
f 24/30/11 10/31/11 8/32/11
f 30/33/12 29/34/12 28/35/12
f 36/36/13 30/37/13 2/38/13
f 27/39/14 25/40/14 26/41/14
f 35/42/15 34/43/15 36/44/15
f 24/23/16 13/45/16 26/46/16
f 14/47/17 23/48/17 3/49/17
f 18/50/18 23/16/18 5/22/18
f 24/23/19 20/17/19 19/21/19
f 22/4/20 2/51/20 18/5/20
f 16/3/3 15/9/3 9/8/3
f 11/7/3 10/20/3 9/8/3
f 4/10/21 22/52/21 19/11/21
f 4/13/22 20/53/22 17/14/22
f 23/16/23 17/54/23 20/17/23
f 11/7/7 7/55/7 8/19/7
f 19/21/24 18/50/24 5/22/24
f 12/56/25 26/57/25 13/58/25
f 6/26/9 8/32/9 7/59/9
f 7/59/9 12/24/9 6/26/9
f 8/32/26 6/26/26 24/30/26
f 24/30/27 5/60/27 9/61/27
f 9/61/28 10/31/28 24/30/28
f 2/38/29 22/62/29 36/36/29
f 35/63/30 36/36/30 22/62/30
f 29/64/31 30/37/31 36/36/31
f 1/65/32 21/66/32 32/29/32
f 16/3/25 14/2/25 27/67/25
f 23/1/33 9/8/33 5/68/33
f 21/15/34 18/5/34 2/51/34
f 30/33/35 28/35/35 2/51/35
f 31/69/36 33/70/36 21/15/36
f 26/46/37 25/71/37 3/18/37
f 3/18/38 24/23/38 26/46/38
f 6/72/39 13/45/39 24/23/39
f 21/66/40 33/27/40 32/29/40
f 28/35/41 21/15/41 2/51/41
f 12/56/42 11/7/42 15/9/42
f 34/43/43 35/42/43 22/73/43
f 3/49/44 25/74/44 27/75/44
f 27/75/45 14/47/45 3/49/45
f 34/43/46 4/76/46 1/77/46
f 18/50/47 17/54/47 23/16/47
f 15/9/25 27/67/25 26/57/25
f 24/23/48 3/18/48 20/17/48
f 12/56/25 15/9/25 26/57/25
f 1/65/49 4/78/49 21/66/49
f 23/1/50 16/3/50 9/8/50
f 21/15/51 17/14/51 18/5/51
f 28/35/52 31/69/52 21/15/52
f 12/56/42 7/55/42 11/7/42
f 34/43/53 22/73/53 4/76/53
f 15/9/25 16/3/25 27/67/25
l 28 32
l 36 28
l 32 36
