# Blender v2.77 (sub 0) OBJ File: 'LowPoly_Level_Kit_Rocks.blend'
# www.blender.org
g Rock_Square_l_09
v -1.219793 -0.000000 -0.747515
v -1.219793 -0.000000 0.624850
v -1.127431 -0.000000 0.756067
v -0.189924 2.614067 0.444668
v -0.589231 1.600524 -0.685158
v 0.017936 2.614067 -0.664930
v -0.189924 2.614067 -0.568307
v 0.535917 -0.000000 -0.910053
v 0.803062 0.000000 -0.189296
v 1.309528 2.614067 0.000044
v 1.024966 2.596060 -0.759595
v 0.438436 -0.000000 0.901030
v 1.174371 1.916470 0.719774
v 1.093881 2.111693 0.802504
v 0.803062 0.000000 0.663679
v 0.080494 3.047100 -0.564781
v 1.219209 2.863509 -0.355959
v 0.261050 3.036762 -0.651797
v 0.527867 3.005664 -0.679143
v -0.014470 2.674239 0.656104
v 0.435314 2.804584 0.686106
v 0.006686 2.928908 0.254161
v 0.829136 2.614067 0.740093
v 1.309528 2.614067 0.258605
v 1.267399 2.396622 0.523336
v 1.084337 2.319272 0.785967
v 1.337318 2.783214 0.057667
v 0.699988 2.764961 0.715129
vt 0.2137 0.7658
vt 0.1940 0.7625
vt 0.2188 0.7601
vt 0.2198 0.7729
vt 0.2233 0.7858
vt 0.2195 0.7797
vt 0.1734 0.7627
vt 0.1861 0.7680
vt 0.1845 0.7783
vt 0.2234 0.7601
vt 0.2461 0.7721
vt 0.1873 0.8372
vt 0.2107 0.8494
vt 0.1878 0.8588
vt 0.1904 0.8654
vt 0.1930 0.8675
vt 0.1873 0.8693
vt 0.2188 0.7845
vt 0.2226 0.7913
vt 0.1389 0.7722
vt 0.1536 0.7612
vt 0.1400 0.7748
vt 0.1555 0.7903
vt 0.1426 0.7915
vt 0.1413 0.7808
vt 0.1861 0.8487
vt 0.1878 0.7842
vt 0.1861 0.7827
vt 0.1876 0.7772
vt 0.1815 0.7960
vt 0.1495 0.7958
vt 0.1943 0.7645
vt 0.1815 0.7884
vt 0.2144 0.7891
vt 0.1927 0.8057
vt 0.1876 0.7943
vt 0.2321 0.8011
vt 0.2461 0.8169
vt 0.1922 0.8657
vt 0.2107 0.8094
vt 0.1848 0.8083
vt 0.1427 0.8275
vt 0.1896 0.7699
vt 0.1601 0.7601
vt 0.1369 0.7672
vt 0.1451 0.7628
vt 0.1865 0.8555
vt 0.1840 0.7843
vt 0.1385 0.8253
vt 0.2188 0.8094
vt 0.1861 0.8277
vn 0.5410 -0.1291 0.8311
vn -0.0919 0.0837 -0.9922
vn 0.4285 0.6445 -0.6333
vn -0.0920 0.0749 -0.9929
vn -0.0935 0.0751 0.9928
vn 0.8058 0.0838 0.5863
vn -0.4069 0.2612 -0.8753
vn 0.5737 0.5858 0.5724
vn -0.2712 0.8195 0.5049
vn -0.0923 0.0902 0.9916
vn 0.1299 0.9796 0.1531
vn 0.9868 -0.1621 0.0000
vn -0.8482 0.5297 0.0000
vn -0.0918 0.0835 -0.9923
vn 0.9264 -0.1546 -0.3434
vn -0.0919 0.0749 -0.9929
vn -0.0920 0.0749 0.9929
vn -0.0919 0.0754 0.9929
vn -0.9304 0.3666 0.0000
vn 0.9817 -0.1902 0.0000
vn 0.9567 -0.0601 -0.2848
vn -0.6692 0.6431 0.3723
vn -0.0966 0.0814 0.9920
vn -0.7689 0.3402 0.5413
s off
f 15/1/1 14/2/1 12/3/1
f 19/4/2 6/5/2 18/6/2
f 17/7/3 11/8/3 19/9/3
f 11/10/4 8/11/4 6/5/4
f 20/12/5 12/13/5 23/14/5
f 26/15/6 13/16/6 25/17/6
f 16/18/7 6/5/7 7/19/7
f 23/20/8 24/21/8 28/22/8
f 22/23/9 20/24/9 21/25/9
f 21/26/10 20/12/10 23/14/10
f 22/23/11 17/7/11 19/9/11
f 10/27/12 27/28/12 24/29/12
f 7/30/13 4/31/13 22/23/13
f 15/1/1 13/32/1 14/2/1
f 16/33/13 7/30/13 22/23/13
f 19/4/14 11/10/14 6/5/14
f 9/34/15 11/35/15 17/36/15
f 5/37/16 6/5/16 8/11/16
f 8/11/16 1/38/16 5/37/16
f 26/15/17 23/14/17 14/39/17
f 20/12/18 3/40/18 12/13/18
f 12/13/17 14/39/17 23/14/17
f 5/41/19 2/42/19 4/31/19
f 9/34/20 25/43/20 15/1/20
f 17/36/21 27/28/21 10/27/21
f 10/27/15 9/34/15 17/36/15
f 26/15/6 14/39/6 13/16/6
f 5/37/7 7/19/7 6/5/7
f 16/18/7 18/6/7 6/5/7
f 27/44/8 28/22/8 24/21/8
f 23/20/8 26/45/8 25/46/8
f 25/46/8 24/21/8 23/20/8
f 22/23/22 4/31/22 20/24/22
f 23/14/23 28/47/23 21/26/23
f 18/48/11 16/33/11 22/23/11
f 22/23/11 21/25/11 28/22/11
f 28/22/11 27/44/11 22/23/11
f 27/44/11 17/7/11 22/23/11
f 19/9/11 18/48/11 22/23/11
f 9/34/20 10/27/20 24/29/20
f 3/49/24 4/31/24 2/42/24
f 13/32/20 15/1/20 25/43/20
f 7/30/19 5/41/19 4/31/19
f 9/34/15 8/50/15 11/35/15
f 5/41/19 1/51/19 2/42/19
f 9/34/20 24/29/20 25/43/20
f 3/49/24 20/24/24 4/31/24
