# Blender v2.77 (sub 0) OBJ File: 'LowPoly_Level_Kit_Rocks.blend'
# www.blender.org
g Rock_Square_l_11
v 0.703767 0.000000 0.653157
v 0.200565 3.360056 0.415889
v 0.703767 0.000000 -0.653156
v -0.437408 1.318663 0.545449
v -0.437408 1.318663 -0.533339
v 0.620032 1.318663 -0.521253
v 0.200565 3.360056 -0.168402
v 0.225187 3.248824 -0.424076
v -0.585877 2.951124 0.428860
v -0.597334 3.132796 0.215041
v -0.422424 3.182615 0.412958
v -0.597334 3.132796 -0.273004
v -0.589126 3.002646 -0.424116
v 0.057309 3.319253 -0.327096
v 0.138286 3.265659 -0.420828
v 0.295659 2.930459 0.447514
v 0.678666 0.644868 0.610617
v 0.536225 1.318663 0.534321
v 0.620032 1.318663 0.415874
v -0.533009 -0.000000 -0.549105
v -0.355696 -0.000000 -0.652921
v -0.498059 0.920288 -0.601421
v -0.533009 -0.000000 0.022910
v -0.372559 -0.000000 0.652919
v -0.517464 0.409338 0.629994
v 0.654329 1.270086 0.452320
v 0.641232 1.369291 0.440257
v 0.641386 1.368596 -0.562492
v 0.654676 1.261184 -0.569959
v -0.486478 1.374915 -0.573966
v -0.485123 1.260933 -0.582373
v -0.485123 1.260933 0.582374
v -0.486478 1.374915 0.573967
v 0.571552 1.265921 0.570596
v 0.553701 1.371552 0.563270
vt 0.3646 0.8251
vt 0.3642 0.8304
vt 0.3544 0.8291
vt 0.3427 0.8325
vt 0.3405 0.8499
vt 0.3367 0.8320
vt 0.2938 0.8334
vt 0.2938 0.8272
vt 0.2989 0.8279
vt 0.2930 0.8011
vt 0.2923 0.7767
vt 0.2934 0.7751
vt 0.3168 0.8441
vt 0.3147 0.8510
vt 0.3125 0.8485
vt 0.2934 0.8510
vt 0.2935 0.8470
vt 0.3369 0.8289
vt 0.3379 0.8017
vt 0.3380 0.8304
vt 0.3194 0.8140
vt 0.3366 0.8351
vt 0.3367 0.8365
vt 0.3188 0.8099
vt 0.3367 0.7954
vt 0.3199 0.8101
vt 0.3243 0.7636
vt 0.2934 0.7637
vt 0.3258 0.7623
vt 0.3243 0.7936
vt 0.2958 0.7954
vt 0.2967 0.7942
vt 0.3258 0.7947
vt 0.2989 0.7989
vt 0.3174 0.7954
vt 0.3188 0.7991
vt 0.3474 0.8658
vt 0.3474 0.8331
vt 0.3367 0.7982
vt 0.3441 0.7970
vt 0.2919 0.8010
vt 0.3188 0.8272
vt 0.2934 0.8162
vt 0.3171 0.8510
vt 0.3170 0.8278
vt 0.3506 0.7968
vt 0.3646 0.7954
vt 0.3369 0.8027
vt 0.3205 0.8141
vt 0.2605 0.8011
vt 0.2603 0.7772
vt 0.2612 0.7786
vt 0.2943 0.7650
vt 0.3506 0.8320
vt 0.3289 0.7915
vt 0.3439 0.7677
vt 0.3490 0.7876
vt 0.3506 0.7954
vt 0.2948 0.8233
vt 0.2934 0.7998
vt 0.3507 0.8313
vt 0.3575 0.8642
vt 0.3506 0.8611
vt 0.3506 0.8288
vt 0.2934 0.7922
vt 0.2685 0.7632
vt 0.2825 0.7623
vt 0.2833 0.8217
vt 0.2828 0.8241
vt 0.2603 0.8331
vt 0.3455 0.8666
vt 0.3405 0.8660
vt 0.3601 0.8304
vt 0.3647 0.8345
vt 0.3647 0.8649
vt 0.2625 0.7649
vt 0.2870 0.7630
vt 0.3490 0.7699
vt 0.3469 0.7925
vt 0.2833 0.8011
vt 0.3258 0.7623
vt 0.2943 0.7910
vt 0.2648 0.8017
vn -0.5050 -0.0299 -0.8626
vn -0.9205 -0.3127 0.2344
vn -0.6985 0.5265 0.4847
vn 0.0050 -0.5826 -0.8127
vn 0.1622 0.9105 -0.3805
vn -0.2592 0.7248 -0.6383
vn 0.8549 0.5188 -0.0042
vn 0.9196 -0.3929 0.0004
vn 0.0100 -0.4827 0.8758
vn 0.0082 0.6434 -0.7655
vn 0.0094 0.5709 0.8210
vn -0.7708 0.6371 0.0000
vn 0.8037 0.1753 0.5687
vn -0.9993 0.0379 -0.0000
vn 0.0088 -0.6390 -0.7692
vn 0.9764 0.2161 0.0000
vn -0.2739 0.9618 0.0000
vn -0.0002 0.0658 -0.9978
vn 0.8169 0.5768 0.0000
vn 0.9224 -0.3862 0.0000
vn 0.0078 -0.4468 0.8946
vn 0.0087 0.6495 -0.7603
vn 0.9992 0.0389 0.0000
vn 0.0069 0.5348 0.8450
vn -0.0166 0.0893 0.9959
vn 0.6938 -0.5269 0.4909
vn 0.0108 0.0662 0.9978
vn -0.0002 0.0558 -0.9984
vn 0.5831 0.6879 0.4323
vn -0.9980 -0.0629 0.0000
vn -0.0241 0.0681 -0.9974
vn -0.0002 0.0558 0.9984
vn -0.0002 0.0658 0.9978
vn -0.7536 -0.6574 0.0000
vn -0.0241 0.0681 0.9974
vn -0.0302 0.0897 0.9955
vn -0.0205 0.0691 -0.9974
vn 0.0109 0.0570 -0.9983
vn 0.0105 0.0758 0.9971
vn 0.6977 -0.5074 0.5058
vn 0.0056 0.0564 0.9984
vn 0.5744 0.7105 0.4064
vn 0.0106 0.0923 -0.9957
s off
f 21/1/1 20/2/1 22/3/1
f 25/4/2 23/5/2 24/6/2
f 10/7/3 9/8/3 11/9/3
f 28/10/4 5/11/4 30/12/4
f 7/13/5 15/14/5 14/15/5
f 14/15/6 13/16/6 12/17/6
f 6/18/7 26/19/7 29/20/7
f 27/21/8 6/22/8 28/23/8
f 35/24/9 4/25/9 18/26/9
f 5/27/10 29/28/10 31/29/10
f 4/30/11 34/31/11 18/32/11
f 5/27/12 32/33/12 4/30/12
f 16/34/13 35/35/13 27/36/13
f 31/37/14 23/5/14 32/38/14
f 34/39/13 17/40/13 26/19/13
f 28/10/15 6/41/15 5/11/15
f 16/34/16 28/42/16 7/43/16
f 7/13/5 8/44/5 15/14/5
f 14/15/6 15/14/6 13/16/6
f 11/9/17 2/45/17 7/13/17
f 21/1/18 29/46/18 3/47/18
f 12/17/17 10/7/17 14/15/17
f 6/18/19 19/48/19 26/19/19
f 27/21/20 19/49/20 6/22/20
f 35/50/21 33/51/21 4/52/21
f 5/27/22 6/53/22 29/28/22
f 26/19/23 3/54/23 29/20/23
f 4/30/24 32/33/24 34/31/24
f 5/27/12 31/29/12 32/33/12
f 33/55/25 16/56/25 11/57/25
f 27/21/26 18/26/26 19/49/26
f 26/19/23 17/40/23 1/58/23
f 8/59/16 7/43/16 28/42/16
f 2/60/16 16/34/16 7/43/16
f 32/61/27 17/62/27 34/63/27
f 22/3/28 31/64/28 21/1/28
f 26/65/29 18/32/29 34/31/29
f 30/12/30 10/66/30 12/67/30
f 15/68/31 8/69/31 28/70/31
f 25/4/14 32/38/14 23/5/14
f 31/37/14 22/71/14 23/5/14
f 20/72/14 23/5/14 22/71/14
f 32/61/32 25/73/32 24/74/32
f 24/74/33 1/75/33 17/62/33
f 9/76/30 10/66/30 33/51/30
f 12/67/30 13/77/30 30/12/30
f 5/11/34 33/51/34 30/12/34
f 16/56/35 2/78/35 11/57/35
f 11/57/36 9/79/36 33/55/36
f 28/70/37 13/80/37 15/68/37
f 14/15/17 11/9/17 7/13/17
f 16/34/16 27/36/16 28/42/16
f 21/1/38 31/64/38 29/46/38
f 26/19/23 1/58/23 3/54/23
f 33/55/39 35/81/39 16/56/39
f 27/21/40 35/24/40 18/26/40
f 32/61/41 24/74/41 17/62/41
f 26/65/42 19/82/42 18/32/42
f 30/12/30 33/51/30 10/66/30
f 5/11/34 4/52/34 33/51/34
f 28/70/43 30/83/43 13/80/43
f 14/15/17 10/7/17 11/9/17
