# Blender v2.77 (sub 0) OBJ File: 'LowPoly_Level_Kit_Rocks.blend'
# www.blender.org
g Rock_Square_m_13
v 0.216000 0.000000 -0.216000
v -0.216000 0.000000 -0.216000
v 0.216000 0.981438 -0.216000
v 0.216000 1.069726 0.216000
v 0.164428 1.128130 0.155042
v 0.216000 1.080750 0.199131
v -0.216000 1.048580 0.216000
v -0.117279 1.158712 -0.070436
v -0.216000 1.128929 -0.063457
v 0.074498 1.137893 0.189646
v 0.059460 1.126085 0.216000
v -0.216000 0.115366 0.216000
v -0.097022 0.000000 0.216000
v -0.216000 0.000000 0.110294
v 0.155223 0.000000 0.216000
v 0.216000 0.000000 0.173708
v 0.216000 0.405297 0.216000
v -0.216000 1.064057 -0.216000
v -0.216000 1.131578 -0.153095
v 0.088530 1.124617 -0.216000
v 0.080099 1.137285 -0.202636
v -0.122647 1.159294 -0.144568
vt 0.0396 0.8602
vt 0.0460 0.8674
vt 0.0396 0.8674
vt 0.0628 0.8674
vt 0.0637 0.8489
vt 0.0652 0.8479
vt 0.0631 0.8382
vt 0.0628 0.8150
vt 0.0661 0.8379
vt 0.0628 0.8379
vt 0.0596 0.8674
vt 0.0628 0.8382
vt 0.0847 0.8379
vt 0.0862 0.8467
vt 0.0857 0.8473
vt 0.0213 0.7744
vt 0.0327 0.7763
vt 0.0163 0.7797
vt 0.0861 0.7800
vt 0.1094 0.8124
vt 0.0861 0.8353
vt 0.1071 0.8353
vt 0.1085 0.7744
vt 0.1094 0.7750
vt 0.0641 0.8383
vt 0.0669 0.8418
vt 0.0396 0.7844
vt 0.0163 0.8397
vt 0.0861 0.7787
vt 0.0713 0.7744
vt 0.0829 0.8611
vt 0.0790 0.8608
vt 0.0797 0.8379
vt 0.0628 0.7775
vt 0.0783 0.8674
vt 0.0861 0.8313
vt 0.0396 0.8382
vt 0.0628 0.8645
vt 0.0163 0.7759
vt 0.0323 0.7756
vt 0.0628 0.7782
vt 0.0396 0.8317
vt 0.0396 0.7790
vt 0.0453 0.8382
vt 0.0628 0.8382
vt 0.0546 0.7745
vt 0.0595 0.7744
vt 0.0830 0.8674
vt 0.0396 0.8397
vn -0.5480 -0.5651 0.6168
vn -0.2610 0.9277 0.2667
vn 0.2886 0.8015 0.5238
vn 0.5691 -0.0853 0.8178
vn 0.0000 -1.0000 0.0000
vn 0.7376 0.6567 -0.1571
vn -0.1343 0.6755 -0.7250
vn 1.0000 0.0000 -0.0000
vn 0.2885 0.8015 0.5238
vn -0.0000 0.0000 -1.0000
vn 0.0000 -0.0000 1.0000
vn 0.1079 0.9942 0.0000
vn -0.1343 0.6755 -0.7251
vn -1.0000 0.0000 0.0000
vn -0.2869 0.9575 0.0283
s off
f 14/1/1 13/2/1 12/3/1
f 7/4/2 11/5/2 10/6/2
f 10/6/3 11/5/3 4/7/3
f 17/8/4 15/9/4 16/10/4
f 15/11/5 13/2/5 1/12/5
f 3/13/6 20/14/6 21/15/6
f 22/16/7 20/17/7 18/18/7
f 3/19/8 17/20/8 1/21/8
f 17/20/8 16/22/8 1/21/8
f 6/23/8 4/24/8 17/20/8
f 4/7/9 6/25/9 5/26/9
f 5/26/3 10/6/3 4/7/3
f 3/27/10 2/28/10 18/18/10
f 7/29/11 17/8/11 11/30/11
f 22/31/12 8/32/12 21/15/12
f 15/9/11 17/8/11 13/33/11
f 4/34/11 11/30/11 17/8/11
f 7/4/2 8/32/2 9/35/2
f 13/33/11 17/8/11 12/36/11
f 2/37/5 1/12/5 14/1/5
f 16/38/5 15/11/5 1/12/5
f 13/2/5 14/1/5 1/12/5
f 21/15/6 5/26/6 3/13/6
f 6/25/6 3/13/6 5/26/6
f 18/18/7 19/39/7 22/16/7
f 22/16/13 21/40/13 20/17/13
f 18/41/14 12/42/14 7/43/14
f 18/18/10 20/17/10 3/27/10
f 14/44/14 12/42/14 2/45/14
f 7/43/14 9/46/14 18/41/14
f 19/47/14 18/41/14 9/46/14
f 8/32/12 5/26/12 21/15/12
f 9/35/15 22/31/15 19/48/15
f 3/19/8 6/23/8 17/20/8
f 3/27/10 1/49/10 2/28/10
f 7/29/11 12/36/11 17/8/11
f 7/4/2 10/6/2 8/32/2
f 18/41/14 2/45/14 12/42/14
f 8/32/12 10/6/12 5/26/12
f 9/35/15 8/32/15 22/31/15
