# Blender v2.77 (sub 0) OBJ File: 'LowPoly_Level_Kit_Rocks.blend'
# www.blender.org
g Rocks_Square_s_02
v 0.300054 -0.001712 -0.101460
v 0.301674 0.062772 -0.107634
v 0.260765 0.004176 -0.050267
v 0.262385 0.068661 -0.056441
v 0.250575 -0.003657 -0.136817
v 0.251879 0.048256 -0.141787
v 0.211285 0.002231 -0.085624
v 0.212589 0.054144 -0.090594
v -0.061577 0.000000 0.287635
v -0.061577 0.047151 0.287635
v -0.151842 0.000000 0.224488
v -0.151842 0.047151 0.224488
v 0.001570 0.000000 0.197370
v 0.001570 0.047151 0.197370
v -0.088695 0.000000 0.134224
v -0.088695 0.047151 0.134224
v 0.216286 -0.000000 0.067509
v 0.216286 0.064800 0.067509
v 0.274577 -0.000000 0.095814
v 0.274577 0.064800 0.095814
v 0.192440 -0.000000 0.140439
v 0.192440 0.052167 0.140439
v 0.250731 -0.000000 0.168744
v 0.250731 0.052167 0.168744
v -0.279092 0.000000 -0.088224
v -0.279092 0.027736 -0.088224
v -0.312126 0.000000 -0.143971
v -0.312126 0.027736 -0.143971
v -0.223345 0.000000 -0.121258
v -0.223345 0.027736 -0.121258
v -0.256379 0.000000 -0.177005
v -0.256379 0.027736 -0.177005
vt 0.2233 0.8092
vt 0.2077 0.7929
vt 0.2233 0.7928
vt 0.1814 0.8510
vt 0.1962 0.8377
vt 0.1962 0.8541
vt 0.1680 0.8582
vt 0.1806 0.8418
vt 0.1806 0.8582
vt 0.1962 0.8410
vt 0.2109 0.8544
vt 0.1962 0.8542
vt 0.2120 0.8209
vt 0.2267 0.8368
vt 0.2120 0.8373
vt 0.1962 0.8214
vt 0.1814 0.8369
vt 0.1814 0.8206
vt 0.1004 0.8012
vt 0.0889 0.7735
vt 0.1004 0.7734
vt 0.0893 0.8292
vt 0.0778 0.8013
vt 0.0893 0.8013
vt 0.1007 0.8289
vt 0.0893 0.8013
vt 0.1007 0.8014
vt 0.0622 0.8228
vt 0.0737 0.8503
vt 0.0622 0.8503
vt 0.0622 0.7734
vt 0.0355 0.8013
vt 0.0355 0.7734
vt 0.0889 0.7734
vt 0.0622 0.8013
vt 0.0622 0.7735
vt 0.2120 0.8538
vt 0.2270 0.8373
vt 0.2270 0.8536
vt 0.1993 0.8205
vt 0.2120 0.8379
vt 0.1962 0.8380
vt 0.2231 0.7650
vt 0.2357 0.7809
vt 0.2231 0.7809
vt 0.1455 0.8327
vt 0.1582 0.8144
vt 0.1582 0.8328
vt 0.1424 0.8122
vt 0.1580 0.7950
vt 0.1580 0.8144
vt 0.1848 0.8122
vt 0.1692 0.7949
vt 0.1848 0.7928
vt 0.2837 0.8397
vt 0.2905 0.8552
vt 0.2837 0.8551
vt 0.3489 0.7998
vt 0.3556 0.8150
vt 0.3489 0.8150
vt 0.2948 0.8370
vt 0.2880 0.8213
vt 0.2948 0.8212
vt 0.2836 0.7997
vt 0.2903 0.8156
vt 0.2836 0.8155
vt 0.3486 0.7883
vt 0.3329 0.7719
vt 0.3486 0.7719
vt 0.2837 0.8561
vt 0.2680 0.8398
vt 0.2837 0.8397
vt 0.2077 0.8092
vt 0.1814 0.8378
vt 0.1680 0.8418
vt 0.2109 0.8380
vt 0.2267 0.8204
vt 0.1962 0.8377
vt 0.0889 0.8012
vt 0.0778 0.8291
vt 0.0893 0.8289
vt 0.0737 0.8228
vt 0.0622 0.8013
vt 0.0889 0.8013
vt 0.2120 0.8374
vt 0.2120 0.8204
vt 0.2357 0.7649
vt 0.1424 0.8144
vt 0.1424 0.7928
vt 0.1692 0.8143
vt 0.2905 0.8398
vt 0.3556 0.7998
vt 0.2880 0.8371
vt 0.2903 0.7998
vt 0.3329 0.7883
vt 0.2680 0.8561
vn 0.7948 0.0380 0.6056
vn -0.5813 0.0920 0.8085
vn -0.7948 -0.0380 -0.6056
vn 0.5813 -0.0920 -0.8085
vn -0.0276 -0.9953 0.0933
vn -0.1348 0.9673 -0.2147
vn -0.5732 0.0000 0.8194
vn -0.8194 0.0000 -0.5732
vn 0.5732 0.0000 -0.8194
vn 0.8194 0.0000 0.5732
vn 0.0000 -1.0000 -0.0000
vn 0.0000 1.0000 0.0000
vn 0.4368 0.0000 -0.8996
vn 0.9505 0.0000 0.3108
vn -0.4368 0.0000 0.8996
vn -0.9505 0.0000 -0.3108
vn -0.0716 0.9865 0.1475
vn -0.8603 0.0000 0.5098
vn -0.5098 0.0000 -0.8603
vn 0.8603 0.0000 -0.5098
vn 0.5098 0.0000 0.8603
s off
f 2/1/1 3/2/1 1/3/1
f 8/4/2 3/5/2 4/6/2
f 8/7/3 5/8/3 7/9/3
f 6/10/4 1/11/4 5/12/4
f 3/13/5 5/14/5 1/15/5
f 6/16/6 4/17/6 2/18/6
f 12/19/7 9/20/7 10/21/7
f 16/22/8 11/23/8 12/24/8
f 14/25/9 15/26/9 16/27/9
f 10/28/10 13/29/10 14/30/10
f 9/31/11 15/32/11 13/33/11
f 16/34/12 10/35/12 14/36/12
f 20/37/13 17/38/13 18/39/13
f 24/40/14 19/41/14 20/42/14
f 22/43/15 23/44/15 24/45/15
f 22/46/16 17/47/16 21/48/16
f 19/49/11 21/50/11 17/51/11
f 22/52/17 20/53/17 18/54/17
f 28/55/18 25/56/18 26/57/18
f 32/58/19 27/59/19 28/60/19
f 30/61/20 31/62/20 32/63/20
f 26/64/21 29/65/21 30/66/21
f 27/67/11 29/68/11 25/69/11
f 30/70/12 28/71/12 26/72/12
f 2/1/1 4/73/1 3/2/1
f 8/4/2 7/74/2 3/5/2
f 8/7/3 6/75/3 5/8/3
f 6/10/4 2/76/4 1/11/4
f 3/13/5 7/77/5 5/14/5
f 6/16/6 8/78/6 4/17/6
f 12/19/7 11/79/7 9/20/7
f 16/22/8 15/80/8 11/23/8
f 14/25/9 13/81/9 15/26/9
f 10/28/10 9/82/10 13/29/10
f 9/31/11 11/83/11 15/32/11
f 16/34/12 12/84/12 10/35/12
f 20/37/13 19/85/13 17/38/13
f 24/40/14 23/86/14 19/41/14
f 22/43/15 21/87/15 23/44/15
f 22/46/16 18/88/16 17/47/16
f 19/49/11 23/89/11 21/50/11
f 22/52/17 24/90/17 20/53/17
f 28/55/18 27/91/18 25/56/18
f 32/58/19 31/92/19 27/59/19
f 30/61/20 29/93/20 31/62/20
f 26/64/21 25/94/21 29/65/21
f 27/67/11 31/95/11 29/68/11
f 30/70/12 32/96/12 28/71/12
