# Blender v2.77 (sub 0) OBJ File: 'LowPoly_Level_Kit_Rocks.blend'
# www.blender.org
g Rocks_Square_m_01
v 0.811280 0.000686 0.181741
v 0.422480 0.000686 0.181741
v 0.811280 0.000686 -0.180297
v 0.422480 0.000686 -0.180297
v 0.811280 0.684116 0.181741
v 0.811280 0.410167 -0.180297
v 0.761130 0.652767 -0.180297
v 0.811280 0.666914 -0.016918
v 0.422480 0.533812 -0.180297
v 0.583885 0.652767 -0.180297
v 0.422480 0.668423 0.000510
v 0.422480 0.253680 0.181741
v 0.422480 0.680669 0.141934
v 0.479650 0.684116 0.181741
v 0.422490 0.000953 0.221729
v -0.009510 0.000953 0.221729
v 0.422490 0.000953 -0.210271
v -0.009510 0.000953 -0.210271
v -0.009510 0.906621 -0.210271
v 0.422490 0.906621 -0.210271
v -0.009510 0.908099 0.221729
v -0.009510 0.945626 0.176732
v 0.341584 0.908099 0.221729
v 0.333951 0.945626 0.176732
v 0.422490 0.814205 0.221729
v 0.422490 0.931591 0.037485
v -0.439510 0.000923 0.203644
v -0.007510 0.000923 -0.193413
v -0.439510 0.000923 -0.193413
v -0.007510 0.920160 0.203644
v -0.439510 0.877994 -0.193413
v -0.007510 0.877994 -0.193413
v -0.064249 0.000923 0.203644
v -0.007510 0.000923 0.113257
v -0.007510 0.210732 0.203644
v -0.439510 0.797185 0.203644
v -0.439510 0.905771 0.068151
v -0.408653 0.920160 0.203644
v -0.438609 0.001025 0.221729
v -0.438609 0.001025 -0.210271
v -0.870609 0.001025 -0.210271
v -0.438609 0.975549 -0.210271
v -0.870609 0.896020 -0.210271
v -0.624594 0.975549 -0.210271
v -0.870609 1.004021 0.052261
v -0.870609 0.202827 0.221729
v -0.790709 0.001025 0.221729
v -0.870609 0.001025 0.087467
v -0.438609 0.983830 0.221729
v -0.870609 1.009983 0.107234
v -0.438609 1.005636 0.067157
v -0.870609 0.993830 0.221729
vt 0.0555 0.7664
vt 0.0548 0.7554
vt 0.0672 0.7555
vt 0.0770 0.8166
vt 0.0770 0.8454
vt 0.0733 0.8163
vt 0.0334 0.7672
vt 0.0229 0.7845
vt 0.0228 0.7681
vt 0.0462 0.7660
vt 0.0660 0.8250
vt 0.0630 0.8161
vt 0.0747 0.8240
vt 0.0904 0.8223
vt 0.2141 0.7575
vt 0.2068 0.7636
vt 0.2068 0.7567
vt 0.2020 0.7980
vt 0.2019 0.8098
vt 0.1972 0.8098
vt 0.1953 0.8189
vt 0.2026 0.8207
vt 0.2026 0.8432
vt 0.0291 0.7579
vt 0.0371 0.7580
vt 0.0370 0.7704
vt 0.0765 0.8311
vt 0.0911 0.8306
vt 0.0911 0.8474
vt 0.1026 0.7579
vt 0.1135 0.7579
vt 0.1135 0.8182
vt 0.0235 0.8624
vt 0.0510 0.8336
vt 0.0510 0.8624
vt 0.0475 0.8362
vt 0.0242 0.8191
vt 0.0475 0.8191
vt 0.0880 0.7628
vt 0.0880 0.8182
vt 0.0798 0.8253
vt 0.0902 0.8173
vt 0.1048 0.8337
vt 0.1016 0.8173
vt 0.0661 0.7818
vt 0.0555 0.7784
vt 0.0763 0.7555
vt 0.0789 0.7594
vt 0.1812 0.8432
vt 0.1812 0.8189
vt 0.0770 0.8625
vt 0.0520 0.8625
vt 0.1808 0.7606
vt 0.1808 0.8098
vt 0.1733 0.8239
vt 0.1501 0.8569
vt 0.1501 0.8170
vt 0.0449 0.8650
vt 0.0358 0.8642
vt 0.0242 0.8551
vt 0.1576 0.8075
vt 0.1808 0.7582
vt 0.1808 0.8075
vt 0.0548 0.8080
vt 0.0781 0.7818
vt 0.0781 0.8080
vt 0.0630 0.8236
vt 0.0601 0.8261
vt 0.0355 0.8235
vt 0.0631 0.8225
vt 0.0079 0.7704
vt 0.0354 0.8247
vt 0.0079 0.8247
vt 0.0943 0.8636
vt 0.0785 0.8636
vt 0.0785 0.8348
vt 0.0520 0.8163
vt 0.0322 0.8567
vt 0.0146 0.8300
vt 0.0401 0.8300
vt 0.0131 0.7641
vt 0.0354 0.7641
vt 0.2281 0.8084
vt 0.2068 0.8084
vt 0.0116 0.8133
vt 0.0271 0.8200
vt 0.0630 0.7630
vt 0.0904 0.7618
vt 0.0630 0.7618
vt 0.1976 0.8432
vt 0.2025 0.8464
vt 0.2025 0.8675
vt 0.0798 0.8613
vt 0.1812 0.8675
vt 0.1812 0.8432
vt 0.2281 0.7591
vt 0.1532 0.8687
vt 0.1733 0.8687
vt 0.1716 0.8170
vt 0.1032 0.8577
vt 0.1058 0.8347
vt 0.1058 0.8582
vt 0.0656 0.8484
vt 0.0656 0.8311
vt 0.0115 0.7579
vt 0.0371 0.8193
vt 0.0303 0.8203
vt 0.0462 0.8122
vt 0.0229 0.8122
vt 0.0911 0.8508
vt 0.0657 0.8578
vt 0.0401 0.8518
vt 0.0833 0.8193
vt 0.0626 0.8193
vt 0.0880 0.8069
vt 0.1032 0.8348
vt 0.1179 0.7618
vt 0.0534 0.7579
vt 0.0626 0.7592
vt 0.0626 0.8201
vt 0.0626 0.7585
vt 0.0880 0.7579
vt 0.0371 0.8201
vt 0.0371 0.7598
vt 0.0235 0.8336
vt 0.2020 0.7582
vt 0.1576 0.7582
vt 0.0548 0.7818
vt 0.0146 0.8567
vt 0.0355 0.7631
vt 0.1048 0.8613
vt 0.0911 0.8578
vt 0.0789 0.7818
vt 0.1179 0.8223
vn -0.5089 0.6905 -0.5141
vn -0.5728 0.0761 0.8161
vn 0.9332 0.1929 -0.3032
vn 1.0000 0.0000 0.0000
vn 0.6995 0.6027 0.3840
vn -0.9520 0.2389 0.1914
vn 0.8256 -0.2233 0.5182
vn 0.0000 0.9944 -0.1056
vn -0.8135 -0.3221 0.4841
vn -0.2864 0.8861 -0.3645
vn 0.0000 0.0000 -1.0000
vn 0.0000 -1.0000 0.0000
vn -1.0000 0.0000 0.0000
vn -0.0000 0.9963 -0.0863
vn 0.0000 0.0000 1.0000
vn -0.0000 0.9950 -0.1003
vn 0.0000 0.7680 0.6405
vn 0.0000 0.9942 -0.1078
vn 0.0229 0.9899 0.1397
s off
f 10/1/1 9/2/1 11/3/1
f 13/4/2 12/5/2 14/6/2
f 8/7/3 6/8/3 7/9/3
f 6/8/4 8/7/4 5/10/4
f 24/11/5 25/12/5 26/13/5
f 20/14/4 26/13/4 25/12/4
f 37/15/6 36/16/6 38/17/6
f 35/18/7 33/19/7 34/20/7
f 37/21/8 38/22/8 30/23/8
f 48/24/9 47/25/9 46/26/9
f 44/27/10 43/28/10 45/29/10
f 44/30/11 42/31/11 40/32/11
f 18/33/12 15/34/12 16/35/12
f 12/36/13 4/37/13 2/38/13
f 43/39/11 40/32/11 41/40/11
f 9/41/11 10/42/11 6/43/11
f 7/44/11 6/43/11 10/42/11
f 8/45/14 7/46/14 10/1/14
f 10/1/14 11/3/14 8/45/14
f 13/47/14 14/48/14 11/3/14
f 37/21/8 32/49/8 31/50/8
f 2/51/15 1/52/15 12/5/15
f 32/53/4 35/18/4 28/54/4
f 36/55/15 35/56/15 30/57/15
f 12/36/13 13/58/13 11/59/13
f 11/59/13 9/60/13 12/36/13
f 29/61/11 32/62/11 28/63/11
f 4/64/12 1/65/12 2/66/12
f 21/67/13 22/68/13 19/69/13
f 24/11/5 23/70/5 25/12/5
f 25/71/15 16/72/15 15/73/15
f 26/74/16 20/75/16 19/76/16
f 12/5/15 5/77/15 14/6/15
f 48/78/12 40/79/12 39/80/12
f 25/71/15 23/81/15 21/82/15
f 36/16/13 29/83/13 27/84/13
f 35/18/4 34/20/4 28/54/4
f 43/85/13 46/26/13 45/86/13
f 19/69/13 16/87/13 21/67/13
f 17/88/4 25/12/4 15/89/4
f 34/90/12 33/91/12 27/92/12
f 6/43/11 4/93/11 9/41/11
f 34/90/12 29/94/12 28/95/12
f 36/16/13 37/15/13 31/96/13
f 33/97/15 35/56/15 27/98/15
f 30/57/15 38/99/15 36/55/15
f 24/100/17 21/101/17 23/102/17
f 51/103/18 42/104/18 44/27/18
f 48/24/13 46/26/13 41/105/13
f 45/86/13 52/106/13 50/107/13
f 6/8/4 1/108/4 3/109/4
f 50/110/19 49/111/19 51/103/19
f 14/48/14 8/45/14 11/3/14
f 39/80/12 47/112/12 48/78/12
f 47/113/15 39/114/15 46/115/15
f 24/100/16 19/76/16 22/116/16
f 18/117/11 20/14/11 17/88/11
f 45/29/18 51/103/18 44/27/18
f 51/118/4 49/119/4 39/120/4
f 46/115/15 49/121/15 52/122/15
f 51/118/4 40/123/4 42/124/4
f 18/33/12 17/125/12 15/34/12
f 12/36/13 9/60/13 4/37/13
f 43/39/11 44/30/11 40/32/11
f 37/21/8 30/23/8 32/49/8
f 32/53/4 30/126/4 35/18/4
f 36/55/15 27/98/15 35/56/15
f 29/61/11 31/127/11 32/62/11
f 4/64/12 3/128/12 1/65/12
f 25/71/15 21/82/15 16/72/15
f 12/5/15 1/52/15 5/77/15
f 48/78/12 41/129/12 40/79/12
f 36/16/13 31/96/13 29/83/13
f 43/85/13 41/105/13 46/26/13
f 19/69/13 18/130/13 16/87/13
f 17/88/4 20/14/4 25/12/4
f 6/43/11 3/131/11 4/93/11
f 34/90/12 27/92/12 29/94/12
f 24/100/17 22/116/17 21/101/17
f 45/86/13 46/26/13 52/106/13
f 6/8/4 5/10/4 1/108/4
f 50/110/19 52/132/19 49/111/19
f 14/48/14 5/133/14 8/45/14
f 24/100/16 26/74/16 19/76/16
f 18/117/11 19/134/11 20/14/11
f 45/29/18 50/110/18 51/103/18
f 46/115/15 39/114/15 49/121/15
f 51/118/4 39/120/4 40/123/4
