# Blender v2.77 (sub 0) OBJ File: 'LowPoly_Level_Kit_Rocks.blend'
# www.blender.org
g Rock_Square_m_01
v 0.216000 0.000000 0.216000
v -0.216000 0.000000 0.216000
v 0.216000 0.000000 -0.216000
v -0.216000 0.000000 -0.216000
v 0.216000 0.953040 0.216000
v -0.216000 0.953040 0.216000
v -0.216000 0.974524 -0.216000
v 0.216000 0.974524 -0.216000
vt 0.0574 0.7629
vt 0.0315 0.8331
vt 0.0315 0.7629
vt 0.0574 0.8346
vt 0.0315 0.8665
vt 0.0315 0.8346
vt 0.0833 0.8331
vt 0.0574 0.7629
vt 0.0833 0.7629
vt 0.0833 0.7629
vt 0.1092 0.8331
vt 0.0833 0.8331
vt 0.0056 0.7629
vt 0.0056 0.8346
vt 0.0056 0.8665
vt 0.0315 0.8346
vt 0.0315 0.8665
vt 0.0574 0.8346
vt 0.0574 0.8665
vt 0.0574 0.8346
vt 0.1092 0.7629
vt 0.0315 0.7629
vt 0.0056 0.8346
vn 1.0000 0.0000 -0.0000
vn 0.0000 -1.0000 0.0000
vn -1.0000 0.0000 0.0000
vn 0.0000 0.0000 1.0000
vn -0.0000 0.0000 -1.0000
vn 0.0000 0.9988 0.0497
s off
f 3/1/1 5/2/1 1/3/1
f 1/4/2 4/5/2 3/6/2
f 6/7/3 4/8/3 2/9/3
f 5/10/4 2/11/4 1/12/4
f 7/13/5 3/6/5 4/14/5
f 7/15/6 5/16/6 8/17/6
f 3/1/1 8/18/1 5/2/1
f 1/4/2 2/19/2 4/5/2
f 6/7/3 7/20/3 4/8/3
f 5/10/4 6/21/4 2/11/4
f 7/13/5 8/22/5 3/6/5
f 7/15/6 6/23/6 5/16/6
