# Blender v2.77 (sub 0) OBJ File: 'LowPoly_Level_Kit_Rocks.blend'
# www.blender.org
g Rock_Square_s_02
v 0.196102 -0.000000 0.212934
v 0.196102 0.209531 0.212934
v 0.196102 -0.000000 -0.228567
v 0.196102 0.338882 -0.228567
v -0.196102 0.256994 0.244200
v -0.196102 -0.000000 0.244200
v -0.196102 -0.000000 -0.228567
v -0.115446 0.376584 -0.228567
v -0.196102 0.277149 -0.228567
v -0.196102 0.362077 -0.139870
vt 0.2173 0.8476
vt 0.2087 0.8406
vt 0.2120 0.8135
vt 0.1764 0.8135
vt 0.1850 0.8135
vt 0.1777 0.8227
vt 0.1715 0.8606
vt 0.1535 0.8145
vt 0.1715 0.8145
vt 0.2087 0.8135
vt 0.1867 0.8628
vt 0.2411 0.8135
vt 0.2321 0.7642
vt 0.2142 0.7984
vt 0.2101 0.7642
vt 0.1425 0.8052
vt 0.1764 0.7663
vt 0.1764 0.8138
vt 0.1495 0.8145
vt 0.2101 0.8135
vt 0.1764 0.7674
vt 0.2101 0.7642
vt 0.1424 0.8606
vt 0.2087 0.8628
vt 0.2411 0.8476
vt 0.2321 0.7984
vt 0.1424 0.7642
vt 0.1764 0.8135
vn 0.0000 0.0000 -1.0000
vn -0.6650 0.5394 -0.5165
vn 1.0000 0.0000 0.0000
vn -1.0000 0.0000 -0.0000
vn 0.0795 0.0000 0.9968
vn 0.1195 0.9528 0.2791
vn 0.1159 0.9580 0.2621
vn 0.0000 -1.0000 0.0000
vn 0.1365 0.9555 0.2614
s off
f 9/1/1 8/2/1 4/3/1
f 8/4/2 9/5/2 10/6/2
f 3/7/3 2/8/3 1/9/3
f 7/10/4 5/11/4 10/6/4
f 3/12/1 9/1/1 4/3/1
f 6/13/5 2/14/5 5/15/5
f 9/5/4 7/10/4 10/6/4
f 10/16/6 2/17/6 4/18/6
f 8/19/7 10/16/7 4/18/7
f 7/20/8 1/21/8 6/22/8
f 3/7/3 4/23/3 2/8/3
f 7/10/4 6/24/4 5/11/4
f 3/12/1 7/25/1 9/1/1
f 6/13/5 1/26/5 2/14/5
f 10/16/9 5/27/9 2/17/9
f 7/20/8 3/28/8 1/21/8
