# Blender v2.77 (sub 0) OBJ File: 'LowPoly_Level_Kit_Rocks.blend'
# www.blender.org
g Rock_Square_m_03
v -0.217376 0.000000 0.194003
v -0.217376 0.000000 -0.194003
v 0.217376 0.000000 0.194003
v 0.217376 0.000000 -0.194003
v 0.217376 1.069887 -0.194003
v 0.217376 1.007565 0.194003
v 0.217376 1.069887 0.084414
v -0.217376 1.008123 0.194003
v -0.217376 1.036100 -0.194003
v -0.062517 1.103001 -0.194003
v -0.217376 1.051740 0.117306
v -0.082305 1.105343 0.022746
vt 0.3000 0.8402
vt 0.2870 0.8296
vt 0.3066 0.8304
vt 0.3396 0.7612
vt 0.3445 0.7581
vt 0.3396 0.8327
vt 0.3324 0.7581
vt 0.3144 0.8340
vt 0.3144 0.7581
vt 0.2580 0.7629
vt 0.2680 0.7581
vt 0.2580 0.8363
vt 0.3121 0.8606
vt 0.3121 0.8301
vt 0.3144 0.8296
vt 0.2862 0.7581
vt 0.3144 0.7581
vt 0.2866 0.8605
vt 0.2862 0.8411
vt 0.2862 0.8363
vt 0.2862 0.7605
vt 0.3396 0.7625
vt 0.3396 0.8340
vt 0.3647 0.8327
vt 0.3647 0.7592
vt 0.3396 0.8648
vt 0.3043 0.8610
vt 0.2862 0.8296
vt 0.3144 0.8648
vn -0.3962 0.9170 -0.0461
vn -1.0000 0.0000 0.0000
vn 1.0000 0.0000 -0.0000
vn 0.0000 0.0000 -1.0000
vn 0.0011 0.8693 0.4943
vn 0.0000 0.0000 1.0000
vn 0.1175 0.9931 0.0000
vn 0.0000 -1.0000 0.0000
s off
f 12/1/1 9/2/1 11/3/1
f 8/4/2 11/5/2 1/6/2
f 7/7/3 4/8/3 5/9/3
f 9/10/4 10/11/4 2/12/4
f 6/13/5 12/1/5 8/14/5
f 1/15/6 6/16/6 8/17/6
f 12/1/5 11/3/5 8/14/5
f 12/1/7 5/18/7 10/19/7
f 4/20/4 10/11/4 5/21/4
f 7/7/3 6/22/3 3/23/3
f 2/24/2 11/5/2 9/25/2
f 12/1/1 10/19/1 9/2/1
f 1/26/8 4/8/8 3/23/8
f 7/7/3 3/23/3 4/8/3
f 6/13/5 7/27/5 12/1/5
f 1/15/6 3/28/6 6/16/6
f 12/1/7 7/27/7 5/18/7
f 4/20/4 2/12/4 10/11/4
f 2/24/2 1/6/2 11/5/2
f 1/26/8 2/29/8 4/8/8
