# Blender v2.77 (sub 0) OBJ File: 'LowPoly_Level_Kit_Rocks.blend'
# www.blender.org
g Rocks_Square_m_05
v 0.435434 0.000000 0.194400
v 0.003434 0.000000 0.194400
v 0.435434 0.000000 -0.194400
v 0.003434 0.000000 -0.194400
v 0.435434 0.857142 -0.194400
v 0.435434 0.831257 0.194400
v 0.393933 0.880609 0.194400
v 0.003434 0.823365 0.194400
v 0.102831 0.880609 0.194400
v 0.003434 0.810378 -0.194400
v 0.398667 0.899131 -0.168362
v 0.422823 0.872139 -0.194400
v 0.005302 0.896715 -0.121046
v 0.003434 0.895770 -0.121617
v -0.428566 0.000000 0.216000
v 0.003434 0.000000 -0.216000
v 0.003434 0.667128 0.216000
v 0.003434 0.682167 -0.216000
v -0.428566 0.611763 -0.216000
v -0.342822 0.682167 -0.216000
v -0.428566 0.601124 0.216000
v -0.335312 0.667128 0.216000
v -0.356800 0.669280 0.154169
v -0.428566 0.602866 0.209793
v -0.051778 0.000000 0.216000
v 0.003434 0.000000 0.174293
v 0.003434 0.143511 0.216000
v -0.428566 0.036828 -0.216000
v -0.428566 0.000000 -0.009675
v -0.401497 0.000000 -0.216000
vt 0.7651 0.7696
vt 0.7651 0.7644
vt 0.7652 0.7643
vt 0.8097 0.8249
vt 0.7855 0.8495
vt 0.7855 0.8249
vt 0.8097 0.8256
vt 0.8100 0.8459
vt 0.8099 0.8459
vt 0.8135 0.7642
vt 0.7893 0.8154
vt 0.7893 0.7642
vt 0.8318 0.8490
vt 0.8157 0.8260
vt 0.8318 0.8261
vt 0.7385 0.8475
vt 0.7327 0.8476
vt 0.7339 0.8437
vt 0.7385 0.8204
vt 0.7331 0.8201
vt 0.7138 0.8477
vt 0.6624 0.8149
vt 0.6655 0.8238
vt 0.6624 0.8238
vt 0.7138 0.7822
vt 0.7267 0.7822
vt 0.7138 0.7845
vt 0.6867 0.7865
vt 0.6815 0.7825
vt 0.8378 0.7694
vt 0.8135 0.8193
vt 0.8135 0.7686
vt 0.8378 0.7672
vt 0.8401 0.7642
vt 0.8564 0.7642
vt 0.8620 0.7677
vt 0.7873 0.7642
vt 0.7886 0.7658
vt 0.8135 0.8179
vt 0.8119 0.8195
vt 0.8135 0.8169
vt 0.7138 0.8203
vt 0.7893 0.7667
vt 0.7893 0.8195
vt 0.7651 0.8195
vt 0.8332 0.7642
vt 0.6867 0.7911
vt 0.6893 0.7822
vt 0.7138 0.7822
vt 0.7404 0.8196
vt 0.7408 0.7822
vt 0.7408 0.8195
vt 0.6396 0.8247
vt 0.6380 0.8224
vt 0.6624 0.8247
vt 0.6380 0.7868
vt 0.6429 0.7825
vt 0.6624 0.7825
vt 0.7138 0.8245
vt 0.6867 0.8238
vt 0.6624 0.7825
vt 0.7051 0.8510
vt 0.7020 0.8537
vt 0.6807 0.8393
vt 0.6807 0.8537
vt 0.7138 0.8201
vt 0.7051 0.8262
vt 0.8378 0.8184
vt 0.8097 0.8495
vt 0.7385 0.8479
vt 0.8378 0.8193
vt 0.6867 0.8236
vt 0.7893 0.8184
vt 0.6822 0.8262
vt 0.8620 0.8184
vn -0.0951 0.6457 -0.7576
vn 0.0000 -1.0000 0.0000
vn -0.4895 0.8500 0.1947
vn 1.0000 0.0000 -0.0000
vn 0.0000 0.9987 0.0510
vn -0.5631 0.7956 0.2234
vn -0.6346 0.7729 0.0029
vn 0.0000 0.9994 0.0348
vn 0.5872 -0.2259 0.7773
vn -0.8013 -0.5890 -0.1051
vn 0.0000 -0.0000 1.0000
vn -1.0000 0.0000 0.0000
vn 0.7647 0.6430 0.0428
vn -0.0000 -0.0000 -1.0000
vn -0.6726 0.7398 0.0155
s off
f 10/1/1 14/2/1 13/3/1
f 1/4/2 4/5/2 3/6/2
f 8/7/3 13/8/3 14/9/3
f 3/10/4 6/11/4 1/12/4
f 11/13/5 9/14/5 7/15/5
f 24/16/6 22/17/6 23/18/6
f 19/19/7 23/18/7 20/20/7
f 23/18/8 22/17/8 17/21/8
f 27/22/9 25/23/9 26/24/9
f 30/25/10 29/26/10 28/27/10
f 21/28/11 27/22/11 22/29/11
f 10/30/12 2/31/12 8/32/12
f 6/33/11 7/34/11 9/35/11
f 9/35/11 8/36/11 6/33/11
f 10/1/1 11/37/1 12/38/1
f 12/39/13 11/40/13 5/41/13
f 23/18/8 18/42/8 20/20/8
f 10/1/14 12/38/14 5/43/14
f 10/1/14 3/44/14 4/45/14
f 8/32/12 14/46/12 10/30/12
f 27/47/4 26/48/4 16/49/4
f 24/50/12 15/51/12 21/52/12
f 30/53/14 28/54/14 16/55/14
f 19/56/14 20/57/14 18/58/14
f 18/59/4 27/47/4 16/49/4
f 16/55/14 19/56/14 18/58/14
f 25/23/11 27/22/11 15/60/11
f 17/61/11 22/29/11 27/22/11
f 11/40/13 6/11/13 5/41/13
f 26/62/2 25/63/2 29/64/2
f 15/65/2 29/64/2 25/63/2
f 19/66/12 29/26/12 24/50/12
f 29/64/2 16/67/2 26/62/2
f 8/36/11 1/68/11 6/33/11
f 1/4/2 2/69/2 4/5/2
f 8/7/3 9/14/3 13/8/3
f 3/10/4 5/41/4 6/11/4
f 11/13/5 13/8/5 9/14/5
f 24/16/6 21/70/6 22/17/6
f 19/19/15 24/16/15 23/18/15
f 21/28/11 15/60/11 27/22/11
f 10/30/12 4/71/12 2/31/12
f 10/1/1 13/3/1 11/37/1
f 23/18/8 17/21/8 18/42/8
f 10/1/14 5/43/14 3/44/14
f 24/50/12 29/26/12 15/51/12
f 18/59/4 17/72/4 27/47/4
f 16/55/14 28/54/14 19/56/14
f 11/40/13 7/73/13 6/11/13
f 19/66/12 28/27/12 29/26/12
f 29/64/2 30/74/2 16/67/2
f 8/36/11 2/75/11 1/68/11
