# Blender v2.77 (sub 0) OBJ File: 'LowPoly_Level_Kit_Rocks.blend'
# www.blender.org
g Rock_Square_l_08
v 0.171613 0.000000 -0.854785
v -0.490035 2.165059 -0.608025
v 0.073005 3.127165 -0.575022
v -0.114846 3.031215 -0.511885
v 0.070165 3.133422 -0.571527
v -1.382714 -0.000000 -0.698649
v -0.332770 2.688245 -0.514968
v -0.602227 1.980999 -0.612080
v -0.885845 -0.000000 0.748562
v -0.871828 0.271260 0.727382
v 0.342096 3.204313 0.602107
v 0.127139 3.246092 0.561080
v 0.021805 3.246277 0.180318
v 0.120953 3.185683 -0.535356
v 0.007231 3.223340 -0.280555
v 0.477187 1.550057 -0.756465
v 0.598427 2.165059 -0.612929
v 0.450064 2.165059 -0.702540
v 0.402626 2.968778 -0.639311
v 0.529022 3.101288 -0.547819
v 0.748612 3.063468 -0.419510
v 0.171613 0.000000 0.398388
v -0.204871 -0.000000 0.816967
v 0.411226 2.165059 0.698636
v 0.648095 3.068338 0.671695
v 0.757543 3.116890 0.562716
v 0.701135 3.132213 0.629441
v 0.598427 2.165059 0.490505
v -0.085262 3.066822 0.552786
v -0.092224 3.066818 0.527691
v -0.469823 2.472552 -0.149223
v -1.392523 -0.000000 -0.627972
v -0.509268 1.656574 0.648445
v -0.891689 0.445639 0.664459
v -1.123132 -0.000000 0.343311
v -0.354245 2.165059 0.621678
vt 0.9042 0.7959
vt 0.8908 0.7901
vt 0.8898 0.7591
vt 0.9293 0.8287
vt 0.9275 0.8201
vt 0.9304 0.8270
vt 0.9947 0.7991
vt 0.9868 0.7874
vt 0.9918 0.7922
vt 0.9427 0.7662
vt 0.9405 0.7731
vt 0.9326 0.7683
vt 0.9958 0.8067
vt 0.9951 0.8195
vt 0.9932 0.8158
vt 0.9950 0.8053
vt 0.9862 0.8173
vt 0.9807 0.8182
vt 0.9672 0.8086
vt 0.9628 0.7731
vt 0.9672 0.8124
vt 0.9511 0.8114
vt 0.9282 0.7735
vt 0.9310 0.7711
vt 0.9302 0.7730
vt 0.9257 0.8149
vt 0.9243 0.8084
vt 0.9250 0.8086
vt 0.9452 0.8229
vt 0.9484 0.8289
vt 0.9322 0.8236
vt 0.8878 0.7594
vt 0.8938 0.8008
vt 0.9672 0.7591
vt 0.9853 0.7839
vt 0.9951 0.8052
vt 0.9315 0.7698
vt 0.9480 0.8409
vt 0.9310 0.7720
vt 0.9958 0.8260
vt 0.9869 0.8217
vt 0.9683 0.7591
vt 0.9011 0.8122
vt 0.8929 0.8134
vt 0.8942 0.8082
vt 0.8940 0.8150
vt 0.8948 0.8248
vt 0.9144 0.8125
vt 0.9275 0.8300
vt 0.9278 0.7899
vt 0.9186 0.7654
vt 0.8991 0.8300
vt 0.9443 0.8078
vt 0.9310 0.8518
vt 0.9484 0.8642
vt 0.9465 0.8650
vt 0.9270 0.7967
vt 0.9479 0.8478
vt 0.9450 0.8671
vt 0.9349 0.8028
vt 0.9329 0.8124
vt 0.9403 0.8184
vn -0.9208 0.3684 -0.1278
vn 0.0413 0.5272 0.8487
vn -0.4320 0.2822 -0.8566
vn 0.7324 -0.1724 0.6587
vn 0.0801 0.5135 -0.8544
vn -0.0996 0.0923 -0.9907
vn -0.0997 0.0825 -0.9916
vn 0.9811 -0.1934 0.0000
vn -0.8599 0.0837 0.5035
vn -0.6388 0.7487 0.1771
vn -0.1185 0.0946 0.9884
vn -0.4321 0.2822 -0.8565
vn -0.0995 0.1053 0.9895
vn 0.0801 0.5135 -0.8543
vn -0.1594 0.0681 -0.9849
vn 0.5146 0.0974 -0.8519
vn -0.0996 0.0826 -0.9916
vn -0.5370 0.7662 -0.3529
vn 0.2006 0.9781 -0.0550
vn -0.9210 0.2942 0.2554
vn 0.0123 0.3406 0.9401
vn -0.0996 0.0826 0.9916
vn -0.8440 0.5363 0.0000
vn 0.9863 -0.1649 -0.0000
vn -0.1878 0.0784 0.9791
vn -0.1719 0.0798 0.9819
vn -0.0997 0.0826 0.9916
vn -0.1740 0.0680 0.9824
s off
f 31/1/1 8/2/1 32/3/1
f 27/4/2 11/5/2 25/6/2
f 4/7/3 2/8/3 7/9/3
f 24/10/4 28/11/4 25/12/4
f 14/13/5 20/14/5 19/15/5
f 3/16/6 18/17/6 2/8/6
f 16/18/7 1/19/7 2/8/7
f 22/20/8 1/21/8 16/22/8
f 34/23/9 9/24/9 10/25/9
f 12/26/10 30/27/10 29/28/10
f 12/29/11 29/30/11 24/31/11
f 6/32/1 32/3/1 8/2/1
f 31/1/1 7/33/1 8/2/1
f 22/20/4 24/10/4 23/34/4
f 8/35/3 7/9/3 2/8/3
f 4/7/12 5/36/12 3/16/12
f 3/16/3 2/8/3 4/7/3
f 27/37/4 25/12/4 28/11/4
f 36/38/13 24/31/13 29/30/13
f 26/39/4 27/37/4 28/11/4
f 19/15/5 3/16/5 14/13/5
f 5/36/14 14/13/14 3/16/14
f 3/16/15 19/15/15 18/17/15
f 20/14/16 21/40/16 17/41/16
f 17/41/16 16/18/16 18/17/16
f 8/35/17 2/8/17 1/19/17
f 18/17/7 16/18/7 2/8/7
f 1/19/17 6/42/17 8/35/17
f 15/43/18 5/44/18 4/45/18
f 14/46/19 15/43/19 20/47/19
f 13/48/19 12/26/19 11/5/19
f 11/5/19 27/4/19 26/49/19
f 33/50/20 32/3/20 35/51/20
f 20/47/19 15/43/19 21/52/19
f 13/48/19 11/5/19 26/49/19
f 21/52/19 13/48/19 26/49/19
f 28/11/8 16/22/8 17/53/8
f 23/54/21 34/55/21 10/56/21
f 34/23/9 35/51/9 9/24/9
f 30/27/20 31/1/20 36/57/20
f 36/38/22 33/58/22 23/54/22
f 10/56/22 9/59/22 23/54/22
f 29/28/20 30/27/20 36/57/20
f 31/1/23 15/43/23 7/33/23
f 35/51/20 34/23/20 33/50/20
f 33/50/20 36/57/20 31/1/20
f 15/43/23 4/45/23 7/33/23
f 28/11/24 21/60/24 26/39/24
f 12/26/10 13/48/10 30/27/10
f 24/31/25 25/61/25 11/62/25
f 11/62/26 12/29/26 24/31/26
f 17/41/16 19/15/16 20/14/16
f 22/20/4 28/11/4 24/10/4
f 36/38/27 23/54/27 24/31/27
f 15/43/18 14/46/18 5/44/18
f 33/50/20 31/1/20 32/3/20
f 21/52/19 15/43/19 13/48/19
f 28/11/8 22/20/8 16/22/8
f 23/54/28 33/58/28 34/55/28
f 30/27/23 13/48/23 31/1/23
f 31/1/23 13/48/23 15/43/23
f 28/11/24 17/53/24 21/60/24
f 17/41/16 18/17/16 19/15/16
