# Blender v2.77 (sub 0) OBJ File: 'LowPoly_Level_Kit_Rocks.blend'
# www.blender.org
g Rock_Square_m_11
v 0.210840 -0.007632 0.205311
v 0.210840 -0.007632 -0.226689
v -0.221160 -0.007632 -0.226689
v 0.210840 1.013742 0.205311
v -0.221160 1.013742 0.205311
v 0.210840 0.966891 -0.226689
v -0.221160 0.887362 -0.226689
v 0.024856 0.966891 -0.226689
v -0.221160 0.995363 0.035843
v -0.221160 0.194169 0.205311
v -0.141260 -0.007632 0.205311
v -0.221160 -0.007632 0.071049
vt 0.2673 0.8348
vt 0.2593 0.8348
vt 0.2593 0.8207
vt 0.2704 0.8358
vt 0.2854 0.8348
vt 0.2851 0.8543
vt 0.2851 0.8663
vt 0.2594 0.8663
vt 0.3514 0.7631
vt 0.3625 0.7631
vt 0.3625 0.8316
vt 0.3111 0.8443
vt 0.2854 0.8652
vt 0.2854 0.8348
vt 0.2593 0.8358
vt 0.2851 0.8348
vt 0.2593 0.7631
vt 0.2694 0.7644
vt 0.3367 0.8207
vt 0.3109 0.7631
vt 0.3367 0.7631
vt 0.3367 0.7687
vt 0.3367 0.8316
vt 0.3064 0.8348
vt 0.3319 0.8348
vt 0.3109 0.8348
vt 0.2851 0.7720
vt 0.3109 0.8316
vt 0.2851 0.7631
vt 0.3109 0.7631
vt 0.3111 0.8652
vt 0.2851 0.8348
vn -0.8135 -0.3221 0.4841
vn -0.2864 0.8861 -0.3645
vn 0.0000 0.9942 -0.1078
vn 0.0000 0.0000 -1.0000
vn 0.0000 -1.0000 -0.0000
vn -1.0000 0.0000 0.0000
vn 0.0000 0.0000 1.0000
vn 1.0000 0.0000 -0.0000
s off
f 12/1/1 11/2/1 10/3/1
f 8/4/2 7/5/2 9/6/2
f 9/6/3 5/7/3 4/8/3
f 8/9/4 6/10/4 2/11/4
f 12/12/5 2/13/5 1/14/5
f 4/8/3 6/15/3 8/4/3
f 8/4/3 9/6/3 4/8/3
f 12/1/6 10/3/6 3/16/6
f 5/17/6 9/18/6 10/3/6
f 10/19/7 4/20/7 5/21/7
f 7/22/4 2/11/4 3/23/4
f 1/14/5 11/24/5 12/12/5
f 11/25/7 1/26/7 10/19/7
f 7/27/6 10/3/6 9/18/6
f 6/28/8 1/29/8 2/30/8
f 12/12/5 3/31/5 2/13/5
f 10/19/7 1/26/7 4/20/7
f 7/22/4 8/9/4 2/11/4
f 7/27/6 3/16/6 10/3/6
f 6/28/8 4/32/8 1/29/8
