# Blender v2.77 (sub 0) OBJ File: 'LowPoly_Level_Kit_Rocks.blend'
# www.blender.org
g Rock_Square_m_02
v 0.197614 0.000000 0.197614
v -0.197614 0.000000 0.197614
v 0.197614 0.000000 -0.197614
v -0.197614 0.000000 -0.197614
v -0.197614 0.849487 0.197614
v -0.197614 0.810521 -0.197614
v 0.197614 0.810521 -0.197614
v 0.197614 0.789182 0.197614
v 0.102131 0.849487 0.197614
v 0.197614 0.835279 0.053505
vt 0.2069 0.8339
vt 0.2131 0.8344
vt 0.2131 0.8458
vt 0.1620 0.7702
vt 0.1682 0.7653
vt 0.1620 0.8350
vt 0.1969 0.8339
vt 0.2131 0.7653
vt 0.2131 0.8318
vt 0.1876 0.8350
vt 0.1876 0.7653
vt 0.1365 0.8675
vt 0.1365 0.8350
vt 0.1365 0.8350
vt 0.1620 0.7685
vt 0.1620 0.8350
vt 0.2131 0.8665
vt 0.1876 0.8665
vt 0.1876 0.8339
vt 0.1876 0.8301
vt 0.1876 0.7653
vt 0.2131 0.7653
vt 0.2386 0.8318
vt 0.2131 0.8318
vt 0.1620 0.8675
vt 0.1365 0.7653
vt 0.2386 0.7653
vn 0.5155 0.8162 0.2611
vn 0.0000 0.0000 1.0000
vn 1.0000 0.0000 -0.0000
vn 0.0000 -1.0000 0.0000
vn -1.0000 0.0000 0.0000
vn -0.0000 0.9952 -0.0981
vn -0.0000 0.0000 -1.0000
s off
f 9/1/1 8/2/1 10/3/1
f 8/4/2 9/5/2 1/6/2
f 10/7/3 3/8/3 7/9/3
f 2/10/2 9/5/2 5/11/2
f 1/6/4 4/12/4 3/13/4
f 2/14/5 6/15/5 4/16/5
f 7/17/6 6/18/6 10/3/6
f 9/1/6 6/18/6 5/19/6
f 10/7/3 8/20/3 1/21/3
f 6/22/7 3/23/7 4/24/7
f 10/7/3 1/21/3 3/8/3
f 2/10/2 1/6/2 9/5/2
f 1/6/4 2/25/4 4/12/4
f 2/14/5 5/26/5 6/15/5
f 9/1/6 10/3/6 6/18/6
f 6/22/7 7/27/7 3/23/7
