# Blender v2.77 (sub 0) OBJ File: 'LowPoly_Level_Kit_Rocks.blend'
# www.blender.org
g Rock_Square_m_04
v -0.217376 0.000000 0.194003
v -0.217376 0.000000 -0.194003
v 0.217376 0.000000 -0.194003
v -0.217376 0.858679 -0.194003
v -0.217376 0.862428 0.194003
v 0.217376 0.945023 0.194003
v 0.170642 0.970711 0.194003
v 0.217376 0.981902 0.002480
v 0.217376 0.869989 -0.194003
v 0.217376 0.980723 -0.119556
v 0.042779 0.931280 -0.194003
v 0.217376 0.730497 0.194003
v 0.217376 0.000000 0.106397
v 0.161471 0.000000 0.194003
vt 0.4120 0.7665
vt 0.4120 0.7748
vt 0.4007 0.7702
vt 0.4406 0.8214
vt 0.4402 0.7665
vt 0.4462 0.7665
vt 0.4371 0.8697
vt 0.4371 0.8726
vt 0.4247 0.8733
vt 0.4365 0.7665
vt 0.4120 0.8312
vt 0.4120 0.7665
vt 0.4371 0.8395
vt 0.4168 0.8733
vt 0.4120 0.8597
vt 0.4529 0.8402
vt 0.4655 0.7665
vt 0.4607 0.8401
vt 0.4120 0.8401
vt 0.4090 0.8443
vt 0.4090 0.8728
vt 0.4033 0.8401
vt 0.3839 0.7757
vt 0.4402 0.8374
vt 0.4371 0.8394
vt 0.4402 0.8213
vt 0.3839 0.8728
vt 0.3839 0.8401
vt 0.4655 0.8318
vt 0.4406 0.8375
vt 0.4906 0.7665
vt 0.4655 0.8310
vt 0.4655 0.7665
vt 0.3839 0.8401
vt 0.4120 0.8394
vt 0.4906 0.8312
vn 0.1922 0.5475 -0.8144
vn 0.8412 -0.0644 0.5368
vn 0.4750 0.8641 0.1664
vn 0.0000 0.0000 1.0000
vn -0.2688 0.9632 -0.0093
vn 1.0000 0.0000 -0.0000
vn 0.0000 0.0000 -1.0000
vn 0.0000 -1.0000 0.0000
vn -1.0000 0.0000 0.0000
s off
f 10/1/1 9/2/1 11/3/1
f 12/4/2 14/5/2 13/6/2
f 7/7/3 6/8/3 8/9/3
f 14/10/4 5/11/4 1/12/4
f 7/7/5 8/9/5 5/13/5
f 10/14/5 11/15/5 8/9/5
f 8/16/6 3/17/6 10/18/6
f 11/3/7 9/2/7 3/19/7
f 14/20/8 1/21/8 13/22/8
f 3/19/7 4/23/7 11/3/7
f 6/24/4 7/25/4 12/26/4
f 13/22/8 2/27/8 3/28/8
f 14/10/4 12/26/4 7/25/4
f 9/29/6 10/18/6 3/17/6
f 8/16/6 6/30/6 12/4/6
f 12/4/6 13/6/6 8/16/6
f 11/15/5 5/13/5 8/9/5
f 1/31/9 4/32/9 2/33/9
f 14/10/4 7/25/4 5/11/4
f 8/16/6 13/6/6 3/17/6
f 3/19/7 2/34/7 4/23/7
f 13/22/8 1/21/8 2/27/8
f 11/15/5 4/35/5 5/13/5
f 1/31/9 5/36/9 4/32/9
