# Blender v2.77 (sub 0) OBJ File: 'LowPoly_Level_Kit_Rocks.blend'
# www.blender.org
g Rock_Square_crk_s_01
v 0.201130 -0.000000 0.174517
v 0.201130 -0.000000 -0.187330
v 0.059775 -0.000000 0.187330
v 0.000000 -0.000000 -0.187330
v 0.087971 -0.000000 0.062443
v 0.038346 -0.000000 -0.062443
v -0.236093 -0.000000 0.200143
v -0.236093 -0.000000 -0.187330
v 0.024812 -0.000000 0.187330
v -0.034963 -0.000000 -0.187330
v 0.053008 -0.000000 0.062443
v 0.003383 -0.000000 -0.062443
v -0.236093 0.152386 0.200143
v 0.201130 0.124379 -0.187330
v 0.201130 0.294880 0.174517
v 0.059775 0.277202 0.187330
v 0.000000 0.269727 -0.187330
v 0.038346 0.274523 -0.062443
v 0.087971 0.280729 0.062443
v -0.236093 0.240203 -0.187330
v 0.024812 0.272830 0.187330
v -0.034963 0.265355 -0.187330
v 0.053008 0.276356 0.062443
v 0.003383 0.270150 -0.062443
v -0.236093 0.240203 0.003372
v -0.101101 0.257084 0.193513
v 0.201130 0.294880 -0.147040
v 0.139683 0.287195 -0.187330
v -0.131696 0.253258 0.150418
v 0.172815 0.291339 -0.165606
vt 0.0734 0.8010
vt 0.0923 0.7871
vt 0.0967 0.8010
vt 0.0185 0.7652
vt 0.0220 0.7604
vt 0.0367 0.7611
vt 0.0654 0.8576
vt 0.0744 0.8425
vt 0.0876 0.8716
vt 0.0895 0.8689
vt 0.0895 0.8466
vt 0.1128 0.8586
vt 0.0734 0.7608
vt 0.0898 0.7593
vt 0.0865 0.7732
vt 0.0895 0.8024
vt 0.0895 0.8425
vt 0.0788 0.8425
vt 0.0341 0.7889
vt 0.0063 0.7816
vt 0.0399 0.8669
vt 0.0606 0.8446
vt 0.0628 0.8669
vt 0.0457 0.7886
vt 0.0734 0.8024
vt 0.0501 0.8024
vt 0.0432 0.7608
vt 0.0734 0.7593
vt 0.0399 0.7747
vt 0.0967 0.7805
vt 0.1174 0.8023
vt 0.1043 0.8023
vt 0.1092 0.8167
vt 0.0895 0.8089
vt 0.0926 0.8066
vt 0.0399 0.7750
vt 0.0927 0.8445
vt 0.1047 0.8310
vt 0.0296 0.8027
vt 0.0062 0.8027
vt 0.0962 0.8038
vt 0.0876 0.8425
vt 0.1128 0.8689
vt 0.0052 0.7593
vt 0.1128 0.8445
vt 0.1095 0.8448
vt 0.1057 0.8452
vt 0.0641 0.8716
vt 0.0641 0.8024
vt 0.0641 0.8381
vt 0.1123 0.8024
vt 0.0409 0.8024
vt 0.0641 0.8167
vt 0.0404 0.8167
vt 0.1092 0.8445
vt 0.0641 0.8310
vt 0.0399 0.8310
vt 0.0284 0.8170
vt 0.0052 0.8313
vt 0.0052 0.8170
vt 0.0402 0.8446
vt 0.0967 0.7593
vt 0.1174 0.7593
vt 0.0052 0.8692
vt 0.0216 0.8463
vt 0.0216 0.8692
vt 0.0280 0.8027
vt 0.0052 0.8027
vt 0.0287 0.8448
vt 0.0290 0.8313
vt 0.0399 0.8446
vt 0.0641 0.8024
vt 0.0641 0.8446
vt 0.0052 0.8448
vt 0.0052 0.8448
vn 0.0000 -1.0000 0.0000
vn -0.1241 0.9923 0.0000
vn 0.0490 0.0000 0.9988
vn -0.0000 0.0000 -1.0000
vn 1.0000 0.0000 0.0000
vn -1.0000 -0.0000 -0.0000
vn -0.5669 0.7522 0.3357
vn 0.5204 0.1964 -0.8311
vn -0.9560 0.0000 0.2935
vn -0.9293 0.0000 0.3693
vn 0.9293 0.0000 -0.3693
vn -0.9754 0.0000 -0.2202
vn 0.0903 0.0000 0.9959
vn 0.9560 0.0000 -0.2935
vn 0.9754 0.0000 0.2202
s off
f 2/1/1 6/2/1 4/3/1
f 29/4/2 26/5/2 21/6/2
f 26/7/3 13/8/3 9/9/3
f 4/10/4 17/11/4 14/12/4
f 1/13/1 3/14/1 5/15/1
f 5/15/1 2/1/1 1/13/1
f 1/16/5 2/17/5 14/18/5
f 29/4/2 24/19/2 25/20/2
f 10/21/4 20/22/4 22/23/4
f 12/24/1 8/25/1 10/26/1
f 9/27/1 7/28/1 11/29/1
f 7/28/1 12/24/1 11/29/1
f 25/30/6 7/31/6 13/32/6
f 18/33/2 27/34/2 30/35/2
f 21/6/2 23/36/2 29/4/2
f 15/37/2 27/34/2 19/38/2
f 25/20/2 22/39/2 20/40/2
f 30/35/2 28/41/2 18/33/2
f 13/8/3 7/42/3 9/9/3
f 14/12/4 2/43/4 4/10/4
f 27/34/2 18/33/2 19/38/2
f 25/20/7 13/44/7 29/4/7
f 27/45/8 14/12/8 30/46/8
f 14/12/8 28/47/8 30/46/8
f 9/9/3 21/48/3 26/7/3
f 13/44/7 26/5/7 29/4/7
f 7/28/1 8/25/1 12/24/1
f 5/15/1 6/2/1 2/1/1
f 15/49/5 14/18/5 27/50/5
f 17/51/2 18/33/2 28/41/2
f 17/52/9 6/53/9 18/54/9
f 19/38/2 16/55/2 15/37/2
f 28/47/4 14/12/4 17/11/4
f 18/54/10 5/56/10 19/57/10
f 24/58/11 11/59/11 12/60/11
f 5/56/12 16/61/12 19/57/12
f 20/62/6 8/63/6 25/30/6
f 1/64/13 16/65/13 3/66/13
f 22/67/14 12/60/14 10/68/14
f 21/69/15 11/59/15 23/70/15
f 29/4/2 23/36/2 24/19/2
f 10/21/4 8/71/4 20/22/4
f 25/30/6 8/63/6 7/31/6
f 25/20/2 24/19/2 22/39/2
f 15/49/5 1/16/5 14/18/5
f 17/52/9 4/72/9 6/53/9
f 18/54/10 6/53/10 5/56/10
f 24/58/11 23/70/11 11/59/11
f 5/56/12 3/73/12 16/61/12
f 1/64/13 15/74/13 16/65/13
f 22/67/14 24/58/14 12/60/14
f 21/69/15 9/75/15 11/59/15
