# Blender v2.77 (sub 0) OBJ File: 'LowPoly_Level_Kit_Rocks.blend'
# www.blender.org
g Rock_Square_s_03
v 0.201130 -0.000000 0.174517
v 0.201130 0.251544 0.174517
v 0.201130 -0.000000 -0.187330
v 0.201130 0.251544 -0.187330
v -0.201130 0.188456 0.200143
v -0.201130 -0.000000 0.200143
v -0.201130 0.188456 -0.187330
v -0.201130 -0.000000 -0.187330
vt 0.0142 0.8661
vt 0.0352 0.8128
vt 0.0352 0.8661
vt 0.1062 0.8601
vt 0.0782 0.8122
vt 0.1062 0.8122
vt 0.0503 0.8128
vt 0.0100 0.7590
vt 0.0503 0.7590
vt 0.1143 0.8102
vt 0.0934 0.7590
vt 0.1143 0.7590
vt 0.0573 0.8122
vt 0.0782 0.8655
vt 0.0503 0.8655
vt 0.0531 0.8122
vt 0.0934 0.7590
vt 0.0934 0.8122
vt 0.0072 0.8128
vt 0.0782 0.8601
vt 0.0072 0.8128
vt 0.0934 0.8102
vt 0.0782 0.8122
vt 0.0503 0.7590
vn 0.0000 0.0000 -1.0000
vn 1.0000 -0.0000 0.0000
vn -0.1549 0.9879 -0.0000
vn -1.0000 -0.0000 -0.0000
vn 0.0636 -0.0000 0.9980
vn 0.0000 -1.0000 0.0000
s off
f 7/1/1 3/2/1 8/3/1
f 2/4/2 3/5/2 4/6/2
f 7/7/3 2/8/3 4/9/3
f 6/10/4 7/11/4 8/12/4
f 5/13/5 1/14/5 2/15/5
f 1/16/6 8/17/6 3/18/6
f 7/1/1 4/19/1 3/2/1
f 2/4/2 1/20/2 3/5/2
f 7/7/3 5/21/3 2/8/3
f 6/10/4 5/22/4 7/11/4
f 5/13/5 6/23/5 1/14/5
f 1/16/6 6/24/6 8/17/6
