# Blender v2.77 (sub 0) OBJ File: 'LowPoly_Level_Kit_Rocks.blend'
# www.blender.org
g Rock_Wall_04
v -1.128577 -0.000000 -0.802749
v -1.366640 0.000000 1.183032
v -3.114358 -0.000000 -1.040811
v -3.352421 0.000000 0.944970
v -3.352421 1.538555 0.944970
v -3.114358 1.431724 -1.040811
v -1.366640 1.671691 1.183032
v -2.969535 1.933251 0.990872
v -2.685789 2.100000 0.305771
v -1.874352 2.100000 -0.043879
v -1.253147 1.937674 0.236345
v -2.663487 1.896503 -0.986759
v -2.495173 2.100000 -0.795072
v -1.128577 1.259923 -0.802749
v -2.045299 2.100000 -0.624054
v -1.171199 1.852280 -0.447222
v -0.040383 0.000000 1.637325
v -0.040383 2.200000 1.637325
v -0.040383 0.000000 -1.612913
v -0.040383 2.200000 -1.612913
v -2.015264 2.200000 0.582569
v -1.275493 2.200000 1.637325
v -2.540066 0.000000 0.184681
v -1.962210 0.000000 1.637325
v -2.205662 1.401840 1.234146
v -2.036946 1.261217 1.637325
v -2.015264 2.200000 -0.722060
v -0.909146 2.200000 -1.612913
v -2.136680 0.000000 -1.612913
v -2.540066 0.000000 -1.288031
v 1.082722 0.000000 0.871402
v 0.589333 0.000000 -1.066784
v 3.020909 0.000000 0.378013
v 2.527519 0.000000 -1.560174
v 2.527519 2.197936 -1.560174
v 3.020909 2.045320 0.378013
v 0.589333 2.388130 -1.066784
v 2.153811 2.761786 -1.465041
v 2.135958 3.000000 -0.723721
v 1.504994 3.000000 -0.105199
v 0.824547 2.768106 -0.142787
v 2.580844 2.709289 0.490037
v 2.354769 3.000000 0.371866
v 1.082722 1.799890 0.871402
v 1.873493 3.000000 0.374420
v 0.994387 2.646115 0.524397
v 1.382011 0.000000 1.165873
v 1.382011 1.000000 1.165873
v 1.382011 0.000000 -0.834127
v 1.382011 1.000000 -0.834127
v 3.382011 0.000000 1.165873
v 3.382011 1.000000 1.165873
v 3.382011 0.000000 -0.834127
v 3.382011 1.000000 -0.834127
v -1.474617 0.000000 1.313187
v -1.992255 0.000000 -0.618665
v 1.036791 0.000000 0.640257
v 0.519152 0.000000 -1.291595
v 1.036791 2.235127 0.640257
v 0.786534 3.467695 -0.293714
v 0.224547 3.711241 0.642572
v 0.164102 3.628580 0.874093
v 0.519152 2.377677 -1.291595
v 0.611537 3.337283 -0.946812
v -0.677230 3.491969 -0.649246
v -1.992255 1.391238 -0.618665
v -0.986146 3.689532 0.157122
v -0.857229 3.541119 -0.481524
v -0.861932 3.440922 -0.634214
v -1.175575 2.747597 -0.837494
v -1.474617 2.420954 1.313187
v -1.104925 3.335062 1.214128
v -1.367731 3.411960 0.852892
v -1.603482 2.970128 0.832256
vt 0.9762 0.9560
vt 0.9768 0.9606
vt 0.9666 0.9592
vt 0.9537 0.9579
vt 0.9665 0.9492
vt 0.9662 0.9587
vt 0.9646 0.9278
vt 0.9774 0.9154
vt 0.9774 0.9278
vt 0.9689 0.8923
vt 0.9787 0.8924
vt 0.9787 0.9045
vt 0.9393 0.9590
vt 0.9518 0.9511
vt 0.9518 0.9599
vt 0.9738 0.9494
vt 0.9768 0.9491
vt 0.9664 0.9413
vt 0.9788 0.9355
vt 0.9708 0.9477
vt 0.9718 0.9526
vt 0.9681 0.9491
vt 0.9452 0.9643
vt 0.9397 0.9628
vt 0.9624 0.9625
vt 0.9541 0.9611
vt 0.4590 0.9106
vt 0.4502 0.9079
vt 0.4594 0.9013
vt 0.4594 0.9455
vt 0.4455 0.9511
vt 0.4451 0.9382
vt 0.4310 0.9154
vt 0.4451 0.9355
vt 0.4310 0.9355
vt 0.4446 0.9108
vt 0.4450 0.9039
vt 0.4595 0.9434
vt 0.4600 0.9356
vt 0.4723 0.9355
vt 0.4595 0.9381
vt 0.4452 0.9355
vt 0.4170 0.9140
vt 0.4305 0.9140
vt 0.4144 0.9251
vt 0.4451 0.9154
vt 0.4578 0.9290
vt 0.4451 0.9355
vt 0.4450 0.8959
vt 0.2217 0.9694
vt 0.2230 0.9737
vt 0.2126 0.9737
vt 0.1673 0.9400
vt 0.1547 0.9526
vt 0.1547 0.9390
vt 0.1713 0.9665
vt 0.1841 0.9541
vt 0.1841 0.9665
vt 0.2107 0.9189
vt 0.2107 0.9325
vt 0.1980 0.9324
vt 0.1839 0.9430
vt 0.1714 0.9541
vt 0.1713 0.9415
vt 0.2184 0.9632
vt 0.2213 0.9625
vt 0.1510 0.9407
vt 0.1510 0.9554
vt 0.1383 0.9441
vt 0.2168 0.9666
vt 0.2126 0.9636
vt 0.1785 0.9355
vt 0.1842 0.9376
vt 0.1598 0.9341
vt 0.1678 0.9359
vt 0.4374 0.9665
vt 0.4438 0.9788
vt 0.4374 0.9788
vt 0.4310 0.9665
vt 0.4374 0.9788
vt 0.4310 0.9788
vt 0.4579 0.9766
vt 0.4515 0.9643
vt 0.4579 0.9643
vt 0.4451 0.9643
vt 0.4515 0.9766
vt 0.4451 0.9766
vt 0.3981 0.9554
vt 0.4109 0.9678
vt 0.3981 0.9678
vt 0.4723 0.9748
vt 0.4595 0.9625
vt 0.4723 0.9625
vt 0.0599 0.9139
vt 0.0435 0.9140
vt 0.0434 0.9054
vt 0.0883 0.9083
vt 0.1011 0.8923
vt 0.1011 0.9083
vt 0.0544 0.9618
vt 0.0530 0.9625
vt 0.0480 0.9561
vt 0.0396 0.9239
vt 0.0277 0.9382
vt 0.0270 0.9236
vt 0.0388 0.9148
vt 0.0332 0.9165
vt 0.0515 0.8923
vt 0.0597 0.8992
vt 0.0485 0.8970
vt 0.0443 0.9579
vt 0.0436 0.9592
vt 0.0434 0.9581
vt 0.0669 0.8923
vt 0.0735 0.8980
vt 0.0630 0.8971
vt 0.0482 0.9674
vt 0.0726 0.9069
vt 0.0728 0.9154
vt 0.0602 0.9154
vt 0.0603 0.8947
vt 0.0627 0.8943
vt 0.0434 0.8998
vt 0.0434 0.9148
vt 0.0270 0.9008
vt 0.9675 0.9533
vt 0.9539 0.9491
vt 0.9646 0.9154
vt 0.9680 0.9044
vt 0.9663 0.8946
vt 0.9489 0.9628
vt 0.9393 0.9513
vt 0.9670 0.9455
vt 0.9681 0.9355
vt 0.9788 0.9477
vt 0.9480 0.9642
vt 0.9666 0.9613
vt 0.9554 0.9625
vt 0.4510 0.9105
vt 0.4595 0.9508
vt 0.4451 0.9154
vt 0.4723 0.9491
vt 0.4644 0.9491
vt 0.4182 0.9341
vt 0.4305 0.9341
vt 0.4144 0.9160
vt 0.4530 0.9355
vt 0.4507 0.9154
vt 0.4578 0.9209
vt 0.4594 0.8923
vt 0.2126 0.9679
vt 0.1673 0.9526
vt 0.1713 0.9541
vt 0.1980 0.9176
vt 0.2082 0.9154
vt 0.1741 0.9374
vt 0.1840 0.9541
vt 0.1406 0.9389
vt 0.1449 0.9382
vt 0.1383 0.9552
vt 0.1754 0.9355
vt 0.1551 0.9356
vt 0.1669 0.9341
vt 0.4438 0.9665
vt 0.4374 0.9665
vt 0.4515 0.9643
vt 0.4109 0.9554
vt 0.4595 0.9748
vt 0.0883 0.8923
vt 0.0517 0.9526
vt 0.0544 0.9536
vt 0.0290 0.9175
vt 0.0403 0.9377
vt 0.0403 0.9152
vt 0.0503 0.8926
vt 0.0599 0.8931
vt 0.0710 0.8930
vt 0.0720 0.8936
vt 0.0439 0.9673
vt 0.0599 0.9005
vt 0.0327 0.8923
vt 0.0410 0.8942
vt 0.0270 0.9146
vn 0.1215 0.9517 0.2820
vn -0.9929 0.0000 -0.1190
vn -0.0000 -1.0000 0.0000
vn -0.1190 0.0000 0.9929
vn 0.1190 0.0000 -0.9929
vn 0.0000 1.0000 0.0000
vn 0.9929 0.0000 0.1190
vn 0.2875 0.9540 -0.0847
vn 0.3065 0.5060 -0.8063
vn -0.7053 0.6984 -0.1221
vn -0.9278 -0.0550 0.3691
vn 0.0000 0.0000 -1.0000
vn 1.0000 0.0000 0.0000
vn -0.6820 0.5532 0.4783
vn 0.0000 0.0000 1.0000
vn -0.5920 0.3303 -0.7351
vn -0.9727 0.2320 0.0000
vn -0.2930 0.9082 -0.2989
vn 0.9691 0.0000 -0.2467
vn -0.2467 0.0000 -0.9691
vn 0.2467 0.0000 0.9691
vn -0.9691 0.0000 0.2467
vn -0.3247 0.9123 0.2495
vn 0.0049 0.3798 0.9250
vn 0.8098 0.5640 -0.1617
vn -1.0000 0.0000 0.0000
vn -0.2588 0.0000 -0.9659
vn -0.1376 0.9436 0.3010
vn 0.9659 0.0000 -0.2588
vn 0.8135 0.4470 0.3720
vn -0.1711 0.3477 -0.9219
vn -0.2663 0.8096 -0.5231
vn -0.8422 0.4623 -0.2774
vn 0.0679 0.9747 -0.2128
vn -0.9659 0.0000 0.2588
vn -0.7183 0.3553 0.5982
vn 0.2588 0.0000 0.9659
s off
f 9/1/1 8/2/1 7/3/1
f 6/4/2 4/5/2 5/6/2
f 2/7/3 3/8/3 1/9/3
f 5/10/4 4/11/4 2/12/4
f 14/13/5 3/14/5 6/15/5
f 9/1/6 15/16/6 13/17/6
f 11/18/7 2/19/7 14/20/7
f 10/21/8 16/22/8 15/16/8
f 15/23/9 16/24/9 14/13/9
f 9/25/10 12/26/10 6/4/10
f 24/27/11 25/28/11 23/29/11
f 28/30/12 19/31/12 29/32/12
f 18/33/13 19/34/13 20/35/13
f 25/28/14 22/36/14 21/37/14
f 26/38/15 24/39/15 17/40/15
f 27/41/16 29/32/16 30/42/16
f 29/43/3 19/44/3 23/45/3
f 20/46/6 21/47/6 18/48/6
f 27/49/17 23/29/17 21/37/17
f 39/50/18 38/51/18 37/52/18
f 36/53/19 34/54/19 35/55/19
f 32/56/3 33/57/3 31/58/3
f 35/59/20 34/60/20 32/61/20
f 44/62/21 33/63/21 36/64/21
f 39/50/6 45/65/6 43/66/6
f 37/67/22 32/68/22 44/69/22
f 40/70/23 46/71/23 45/65/23
f 45/72/24 46/73/24 44/62/24
f 39/74/25 42/75/25 36/53/25
f 50/76/26 47/77/26 48/78/26
f 54/79/12 49/80/12 50/81/12
f 52/82/13 53/83/13 54/84/13
f 48/85/15 51/86/15 52/87/15
f 49/88/3 51/89/3 47/90/3
f 54/91/6 48/92/6 52/93/6
f 58/94/27 56/95/27 66/96/27
f 56/97/3 57/98/3 55/99/3
f 62/100/28 61/101/28 67/102/28
f 59/103/29 58/104/29 63/105/29
f 61/106/30 59/103/30 60/107/30
f 65/108/31 63/109/31 70/110/31
f 68/111/32 65/112/32 69/113/32
f 67/114/33 70/115/33 74/116/33
f 60/117/34 65/112/34 61/101/34
f 66/118/35 56/119/35 55/120/35
f 74/116/36 72/121/36 73/122/36
f 71/123/37 55/124/37 59/125/37
f 7/3/1 11/126/1 10/21/1
f 10/21/1 9/1/1 7/3/1
f 6/4/2 3/127/2 4/5/2
f 2/7/3 4/128/3 3/8/3
f 2/12/4 7/129/4 5/10/4
f 8/130/4 5/10/4 7/129/4
f 6/15/5 12/131/5 14/13/5
f 14/13/5 1/132/5 3/14/5
f 9/1/6 10/21/6 15/16/6
f 14/20/7 16/133/7 11/18/7
f 11/18/7 7/134/7 2/19/7
f 2/19/7 1/135/7 14/20/7
f 10/21/8 11/126/8 16/22/8
f 14/13/9 12/131/9 15/23/9
f 13/136/9 15/23/9 12/131/9
f 6/4/10 5/6/10 9/25/10
f 8/137/10 9/25/10 5/6/10
f 13/138/10 12/26/10 9/25/10
f 24/27/11 26/139/11 25/28/11
f 28/30/12 20/140/12 19/31/12
f 18/33/13 17/141/13 19/34/13
f 25/28/14 26/139/14 22/36/14
f 17/40/15 18/142/15 22/143/15
f 22/143/15 26/38/15 17/40/15
f 27/41/16 28/30/16 29/32/16
f 24/144/3 23/45/3 17/145/3
f 30/146/3 29/43/3 23/45/3
f 19/44/3 17/145/3 23/45/3
f 22/147/6 18/48/6 21/47/6
f 20/46/6 28/148/6 21/47/6
f 27/149/6 21/47/6 28/148/6
f 25/28/17 21/37/17 23/29/17
f 27/49/17 30/150/17 23/29/17
f 37/52/18 41/151/18 40/70/18
f 40/70/18 39/50/18 37/52/18
f 36/53/19 33/152/19 34/54/19
f 32/56/3 34/153/3 33/57/3
f 32/61/20 37/154/20 35/59/20
f 38/155/20 35/59/20 37/154/20
f 36/64/21 42/156/21 44/62/21
f 44/62/21 31/157/21 33/63/21
f 39/50/6 40/70/6 45/65/6
f 44/69/22 46/158/22 41/159/22
f 41/159/22 37/67/22 44/69/22
f 32/68/22 31/160/22 44/69/22
f 40/70/23 41/151/23 46/71/23
f 44/62/24 42/156/24 45/72/24
f 43/161/24 45/72/24 42/156/24
f 36/53/25 35/55/25 39/74/25
f 38/162/25 39/74/25 35/55/25
f 43/163/25 42/75/25 39/74/25
f 50/76/26 49/164/26 47/77/26
f 54/79/12 53/165/12 49/80/12
f 52/82/13 51/86/13 53/83/13
f 48/85/15 47/166/15 51/86/15
f 49/88/3 53/167/3 51/89/3
f 54/91/6 50/168/6 48/92/6
f 66/96/27 70/110/27 63/109/27
f 63/109/27 58/94/27 66/96/27
f 56/97/3 58/169/3 57/98/3
f 67/102/28 73/170/28 72/171/28
f 72/171/28 62/100/28 67/102/28
f 63/105/29 64/172/29 60/107/29
f 60/107/29 59/103/29 63/105/29
f 57/173/29 58/104/29 59/103/29
f 61/106/30 62/174/30 59/103/30
f 70/110/31 69/175/31 65/108/31
f 65/108/31 64/176/31 63/109/31
f 74/116/33 73/122/33 67/114/33
f 67/114/33 68/177/33 70/115/33
f 69/178/33 70/115/33 68/177/33
f 66/118/33 74/116/33 70/115/33
f 67/102/34 61/101/34 65/112/34
f 60/117/34 64/179/34 65/112/34
f 65/112/34 68/111/34 67/102/34
f 55/120/35 71/180/35 66/118/35
f 74/116/35 66/118/35 71/180/35
f 74/116/36 71/180/36 72/121/36
f 59/125/37 62/181/37 71/123/37
f 72/182/37 71/123/37 62/181/37
f 55/124/37 57/183/37 59/125/37
