# Blender v2.77 (sub 0) OBJ File: 'LowPoly_Level_Kit_Rocks.blend'
# www.blender.org
g Rock_Wall_06
v -0.938988 0.001474 0.397984
v -0.938988 0.601474 0.397984
v -3.464999 0.001474 -1.298290
v -3.464999 0.601474 -1.298290
v -3.464999 0.001474 0.397984
v -3.464999 0.601474 0.397984
v -3.464999 0.601474 -0.411146
v -3.055655 0.601474 -0.980631
v -3.464999 2.700243 0.397984
v -3.464999 2.700243 -0.411146
v -3.055655 2.700243 -0.980631
v -2.303282 2.700243 1.129830
v -2.127081 0.601474 1.129830
v -2.076753 0.001474 1.129830
v -1.379550 0.601474 -1.277118
v -1.399143 0.001474 -1.351615
v -1.888678 0.601474 -1.537675
v -1.791531 0.001474 -1.552428
v -1.776570 0.601474 -1.480302
v -2.026469 2.700243 -1.382679
v -1.427078 2.700243 0.241639
v -0.938988 2.129631 0.397984
v -1.348532 2.700243 0.617675
v -1.735234 2.700243 -1.233634
v -1.326385 2.229517 -1.074977
v -1.431154 0.000000 0.194332
v -1.431154 3.316700 0.194332
v -1.431154 0.000000 -1.275809
v -1.431154 3.316700 -1.275809
v -0.631155 0.000000 0.194332
v -0.631155 3.316700 0.194332
v -0.631155 0.000000 -1.275809
v -0.631155 3.316700 -1.275809
v -1.118958 0.000000 0.838832
v -0.821521 2.000000 0.591733
v -0.934861 0.000000 -1.152677
v -0.687762 2.000000 -0.855240
v 0.625452 2.000000 0.725492
v 1.056648 0.000000 -0.968580
v 0.759211 2.000000 -0.721481
v -1.118958 2.000000 0.838832
v -0.934861 2.000000 -1.152677
v 1.056648 2.000000 -0.968580
v 0.625452 3.401690 0.725492
v -0.821521 3.860183 0.591733
v 0.051134 4.009374 0.672401
v 0.088788 4.241133 0.226750
v 0.759211 3.778520 -0.721481
v 0.743682 4.056634 -0.553498
v 0.512625 4.241133 -0.475667
v -0.687762 3.660357 -0.855240
v -0.571251 4.241133 -0.059192
v -0.775034 4.122574 0.088849
v -0.463420 3.897889 -0.834502
v -0.261540 4.241133 -0.593528
v 0.904424 0.000000 0.678133
v 0.489706 0.000000 0.987538
v 0.913660 2.000000 0.578222
v 0.889447 1.790899 0.840151
v 0.669603 1.790899 1.004168
v 0.378770 2.000000 0.977283
v 0.785865 1.790899 0.917430
v 0.660200 2.000000 0.767319
v 1.968876 0.000000 1.954408
v 1.968876 0.000000 0.200056
v 3.312876 0.000000 1.954408
v 3.312876 0.000000 0.200056
v 1.968876 2.653360 0.200056
v 3.312876 1.464944 1.797492
v 2.696082 2.653360 0.200056
v 3.312876 2.288671 0.200056
v 3.312876 2.564337 1.024310
v 3.182589 2.653360 1.060158
v 1.968876 2.275505 1.710670
v 1.968876 2.653360 1.198824
v 2.592482 2.378100 1.699681
v 2.779057 2.653360 1.365102
v 0.907897 0.000000 -1.104874
v 2.627962 0.000000 -1.104874
v 0.907897 0.000000 0.975126
v 2.627962 0.000000 0.975126
v 2.627962 3.455416 -1.104874
v 2.627962 3.149205 0.975126
v 2.528913 4.132510 -0.226197
v 2.627962 3.999161 -0.285507
v 2.261176 3.791089 0.975126
v 2.240836 3.913884 0.845793
v 0.907897 3.330755 0.975126
v 1.516819 3.940553 0.715026
v 1.426396 3.675401 0.975126
v 0.907897 3.756191 -1.104874
v 2.291192 4.185539 -0.486214
v 1.985652 4.064919 -1.104874
v 1.365898 3.975562 0.543368
v 0.907897 3.833357 0.337585
v 0.031406 0.000000 1.250915
v 0.031406 0.600000 1.250915
v 0.475741 0.000000 -0.699102
v 0.475741 0.600000 -0.699102
v 1.981423 0.000000 1.695250
v 1.981423 0.600000 1.695250
v 2.425758 0.000000 -0.254768
v 2.425758 0.600000 -0.254768
v -2.727172 2.677911 0.349937
v -2.727172 3.477911 0.349937
v -2.727172 2.677911 -0.450063
v -2.727172 3.477911 -0.450063
v -1.927172 2.677911 0.349937
v -1.927172 3.477911 0.349937
v -1.927172 2.677911 -0.450063
v -1.927172 3.477911 -0.450063
v -2.362110 2.696420 0.021040
v -2.362110 4.124420 0.021040
v -2.362110 2.696420 -0.818960
v -2.362110 4.124420 -0.818960
v -1.018110 2.696420 0.021040
v -1.018110 4.124420 0.021040
v -1.018110 2.696420 -0.818960
v -1.018110 4.124420 -0.818960
v -1.690110 4.124420 -0.986960
v -1.690110 2.696420 -0.986960
v -1.690110 4.124420 0.189040
v -1.690110 2.696420 0.189040
vt 0.0673 0.9416
vt 0.0733 0.9378
vt 0.0712 0.9430
vt 0.0724 0.9532
vt 0.0733 0.9537
vt 0.0639 0.9210
vt 0.0735 0.9333
vt 0.0625 0.9377
vt 0.0423 0.9541
vt 0.0530 0.9419
vt 0.0530 0.9539
vt 0.2049 0.9449
vt 0.2147 0.9427
vt 0.2164 0.9449
vt 0.2049 0.9565
vt 0.2027 0.9427
vt 0.2186 0.9586
vt 0.2027 0.9586
vt 0.2330 0.9110
vt 0.2284 0.9158
vt 0.2215 0.9147
vt 0.1355 0.9789
vt 0.1337 0.9761
vt 0.1411 0.9779
vt 0.2186 0.9463
vt 0.2164 0.9565
vt 0.1806 0.9589
vt 0.1667 0.9589
vt 0.1686 0.9408
vt 0.2232 0.9375
vt 0.2125 0.9375
vt 0.2125 0.9258
vt 0.1997 0.9279
vt 0.1985 0.9162
vt 0.2124 0.9162
vt 0.2124 0.9169
vt 0.2167 0.9163
vt 0.2182 0.9185
vt 0.2215 0.8905
vt 0.2264 0.8839
vt 0.2225 0.8907
vt 0.2292 0.9456
vt 0.2292 0.9638
vt 0.2186 0.9637
vt 0.1336 0.9742
vt 0.1451 0.9758
vt 0.7714 0.7667
vt 0.7729 0.7682
vt 0.7665 0.7676
vt 0.8276 0.8561
vt 0.8325 0.8532
vt 0.8284 0.8583
vt 0.8196 0.8485
vt 0.8215 0.8465
vt 0.8288 0.8548
vt 0.0534 0.9163
vt 0.0534 0.9211
vt 0.0500 0.9312
vt 0.0534 0.9358
vt 0.0501 0.9360
vt 0.0203 0.9610
vt 0.0203 0.9562
vt 0.0267 0.9562
vt 0.1451 0.9610
vt 0.1336 0.9610
vt 0.7664 0.8001
vt 0.7829 0.7750
vt 0.7830 0.8001
vt 0.2364 0.7271
vt 0.2301 0.7207
vt 0.2364 0.7208
vt 0.0530 0.9388
vt 0.0447 0.9364
vt 0.7664 0.7726
vt 0.0213 0.9226
vt 0.0336 0.9351
vt 0.0219 0.9348
vt 0.0211 0.9178
vt 0.0346 0.9221
vt 0.1985 0.9426
vt 0.1868 0.9162
vt 0.1985 0.9162
vt 0.0643 0.9162
vt 0.0735 0.9211
vt 0.1868 0.9460
vt 0.2010 0.9436
vt 0.2010 0.9446
vt 0.0371 0.9364
vt 0.0491 0.9313
vt 0.0474 0.9146
vt 0.0534 0.9179
vt 0.0534 0.9310
vt 0.0498 0.9144
vt 0.0702 0.9378
vt 0.2167 0.9446
vt 0.2186 0.9441
vt 0.0510 0.9555
vt 0.0382 0.9503
vt 0.2310 0.9532
vt 0.2360 0.9482
vt 0.2370 0.9546
vt 0.0203 0.9394
vt 0.0233 0.9393
vt 0.2056 0.9103
vt 0.1939 0.8839
vt 0.2056 0.8839
vt 0.1783 0.9589
vt 0.1846 0.9854
vt 0.1783 0.9853
vt 0.0314 0.9561
vt 0.0267 0.9395
vt 0.0314 0.9394
vt 0.1961 0.9873
vt 0.2025 0.9756
vt 0.2025 0.9873
vt 0.0404 0.9314
vt 0.0396 0.9147
vt 0.0203 0.9395
vt 0.2215 0.8998
vt 0.2056 0.8839
vt 0.2215 0.8839
vt 0.0338 0.9610
vt 0.0338 0.9562
vt 0.2027 0.9469
vt 0.2027 0.9588
vt 0.1685 0.9618
vt 0.1782 0.9628
vt 0.1667 0.9637
vt 0.0369 0.9440
vt 0.2215 0.8999
vt 0.2330 0.8998
vt 0.2301 0.9706
vt 0.2301 0.9817
vt 0.2186 0.9817
vt 0.2186 0.9676
vt 0.2199 0.9654
vt 0.1399 0.9789
vt 0.2321 0.8919
vt 0.2272 0.8959
vt 0.2257 0.8932
vt 0.2303 0.9426
vt 0.2370 0.9447
vt 0.2292 0.9466
vt 0.8217 0.8582
vt 0.8219 0.8572
vt 0.8131 0.7716
vt 0.7995 0.7989
vt 0.7995 0.7691
vt 0.2010 0.9428
vt 0.1868 0.9426
vt 0.1868 0.9588
vt 0.2048 0.9746
vt 0.2027 0.9729
vt 0.2171 0.9746
vt 0.8268 0.7969
vt 0.8131 0.7718
vt 0.8268 0.7704
vt 0.1783 0.9769
vt 0.1667 0.9769
vt 0.1727 0.9378
vt 0.1806 0.9378
vt 0.2232 0.9193
vt 0.1400 0.7265
vt 0.1463 0.7201
vt 0.1463 0.7265
vt 0.2124 0.9345
vt 0.2058 0.9367
vt 0.2134 0.9162
vt 0.2216 0.8840
vt 0.2186 0.9426
vt 0.2243 0.9427
vt 0.2169 0.9426
vt 0.2178 0.9434
vt 0.2262 0.9638
vt 0.2206 0.9639
vt 0.2713 0.9594
vt 0.2871 0.9754
vt 0.2713 0.9754
vt 0.7830 0.7707
vt 0.7880 0.7667
vt 0.7995 0.7673
vt 0.1765 0.9589
vt 0.1783 0.9605
vt 0.7734 0.7672
vt 0.7820 0.7688
vt 0.7830 0.7698
vt 0.2303 0.9483
vt 0.8080 0.7667
vt 0.1868 0.7222
vt 0.1948 0.7275
vt 0.1881 0.7275
vt 0.7995 0.7972
vt 0.8160 0.7667
vt 0.8226 0.7676
vt 0.2171 0.9586
vt 0.8326 0.8584
vt 0.8240 0.8416
vt 0.1336 0.7265
vt 0.1400 0.7201
vt 0.1400 0.7265
vt 0.2080 0.7272
vt 0.2027 0.7158
vt 0.2080 0.7158
vt 0.2819 0.9910
vt 0.2866 0.9754
vt 0.2866 0.9910
vt 0.2295 0.9426
vt 0.2232 0.9162
vt 0.2295 0.9162
vt 0.2356 0.7022
vt 0.2292 0.6959
vt 0.2356 0.6959
vt 0.2056 0.9158
vt 0.2215 0.8998
vt 0.2215 0.9158
vt 0.3560 0.9677
vt 0.3512 0.9834
vt 0.3512 0.9677
vt 0.1730 0.7245
vt 0.1667 0.7181
vt 0.1730 0.7181
vt 0.2710 0.9649
vt 0.2662 0.9807
vt 0.2662 0.9649
vt 0.2362 0.6802
vt 0.2295 0.6688
vt 0.2362 0.6688
vt 0.1553 0.7128
vt 0.1608 0.7241
vt 0.1553 0.7242
vt 0.2362 0.6688
vt 0.2295 0.6574
vt 0.2362 0.6574
vt 0.1948 0.7168
vt 0.1961 0.7222
vt 0.3533 0.9033
vt 0.3581 0.8878
vt 0.3581 0.9033
vt 0.2134 0.7272
vt 0.2134 0.7158
vt 0.1502 0.7127
vt 0.1502 0.7240
vt 0.2301 0.7271
vt 0.0350 0.9173
vt 0.1868 0.9426
vt 0.0735 0.9163
vt 0.0369 0.9317
vt 0.1939 0.9103
vt 0.1846 0.9590
vt 0.1961 0.9756
vt 0.2056 0.8998
vt 0.2298 0.9657
vt 0.2322 0.8961
vt 0.8131 0.7990
vt 0.2322 0.8839
vt 0.0534 0.9378
vt 0.8131 0.7969
vt 0.1400 0.7201
vt 0.2871 0.9595
vt 0.1703 0.9590
vt 0.7830 0.7972
vt 0.2040 0.9586
vt 0.0350 0.9388
vt 0.1336 0.7201
vt 0.2027 0.7272
vt 0.2819 0.9754
vt 0.2232 0.9426
vt 0.2292 0.7022
vt 0.2056 0.8999
vt 0.3560 0.9834
vt 0.1667 0.7245
vt 0.2710 0.9808
vt 0.2295 0.6802
vt 0.1608 0.7128
vt 0.2295 0.6688
vt 0.1881 0.7168
vt 0.8326 0.8417
vt 0.3533 0.8878
vn 0.0000 1.0000 0.0000
vn 0.4855 0.0408 0.8733
vn -0.0920 0.0000 0.9958
vn -0.6557 0.6524 -0.3800
vn -1.0000 0.0000 -0.0000
vn 0.0000 0.1065 0.9943
vn 1.0000 0.0000 0.0000
vn 0.5258 0.4893 0.6958
vn 0.4891 0.8272 -0.2766
vn -0.0000 0.0000 -1.0000
vn -0.9958 0.0000 -0.0920
vn 0.6202 0.6536 -0.4337
vn -0.4627 0.6962 0.5488
vn -0.0000 0.9798 0.1998
vn -0.4799 0.0000 0.8773
vn 0.4535 0.0952 -0.8862
vn 0.9671 0.0000 -0.2544
vn 0.5240 0.0439 0.8506
vn 0.5966 -0.0674 0.7997
vn -0.1501 0.0000 -0.9887
vn 0.4727 0.0000 0.8812
vn 0.5245 0.0000 0.8514
vn 0.4368 0.6829 0.5855
vn 0.7714 0.6157 -0.1611
vn -0.8120 0.0000 -0.5837
vn -0.3639 0.0000 -0.9315
vn 0.0920 0.0000 -0.9958
vn 0.9958 0.0000 0.0920
vn -0.1210 0.7986 0.5896
vn -0.1907 0.8774 0.4402
vn -0.0989 0.7138 0.6933
vn -0.4795 -0.0403 0.8766
vn 0.0000 0.0000 1.0000
vn 0.6510 0.6496 0.3928
vn 0.1287 0.5180 -0.8457
vn 0.8234 0.4705 0.3172
vn -0.2750 0.9601 -0.0514
vn -0.2425 0.0000 0.9701
vn 0.9750 0.0000 0.2222
vn -0.9750 0.0000 -0.2222
vn 0.2222 0.0000 -0.9750
vn 0.2425 0.0000 -0.9701
vn -0.2222 0.0000 0.9750
vn 0.2425 0.0000 0.9701
vn -0.2425 0.0000 -0.9701
vn -0.4660 -0.0391 0.8839
vn 0.5410 0.0000 0.8410
vn -0.5330 0.0000 0.8461
s off
f 4/1/1 7/2/1 8/3/1
f 17/4/1 8/3/1 19/5/1
f 13/6/2 22/7/2 12/8/2
f 11/9/1 21/10/1 24/11/1
f 35/12/1 61/13/1 38/14/1
f 37/15/1 41/16/1 35/12/1
f 37/15/1 43/17/1 42/18/1
f 44/19/3 46/20/3 45/21/3
f 55/22/4 54/23/4 53/24/4
f 38/14/1 58/25/1 40/26/1
f 65/27/5 64/28/5 74/29/5
f 64/30/6 66/31/6 69/32/6
f 69/33/7 66/34/7 67/35/7
f 72/36/8 77/37/8 76/38/8
f 72/39/9 70/40/9 73/41/9
f 71/42/10 67/43/10 65/44/10
f 53/24/11 51/45/11 45/46/11
f 92/47/12 85/48/12 93/49/12
f 89/50/13 95/51/13 90/52/13
f 84/53/14 92/54/14 94/55/14
f 5/56/15 13/6/15 6/57/15
f 19/58/16 16/59/16 18/60/16
f 5/61/5 6/62/5 7/63/5
f 35/64/11 51/45/11 37/65/11
f 79/66/7 83/67/7 81/68/7
f 107/69/10 110/70/10 106/71/10
f 17/4/1 4/1/1 8/3/1
f 23/72/1 21/10/1 12/73/1
f 85/48/7 83/67/7 82/74/7
f 2/75/17 25/76/17 22/77/17
f 1/78/17 15/79/17 2/75/17
f 33/80/7 30/81/7 32/82/7
f 14/83/18 2/84/18 13/6/18
f 57/85/19 62/86/19 60/87/19
f 3/88/20 17/89/20 18/60/20
f 19/58/16 20/90/16 25/91/16
f 18/60/16 17/89/16 19/58/16
f 25/91/16 15/92/16 19/58/16
f 20/90/16 24/93/16 25/91/16
f 23/94/21 12/8/21 22/7/21
f 13/6/22 2/84/22 22/7/22
f 63/95/23 59/96/23 58/25/23
f 24/11/1 20/97/1 11/9/1
f 11/9/1 10/98/1 21/10/1
f 55/99/1 47/100/1 50/101/1
f 23/102/24 22/77/24 21/103/24
f 27/104/5 28/105/5 26/106/5
f 29/107/10 32/108/10 28/109/10
f 8/110/25 10/111/25 11/112/25
f 31/113/1 29/114/1 27/115/1
f 20/90/26 8/116/26 11/117/26
f 7/63/5 9/118/5 10/111/5
f 41/119/11 36/120/11 34/121/11
f 63/95/1 38/14/1 61/13/1
f 35/12/1 41/16/1 61/13/1
f 37/15/1 42/18/1 41/16/1
f 37/15/1 40/26/1 43/17/1
f 3/122/5 7/63/5 4/123/5
f 61/124/3 41/125/3 60/87/3
f 54/126/27 48/127/27 51/128/27
f 9/129/1 21/10/1 10/98/1
f 45/21/3 35/130/3 44/19/3
f 38/131/3 44/19/3 35/130/3
f 44/132/28 38/133/28 40/134/28
f 40/134/28 48/135/28 44/132/28
f 49/136/28 44/132/28 48/135/28
f 52/137/4 55/22/4 53/24/4
f 75/138/29 76/139/29 77/140/29
f 45/141/30 46/142/30 53/143/30
f 89/50/31 86/144/31 87/145/31
f 82/146/10 78/147/10 91/148/10
f 70/40/1 75/138/1 77/140/1
f 59/149/19 62/86/19 56/150/19
f 12/8/32 6/57/32 13/6/32
f 34/151/3 60/87/3 41/125/3
f 58/152/28 59/153/28 43/154/28
f 80/155/33 83/156/33 88/157/33
f 51/128/27 40/158/27 37/159/27
f 43/17/1 40/26/1 58/25/1
f 38/14/1 63/95/1 58/25/1
f 74/29/5 75/160/5 68/161/5
f 68/161/5 65/27/5 74/29/5
f 69/32/6 76/38/6 74/162/6
f 74/162/6 64/30/6 69/32/6
f 105/163/1 111/164/1 107/165/1
f 67/35/7 71/166/7 69/33/7
f 72/167/7 69/33/7 71/166/7
f 77/37/8 72/36/8 73/168/8
f 69/32/8 72/36/8 76/38/8
f 72/39/9 71/169/9 70/40/9
f 65/44/10 68/170/10 71/42/10
f 70/171/10 71/42/10 68/170/10
f 63/95/23 60/172/23 62/173/23
f 77/140/1 73/41/1 70/40/1
f 47/174/34 49/136/34 50/175/34
f 101/176/1 99/177/1 97/178/1
f 88/179/5 95/180/5 91/181/5
f 54/126/35 50/182/35 49/183/35
f 85/48/36 84/184/36 87/185/36
f 87/185/36 86/186/36 85/48/36
f 53/143/30 47/100/30 52/187/30
f 93/188/10 82/146/10 91/148/10
f 122/189/1 115/190/1 113/191/1
f 82/74/12 93/49/12 85/48/12
f 92/47/12 84/184/12 85/48/12
f 78/192/5 88/179/5 91/181/5
f 83/156/33 86/193/33 90/194/33
f 90/194/33 88/157/33 83/156/33
f 59/153/28 39/195/28 43/154/28
f 88/196/13 90/52/13 95/51/13
f 89/50/13 94/55/13 95/51/13
f 94/55/14 89/50/14 87/145/14
f 87/145/14 84/53/14 94/55/14
f 25/76/24 21/103/24 22/77/24
f 94/55/37 92/54/37 93/197/37
f 109/198/33 104/199/33 108/200/33
f 122/201/38 112/202/38 123/203/38
f 103/204/39 100/205/39 102/206/39
f 31/207/33 26/208/33 30/209/33
f 105/210/5 106/211/5 104/212/5
f 42/213/27 39/214/27 36/215/27
f 97/216/40 98/217/40 96/218/40
f 111/219/7 108/220/7 110/221/7
f 99/222/41 102/223/41 98/224/41
f 113/225/5 114/226/5 112/227/5
f 120/228/42 118/229/42 121/230/42
f 119/231/7 116/232/7 118/233/7
f 122/189/1 119/234/1 120/235/1
f 93/197/37 95/51/37 94/55/37
f 101/236/43 96/237/43 100/238/43
f 117/239/44 123/203/44 116/240/44
f 115/241/45 121/230/45 114/242/45
f 53/24/4 54/23/4 51/45/4
f 5/56/46 14/83/46 13/6/46
f 19/58/16 15/92/16 16/59/16
f 35/64/11 45/46/11 51/45/11
f 79/66/7 82/74/7 83/67/7
f 107/69/10 111/243/10 110/70/10
f 85/48/36 86/186/36 83/67/36
f 2/75/17 15/79/17 25/76/17
f 1/78/17 16/244/17 15/79/17
f 33/80/7 31/245/7 30/81/7
f 14/83/47 1/246/47 2/84/47
f 57/85/19 56/150/19 62/86/19
f 3/88/20 4/247/20 17/89/20
f 63/95/23 62/173/23 59/96/23
f 55/99/1 52/187/1 47/100/1
f 27/104/5 29/248/5 28/105/5
f 29/107/10 33/249/10 32/108/10
f 8/110/25 7/63/25 10/111/25
f 31/113/1 33/250/1 29/114/1
f 20/90/26 19/58/26 8/116/26
f 7/63/5 6/62/5 9/118/5
f 41/119/11 42/251/11 36/120/11
f 3/122/5 5/61/5 7/63/5
f 54/126/35 49/183/35 48/127/35
f 9/129/1 12/73/1 21/10/1
f 49/136/34 46/252/34 44/132/34
f 75/138/29 74/253/29 76/139/29
f 89/50/31 90/52/31 86/144/31
f 82/146/10 79/254/10 78/147/10
f 70/40/1 68/255/1 75/138/1
f 12/8/48 9/256/48 6/57/48
f 34/151/3 57/85/3 60/87/3
f 80/155/33 81/257/33 83/156/33
f 51/128/27 48/127/27 40/158/27
f 105/163/1 109/258/1 111/164/1
f 63/95/23 61/13/23 60/172/23
f 47/174/34 46/252/34 49/136/34
f 101/176/1 103/259/1 99/177/1
f 54/126/35 55/260/35 50/182/35
f 53/143/30 46/142/30 47/100/30
f 122/189/1 120/235/1 115/190/1
f 78/192/5 80/261/5 88/179/5
f 59/153/28 56/262/28 39/195/28
f 25/76/24 24/263/24 21/103/24
f 109/198/33 105/264/33 104/199/33
f 122/201/38 113/265/38 112/202/38
f 103/204/39 101/266/39 100/205/39
f 31/207/33 27/267/33 26/208/33
f 105/210/5 107/268/5 106/211/5
f 42/213/27 43/269/27 39/214/27
f 97/216/40 99/270/40 98/217/40
f 111/219/7 109/271/7 108/220/7
f 99/222/41 103/272/41 102/223/41
f 113/225/5 115/273/5 114/226/5
f 120/228/42 119/274/42 118/229/42
f 119/231/7 117/275/7 116/232/7
f 122/189/1 117/276/1 119/234/1
f 93/197/37 91/277/37 95/51/37
f 101/236/43 97/278/43 96/237/43
f 117/239/44 122/201/44 123/203/44
f 115/241/45 120/228/45 121/230/45
