# Blender v2.77 (sub 0) OBJ File: 'LowPoly_Level_Kit_Rocks.blend'
# www.blender.org
g Rock_Wall_02
v -1.058921 0.000000 0.917925
v -1.058921 1.440000 0.917925
v -1.748433 0.000000 -0.976496
v -1.681567 1.440000 -0.792782
v -0.734305 2.327778 0.947147
v -0.617107 0.534204 -1.311083
v -0.688429 0.000000 -1.362306
v 0.024278 0.000000 -0.704064
v -0.505054 1.667571 -1.238674
v -0.007562 1.701030 -0.780118
v 0.045315 0.000000 0.707109
v -0.199118 0.000000 0.958215
v -0.310759 2.125778 0.985276
v -1.669156 1.924959 -0.758684
v -0.644035 2.114701 -1.137043
v -1.516834 2.060996 -0.803425
v -0.014856 2.377980 -0.445901
v -0.136796 2.435488 0.836876
v -0.041761 2.396378 0.757736
v -0.887687 2.731872 -0.574508
v -0.556555 2.595805 -0.817242
v -1.225326 2.393818 0.460729
v -1.358527 2.451256 0.094762
v -0.750121 2.488730 0.881629
v -0.953632 2.760859 -0.221557
v -0.560330 2.607439 0.811300
v -3.079959 0.000000 -0.262907
v -1.492607 0.000000 -0.813101
v -1.410932 1.200000 -0.588702
v -2.286283 0.000000 -0.538004
v -2.204608 1.200000 -0.313604
v -1.059532 0.000000 0.447058
v -1.059532 1.200000 0.447058
v -3.137459 0.000000 0.659778
v -2.074884 1.200000 0.616183
v -2.059585 0.000000 0.660323
v -1.428806 2.055921 -0.637809
v -1.115987 2.055921 0.291950
v -2.930608 0.522025 -0.206715
v -2.398173 1.200000 -0.248165
v -3.024132 0.588594 0.569767
v -2.544857 1.200000 0.537104
v -1.679194 2.055921 -0.551022
v -1.831196 2.055921 0.262715
v -2.150080 1.679327 0.409584
v -2.209309 1.425126 -0.326521
v -0.150903 0.000000 0.422519
v -0.165090 0.000000 -0.627435
v 1.556675 0.000000 -0.650700
v -0.150903 1.191834 0.422519
v 1.556675 1.191834 -0.650700
v 1.570862 1.191834 0.399254
v 0.351654 0.000000 0.779348
v 0.351654 1.191834 0.779348
v 1.780287 1.191834 0.547951
v 1.298611 2.347209 0.402933
v 1.570862 1.722069 0.399254
v 1.750200 1.191834 0.760451
v -0.150903 1.356449 0.422519
v 0.474862 2.347209 0.414064
v 0.134696 2.347209 0.035399
v -0.158860 2.171541 -0.166372
v -0.165090 0.739604 -0.627435
v 0.037286 1.191834 -0.630170
v -0.163584 1.191834 -0.516001
v -0.160527 2.110243 -0.289696
v 0.441728 2.095603 -0.635635
v 1.556675 1.574804 -0.650700
v 1.562033 1.955218 -0.254168
v 1.357229 2.347209 -0.011080
v 0.903344 2.347209 -0.368256
v 0.776702 2.180189 -0.640161
v 1.559949 0.000000 0.763022
v 1.881855 0.889530 0.758672
v 2.378514 0.000000 -0.795170
v 2.378514 1.440000 -0.795170
v 2.109363 2.892209 -0.594632
v 2.053898 2.327778 -0.824393
v 1.365119 2.862968 -0.525549
v 1.840312 2.779707 0.815624
v 1.338895 2.790621 0.364930
v 1.936700 0.534204 1.433838
v 2.008023 0.000000 1.485060
v 1.295316 0.000000 0.826819
v 1.824647 1.667571 1.361428
v 1.327155 1.701030 0.902873
v 1.274278 0.000000 -0.584354
v 1.518711 0.000000 -0.835460
v 1.630352 2.125778 -0.862522
v 1.368463 2.592025 -0.639115
v 2.602045 2.721255 -0.181024
v 2.119941 2.819450 0.492491
v 2.462530 2.892209 -0.259684
v 1.949130 2.752819 0.925775
v 2.083215 2.499435 1.172349
v 2.835411 1.440000 0.460143
v 2.746232 0.000000 0.215127
v 2.756958 0.000000 1.212470
v 2.832569 1.296538 0.997626
v 2.867822 1.895423 0.928770
v 2.874836 2.076619 0.568465
vt 0.7765 0.7119
vt 0.7672 0.7038
vt 0.7725 0.7013
vt 0.7989 0.6993
vt 0.7899 0.6929
vt 0.7970 0.6788
vt 0.7905 0.6793
vt 0.7912 0.6737
vt 0.4204 0.6569
vt 0.4143 0.6622
vt 0.4138 0.6550
vt 0.7914 0.7198
vt 0.7895 0.7192
vt 0.7934 0.7088
vt 0.7625 0.7290
vt 0.7636 0.7003
vt 0.8008 0.6705
vt 0.8157 0.6696
vt 0.7803 0.6964
vt 0.7872 0.6959
vt 0.7863 0.6978
vt 0.7755 0.6969
vt 0.7646 0.6902
vt 0.1971 0.7188
vt 0.1866 0.7188
vt 0.1881 0.7124
vt 0.1853 0.6567
vt 0.1852 0.6481
vt 0.1900 0.6442
vt 0.1999 0.7281
vt 0.2080 0.7309
vt 0.2027 0.7305
vt 0.1803 0.7166
vt 0.1803 0.6997
vt 0.1849 0.7018
vt 0.1901 0.7317
vt 0.1950 0.7223
vt 0.1999 0.7263
vt 0.4778 0.6570
vt 0.4688 0.6492
vt 0.4739 0.6465
vt 0.4864 0.7277
vt 0.4827 0.7234
vt 0.4873 0.7261
vt 0.4374 0.6685
vt 0.4342 0.6752
vt 0.4283 0.6727
vt 0.3941 0.6743
vt 0.3854 0.6678
vt 0.3927 0.6538
vt 0.3992 0.6405
vt 0.4117 0.6427
vt 0.4629 0.7153
vt 0.4739 0.7098
vt 0.4739 0.7257
vt 0.4636 0.6743
vt 0.4650 0.6433
vt 0.4368 0.6576
vt 0.4187 0.6645
vt 0.4242 0.6397
vt 0.7658 0.7293
vt 0.7994 0.7168
vt 0.7985 0.7126
vt 0.8035 0.7198
vt 0.8034 0.7001
vt 0.8087 0.6998
vt 0.8099 0.7008
vt 0.4117 0.6394
vt 0.8103 0.7153
vt 0.7702 0.6978
vt 0.7726 0.6993
vt 0.4915 0.7190
vt 0.4786 0.7109
vt 0.4877 0.7089
vt 0.7895 0.6993
vt 0.8165 0.6985
vt 0.7765 0.7291
vt 0.8393 0.6743
vt 0.8400 0.6678
vt 0.8540 0.6678
vt 0.8540 0.6854
vt 0.8540 0.6912
vt 0.8521 0.6929
vt 0.1926 0.6572
vt 0.1869 0.6647
vt 0.1852 0.6602
vt 0.2256 0.6638
vt 0.2331 0.6539
vt 0.2346 0.6638
vt 0.7649 0.6999
vt 0.2042 0.6939
vt 0.2077 0.7041
vt 0.1972 0.7014
vt 0.7866 0.6851
vt 0.7950 0.7044
vt 0.8010 0.6993
vt 0.4739 0.6394
vt 0.2114 0.6450
vt 0.1962 0.6572
vt 0.1963 0.6448
vt 0.7872 0.6677
vt 0.7643 0.6843
vt 0.7625 0.6669
vt 0.2054 0.6821
vt 0.1866 0.6866
vt 0.1867 0.6821
vt 0.1947 0.7041
vt 0.1972 0.7041
vt 0.7951 0.6678
vt 0.1595 0.7305
vt 0.1653 0.7209
vt 0.1655 0.7305
vt 0.1916 0.7395
vt 0.1866 0.7302
vt 0.4739 0.7269
vt 0.4858 0.7310
vt 0.4754 0.7310
vt 0.2113 0.6320
vt 0.2038 0.6335
vt 0.4739 0.7330
vt 0.4606 0.7289
vt 0.1872 0.6678
vt 0.2081 0.6767
vt 0.2084 0.6937
vt 0.2001 0.6929
vt 0.2080 0.7188
vt 0.2076 0.7188
vt 0.1547 0.7143
vt 0.1466 0.7220
vt 0.1466 0.7125
vt 0.1830 0.6993
vt 0.1849 0.7226
vt 0.2322 0.6321
vt 0.2400 0.6354
vt 0.2400 0.6453
vt 0.2276 0.6528
vt 0.1580 0.7125
vt 0.1475 0.7053
vt 0.1571 0.7061
vt 0.1959 0.6939
vt 0.8451 0.7016
vt 0.8404 0.6935
vt 0.2082 0.6823
vt 0.1908 0.7188
vt 0.1924 0.7188
vt 0.3880 0.6440
vt 0.3928 0.6406
vt 0.1866 0.7261
vt 0.1947 0.7370
vt 0.1999 0.7362
vt 0.2356 0.6678
vt 0.2394 0.6695
vt 0.2390 0.6863
vt 0.2256 0.6320
vt 0.2256 0.6527
vt 0.4673 0.6746
vt 0.4294 0.6749
vt 0.1575 0.7145
vt 0.1515 0.7232
vt 0.3862 0.6542
vt 0.3847 0.6742
vt 0.3912 0.6409
vt 0.4117 0.6739
vt 0.4778 0.6742
vt 0.1962 0.6393
vt 0.4103 0.6394
vt 0.4642 0.7089
vt 0.8384 0.6880
vt 0.2244 0.6714
vt 0.2241 0.6859
vt 0.4756 0.7161
vt 0.4743 0.7175
vt 0.1472 0.6978
vt 0.1568 0.6978
vt 0.2394 0.6920
vt 0.4374 0.6402
vt 0.1926 0.6655
vt 0.2300 0.6528
vt 0.2075 0.6939
vt 0.4646 0.6399
vt 0.2112 0.6572
vt 0.1631 0.7198
vt 0.1866 0.7395
vt 0.4634 0.7393
vt 0.2084 0.6679
vt 0.1466 0.7125
vt 0.8404 0.6997
vt 0.1575 0.7258
vt 0.2245 0.6916
vn -0.0897 0.0000 0.9960
vn 0.6783 -0.0201 -0.7345
vn 0.6214 0.3522 -0.6999
vn 0.9981 -0.0600 -0.0107
vn -0.6843 0.7051 -0.1858
vn 0.6416 0.0071 0.7670
vn 0.9998 -0.0003 0.0224
vn -0.6710 0.2221 0.7075
vn -0.9397 -0.0000 0.3420
vn -0.3214 0.1918 -0.9273
vn -0.0376 0.3906 0.9198
vn -0.6718 0.4295 0.6035
vn 0.0000 1.0000 0.0000
vn 0.0897 0.0000 -0.9960
vn 0.0642 0.9822 0.1764
vn 0.6710 0.2221 -0.7075
vn -0.6783 -0.0201 0.7345
vn -0.9996 -0.0034 -0.0288
vn 0.3389 0.1345 0.9311
vn -0.6416 0.0071 -0.7670
vn 0.9397 -0.0000 -0.3420
vn -0.0745 -0.0166 0.9971
vn 0.3765 0.9264 -0.0057
vn 0.1003 0.3836 0.9181
vn -0.0317 0.9963 0.0800
vn 0.9997 0.0180 -0.0149
vn -0.0468 0.0000 0.9989
vn -0.3389 0.1345 -0.9311
vn -0.3418 0.0746 -0.9368
vn 0.9095 0.3953 0.1288
vn 0.7163 0.0287 0.6972
vn -0.3269 -0.0609 -0.9431
vn -0.4279 0.8560 0.2901
vn -0.1003 0.3836 -0.9181
vn 0.1642 0.0383 0.9857
vn -0.0135 0.0000 -0.9999
vn -0.3144 0.1901 -0.9301
vn -0.3188 0.1951 -0.9275
vn 0.4804 0.6296 -0.6105
vn 0.6369 0.6837 0.3562
vn -0.0005 0.1513 0.9885
vn 0.3658 0.0850 0.9268
vn -0.4830 0.2110 -0.8498
vn -0.3212 0.1952 -0.9267
vn -0.7823 0.6055 -0.1461
vn 0.0135 0.0000 0.9999
vn -0.9481 0.2862 -0.1387
vn -0.3249 0.5638 -0.7593
vn -0.2264 0.8735 -0.4311
vn -0.6214 0.3522 0.6999
vn -0.2264 0.8734 -0.4311
vn 0.0745 -0.0166 -0.9971
vn -0.9962 -0.0159 0.0856
vn -0.9997 0.0180 0.0149
vn 0.0468 0.0000 -0.9989
vn -0.0413 0.0855 0.9955
vn -0.9996 -0.0000 -0.0294
vn -0.7163 0.0287 -0.6972
vn -0.3670 0.0815 -0.9267
vn -0.0497 0.9956 0.0794
vn -0.0638 0.9957 0.0673
vn 0.1498 0.4111 0.8992
vn 0.3689 0.0955 0.9246
vn -0.3689 0.0955 -0.9246
vn -0.5789 0.0000 0.8154
vn -0.0478 0.9966 0.0672
vn 0.9993 0.0362 0.0059
vn 0.2086 0.0000 0.9780
vn 0.3630 0.0978 0.9267
vn -0.9818 0.1797 -0.0612
vn -0.9859 -0.0954 0.1376
vn -0.9993 0.0362 -0.0059
vn -0.1658 0.0341 0.9856
vn -0.3606 0.0987 -0.9275
vn 0.0458 0.1811 0.9824
vn -0.3389 0.1345 -0.9312
s off
f 2/1/1 13/2/1 5/3/1
f 8/4/2 6/5/2 10/6/2
f 10/6/3 9/7/3 15/8/3
f 96/9/4 100/10/4 99/11/4
f 16/12/5 14/13/5 23/14/5
f 11/15/6 19/16/6 13/2/6
f 10/6/7 17/17/7 19/18/7
f 22/19/8 5/20/8 24/21/8
f 22/19/9 23/22/9 14/23/9
f 30/24/10 27/25/10 39/26/10
f 38/27/11 44/28/11 45/29/11
f 62/30/12 60/31/12 61/32/12
f 54/33/13 58/34/13 52/35/13
f 71/36/13 61/37/13 60/38/13
f 76/39/14 89/40/14 78/41/14
f 94/42/15 92/43/15 80/44/15
f 78/45/16 77/46/16 91/47/16
f 84/48/17 82/49/17 86/50/17
f 86/50/18 81/51/18 90/52/18
f 82/53/19 98/54/19 99/55/19
f 89/40/20 87/56/20 90/57/20
f 76/58/21 101/59/21 96/9/21
f 97/60/21 76/58/21 96/9/21
f 2/1/22 12/61/22 13/2/22
f 20/62/23 25/63/23 21/64/23
f 26/65/23 18/66/23 19/67/23
f 97/60/4 99/11/4 98/68/4
f 21/64/23 25/63/23 17/69/23
f 26/70/24 24/71/24 5/3/24
f 81/72/25 77/73/25 79/74/25
f 9/7/2 10/6/2 6/5/2
f 8/4/2 7/75/2 6/5/2
f 10/6/26 11/76/26 8/4/26
f 12/61/27 2/1/27 1/77/27
f 6/78/28 7/79/28 3/80/28
f 23/14/5 25/63/5 20/62/5
f 20/62/5 16/12/5 23/14/5
f 4/81/29 14/82/29 16/83/29
f 57/84/30 70/85/30 56/86/30
f 38/87/13 43/88/13 44/89/13
f 18/90/6 13/2/6 19/16/6
f 12/61/31 11/15/31 13/2/31
f 43/91/32 29/92/32 46/93/32
f 22/19/8 2/94/8 5/20/8
f 22/95/33 24/96/33 26/65/33
f 91/47/16 76/58/16 78/45/16
f 90/57/34 77/97/34 78/41/34
f 36/98/35 33/99/35 35/100/35
f 1/101/9 4/102/9 3/103/9
f 64/104/36 68/105/36 51/106/36
f 39/26/37 40/107/37 31/108/37
f 31/108/38 30/24/38 39/26/38
f 17/17/3 15/8/3 21/109/3
f 26/70/24 13/2/24 18/90/24
f 35/110/13 40/111/13 42/112/13
f 69/113/39 72/114/39 71/36/39
f 101/115/40 95/116/40 100/117/40
f 31/108/32 46/93/32 29/92/32
f 34/118/41 36/98/41 41/119/41
f 100/120/42 85/121/42 99/55/42
f 22/19/9 4/102/9 2/94/9
f 49/122/36 63/123/36 51/106/36
f 63/123/36 64/104/36 51/106/36
f 64/104/43 66/124/43 67/125/43
f 62/30/12 59/126/12 60/31/12
f 28/127/44 31/108/44 29/92/44
f 46/128/45 44/129/45 43/130/45
f 55/131/13 52/35/13 58/34/13
f 50/132/13 54/33/13 52/35/13
f 57/133/46 56/134/46 60/135/46
f 60/135/46 59/136/46 57/133/46
f 27/137/47 41/138/47 39/139/47
f 67/125/36 72/140/36 68/105/36
f 20/141/48 15/142/48 16/83/48
f 63/123/43 65/143/43 64/104/43
f 17/69/23 26/65/23 19/67/23
f 66/144/49 62/145/49 61/37/49
f 86/50/50 95/146/50 80/147/50
f 72/114/49 67/148/49 71/36/49
f 67/148/51 61/37/51 71/36/51
f 70/149/13 60/38/13 56/150/13
f 71/36/39 70/149/39 69/113/39
f 74/151/46 58/152/46 54/153/46
f 52/154/46 59/136/46 50/155/46
f 76/39/52 88/156/52 89/40/52
f 93/157/16 91/47/16 77/46/16
f 31/158/53 45/159/53 46/128/53
f 78/41/34 89/40/34 90/57/34
f 85/160/17 86/50/17 82/49/17
f 84/48/17 83/161/17 82/49/17
f 95/146/50 94/162/50 80/147/50
f 80/147/50 81/51/50 86/50/50
f 86/50/54 87/163/54 84/48/54
f 88/156/55 76/39/55 75/164/55
f 36/98/56 42/165/56 41/119/56
f 81/51/57 79/166/57 90/52/57
f 82/53/19 83/167/19 98/54/19
f 89/40/58 88/156/58 87/56/58
f 25/63/33 22/95/33 26/65/33
f 16/83/59 9/168/59 4/81/59
f 73/169/46 54/153/46 53/170/46
f 81/72/60 80/44/60 92/43/60
f 92/43/61 93/171/61 77/73/61
f 93/171/40 92/43/40 91/172/40
f 94/42/40 95/116/40 92/43/40
f 33/99/62 45/29/62 35/100/62
f 91/172/40 92/43/40 101/115/40
f 85/121/63 82/53/63 99/55/63
f 6/78/64 4/81/64 9/168/64
f 39/139/45 42/173/45 40/174/45
f 50/175/65 53/170/65 54/153/65
f 96/9/4 101/59/4 100/10/4
f 97/60/21 75/176/21 76/58/21
f 97/60/4 96/9/4 99/11/4
f 81/72/66 92/43/66 77/73/66
f 10/6/67 19/18/67 11/76/67
f 57/84/30 69/177/30 70/85/30
f 38/87/13 37/178/13 43/88/13
f 43/91/32 37/179/32 29/92/32
f 91/47/21 101/59/21 76/58/21
f 90/57/34 79/180/34 77/97/34
f 36/98/68 32/181/68 33/99/68
f 1/101/9 2/94/9 4/102/9
f 64/104/36 67/125/36 68/105/36
f 17/17/3 10/6/3 15/8/3
f 26/70/24 5/3/24 13/2/24
f 35/110/13 31/182/13 40/111/13
f 69/113/39 68/183/39 72/114/39
f 101/115/40 92/43/40 95/116/40
f 100/120/69 95/184/69 85/121/69
f 22/19/9 14/23/9 4/102/9
f 49/122/36 48/185/36 63/123/36
f 64/104/43 65/143/43 66/124/43
f 28/127/44 30/24/44 31/108/44
f 46/128/45 45/159/45 44/129/45
f 27/137/70 34/186/70 41/138/70
f 20/141/48 21/187/48 15/142/48
f 17/69/23 25/63/23 26/65/23
f 86/50/50 85/160/50 95/146/50
f 67/148/51 66/144/51 61/37/51
f 70/149/13 71/36/13 60/38/13
f 52/154/46 57/133/46 59/136/46
f 31/158/71 35/188/71 45/159/71
f 86/50/72 90/52/72 87/163/72
f 36/98/73 35/100/73 42/165/73
f 25/63/33 23/14/33 22/95/33
f 16/83/74 15/142/74 9/168/74
f 73/169/46 74/151/46 54/153/46
f 33/99/75 38/27/75 45/29/75
f 6/78/76 3/80/76 4/81/76
f 39/139/45 41/138/45 42/173/45
f 50/175/65 47/189/65 53/170/65
