# Blender v2.77 (sub 0) OBJ File: 'LowPoly_Level_Kit_Rocks.blend'
# www.blender.org
g Rock_Wall_03
v 2.063975 -0.000000 -0.569683
v 2.063975 1.321920 -0.569683
v 1.786933 2.655048 -0.434710
v 1.773132 2.136901 -0.610238
v 1.098389 2.628206 -0.425614
v 1.316805 2.551771 0.607681
v 0.932318 2.561790 0.240830
v 1.305830 0.490400 1.076937
v 1.362578 -0.000000 1.119454
v 0.818888 -0.000000 0.584792
v 1.215387 1.530831 1.016190
v 0.835728 1.561546 0.643668
v 1.025084 -0.000000 -0.474939
v 1.287699 0.000000 -0.649262
v 1.393651 1.951464 -0.663152
v 1.119569 2.379479 -0.510608
v 2.169392 2.498113 -0.096179
v 1.622963 2.588255 0.381351
v 2.054947 2.655048 -0.163191
v 1.398278 2.527088 0.696552
v 1.480965 2.294482 0.889205
v 2.279447 1.321920 0.398159
v 2.237390 -0.000000 0.209252
v 2.087891 -0.000000 0.957977
v 2.191031 1.190223 0.801162
v 2.234118 1.739999 0.751537
v 2.298040 1.906337 0.481674
v -1.083758 -0.000000 -0.493490
v -1.022989 1.321920 -0.213223
v -2.254308 -0.000000 -0.298756
v -2.157936 1.321920 -0.167254
v -0.772359 -0.000000 1.076406
v -0.772359 1.321920 1.076406
v -2.185343 1.321920 1.110195
v -2.174284 -0.000000 1.165204
v -1.036287 2.264803 -0.274557
v -0.814364 2.264803 0.882683
v -1.341930 2.264803 -0.210190
v -1.644711 2.264803 0.736158
v -2.039563 1.849947 0.861455
v -1.977334 1.569919 -0.100426
v -0.838459 -0.000000 1.198028
v 0.444209 0.817333 -1.370672
v 0.351855 -0.000000 -1.435314
v 1.233872 -0.000000 -0.618667
v 0.591555 2.551384 -1.278519
v 1.207486 2.602576 -0.709544
v 0.871528 -0.000000 1.028284
v 0.435955 -0.000000 1.304246
v 0.300187 2.530704 1.322814
v 0.762078 2.780346 1.068501
v 1.148300 3.191031 -0.488411
v 0.832160 3.097315 0.764598
v -0.052255 3.686803 0.236737
v 0.656248 3.516961 -0.772447
v 0.452989 2.952749 -1.214610
v 0.565642 3.466970 -0.875881
v -0.255238 3.387044 -0.603720
v -0.638913 2.692019 -0.967987
v -0.838459 2.056556 1.198028
v -0.782483 2.106429 1.202693
v -0.193957 2.606015 1.269397
v -0.866164 2.203200 1.073585
v -0.513098 3.619707 0.317474
v -0.655863 3.570409 0.250044
v -1.045285 3.151302 0.269021
v -1.264810 -0.000000 -0.717029
v -0.807574 -0.000000 -1.177190
v -0.796450 1.807583 -0.991234
v -1.221105 2.203200 -0.520714
v -0.757518 2.575855 -0.946621
v -1.217390 2.390445 -0.504030
vt 0.1113 0.9433
vt 0.1039 0.9364
vt 0.1081 0.9341
vt 0.0530 0.9570
vt 0.0529 0.9615
vt 0.0517 0.9572
vt 0.0599 0.9510
vt 0.0579 0.9570
vt 0.0545 0.9552
vt 0.1070 0.9140
vt 0.1002 0.9089
vt 0.1040 0.8962
vt 0.1026 0.9588
vt 0.1113 0.9585
vt 0.0898 0.8896
vt 0.0995 0.8853
vt 0.0990 0.8992
vt 0.0994 0.9586
vt 0.1005 0.9313
vt 0.8416 0.7015
vt 0.8397 0.6952
vt 0.8559 0.6951
vt 0.8404 0.7175
vt 0.8423 0.7145
vt 0.8533 0.7171
vt 0.4316 0.9334
vt 0.4240 0.9253
vt 0.4316 0.9037
vt 0.4094 0.9136
vt 0.4035 0.9340
vt 0.4038 0.9084
vt 0.4748 0.9122
vt 0.4624 0.9080
vt 0.4680 0.9068
vt 0.4035 0.9417
vt 0.4206 0.9356
vt 0.4242 0.9393
vt 0.4329 0.9100
vt 0.4511 0.9066
vt 0.4514 0.9088
vt 0.4620 0.9372
vt 0.4755 0.9127
vt 0.4764 0.9364
vt 0.4098 0.9047
vt 0.4112 0.9034
vt 0.4256 0.9052
vt 0.0551 0.9570
vt 0.0598 0.9416
vt 0.4149 0.8948
vt 0.4240 0.9006
vt 0.0995 0.8969
vt 0.1004 0.9146
vt 0.0995 0.8878
vt 0.1014 0.8849
vt 0.1025 0.8845
vt 0.1070 0.8841
vt 0.8495 0.7064
vt 0.8531 0.7064
vt 0.0377 0.9342
vt 0.0351 0.9271
vt 0.0377 0.9255
vt 0.0911 0.8841
vt 0.8236 0.6914
vt 0.8372 0.6883
vt 0.8381 0.6913
vt 0.4698 0.9706
vt 0.4576 0.9811
vt 0.4563 0.9748
vt 0.4306 0.8966
vt 0.0456 0.9579
vt 0.0530 0.9695
vt 0.0487 0.9701
vt 0.0962 0.9169
vt 0.0909 0.9149
vt 0.0976 0.9152
vt 0.0882 0.9135
vt 0.0893 0.9107
vt 0.0995 0.9079
vt 0.0873 0.9015
vt 0.8462 0.7064
vt 0.0988 0.9056
vt 0.0512 0.9262
vt 0.0443 0.9400
vt 0.0425 0.9262
vt 0.4242 0.9714
vt 0.4050 0.9718
vt 0.0425 0.9652
vt 0.8229 0.7067
vt 0.8533 0.7328
vt 0.8397 0.7329
vt 0.0481 0.9483
vt 0.4095 0.9346
vt 0.4613 0.9653
vt 0.4721 0.9640
vt 0.4764 0.8990
vt 0.4702 0.8940
vt 0.4333 0.9355
vt 0.4555 0.9340
vt 0.4230 0.9348
vt 0.4038 0.9062
vt 0.8095 0.7217
vt 0.8176 0.7103
vt 0.8192 0.7217
vt 0.4060 0.9348
vt 0.4756 0.9109
vt 0.4718 0.8944
vt 0.4648 0.8934
vt 0.4247 0.8941
vt 0.4255 0.8934
vt 0.4567 0.9372
vt 0.1079 0.9279
vt 0.4568 0.9051
vt 0.4555 0.9012
vt 0.4555 0.9734
vt 0.4723 0.9658
vt 0.0490 0.9416
vt 0.0449 0.9464
vt 0.4415 0.8984
vt 0.4410 0.8934
vt 0.4504 0.8945
vt 0.4555 0.9024
vt 0.4555 0.9038
vt 0.8274 0.6801
vt 0.8263 0.6852
vt 0.4316 0.9118
vt 0.8398 0.6799
vt 0.8559 0.6799
vt 0.4723 0.9820
vt 0.8556 0.7062
vt 0.8397 0.7067
vt 0.8143 0.7090
vt 0.1001 0.9283
vt 0.8379 0.6799
vt 0.0599 0.9263
vn 0.1381 0.0000 -0.9904
vn 0.0500 0.9732 0.2245
vn 0.6952 0.2140 -0.6862
vn -0.7010 -0.0193 0.7129
vn 0.1020 0.0000 -0.9948
vn 0.2160 0.1091 0.9703
vn -0.4793 0.0059 -0.8776
vn 0.0217 0.4212 0.9067
vn -0.0388 0.2862 -0.9574
vn 0.6793 -0.0187 -0.7336
vn -0.7073 0.0767 -0.7028
vn -0.1083 -0.0052 0.9941
vn 0.9703 0.0169 0.2414
vn -0.9761 -0.0000 0.2173
vn -0.0831 0.0000 0.9965
vn -0.2373 0.0640 -0.9693
vn 0.1253 -0.0139 -0.9920
vn -0.3081 0.5695 -0.7621
vn -0.0250 0.3213 -0.9466
vn -0.6450 0.3383 0.6852
vn -0.2056 -0.0664 -0.9764
vn -0.9703 -0.0000 -0.2418
vn -0.5529 0.0241 -0.8329
vn -0.8060 0.5916 -0.0173
vn 0.4675 0.8649 0.1826
vn 0.6260 0.3287 -0.7072
vn -0.0555 0.9948 0.0853
vn -0.0686 0.9953 0.0677
vn 0.5645 0.6362 0.5259
vn 0.2403 0.0774 0.9676
vn -0.0297 0.3148 0.9487
vn 0.2376 0.0688 0.9689
vn 0.9789 -0.0591 0.1955
vn 0.9765 0.0174 0.2148
vn -0.9997 -0.0093 -0.0214
vn -0.1631 0.1094 -0.9805
vn 0.9761 0.0000 -0.2173
vn -0.2162 0.1012 -0.9711
vn -0.1874 0.9387 -0.2895
vn -0.5050 0.5010 0.7028
vn -0.1053 -0.0129 0.9944
vn 0.0000 1.0000 -0.0000
vn 0.9695 0.0054 0.2450
vn 0.0267 0.6888 0.7245
vn 0.5351 0.0225 0.8445
vn -0.1874 0.9386 -0.2895
vn -0.6671 0.5998 -0.4418
vn -0.7386 0.6329 -0.2320
vn -0.2389 0.0718 -0.9684
vn -0.2372 0.0683 -0.9691
vn -0.2362 0.0727 -0.9690
vn 0.0632 0.0000 0.9980
vn -0.1275 -0.0399 -0.9910
vn -0.9699 0.2095 -0.1237
vn -0.1706 0.1910 0.9667
vn 0.2354 0.0792 0.9687
vn 0.9703 0.0347 0.2396
vn -0.0379 0.9965 0.0740
vn -0.9963 0.0672 0.0545
vn -0.0396 0.2090 -0.9771
vn 0.4797 0.0062 0.8774
vn -0.7355 0.6354 -0.2353
vn 0.0239 0.0418 0.9988
s off
f 2/1/1 15/2/1 4/3/1
f 20/4/2 18/5/2 6/6/2
f 4/7/3 3/8/3 17/9/3
f 10/10/4 8/11/4 12/12/4
f 14/13/5 2/1/5 1/14/5
f 8/15/6 24/16/6 25/17/6
f 15/2/7 13/18/7 16/19/7
f 40/20/8 34/21/8 33/22/8
f 31/23/9 41/24/9 29/25/9
f 45/26/10 43/27/10 47/28/10
f 69/29/11 67/30/11 70/31/11
f 61/32/12 50/33/12 62/34/12
f 47/35/13 53/36/13 51/37/13
f 63/38/14 72/39/14 70/40/14
f 49/41/15 60/42/15 42/43/15
f 71/44/16 59/45/16 46/46/16
f 2/1/17 14/13/17 15/2/17
f 19/47/3 17/9/3 3/8/3
f 2/48/3 4/7/3 17/9/3
f 58/49/18 56/50/18 59/45/18
f 4/3/19 15/2/19 16/19/19
f 11/51/4 12/12/4 8/11/4
f 10/10/4 9/52/4 8/11/4
f 21/53/20 20/54/20 6/55/20
f 6/55/20 7/56/20 12/12/20
f 29/25/21 38/57/21 36/58/21
f 7/59/22 5/60/22 16/61/22
f 8/15/6 9/62/6 24/16/6
f 15/2/23 14/13/23 13/18/23
f 34/63/24 41/64/24 31/65/24
f 54/66/25 52/67/25 55/68/25
f 56/50/26 52/69/26 47/28/26
f 7/70/27 6/6/27 18/5/27
f 18/5/28 19/71/28 3/72/28
f 19/73/29 18/74/29 17/75/29
f 20/76/29 21/77/29 18/74/29
f 12/12/20 21/53/20 6/55/20
f 17/75/29 18/74/29 27/78/29
f 11/79/30 8/15/30 25/17/30
f 33/22/31 39/80/31 40/20/31
f 26/81/32 11/79/32 25/17/32
f 23/82/33 25/83/33 24/84/33
f 47/35/34 48/85/34 45/86/34
f 18/5/27 5/87/27 7/70/27
f 31/65/35 35/88/35 34/63/35
f 31/23/36 28/89/36 30/90/36
f 27/91/37 2/48/37 17/9/37
f 68/92/38 69/29/38 43/27/38
f 54/66/39 58/93/39 65/94/39
f 66/95/40 62/34/40 64/96/40
f 42/97/14 70/40/14 67/98/14
f 46/46/10 47/28/10 43/27/10
f 45/26/10 44/99/10 43/27/10
f 43/27/38 44/99/38 68/92/38
f 72/100/11 71/44/11 70/31/11
f 70/31/11 71/44/11 69/29/11
f 27/78/29 21/77/29 26/81/29
f 61/32/41 49/41/41 50/33/41
f 37/101/42 38/102/42 39/103/42
f 52/104/43 53/36/43 47/35/43
f 61/32/40 62/34/40 63/105/40
f 64/96/40 65/106/40 66/95/40
f 62/34/44 54/107/44 64/96/44
f 60/42/40 61/32/40 63/105/40
f 57/108/26 55/109/26 52/69/26
f 46/46/26 56/50/26 47/28/26
f 48/110/45 50/33/45 49/41/45
f 16/19/19 3/111/19 4/3/19
f 62/34/44 50/33/44 51/112/44
f 51/112/44 53/113/44 62/34/44
f 57/114/46 58/93/46 55/68/46
f 65/94/39 64/115/39 54/66/39
f 22/116/33 26/117/33 25/83/33
f 63/38/14 66/118/14 72/39/14
f 49/41/15 61/32/15 60/42/15
f 65/119/47 58/120/47 66/118/47
f 59/121/47 71/122/47 72/39/47
f 39/123/48 41/64/48 40/124/48
f 46/46/49 43/27/49 69/29/49
f 69/29/50 71/44/50 46/46/50
f 59/45/51 56/50/51 46/46/51
f 66/118/47 59/121/47 72/39/47
f 60/125/14 63/38/14 70/40/14
f 23/82/37 2/48/37 22/116/37
f 33/22/52 35/126/52 32/127/52
f 58/49/18 57/108/18 56/50/18
f 29/25/53 41/24/53 38/57/53
f 34/63/54 40/124/54 41/64/54
f 54/66/25 53/128/25 52/67/25
f 56/50/26 57/108/26 52/69/26
f 12/12/20 11/51/20 21/53/20
f 33/22/55 37/129/55 39/80/55
f 26/81/56 21/77/56 11/79/56
f 23/82/33 22/116/33 25/83/33
f 47/35/57 51/37/57 48/85/57
f 18/5/58 3/72/58 5/87/58
f 31/65/59 30/130/59 35/88/59
f 31/23/60 29/25/60 28/89/60
f 27/91/37 22/116/37 2/48/37
f 68/92/11 67/30/11 69/29/11
f 54/66/46 55/68/46 58/93/46
f 66/95/40 63/105/40 62/34/40
f 42/97/14 60/125/14 70/40/14
f 27/78/29 18/74/29 21/77/29
f 37/101/42 36/131/42 38/102/42
f 62/34/44 53/113/44 54/107/44
f 48/110/61 51/112/61 50/33/61
f 16/19/19 5/132/19 3/111/19
f 22/116/33 27/91/33 26/117/33
f 39/123/62 38/133/62 41/64/62
f 66/118/47 58/120/47 59/121/47
f 23/82/37 1/134/37 2/48/37
f 33/22/63 34/21/63 35/126/63
