# Blender v2.77 (sub 0) OBJ File: 'LowPoly_Level_Kit_Rocks.blend'
# www.blender.org
g Rock_Wall_01
v -0.389265 0.000000 0.935170
v -0.389265 1.200000 0.935170
v -0.963858 0.000000 -0.643514
v -0.908136 1.200000 -0.490418
v -0.600395 2.410174 0.355095
v -0.881181 2.253316 -0.416360
v -0.164972 2.410174 0.768055
v -0.118752 1.939815 0.959522
v 0.455231 2.385807 0.710486
v 0.059237 2.316422 -0.407158
v -0.196164 2.253316 -0.665686
v 0.477084 2.325517 -0.031580
v -0.021086 0.445170 -0.922336
v -0.080522 0.000000 -0.965022
v 0.513401 0.000000 -0.416487
v 0.072291 1.389643 -0.861995
v 0.486867 1.417525 -0.479866
v 0.530932 0.000000 0.759490
v 0.327237 0.000000 0.968745
v 0.234204 1.771481 0.991296
v 0.452444 2.160021 0.805124
v -2.499435 0.000000 -0.034437
v -0.912083 0.000000 -0.584632
v -0.830409 1.200000 -0.360232
v -1.705759 0.000000 -0.309534
v -1.624084 1.200000 -0.085135
v -0.479009 0.000000 0.675527
v -0.479009 1.200000 0.675527
v -2.556936 0.000000 0.888247
v -1.494361 1.200000 0.844653
v -1.479062 0.000000 0.888792
v -0.848282 2.055921 -0.409340
v -0.535464 2.055921 0.520419
v -2.350084 0.522025 0.021754
v -1.817650 1.200000 -0.019695
v -2.443609 0.588594 0.798236
v -1.964334 1.200000 0.765574
v -1.098671 2.055921 -0.322552
v -1.250672 2.055921 0.491184
v -1.569557 1.679327 0.638054
v -1.628786 1.425126 -0.098051
v 0.429620 0.002599 0.650988
v 0.415433 0.002599 -0.398966
v 2.137198 0.002599 -0.422230
v 0.429620 1.157974 0.650988
v 2.137198 1.157974 -0.422230
v 2.151385 1.157974 0.627724
v 0.932177 0.002599 1.007817
v 2.653943 0.002599 0.984553
v 2.639755 0.002599 -0.065401
v 0.932177 1.157974 1.007817
v 2.360809 1.157974 0.776421
v 1.879134 2.313349 0.631402
v 2.151385 1.688209 0.627724
v 2.639755 0.790436 -0.065401
v 2.653943 0.415800 0.984553
v 2.330723 1.157974 0.988920
v 2.494591 1.157974 -0.168472
v 0.429620 1.322590 0.650988
v 1.055385 2.313349 0.642533
v 0.715219 2.313349 0.263869
v 0.421663 2.137681 0.062098
v 0.415433 0.705744 -0.398966
v 0.617809 1.157974 -0.401700
v 0.416939 1.157974 -0.287532
v 0.419996 2.076384 -0.061226
v 1.022251 2.061743 -0.407165
v 2.137198 1.540944 -0.422230
v 2.142556 1.921358 -0.025699
v 1.937752 2.313349 0.217389
v 1.483867 2.313349 -0.139787
v 1.357225 2.146329 -0.411691
vt 0.0293 0.9664
vt 0.0208 0.9587
vt 0.0256 0.9563
vt 0.0581 0.9496
vt 0.0677 0.9437
vt 0.0647 0.9501
vt 0.0238 0.9495
vt 0.0171 0.9425
vt 0.0225 0.9301
vt 0.0283 0.9175
vt 0.0398 0.9196
vt 0.0167 0.9827
vt 0.0178 0.9531
vt 0.6857 0.9443
vt 0.6743 0.9443
vt 0.6760 0.9369
vt 0.6793 0.9156
vt 0.6696 0.9157
vt 0.6652 0.9103
vt 0.1764 0.9815
vt 0.1854 0.9852
vt 0.1796 0.9845
vt 0.2208 0.9511
vt 0.2208 0.9750
vt 0.2152 0.9750
vt 0.1969 0.9712
vt 0.1870 0.9547
vt 0.1924 0.9541
vt 0.1533 0.9645
vt 0.1582 0.9535
vt 0.1636 0.9580
vt 0.0195 0.9830
vt 0.6606 0.9728
vt 0.6518 0.9818
vt 0.6517 0.9711
vt 0.0671 0.9333
vt 0.6636 0.9730
vt 0.6571 0.9830
vt 0.0570 0.9690
vt 0.0488 0.9711
vt 0.0451 0.9615
vt 0.0677 0.9167
vt 0.0467 0.9324
vt 0.0451 0.9157
vt 0.0176 0.9298
vt 0.0167 0.9485
vt 0.1991 0.9443
vt 0.1892 0.9528
vt 0.2051 0.9705
vt 0.2051 0.9511
vt 0.7192 0.9703
vt 0.7084 0.9607
vt 0.7185 0.9606
vt 0.0235 0.9169
vt 0.0293 0.9829
vt 0.2231 0.8979
vt 0.2114 0.9033
vt 0.2089 0.8925
vt 0.0384 0.9165
vt 0.0916 0.9191
vt 0.0922 0.9129
vt 0.1050 0.9129
vt 0.0427 0.9415
vt 0.0398 0.9173
vt 0.0427 0.9165
vt 0.2351 0.9533
vt 0.2295 0.9444
vt 0.2352 0.9443
vt 0.6664 0.8868
vt 0.6800 0.9036
vt 0.6662 0.9034
vt 0.2232 0.8871
vt 0.2089 0.8868
vt 0.0607 0.9616
vt 0.0487 0.9547
vt 0.1611 0.9030
vt 0.1409 0.9080
vt 0.1411 0.9027
vt 0.0201 0.9174
vt 0.6831 0.9274
vt 0.6858 0.9274
vt 0.6935 0.9157
vt 0.6973 0.9274
vt 0.6858 0.9243
vt 0.2351 0.9606
vt 0.2208 0.9554
vt 0.1546 0.9732
vt 0.1492 0.9628
vt 0.6517 0.8868
vt 0.6532 0.8951
vt 0.1049 0.9296
vt 0.0907 0.9322
vt 0.0262 0.9495
vt 0.0950 0.9443
vt 0.1050 0.9442
vt 0.1640 0.8969
vt 0.1644 0.9162
vt 0.1642 0.9032
vt 0.1854 0.9711
vt 0.2261 0.9501
vt 0.2085 0.9106
vt 0.2062 0.8868
vt 0.2085 0.8868
vt 0.1418 0.8868
vt 0.6971 0.9443
vt 0.1489 0.9581
vt 0.1373 0.9030
vt 0.1360 0.8981
vt 0.0607 0.9501
vt 0.2046 0.9745
vt 0.6598 0.9035
vt 0.2085 0.9033
vt 0.2013 0.9106
vt 0.1928 0.9069
vt 0.1928 0.8955
vt 0.7203 0.9776
vt 0.7090 0.9694
vt 0.1553 0.9154
vt 0.1508 0.9165
vt 0.6358 0.9858
vt 0.6439 0.9746
vt 0.6456 0.9858
vt 0.6673 0.9624
vt 0.6735 0.9514
vt 0.6738 0.9624
vt 0.1532 0.9496
vt 0.1550 0.9495
vt 0.0398 0.9493
vt 0.1584 0.9705
vt 0.1640 0.9693
vt 0.2046 0.9443
vt 0.6636 0.9860
vt 0.2046 0.9466
vt 0.2243 0.9033
vt 0.6800 0.8871
vt 0.6972 0.9157
vt 0.2208 0.9606
vt 0.1486 0.9732
vt 0.0177 0.9498
vt 0.1644 0.8872
vt 0.0508 0.9501
vt 0.7080 0.9776
vt 0.6405 0.9732
vt 0.6710 0.9501
vt 0.0472 0.9470
vt 0.1365 0.8872
vt 0.2202 0.9443
vn -0.0897 0.0000 0.9960
vn -0.6710 0.2221 0.7075
vn 0.6783 -0.0201 -0.7345
vn 0.9996 -0.0034 0.0288
vn 0.6416 0.0071 0.7670
vn -0.3214 0.1918 -0.9273
vn -0.0376 0.3906 0.9198
vn -0.6718 0.4295 0.6035
vn 0.0135 0.0000 0.9999
vn 0.0000 1.0000 0.0000
vn -0.0745 -0.0166 0.9971
vn -0.7823 0.6055 -0.1461
vn -0.9962 -0.0159 0.0856
vn 0.1003 0.3836 0.9181
vn 0.0317 0.9963 -0.0800
vn -0.9397 0.0000 0.3420
vn 0.6214 0.3522 -0.6999
vn -0.0468 0.0000 0.9989
vn 0.9095 0.3953 0.1288
vn 0.9996 -0.0000 0.0294
vn -0.3389 0.1345 -0.9312
vn 0.7163 0.0287 0.6972
vn 0.1642 0.0383 0.9857
vn 0.9999 0.0000 -0.0135
vn 0.0497 0.9956 -0.0794
vn -0.0135 0.0000 -0.9999
vn -0.3144 0.1901 -0.9301
vn -0.3188 0.1951 -0.9275
vn -0.3269 -0.0609 -0.9431
vn 0.4804 0.6296 -0.6105
vn 0.1498 0.4111 0.8992
vn -0.0005 0.1513 0.9885
vn -0.3689 0.0955 -0.9246
vn -0.3411 0.0746 -0.9371
vn -0.4830 0.2110 -0.8498
vn -0.3212 0.1952 -0.9267
vn -0.2264 0.8735 -0.4311
vn 0.5789 0.0000 -0.8154
vn -0.0642 0.9822 -0.1764
vn -0.0413 0.0855 0.9955
vn -0.9481 0.2862 -0.1387
vn 0.9997 0.0180 -0.0149
vn -0.2264 0.8734 -0.4311
vn -0.5789 0.0000 0.8154
vn -0.9859 -0.0954 0.1376
vn 0.2086 0.0000 0.9780
vn 0.0568 0.9966 -0.0599
vn 0.0458 0.1811 0.9824
vn -0.1658 0.0341 0.9856
vn -0.9818 0.1797 -0.0612
vn 0.9993 0.0362 0.0059
s off
f 2/1/1 20/2/1 8/3/1
f 5/4/2 8/5/2 7/6/2
f 15/7/3 13/8/3 17/9/3
f 17/9/4 12/10/4 21/11/4
f 20/2/5 18/12/5 21/13/5
f 25/14/6 22/15/6 34/16/6
f 33/17/7 39/18/7 40/19/7
f 62/20/8 60/21/8 61/22/8
f 48/23/9 49/24/9 56/25/9
f 51/26/10 57/27/10 47/28/10
f 71/29/10 61/30/10 60/31/10
f 2/1/11 19/32/11 20/2/11
f 41/33/12 39/34/12 38/35/12
f 5/4/2 2/36/2 8/5/2
f 26/37/13 40/38/13 41/33/13
f 8/3/14 20/2/14 21/13/14
f 7/39/15 9/40/15 12/41/15
f 1/42/16 4/43/16 3/44/16
f 16/45/3 17/9/3 13/8/3
f 15/7/3 14/46/3 13/8/3
f 58/47/10 47/28/10 52/48/10
f 48/23/9 57/49/9 51/50/9
f 34/51/12 37/52/12 35/53/12
f 10/54/17 12/10/17 17/9/17
f 19/32/18 2/1/18 1/55/18
f 55/56/19 52/57/19 56/58/19
f 12/10/20 9/59/20 21/11/20
f 13/60/21 14/61/21 3/62/21
f 20/63/22 19/64/22 18/65/22
f 54/66/19 70/67/19 53/68/19
f 31/69/23 28/70/23 30/71/23
f 50/72/24 56/58/24 49/73/24
f 5/74/25 12/41/25 10/75/25
f 64/76/26 68/77/26 46/78/26
f 10/54/17 16/45/17 11/79/17
f 34/16/27 35/80/27 26/81/27
f 26/81/28 25/14/28 34/16/28
f 38/82/29 24/83/29 41/84/29
f 47/85/24 68/86/24 54/66/24
f 69/87/30 72/88/30 71/29/30
f 28/70/31 40/19/31 30/71/31
f 26/81/29 41/84/29 24/83/29
f 29/89/32 31/69/32 36/90/32
f 13/60/33 4/91/33 16/92/33
f 21/13/14 7/93/14 8/3/14
f 11/94/34 4/91/34 6/95/34
f 63/96/26 64/76/26 46/78/26
f 66/97/35 64/76/35 65/98/35
f 62/20/8 59/99/8 60/21/8
f 68/86/24 69/100/24 54/66/24
f 47/101/9 59/102/9 45/103/9
f 44/104/26 63/96/26 46/78/26
f 23/105/36 26/81/36 24/83/36
f 67/106/37 61/30/37 71/29/37
f 46/78/38 58/107/38 55/108/38
f 10/75/39 6/109/39 5/74/39
f 52/48/10 47/28/10 57/27/10
f 45/110/10 51/26/10 47/28/10
f 31/69/40 37/111/40 36/90/40
f 57/112/19 56/58/19 52/57/19
f 54/113/9 53/114/9 60/115/9
f 60/115/9 59/102/9 54/113/9
f 22/116/41 36/117/41 34/51/41
f 67/118/26 72/119/26 68/77/26
f 33/120/10 38/121/10 39/122/10
f 30/123/10 35/124/10 37/125/10
f 5/4/16 4/43/16 2/36/16
f 64/76/35 63/96/35 65/98/35
f 66/126/37 62/127/37 61/30/37
f 17/9/42 18/128/42 15/7/42
f 72/88/43 67/106/43 71/29/43
f 55/108/38 44/104/38 46/78/38
f 70/129/10 60/31/10 53/130/10
f 71/29/30 70/129/30 69/87/30
f 45/131/44 48/23/44 51/50/44
f 41/33/12 40/38/12 39/34/12
f 26/37/45 30/132/45 40/38/45
f 1/42/16 2/36/16 4/43/16
f 58/47/10 46/133/10 47/28/10
f 48/23/9 56/25/9 57/49/9
f 34/51/12 36/117/12 37/52/12
f 55/56/19 58/134/19 52/57/19
f 54/66/19 69/100/19 70/67/19
f 31/69/46 27/135/46 28/70/46
f 50/72/24 55/56/24 56/58/24
f 5/74/47 7/39/47 12/41/47
f 64/76/26 67/118/26 68/77/26
f 10/54/17 17/9/17 16/45/17
f 38/82/29 32/136/29 24/83/29
f 47/85/24 46/137/24 68/86/24
f 69/87/30 68/138/30 72/88/30
f 28/70/48 33/17/48 40/19/48
f 13/60/21 3/62/21 4/91/21
f 21/13/14 9/139/14 7/93/14
f 11/94/33 16/92/33 4/91/33
f 66/97/35 67/118/35 64/76/35
f 47/101/9 54/113/9 59/102/9
f 44/104/26 43/140/26 63/96/26
f 23/105/36 25/14/36 26/81/36
f 67/106/43 66/126/43 61/30/43
f 10/75/39 11/141/39 6/109/39
f 31/69/49 30/71/49 37/111/49
f 22/116/50 29/142/50 36/117/50
f 33/120/10 32/143/10 38/121/10
f 30/123/10 26/144/10 35/124/10
f 5/4/16 6/145/16 4/43/16
f 17/9/51 21/11/51 18/128/51
f 55/108/38 50/146/38 44/104/38
f 70/129/10 71/29/10 60/31/10
f 45/131/44 42/147/44 48/23/44
